<svg viewBox="0 0 16 16" xmlns="http://www.w3.org/2000/svg"><path d="M11.7444 0.557987C10.6797 0.104214 9.51905 -0.0784672 8.3664 0.0262944C7.21375 0.131056 6.10506 0.519991 5.13958 1.15829C4.17409 1.79658 3.38195 2.66431 2.83404 3.68381C2.28616 4.70326 1.9996 5.84282 2 7.00016V7.34859L0.0839774 10.2226C0.00442477 10.342 -0.0200575 10.4897 0.0167526 10.6283C0.0535628 10.7669 0.148121 10.8831 0.276396 10.9472L2 11.809V14C2 14.5304 2.21072 15.0391 2.58579 15.4142C2.96086 15.7893 3.46957 16 4 16H7.5C8.42826 16 9.3185 15.6312 9.97488 14.9748C10.6313 14.3185 11 13.4282 11 12.5V8.94999C12.1411 8.71835 13 7.70948 13 6.5C13 5.11929 11.8807 4 10.5 4C9.11929 4 8 5.11929 8 6.5C8 7.70948 8.85888 8.71836 10 8.94999V12.5C10 13.163 9.73661 13.7989 9.26777 14.2677C8.79893 14.7366 8.16304 15 7.5 15H4C3.73479 15 3.48043 14.8946 3.2929 14.7071C3.10536 14.5195 3 14.2652 3 14V11.5C3 11.3106 2.893 11.1375 2.72361 11.0528L1.2302 10.3061L2.91603 7.77733C2.97078 7.69519 3 7.59869 3 7.49998V6.99979C2.99963 6.00773 3.24526 5.03106 3.71489 4.15721C4.18453 3.28335 4.86351 2.53958 5.69107 1.99247C6.51862 1.44536 7.46893 1.11199 8.45691 1.02219C9.4449 0.932394 10.4397 1.08898 11.3524 1.47793C12.265 1.86687 13.067 2.47605 13.6864 3.25092C14.3059 4.02578 14.7236 4.94217 14.9021 5.91804C15.0806 6.89391 15.0143 7.89881 14.7092 8.84279C14.4041 9.78677 13.8697 10.6404 13.1538 11.3272C13.0556 11.4215 13 11.5518 13 11.688V15.5C13 15.7761 13.2239 16 13.5 16C13.7761 16 14 15.7761 14 15.5V11.8965C14.7581 11.1228 15.327 10.1829 15.6608 9.15032C16.0167 8.04902 16.094 6.87663 15.8858 5.73812C15.6775 4.5996 15.1902 3.53049 14.4675 2.62648C13.7448 1.72246 12.8092 1.01176 11.7444 0.557987ZM10.5044 7.99999C10.5029 7.99998 10.5015 7.99998 10.5 7.99998C10.4985 7.99998 10.4971 7.99998 10.4956 7.99999C9.66922 7.99765 9 7.32697 9 6.5C9 5.67157 9.67157 5 10.5 5C11.3284 5 12 5.67157 12 6.5C12 7.32697 11.3308 7.99764 10.5044 7.99999Z"/></svg>