<svg viewBox="0 0 24 24" xmlns="http://www.w3.org/2000/svg"><path d="M24 6V9H21V15H24V18H21V19.5C21 19.8978 20.8419 20.2794 20.5606 20.5606C20.2794 20.8419 19.8978 21 19.5 21H18V24H15V21H9V24H6V21H4.5C4.10217 21 3.72065 20.8419 3.43934 20.5606C3.15804 20.2794 3 19.8978 3 19.5V18H0V15H3V9H0V6H3V4.5C3 4.10217 3.15804 3.72065 3.43934 3.43934C3.72065 3.15804 4.10217 3 4.5 3H6V0H9V3H15V0H18V3H19.5C19.8978 3 20.2794 3.15804 20.5606 3.43934C20.8419 3.72065 21 4.10217 21 4.5V6H24ZM6 18H18V6H6V18ZM9 9H15V15H9V9Z"/></svg>