<svg xmlns="http://www.w3.org/2000/svg" viewBox="0 0 16 16"><g><path d="M1.1,4.9C1,4.6,1,4.3,1,4c0-1.7,1.3-3,3-3c0.5,0,0.9,0.1,1.3,0.3c0.2,0.1,0.5,0,0.7-0.2s0-0.5-0.2-0.7C5.2,0.1,4.6,0,4,0C1.8,0,0,1.8,0,4c0,0.4,0.1,0.8,0.2,1.1c0.1,0.3,0.4,0.4,0.6,0.3C1.1,5.4,1.2,5.1,1.1,4.9z"/><path d="M11.5,9H8.7L5.9,6.1C5.7,6,5.3,6,5.1,6.1C5,6.3,5,6.7,5.1,6.9l3,3C8.2,9.9,8.4,10,8.5,10h3c0.3,0,0.5-0.2,0.5-0.5S11.8,9,11.5,9z"/><path d="M13.3,13.6C14.4,12.4,15,10.8,15,9c0-3.9-3.1-7-7-7C4.1,2,1,5.1,1,9c0,1.8,0.6,3.4,1.7,4.6l-1.6,1.6c-0.2,0.2-0.2,0.5,0,0.7c0.2,0.2,0.5,0.2,0.7,0l1.6-1.6C4.6,15.4,6.2,16,8,16c1.8,0,3.4-0.6,4.6-1.7l1.6,1.6c0.2,0.2,0.5,0.2,0.7,0c0.2-0.2,0.2-0.5,0-0.7L13.3,13.6z M12.3,13.2C12.2,13.2,12.2,13.2,12.3,13.2C12.2,13.2,12.2,13.2,12.3,13.2C11.1,14.3,9.7,15,8,15c-1.7,0-3.1-0.7-4.2-1.7l0,0l0,0C2.7,12.1,2,10.7,2,9c0-3.3,2.7-6,6-6s6,2.7,6,6C14,10.7,13.3,12.1,12.3,13.2z"/><path d="M12,0c-0.6,0-1.2,0.1-1.7,0.4C10,0.5,9.9,0.8,10.1,1c0.1,0.2,0.4,0.4,0.7,0.2C11.1,1.1,11.5,1,12,1c1.7,0,3,1.3,3,3c0,0.3,0,0.6-0.1,0.9c-0.1,0.3,0.1,0.5,0.3,0.6c0.3,0.1,0.5-0.1,0.6-0.3C15.9,4.8,16,4.4,16,4C16,1.8,14.2,0,12,0z"/></g></svg>