<svg xmlns="http://www.w3.org/2000/svg" viewBox="0 0 24 24"><title>Vlt-icon-android</title><desc>Created with Sketch.</desc><g id="Symbols"><g id="Icons_x2F_Vlt-icon-android"><g id="_x33_8002" transform="translate(3.000000, 1.500000)"><path id="Shape" d="M1.9,7.3c-0.3,0-0.6,0.1-0.8,0.3C0.8,7.8,0.7,8.1,0.7,8.4v5c0,0.3,0.1,0.6,0.3,0.8c0.2,0.2,0.5,0.3,0.8,0.3c0.3,0,0.6-0.1,0.8-0.3c0.2-0.2,0.3-0.5,0.3-0.8v-5c0-0.3-0.1-0.6-0.3-0.8C2.5,7.4,2.2,7.3,1.9,7.3z"/><path id="Shape_1_" d="M11.8,2.4l0.8-1.5c0.1-0.1,0-0.2-0.1-0.2c-0.1,0-0.2,0-0.2,0.1l-0.8,1.5C10.8,1.9,10,1.8,9.2,1.8c-0.8,0-1.6,0.2-2.3,0.5L6,0.7C6,0.6,5.9,0.6,5.8,0.6C5.7,0.7,5.7,0.8,5.7,0.9l0.8,1.5c-0.8,0.4-1.5,1-2,1.8C4.1,5,3.8,5.8,3.8,6.7h10.7c0-0.9-0.2-1.7-0.7-2.5C13.3,3.4,12.7,2.8,11.8,2.4z M7.1,4.6C7,4.7,6.9,4.8,6.8,4.8c-0.1,0-0.2,0-0.3-0.1C6.4,4.5,6.3,4.4,6.3,4.3c0-0.1,0-0.2,0.1-0.3c0.1-0.1,0.2-0.1,0.3-0.1S7,3.9,7.1,4c0.1,0.1,0.1,0.2,0.1,0.3C7.2,4.4,7.2,4.5,7.1,4.6z M12,4.6c-0.1,0.1-0.2,0.1-0.3,0.1c-0.1,0-0.2,0-0.3-0.1c-0.1-0.1-0.1-0.2-0.1-0.3c0-0.1,0-0.2,0.1-0.3c0.1-0.1,0.2-0.1,0.3-0.1c0.1,0,0.2,0,0.3,0.1c0.1,0.1,0.1,0.2,0.1,0.3C12.1,4.4,12.1,4.5,12,4.6z"/><path id="Shape_2_" d="M3.9,15.2c0,0.4,0.1,0.7,0.4,0.9c0.2,0.2,0.5,0.4,0.9,0.4H6l0,2.6c0,0.3,0.1,0.6,0.3,0.8c0.2,0.2,0.5,0.3,0.8,0.3c0.3,0,0.6-0.1,0.8-0.3c0.2-0.2,0.3-0.5,0.3-0.8v-2.6H10v2.6c0,0.3,0.1,0.6,0.3,0.8c0.2,0.2,0.5,0.3,0.8,0.3c0.3,0,0.6-0.1,0.8-0.3c0.2-0.2,0.3-0.5,0.3-0.8v-2.6h0.9c0.3,0,0.6-0.1,0.9-0.4c0.2-0.2,0.4-0.5,0.4-0.9V7.5H3.9V15.2z"/><path id="Shape_3_" d="M16.5,7.3c-0.3,0-0.6,0.1-0.8,0.3c-0.2,0.2-0.3,0.5-0.3,0.8v5c0,0.3,0.1,0.6,0.3,0.8s0.5,0.3,0.8,0.3c0.3,0,0.6-0.1,0.8-0.3c0.2-0.2,0.3-0.5,0.3-0.8v-5c0-0.3-0.1-0.6-0.3-0.8C17.1,7.4,16.9,7.3,16.5,7.3z"/></g></g></g></svg>