<svg xmlns="http://www.w3.org/2000/svg" viewBox="0 0 16 16"><g><path d="M11.5,7C9,7,7,9,7,11.5S9,16,11.5,16s4.5-2,4.5-4.5S14,7,11.5,7z M11.5,15C9.6,15,8,13.4,8,11.5S9.6,8,11.5,8S15,9.6,15,11.5S13.4,15,11.5,15z"/><path d="M13.5,11H12V9.5C12,9.2,11.8,9,11.5,9S11,9.2,11,9.5V11H9.5C9.2,11,9,11.2,9,11.5S9.2,12,9.5,12H11v1.5c0,0.3,0.2,0.5,0.5,0.5s0.5-0.2,0.5-0.5V12h1.5c0.3,0,0.5-0.2,0.5-0.5S13.8,11,13.5,11z"/><path d="M14.5,0h-13C0.7,0,0,0.7,0,1.5v3v7C0,12.3,0.7,13,1.5,13h3C4.8,13,5,12.8,5,12.5S4.8,12,4.5,12h-3C1.2,12,1,11.8,1,11.5V5h14v1.5C15,6.8,15.2,7,15.5,7S16,6.8,16,6.5v-2v-3C16,0.7,15.3,0,14.5,0z M15,4H1V1.5C1,1.2,1.2,1,1.5,1h13C14.8,1,15,1.2,15,1.5V4z"/></g></svg>