<svg viewBox="0 0 16 16" xmlns="http://www.w3.org/2000/svg"><path d="M10.8636 2.46967C10.5707 2.17678 10.0958 2.17678 9.80292 2.46967C9.51003 2.76256 9.51003 3.23744 9.80292 3.53033L13.1896 6.91699H1C0.585786 6.91699 0.25 7.25278 0.25 7.66699C0.25 8.08121 0.585786 8.41699 1 8.41699H13.1889L9.80292 11.803C9.51003 12.0959 9.51003 12.5708 9.80292 12.8637C10.0958 13.1566 10.5707 13.1566 10.8636 12.8637L15.5154 8.21185C15.6599 8.07515 15.75 7.88159 15.75 7.66699C15.75 7.57955 15.735 7.4956 15.7075 7.41757C15.6715 7.31487 15.6124 7.21845 15.5302 7.13634L10.8636 2.46967Z"/></svg>