<svg viewBox="0 0 16 16" xmlns="http://www.w3.org/2000/svg"><path d="M4.88642 13.6136C5.17931 13.9065 5.65418 13.9065 5.94708 13.6136C6.23997 13.3207 6.23997 12.8458 5.94708 12.5529L2.56042 9.16626L14.75 9.16626C15.1642 9.16626 15.5 8.83047 15.5 8.41626C15.5 8.00205 15.1642 7.66626 14.75 7.66626L2.56107 7.66626L5.94708 4.28025C6.23997 3.98736 6.23997 3.51248 5.94708 3.21959C5.65418 2.9267 5.17931 2.9267 4.88642 3.21959L0.234572 7.87143C0.0901179 8.00814 -4.92328e-07 8.20168 -4.73568e-07 8.41626C-4.65943e-07 8.50349 0.0148893 8.58723 0.0422654 8.6651C0.0783182 8.76802 0.13748 8.86465 0.21975 8.94692L4.88642 13.6136Z"/></svg>