<svg viewBox="0 0 16 16" xmlns="http://www.w3.org/2000/svg"><path d="M2.5 1C1.67157 1 1 1.67157 1 2.5C1 3.32843 1.67157 4 2.5 4C3.32843 4 4 3.32843 4 2.5C4 1.67157 3.32843 1 2.5 1ZM0 2.5C0 1.11929 1.11929 0 2.5 0C3.88071 0 5 1.11929 5 2.5C5 3.88071 3.88071 5 2.5 5C1.11929 5 0 3.88071 0 2.5Z"/><path d="M2.5 12C1.67157 12 1 12.6716 1 13.5C1 14.3284 1.67157 15 2.5 15C3.32843 15 4 14.3284 4 13.5C4 12.6716 3.32843 12 2.5 12ZM0 13.5C0 12.1193 1.11929 11 2.5 11C3.88071 11 5 12.1193 5 13.5C5 14.8807 3.88071 16 2.5 16C1.11929 16 0 14.8807 0 13.5Z"/><path d="M13 6C11.8954 6 11 6.89543 11 8C11 9.10457 11.8954 10 13 10C14.1046 10 15 9.10457 15 8C15 6.89543 14.1046 6 13 6ZM10 8C10 6.34315 11.3431 5 13 5C14.6569 5 16 6.34315 16 8C16 9.65685 14.6569 11 13 11C11.3431 11 10 9.65685 10 8Z"/><path d="M2.5 6C2.77614 6 3 6.22386 3 6.5V9.5C3 9.77614 2.77614 10 2.5 10C2.22386 10 2 9.77614 2 9.5V6.5C2 6.22386 2.22386 6 2.5 6Z"/><path d="M5.47711 4.05899C5.60524 3.81438 5.90741 3.71995 6.15203 3.84808L9.38603 5.54208C9.63064 5.67021 9.72507 5.97238 9.59694 6.217C9.46881 6.46161 9.16664 6.55604 8.92202 6.42791L5.68802 4.73391C5.4434 4.60578 5.34898 4.30361 5.47711 4.05899Z"/><path d="M9.59694 9.78299C9.72507 10.0276 9.63064 10.3298 9.38603 10.4579L6.15203 12.1519C5.90741 12.28 5.60524 12.1856 5.47711 11.941C5.34898 11.6964 5.4434 11.3942 5.68802 11.2661L8.92202 9.57208C9.16664 9.44395 9.46881 9.53838 9.59694 9.78299Z"/></svg>