<svg viewBox="0 0 24 24" xmlns="http://www.w3.org/2000/svg"><path fill-rule="evenodd" clip-rule="evenodd" d="M11.9967 0.595474C15.0211 0.596665 17.8591 1.77392 19.9939 3.90988C22.1281 6.04645 23.3035 8.88567 23.3023 11.9059C23.3 18.1376 18.2277 23.208 11.9967 23.208H11.9919C10.1001 23.2074 8.24042 22.7328 6.58917 21.8319L0.595719 23.4039L2.19993 17.5474C1.21025 15.8337 0.689804 13.8888 0.6904 11.897C0.693377 5.66534 5.76444 0.595474 11.9967 0.595474ZM11.9967 0C5.43693 0 0.0979027 5.33664 0.0949254 11.897C0.0943299 13.9019 0.600483 15.8777 1.56039 17.6266L0.0210866 23.2473C-0.034888 23.4528 0.0222775 23.6719 0.172337 23.8231C0.285477 23.9375 0.438514 24 0.595719 24C0.646335 24 0.69695 23.9934 0.74697 23.9803L6.51533 22.4678C8.19933 23.342 10.087 23.8035 11.9919 23.8041C18.5564 23.8041 23.8954 18.4669 23.8984 11.9065C23.8996 8.72727 22.6628 5.73799 20.4161 3.48948C18.1682 1.24037 15.1783 0.00119095 11.9967 0ZM18.6433 5.2593C16.8688 3.4836 14.5102 2.50523 11.9996 2.50464C6.81662 2.50464 2.60126 6.71821 2.59888 11.8977C2.59828 13.6728 3.09491 15.4008 4.03576 16.8973L4.25966 17.2528L3.30987 20.719L6.86664 19.7865L7.21023 19.9901C8.65247 20.8464 10.3067 21.299 11.9931 21.2996H11.9967C17.1761 21.2996 21.3915 17.0854 21.3932 11.9054C21.3938 9.39547 20.4179 7.03501 18.6433 5.2593ZM8.53456 6.68405C8.73643 6.69239 8.95913 6.70192 9.17053 7.17234C9.31823 7.50064 9.56878 8.11859 9.76441 8.60106C9.90161 8.93944 10.0118 9.21118 10.0405 9.2696C10.1114 9.41073 10.1584 9.57568 10.0643 9.76444C10.0501 9.79283 10.037 9.81962 10.0245 9.84521C9.95391 9.98926 9.90192 10.0954 9.78208 10.2355C9.73375 10.2917 9.68383 10.3524 9.63399 10.413C9.53768 10.53 9.44168 10.6467 9.3581 10.7303C9.21638 10.8714 9.0693 11.0245 9.23424 11.3067C9.39919 11.5896 9.96608 12.5143 10.8057 13.2629C11.7075 14.0667 12.4909 14.4068 12.889 14.5796C12.9675 14.6137 13.031 14.6413 13.0774 14.6646C13.3597 14.8063 13.5246 14.7825 13.6896 14.5937C13.8545 14.4056 14.3958 13.769 14.584 13.4868C14.7727 13.2039 14.9609 13.2509 15.22 13.345C15.479 13.4391 16.8682 14.1221 17.1505 14.2638C17.2067 14.2921 17.2591 14.3174 17.3076 14.3409C17.503 14.4354 17.635 14.4993 17.6918 14.5937C17.762 14.7116 17.762 15.2767 17.5268 15.9365C17.2916 16.5963 16.1382 17.2323 15.6201 17.2793C15.5703 17.2839 15.5208 17.2897 15.4699 17.2957C14.991 17.3519 14.3867 17.4229 12.2301 16.5725C9.57628 15.5257 7.82636 12.9322 7.46497 12.3966C7.43534 12.3526 7.41504 12.3226 7.40435 12.3083L7.40243 12.3057C7.2543 12.1083 6.25092 10.7706 6.25092 9.38691C6.25092 8.08655 6.89 7.40493 7.18444 7.0909C7.20469 7.06929 7.22332 7.04942 7.24 7.03121C7.49903 6.74836 7.8051 6.6775 7.99327 6.6775C8.00671 6.6775 8.02016 6.6775 8.03359 6.6775C8.20821 6.67746 8.3814 6.67742 8.53456 6.68405Z"/></svg>