<svg viewBox="0 0 24 24" xmlns="http://www.w3.org/2000/svg"><path d="M0 0H24V24H0V0Z" fill="#F0DB4F"/><path d="M22.0364 18.3274C21.8182 17.2365 21.1636 16.3638 18.9818 15.491C18.2182 15.1638 17.4545 14.9456 17.2364 14.4001C17.1273 14.0729 17.1273 13.8547 17.2364 13.7456C17.3455 13.091 18.1091 12.8729 18.7636 13.091C19.2 13.2001 19.5273 13.5274 19.7455 13.9638C20.7273 13.3092 20.7273 13.3092 21.4909 12.8729C21.2727 12.4365 21.0545 12.3274 20.9455 12.1092C20.2909 11.4547 19.5273 11.0183 18.1091 11.1274L17.4545 11.2365C16.8 11.4547 16.1455 11.7819 15.7091 12.2183C14.6182 13.5274 14.9455 15.7092 16.2545 16.691C17.5636 17.6729 19.6364 18.0001 19.8545 18.8729C20.0727 20.0729 18.9818 20.4001 17.8909 20.291C17.1273 20.0729 16.5818 19.7456 16.1455 18.9819C15.2727 19.5274 15.2727 19.5274 14.2909 20.0729C14.5091 20.5092 14.7273 20.7274 15.0545 21.1638C16.8 22.9092 21.1636 22.8001 21.9273 20.1819C22.0364 19.8547 22.2545 19.2001 22.0364 18.3274ZM13.0909 11.0183H10.8V16.8001C10.8 18.0001 10.9091 19.2001 10.6909 19.5274C10.3636 20.1819 9.49091 20.0729 9.16363 19.9638C8.72727 19.7456 8.61818 19.5274 8.29091 19.091C8.18182 18.9819 8.18182 18.8729 8.18182 18.8729L6.32727 19.9638C6.65454 20.7274 7.09091 21.2729 7.63636 21.6001C8.50909 22.1456 9.6 22.2547 10.8 22.0365C11.5636 21.8183 12.2182 21.3819 12.6545 20.6183C13.2 19.6365 13.0909 18.5456 13.0909 17.2365C13.0909 15.1638 13.0909 13.091 13.0909 11.0183Z" fill="#323330"/></svg>