<svg viewBox="0 0 24 24" xmlns="http://www.w3.org/2000/svg"><g clip-path="url(#clip0)"><path d="M5.23468 22.0672C2.17427 20.8323 0.50984 20.0807 0.295075 19.8122C-0.0270736 19.4364 -0.0270736 19.0068 0.0266178 12.4028C0.0803091 6.38936 0.134 5.36923 0.348766 5.20815C0.670914 5.04708 10.228 8.80547 10.7649 9.39608L11.1407 9.77192L11.087 16.8055V23.8927L10.4964 23.9464C10.0669 23.9464 8.40247 23.3558 5.23468 22.0672Z" fill="#343433"/><path d="M12.3219 23.839C12.2682 23.7853 12.2145 20.6175 12.2145 16.8055C12.2145 10.9531 12.2682 9.82558 12.483 9.50343C12.8051 9.0739 22.2011 5.26181 22.7917 5.3155L23.1676 5.36919L23.2213 12.4028C23.275 18.8994 23.2213 19.4363 22.9528 19.8122C22.6307 20.188 13.3421 24.0001 12.7515 24.0001C12.5367 23.9464 12.3756 23.9464 12.3219 23.839Z" fill="#CDCCCB"/><path d="M5.98632 6.44296C2.06685 4.88591 1.1004 4.40269 1.1004 4.18793C1.1004 3.7047 10.389 0 11.6239 0C12.8588 0 22.1474 3.7047 22.1474 4.18793C22.1474 4.45638 21.2347 4.88591 17.2615 6.49665C13.8253 7.89263 12.1608 8.42954 11.6776 8.42954C11.1407 8.37585 9.31518 7.73156 5.98632 6.44296Z" fill="#E61718"/></g><defs><clipPath id="clip0"><path d="M0 0H24V24H0V0Z" fill="white"/></clipPath></defs></svg>