<svg viewBox="0 0 24 24" xmlns="http://www.w3.org/2000/svg"><path fill-rule="evenodd" clip-rule="evenodd" d="M23.3465 9.28566C22.8414 9.06917 20.6763 9.30972 20.0749 8.76445C19.6499 8.37153 19.623 7.66012 19.4574 6.71166C19.18 5.12282 19.0645 4.76311 18.7758 4.13765C17.7254 1.90845 15.2084 0 12.9222 0H7.62181C3.45208 0 0.0441284 3.41597 0.0441284 7.5857V16.4303C0.0441284 20.592 3.45208 24 7.62181 24H16.3301C20.4999 24 23.8838 20.592 23.9078 16.4303L23.9559 10.304C23.9559 10.304 23.9559 9.54688 23.3465 9.28566ZM7.50003 6H11.5C12.3285 6 13 6.67157 13 7.5C13 8.32843 12.3285 9 11.5 9H7.50003C6.6716 9 6.00003 8.32843 6.00003 7.5C6.00003 6.67158 6.6716 6 7.50003 6ZM16.5 18H7.50003C6.6716 18 6.00003 17.3284 6.00003 16.5C6.00003 15.6716 6.6716 15 7.50003 15H16.5C17.3285 15 18 15.6716 18 16.5C18 17.3284 17.3285 18 16.5 18Z" fill="#FF6600"/></svg>