<svg viewBox="0 0 24 24" xmlns="http://www.w3.org/2000/svg"><g clip-path="url(#clip0)"><path fill-rule="evenodd" clip-rule="evenodd" d="M2.58296 0.108597C2.79821 0 3.01345 0 3.2287 0H20.9865H21.6323C22.0628 0.108597 22.3857 0.325792 22.7085 0.542986C23.0314 0.868778 23.2466 1.19457 23.4619 1.62896V1.73756L23.3543 1.62896C23.3005 1.62896 23.2466 1.60181 23.1928 1.57466C23.139 1.54751 23.0852 1.52036 23.0314 1.52036H22.6009C22.4933 1.52036 22.3587 1.54751 22.2242 1.57466C22.0897 1.60181 21.9552 1.62896 21.8475 1.62896C21.7399 1.62896 21.6323 1.65611 21.5247 1.68326C21.417 1.71041 21.3094 1.73756 21.2018 1.73756L20.6637 1.84615L19.9103 2.06335C19.7326 2.06335 19.5874 2.09626 19.457 2.12585C19.3505 2.15 19.2537 2.17195 19.157 2.17195C19.0493 2.17195 18.9148 2.1991 18.7803 2.22624C18.6457 2.25339 18.5112 2.28054 18.4036 2.28054C18.296 2.28054 18.2152 2.30769 18.1345 2.33484C18.0538 2.36199 17.9731 2.38914 17.8655 2.38914L17.0045 2.49774C16.8969 2.49774 16.7623 2.52489 16.6278 2.55204C16.4933 2.57919 16.3587 2.60634 16.2511 2.60634C16.125 2.60634 16.0359 2.6436 15.962 2.67447C15.9098 2.6963 15.8652 2.71493 15.8206 2.71493C15.775 2.71493 15.7487 2.71493 15.7254 2.72322C15.6936 2.73446 15.6674 2.76099 15.6054 2.82353C15.4978 2.93213 15.3901 3.04072 15.4978 3.25792C15.4978 3.31222 15.5247 3.33937 15.5516 3.36652C15.5785 3.39367 15.6054 3.42081 15.6054 3.47511L15.9283 3.9095C16.0038 4.13806 16.1322 4.31318 16.2765 4.50984C16.3379 4.59349 16.4021 4.68105 16.4664 4.77828L17.1121 5.64706L17.6502 6.51584L18.1883 7.38462L18.8341 8.25339L19.3722 9.12217L19.9103 9.99095V10.0995H19.8027L17.6502 10.6425C17.3274 10.6968 17.0045 10.7783 16.6816 10.8597C16.3588 10.9412 16.0359 11.0226 15.713 11.0769C15.3901 11.0769 15.0673 11.1855 14.7444 11.2941C14.3272 11.3543 13.943 11.4477 13.5735 11.5376C13.2758 11.61 12.9877 11.68 12.6996 11.7285C12.3767 11.7828 12.0538 11.8643 11.7309 11.9457C11.4081 12.0271 11.0852 12.1086 10.7623 12.1629L9.79372 12.3801C9.47085 12.4344 9.14798 12.5158 8.82511 12.5973C8.50224 12.6787 8.17937 12.7602 7.8565 12.8145C7.64126 12.8688 7.45292 12.9231 7.26457 12.9774C7.07623 13.0317 6.88789 13.086 6.67265 13.1403H6.56502V13.0317C6.40359 12.7602 6.26906 12.4887 6.13453 12.2172C6 11.9457 5.86547 11.6742 5.70404 11.4027L4.6278 9.66516C4.46637 9.44796 4.33184 9.20362 4.19731 8.95928C4.06278 8.71493 3.92825 8.47059 3.76682 8.25339C3.55157 7.9276 3.33632 7.60181 3.2287 7.27602L2.36771 5.75566L2.36771 5.75565C2.15246 5.42986 1.93722 5.10407 1.72197 4.88688L1.07623 3.9095C0.96861 3.69231 0.860987 3.50226 0.753363 3.31222C0.64574 3.12217 0.538117 2.93213 0.430493 2.71493C0.430493 2.66063 0.403588 2.63348 0.376682 2.60633C0.349776 2.57919 0.32287 2.55204 0.32287 2.49774C0.430493 2.06335 0.64574 1.62896 0.860987 1.30317C0.96861 1.08597 1.18386 0.868778 1.3991 0.651584C1.72197 0.434389 2.15247 0.217195 2.58296 0.108597ZM9.57848 22.2624C9.79372 22.8054 10.1166 23.3484 10.4395 23.8914H3.12108L2.90583 23.7828C2.79821 23.7285 2.69058 23.7014 2.58296 23.6742C2.47534 23.6471 2.36771 23.6199 2.26009 23.5656C1.61435 23.3484 1.07623 22.914 0.753363 22.371C0.430493 22.0452 0.32287 21.6109 0.215247 21.1765C0.107623 21.0679 0.107623 20.9593 0.107623 20.8507L0 20.7421V16.724H0.107623C0.430493 16.6154 0.753363 16.5339 1.07623 16.4525C1.3991 16.371 1.72197 16.2896 2.04484 16.181C2.36771 16.0724 2.69058 15.991 3.01345 15.9095C3.33632 15.8281 3.65919 15.7466 3.98206 15.638C4.1435 15.5837 4.27803 15.5566 4.41256 15.5294C4.54709 15.5023 4.68161 15.4751 4.84305 15.4208C4.95067 15.4208 5.0583 15.3937 5.16592 15.3665C5.27354 15.3394 5.38117 15.3122 5.48879 15.3122H5.59641L5.70404 15.4208C5.81166 15.638 5.91928 15.8281 6.02691 16.0181C6.13453 16.2081 6.24215 16.3982 6.34978 16.6154C6.78027 17.1584 7.10314 17.81 7.42601 18.4615C7.58744 18.7873 7.77578 19.1131 7.96412 19.4389C8.15246 19.7647 8.34081 20.0905 8.50224 20.4163C8.93274 21.0679 9.25561 21.6109 9.57848 22.2624ZM2.09865 14.2805C1.72197 14.362 1.34529 14.4434 0.968604 14.552L0.322864 14.6606H0.21524V5.64706C0.430487 5.64706 0.322864 5.75566 0.322864 5.75566C0.430487 5.97285 0.53811 6.19005 0.753357 6.40724C0.86098 6.62443 0.99551 6.84163 1.13004 7.05882C1.26457 7.27602 1.3991 7.49321 1.50672 7.71041C1.82959 8.36198 2.15245 8.90496 2.47532 9.44794L2.47533 9.44796L3.44394 11.1855L4.41255 12.8145C4.52017 13.0317 4.6278 13.2489 4.84304 13.4661C4.84304 13.5747 4.84304 13.6833 4.73542 13.6833C4.6278 13.6833 4.54708 13.7104 4.46636 13.7376C4.38564 13.7647 4.30493 13.7919 4.1973 13.7919C4.03587 13.8462 3.87443 13.8733 3.713 13.9005C3.55156 13.9276 3.39013 13.9548 3.22869 14.009C2.85201 14.1176 2.47533 14.1991 2.09865 14.2805ZM23.3543 21.1222C23.4888 21.0679 23.6233 21.0136 23.7847 20.9593H24V21.0679L24 21.0679C23.8924 21.5023 23.7847 21.9367 23.5695 22.2624C23.3543 22.5882 23.139 22.914 22.8161 23.1312C22.3856 23.457 21.9552 23.6742 21.417 23.7828C21.3094 23.8914 21.2018 23.8914 21.0942 23.8914L20.9865 24H16.0359C16.0897 24 16.1435 23.9457 16.1973 23.8914C16.2511 23.8371 16.3049 23.7828 16.3587 23.7828C16.7892 23.5656 17.2197 23.3484 17.6502 23.2398C18.0269 23.1312 18.4036 22.9955 18.7803 22.8597C19.1569 22.724 19.5336 22.5882 19.9103 22.4796C20.171 22.3043 20.5019 22.1997 20.7896 22.1088C20.8582 22.0871 20.9244 22.0662 20.9865 22.0452C21.6323 21.7195 22.278 21.5023 22.9237 21.2851L22.9238 21.2851C23.0852 21.2308 23.2197 21.1765 23.3543 21.1222ZM22.7085 13.3575C22.9238 13.5747 23.139 13.9005 23.3543 14.2262C23.4081 14.3348 23.4888 14.4434 23.5695 14.552C23.6502 14.6606 23.7309 14.7692 23.7847 14.8778C23.8465 14.9402 23.8729 14.9667 23.8841 14.9986C23.8924 15.0222 23.8924 15.0488 23.8924 15.095V18.6787V18.7873C23.8924 18.8959 23.7847 18.8959 23.7847 18.8959C23.2466 19.0045 22.6009 19.2217 22.0628 19.4389C21.7937 19.5475 21.4977 19.6561 21.2018 19.7647C20.9058 19.8733 20.6099 19.9819 20.3408 20.0905C20.1256 20.1991 19.8834 20.2805 19.6413 20.362C19.3991 20.4434 19.1569 20.5249 18.9417 20.6335L17.5426 21.0679C17.3274 21.1222 17.0852 21.2036 16.8431 21.2851C16.6009 21.3665 16.3587 21.448 16.1435 21.5023C15.9282 21.6109 15.6861 21.6923 15.4439 21.7738C15.2018 21.8552 14.9596 21.9367 14.7444 22.0452C14.4215 22.1538 14.1256 22.2624 13.8296 22.371C13.5336 22.4796 13.2377 22.5882 12.9148 22.6968L12.6995 22.8054H12.5919C12.5919 22.8725 12.5508 22.8567 12.494 22.8348C12.4589 22.8213 12.4178 22.8054 12.3767 22.8054C12.3356 22.764 12.2945 22.7383 12.2593 22.7164C12.2025 22.681 12.1614 22.6554 12.1614 22.5882C12.1076 22.5339 12.0807 22.4796 12.0538 22.4253C12.0269 22.371 12 22.3167 11.9462 22.2624C11.8386 22.0452 11.7309 21.8552 11.6233 21.6652C11.5157 21.4751 11.4081 21.2851 11.3004 21.0679C11.0852 20.6335 10.87 20.3077 10.6547 19.9819L10.6547 19.9819C10.4933 19.6561 10.3049 19.3575 10.1166 19.0588C9.92825 18.7602 9.7399 18.4615 9.57847 18.1357L8.60986 16.5068C8.44842 16.2353 8.31389 15.9909 8.17936 15.7466C8.04484 15.5023 7.91031 15.2579 7.74887 14.9864V14.8778C7.74887 14.7692 7.8565 14.7692 7.8565 14.7692C8.17936 14.7692 8.50222 14.6606 8.82509 14.552L8.82511 14.552L10.6547 13.9005C10.9776 13.8462 11.3004 13.7647 11.6233 13.6833C11.9462 13.6018 12.2691 13.5204 12.5919 13.4661L14.6368 12.9231C14.9596 12.8688 15.2825 12.7873 15.6054 12.7059C15.9282 12.6244 16.2511 12.543 16.574 12.4887C16.8969 12.4344 17.2197 12.3529 17.5426 12.2715C17.8655 12.19 18.1883 12.1086 18.5112 12.0543L19.8027 11.9457C20.0717 11.8914 20.3408 11.81 20.6099 11.7285C20.8789 11.6471 21.148 11.5656 21.417 11.5113C21.417 11.4027 21.5247 11.5113 21.5247 11.5113C21.5785 11.6199 21.6323 11.7014 21.6861 11.7828C21.7399 11.8643 21.7937 11.9457 21.8475 12.0543C22.0628 12.4887 22.3856 12.9231 22.7085 13.3575ZM22.7085 2.71493C22.9238 2.71493 23.139 2.71493 23.2466 2.93213C23.341 3.07497 23.4354 3.19694 23.5207 3.30718C23.6299 3.44838 23.7243 3.57034 23.7847 3.69231C23.8465 3.75466 23.8729 3.78121 23.8841 3.81308C23.8924 3.83671 23.8924 3.86326 23.8924 3.9095V8.79638V8.90498L21.3094 9.44796V9.33937C21.2018 9.17647 21.0673 8.98643 20.9327 8.79639C20.7982 8.60634 20.6637 8.41629 20.556 8.25339C20.3946 8.0362 20.2332 7.79186 20.0717 7.54751C19.9103 7.30317 19.7489 7.05882 19.5874 6.84163C19.3722 6.57014 19.1839 6.29865 18.9955 6.02716C18.8072 5.75566 18.6188 5.48417 18.4036 5.21267C18.2421 4.99548 18.1076 4.80543 17.9731 4.61538C17.8386 4.42534 17.704 4.23529 17.5426 4.0181C17.5426 3.9638 17.5157 3.93665 17.4888 3.9095C17.4619 3.88235 17.435 3.8552 17.435 3.8009C17.435 3.8009 17.435 3.69231 17.5426 3.69231H17.7578L19.1569 3.47511C19.3544 3.42531 19.5292 3.39834 19.6917 3.37327C19.8836 3.34367 20.0584 3.31671 20.2332 3.25792C20.6637 3.14932 21.0942 3.04072 21.5247 3.04072C21.6412 2.98193 21.7893 2.95497 21.9518 2.92537C22.0895 2.9003 22.2376 2.87333 22.3856 2.82353C22.4933 2.71493 22.6009 2.71493 22.7085 2.71493ZM22.7085 10.9683C23.139 10.9683 23.4619 10.8597 23.7847 10.7511C23.8436 10.8106 23.8703 10.8375 23.8647 10.8497C23.8601 10.8597 23.8335 10.8597 23.7847 10.8597V11.8371V12.3801V12.4887C23.6771 12.3801 22.7085 11.0769 22.7085 10.9683Z"/></g><defs><clipPath id="clip0"><path d="M0 0H24V24H0V0Z" fill="white"/></clipPath></defs></svg>