<svg viewBox="0 0 24 24" xmlns="http://www.w3.org/2000/svg"><g clip-path="url(#clip0)"><path fill-rule="evenodd" clip-rule="evenodd" d="M2.58296 0.108597C2.7982 0 3.01345 0 3.2287 0H20.9865H21.6323C22.0628 0.108597 22.3856 0.325792 22.7085 0.542986C23.0314 0.868778 23.2466 1.19457 23.4619 1.62896V1.73756L23.3542 1.62896C23.3004 1.62896 23.2466 1.60181 23.1928 1.57466C23.139 1.54751 23.0852 1.52036 23.0314 1.52036H22.6009C22.4933 1.52036 22.3587 1.54751 22.2242 1.57466C22.0897 1.60181 21.9551 1.62896 21.8475 1.62896C21.7399 1.62896 21.6323 1.65611 21.5247 1.68326C21.417 1.71041 21.3094 1.73756 21.2018 1.73756L20.6637 1.84615L19.9103 2.06335C19.7326 2.06335 19.5874 2.09626 19.457 2.12585C19.3504 2.15 19.2537 2.17195 19.1569 2.17195C19.0493 2.17195 18.9148 2.19909 18.7803 2.22624C18.6457 2.25339 18.5112 2.28054 18.4036 2.28054C18.296 2.28054 18.2152 2.30769 18.1345 2.33484C18.0538 2.36199 17.9731 2.38914 17.8655 2.38914L17.0045 2.49774C16.8969 2.49774 16.7623 2.52489 16.6278 2.55204C16.4933 2.57919 16.3587 2.60633 16.2511 2.60633C16.125 2.60633 16.0359 2.6436 15.962 2.67447C15.9098 2.6963 15.8652 2.71493 15.8206 2.71493C15.775 2.71493 15.7487 2.71493 15.7253 2.72321C15.6936 2.73446 15.6674 2.76099 15.6054 2.82353C15.4977 2.93213 15.3901 3.04072 15.4977 3.25792C15.4977 3.31222 15.5247 3.33937 15.5516 3.36652C15.5785 3.39366 15.6054 3.42081 15.6054 3.47511L15.9282 3.9095C16.0037 4.13806 16.1322 4.31318 16.2765 4.50984C16.3379 4.59349 16.4021 4.68105 16.4664 4.77828L17.1121 5.64706L17.6502 6.51584L18.1883 7.38461L18.8341 8.25339L19.3722 9.12217L19.9103 9.99095V10.0995H19.8027L17.6502 10.6425C17.3273 10.6968 17.0045 10.7783 16.6816 10.8597C16.3587 10.9412 16.0359 11.0226 15.713 11.0769C15.3901 11.0769 15.0673 11.1855 14.7444 11.2941C14.3272 11.3543 13.943 11.4477 13.5735 11.5376C13.2758 11.61 12.9877 11.68 12.6995 11.7285C12.3767 11.7828 12.0538 11.8643 11.7309 11.9457C11.4081 12.0271 11.0852 12.1086 10.7623 12.1629L9.79372 12.3801C9.47085 12.4344 9.14798 12.5158 8.82511 12.5973C8.50224 12.6787 8.17937 12.7602 7.8565 12.8145C7.64125 12.8688 7.45291 12.9231 7.26457 12.9774C7.07623 13.0317 6.88789 13.086 6.67264 13.1403H6.56502V13.0317C6.40358 12.7602 6.26905 12.4887 6.13452 12.2172C6 11.9457 5.86547 11.6742 5.70403 11.4027L4.6278 9.66516C4.46636 9.44796 4.33184 9.20362 4.19731 8.95928C4.06278 8.71493 3.92825 8.47059 3.76681 8.25339C3.55157 7.9276 3.33632 7.60181 3.2287 7.27602L2.36771 5.75566L2.36771 5.75565C2.15246 5.42986 1.93722 5.10407 1.72197 4.88688L1.07623 3.9095C0.968609 3.69231 0.860986 3.50226 0.753363 3.31222C0.645739 3.12217 0.538116 2.93213 0.430493 2.71493C0.430493 2.66063 0.403587 2.63348 0.376681 2.60633C0.349776 2.57919 0.32287 2.55204 0.32287 2.49774C0.430493 2.06335 0.64574 1.62896 0.860986 1.30317C0.968609 1.08597 1.18386 0.868778 1.3991 0.651584C1.72197 0.434389 2.15247 0.217195 2.58296 0.108597ZM9.57847 22.2624C9.79372 22.8054 10.1166 23.3484 10.4395 23.8914H3.12107L2.90583 23.7828C2.7982 23.7285 2.69058 23.7014 2.58296 23.6742C2.47533 23.6471 2.36771 23.6199 2.26009 23.5656C1.61435 23.3484 1.07623 22.914 0.753363 22.371C0.430493 22.0452 0.32287 21.6109 0.215246 21.1765C0.107623 21.0679 0.107623 20.9593 0.107623 20.8507L0 20.7421V16.724H0.107623C0.43049 16.6154 0.753357 16.5339 1.07622 16.4525C1.3991 16.371 1.72197 16.2896 2.04484 16.181C2.36771 16.0724 2.69058 15.9909 3.01345 15.9095C3.33632 15.8281 3.65919 15.7466 3.98206 15.638C4.1435 15.5837 4.27803 15.5566 4.41256 15.5294C4.54708 15.5023 4.68161 15.4751 4.84305 15.4208C4.95067 15.4208 5.05829 15.3937 5.16592 15.3665C5.27354 15.3394 5.38116 15.3122 5.48879 15.3122H5.59641L5.70403 15.4208C5.81166 15.638 5.91928 15.8281 6.0269 16.0181C6.13453 16.2081 6.24215 16.3982 6.34977 16.6154C6.78026 17.1584 7.10313 17.81 7.426 18.4615C7.58744 18.7873 7.77578 19.1131 7.96412 19.4389C8.15246 19.7647 8.3408 20.0905 8.50224 20.4163C8.93273 21.0679 9.2556 21.6109 9.57847 22.2624ZM2.09868 14.2806C1.722 14.3621 1.34532 14.4435 0.968634 14.5521L0.322894 14.6607H0.215271V5.64715C0.430518 5.64715 0.322894 5.75575 0.322894 5.75575C0.430518 5.97294 0.538141 6.19014 0.753387 6.40733C0.861011 6.62453 0.99554 6.84172 1.13007 7.05892C1.2646 7.27611 1.39913 7.49331 1.50675 7.7105C1.82962 8.36208 2.15249 8.90507 2.47536 9.44806L3.44397 11.1856L4.41258 12.8146C4.5202 13.0318 4.62782 13.249 4.84307 13.4662C4.84307 13.5748 4.84307 13.6834 4.73545 13.6834C4.62782 13.6834 4.54711 13.7105 4.46639 13.7376C4.38567 13.7648 4.30495 13.7919 4.19733 13.7919C4.0359 13.8462 3.87446 13.8734 3.71303 13.9005C3.55159 13.9277 3.39016 13.9548 3.22872 14.0091C2.85204 14.1177 2.47536 14.1992 2.09868 14.2806ZM23.3543 21.1223C23.4888 21.068 23.6233 21.0137 23.7848 20.9594H24V21.068L24 21.068C23.8924 21.5024 23.7848 21.9367 23.5695 22.2625C23.3543 22.5883 23.139 22.9141 22.8162 23.1313C22.3857 23.4571 21.9552 23.6743 21.4171 23.7829C21.3094 23.8915 21.2018 23.8915 21.0942 23.8915L20.9866 24.0001H16.0359C16.0897 24.0001 16.1435 23.9458 16.1973 23.8915C16.2511 23.8372 16.3049 23.7829 16.3588 23.7829L16.3588 23.7829C16.7893 23.5657 17.2198 23.3485 17.6502 23.2399C18.0269 23.1313 18.4036 22.9956 18.7803 22.8598C19.157 22.7241 19.5336 22.5883 19.9103 22.4797C20.171 22.3044 20.5019 22.1998 20.7896 22.1089C20.8582 22.0872 20.9244 22.0663 20.9866 22.0453C21.6323 21.7196 22.278 21.5024 22.9237 21.2852L22.9238 21.2852C23.0852 21.2309 23.2197 21.1766 23.3543 21.1223ZM22.7085 13.3576C22.9238 13.5748 23.139 13.9005 23.3543 14.2263C23.4081 14.3349 23.4888 14.4435 23.5695 14.5521C23.6502 14.6607 23.731 14.7693 23.7848 14.8779C23.8466 14.9403 23.8729 14.9668 23.8841 14.9987C23.8924 15.0223 23.8924 15.0489 23.8924 15.0951V18.6788V18.7874C23.8924 18.896 23.7848 18.896 23.7848 18.896C23.2466 19.0046 22.6009 19.2218 22.0628 19.439C21.7937 19.5476 21.4978 19.6562 21.2018 19.7648C20.9058 19.8734 20.6099 19.982 20.3408 20.0906C20.1256 20.1992 19.8834 20.2806 19.6413 20.3621C19.3991 20.4435 19.157 20.525 18.9417 20.6336L17.5426 21.068C17.3274 21.1223 17.0852 21.2037 16.8431 21.2852C16.6009 21.3666 16.3588 21.4481 16.1435 21.5024C15.9283 21.611 15.6861 21.6924 15.444 21.7738C15.2018 21.8553 14.9597 21.9367 14.7444 22.0453C14.4215 22.1539 14.1256 22.2625 13.8296 22.3711C13.5336 22.4797 13.2377 22.5883 12.9148 22.6969L12.6996 22.8055H12.5919C12.5919 22.8726 12.5508 22.8568 12.494 22.8349C12.4589 22.8214 12.4178 22.8055 12.3767 22.8055C12.3356 22.764 12.2945 22.7384 12.2594 22.7165C12.2026 22.6811 12.1615 22.6554 12.1615 22.5883C12.1076 22.534 12.0807 22.4797 12.0538 22.4254C12.0269 22.3711 12 22.3168 11.9462 22.2625C11.8386 22.0453 11.731 21.8553 11.6233 21.6652C11.5157 21.4752 11.4081 21.2852 11.3005 21.068C11.0852 20.6336 10.87 20.3078 10.6547 19.982C10.4933 19.6562 10.305 19.3576 10.1166 19.0589C9.92827 18.7603 9.73993 18.4616 9.57849 18.1358L8.60989 16.5069C8.44845 16.2354 8.31392 15.991 8.17939 15.7467C8.04486 15.5024 7.91033 15.258 7.7489 14.9865V14.8779C7.7489 14.7693 7.85652 14.7693 7.85652 14.7693C8.17939 14.7693 8.50226 14.6607 8.82513 14.5521L10.6547 13.9005C10.9776 13.8462 11.3005 13.7648 11.6233 13.6833C11.9462 13.6019 12.2691 13.5205 12.5919 13.4662L14.6368 12.9232C14.9597 12.8689 15.2825 12.7874 15.6054 12.706C15.9283 12.6245 16.2511 12.5431 16.574 12.4888C16.8969 12.4345 17.2197 12.353 17.5426 12.2716C17.8655 12.1901 18.1884 12.1087 18.5112 12.0544L19.8027 11.9458C20.0718 11.8915 20.3408 11.81 20.6099 11.7286C20.8789 11.6472 21.148 11.5657 21.4171 11.5114C21.4171 11.4028 21.5247 11.5114 21.5247 11.5114C21.5785 11.62 21.6323 11.7015 21.6861 11.7829C21.7399 11.8643 21.7937 11.9458 21.8475 12.0544C22.0628 12.4888 22.3856 12.9231 22.7085 13.3575L22.7085 13.3576ZM22.7085 2.71503C22.9238 2.71503 23.139 2.71503 23.2466 2.93222C23.341 3.07506 23.4354 3.19703 23.5207 3.30727C23.63 3.44847 23.7243 3.57044 23.7848 3.6924C23.8466 3.75476 23.8729 3.78131 23.8841 3.81317C23.8924 3.8368 23.8924 3.86335 23.8924 3.9096V8.79647V8.90507L21.3094 9.44806V9.33946C21.2018 9.17657 21.0673 8.98652 20.9328 8.79648C20.7982 8.60643 20.6637 8.41638 20.5561 8.25349C20.3946 8.03629 20.2332 7.79194 20.0718 7.54759C19.9103 7.30325 19.7489 7.05891 19.5875 6.84172C19.3722 6.57023 19.1839 6.29873 18.9955 6.02723C18.8072 5.75574 18.6188 5.48425 18.4036 5.21276C18.2422 4.99557 18.1076 4.80552 17.9731 4.61548C17.8386 4.42543 17.7041 4.23539 17.5426 4.01819C17.5426 3.96389 17.5157 3.93674 17.4888 3.9096C17.4619 3.88245 17.435 3.8553 17.435 3.801C17.435 3.801 17.435 3.6924 17.5426 3.6924H17.7579L19.157 3.47521C19.3544 3.4254 19.5292 3.39844 19.6917 3.37336C19.8836 3.34377 20.0584 3.3168 20.2332 3.25801C20.6637 3.14941 21.0942 3.04082 21.5247 3.04082C21.6412 2.98202 21.7893 2.95506 21.9518 2.92546C22.0895 2.90039 22.2376 2.87343 22.3857 2.82362C22.4933 2.71503 22.6009 2.71503 22.7085 2.71503ZM23.7847 10.7512L23.7848 10.7512C23.8924 10.8598 23.8924 10.8598 23.7848 10.8598V11.8372V12.3802V12.4888C23.6771 12.3802 22.7085 11.077 22.7085 10.9684C23.139 10.9684 23.4619 10.8598 23.7847 10.7512Z" fill="#FD4F31"/></g><defs><clipPath id="clip0"><path d="M0 0H24V24H0V0Z" fill="white"/></clipPath></defs></svg>