<svg viewBox="0 0 24 24" xmlns="http://www.w3.org/2000/svg"><path d="M12 14.309C10.6909 14.309 9.6 13.2181 9.6 11.909C9.6 10.5999 10.6909 9.50903 12 9.50903C13.3091 9.50903 14.4 10.5999 14.4 11.909C14.4 13.2181 13.3091 14.309 12 14.309Z" fill="#1875BB"/><path d="M18.7636 10.1636H17.4545L20.7273 13.3273L24 10.1636H22.3636C21.7091 5.03636 17.2364 1 11.7818 1C7.30909 1 3.6 3.61818 1.96363 7.32727L5.23636 8.63636C6.32727 6.23636 8.83636 4.49091 11.7818 4.49091C15.2727 4.49091 18.1091 6.89091 18.7636 10.1636Z" fill="#4C4D4F"/><path d="M12.2182 19.3273C8.72727 19.3273 5.89091 16.9273 5.23636 13.7637H6.76364L3.38182 10.491L0 13.7637H1.52727C2.29091 18.891 6.76364 22.8182 12.2182 22.8182C16.6909 22.8182 20.5091 20.2001 22.1455 16.3819L18.7636 15.0728C17.5636 17.5819 15.0545 19.3273 12.2182 19.3273Z" fill="#4C4D4F"/></svg>