<svg viewBox="0 0 24 24" xmlns="http://www.w3.org/2000/svg"><g clip-path="url(#clip0)"><path d="M21.2847 5.34237L12.6068 0.244068C12.0644 -0.0813559 11.3051 -0.0813559 10.7627 0.244068L1.97627 5.34237C1.4339 5.6678 1 6.21017 1 6.86102V16.9492C1 17.6 1.4339 18.2508 1.97627 18.5763L4.25424 19.878C5.33898 20.4203 5.66441 20.4203 6.20678 20.4203C7.8339 20.4203 8.70169 19.4441 8.70169 17.7085V7.72881C8.70169 7.62034 8.81017 7.40339 8.70169 7.40339H7.61695C7.4 7.40339 7.07458 7.62034 7.07458 7.72881V17.7085C7.07458 18.4678 6.31525 19.2271 5.01356 18.5763L2.73559 17.2746C2.62712 17.2746 2.62712 17.1661 2.62712 17.0576V6.86102C2.62712 6.75254 2.73559 6.64407 2.84407 6.64407L11.6305 1.54576C11.739 1.54576 11.8475 1.54576 11.9559 1.54576L20.6339 6.53559C20.7424 6.53559 20.7424 6.64407 20.7424 6.75254V16.8407C20.7424 16.9492 20.7424 17.0576 20.6339 17.0576L11.9559 22.1559C11.8475 22.1559 11.739 22.1559 11.739 22.1559L9.24407 20.9627C9.13559 20.9627 9.13559 20.9627 9.02712 20.9627C8.37627 21.2881 8.2678 21.3966 7.72542 21.6136C7.61695 21.6136 7.4 21.722 7.8339 22.0475L10.7627 23.7831C11.0881 23.8915 11.4136 24 11.6305 24C11.9559 24 12.2814 23.8915 12.4983 23.7831L21.1763 18.6847C21.7186 18.3593 22.0441 17.7085 22.0441 17.0576V6.86102C22.1525 6.21017 21.8271 5.6678 21.2847 5.34237ZM14.3424 15.4305C12.0644 15.4305 11.522 14.7797 11.3051 13.6949C11.3051 13.5864 11.1966 13.3695 11.0881 13.3695H10.0034C9.89491 13.3695 9.78644 13.5864 9.78644 13.6949C9.78644 15.2136 10.5458 16.9492 14.4508 16.9492C17.2712 16.9492 18.7898 15.8644 18.7898 14.0203C18.7898 12.1763 17.4881 11.6339 14.7763 11.3085C12.0644 10.9831 11.739 10.7661 11.739 10.1153C11.739 9.57288 11.9559 8.92203 14.0169 8.92203C15.861 8.92203 16.5119 9.35593 16.7288 10.5492C16.7288 10.6576 16.8373 10.7661 16.9458 10.7661H18.0305C18.139 10.7661 18.139 10.7661 18.2475 10.6576C18.2475 10.6576 18.3559 10.5492 18.3559 10.4407C18.139 8.37966 16.8373 7.40339 14.0169 7.40339C11.522 7.40339 10.0034 8.48813 10.0034 10.2237C10.0034 12.1763 11.522 12.7186 13.9085 12.9356C16.7288 13.261 16.9458 13.5864 16.9458 14.2373C16.9458 14.9966 16.1864 15.4305 14.3424 15.4305Z"/></g><defs><clipPath id="clip0"><path d="M0 0H24V24H0V0Z" fill="white"/></clipPath></defs></svg>