<svg viewBox="0 0 24 24" xmlns="http://www.w3.org/2000/svg"><g clip-path="url(#clip0)"><path d="M22.6987 4.30117C21.1987 2.80117 18.8977 2.80117 17.3977 4.19917C17.301 4.30117 17.301 4.39792 17.301 4.49992C17.301 4.60192 17.301 4.69867 17.3977 4.80067L17.898 5.30092C18 5.39767 18.1987 5.39767 18.3982 5.30092C18.801 5.00017 19.1992 4.89817 19.6995 4.89817C20.8987 4.89817 21.8985 5.89792 21.8985 7.10242C21.8985 7.69942 21.6997 8.19967 21.3015 8.60242C18.3015 11.6024 14.1997 3.19942 5.10225 7.50067C4.5 7.80142 4.19925 8.50042 4.5 9.10267V9.19942L6 11.8987C6.30075 12.5009 7.10175 12.6997 7.69875 12.3989L8.39775 12.0007C9.19875 11.5004 9.89775 11.0009 10.602 10.3987C10.6987 10.3019 11.0003 10.3019 11.1023 10.3987C11.301 10.5007 11.301 10.6994 11.199 10.8989L11.1023 11.0009C10.398 11.6032 9.60225 12.2002 8.80125 12.6997L8.10225 13.0004C7.8015 13.1992 7.5 13.3012 7.1025 13.3012C6.39825 13.3012 5.69925 12.8984 5.3985 12.3014L3.8985 9.69967C1.1025 11.6999 -0.69825 15.6029 0.3015 20.5004C0.3015 20.6992 0.50025 20.8012 0.69975 20.8012H2.3985C2.6025 20.8012 2.69925 20.6992 2.80125 20.5004C3 19.1024 4.19925 18.1994 5.6025 18.3982C6.69975 18.5002 7.60275 19.3979 7.6995 20.5004C7.6995 20.6992 7.89825 20.8012 8.10225 20.8012H9.699C9.89775 20.8012 9.99975 20.6992 10.1017 20.5004C10.3005 19.1024 11.4997 18.1994 12.8977 18.3982C13.9995 18.5002 14.898 19.3979 15 20.5004C15 20.6992 15.1987 20.8012 15.3982 20.8012H17.0002C17.199 20.8012 17.3985 20.6024 17.3985 20.3984C17.3985 18.1027 18.1027 15.5002 19.8015 14.1997C25.6995 9.60292 24.1027 5.69992 22.6995 4.30192L22.6987 4.30117ZM16.5 11.1989L15.3007 10.6019C15.3007 10.1992 15.6015 9.89767 15.9997 9.89767C16.398 9.89767 16.6987 10.1984 16.6987 10.6019C16.8007 10.8982 16.6987 11.1022 16.5 11.1989V11.1989Z" fill="currentColor"/></g><defs><clipPath id="clip0"><path d="M0 0H24V24H0V0Z" fill="white"/></clipPath></defs></svg>