<svg viewBox="0 0 24 24" xmlns="http://www.w3.org/2000/svg"><path d="M24 18.6001C23.1 18.8001 22.6 18.6001 22.1 17.9001C21 16.3001 19.8 14.7001 18.7 13.1001C18.6 12.9001 18.4 12.7001 18.2 12.4001C16.8 14.3001 15.5 16.0001 14.2 17.9001C13.7 18.6001 13.3 18.8001 12.4 18.6001L17.6 11.6001L12.8 5.30009C13.6 5.10009 14.2 5.20009 14.7 6.00009C15.8 7.60009 17 9.20008 18.3 10.9001C19.5 9.30009 20.8 7.70009 21.9 6.10009C22.4 5.40009 22.9 5.20009 23.7 5.40009C23.1 6.20009 22.5 7.10009 21.8 7.90009C21 9.00009 20.1 10.1001 19.3 11.2001C19 11.6001 19 11.8001 19.3 12.2001C20.8 14.3001 22.4 16.4001 24 18.6001Z"/><path d="M0 11.6C0.1 10.9 0.2 10.2 0.4 9.5C1.5 5.4 6.3 3.7 9.5 6.2C11.4 7.7 11.9 9.79999 11.8 12.2H1.1C0.9 16.5 4 19 7.9 17.7C9.3 17.2 10.1 16.2 10.5 14.8C10.7 14.1 11 14 11.7 14.2C11.4 15.9 10.6 17.3 9.1 18.2C6.8 19.5 3.5 19.1 1.8 17.3C0.8 16.2 0.3 14.9 0.2 13.4C0.1 13.2 0 13 0 12.7C0 12.3 0 12 0 11.6ZM1.1 11.3H10.8C10.7 8.2 8.8 6 6.2 6C3.3 6 1.3 8.1 1.1 11.3Z"/></svg>