<svg viewBox="0 0 24 24" xmlns="http://www.w3.org/2000/svg"><g clip-path="url(#clip0)"><path d="M15.833 11.574V8.86841L14.8309 9.41956L15.833 11.6241V11.574Z" fill="#C9EBEC"/><path d="M18.3382 9.72019L22.4969 5.56152L15.833 8.86841L18.3382 9.72019Z" fill="#C9EBEC"/><path d="M15.833 12.1252L14.9812 14.43L16.8852 12.5261L18.0877 14.8309H24L15.833 12.1252Z" fill="#C9EBEC"/><path d="M15.833 8.86841V11.574H24L18.3382 9.72018L15.833 8.86841Z" fill="#00868C"/><path d="M15.833 11.574V11.6241V12.1251L24 14.8308V11.574H15.833Z" fill="#00B3BB"/><path d="M12.3758 15.833H15.0814L14.2798 18.2881L18.4384 22.4968L14.5804 14.7808L12.3758 15.833Z" fill="#C9EBEC"/><path d="M14.9812 14.4301L20.7432 20.1921L18.0877 14.8309L16.8852 12.5261L14.9812 14.4301Z" fill="#00868C"/><path d="M14.9812 14.4302L14.5804 14.7809L18.4384 22.497L20.7432 20.1922L14.9812 14.4302Z" fill="#00B3BB"/><path d="M9.56993 14.9812L11.4739 16.8852L9.11899 18.0376V23.9499L11.8246 15.833L9.56993 14.9812Z" fill="#C9EBEC"/><path d="M12.3758 15.833V23.9499L14.2798 18.2881L15.0814 15.833H12.3758Z" fill="#00868C"/><path d="M12.3758 15.833H11.8246L9.11899 23.9499H12.3758V15.833Z" fill="#00B3BB"/><path d="M5.66179 14.2798L1.50313 18.4384L8.16701 15.0815L5.66179 14.2798Z" fill="#C9EBEC"/><path d="M8.16702 12.3757V15.0814L9.16911 14.5803L8.16702 12.3757Z" fill="#C9EBEC"/><path d="M9.56993 14.9812L3.80792 20.7432L9.11899 18.0376L11.4739 16.8852L9.56993 14.9812Z" fill="#00868C"/><path d="M9.56993 14.9812L9.1691 14.5803L8.16701 15.0814L1.50313 18.4384L3.80793 20.7432L9.56993 14.9812Z" fill="#00B3BB"/><path d="M9.01879 9.56984L7.11482 11.4738L5.91232 9.1189H0L8.16701 11.8245L9.01879 9.56984Z" fill="#C9EBEC"/><path d="M8.16701 15.0814V12.3757H0L5.6618 14.2797L8.16701 15.0814Z" fill="#00868C"/><path d="M8.16701 12.3757V11.8245L0 9.1189V12.3757H8.16701Z" fill="#00B3BB"/><path d="M11.5741 8.16706H8.91858L9.72025 5.66184L5.56158 1.50317L9.41962 9.16914L11.5741 8.16706Z" fill="#C9EBEC"/><path d="M9.01878 9.56986L3.25677 3.80786L5.91231 9.11893L7.11481 11.4738L9.01878 9.56986Z" fill="#00868C"/><path d="M9.01878 9.56998L9.41961 9.16914L5.56158 1.50317L3.25677 3.80798L9.01878 9.56998Z" fill="#00B3BB"/><path d="M14.4301 9.01879L12.5261 7.11482L14.881 5.91232V0L12.1754 8.16701L14.4301 9.01879Z" fill="#C9EBEC"/><path d="M11.5741 8.16701H11.6242V0L9.72025 5.6618L8.91858 8.16701H11.5741Z" fill="#00868C"/><path d="M11.6242 8.16701H12.1754L14.881 0H11.6242V8.16701Z" fill="#00B3BB"/><path d="M14.4301 9.01884L20.1921 3.25684L14.881 5.91237L12.5261 7.11487L14.4301 9.01884Z" fill="#00868C"/><path d="M14.4301 9.01884L14.8309 9.41967L15.833 8.86853L22.4969 5.56164L20.1921 3.25684L14.4301 9.01884Z" fill="#00B3BB"/></g><defs><clipPath id="clip0"><path d="M0 0H24V24H0V0Z" fill="white"/></clipPath></defs></svg>