<svg viewBox="0 0 24 24" xmlns="http://www.w3.org/2000/svg"><path d="M5.26036 0.158038C4.84703 -0.0207008 4.41096 -0.0420189 3.98744 0.0648161L3.93904 0.0770261L2.7131 0.538843C1.66685 0.932974 0.902106 1.73892 0.387423 2.82705L0.382118 2.8387C-0.0815257 3.85692 -0.099287 5.04929 0.199924 6.33823C0.49197 7.59631 0.987567 8.88752 1.67593 10.2105C2.35765 11.5208 3.15176 12.7959 4.05729 14.0359C4.9576 15.2688 5.84537 16.3302 6.72162 17.2143C7.5979 18.0985 8.64992 18.9944 9.87202 19.9031C11.1012 20.817 12.3653 21.6186 13.6645 22.3068C14.9764 23.0018 16.2575 23.5025 17.5063 23.7976C18.7869 24.1003 19.9743 24.0829 20.9885 23.6127L21.0002 23.6071C22.0824 23.0859 22.8794 22.3135 23.2682 21.2627L23.7255 20.0266L23.7374 19.9789C23.8421 19.5561 23.8213 19.1214 23.6459 18.7085C23.4554 18.26 23.0924 17.9366 22.7088 17.6993C22.3707 17.4587 21.5382 16.9161 20.2431 16.0891C19.5326 15.6355 18.8612 15.2977 18.2356 15.1051C17.6118 14.9132 16.9793 14.8491 16.3862 15.0153L16.3645 15.022C15.5556 15.2714 14.8045 15.6649 14.4105 16.339C14.3591 16.3475 14.2383 16.3534 14.0184 16.3051C13.5639 16.2008 12.9362 15.8713 12.122 15.2C11.2679 14.4959 10.6668 13.9633 10.3006 13.5938C9.95368 13.2438 9.43019 12.6463 8.7203 11.7826C8.04498 10.9609 7.73256 10.3356 7.64737 9.89152L7.64289 9.87087C7.59217 9.63691 7.59987 9.51 7.60958 9.45729C8.28656 9.05464 8.66137 8.29002 8.88637 7.47753C9.23201 6.31587 8.7108 4.95972 7.84007 3.58825C6.99083 2.25063 6.46856 1.42853 6.27384 1.12284C6.03887 0.731117 5.71543 0.35483 5.26036 0.158038Z"/><path d="M22.7041 1.26461V0.30641L13.8909 0.30403V1.26461C13.8909 2.90306 14.7929 4.33175 16.1295 5.08525C14.7929 5.83876 13.8909 7.26745 13.8909 8.9059V9.71573L22.7041 9.71334V8.9059C22.7041 7.26744 21.8021 5.83876 20.4656 5.08526C21.8021 4.33175 22.7041 2.90306 22.7041 1.26461Z"/></svg>