<svg viewBox="0 0 24 24" xmlns="http://www.w3.org/2000/svg"><path d="M11.216 1H1.95957V9.47195H4.78355V5.50694L12.054 11.3233L20.7892 3.46159L18.9 1.36254L11.9464 7.62077L7.20044 3.82398H11.216V1Z"/><path d="M12.0049 13.276H12.0193C13.0151 13.276 14.1143 13.3706 15.3154 13.5578C16.5303 13.7461 17.7013 14.0214 18.8283 14.3829C19.9676 14.7477 20.9819 15.2091 21.8624 15.7732C22.7679 16.3531 23.4386 17.0672 23.7524 17.944L23.7559 17.9541C24.0785 18.8958 24.0958 19.8203 23.7208 20.6704L23.2832 21.6582L23.2611 21.6961C23.0777 22.01 22.8104 22.2657 22.4557 22.4122C22.2513 22.4969 22.0417 22.5269 21.8468 22.5269C21.6562 22.5269 21.4646 22.4979 21.2788 22.4514L20.9001 22.3663C20.5032 22.2771 19.8707 22.1349 19.0081 21.9406C17.7356 21.6542 16.6432 21.1638 16.1719 20.2574C15.8432 19.653 15.6239 18.9861 15.7759 18.3498C15.7489 18.3164 15.6878 18.2539 15.5615 18.1703L15.5464 18.1601C15.2678 17.9662 14.7601 17.7904 13.9234 17.7098C13.0459 17.6264 12.4233 17.5872 12.0337 17.5872H12.0203C11.6111 17.5872 10.9763 17.6302 10.0979 17.7217C9.26772 17.8104 8.74232 17.9844 8.44122 18.1801C8.31376 18.2648 8.25276 18.3279 8.22621 18.3613C8.37618 18.9917 8.16707 19.6622 7.84927 20.2779L7.84018 20.295C7.35709 21.1768 6.27314 21.6667 5.00343 21.9637C3.81265 22.2411 3.03382 22.4154 2.69864 22.4751C2.51973 22.5195 2.33294 22.5481 2.14555 22.5481C1.94915 22.5481 1.7421 22.5172 1.53963 22.4333C1.18709 22.2877 0.917998 22.0339 0.733777 21.7156L0.712253 21.6784L0.277185 20.6914C-0.0988476 19.84 -0.0758258 18.9169 0.246892 17.9769L0.250481 17.9667C0.565316 17.0893 1.23646 16.3745 2.14406 15.7936C3.02398 15.2287 4.03799 14.7652 5.17892 14.3972C6.30624 14.0333 7.47807 13.756 8.69274 13.5644C9.90011 13.374 11.0057 13.2771 12.0049 13.276Z"/></svg>