<svg viewBox="0 0 24 24" xmlns="http://www.w3.org/2000/svg"><path d="M18.75 5.25H22.5C23.4 5.25 24 5.85 24 6.75V21.75C24 22.65 23.4 23.25 22.5 23.25H1.5C0.6 23.25 0 22.65 0 21.75V6.75C0 5.85 0.6 5.25 1.5 5.25H5.25L7.8 1.35C8.1 1.05 8.55 0.75 9 0.75H15C15.45 0.75 15.9 1.05 16.2 1.35L18.75 5.25ZM9.1875 10.9501H12.9375L9.1875 7.20007V9.07507C6.60281 9.07507 4.5 11.1779 4.5 13.7626C4.5 16.3473 6.60281 18.4501 9.1875 18.4501V16.5751C7.63688 16.5751 6.375 15.3132 6.375 13.7626C6.375 12.2119 7.63688 10.9501 9.1875 10.9501ZM14.8125 9.07507V10.9501C16.3631 10.9501 17.625 12.2119 17.625 13.7626C17.625 15.3132 16.3631 16.5751 14.8125 16.5751H11.0625L14.8125 20.3251V18.4501C17.3972 18.4501 19.5 16.3473 19.5 13.7626C19.5 11.1779 17.3972 9.07507 14.8125 9.07507Z"/></svg>