<svg xmlns="http://www.w3.org/2000/svg" viewBox="0 0 16 16"><g><g><path d="M1.5,0C0.7,0,0,0.7,0,1.5v6C0,8.3,0.7,9,1.5,9H3v2.5c0,0.2,0.1,0.4,0.3,0.5s0.4,0,0.5-0.1L6.7,9h3.8C11.3,9,12,8.3,12,7.5v-6C12,0.7,11.3,0,10.5,0H1.5z M1,1.5C1,1.2,1.2,1,1.5,1h9C10.8,1,11,1.2,11,1.5v6C11,7.8,10.8,8,10.5,8h-4C6.4,8,6.2,8.1,6.1,8.1L4,10.3V8.5C4,8.2,3.8,8,3.5,8h-2C1.2,8,1,7.8,1,7.5V1.5z M13.5,4C13.2,4,13,4.2,13,4.5S13.2,5,13.5,5h1C14.8,5,15,5.2,15,5.5v6c0,0.3-0.2,0.5-0.5,0.5h-2c-0.3,0-0.5,0.2-0.5,0.5v1.8l-2.1-2.1C9.8,12.1,9.6,12,9.5,12h-3C6.2,12,6,12.2,6,12.5S6.2,13,6.5,13h2.8l2.9,2.9c0.1,0.1,0.4,0.2,0.5,0.1c0.2-0.1,0.3-0.3,0.3-0.5V13h1.5c0.8,0,1.5-0.7,1.5-1.5v-6C16,4.7,15.3,4,14.5,4H13.5z"/></g></g></svg>