<svg viewBox="0 0 16 16" xmlns="http://www.w3.org/2000/svg"><path d="M8.5 6V14.6667H7.5V6H8.5Z"/><path d="M8.00008 5.29285L10.7072 7.99995L10.0001 8.70706L8.00008 6.70706L6.00008 8.70706L5.29297 7.99995L8.00008 5.29285Z"/><path d="M2.20714 5.71617C2.51478 2.97054 4.83727 0.833374 7.6665 0.833374C10.4317 0.833374 12.7138 2.87461 13.1024 5.53115C14.6584 5.74286 15.8332 7.0801 15.8332 8.66671C15.8332 10.4155 14.4153 11.8334 12.6665 11.8334H10.1665V10.8334H12.6665C13.863 10.8334 14.8332 9.86323 14.8332 8.66671C14.8332 7.47571 13.8674 6.49337 12.6534 6.50203L12.1818 6.50539L12.1509 6.03483C11.9967 3.68837 10.0498 1.83337 7.6665 1.83337C5.25635 1.83337 3.29316 3.73087 3.17792 6.11485L3.16006 6.48441L2.80142 6.57536C1.86101 6.81386 1.1665 7.65852 1.1665 8.66671C1.1665 9.86323 2.13665 10.8334 3.33317 10.8334H5.83317V11.8334H3.33317C1.58436 11.8334 0.166504 10.4155 0.166504 8.66671C0.166504 7.31313 1.01808 6.16892 2.20714 5.71617Z"/></svg>