<svg xmlns="http://www.w3.org/2000/svg" viewBox="0 0 16 16"><g><path d="M2.6,6.4c0.2,0.2,0.5,0.2,0.7,0c0.2-0.2,0.2-0.5,0-0.7L1.2,3.5l2.3-2.3l2.1,2.1c0.2,0.2,0.5,0.2,0.7,0c0.2-0.2,0.2-0.5,0-0.7L3.9,0.1C3.7,0,3.3,0,3.1,0.1l-3,3C0,3.3,0,3.7,0.1,3.9L2.6,6.4z"/><path d="M14.9,11.1l-1.5-1.5c-0.2-0.2-0.5-0.2-0.7,0c-0.2,0.2-0.2,0.5,0,0.7l1.4,1.4l0.8,3.1L11.8,14l-1.4-1.4c-0.2-0.2-0.5-0.2-0.7,0c-0.2,0.2-0.2,0.5,0,0.7l1.5,1.5c0.1,0.1,0.1,0.1,0.2,0.1l4,1c0.2,0,0.4,0,0.5-0.1c0.1-0.1,0.2-0.3,0.1-0.5l-1-4C15,11.3,14.9,11.2,14.9,11.1z"/><path d="M15.9,4.1l-4-4c-0.2-0.2-0.5-0.2-0.7,0L8.7,2.6c0,0,0,0,0,0c0,0,0,0,0,0l-2,2l0,0l0,0l-2,2l0,0l0,0l-2,2l0,0l0,0l-2.5,2.5c-0.2,0.2-0.2,0.5,0,0.7l4,4c0.2,0.2,0.5,0.2,0.7,0l11-11C16,4.7,16,4.3,15.9,4.1z M4.5,14.8l-3.3-3.3L3,9.7l1.1,1.1c0.2,0.2,0.5,0.2,0.7,0c0.2-0.2,0.2-0.5,0-0.7L3.7,9L5,7.7l1.1,1.1C6.3,9,6.7,9,6.9,8.9C7,8.7,7,8.3,6.9,8.1L5.7,7L7,5.7l1.1,1.1C8.3,7,8.7,7,8.9,6.9C9,6.7,9,6.3,8.9,6.1L7.7,5L9,3.7l1.1,1.1c0.2,0.2,0.5,0.2,0.7,0c0.2-0.2,0.2-0.5,0-0.7L9.7,3l1.8-1.8l3.3,3.3L4.5,14.8z"/></g></svg>