<svg viewBox="0 0 24 24" xmlns="http://www.w3.org/2000/svg"><path d="M9 3C9 2.17157 8.32843 1.5 7.5 1.5C6.67157 1.5 6 2.17157 6 3C6 3.82843 6.67157 4.5 7.5 4.5C8.32843 4.5 9 3.82843 9 3ZM7.5 0C9.15685 0 10.5 1.34315 10.5 3C10.5 4.65685 9.15685 6 7.5 6C5.84315 6 4.5 4.65685 4.5 3C4.5 1.34315 5.84315 0 7.5 0ZM7.5 10.5C8.32843 10.5 9 11.1716 9 12C9 12.8284 8.32843 13.5 7.5 13.5C6.67157 13.5 6 12.8284 6 12C6 11.1716 6.67157 10.5 7.5 10.5ZM10.5 12C10.5 10.3431 9.15685 9 7.5 9C5.84315 9 4.5 10.3431 4.5 12C4.5 13.6569 5.84315 15 7.5 15C9.15685 15 10.5 13.6569 10.5 12ZM7.5 19.5C8.32843 19.5 9 20.1716 9 21C9 21.8284 8.32843 22.5 7.5 22.5C6.67157 22.5 6 21.8284 6 21C6 20.1716 6.67157 19.5 7.5 19.5ZM10.5 21C10.5 19.3431 9.15685 18 7.5 18C5.84315 18 4.5 19.3431 4.5 21C4.5 22.6569 5.84315 24 7.5 24C9.15685 24 10.5 22.6569 10.5 21ZM15.75 10.5C16.5784 10.5 17.25 11.1716 17.25 12C17.25 12.8284 16.5784 13.5 15.75 13.5C14.9216 13.5 14.25 12.8284 14.25 12C14.25 11.1716 14.9216 10.5 15.75 10.5ZM18.75 12C18.75 10.3431 17.4069 9 15.75 9C14.0931 9 12.75 10.3431 12.75 12C12.75 13.6569 14.0931 15 15.75 15C17.4069 15 18.75 13.6569 18.75 12ZM17.25 21C17.25 20.1716 16.5784 19.5 15.75 19.5C14.9216 19.5 14.25 20.1716 14.25 21C14.25 21.8284 14.9216 22.5 15.75 22.5C16.5784 22.5 17.25 21.8284 17.25 21ZM15.75 18C17.4069 18 18.75 19.3431 18.75 21C18.75 22.6569 17.4069 24 15.75 24C14.0931 24 12.75 22.6569 12.75 21C12.75 19.3431 14.0931 18 15.75 18ZM15.75 1.5C16.5784 1.5 17.25 2.17157 17.25 3C17.25 3.82843 16.5784 4.5 15.75 4.5C14.9216 4.5 14.25 3.82843 14.25 3C14.25 2.17157 14.9216 1.5 15.75 1.5ZM18.75 3C18.75 1.34315 17.4069 0 15.75 0C14.0931 0 12.75 1.34315 12.75 3C12.75 4.65685 14.0931 6 15.75 6C17.4069 6 18.75 4.65685 18.75 3Z"/></svg>