<svg viewBox="0 0 16 16" xmlns="http://www.w3.org/2000/svg"><path d="M0 5.5C0 5.22386 0.223858 5 0.5 5H2.5C2.77614 5 3 5.22386 3 5.5C3 5.77614 2.77614 6 2.5 6H1V7.5C1 7.77614 0.776142 8 0.5 8C0.223858 8 0 7.77614 0 7.5V5.5Z"/><path d="M0.5 9C0.776142 9 1 9.22386 1 9.5V11.531C1 11.8071 0.776142 12.031 0.5 12.031C0.223858 12.031 0 11.8071 0 11.531V9.5C0 9.22386 0.223858 9 0.5 9Z"/><path d="M0.5 13C0.776142 13 1 13.2239 1 13.5V15H2.5C2.77614 15 3 15.2239 3 15.5C3 15.7761 2.77614 16 2.5 16H0.5C0.223858 16 0 15.7761 0 15.5V13.5C0 13.2239 0.223858 13 0.5 13Z"/><path d="M4 15.5C4 15.2239 4.22386 15 4.5 15H6.5C6.77614 15 7 15.2239 7 15.5C7 15.7761 6.77614 16 6.5 16H4.5C4.22386 16 4 15.7761 4 15.5Z"/><path d="M10.5 13C10.7761 13 11 13.2239 11 13.5V15.5C11 15.7761 10.7761 16 10.5 16H8.5C8.22386 16 8 15.7761 8 15.5C8 15.2239 8.22386 15 8.5 15H10V13.5C10 13.2239 10.2239 13 10.5 13Z"/><path d="M15.5 8C15.7761 8 16 8.22386 16 8.5V10.5C16 10.7761 15.7761 11 15.5 11H13.5C13.2239 11 13 10.7761 13 10.5C13 10.2239 13.2239 10 13.5 10H15V8.5C15 8.22386 15.2239 8 15.5 8Z"/><path d="M15.5 3.96899C15.7761 3.96899 16 4.19285 16 4.46899V6.49999C16 6.77614 15.7761 6.99999 15.5 6.99999C15.2239 6.99999 15 6.77614 15 6.49999V4.46899C15 4.19285 15.2239 3.96899 15.5 3.96899Z"/><path d="M13 0.5C13 0.223858 13.2239 0 13.5 0H15.5C15.7761 0 16 0.223858 16 0.5V2.5C16 2.77614 15.7761 3 15.5 3C15.2239 3 15 2.77614 15 2.5V1H13.5C13.2239 1 13 0.776142 13 0.5Z"/><path d="M9 0.5C9 0.223858 9.22386 0 9.5 0H11.5C11.7761 0 12 0.223858 12 0.5C12 0.776142 11.7761 1 11.5 1H9.5C9.22386 1 9 0.776142 9 0.5Z"/><path d="M5 0.5C5 0.223858 5.22386 0 5.5 0H7.5C7.77614 0 8 0.223858 8 0.5C8 0.776142 7.77614 1 7.5 1H6V2.5C6 2.77614 5.77614 3 5.5 3C5.22386 3 5 2.77614 5 2.5V0.5Z"/><path d="M5 5.5C5 5.22386 5.22386 5 5.5 5H10.5C10.7761 5 11 5.22386 11 5.5V10.5C11 10.7761 10.7761 11 10.5 11H5.5C5.22386 11 5 10.7761 5 10.5V5.5ZM6 6V10H10V6H6Z"/></svg>