<svg viewBox="0 0 24 24" xmlns="http://www.w3.org/2000/svg"><path d="M9.75 3C9.33621 3 9 3.33621 9 3.75V8.25C9 8.66421 8.66421 9 8.25 9C7.83579 9 7.5 8.66421 7.5 8.25V3.75C7.5 2.50779 8.50779 1.5 9.75 1.5H21.75C22.9922 1.5 24 2.50779 24 3.75V21.75C24 22.9922 22.9922 24 21.75 24H9.75C8.50779 24 7.5 22.9922 7.5 21.75V17.25C7.5 16.8358 7.83579 16.5 8.25 16.5C8.66421 16.5 9 16.8358 9 17.25V21.75C9 22.1638 9.33621 22.5 9.75 22.5H21.75C22.1638 22.5 22.5 22.1638 22.5 21.75V3.75C22.5 3.33621 22.1638 3 21.75 3H9.75ZM0 12.75C0 12.3358 0.335786 12 0.75 12H15.4393L12.2197 8.78033C11.9268 8.48744 11.9268 8.01256 12.2197 7.71967C12.5126 7.42678 12.9874 7.42678 13.2803 7.71967L17.7803 12.2197C17.8522 12.2916 17.9065 12.3745 17.9431 12.4629C17.9751 12.5401 17.9946 12.6238 17.999 12.7114C17.9997 12.7242 18 12.7371 18 12.75C18 12.8517 17.9798 12.9487 17.9431 13.0371C17.9065 13.1255 17.8522 13.2084 17.7803 13.2803L13.2803 17.7803C12.9874 18.0732 12.5126 18.0732 12.2197 17.7803C11.9268 17.4874 11.9268 17.0126 12.2197 16.7197L15.4393 13.5H0.75C0.335786 13.5 0 13.1642 0 12.75Z"/></svg>