<svg xmlns="http://www.w3.org/2000/svg" viewBox="0 0 24 24"><g><path d="M0,2.2v1.5h3v18h11.6l6.2-6.2l0,0l0,0l0,0l0.2-0.2V3.8h3V2.2H0z M15,19.2v-3.4h3.4L15,19.2z M19.5,14.2h-6v6h-9V3.8h15V14.2z"/><path d="M6.7,11.6c-0.4,0-0.8,0.3-0.8,0.8s0.3,0.8,0.8,0.8h6.1c0.4,0,0.8-0.3,0.8-0.8s-0.3-0.8-0.8-0.8h-0.2c0-0.8-0.3-1.7-0.8-2.3c0.5-0.6,0.7-1.4,0.8-2.2h0.2c0.4,0,0.8-0.3,0.8-0.8c0-0.4-0.3-0.8-0.8-0.8h-0.9H7.6H6.7C6.3,5.5,6,5.8,6,6.2C6,6.6,6.3,7,6.7,7h0.2C7,7.8,7.2,8.6,7.7,9.2c-0.5,0.6-0.8,1.5-0.8,2.3H6.7z M9.2,8.6C8.8,8.4,8.5,7.8,8.4,7h2.7c-0.1,0.8-0.4,1.4-0.8,1.6C10.1,8.7,9.9,9,9.9,9.2c0,0.3,0.1,0.5,0.4,0.6c0.4,0.2,0.7,0.8,0.8,1.7H8.4c0.1-0.8,0.4-1.4,0.8-1.7c0.2-0.1,0.4-0.4,0.4-0.6C9.6,9,9.4,8.7,9.2,8.6z"/></g></svg>