<svg xmlns="http://www.w3.org/2000/svg" viewBox="0 0 24 24"><g><path d="M13.4,16.3c1.3,0,2.1-0.9,2.1-2.1c0-1.2-0.7-2-2-2h-2.7v6.3h1.1v-2.2H13.4z M11.9,13.3h1.4c0.6,0,1,0.4,1,1c0,0.6-0.4,1.1-1.1,1.1h-1.3V13.3z"/><polygon points="5.2,17.4 1.9,17.4 5.2,13.2 5.2,12.2 0.5,12.2 0.5,13.3 3.8,13.3 0.5,17.5 0.5,18.5 5.2,18.5 	"/><path d="M22.3,7.7l-7.5-7.5C14.6,0.1,14.4,0,14.2,0h-12C1.8,0,1.5,0.3,1.5,0.8V10H3V1.5h10.5v6.8c0,0.4,0.3,0.8,0.8,0.8H21v13.5H3V21H1.5v2.2c0,0.4,0.3,0.8,0.8,0.8h19.5c0.4,0,0.8-0.3,0.8-0.8v-15C22.5,8.1,22.4,7.9,22.3,7.7z M15,7.5V2.6l4.9,4.9H15z"/><polygon points="6,17.4 6,18.5 9.7,18.5 9.7,17.4 8.4,17.4 8.4,13.3 9.7,13.3 9.7,12.2 6,12.2 6,13.3 7.3,13.3 7.3,17.4 	"/></g></svg>