<svg viewBox="0 0 24 24" xmlns="http://www.w3.org/2000/svg"><path fill-rule="evenodd" clip-rule="evenodd" d="M13.5 9H22.5V22.5C22.5 23.4 21.9 24 21 24H3C2.1 24 1.5 23.4 1.5 22.5V1.5C1.5 0.6 2.1 0 3 0H13.5V9ZM14.65 16.9086C14.65 17.7788 14.4367 18.4397 14.0102 18.8926C13.5836 19.3454 12.959 19.5712 12.1362 19.5712C11.3252 19.5712 10.7038 19.3434 10.2707 18.8886C9.83891 18.4344 9.623 17.7716 9.623 16.902C9.623 16.0411 9.83759 15.3841 10.2681 14.9306C10.6973 14.4771 11.3232 14.25 12.1434 14.25C12.9655 14.25 13.5889 14.4758 14.0135 14.9254C14.438 15.3749 14.65 16.0371 14.65 16.9086ZM11.0935 16.9086C11.0935 17.9085 11.4404 18.4074 12.1362 18.4074C12.4896 18.4074 12.7523 18.2863 12.9228 18.0434C13.0932 17.8005 13.1788 17.4227 13.1788 16.908C13.1788 16.3926 13.0926 16.0108 12.9188 15.7646C12.745 15.5184 12.487 15.3947 12.1427 15.3947C11.4437 15.396 11.0935 15.9002 11.0935 16.9086ZM8.88782 16.8065C8.88782 17.6695 8.6502 18.3336 8.17495 18.8003C7.6997 19.2677 7.03224 19.5007 6.17258 19.5007H4.5V14.3315H6.28909C7.11913 14.3315 7.75894 14.5435 8.21049 14.968C8.66204 15.3926 8.88782 16.0048 8.88782 16.8065ZM7.43772 16.8559C7.43772 16.3819 7.34425 16.0311 7.15665 15.802C6.96971 15.573 6.68469 15.4591 6.30292 15.4591H5.89612V18.354H6.20747C6.63204 18.354 6.94272 18.2303 7.14085 17.9841C7.33898 17.7379 7.43772 17.3627 7.43772 16.8559ZM17.1073 15.8114C17.2936 15.5389 17.5529 15.4033 17.8853 15.4033C18.1045 15.4033 18.3092 15.4335 18.5001 15.4948C18.691 15.5566 18.8819 15.6317 19.0728 15.7212L19.5 14.6219C18.9905 14.3791 18.4574 14.2579 17.8985 14.2579C17.3877 14.2579 16.9427 14.3665 16.5636 14.5844C16.1858 14.8023 15.8968 15.1136 15.6947 15.5198C15.4926 15.9259 15.3926 16.3959 15.3926 16.931C15.3926 17.7854 15.5999 18.4397 16.0159 18.8926C16.4326 19.3448 17.0303 19.5712 17.811 19.5712C18.3553 19.5712 18.8437 19.4758 19.2742 19.2842V18.104C19.0577 18.1935 18.8424 18.2699 18.6278 18.3337C18.4132 18.3976 18.1921 18.4299 17.963 18.4299C17.206 18.4299 16.8276 17.9322 16.8276 16.937C16.8276 16.4584 16.9217 16.0832 17.1073 15.8114ZM16.5 6V0L22.5 6H16.5Z"/></svg>