<svg viewBox="0 0 16 16" xmlns="http://www.w3.org/2000/svg"><path d="M4 3.5C4 3.22386 4.22386 3 4.5 3H11.5C11.7761 3 12 3.22386 12 3.5C12 3.77614 11.7761 4 11.5 4H4.5C4.22386 4 4 3.77614 4 3.5Z"/><path d="M4.5 6C4.22386 6 4 6.22386 4 6.5C4 6.77614 4.22386 7 4.5 7H11.5C11.7761 7 12 6.77614 12 6.5C12 6.22386 11.7761 6 11.5 6H4.5Z"/><path d="M4 9.5C4 9.22386 4.22386 9 4.5 9H11.5C11.7761 9 12 9.22386 12 9.5C12 9.77614 11.7761 10 11.5 10H4.5C4.22386 10 4 9.77614 4 9.5Z"/><path d="M4.5 12C4.22386 12 4 12.2239 4 12.5C4 12.7761 4.22386 13 4.5 13H7.5C7.77614 13 8 12.7761 8 12.5C8 12.2239 7.77614 12 7.5 12H4.5Z"/><path d="M1 0.5C1 0.223858 1.22386 0 1.5 0H14.5C14.7761 0 15 0.223858 15 0.5V15.5C15 15.7761 14.7761 16 14.5 16H1.5C1.22386 16 1 15.7761 1 15.5V0.5ZM2 1V15H14V1H2Z"/></svg>