<svg viewBox="0 0 16 16" xmlns="http://www.w3.org/2000/svg"><path d="M0.5 0C0.223858 0 0 0.223858 0 0.5V3.5C0 3.66718 0.0835506 3.82329 0.22265 3.91603L6 7.76759V15.5C6 15.6844 6.10149 15.8538 6.26407 15.9408C6.42665 16.0278 6.62392 16.0183 6.77735 15.916L9.77735 13.916C9.91645 13.8233 10 13.6672 10 13.5V7.76759L15.7774 3.91603C15.9164 3.82329 16 3.66718 16 3.5V0.5C16 0.223858 15.7761 0 15.5 0H0.5ZM6.77735 7.08397L1 3.23241V1H15V3.23241L9.22265 7.08397C9.08355 7.17671 9 7.33282 9 7.5V13.2324L7 14.5657V7.5C7 7.33282 6.91645 7.17671 6.77735 7.08397Z"/></svg>