<svg xmlns="http://www.w3.org/2000/svg" viewBox="0 0 512 512"><path style="fill:#FAB446;" d="M512,200.1H0v-103c0-4.9,4-8.8,8.8-8.8h494.3c4.9,0,8.8,4,8.8,8.8L512,200.1L512,200.1z"/><path style="fill:#73AF00;" d="M503.2,423.7H8.8c-4.9,0-8.8-4-8.8-8.8v-103h512v103C512,419.8,508,423.7,503.2,423.7z"/><path style="fill:#41479B;" d="M256,208.6c-26.1,0-47.4,21.3-47.4,47.4c0,26.1,21.2,47.4,47.4,47.4s47.4-21.3,47.4-47.4	S282.1,208.6,256,208.6z M294.6,255l-24.9-1.2l-6.2,0.6c-0.2-1-0.6-1.8-1.1-2.6l4.8-3.9l16.8-18.5	C290.3,236.1,294.3,245.1,294.6,255z M260.2,249.6c-0.8-0.5-1.7-0.9-2.6-1.1l0.6-6.2l-1.2-24.9c9.9,0.3,18.9,4.2,25.6,10.6	l-18.5,16.8L260.2,249.6z M254.4,248.5c-1,0.2-1.8,0.6-2.6,1.1l-3.9-4.8L229.4,228c6.7-6.4,15.7-10.3,25.6-10.6l-1.2,24.9	L254.4,248.5z M251.8,262.4c0.8,0.5,1.7,0.9,2.6,1.1l-0.6,6.2l1.2,24.9c-9.9-0.3-18.9-4.2-25.6-10.6l18.5-16.8L251.8,262.4zM257.6,263.5c1-0.2,1.8-0.6,2.6-1.1l3.9,4.8l18.5,16.8c-6.7,6.4-15.7,10.3-25.6,10.6l1.2-24.9L257.6,263.5z M228,229.4l16.8,18.5	l4.8,3.9c-0.5,0.8-0.9,1.7-1.1,2.6l-6.2-0.6l-24.9,1.2C217.7,245.1,221.7,236.1,228,229.4z M217.4,257l24.9,1.2l6.2-0.6	c0.2,1,0.6,1.8,1.1,2.6l-4.8,3.9L228,282.6C221.7,275.9,217.7,266.9,217.4,257z M284,282.6l-16.8-18.5l-4.8-3.9	c0.5-0.8,0.9-1.7,1.1-2.6l6.2,0.6l24.9-1.2C294.3,266.9,290.3,275.9,284,282.6z"/><rect y="200.1" style="fill:#F5F5F5;" width="512" height="111.8"/><circle style="fill:#F5F5F5;" cx="256" cy="256" r="7.3"/></svg>