<svg xmlns="http://www.w3.org/2000/svg" viewBox="0 0 512 512"><path style="fill:#73AF00;" d="M170.7,423.7H8.8c-4.9,0-8.8-4-8.8-8.8V97.1c0-4.9,4-8.8,8.8-8.8h161.8L170.7,423.7L170.7,423.7z"/><path style="fill:#FF4B55;" d="M503.2,423.7H341.3V88.3h161.8c4.9,0,8.8,4,8.8,8.8v317.8C512,419.8,508,423.7,503.2,423.7z"/><path style="fill:#00AADC;" d="M296.7,266.7c1.5-1.5,1.6-3.9,0.2-5.4c-1.5-1.5-3.9-1.6-5.4-0.2c-9.9,9.2-22.5,14.2-35.5,14.2	s-25.6-5-35.5-14.2c-1.6-1.4-4-1.3-5.4,0.2c-1.4,1.6-1.3,4,0.2,5.4c10.3,9.5,23.3,15.2,36.9,16.1v7.6c-6.8-0.6-13.5-2.8-19.3-6.6	l-4.2,6.3c8.1,5.3,17.5,8.2,27.3,8.2s19.2-2.9,27.3-8.2l-4.2-6.3c-5.8,3.8-12.5,6-19.3,6.6v-7.6	C273.4,281.9,286.4,276.3,296.7,266.7z"/><path style="fill:#AAD264;" d="M245.8,215.1c-1-0.8-5-4.5-5-4.5l-7.6,7.6v2.8c-0.6-0.1-1.3-0.2-1.9-0.2c-1.9,0-2.1-0.9-2.2-1.3	c-0.2-0.9,0.2-2.3,1.1-2.8l-3.5-6.8c-4,2.1-6.1,6.8-5,11.4c1.1,4.4,4.8,7.1,9.6,7.1c1.7,0,3.2,0.9,3.4,1.6c0.1,0.3-0.2,0.9-1,1.6	c-4.5,4-14,12.4-7,20.4c1.7,1.9,4.1,2.8,6.3,3.5c4,1.3,4,1.7,3.8,3.2c-0.2,1.2-2,1.9-3.8,1.9c-5.8,0-15.4-5.3-18.1-21l-7.5,1.3	c3.2,18.8,15.2,27.3,25.3,27.3c0.2,0,0.3,0,0.5,0c6.1-0.2,10.5-3.7,11.1-8.7c0.9-8-5.5-10.1-8.9-11.3c-1-0.3-2.6-0.9-3-1.3	c-1.7-1.9,1.3-5.2,6.3-9.7c4.6-4.1,3.7-8.3,3.1-9.9c-0.6-1.6-1.8-3.1-3.3-4.2c2.6-1.3,5.4-2.7,6.8-3.4	C247.4,218.7,247,216.3,245.8,215.1z"/><path style="fill:#AAD264;" d="M256,313.4c-35.7,0-64.7-29-64.7-64.7h7.6c0,31.5,25.6,57.1,57.1,57.1s57.1-25.6,57.1-57.1h7.6	C320.7,284.3,291.7,313.4,256,313.4z"/><path style="fill:#9B4B5A;" d="M301.7,263.9C309.3,195.4,256,203,256,203c15.2,7.6,7.6,22.8,7.6,22.8v0.2c-0.4-0.9-0.8-1.9-1.3-2.8	c-3.9-7.7-11.8-12.6-20.4-12.6h-1.1l0,7.6c4.2,0,7.6,3.4,7.6,7.6c-4.5,4.5-5.7,11.5-2.8,17.2l1.7,3.4c0.4,0.8,0.9,1.6,1.5,2.3	l-7.2,11.1l-1.5,4.3l19.3-4.5l11.8,11.8v-7.6l7.7,7.7c15.2-7.6,15.2-7.6,15.2-7.6l-23.7-14.2c-0.7-4.8-1.7-9.5-3.2-14.1l19.3,11.2	C289.1,254.3,294.5,261.1,301.7,263.9z"/><rect x="170.7" y="88.3" style="fill:#F5F5F5;" width="170.7" height="335.5"/><polygon style="fill:#FFD250;" points="271.2,263.9 256,271.5 256,279.1 263.6,279.1 "/></svg>