<svg xmlns="http://www.w3.org/2000/svg" viewBox="0 0 512 512"><path style="fill:#F5F5F5;" d="M503.2,423.7H8.8c-4.9,0-8.8-4-8.8-8.8V97.1c0-4.9,4-8.8,8.8-8.8h494.3c4.9,0,8.8,4,8.8,8.8v317.8	C512,419.8,508,423.7,503.2,423.7z"/><g><polygon style="fill:#FF4B55;" points="512,229.5 282.5,229.5 282.5,88.3 229.5,88.3 229.5,229.5 0,229.5 0,282.5 229.5,282.5 
		229.5,423.7 282.5,423.7 282.5,282.5 512,282.5 	"/><path style="fill:#FF4B55;" d="M150.1,146.8c-8.7,0.9-17.3,1.8-25.9,2.6c0.9-8.6,1.8-17.1,2.6-25.9c-8,1-16.1,1-24.1,0c0.9,8.7,1.8,17.3,2.6,25.9c-8.6-0.9-17.1-1.8-25.9-2.6c1,8,1,16.1,0,24.1c8.7-0.9,17.3-1.8,25.9-2.6c-0.9,8.6-1.8,17.1-2.6,25.9c8-1,16.1-1,24.1,0c-0.9-8.7-1.8-17.3-2.6-25.9c8.6,0.9,17.1,1.8,25.9,2.6C149,162.9,149,154.9,150.1,146.8z"/><path style="fill:#FF4B55;" d="M432.6,146.8c-8.7,0.9-17.3,1.8-25.9,2.6c0.9-8.6,1.8-17.1,2.6-25.9c-8,1-16.1,1-24.1,0c0.9,8.7,1.8,17.3,2.6,25.9c-8.6-0.9-17.1-1.8-25.9-2.6c1,8,1,16.1,0,24.1c8.7-0.9,17.3-1.8,25.9-2.6c-0.9,8.6-1.8,17.1-2.6,25.9c8-1,16.1-1,24.1,0c-0.9-8.7-1.8-17.3-2.6-25.9c8.6,0.9,17.1,1.8,25.9,2.6C431.5,162.9,431.5,154.9,432.6,146.8z"/><path style="fill:#FF4B55;" d="M150.1,341c-8.7,0.9-17.3,1.8-25.9,2.6c0.9-8.6,1.8-17.1,2.6-25.9c-8,1-16.1,1-24.1,0c0.9,8.7,1.8,17.3,2.6,25.9c-8.6-0.9-17.1-1.8-25.9-2.6c1,8,1,16.1,0,24.1c8.7-0.9,17.3-1.8,25.9-2.6c-0.9,8.6-1.8,17.1-2.6,25.9c8-1,16.1-1,24.1,0c-0.9-8.7-1.8-17.3-2.6-25.9c8.6,0.9,17.1,1.8,25.9,2.6C149,357.2,149,349.1,150.1,341z"/><path style="fill:#FF4B55;" d="M432.6,341c-8.7,0.9-17.3,1.8-25.9,2.6c0.9-8.6,1.8-17.1,2.6-25.9c-8,1-16.1,1-24.1,0c0.9,8.7,1.8,17.3,2.6,25.9c-8.6-0.9-17.1-1.8-25.9-2.6c1,8,1,16.1,0,24.1c8.7-0.9,17.3-1.8,25.9-2.6c-0.9,8.6-1.8,17.1-2.6,25.9c8-1,16.1-1,24.1,0c-0.9-8.7-1.8-17.3-2.6-25.9c8.6,0.9,17.1,1.8,25.9,2.6C431.5,357.2,431.5,349.1,432.6,341z"/></g></svg>