<svg xmlns="http://www.w3.org/2000/svg" viewBox="0 0 512 512"><path style="fill:#F5F5F5;" d="M3.3,421.6L256,256L3.3,90.4C1.3,92,0,94.4,0,97.1v317.8C0,417.6,1.3,420,3.3,421.6z"/><path style="fill:#FF4B55;" d="M3.3,421.6c1.5,1.3,3.4,2.1,5.6,2.1h494.3c4.9,0,8.8-4,8.8-8.8V256H256L3.3,421.6z"/><path style="fill:#41479B;" d="M3.3,90.4c1.5-1.3,3.4-2.1,5.6-2.1h494.3c4.9,0,8.8,4,8.8,8.8V256H256L3.3,90.4z"/><g><circle style="fill:#FFE15A;" cx="92.7" cy="256" r="28.7"/><polygon style="fill:#FFE15A;" points="92.7,256 81.9,213 92.7,198.6 103.4,213 	"/><polygon style="fill:#FFE15A;" points="92.7,256 103.4,299 92.7,313.4 81.9,299 	"/><polygon style="fill:#FFE15A;" points="92.7,256 49.7,266.8 35.3,256 49.7,245.2 	"/><polygon style="fill:#FFE15A;" points="92.7,256 135.7,245.2 150.1,256 135.7,266.8 	"/><polygon style="fill:#FFE15A;" points="92.7,256 115.5,218 133.3,215.4 130.7,233.2 	"/><polygon style="fill:#FFE15A;" points="92.7,256 69.9,294 52.1,296.6 54.7,278.8 	"/><polygon style="fill:#FFE15A;" points="92.7,256 54.7,233.2 52.1,215.4 69.9,218 	"/><polygon style="fill:#FFE15A;" points="92.7,256 130.7,278.8 133.3,296.6 115.5,294 	"/><path style="fill:#FFE15A;" d="M23.7,131.7l1.5,11.2l-10.1,5c-1.3,0.7-1,2.6,0.4,2.9l11.1,2l1.7,11.1c0.2,1.4,2.1,1.8,2.8,0.5l5.4-9.9l11.1,1.9c1.4,0.2,2.4-1.5,1.3-2.5l-7.8-8.1l5.2-10c0.7-1.3-0.7-2.7-2-2.1l-10.2,4.9l-7.9-8C25.2,129.4,23.5,130.2,23.7,131.7z"/><path style="fill:#FFE15A;" d="M28.1,348.9L26.2,360l-11.1,1.8c-1.4,0.2-1.8,2.2-0.5,2.8l10,5.2L22.9,381c-0.2,1.4,1.5,2.3,2.6,1.3l8.1-7.9l10.1,5.1c1.3,0.7,2.7-0.7,2-2l-5-10.1l7.9-8c1-1,0.1-2.8-1.3-2.6l-11.1,1.6l-5.2-10C30.3,347.2,28.3,347.5,28.1,348.9z"/><path style="fill:#FFE15A;" d="M202.7,239.6l-6.5,9.2l-10.8-3.1c-1.4-0.4-2.5,1.2-1.6,2.4l6.8,9l-6.3,9.3c-0.8,1.2,0.4,2.8,1.7,2.3l10.7-3.6l6.9,8.9c0.9,1.2,2.7,0.5,2.7-1l-0.2-11.3l10.6-3.8c1.4-0.5,1.3-2.4-0.1-2.9l-10.8-3.3l-0.3-11.3C205.4,238.9,203.6,238.4,202.7,239.6z"/></g></svg>