<svg xmlns="http://www.w3.org/2000/svg" viewBox="0 0 512 512"><path style="fill:#F5F5F5;" d="M503.2,88.3H8.8c-4.9,0-8.8,4-8.8,8.8v317.8c0,4.9,4,8.8,8.8,8.8h494.3c4.9,0,8.8-4,8.8-8.8V97.1	C512,92.2,508,88.3,503.2,88.3z"/><rect x="185.4" y="125.6" style="fill:#4173CD;" width="326.6" height="37.3"/><rect x="185.4" y="200.1" style="fill:#4173CD;" width="326.6" height="37.3"/><rect y="237.4" style="fill:#F5F5F5;" width="512" height="37.3"/><rect y="274.6" style="fill:#4173CD;" width="512" height="37.3"/><rect y="349.2" style="fill:#4173CD;" width="512" height="37.3"/><polygon style="fill:#FFE15A;" points="128.5,188.1 167.7,181 128.5,173.8 162,152.3 123.1,160.7 145.7,127.9 113,150.6 
	121.4,111.6 99.8,145.1 92.7,105.9 85.6,145.1 64,111.6 72.4,150.6 39.6,127.9 62.3,160.7 23.4,152.3 56.9,173.8 17.7,181 
	56.9,188.1 23.4,209.7 62.3,201.3 39.6,234 72.4,211.3 64,250.3 85.6,216.8 92.7,256 99.8,216.8 121.4,250.3 113,211.3 145.7,234 
	123.1,201.3 162,209.7 "/></svg>