<svg xmlns="http://www.w3.org/2000/svg" viewBox="0 0 512 512"><g><path style="fill:#82AFFF;" d="M512,200.1H0v-103c0-4.9,4-8.8,8.8-8.8h494.3c4.9,0,8.8,4,8.8,8.8L512,200.1L512,200.1z"/><path style="fill:#82AFFF;" d="M503.2,423.7H8.8c-4.9,0-8.8-4-8.8-8.8v-103h512v103C512,419.8,508,423.7,503.2,423.7z"/></g><rect y="200.1" style="fill:#F5F5F5;" width="512" height="111.8"/><path style="fill:#FFE15A;" d="M289.7,266.4c-2.4-1-3.9-1-5.2-1c-1.1,0-1.9,0-3.6-0.7c-1.6-0.7-2.3-1.3-3-2	c-0.2-0.2-0.4-0.4-0.7-0.6c0.4-1.3,0.6-2.7,0.8-4.1h22.2l-0.1-4.2H278c-0.1-1.4-0.4-2.7-0.8-4c1.1,0,2.5-0.2,4.4-1	c2.4-1,3.5-2,4.4-3c0.8-0.8,1.4-1.4,3-2c1.6-0.7,2.5-0.7,3.6-0.7c1.3,0,2.8,0,5.2-1l-1.7-4.1c-1.6,0.7-2.5,0.7-3.6,0.7	c-1.3,0-2.8,0-5.2,1s-3.5,2-4.4,3c-0.8,0.8-1.4,1.4-3,2c-1.6,0.7-2.5,0.7-3.6,0.7c-0.3,0-0.6,0-0.9,0c-0.7-1.2-1.4-2.4-2.3-3.4	l15.6-15.6l-3.1-3.1L270,238.9c-1.1-0.9-2.2-1.7-3.5-2.3c0.8-0.8,1.6-1.9,2.4-3.8c1-2.4,1-3.9,1-5.2c0-1.1,0-1.9,0.7-3.6	c0.7-1.6,1.3-2.2,2-3c0.9-0.9,2-2,3-4.4l-4.1-1.7c-0.7,1.6-1.3,2.2-2,3c-0.9,0.9-2,2-3,4.4c-1,2.4-1,3.9-1,5.2c0,1.1,0,1.9-0.7,3.6	c-0.7,1.6-1.3,2.3-2,3c-0.2,0.2-0.4,0.4-0.7,0.7c-1.3-0.4-2.7-0.6-4-0.8v-22.1h-4.4V234c-1.4,0.1-2.7,0.4-4,0.8c0-1.1-0.2-2.5-1-4.4	c-1-2.4-2-3.5-3-4.4c-0.8-0.8-1.4-1.4-2-3c-0.7-1.6-0.7-2.5-0.7-3.6c0-1.3,0-2.8-1-5.2l-4.1,1.7c0.7,1.6,0.7,2.5,0.7,3.6	c0,1.3,0,2.8,1,5.2c1,2.4,2,3.5,3,4.4c0.8,0.8,1.4,1.4,2,3c0.7,1.6,0.7,2.5,0.7,3.6c0,0.3,0,0.6,0,1c-1.2,0.7-2.3,1.4-3.4,2.3	l-15.6-15.6l-3.1,3.1l15.7,15.7c-0.8,1-1.6,2.2-2.3,3.4c-0.3,0-0.5,0-0.8,0c-1.1,0-2,0-3.6-0.7c-1.7-0.7-2.3-1.3-3.1-2.1	c-0.9-0.9-2-2-4.5-3c-2.4-1-3.9-1-5.2-1c-1.1,0-2,0-3.6-0.7L214,242c2.4,1,3.9,1,5.2,1c1.1,0,2,0,3.6,0.7c1.7,0.7,2.3,1.3,3.1,2.1	c0.9,0.9,2,2,4.5,3c1.9,0.8,3.3,1,4.4,1c-0.4,1.3-0.6,2.6-0.8,4h-22.3v4.4H234c0.1,1.4,0.4,2.7,0.8,3.9c-0.2,0.2-0.5,0.4-0.7,0.7	c-0.8,0.8-1.4,1.4-3.1,2.1c-1.7,0.7-2.5,0.7-3.6,0.7c-1.3,0-2.8,0-5.2,1c-2.4,1-3.5,2.1-4.5,3c-0.8,0.8-1.4,1.4-3.1,2.1l1.7,4.1	c2.4-1,3.5-2.1,4.5-3c0.8-0.8,1.4-1.4,3.1-2.1s2.5-0.7,3.6-0.7c1.3,0,2.8,0,5.3-1.1c1.9-0.8,3-1.6,3.8-2.4c0.7,1.2,1.4,2.4,2.3,3.5	l-15.6,15.6l3.1,3.1l15.6-15.6c1.1,0.9,2.2,1.6,3.4,2.3c0,0.2,0,0.5,0,0.7c0,1.1,0,2-0.7,3.6c-0.7,1.7-1.3,2.3-2.1,3.1	c-0.9,0.9-2,2-3,4.5s-1,3.9-1,5.2c0,1.1,0,2-0.7,3.6l4.1,1.7c1-2.4,1-3.9,1-5.2c0-1.1,0-2,0.7-3.6c0.7-1.7,1.3-2.3,2.1-3.1	c0.9-0.9,2-2,3-4.5c0.8-1.8,0.9-3.1,1-4.2c1.3,0.4,2.6,0.6,3.9,0.8v22h4.4v-22c1.4-0.1,2.8-0.4,4.2-0.8c0.1,0.1,0.3,0.3,0.4,0.4	c0.8,0.8,1.4,1.4,2.1,3.1s0.7,2.5,0.7,3.6c0,1.3,0,2.8,1,5.2s2.1,3.5,3,4.5c0.8,0.8,1.4,1.4,2.1,3.1l4.1-1.7c-1-2.4-2.1-3.5-3-4.5	c-0.8-0.8-1.4-1.4-2.1-3.1s-0.7-2.5-0.7-3.6c0-1.3,0-2.8-1-5.2c-0.7-1.8-1.5-2.8-2.2-3.6c1.2-0.7,2.3-1.4,3.4-2.3l15.5,15.5l3.1-3.1	l-15.5-15.5c0.9-1.1,1.6-2.2,2.3-3.4c0.8,0.8,1.9,1.6,3.7,2.3c2.4,1,3.9,1,5.2,1c1.1,0,1.9,0,3.6,0.7c1.6,0.7,2.2,1.3,3,2	c0.9,0.9,2,2,4.4,3l1.7-4.1c-1.6-0.7-2.2-1.3-3-2C293.2,268.5,292.1,267.4,289.7,266.4z"/></svg>