<svg xmlns="http://www.w3.org/2000/svg" viewBox="0 0 512 512"><path style="fill:#F5F5F5;" d="M512,200.1H0v-103c0-4.9,4-8.8,8.8-8.8h494.3c4.9,0,8.8,4,8.8,8.8L512,200.1L512,200.1z"/><path style="fill:#FF4B55;" d="M503.2,423.7H8.8c-4.9,0-8.8-4-8.8-8.8v-103h512v103C512,419.8,508,423.7,503.2,423.7z"/><path style="fill:#FF4B55;" d="M130.2,339.3c-2.6-1.5-64-37.2-64-92.1v-75h132.4v75c0,54.9-61.4,90.6-64,92.1l-2.2,1.2L130.2,339.3z	"/><path style="fill:#41479B;" d="M132.4,269.2c-9.1,0-43.4,22.4-44,34c17.9,22,40.3,35.1,41.8,36l2.2,1.2l2.2-1.2	c1.6-0.9,23.9-14,41.8-36C175.7,291.6,141.5,269.2,132.4,269.2z"/><path style="fill:#F5F5F5;" d="M194.2,176.6c0,0,0,53,0,70.6c0,53-61.8,88.3-61.8,88.3s-61.8-35.3-61.8-88.3c0-17.7,0-70.6,0-70.6	H194.2 M203,167.7h-8.8H70.6h-8.8v8.8v70.6c0,57.4,63.5,94.4,66.2,95.9l4.4,2.5l4.4-2.5c2.7-1.5,66.2-38.5,66.2-95.9v-70.6	L203,167.7L203,167.7z"/><rect y="200.1" style="fill:#41479B;" width="512" height="111.8"/><polygon style="fill:#F5F5F5;" points="167.1,233.9 139.4,236.7 139.4,224.3 160.2,227 160.2,207.6 139.4,210.4 142.1,185.4 
	122.7,185.4 125.5,210.4 104.7,207.6 104.7,227 125.5,224.3 125.5,236.7 97.7,233.9 97.7,253.3 125.5,250.5 125.5,282.5 
	139.4,282.5 139.4,250.5 167.1,253.3 "/></svg>