<svg xmlns="http://www.w3.org/2000/svg" viewBox="0 0 512 512"><g><path style="fill:#4173CD;" d="M512,256H0V97.1c0-4.9,4-8.8,8.8-8.8h494.3c4.9,0,8.8,4,8.8,8.8L512,256L512,256z"/><path style="fill:#4173CD;" d="M0,256h512v158.9c0,4.9-4,8.8-8.8,8.8H8.8c-4.9,0-8.8-4-8.8-8.8V256z"/></g><g><path style="fill:#FFE15A;" d="M458.2,178.1l36.1-6l-36.1-6l31.1-19.4l-35.7,8.3l21.3-29.8l-29.8,21.3l8.3-35.7l-19.4,31.1l-6-36.1l-6,36.1L402.8,111l8.3,35.7l-29.8-21.3l21.3,29.8l-35.7-8.3l31.1,19.4l-36.1,6l36.1,6L367,197.5l35.7-8.3L381.3,219l29.8-21.3l-8.3,35.7l19.4-31.1l6,36.1l6-36.1l19.4,31.1l-8.3-35.7L475,219l-21.3-29.8l35.7,8.3L458.2,178.1z"/></g><rect y="256" style="fill:#FFE15A;" width="512" height="83.9"/><path style="fill:#73AF00;" d="M8.8,423.7h494.3c4.9,0,8.8-4,8.8-8.8v-75H0v75C0,419.8,4,423.7,8.8,423.7z"/></svg>