<svg xmlns="http://www.w3.org/2000/svg" viewBox="0 0 512 512"><rect y="203" style="fill:#FF4B55;" width="512" height="105.9"/><rect y="145.7" style="fill:#F5F5F5;" width="512" height="57.4"/><rect x="117" y="238.9" style="fill:#3CC8FF;" width="42.7" height="21.4"/><path style="fill:#41479B;" d="M8.8,88.3h494.3c4.9,0,8.8,4,8.8,8.8v48.6H0V97.1C0,92.2,4,88.3,8.8,88.3z"/><path style="fill:#41479B;" d="M503.2,423.7H8.8c-4.9,0-8.8-4-8.8-8.8v-48.6h512v48.6C512,419.8,508,423.7,503.2,423.7z"/><path style="fill:#73AF00;" d="M155.5,253.2L155.5,253.2c0-0.4-0.3-0.7-0.7-0.7s-0.7,0.3-0.7,0.7l0,0c0,2.5-1.4,5.9-3.2,8.3	c-2.5-3.1-3.4-6.7-3.7-8.9c-0.2-1.1-1.3-1.7-2.3-1.2c-0.5,0.2-0.8,0.7-0.9,1.2c-1.1,7-4.4,9.9-6.5,11.2c-3.2-3.1-4.2-8.1-4.6-11	c-0.1-1.1-1.4-1.8-2.4-1.3c-0.4,0.2-0.7,0.6-0.8,1c-4.5,13.6-16.9,15-16.9,15v4.3h49.8v-1.4V269v-1.4V266v-1.4	C156.9,263.1,155.5,253.2,155.5,253.2z"/><path style="fill:#F5F5F5;" d="M166.9,248.9c0-2.4-2.3-3.5-4.3-3.9v-1.1c-2.7-0.3-4.2-1.3-6.8-3c-1-0.7-2.1-1.5-3.5-2.3	c-5-3-8.9-3.5-11.1-3.4v2.4h-5.7v-2.4c-2.2-0.1-6.1,0.3-11.1,3.4c-1.4,0.8-2.5,1.6-3.5,2.3c-2.6,1.8-4.1,2.8-6.8,3v1.1	c-2,0.5-4.3,1.5-4.3,3.9l4.3-1.4v0.6c4-0.3,6.4-1.8,9.2-3.8c1-0.7,2-1.4,3.3-2.2c3.3-2,5.8-2.6,7.4-2.7v2.3h8.5v-2.3	c1.7,0.1,4.2,0.8,7.4,2.7c1.3,0.8,2.4,1.5,3.3,2.2c2.8,1.9,5.1,3.5,9.2,3.8v-0.6L166.9,248.9z"/><path style="fill:#3CC8FF;" d="M151.5,224.6c0.7-0.6,1.1-1.3,1.1-2.1c0-3.9-8.9-5-14.2-5s-14.2,1-14.2,5c0,0.8,0.4,1.5,1.1,2.1	c0.5-0.5-6.9,1.1-10.5,4.5l1.6,2.4c0,0,5.1-3.8,7.8-4s26.8,0,28.5,0s7.7,4,7.8,4l1.6-2.4C159.7,226.7,151.1,224.2,151.5,224.6z"/><path style="fill:#F5F5F5;" d="M140.3,255h-3.1c-0.4,0-0.8,0.4-0.8,0.8v0.1c-0.6,0.8-1,1.7-1,1.7l1,0.4c0.1,0.4,0.4,0.8,0.8,0.8h3.1	c0.4,0,0.8,0,0.8-0.8v-2.1C141,255.4,140.6,255,140.3,255z"/><path style="fill:#F5F5F5;" d="M144.3,269.1h-8.5c-1,0-1.9,1-2.1,2c-1.9,2.3-3.1,5-3.1,5l3.1,1.1c0,1.2,1.1,2.3,2.1,2.3h8.5	c1.1,0,2.1,0,2.1-2.3v-5.8C146.4,270.2,145.4,269.1,144.3,269.1z"/><g><rect y="309" style="fill:#F5F5F5;" width="512" height="57.4"/><ellipse style="fill:#F5F5F5;" cx="138.4" cy="256" rx="41.3" ry="44.1"/></g><g><path style="fill:#F0AA00;" d="M162.6,240.3c-5.7-2.8-5.7-5.7-5.7-5.7s-7.1-2.8-12.8-2.8c0,0,1.4-2.8-1.4-2.8c-2.8,0-4.3,0-4.3,0s-1.4,0-4.3,0s-1.4,2.8-1.4,2.8c-5.7,0-12.8,2.8-12.8,2.8s0,2.8-5.7,5.7c-5.7,2.8-5.7,9.3-5.7,9.3c0,1.2,1,2.1,2.1,2.1c1.2,0,2.1-1,2.1-2.1c0-0.2-0.1-0.5-0.1-0.7h0.1l14.2-10h11.4h11.4l14.2,10h0.1c-0.1,0.2-0.1,0.4-0.1,0.7c0,1.2,1,2.1,2.1,2.1s2.1-1,2.1-2.1C168.3,249.6,168.3,243.2,162.6,240.3z"/><path style="fill:#F0AA00;" d="M166.9,257.4c-1.4,0-5.7,0-5.7-4.3s5.7-4.3,5.7-4.3l-8.5-2.8c-2.8,10,2.8,10,2.8,22.8c0,11.5-12.8,18.5-17.1,18.5s-5.7,2.8-5.7,2.8s-1.4-2.8-5.7-2.8s-17.1-7-17.1-18.5c0-12.8,5.7-12.8,2.8-22.8l-8.5,2.8c0,0,5.7,0,5.7,4.3s-4.3,4.3-5.7,4.3s-7.1,0-7.1,7.1s7.1,15.7,17.1,21.4c10,5.7,5.7,11.4,18.5,11.4s8.5-5.7,18.5-11.4c10-5.7,17.1-14.2,17.1-21.4C174,257.4,168.3,257.4,166.9,257.4z"/></g><circle style="fill:#FFE15A;" cx="122.1" cy="257.1" r="5.1"/><polygon style="fill:#41479B;" points="146.9,290.2 129.9,290.2 114.2,277.4 114.2,258.8 164,258.8 164,277.4 "/><polygon style="fill:#8C5A28;" points="134.7,257.8 137.2,259.5 140.3,259.5 141.7,258.3 140.6,258.7 137,258.7 "/><polygon style="fill:#8C5A28;" points="128.6,276.5 135.8,281.3 144.6,281.3 148.6,277.8 145.5,279.1 135.2,279.1 "/></svg>