<svg xmlns="http://www.w3.org/2000/svg" viewBox="0 0 512 512"><path style="fill:#FF4B55;" d="M503.2,423.7H8.8c-4.9,0-8.8-4-8.8-8.8V97.1c0-4.9,4-8.8,8.8-8.8h494.3c4.9,0,8.8,4,8.8,8.8v317.8	C512,419.8,508,423.7,503.2,423.7z"/><path style="fill:#464655;" d="M352.6,297.8c-4.8-3-7.7,1.8-7.7,1.8l-14.1,1.7l7-5.9c5.1,0.4,5.8-1.1,7.2-3.2s7.2-1.1,7.2-1.1	c-0.8-6.3-8.8-2.8-8.8-2.8c-6.5-0.7-7.6,4.6-7.6,4.6l-10.1,7.7l-22.2-6.6c2.3-2.5,4.1-5,4.4-6.5c0.4-2.5-16.4-6.8-21.5-12.1	c-5.1-5.3-7-13.8-4.6-16c2.4-2.2,4.4,4,7,9.2s7.4,9.2,10.5,6.6s-3.3-6.4-6.3-12c-2.9-5.5,2.2-7.5,4.6-7c2.4,0.6,3.9,12,9.6,17.8	c5.7,5.9,10.9,4.8,11.4,1.1s-9.4-8.2-11.4-11.3c-2-3.1-2.5-9.3,0.8-9.4c3.3-0.2,15.4,17.9,25.7,24.8c11.2,7.5,20.2-1.3,18.8-5	c-1.5-3.7-8.3-2.2-16.2-4.2c-7.9-2-16-12.7-18.4-18.6c-2.4-5.9-0.4-5.9,1-5.3c1.4,0.6,6.6,8.3,16.7,14.2s17.1,0.3,17.9-1.1	s4-7.6-6.3-6.1c-11.8,1.7-18.5-5.3-23.3-9.1c-4.8-3.7-6.8-8.8-4.6-10.9s9.5,7.3,20.5,10.2c10.1,2.7,14.3-1.7,14-5.7	c-0.3-4-2.6-2.3-14.1-3.4s-19.4-11.9-19.9-12.6s-0.3-4.6,5.5-0.8s16.1,5.9,22.2,5.7s7.3-8.4,4.4-9.8s-3.6,0.7-10.2,2.1	s-19-5.4-22.1-8.6s0.3-5.2,1.8-5s11.4,6.1,20.3,5.8s12.6-8.4,12.3-10.9s-2.8-4.6-6.5-2.1s-8.7,5.4-17,4c-8.3-1.4-12.1-6.9-11-9	c1.1-2.1,9.1,1.5,21.8,0.1s13.2-12.6,12-14.8s-4.3-1.5-8.6,2.5s-12.6,4.8-19,4.8c-6.5,0-6.6-3.2-5.7-5.4s7.9-1.7,17.5-4.7	c9.7-3,15.2-10.8,16.7-15.6s-2.2-8.6-3.7-8.6s-0.6-2.2-7.2,7.3c-6.6,9.5-24,13.2-24,13.2c-1.2-2.3-3.2-3.2-3.2-3.2	c-11.7,2.3-25.9,12.5-25.9,12.5s2.5,8-0.6,14.2c-4,8-17.8,3-14-9.7c3.1-10.6,15.2-16.9,25.3-18.1c10.2-1.1,10.7-5,10.7-5	s-10.7,3.5-10.9-1.3c2.2,0.4,5.5,0.6,11,0.2c8.2-0.7,12.8-6.5,9.1-7.8c-3.6-1.2-2.1,2.5-8.3,5.4c-4.4,2.1-9.1,1.1-11.4,0.4	c2.2-4.7,11.2-2.3,11.2-2.3c0.1-8.2-10.8-5.3-10.8-5.3c-4.8-10.3-32.7,1.7-32.7,1.7l6.6,5.3c-16.2,9-19.5,26.1-19.5,26.1	s-3.3-17.1-19.5-26.1l6.6-5.3c0,0-28-12-32.7-1.7c0,0-10.9-2.9-10.8,5.3c0,0,9.1-2.4,11.2,2.3c-2.3,0.7-7,1.6-11.4-0.4	c-6.2-2.9-4.7-6.6-8.3-5.4c-3.6,1.2,0.9,7.1,9.1,7.8c5.5,0.5,8.8,0.3,11-0.2c-0.2,4.8-10.9,1.3-10.9,1.3s0.5,3.8,10.7,5	c10.2,1.1,22.2,7.5,25.3,18.1c3.7,12.7-10,17.7-14,9.7c-3.1-6.2-0.6-14.2-0.6-14.2s-14.1-10.1-25.9-12.5c0,0-1.9,0.8-3.2,3.2	c0,0-17.4-3.7-24-13.2s-5.7-7.3-7.2-7.3s-5.2,3.7-3.7,8.6s7,12.6,16.7,15.6s16.6,2.5,17.5,4.7c1,2.2,0.8,5.4-5.7,5.4	s-14.8-0.8-19-4.8c-4.3-4-7.3-4.7-8.6-2.5c-1.2,2.2-0.7,13.4,12,14.8c12.7,1.4,20.7-2.2,21.8-0.1s-2.8,7.6-11,9	c-8.3,1.4-13.2-1.5-17-4s-6.2-0.4-6.5,2.1s3.4,10.6,12.3,10.9s18.8-5.5,20.3-5.8s4.8,1.8,1.8,5c-3,3.2-15.4,9.9-22.1,8.6	s-7.3-3.4-10.2-2.1s-1.7,9.5,4.4,9.8s16.4-1.9,22.2-5.7s5.9,0.1,5.5,0.8s-8.4,11.4-19.9,12.6c-11.4,1.1-13.8-0.6-14.1,3.4	s3.8,8.4,14,5.7c11-2.9,18.3-12.3,20.5-10.2c2.2,2.1,0.3,7.2-4.6,10.9c-4.8,3.7-11.5,10.7-23.3,9.1c-10.4-1.5-7.2,4.7-6.3,6.1	s7.9,7,17.9,1.1s15.3-13.7,16.7-14.2c1.4-0.6,3.4-0.6,1,5.3c-2.4,5.9-10.5,16.6-18.4,18.6c-7.9,2-14.7,0.6-16.2,4.2	c-1.5,3.7,7.5,12.5,18.8,5c10.3-6.9,22.4-25,25.7-24.8c3.3,0.2,2.8,6.3,0.8,9.4c-2,3.1-12,7.7-11.4,11.3s5.7,4.8,11.4-1.1	c5.7-5.9,7.2-17.3,9.6-17.8c2.4-0.6,7.5,1.5,4.6,7c-2.9,5.5-9.4,9.4-6.3,12c3.1,2.6,7.9-1.5,10.5-6.6c2.6-5.1,4.6-11.4,7-9.2	s0.6,10.7-4.6,16c-5.1,5.3-22,9.6-21.5,12.1c0.3,1.5,2.1,4,4.4,6.5l-22.2,6.6l-10.1-7.7c0,0-1.1-5.2-7.6-4.6c0,0-8-3.6-8.8,2.8	c0,0,5.8-1,7.2,1.1s2.1,3.6,7.2,3.2l7,5.9l-14.1-1.7c0,0-2.9-4.8-7.7-1.8c0,0-6.1-1.9-7.6,3.9c0,0,5.2-1,6.6-0.3	c0,0,2.1,4.7,8.7,1.9l13.9,0.7l-7.9,3.9c0,0-9.9-3.2-9.5,5.1c0,0-2.9,3.3-0.3,6.6c0,0,0.6-3.6,3.2-5.1c0,0,5.1,2.1,8.4-4l10.1-6.1	l9.9,4.8c0,0-0.3,5.4,7,3.2c0,0,2.5,1.7,3.2,3.9c0,0,3.2-3.4-1.9-7.4c0,0-1.2-4.7-7.3-2.9l-5.7-2.9l20.9-6.2	c3.6,3.5,7.5,6.3,8.9,5.8c2.7-0.9,4.8-3.7,6.6-7.7c1.9-3.9,10.3-17.7,14.4-17.5c4.2,0.1,6,3.4,5,9.3c-1,5.9-9.1,17.3-14.4,19.6	c-5.2,2.3-6.1,3.4-10.9,3s-6.5,1.7-5.4,4.4c1.1,2.8,6.5,4.5,11.9,2.5c5.8-2.2,8-5.2,10.2-3.4s-2.3,8.3-8.6,10.2s-10.9,0.7-9.9,4.6	s7.6,4.1,11.9,1.7s9.1-9.4,10.3-7.2c1.2,2.2,0.4,7.9-3.7,10.9c-4.1,3-8.8,1.2-9.8,4c-1.4,4,3.4,6.6,7.2,5.1c3.7-1.5,8-6.2,9.9-10.3	s5.5-0.6,4.4,3.3s-0.2,7-8.1,13.1l14.7,22.6l14.7-22.6c-7.9-6.1-7-9.2-8.1-13.1c-1.1-3.9,2.5-7.4,4.4-3.3s6.2,8.8,9.9,10.3	s8.6-1.1,7.2-5.1c-0.9-2.8-5.7-1-9.8-4s-5-8.7-3.7-10.9c1.2-2.2,6.1,4.7,10.3,7.2c4.3,2.5,10.9,2.2,11.9-1.7s-3.7-2.6-9.9-4.6	s-10.8-8.4-8.6-10.2s4.4,1.2,10.2,3.4c5.3,2,10.8,0.3,11.9-2.5s-0.6-4.8-5.4-4.4c-4.8,0.4-5.7-0.7-10.9-3s-13.3-13.7-14.4-19.6	s0.8-9.2,5-9.3c4.2-0.1,12.6,13.6,14.4,17.5c1.9,3.9,3.9,6.8,6.6,7.7c1.4,0.5,5.3-2.4,8.9-5.8l20.9,6.2l-5.7,2.9	c-6.1-1.8-7.3,2.9-7.3,2.9c-5.1,4-1.9,7.4-1.9,7.4c0.7-2.2,3.2-3.9,3.2-3.9c7.3,2.2,7-3.2,7-3.2l9.9-4.8l10.1,6.1	c3.3,6.1,8.4,4,8.4,4c2.6,1.5,3.2,5.1,3.2,5.1c2.6-3.3-0.3-6.6-0.3-6.6c0.4-8.3-9.5-5.1-9.5-5.1l-7.9-3.9l13.9-0.7	c6.6,2.8,8.7-1.9,8.7-1.9c1.4-0.7,6.6,0.3,6.6,0.3C358.6,295.9,352.6,297.8,352.6,297.8z"/></svg>