<svg xmlns="http://www.w3.org/2000/svg" viewBox="0 0 512 512"><path style="fill:#41479B;" d="M503.2,423.7H8.8c-4.9,0-8.8-4-8.8-8.8V97.1c0-4.9,4-8.8,8.8-8.8h494.3c4.9,0,8.8,4,8.8,8.8v317.8	C512,419.8,508,423.7,503.2,423.7z"/><path style="fill:#F5F5F5;" d="M247.2,88.3h-15.3l-81.8,53.6V88.3H106v53.6L24.2,88.3H8.8c-4.9,0-8.8,4-8.8,8.8v7l70.2,46H0v44.1	h70.2L0,240.2v7c0,4.9,4,8.8,8.8,8.8h15.3l81.8-53.6V256H150v-53.6l81.8,53.6h15.3c4.9,0,8.8-4,8.8-8.8v-7l-70.2-46H256v-44.1h-70.2	l70.2-46v-7C256,92.2,252,88.3,247.2,88.3z"/><path style="fill:#FF4B55;" d="M395.5,225.8c-0.4,0-0.7-0.1-1-0.3L384,218l-10.4,7.5c-0.3,0.2-0.7,0.3-1,0.3c-0.4,0-0.7-0.1-1-0.3	c-0.6-0.4-0.9-1.2-0.6-2l3.9-12.2l-10.3-7.6c-0.6-0.5-0.9-1.2-0.6-2c0.2-0.7,0.9-1.2,1.7-1.2l12.8-0.1l4.1-12.2	c0.2-0.7,0.9-1.2,1.7-1.2s1.4,0.5,1.7,1.2l4.1,12.2l12.8,0.1c0.8,0,1.4,0.5,1.7,1.2c0.2,0.7,0,1.5-0.6,2l-10.3,7.6l3.9,12.2	c0.2,0.7,0,1.5-0.6,2C396.2,225.7,395.8,225.8,395.5,225.8z"/><path style="fill:#FF4B55;" d="M457.3,269.9c-0.4,0-0.7-0.1-1-0.3l-10.4-7.5l-10.4,7.5c-0.3,0.2-0.7,0.3-1,0.3c-0.4,0-0.7-0.1-1-0.3	c-0.6-0.4-0.9-1.2-0.6-2l3.9-12.2l-10.3-7.6c-0.6-0.5-0.9-1.2-0.6-2c0.2-0.7,0.9-1.2,1.7-1.2l12.8-0.1l4.1-12.2	c0.2-0.7,0.9-1.2,1.7-1.2s1.4,0.5,1.7,1.2l4.1,12.2l12.8,0.1c0.8,0,1.4,0.5,1.7,1.2c0.2,0.7,0,1.5-0.6,2l-10.3,7.6l3.9,12.2	c0.2,0.7,0,1.5-0.6,2C458,269.8,457.6,269.9,457.3,269.9z"/><path style="fill:#FF4B55;" d="M333.7,287.6c-0.4,0-0.7-0.1-1-0.3l-10.4-7.5l-10.4,7.5c-0.3,0.2-0.7,0.3-1,0.3c-0.4,0-0.7-0.1-1-0.3	c-0.6-0.4-0.9-1.2-0.6-2l3.9-12.2l-10.3-7.6c-0.6-0.5-0.9-1.2-0.6-2c0.2-0.7,0.9-1.2,1.7-1.2l12.8-0.1l4.1-12.2	c0.2-0.7,0.9-1.2,1.7-1.2s1.4,0.5,1.7,1.2l4.1,12.2l12.8,0.1c0.8,0,1.4,0.5,1.7,1.2c0.2,0.7,0,1.5-0.6,2l-10.3,7.6l3.9,12.2	c0.2,0.7,0,1.5-0.6,2C334.4,287.5,334,287.6,333.7,287.6z"/><g><polygon style="fill:#FF4B55;" points="256,158.9 141.2,158.9 141.2,88.3 114.8,88.3 114.8,158.9 0,158.9 0,185.4 114.8,185.4 
		114.8,256 141.2,256 141.2,185.4 256,185.4 	"/><path style="fill:#FF4B55;" d="M97.1,150.1L4.2,89.8C1.7,91.3,0,94,0,97.1v0.5l80.9,52.5H97.1L97.1,150.1z"/><path style="fill:#FF4B55;" d="M166.3,150.1l88.4-57.4c-1.5-2.6-4.2-4.4-7.5-4.4h-1.9l-95.2,61.8H166.3z"/><path style="fill:#FF4B55;" d="M89.5,194.2L1.3,251.5c1.5,2.7,4.3,4.5,7.6,4.5h1.7l95.2-61.8H89.5L89.5,194.2z"/><path style="fill:#FF4B55;" d="M255.9,247.9l-82.7-53.7H157l93.9,60.9C253.7,253.8,255.6,251.1,255.9,247.9z"/><path style="fill:#FF4B55;" d="M395.5,368.1c-0.4,0-0.7-0.1-1-0.3l-10.4-7.5l-10.4,7.5c-0.3,0.2-0.7,0.3-1,0.3c-0.4,0-0.7-0.1-1-0.3c-0.6-0.4-0.9-1.2-0.6-2l3.9-12.2l-10.3-7.6c-0.6-0.5-0.9-1.2-0.6-2c0.2-0.7,0.9-1.2,1.7-1.2l12.8-0.1l4.1-12.2c0.2-0.7,0.9-1.2,1.7-1.2s1.4,0.5,1.7,1.2l4.1,12.2l12.8,0.1c0.8,0,1.4,0.5,1.7,1.2c0.2,0.7,0,1.5-0.6,2l-10.3,7.6l3.9,12.2c0.2,0.7,0,1.5-0.6,2C396.2,368,395.8,368.1,395.5,368.1z"/></g></svg>