<svg xmlns="http://www.w3.org/2000/svg" viewBox="0 0 512 512"><path style="fill:#F5F5F5;" d="M503.2,423.7H8.8c-4.9,0-8.8-4-8.8-8.8V97.1c0-4.9,4-8.8,8.8-8.8h494.3c4.9,0,8.8,4,8.8,8.8v317.8	C512,419.8,508,423.7,503.2,423.7z"/><path style="fill:#FF4B55;" d="M256,256h247.2c4.9,0,8.8-4,8.8-8.8V97.1c0-4.9-4-8.8-8.8-8.8H264.8c-4.9,0-8.8,4-8.8,8.8V256z"/><path style="fill:#FF4B55;" d="M387.4,302.2l8.4,25.2l26.6,0.2c3.4,0,4.9,4.4,2.1,6.5l-21.4,15.8l8,25.4c1,3.3-2.7,6-5.5,4	L384,363.8l-21.6,15.5c-2.8,2-6.5-0.7-5.5-4l8-25.4l-21.4-15.8c-2.8-2-1.3-6.4,2.1-6.5l26.6-0.2l8.4-25.2	C381.7,298.9,386.3,298.9,387.4,302.2z"/><g><path style="fill:#4173CD;" d="M8.8,423.7h238.3c4.9,0,8.8-4,8.8-8.8V256H8.8C4,256,0,260,0,264.8v150.1C0,419.8,4,423.7,8.8,423.7z"/><path style="fill:#4173CD;" d="M131.4,134.5l8.4,25.2l26.6,0.2c3.4,0,4.9,4.4,2.1,6.5l-21.4,15.8l8,25.4c1,3.3-2.7,6-5.5,4L128,196.1l-21.6,15.5c-2.8,2-6.5-0.7-5.5-4l8-25.4l-21.4-15.8c-2.8-2-1.3-6.4,2.1-6.5l26.6-0.2l8.4-25.2C125.7,131.2,130.3,131.2,131.4,134.5z"/></g></svg>