<svg xmlns="http://www.w3.org/2000/svg" viewBox="0 0 512 512"><path style="fill:#73AF00;" d="M503.2,423.7H8.8c-4.9,0-8.8-4-8.8-8.8v-79.4h512v79.4C512,419.8,508,423.7,503.2,423.7z"/><path style="fill:#FF4B55;" d="M503.2,88.3H8.8c-4.9,0-8.8,4-8.8,8.8v238.3h512V97.1C512,92.2,508,88.3,503.2,88.3z"/><path style="fill:#F5F5F5;" d="M70.6,423.7H8.8c-4.9,0-8.8-4-8.8-8.8V97.1c0-4.9,4-8.8,8.8-8.8h61.8V423.7z"/><g><path style="fill:#FF4B55;" d="M21.3,337.4h3.1l9.3-29.4h3.1l9.4,29.4h3.1l9.3-22.2l3.1-7.2l-9.3-29.4l0-4.3l9.3,8.8v-13.2l-6.2-11h-3.1v-5.8h3.1l6.2-11v-13.2l-9.3,8.8l9.3-33.7l-12.4-29.4l-3.1,0.1l-9.3,29.4h-3.1l-9.3-29.4h-3.1L8.8,204.1l9.4,33.5l-9.4-8.8V242l6.3,11h3.1v5.9h-3.1l-6.3,11v13.2l9.4-8.8v4.3L8.8,308L21.3,337.4z M27.5,264.1l-3.1-5.2h-3.1v-2.8v-0.2V253h3.1l7.8-10.9l1.5-10.3h1.6h1.6l1.6,10.3l4.7,2.9v3l3.1,5.1h3.1v2.9v2.9h-3.1l-3.1,5.2l-4.7,5.8l-1.6,10.2h-1.6h-1.6l-1.5-10.2L27.5,264.1z"/><path style="fill:#FF4B55;" d="M47.4,349l-10.5,29.4h-3.1L22.3,349L8.8,382.1l14,33l10.9-29.5h3.1l11,29.4l13.9-32.9L47.4,349zM21.6,400.5l-7.5-18.4l7.5-18.4l8,18.9L21.6,400.5z M48.5,400.5L41,382.3l7.5-18.6l8,18.2L48.5,400.5z"/><path style="fill:#FF4B55;" d="M47.4,98.3l-10.5,29.4h-3.1L22.3,98.3L8.8,131.4l14,33l10.9-29.5h3.1l11,29.4l13.9-32.9L47.4,98.3zM21.6,149.8l-7.5-18.4l7.5-18.4l8,18.9L21.6,149.8z M48.5,149.8L41,131.6l7.5-18.6l8,18.2L48.5,149.8z"/><rect x="8.8" y="103" style="fill:#FF4B55;" width="3.2" height="8.8"/><rect x="33.8" y="103" style="fill:#FF4B55;" width="3.1" height="8.8"/><rect x="58.7" y="400.3" style="fill:#FF4B55;" width="3.1" height="8.8"/><rect x="58.7" y="103" style="fill:#FF4B55;" width="3.1" height="8.8"/><rect x="8.8" y="400.3" style="fill:#FF4B55;" width="3.2" height="8.8"/><rect x="33.8" y="400.3" style="fill:#FF4B55;" width="3.1" height="8.8"/><g><path style="fill:#FF4B55;" d="M12,157.3c0-0.1-3.2,8.6-3.2,8.6v5.8l3.2,8.8h4.7l3.1-8.8V166l-3.1-8.7H12z"/><path style="fill:#FF4B55;" d="M37.4,157.3c0-0.1-0.8,2.2-1.6,4.4l-1.6-4.4h-4.7c0-0.1-3.2,8.6-3.2,8.6v5.8l3.2,8.8h4.7l1.6-4.4l1.6,4.4h4.7l3.1-8.8V166l-3.1-8.7H37.4z"/><path style="fill:#FF4B55;" d="M58.8,157.3h-4.7c0-0.1-3.2,8.6-3.2,8.6v5.8l3.2,8.8h4.7l3.1-8.8V166L58.8,157.3z"/></g><g><path style="fill:#FF4B55;" d="M12,331c0-0.1-3.2,8.6-3.2,8.6v5.8l3.2,8.8h4.7l3.1-8.8v-5.7l-3.1-8.7H12z"/><path style="fill:#FF4B55;" d="M37.4,331c0-0.1-0.8,2.2-1.6,4.4l-1.6-4.4h-4.7c0-0.1-3.2,8.6-3.2,8.6v5.8l3.2,8.8h4.7l1.6-4.4l1.6,4.4h4.7l3.1-8.8v-5.7l-3.1-8.7H37.4z"/><path style="fill:#FF4B55;" d="M58.8,331h-4.7c0-0.1-3.2,8.6-3.2,8.6v5.8l3.2,8.8h4.7l3.1-8.8v-5.7L58.8,331z"/></g></g></svg>