<svg xmlns="http://www.w3.org/2000/svg" viewBox="0 0 512 512"><path style="fill:#FF4B55;" d="M503.2,423.7H8.8c-4.9,0-8.8-4-8.8-8.8V97.1c0-4.9,4-8.8,8.8-8.8h494.3c4.9,0,8.8,4,8.8,8.8v317.8	C512,419.8,508,423.7,503.2,423.7z"/><path style="fill:#73AF00;" d="M185.4,88.3H8.8c-4.9,0-8.8,4-8.8,8.8v317.8c0,4.9,4,8.8,8.8,8.8h176.6L185.4,88.3L185.4,88.3z"/><path style="fill:#FF4B55;" d="M211.9,229.5v35.3c0,14.6-11.9,26.5-26.5,26.5S159,279.4,159,264.8v-35.3H211.9 M220.8,211.9h-70.6	c-4.9,0-8.8,4-8.8,8.8v44.1c0,24.4,19.8,44.1,44.1,44.1s44.1-19.8,44.1-44.1v-44.1C229.6,215.8,225.6,211.9,220.8,211.9L220.8,211.9	z"/><path style="fill:#F5F5F5;" d="M211.9,229.5v35.3c0,14.6-11.9,26.5-26.5,26.5S159,279.4,159,264.8v-35.3H211.9"/><circle style="fill:#FFE15A;" cx="185.4" cy="256" r="79.4"/><g><circle style="fill:#FFE15A;" cx="150.1" cy="220.7" r="4.4"/><circle style="fill:#FFE15A;" cx="220.7" cy="220.7" r="4.4"/><circle style="fill:#FFE15A;" cx="150.1" cy="256" r="4.4"/><circle style="fill:#FFE15A;" cx="220.7" cy="256" r="4.4"/><circle style="fill:#FFE15A;" cx="185.4" cy="220.7" r="4.4"/><circle style="fill:#FFE15A;" cx="211.9" cy="288.6" r="4.4"/><circle style="fill:#FFE15A;" cx="159.4" cy="288.6" r="4.4"/></g><g><path style="fill:#41479B;" d="M191.1,253.8v7.6c0,3.1-2.6,5.7-5.7,5.7s-5.7-2.6-5.7-5.7v-7.6L191.1,253.8"/><path style="fill:#41479B;" d="M191.1,235.7v7.6c0,3.1-2.6,5.7-5.7,5.7s-5.7-2.6-5.7-5.7v-7.6H191.1"/><path style="fill:#41479B;" d="M191.1,272v7.6c0,3.1-2.6,5.7-5.7,5.7s-5.7-2.6-5.7-5.7V272H191.1"/><path style="fill:#41479B;" d="M206.5,253.8v7.6c0,3.1-2.6,5.7-5.7,5.7s-5.7-2.6-5.7-5.7v-7.6L206.5,253.8"/><path style="fill:#41479B;" d="M175.8,253.8v7.6c0,3.1-2.6,5.7-5.7,5.7s-5.7-2.6-5.7-5.7v-7.6L175.8,253.8"/></g></svg>