<svg xmlns="http://www.w3.org/2000/svg" viewBox="0 0 512 512"><path style="fill:#41479B;" d="M512,256H0V97.1c0-4.9,4-8.8,8.8-8.8h494.3c4.9,0,8.8,4,8.8,8.8L512,256L512,256z"/><path style="fill:#FF4B55;" d="M0,256h512v158.9c0,4.9-4,8.8-8.8,8.8H8.8c-4.9,0-8.8-4-8.8-8.8V256z"/><g><path style="fill:#FFE15A;" d="M115.2,154.7c0-0.1-0.1-0.1-0.1-0.1s0,0-0.1,0.1C115.1,154.7,115.1,154.7,115.2,154.7z"/><path style="fill:#FFE15A;" d="M153,189.1c0-1,0-2,0-3c0.1,0,0.3,0,0.4,0c3.6-7.3,3.3-16.7-0.9-23.5c-2.4-3.9-7.1-8.5-15.8-8.5c-8.6,0-34.1,6.2-34.9,6.4h-2.4c-0.9-0.2-26.5-6.2-34.9-6.2c-8.7,0-13.4,4.6-15.8,8.5c-4,6.3-4.5,15.2-1.5,22.3c0.2,0.4,0.7,2.8,0.8,3.6c-3.3-0.1-6.3,0.6-8,1.1c2.4,4.1,9.4,17.2,12.3,30.8c5.7-2.8,25.1-4.9,48.2-4.9s42.5,2.1,48.2,4.9c2.9-13.6,9.9-26.7,12.3-30.4C159.4,189.7,156.3,188.9,153,189.1z"/><circle style="fill:#FFE15A;" cx="100.6" cy="151.8" r="5.3"/><polygon style="fill:#FFE15A;" points="108.1,132.2 102.5,132.2 102.5,125.5 98.5,125.5 98.5,132.2 92.4,132.2 92.4,136.2 
		98.5,136.2 98.5,143.5 102.5,143.5 102.5,136.2 108.1,136.2 	"/></g><polygon style="fill:#41479B;" points="48.9,202.4 58,212.9 55,195.5 "/><polygon style="fill:#41479B;" points="67.7,198 76.8,208.5 73.8,191.1 "/><polygon style="fill:#41479B;" points="152,202.4 143,212.9 146,195.5 "/><polygon style="fill:#41479B;" points="133.3,198 124.2,208.5 127.2,191.1 "/><polygon style="fill:#41479B;" points="94.1,192.9 100.5,209.4 107.1,193.8 "/></svg>