<svg xmlns="http://www.w3.org/2000/svg" viewBox="0 0 512 512"><path style="fill:#73AF00;" d="M0,311.9h512v103c0,4.9-4,8.8-8.8,8.8H8.8c-4.9,0-8.8-4-8.8-8.8V311.9z"/><path style="fill:#FF4B55;" d="M8.8,88.3h494.3c4.9,0,8.8,4,8.8,8.8v103H0v-103C0,92.2,4,88.3,8.8,88.3z"/><rect y="200.1" style="fill:#F5F5F5;" width="512" height="111.8"/><g><path style="fill:#FFCD5A;" d="M258.1,271.8v-17.9c0.9-2,2.9-3.4,5.2-3.4c0.8,0,1.6,0.2,2.3,0.5l2.6,1.2l-0.4-2.8c-0.8-5.9-5.9-10.3-11.8-10.3c-5.9,0-11,4.4-11.8,10.3l-0.4,2.8l2.6-1.2c0.8-0.3,1.5-0.5,2.3-0.5c2.3,0,4.3,1.4,5.2,3.4V272c0,1.1-1.8,4.3-5.1,6.4c1.6,0.8,3.2,1.2,4.9,1.3c0.9-0.8,1.6-1.7,2.3-2.7c0.6,0.8,1.2,1.6,2,2.3c1.6-0.3,3.1-0.9,4.6-1.7C259.7,275.7,258.1,272.8,258.1,271.8z"/><path style="fill:#FFCD5A;" d="M220.1,300.7l1.3,3.9c8.8-2.9,21.4-4.6,34.6-4.6c13.2,0,25.8,1.7,34.6,4.6l1.3-3.9c-9.2-3.1-22.3-4.8-35.9-4.8C242.4,295.9,229.3,297.6,220.1,300.7z"/><path style="fill:#FFCD5A;" d="M219.2,281.2l1.3,3.9c8.8-2.9,21.4-4.6,34.6-4.6c13.2,0,25.8,1.7,34.6,4.6l1.3-3.9c-9.2-3.1-22.3-4.8-35.9-4.8C241.5,276.4,228.4,278.1,219.2,281.2z"/><circle style="fill:#FFCD5A;" cx="235.9" cy="290" r="4.1"/><circle style="fill:#FFCD5A;" cx="256.2" cy="288.2" r="4.1"/><circle style="fill:#FFCD5A;" cx="276" cy="290.2" r="4.1"/></g><circle style="fill:#FFCD5A;" cx="212" cy="241.3" r="5.9"/><circle style="fill:#FFCD5A;" cx="230.7" cy="222.6" r="5.9"/><circle style="fill:#FFCD5A;" cx="256" cy="215.6" r="5.9"/><circle style="fill:#FFCD5A;" cx="281.1" cy="222.6" r="5.9"/><circle style="fill:#FFCD5A;" cx="299.6" cy="241.2" r="5.9"/><circle style="fill:#FFCD5A;" cx="306.5" cy="266.5" r="5.9"/><circle style="fill:#FFCD5A;" cx="205.9" cy="267.1" r="5.9"/></svg>