<svg xmlns="http://www.w3.org/2000/svg" viewBox="0 0 512 512"><path style="fill:#4173CD;" d="M503.2,423.7H8.8c-4.9,0-8.8-4-8.8-8.8V97.1c0-4.9,4-8.8,8.8-8.8h494.3c4.9,0,8.8,4,8.8,8.8v317.8	C512,419.8,508,423.7,503.2,423.7z"/><path style="fill:#F5F5F5;" d="M76.4,126.6l9.7,28.4l28.4,9.7l-28.4,9.7l-9.7,28.4l-9.7-28.4l-28.4-9.7l28.4-9.7L76.4,126.6M76.4,114.8l-3.6,10.6L63.7,152l-26.7,9.1l-10.6,3.6l10.6,3.6l26.7,9.1l9.1,26.7l3.6,10.6l3.6-10.6l9.1-26.7l26.7-9.1l10.6-3.6	l-10.6-3.6L89.2,152l-9.1-26.7L76.4,114.8L76.4,114.8z"/><g><rect y="317.8" style="fill:#FFE15A;" width="512" height="17.7"/><rect y="353.1" style="fill:#FFE15A;" width="512" height="17.7"/></g><polygon style="fill:#FF4B55;" points="65.2,175.9 32.4,164.7 65.2,153.5 76.4,120.7 87.7,153.5 120.5,164.7 87.7,175.9 76.4,208.8 
	"/></svg>