<svg xmlns="http://www.w3.org/2000/svg" viewBox="0 0 512 512"><path style="fill:#FF4B55;" d="M512,200.1H0v-103c0-4.9,4-8.8,8.8-8.8h494.3c4.9,0,8.8,4,8.8,8.8L512,200.1L512,200.1z"/><path style="fill:#73AF00;" d="M503.2,423.7H8.8c-4.9,0-8.8-4-8.8-8.8v-103h512v103C512,419.8,508,423.7,503.2,423.7z"/><path style="fill:#464655;" d="M259.7,213.9l9.2,27.6l29.1,0.2c3.8,0,5.3,4.8,2.3,7.1l-23.4,17.3l8.8,27.8c1.1,3.6-3,6.6-6,4.4	L256,281.3l-23.7,16.9c-3.1,2.2-7.2-0.8-6-4.4l8.8-27.8l-23.4-17.3c-3-2.2-1.5-7.1,2.3-7.1l29.1-0.2l9.2-27.6	C253.5,210.3,258.5,210.3,259.7,213.9z"/><rect y="200.1" style="fill:#FFE15A;" width="512" height="111.8"/></svg>