<svg xmlns="http://www.w3.org/2000/svg" viewBox="0 0 512 512"><path style="fill:#FFE15A;" d="M503.2,423.7H8.8c-4.9,0-8.8-4-8.8-8.8v-75h512v75C512,419.8,508,423.7,503.2,423.7z"/><path style="fill:#41479B;" d="M512,172.1H0v-75c0-4.9,4-8.8,8.8-8.8h494.3c4.9,0,8.8,4,8.8,8.8L512,172.1L512,172.1z"/><path style="fill:#FFE15A;" d="M76.5,99.6l7.4,22.1l23.3,0.2c1.8,0,2.6,2.3,1.1,3.4l-18.7,13.8l7,22.2c0.5,1.7-1.4,3.1-2.9,2.1	l-18.9-13.5l-18.9,13.5c-1.5,1-3.4-0.4-2.9-2.1l7-22.2l-18.7-13.8c-1.5-1.1-0.7-3.4,1.1-3.4l23.3-0.2l7.4-22.1	C73.5,97.9,75.9,97.9,76.5,99.6z"/><rect y="256" style="fill:#73AF00;" width="512" height="83.9"/><rect y="172.1" style="fill:#F5F5F5;" width="512" height="83.9"/><rect x="214.1" y="88.3" style="fill:#FF4B55;" width="83.9" height="335.5"/></svg>