<svg xmlns="http://www.w3.org/2000/svg" viewBox="0 0 512 512"><path style="fill:#F5F5F5;" d="M0,311.9h512v103c0,4.9-4,8.8-8.8,8.8H8.8c-4.9,0-8.8-4-8.8-8.8V311.9z"/><path style="fill:#FF4B55;" d="M8.8,88.3h494.3c4.9,0,8.8,4,8.8,8.8v103H0v-103C0,92.2,4,88.3,8.8,88.3z"/><path style="fill:#FF4B55;" d="M90.9,200.1c-1.5,0-2.6,1.2-2.6,2.6v92.5c0,29.4,23.7,53.2,53,53.2s53-23.8,53-53.2v-92.5	c0-1.5-1.2-2.6-2.6-2.6L90.9,200.1L90.9,200.1z"/><path style="fill:#F5F5F5;" d="M179.2,209.1c-0.6-0.7-1.4-1.1-2.3-1.1c-2,0-3.4,1.8-2.9,3.7l0.7,2.7c0.6,2.4-0.5,4.9-2.8,6l-12.1,6	l0,0l-5.3-5.3l1.3-2.6h6.6l-5.3-2.6l9.3-2.6l4-5.3H161c0.2-1.2-0.8-2.3-2-2.1l-12.5,2.1l-5.3,10.6l-5.3-10.6l-12.5-2.1	c-1.3-0.2-2.3,0.9-2,2.1h-9.3l4,5.3l9.3,2.6l0,0l-5.3,2.6h6.6l1.3,2.6l-5.3,5.3l0,0l-12.1-6c-2.2-1.1-3.4-3.6-2.8-6l0.7-2.7	c0.5-1.9-1-3.7-2.9-3.7c-0.9,0-1.8,0.4-2.3,1.1c-6.3,7.8-9.7,17.6-9.7,27.6v56c0,0,11.1-2.2,21-16.7c1.8-2.7,4.9-4.2,8.1-4.4	l-5.3,15.9l10.6,2.6l6.1-7.3l1.8,4.6l-13.2,45c0,0,7.9,5.3,18.5,5.3c10.6,0,18.5-5.3,18.5-5.3l-13.2-45l1.8-4.6l6.1,7.3l10.6-2.6	l-5.3-15.9c3.2,0.2,6.2,1.7,8.1,4.4c10,14.5,21,16.7,21,16.7v-56C188.9,226.7,185.5,217,179.2,209.1z"/><path style="fill:#FF4B55;" d="M159.8,223.9h-37.1h-2.6v2.6V261c0,11.7,9.5,21.2,21.2,21.2s21.2-9.5,21.2-21.2v-34.4v-2.6H159.8z"/><rect y="200.1" style="fill:#41479B;" width="512" height="111.8"/><g><polygon style="fill:#FFD350;" points="139.9,157.7 142.6,157.7 142.6,152.4 145.2,152.4 145.2,149.8 142.6,149.8 142.6,147.1 
		139.9,147.1 139.9,149.8 137.3,149.8 137.3,152.4 139.9,152.4 	"/><path style="fill:#FFD350;" d="M180.8,165.6c-1.1-2-3-3.4-5.2-3.8c-7-1.5-20.7-4-33.1-4H140c-12.4,0-26.1,2.5-33.1,4c-2.2,0.5-4.1,1.9-5.1,3.8c-1.1,2-1.3,4.5-0.5,6.7l5.6,15.5c0.2,0.5,0.5,0.9,0.8,1.1l1.9,11.2H173l1.9-11.2c0.4-0.3,0.7-0.7,0.8-1.2l5.6-15.5C182.1,170,181.9,167.6,180.8,165.6z M122.3,170.8c-0.4-2,0.2-3.8,0.5-4c3.4-1.3,9.8-3.3,15.8-3.7v21.1h-13.5L122.3,170.8z M160.2,170.8l-2.8,13.4h-13.5v-21.1c6,0.4,12.4,2.4,15.7,3.7C159.9,167,160.6,168.8,160.2,170.8z M106.1,170.4c-0.3-0.8-0.2-1.6,0.2-2.3c0.2-0.4,0.7-1,1.6-1.2c2.5-0.5,6-1.2,9.9-1.8c-0.9,2-1.1,4.6-0.7,6.8l2.6,12.3h-8.6L106.1,170.4z M176.3,170.4l-5,13.7h-8.6l2.6-12.3c0.5-2.2,0.2-4.8-0.7-6.8c3.9,0.6,7.3,1.3,9.9,1.8c0.9,0.2,1.4,0.9,1.6,1.2C176.6,168.8,176.6,169.7,176.3,170.4z"/></g><g><path style="fill:#F5F5F5;" d="M137.3,279.1c1.3,0.3,2.6,0.4,4,0.4s2.7-0.2,4-0.4v-52.5h-7.9C137.3,226.6,137.3,279.1,137.3,279.1z"/><rect x="122.7" y="248.4" style="fill:#F5F5F5;" width="37.1" height="7.9"/></g><polygon style="fill:#FFE15A;" points="122.1,298.1 117.4,299.3 127.7,280.8 123,278.2 110.6,300.7 98.9,300.7 100.5,316 
	109.3,320.1 114.2,305.6 123.3,303.3 "/><polygon style="fill:#FFE15A;" points="160.4,298.1 165.1,299.3 154.8,280.8 159.4,278.2 171.9,300.7 183.6,300.7 182,316 
	173.2,320.1 168.3,305.6 159.1,303.3 "/></svg>