<svg xmlns="http://www.w3.org/2000/svg" viewBox="0 0 512 512"><path style="fill:#FF4B55;" d="M503.2,423.7H8.8c-4.9,0-8.8-4-8.8-8.8V97.1c0-4.9,4-8.8,8.8-8.8h494.3c4.9,0,8.8,4,8.8,8.8v317.8	C512,419.8,508,423.7,503.2,423.7z"/><path style="fill:#F5F5F5;" d="M353.1,220.7h-61.8v-61.8c0-4.9-4-8.8-8.8-8.8h-53c-4.9,0-8.8,4-8.8,8.8v61.8h-61.8	c-4.9,0-8.8,4-8.8,8.8v53c0,4.9,4,8.8,8.8,8.8h61.8v61.8c0,4.9,4,8.8,8.8,8.8h53c4.9,0,8.8-4,8.8-8.8v-61.8h61.8	c4.9,0,8.8-4,8.8-8.8v-53C361.9,224.6,358,220.7,353.1,220.7z"/></svg>