<svg xmlns="http://www.w3.org/2000/svg" viewBox="0 0 512 512"><path style="fill:#5AA587;" d="M503.2,423.7H8.8c-4.9,0-8.8-4-8.8-8.8V97.1c0-4.9,4-8.8,8.8-8.8h494.3c4.9,0,8.8,4,8.8,8.8v317.8	C512,419.8,508,423.7,503.2,423.7z"/><g><path style="fill:#F5F5F5;" d="M350,269.2c-14.9-9.8-20.1-12.5-20.1-12.5l7.2-6.2c0,0-30.9-10.7-58.5,12.2c17.1-33.1-1.4-61.5-1.4-61.5l-4.3,8.5c0,0-4-4.4-17.1-16.4c-13.1,12.1-17.1,16.4-17.1,16.4l-4.3-8.5c0,0-18.5,28.4-1.4,61.5c-27.6-22.9-58.5-12.2-58.5-12.2l7.2,6.2c0,0-5.3,2.7-20.2,12.5c8.6,15.6,11.9,20.5,11.9,20.5l-9.3,2.1c0,0,37.3,40,91.4,0.8c54.1,39.2,91.4-0.8,91.4-0.8l-9.3-2.1C338.1,289.7,341.4,284.7,350,269.2z"/><path style="fill:#F5F5F5;" d="M202.2,347.6c3.8,2.4,7.9,4.5,12,6.4h83.5c4.2-1.9,8.2-4,12-6.4H202.2z"/><path style="fill:#F5F5F5;" d="M221.7,357c10.7,3.8,22.3,5.9,34.3,5.9s23.6-2.1,34.3-5.9H221.7z"/><path style="fill:#F5F5F5;" d="M179.5,328.5c1.3,1.5,2.6,2.9,4,4.3h145c1.4-1.4,2.7-2.8,4-4.3H179.5z"/><path style="fill:#F5F5F5;" d="M188.9,337.8c2.1,1.9,4.3,3.6,6.6,5.3h121c2.3-1.7,4.5-3.5,6.6-5.3H188.9z"/><path style="fill:#F5F5F5;" d="M298.6,317.2c-23.8,0-40.2-15.9-40.3-16.1l-2.3-2.2l-2.3,2.2c-0.2,0.2-16.4,16.1-40.3,16.1h-42.6c1.5,2.2,3,4.3,4.6,6.4h38c21.4,0,37-11.2,42.6-15.9c5.6,4.7,21.2,15.9,42.6,15.9h38c1.6-2.1,3.2-4.2,4.6-6.4H298.6z"/></g><circle style="fill:#FFE15A;" cx="177.1" cy="216.2" r="9.4"/><circle style="fill:#FFE15A;" cx="206.9" cy="182.6" r="9.4"/><circle style="fill:#FFE15A;" cx="307.6" cy="183.1" r="9.4"/><circle style="fill:#FFE15A;" cx="336.4" cy="217.4" r="9.4"/><circle style="fill:#FFE15A;" cx="255.5" cy="168" r="14.4"/></svg>