<svg xmlns="http://www.w3.org/2000/svg" viewBox="0 0 512 512"><path style="fill:#F5F5F5;" d="M503.2,423.7H8.8c-4.9,0-8.8-4-8.8-8.8V97.1c0-4.9,4-8.8,8.8-8.8h494.3c4.9,0,8.8,4,8.8,8.8v317.8	C512,419.8,508,423.7,503.2,423.7z"/><path style="fill:#41479B;" d="M229.5,88.3H8.8c-4.9,0-8.8,4-8.8,8.8v163c0,4.9,4,8.8,8.8,8.8h220.7c4.9,0,8.8-4,8.8-8.8v-163	C238.3,92.2,234.4,88.3,229.5,88.3z"/><g><path style="fill:#FF4B55;" d="M512,114.1H0v-17c0-4.9,4-8.8,8.8-8.8h494.3c4.9,0,8.8,4,8.8,8.8L512,114.1L512,114.1z"/><path style="fill:#FF4B55;" d="M512,268.9H8.8c-4.9,0-8.8-4-8.8-8.8v-17h512V268.9z"/><path style="fill:#FF4B55;" d="M503.2,423.7H8.8c-4.9,0-8.8-4-8.8-8.8v-17h512v17C512,419.8,508,423.7,503.2,423.7z"/><rect y="191.5" style="fill:#FF4B55;" width="512" height="25.8"/><rect y="139.9" style="fill:#FF4B55;" width="512" height="25.8"/><rect y="346.3" style="fill:#FF4B55;" width="512" height="25.8"/><rect y="294.7" style="fill:#FF4B55;" width="512" height="25.8"/></g><circle style="fill:#F5F5F5;" cx="23.7" cy="119.1" r="7.9"/><circle style="fill:#F5F5F5;" cx="23.7" cy="149.8" r="7.9"/><circle style="fill:#F5F5F5;" cx="23.7" cy="180.4" r="7.9"/><circle style="fill:#F5F5F5;" cx="23.7" cy="211.1" r="7.9"/><circle style="fill:#F5F5F5;" cx="48.6" cy="134.3" r="7.9"/><circle style="fill:#F5F5F5;" cx="48.6" cy="164.9" r="7.9"/><circle style="fill:#F5F5F5;" cx="48.6" cy="195.6" r="7.9"/><circle style="fill:#F5F5F5;" cx="48.6" cy="226.3" r="7.9"/><circle style="fill:#F5F5F5;" cx="96.7" cy="134.3" r="7.9"/><circle style="fill:#F5F5F5;" cx="96.7" cy="164.9" r="7.9"/><circle style="fill:#F5F5F5;" cx="96.7" cy="195.6" r="7.9"/><circle style="fill:#F5F5F5;" cx="96.7" cy="226.3" r="7.9"/><circle style="fill:#F5F5F5;" cx="144.7" cy="134.3" r="7.9"/><circle style="fill:#F5F5F5;" cx="144.7" cy="164.9" r="7.9"/><circle style="fill:#F5F5F5;" cx="144.7" cy="195.6" r="7.9"/><circle style="fill:#F5F5F5;" cx="144.7" cy="226.3" r="7.9"/><circle style="fill:#F5F5F5;" cx="192.8" cy="134.3" r="7.9"/><circle style="fill:#F5F5F5;" cx="192.8" cy="164.9" r="7.9"/><circle style="fill:#F5F5F5;" cx="192.8" cy="195.6" r="7.9"/><circle style="fill:#F5F5F5;" cx="192.8" cy="226.3" r="7.9"/><circle style="fill:#F5F5F5;" cx="23.7" cy="241.8" r="7.9"/><circle style="fill:#F5F5F5;" cx="72" cy="119.1" r="7.9"/><circle style="fill:#F5F5F5;" cx="72" cy="149.8" r="7.9"/><circle style="fill:#F5F5F5;" cx="72" cy="180.4" r="7.9"/><circle style="fill:#F5F5F5;" cx="72" cy="211.1" r="7.9"/><circle style="fill:#F5F5F5;" cx="72" cy="241.8" r="7.9"/><circle style="fill:#F5F5F5;" cx="120.4" cy="119.1" r="7.9"/><circle style="fill:#F5F5F5;" cx="120.4" cy="149.8" r="7.9"/><circle style="fill:#F5F5F5;" cx="120.4" cy="180.4" r="7.9"/><circle style="fill:#F5F5F5;" cx="120.4" cy="211.1" r="7.9"/><circle style="fill:#F5F5F5;" cx="120.4" cy="241.8" r="7.9"/><circle style="fill:#F5F5F5;" cx="168.7" cy="119.1" r="7.9"/><circle style="fill:#F5F5F5;" cx="168.7" cy="149.8" r="7.9"/><circle style="fill:#F5F5F5;" cx="168.7" cy="180.4" r="7.9"/><circle style="fill:#F5F5F5;" cx="168.7" cy="211.1" r="7.9"/><circle style="fill:#F5F5F5;" cx="168.7" cy="241.8" r="7.9"/><circle style="fill:#F5F5F5;" cx="217.1" cy="119.1" r="7.9"/><circle style="fill:#F5F5F5;" cx="217.1" cy="149.8" r="7.9"/><circle style="fill:#F5F5F5;" cx="217.1" cy="180.4" r="7.9"/><circle style="fill:#F5F5F5;" cx="217.1" cy="211.1" r="7.9"/><circle style="fill:#F5F5F5;" cx="217.1" cy="241.8" r="7.9"/></svg>