<svg xmlns="http://www.w3.org/2000/svg" viewBox="0 0 512 512"><path style="fill:#73AF00;" d="M256,423.7H8.8c-4.9,0-8.8-4-8.8-8.8V97.1c0-4.9,4-8.8,8.8-8.8H256L256,423.7L256,423.7z"/><path style="fill:#F5F5F5;" d="M256,88.3h247.2c4.9,0,8.8,4,8.8,8.8v317.8c0,4.9-4,8.8-8.8,8.8H256V88.3z"/><g><path style="fill:#FF4B55;" d="M298.6,223.9l-15.3,20l-23.9-8c-1.3-0.4-2.5,1.1-1.7,2.2l14.3,20.7l-15,20.3c-0.8,1.1,0.2,2.7,1.6,2.3l24.1-7.2l14.6,20.5c0.8,1.1,2.6,0.6,2.7-0.8l0.6-25.2l24-7.6c1.3-0.4,1.4-2.3,0-2.8L301,250l0.2-25.2C301.3,223.4,299.5,222.8,298.6,223.9z"/><path style="fill:#FF4B55;" d="M271.9,316.6c-33.5,0-60.6-27.1-60.6-60.6c0-33.4,27.1-60.6,60.6-60.6c12.4,0,23.9,3.8,33.5,10.3c1.5,1,3.1-0.9,1.9-2.2c-14.3-14.9-34.5-23.9-57-23.2c-38.5,1.3-70.5,32.2-72.9,70.7c-2.8,44.1,32.1,80.7,75.6,80.7c21.4,0,40.7-9,54.4-23.3c1.2-1.3-0.5-3.2-1.9-2.2C295.8,312.8,284.3,316.6,271.9,316.6z"/></g></svg>