<svg xmlns="http://www.w3.org/2000/svg" viewBox="0 0 25 24"><path d="M22.3,7c0-1.5-1.2-2.7-2.7-2.7S16.9,5.5,16.9,7c0,1.3,0.9,2.4,2.1,2.6V10c0,3.1-1.6,4.2-5.1,4.4c-0.6,0-1,0-2,0h-0.1	c-1.5,0-2.5,0.3-3.3,0.9V5.6c1.2-0.3,2.1-1.3,2.1-2.6c0-1.5-1.3-2.7-2.8-2.7S5.1,1.5,5.1,3c0,1.2,0.9,2.3,2.1,2.6V18	c0,0.1,0,0.3,0,0.4c-1.1,0.3-1.9,1.4-1.9,2.6c0,1.5,1.2,2.7,2.7,2.7s2.7-1.2,2.7-2.7c0-1.3-1-2.4-2.2-2.6h0.1v-0.3	c0-0.2,0.1-0.5,0.2-0.8c0.4-1,1.3-1.6,3.1-1.6H12c1,0,1.4,0,2,0c4-0.2,6.3-1.8,6.3-5.7V9.6C21.4,9.3,22.3,8.3,22.3,7z M9.4,21	c0,0.8-0.6,1.4-1.4,1.4S6.6,21.8,6.6,21s0.6-1.4,1.4-1.4S9.4,20.2,9.4,21z M7.9,4.3C7.1,4.3,6.4,3.8,6.4,3s0.8-1.4,1.5-1.4	s1.4,0.5,1.4,1.3S8.7,4.3,7.9,4.3z M19.6,8.4c-0.8,0-1.4-0.6-1.4-1.4s0.6-1.4,1.4-1.4S21,6.2,21,7S20.4,8.4,19.6,8.4z"/></svg>