<svg viewBox="0 0 16 16" xmlns="http://www.w3.org/2000/svg"><path d="M7 0C6.75559 0 6.54701 0.176687 6.50681 0.417764L6.19578 2.28307C5.8614 2.38839 5.53978 2.52184 5.23329 2.68145L3.69449 1.58304C3.4956 1.44107 3.22324 1.46366 3.05045 1.63645L1.63645 3.05045C1.46366 3.22324 1.44107 3.4956 1.58304 3.69449L2.68145 5.23329C2.52184 5.53978 2.38839 5.8614 2.28307 6.19578L0.417764 6.50681C0.176687 6.54701 0 6.75559 0 7V9C0 9.24441 0.176687 9.45299 0.417764 9.49319L2.28307 9.80422C2.38839 10.1386 2.52184 10.4602 2.68145 10.7667L1.58304 12.3055C1.44107 12.5044 1.46366 12.7768 1.63645 12.9496L3.05045 14.3636C3.22324 14.5363 3.4956 14.5589 3.69449 14.417L5.23329 13.3186C5.53978 13.4782 5.8614 13.6116 6.19578 13.7169L6.50681 15.5822C6.54701 15.8233 6.75559 16 7 16H9C9.24441 16 9.45299 15.8233 9.49319 15.5822L9.80422 13.7169C10.1386 13.6116 10.4601 13.4782 10.7666 13.3186L12.3054 14.4179C12.5043 14.5599 12.7767 14.5374 12.9496 14.3646L14.3636 12.9506C14.5363 12.7778 14.5589 12.5055 14.417 12.3066L13.3185 10.7668C13.4781 10.4603 13.6116 10.1386 13.7169 9.80422L15.5822 9.49319C15.8233 9.45299 16 9.24441 16 9V7C16 6.75559 15.8233 6.54701 15.5822 6.50681L13.7169 6.19578C13.6116 5.86144 13.4782 5.53986 13.3186 5.2334L14.4179 3.69464C14.56 3.49569 14.5374 3.22315 14.3644 3.05032L12.9494 1.63632C12.7766 1.46364 12.5043 1.44111 12.3055 1.58304L10.7667 2.68145C10.4602 2.52184 10.1386 2.38839 9.80422 2.28307L9.49319 0.417764C9.45299 0.176687 9.24441 0 9 0H7ZM7.13019 2.75924L7.42353 1H8.57647L8.86981 2.75924C8.90238 2.95459 9.04719 3.1123 9.23906 3.1614C9.70487 3.28058 10.1427 3.46323 10.5448 3.70194C10.7151 3.8031 10.9292 3.79409 11.0905 3.67896L12.542 2.64287L13.3578 3.45816L12.3211 4.90936C12.2059 5.07066 12.1969 5.28479 12.2981 5.45525C12.5368 5.85734 12.7194 6.29513 12.8386 6.76094C12.8877 6.95281 13.0454 7.09762 13.2408 7.13019L15 7.42353V8.57647L13.2408 8.86981C13.0454 8.90238 12.8877 9.04719 12.8386 9.23906C12.7194 9.70487 12.5368 10.1427 12.2981 10.5448C12.1969 10.7151 12.2059 10.9291 12.321 11.0904L13.3571 12.5428L12.542 13.3579L11.0906 12.3211C10.9293 12.2059 10.7152 12.1969 10.5448 12.2981C10.1427 12.5368 9.70487 12.7194 9.23906 12.8386C9.04719 12.8877 8.90238 13.0454 8.86981 13.2408L8.57647 15H7.42353L7.13019 13.2408C7.09762 13.0454 6.95281 12.8877 6.76094 12.8386C6.29513 12.7194 5.85734 12.5368 5.45525 12.2981C5.28485 12.1969 5.0708 12.2059 4.90951 12.321L3.45814 13.357L2.64296 12.5419L3.67896 11.0905C3.79409 10.9292 3.8031 10.7151 3.70194 10.5448C3.46323 10.1427 3.28058 9.70487 3.1614 9.23906C3.1123 9.04719 2.95459 8.90238 2.75924 8.86981L1 8.57647V7.42353L2.75924 7.13019C2.95459 7.09762 3.1123 6.95281 3.1614 6.76094C3.28058 6.29513 3.46323 5.85734 3.70194 5.45525C3.8031 5.28485 3.79409 5.0708 3.67896 4.90951L2.64296 3.45814L3.45814 2.64296L4.90951 3.67896C5.0708 3.79409 5.28485 3.8031 5.45525 3.70194C5.85734 3.46323 6.29513 3.28058 6.76094 3.1614C6.95281 3.1123 7.09762 2.95459 7.13019 2.75924ZM6 8C6 6.89543 6.89543 6 8 6C9.10457 6 10 6.89543 10 8C10 9.10457 9.10457 10 8 10C6.89543 10 6 9.10457 6 8ZM8 5C6.34315 5 5 6.34315 5 8C5 9.65685 6.34315 11 8 11C9.65685 11 11 9.65685 11 8C11 6.34315 9.65685 5 8 5Z"/></svg>