<svg xmlns="http://www.w3.org/2000/svg" viewBox="0 0 16 16"><style type="text/css">.st0{fill:#111111;}</style><path d="M15.5,15h-3c-0.3,0-0.5-0.2-0.5-0.5s0.2-0.5,0.5-0.5H15v-2.7c0-0.1,0-0.2-0.1-0.3c-0.1-0.1-0.2-0.2-0.3-0.2	L11.4,10c-0.2,0-0.3-0.2-0.4-0.4l-0.3-1.8c0-0.2,0.1-0.4,0.3-0.5c0.4-0.2,0.8-0.5,1.1-0.9c0.3-0.4,0.4-0.9,0.4-1.4V4.1	c0-0.6-0.2-1.2-0.6-1.7c-0.4-0.5-0.9-0.8-1.5-0.9c-0.4-0.1-0.9,0-1.3,0.1c-0.3,0.1-0.5,0-0.6-0.3c-0.1-0.3,0-0.5,0.3-0.6	c0.6-0.2,1.2-0.3,1.8-0.1c0.8,0.2,1.5,0.6,2.1,1.3c0.5,0.6,0.8,1.5,0.8,2.3V5c0,0.7-0.2,1.3-0.6,1.9c-0.3,0.5-0.7,0.8-1.2,1.1	l0.2,1.1l2.9,0.7c0.3,0.1,0.6,0.3,0.8,0.5c0.2,0.3,0.3,0.6,0.3,0.9v3.2C16,14.8,15.8,15,15.5,15z"/><path d="M10.5,15h-10C0.2,15,0,14.8,0,14.5v-1.7c0-0.3,0.1-0.6,0.3-0.9c0.2-0.3,0.5-0.4,0.8-0.5l2.5-0.7l0.1-0.8	c-0.3,0-0.7,0-1-0.1c-0.5-0.1-1-0.4-1.5-0.7C1,8.7,0.9,8.4,1.1,8.2c0.7-0.9,1-2,0.9-3.2c0-1,0.4-1.9,1-2.5c1.3-1.3,3.6-1.3,4.9,0	C8.6,3.2,9,4.1,9,5C8.9,6.2,9.2,7.3,9.9,8.2c0.2,0.2,0.1,0.5-0.1,0.7C9.4,9.2,8.9,9.5,8.3,9.6C8,9.7,7.7,9.8,7.3,9.8l0.1,0.8	l2.5,0.7l0,0c0.3,0.1,0.6,0.3,0.8,0.5c0.2,0.3,0.3,0.6,0.3,0.9v1.7C11,14.8,10.8,15,10.5,15z M1,14h9v-1.2c0-0.1,0-0.2-0.1-0.3	c-0.1-0.1-0.2-0.2-0.3-0.2l-2.8-0.8c-0.2-0.1-0.3-0.2-0.4-0.4L6.3,9.3c0-0.2,0-0.3,0.1-0.4c0.1-0.1,0.3-0.2,0.4-0.1	c0.4,0.1,0.8,0,1.2-0.1c0.3-0.1,0.5-0.2,0.7-0.3C8.2,7.3,7.9,6.2,8,5c0-0.6-0.3-1.3-0.7-1.7c-0.9-0.9-2.6-0.9-3.5,0	C3.3,3.7,3,4.3,3,5c0.1,1.2-0.2,2.3-0.8,3.4c0.2,0.1,0.5,0.2,0.7,0.3c0.4,0.1,0.8,0.1,1.2,0.1c0.2,0,0.3,0,0.4,0.1	C4.7,9,4.8,9.1,4.7,9.3l-0.3,1.8c0,0.2-0.2,0.4-0.4,0.4l-2.8,0.8c-0.1,0-0.2,0.1-0.3,0.2C1,12.5,1,12.6,1,12.8V14z"/></svg>