<svg viewBox="0 0 24 24" xmlns="http://www.w3.org/2000/svg"><path d="M18 1.5C17.1716 1.5 16.5 2.17157 16.5 3C16.5 3.82843 17.1716 4.5 18 4.5C18.8284 4.5 19.5 3.82843 19.5 3C19.5 2.17157 18.8284 1.5 18 1.5ZM15 3C15 1.34315 16.3431 0 18 0C19.6569 0 21 1.34315 21 3C21 4.65685 19.6569 6 18 6C16.3431 6 15 4.65685 15 3ZM4.5 13.5C4.5 12.6716 5.17157 12 6 12C6.82843 12 7.5 12.6716 7.5 13.5C7.5 14.3284 6.82843 15 6 15C5.17157 15 4.5 14.3284 4.5 13.5ZM6 10.5C4.34315 10.5 3 11.8431 3 13.5C3 15.1569 4.34315 16.5 6 16.5C7.65685 16.5 9 15.1569 9 13.5C9 11.8431 7.65685 10.5 6 10.5ZM2.59835 20.5983C3.30161 19.8951 4.25544 19.5 5.25 19.5H6.75C7.74456 19.5 8.69839 19.8951 9.40165 20.5983C9.92544 21.1221 10.2783 21.7849 10.4242 22.5H1.57575C1.72173 21.7849 2.07456 21.1221 2.59835 20.5983ZM5.25 18C3.85761 18 2.52226 18.5531 1.53769 19.5377C0.553123 20.5223 0 21.8576 0 23.25C0 23.4489 0.0790176 23.6397 0.21967 23.7803C0.360322 23.921 0.551088 24 0.75 24H11.25C11.6642 24 12 23.6642 12 23.25C12 21.8576 11.4469 20.5223 10.4623 19.5377C9.47774 18.5531 8.14239 18 6.75 18H5.25ZM14.5983 10.0983C15.3016 9.39509 16.2554 9 17.25 9H18.75C19.7446 9 20.6984 9.39509 21.4017 10.0983C21.9254 10.6221 22.2783 11.2849 22.4242 12H13.5758C13.7217 11.2849 14.0746 10.6221 14.5983 10.0983ZM17.25 7.5C15.8576 7.5 14.5223 8.05312 13.5377 9.03769C12.5531 10.0223 12 11.3576 12 12.75C12 13.1642 12.3358 13.5 12.75 13.5H23.25C23.6642 13.5 24 13.1642 24 12.75C24 11.3576 23.4469 10.0223 22.4623 9.03769C21.4777 8.05312 20.1424 7.5 18.75 7.5H17.25Z"/></svg>