<svg viewBox="0 0 16 16" xmlns="http://www.w3.org/2000/svg"><path d="M2.14645 3.14645C2.24021 3.05268 2.36739 3 2.5 3H13.5C13.6326 3 13.7598 3.05268 13.8536 3.14645C13.9473 3.24021 14 3.36739 14 3.5V9.5C14 9.77614 14.2239 10 14.5 10C14.7761 10 15 9.77614 15 9.5V3.5C15 3.10217 14.842 2.72064 14.5607 2.43934C14.2794 2.15804 13.8978 2 13.5 2H2.5C2.10218 2 1.72064 2.15804 1.43934 2.43934C1.15804 2.72064 1 3.10218 1 3.5V9.5C1 9.77614 1.22386 10 1.5 10C1.77614 10 2 9.77614 2 9.5V3.5C2 3.36739 2.05268 3.24021 2.14645 3.14645ZM0.5 11C0.367392 11 0.240215 11.0527 0.146447 11.1464C0.0526784 11.2402 0 11.3674 0 11.5C0 12.163 0.263392 12.7989 0.732233 13.2678C1.20107 13.7366 1.83696 14 2.5 14H13.5C14.163 14 14.7989 13.7366 15.2678 13.2678C15.7366 12.7989 16 12.163 16 11.5C16 11.2239 15.7761 11 15.5 11H0.5ZM1.43934 12.5607C1.27964 12.401 1.15967 12.209 1.08579 12H14.9142C14.8403 12.209 14.7204 12.401 14.5607 12.5607C14.2794 12.842 13.8978 13 13.5 13H2.5C2.10218 13 1.72064 12.842 1.43934 12.5607Z"/></svg>