<svg xmlns="http://www.w3.org/2000/svg" viewBox="0 0 30 30"><title>Vlt-icon-lighthouse</title><desc>Created with Sketch.</desc><path d="M25.2,20.3c-0.8,0-1.5,0.2-2.1,0.6c-0.1-2.3-2-4.1-4.3-4.1c-1.3,0-2.5,0.6-3.3,1.5V16h-0.6v-4.7h-0.6V6.7h-0.6V4.6	c0-1.7-1.4-3.1-3.1-3.1S7.5,2.9,7.5,4.6v2.1H6.9v4.7H6.3v4.7H5.7v2.2c-0.1,0-0.3,0.1-0.4,0.1c-0.6-1.6-2.2-2.7-4-2.7	c-0.4,0-0.8,0.4-0.8,0.8s0.4,0.8,0.8,0.8c1.4,0,2.6,1.1,2.7,2.5c0,0.7,0.9,1,1.4,0.5c0.1-0.1,0.3-0.2,0.4-0.3v1.3H5.2v6.1h0.2v1.4	h10.5v-1.4h0.2v-6.1h-0.6v-1c0.3,0.1,0.7-0.1,0.9-0.4c0.5-0.9,1.4-1.5,2.4-1.5c1.5,0,2.7,1.2,2.7,2.7c0,0.2,0,0.4-0.1,0.6	c-0.1,0.3,0,0.6,0.3,0.8c0.1,0.1,0.2,0.2,0.3,0.3c0.3,0.4,0.9,0.4,1.2,0c0.5-0.6,1.2-0.9,2-0.9c1.5,0,2.7,1.2,2.7,2.7	c0,0.4,0.4,0.8,0.8,0.8s0.8-0.4,0.8-0.8C29.5,22.2,27.6,20.3,25.2,20.3z M9.1,4.6c0-0.8,0.7-1.5,1.5-1.5s1.5,0.7,1.5,1.5v2.1h-3V4.6	z M8.5,8.4h4.2v3H8.5V8.4z M7.9,13h5.4v3H7.9V13z M7.4,17.7h6.5v3.6H7.4V17.7z M14.5,27.1H6.8v-4.2h7.7V27.1z"/><path d="M16.7,4.8l8.2-2c0.4-0.1,0.7-0.5,0.6-1c-0.1-0.4-0.5-0.7-1-0.6l-8.2,2c-0.4,0.1-0.7,0.5-0.6,1C15.8,4.7,16.2,4.9,16.7,4.8"/><path d="M24,5.4h-5.2c-0.4,0-0.8,0.4-0.8,0.8S18.4,7,18.8,7H24c0.4,0,0.8-0.4,0.8-0.8S24.5,5.4,24,5.4"/><path d="M16.3,9.3l8.2,2c0.4,0.1,0.9-0.2,1-0.6c0.1-0.4-0.2-0.9-0.6-1l-8.2-2c-0.4-0.1-0.9,0.2-1,0.6C15.6,8.8,15.8,9.2,16.3,9.3"/></svg>