<svg xmlns="http://www.w3.org/2000/svg" viewBox="0 0 24 24"><path d="M20,8.2c-1.8,0-3.3,1.3-3.7,3h-2.7c-0.3-1.7-1.9-3-3.7-3c-0.6,0-1.1,0.1-1.6,0.4L6.8,6.5C7.4,5.8,7.8,5,7.8,4	c0-2.1-1.7-3.8-3.8-3.8S0.2,1.9,0.2,4S1.9,7.8,4,7.8c0.6,0,1.1-0.1,1.6-0.4l1.6,2.1C6.6,10.2,6.2,11,6.2,12s0.4,1.8,0.9,2.5	l-1.6,2.1c-0.5-0.2-1-0.4-1.6-0.4c-2.1,0-3.8,1.7-3.8,3.8s1.7,3.8,3.8,3.8s3.8-1.7,3.8-3.8c0-1-0.4-1.8-0.9-2.5l1.6-2.1	c0.5,0.2,1,0.4,1.6,0.4c1.8,0,3.3-1.3,3.7-3h2.7c0.3,1.7,1.9,3,3.7,3c2.1,0,3.8-1.7,3.8-3.8C23.8,9.9,22.1,8.2,20,8.2z M4,6.2	c-1.2,0-2.2-1-2.2-2.2s1-2.2,2.2-2.2s2.2,1,2.2,2.2S5.2,6.2,4,6.2z M4,22.2c-1.2,0-2.2-1-2.2-2.2s1-2.2,2.2-2.2s2.2,1,2.2,2.2	S5.2,22.2,4,22.2z M10,14.2c-1.2,0-2.2-1-2.2-2.2s1-2.2,2.2-2.2s2.2,1,2.2,2.2S11.2,14.2,10,14.2z M20,14.2c-1.2,0-2.2-1-2.2-2.2	s1-2.2,2.2-2.2s2.2,1,2.2,2.2S21.2,14.2,20,14.2z"/></svg>