<svg viewBox="0 0 16 16" xmlns="http://www.w3.org/2000/svg"><path d="M0 9.5C0 9.22386 0.223858 9 0.5 9H6.5C6.77614 9 7 9.22386 7 9.5V15.5C7 15.7761 6.77614 16 6.5 16C6.22386 16 6 15.7761 6 15.5V10H0.5C0.223858 10 0 9.77614 0 9.5Z"/><path d="M9.5 0C9.77614 0 10 0.223858 10 0.5V6H15.5C15.7761 6 16 6.22386 16 6.5C16 6.77614 15.7761 7 15.5 7H9.5C9.22386 7 9 6.77614 9 6.5V0.5C9 0.223858 9.22386 0 9.5 0Z"/><path d="M6.85355 9.14645C7.04882 9.34171 7.04882 9.65829 6.85355 9.85355L1.85355 14.8536C1.65829 15.0488 1.34171 15.0488 1.14645 14.8536C0.951184 14.6583 0.951184 14.3417 1.14645 14.1464L6.14645 9.14645C6.34171 8.95118 6.65829 8.95118 6.85355 9.14645Z"/><path d="M14.8536 1.14645C15.0488 1.34171 15.0488 1.65829 14.8536 1.85355L9.85355 6.85355C9.65829 7.04882 9.34171 7.04882 9.14645 6.85355C8.95118 6.65829 8.95118 6.34171 9.14645 6.14645L14.1464 1.14645C14.3417 0.951184 14.6583 0.951184 14.8536 1.14645Z"/><path d="M9 9.5C9 9.22386 9.22386 9 9.5 9H15.5C15.7761 9 16 9.22386 16 9.5C16 9.77614 15.7761 10 15.5 10H10V15.5C10 15.7761 9.77614 16 9.5 16C9.22386 16 9 15.7761 9 15.5V9.5Z"/><path d="M9.14645 9.14645C9.34171 8.95118 9.65829 8.95118 9.85355 9.14645L14.8536 14.1464C15.0488 14.3417 15.0488 14.6583 14.8536 14.8536C14.6583 15.0488 14.3417 15.0488 14.1464 14.8536L9.14645 9.85355C8.95118 9.65829 8.95118 9.34171 9.14645 9.14645Z"/><path d="M6.5 0C6.77614 0 7 0.223858 7 0.5V6.5C7 6.77614 6.77614 7 6.5 7H0.5C0.223858 7 0 6.77614 0 6.5C0 6.22386 0.223858 6 0.5 6H6V0.5C6 0.223858 6.22386 0 6.5 0Z"/><path d="M1.14645 1.14645C1.34171 0.951184 1.65829 0.951184 1.85355 1.14645L6.85355 6.14645C7.04882 6.34171 7.04882 6.65829 6.85355 6.85355C6.65829 7.04882 6.34171 7.04882 6.14645 6.85355L1.14645 1.85355C0.951184 1.65829 0.951184 1.34171 1.14645 1.14645Z"/></svg>