<svg xmlns="http://www.w3.org/2000/svg" viewBox="0 0 16 16"><g><path d="M7.1,8.6c-0.1,0-0.1,0-0.2,0H0.5C0.2,8.5,0,8.8,0,9.1s0.2,0.5,0.5,0.5h5.1L1.2,14c-0.2,0.2-0.2,0.5,0,0.8C1.4,15,1.8,15,2,14.8l4.4-4.4v5.1c0,0.3,0.2,0.5,0.5,0.5s0.5-0.2,0.5-0.5V9.1c0-0.1,0-0.1,0-0.2C7.4,8.7,7.3,8.6,7.1,8.6z"/><path d="M15.5,6.4h-5.1L14.8,2c0.2-0.2,0.2-0.5,0-0.8C14.6,1,14.2,1,14,1.2L9.6,5.6V0.5C9.6,0.2,9.4,0,9.1,0S8.5,0.2,8.5,0.5v6.4c0,0,0,0,0,0c0,0.1,0,0.1,0,0.2c0.1,0.1,0.2,0.2,0.3,0.3c0.1,0,0.1,0,0.2,0h6.4c0.3,0,0.5-0.2,0.5-0.5S15.8,6.4,15.5,6.4z"/></g></svg>