<svg xmlns="http://www.w3.org/2000/svg" viewBox="0 0 16 16"><g id="Layer_1"><path d="M6,12.9c0.3,0,0.5,0.2,0.5,0.5C6.5,14.3,7.2,15,8,15s1.5-0.7,1.5-1.5c0-0.3,0.2-0.5,0.5-0.5c0.3,0,0.5,0.2,0.5,0.5c0,1.4-1.1,2.6-2.5,2.6s-2.5-1.2-2.5-2.6C5.5,13.1,5.7,12.9,6,12.9z"/></g><g id="Layer_1_copy_2"><path d="M15.5,11.4H15c-0.4,0-1-0.2-1.4-0.5c-0.4-0.3-0.6-0.7-0.6-1V5.2C13,2.3,10.8,0,8,0C5.2,0,3,2.3,3,5.2v4.6c0,0.9-0.7,1.5-1.5,1.5h-1c-0.3,0-0.5,0.2-0.5,0.5c0,0.3,0.2,0.5,0.5,0.5h1h13H15h0.5c0.3,0,0.5-0.2,0.5-0.5C16,11.6,15.8,11.4,15.5,11.4z M3.5,11.4c0.3-0.4,0.5-1,0.5-1.5V5.2C4,2.9,5.8,1,8,1c2.2,0,4,1.8,4,4.1v4.6c0,0.6,0.3,1.1,0.7,1.5H3.5z"/></g></svg>