<svg xmlns="http://www.w3.org/2000/svg" viewBox="0 0 16 16"><g><path d="M6.4,1.1C6,0.6,5.4,0.5,4.9,0.5C4.4,0.5,3.9,0.7,3.4,1l0,0l0,0C2,2,1,3.4,0.4,5s-0.6,3.4,0,5c0.5,1.6,1.5,3,2.9,4c1.4,1,3,1.5,4.8,1.5c1.7,0,3.4-0.6,4.8-1.6c1.4-1,2.4-2.5,2.9-4.2l0,0l0,0c0.2-0.6,0.3-1.7,0.1-2.9c-0.2-1.2-0.8-2.4-2.2-3.1l0,0l0,0c-1.9-0.9-3.6-0.4-4.9,0c-0.1,0-0.2,0-0.2,0.1l0,0l0,0l0,0c-0.6,0.2-1,0.3-1.4,0.4c-0.4,0-0.6,0-0.8-0.3c0,0,0-0.1,0-0.2c0-0.1,0.1-0.3,0.1-0.5l0,0l0-0.1l0,0C6.7,2.5,6.9,1.8,6.4,1.1z M1.4,5.3C1.8,3.9,2.8,2.7,4,1.8c0.3-0.2,0.6-0.3,1-0.3c0.3,0,0.5,0.1,0.6,0.2l0,0c0.2,0.2,0.1,0.4,0,1l0,0.1C5.5,3,5.4,3.2,5.4,3.5c0,0.3,0,0.6,0.2,1c0,0,0,0,0,0C6.1,5,6.7,5.1,7.3,5.1c0.5,0,1.1-0.2,1.6-0.4l0,0l0,0c0.1,0,0.2,0,0.2-0.1c1.3-0.4,2.7-0.8,4.2,0c1,0.5,1.5,1.4,1.6,2.4c0.2,1,0,2-0.1,2.5c-0.4,1.5-1.3,2.7-2.5,3.7C11.1,14,9.6,14.5,8,14.5v0l0,0c-1.5,0-2.9-0.4-4.2-1.3s-2.1-2.1-2.6-3.5C0.9,8.2,0.9,6.7,1.4,5.3z M9,8.5C9,7.7,9.7,7,10.5,7C11.3,7,12,7.7,12,8.5c0,0.8-0.7,1.5-1.5,1.5C9.7,10,9,9.3,9,8.5z M10.5,6C9.1,6,8,7.1,8,8.5C8,9.9,9.1,11,10.5,11c1.4,0,2.5-1.1,2.5-2.5C13,7.1,11.9,6,10.5,6z M4,9c0.6,0,1-0.4,1-1c0-0.6-0.4-1-1-1S3,7.4,3,8C3,8.6,3.4,9,4,9z M7,11c0,0.6-0.4,1-1,1s-1-0.4-1-1c0-0.6,0.4-1,1-1S7,10.4,7,11z"/></g></svg>