<svg viewBox="0 0 24 24" xmlns="http://www.w3.org/2000/svg"><path d="M4.01955 0.0643682C4.44388 -0.0417121 4.88041 -0.0205776 5.29459 0.156924C5.75108 0.352561 6.07704 0.72754 6.31462 1.12004C6.51109 1.42572 7.03805 2.24777 7.8949 3.58527C8.35454 4.30274 8.6952 4.98199 8.88545 5.61613C9.07421 6.24532 9.13029 6.88323 8.95112 7.48013C8.72346 8.29482 8.34441 9.05923 7.66276 9.4605C7.65337 9.51261 7.64603 9.63802 7.69659 9.86919L7.70115 9.89002C7.78677 10.3324 8.10131 10.957 8.78301 11.779C9.49926 12.6427 10.0275 13.2402 10.3776 13.5903C10.7472 13.9599 11.3539 14.4925 12.2157 15.1967C13.0373 15.868 13.6722 16.1988 14.1338 16.3038C14.3633 16.3537 14.4879 16.3463 14.5398 16.3369C14.937 15.662 15.694 15.2692 16.5085 15.0204L16.5301 15.0138C17.6849 14.693 19.0353 15.216 20.4105 16.0862C21.7176 16.9134 22.5575 17.4559 22.8982 17.6962C23.284 17.9327 23.6504 18.2556 23.843 18.7051C24.0206 19.1193 24.0417 19.556 23.9356 19.9804L23.9236 20.0285L23.462 21.2648C23.0692 22.3171 22.2648 23.0885 21.1754 23.6084L21.1638 23.6139C20.144 24.0825 18.9497 24.1002 17.6597 23.7981C16.401 23.5032 15.1094 23.003 13.7863 22.3084C12.476 21.6204 11.2008 20.8192 9.96086 19.9055C8.72801 18.9971 7.66674 18.1014 6.78274 17.2174C5.89874 16.3335 5.00304 15.2722 4.09462 14.0394C3.18094 12.7994 2.37964 11.5243 1.6917 10.214C0.997044 8.89084 0.496775 7.59925 0.201936 6.34053C-0.100243 5.05048 -0.082454 3.85609 0.386166 2.83617L0.391546 2.82446C0.911508 1.73504 1.68299 0.930739 2.7352 0.53792L3.97146 0.0763911L4.01955 0.0643682Z"/></svg>