<svg viewBox="0 0 24 24" xmlns="http://www.w3.org/2000/svg"><path d="M0 12C0 5.4 5.4 0 12 0C18.6 0 24 5.4 24 12C24 18.6 18.6 24 12 24C5.4 24 0 18.6 0 12ZM1.5 12C1.5 17.85 6.15 22.5 12 22.5C17.85 22.5 22.5 17.85 22.5 12C22.5 6.15 17.85 1.5 12 1.5C6.15 1.5 1.5 6.15 1.5 12ZM10.5003 7.20023L16.6503 10.8002C17.7003 11.4002 17.7003 12.6002 16.6503 13.0502L10.5003 16.6502C9.60029 17.2502 8.55029 16.6502 8.55029 15.4502V8.40023C8.55029 7.20023 9.45029 6.60023 10.5003 7.20023ZM15.7503 12.0002L10.0503 8.70023V15.3002L15.7503 12.0002Z"/></svg>