<svg xmlns="http://www.w3.org/2000/svg" viewBox="0 0 16 16"><g><path d="M3.5,4C3.8,4,4,3.8,4,3.5V1h8v2.5C12,3.8,12.2,4,12.5,4S13,3.8,13,3.5v-3C13,0.2,12.8,0,12.5,0h-9C3.2,0,3,0.2,3,0.5v3C3,3.8,3.2,4,3.5,4z"/><path d="M15,6c-0.7-0.7-1.5-1-2.5-1h-9C2.6,5,1.7,5.4,1,6S0,7.6,0,8.5v4C0,12.8,0.2,13,0.5,13H3v2.5C3,15.8,3.2,16,3.5,16h9c0.3,0,0.5-0.2,0.5-0.5V13h2.5c0.3,0,0.5-0.2,0.5-0.5v-4C16,7.6,15.6,6.7,15,6z M12,12.5V15H4v-2.5V10h8V12.5z M15,12h-2V9.5C13,9.2,12.8,9,12.5,9h-9C3.2,9,3,9.2,3,9.5V12H1V8.5c0-0.7,0.3-1.3,0.7-1.8C2.2,6.3,2.8,6,3.5,6h9c0.7,0,1.3,0.3,1.8,0.7C14.7,7.2,15,7.8,15,8.5V12z"/></g></svg>