<svg viewBox="0 0 16 16" xmlns="http://www.w3.org/2000/svg"><path d="M7.70893 1.04575C7.88633 1.12734 8 1.30474 8 1.50001V5.04149C9.80079 5.10334 11.7116 5.51598 13.2234 6.68324C14.9006 7.97813 16 10.133 16 13.5C16 13.7236 15.8516 13.9199 15.6366 13.981C15.4215 14.0421 15.1921 13.9529 15.0746 13.7627C13.3381 10.9512 10.7287 10.0969 8 10.008V13.5C8 13.6953 7.88633 13.8727 7.70893 13.9543C7.53153 14.0359 7.32286 14.0067 7.1746 13.8796L0.174604 7.87964C0.0637814 7.78464 0 7.64597 0 7.50001C0 7.35404 0.0637814 7.21537 0.174604 7.12038L7.1746 1.12038C7.32286 0.993302 7.53153 0.964158 7.70893 1.04575ZM1.2683 7.50001L7 12.4129V9.50001C7 9.22387 7.22386 9.00001 7.5 9.00001C10.1231 9.00001 12.8501 9.60728 14.8964 11.8621C14.6057 9.70411 13.7299 8.33767 12.6123 7.47477C11.2102 6.39227 9.33969 6.03301 7.5 6.03301C7.22386 6.03301 7 5.80915 7 5.53301V2.58712L1.2683 7.50001Z"/></svg>