<svg viewBox="0 0 24 24" xmlns="http://www.w3.org/2000/svg"><g clip-path="url(#clip0)"><path d="M23.9999 0C19.4999 0.3 15.7499 1.65 12.8999 3.6C9.74986 2.1 5.99985 2.7 3.44985 5.4C2.99985 5.85 2.54985 6.45 2.09985 7.05L5.84985 10.8C4.79985 12.6 4.19985 13.8 4.19985 13.8L10.3499 19.95C10.3499 19.95 11.5499 19.5 13.3499 18.3L17.0999 22.05C17.6999 21.75 18.2999 21.3 18.7499 20.7C21.2999 18.15 21.8999 14.25 20.5499 11.1C22.3499 8.1 23.6999 4.5 23.9999 0ZM17 9C17 10.1046 16.1046 11 15 11C13.8954 11 13 10.1046 13 9C13 7.89543 13.8954 7 15 7C16.1046 7 17 7.89543 17 9ZM5.09964 18.9C3.89964 17.7 2.09964 17.7 0.899642 18.9C-0.300358 19.95 -0.000358078 24 -0.000358078 24C-0.000358078 24 3.89964 24.3 5.09964 23.1C6.29964 21.9 6.29964 20.1 5.09964 18.9Z"/></g><defs><clipPath id="clip0"><path d="M0 0H24V24H0V0Z"/></clipPath></defs></svg>