<svg xmlns="http://www.w3.org/2000/svg" viewBox="0 0 16 16"><g><path d="M1.1,12.1C0.3,12.9,0,16,0,16s3.1-0.3,3.9-1.1s0.8-2,0-2.8S1.9,11.3,1.1,12.1z"/><circle cx="9" cy="7" r="1"/><path d="M16,0.5c0-0.1,0-0.3-0.1-0.4C15.8,0,15.6,0,15.5,0c-2.9,0.1-5.2,1-7,2.2C6.3,1.4,3.8,1.8,2.1,3.5C1.7,3.9,1.4,4.3,1.2,4.7C1.1,4.9,1.1,5.2,1.3,5.3l2.1,2.1C3.3,7.5,3.2,7.6,3.2,7.6C2.9,8,2.8,8.4,2.7,8.6C2.6,8.7,2.6,8.8,2.5,8.9c0,0,0,0.1,0,0.1l0,0l0,0l0,0l0,0c0,0,0,0,0.5,0.2L2.5,9c-0.1,0.2,0,0.4,0.1,0.5l3.9,3.9c0.1,0.1,0.4,0.2,0.5,0.1L6.8,13C7,13.5,7,13.5,7,13.5l0,0l0,0l0,0l0,0c0,0,0,0,0.1,0c0.1,0,0.2-0.1,0.3-0.1c0.2-0.1,0.6-0.3,1-0.5c0.1,0,0.2-0.1,0.3-0.2l2.1,2.1c0.2,0.2,0.4,0.2,0.6,0.1c0.4-0.2,0.8-0.5,1.2-0.9c1.7-1.7,2.2-4.2,1.4-6.4C15,5.7,15.8,3.4,16,0.5z M15,1c-0.1,1.5-0.5,2.8-1,4l-3-3C12.1,1.5,13.5,1.2,15,1z M2.3,4.9c0.2-0.2,0.3-0.5,0.6-0.7c1.2-1.2,3-1.7,4.6-1.3C6.6,3.5,6,4.1,5.4,4.7C4.8,5.3,4.3,6,3.9,6.5L2.3,4.9z M11.8,13.2c-0.2,0.2-0.4,0.4-0.7,0.6l-1.6-1.6c0.6-0.4,1.2-0.9,1.8-1.5c0.6-0.6,1.2-1.2,1.8-2C13.5,10.2,13,11.9,11.8,13.2z M10.6,9.9c-0.8,0.7-1.5,1.3-2.2,1.7l0,0C8.2,11.7,8,11.9,7.8,12c-0.4,0.2-0.7,0.4-0.9,0.5l0,0L3.5,9.1l0,0C3.7,8.8,3.8,8.5,4,8.2c0.4-0.8,1.1-1.8,2.1-2.8c1-1,2.3-2.1,3.9-2.9L13.5,6C12.7,7.6,11.7,8.9,10.6,9.9z"/></g></svg>