<svg viewBox="0 0 16 16" xmlns="http://www.w3.org/2000/svg"><path d="M3.5 2C3.77614 2 4 2.22386 4 2.5V5H9V2.5C9 2.22386 9.22386 2 9.5 2C9.77614 2 10 2.22386 10 2.5V5.5C10 5.77614 9.77614 6 9.5 6H3.5C3.22386 6 3 5.77614 3 5.5V2.5C3 2.22386 3.22386 2 3.5 2Z"/><path d="M3.5 9C3.22386 9 3 9.22386 3 9.5V13.5C3 13.7761 3.22386 14 3.5 14C3.77614 14 4 13.7761 4 13.5V10H12V13.5C12 13.7761 12.2239 14 12.5 14C12.7761 14 13 13.7761 13 13.5V9.5C13 9.22386 12.7761 9 12.5 9H3.5Z"/><path d="M0 0.5C0 0.223858 0.223858 0 0.5 0H11.5C11.6326 0 11.7598 0.0526784 11.8536 0.146447L15.8536 4.14645C15.9473 4.24021 16 4.36739 16 4.5V15.5C16 15.7761 15.7761 16 15.5 16H0.5C0.223858 16 0 15.7761 0 15.5V0.5ZM1 1V15H15V4.70711L11.2929 1H1Z"/></svg>