<svg xmlns="http://www.w3.org/2000/svg" viewBox="0 0 16 16"><g><path d="M11.5,15h-7C4.2,15,4,15.2,4,15.5S4.2,16,4.5,16h7c0.3,0,0.5-0.2,0.5-0.5S11.8,15,11.5,15z"/><path d="M6.3,9.9C6.3,10,6.4,10,6.5,10c0.1,0,0.2,0,0.3-0.1l5-3C11.9,6.8,12,6.7,12,6.5s-0.1-0.3-0.2-0.4l-5-3C6.6,3,6.4,3,6.3,3.1C6.1,3.2,6,3.3,6,3.5v6C6,9.7,6.1,9.8,6.3,9.9z M7,4.4l3.5,2.1L7,8.6V4.4z"/><path d="M15.5,0h-15C0.2,0,0,0.2,0,0.5v12C0,12.8,0.2,13,0.5,13h15c0.3,0,0.5-0.2,0.5-0.5v-12C16,0.2,15.8,0,15.5,0zM15,12H1V1h14V12z"/></g></svg>