<svg viewBox="0 0 16 16" xmlns="http://www.w3.org/2000/svg"><path d="M1 1.5C1 1.22386 1.22386 1 1.5 1H14.5C14.7761 1 15 1.22386 15 1.5V5.5C15 5.77614 14.7761 6 14.5 6H1.5C1.22386 6 1 5.77614 1 5.5V1.5ZM2 2V5H14V2H2ZM0 8.5C0 8.22386 0.223858 8 0.5 8H15.5C15.7761 8 16 8.22386 16 8.5C16 8.77614 15.7761 9 15.5 9H0.5C0.223858 9 0 8.77614 0 8.5ZM1.5 11C1.22386 11 1 11.2239 1 11.5V15.5C1 15.7761 1.22386 16 1.5 16H14.5C14.7761 16 15 15.7761 15 15.5V11.5C15 11.2239 14.7761 11 14.5 11H1.5ZM2 15V12H14V15H2Z"/></svg>