<svg xmlns="http://www.w3.org/2000/svg" viewBox="0 0 16 16"><style type="text/css">.st0{fill:#111111;}</style><g><path d="M6,0.5C6.1,0.6,6.2,0.8,6.2,1C6.1,1.5,6,2,6,2.5C6,6.6,9.4,10,13.5,10c0.5,0,1-0.1,1.5-0.2c0.2,0,0.4,0,0.5,0.2c0.1,0.1,0.2,0.3,0.1,0.5c-1,3.2-4.1,5.5-7.6,5.5c-4.4,0-8-3.6-8-8c0-3.5,2.3-6.6,5.5-7.6C5.7,0.3,5.9,0.4,6,0.5z M5,1.7C2.7,2.8,1,5.2,1,8c0,3.9,3.1,7,7,7c2.8,0,5.2-1.7,6.3-4c-0.3,0-0.6,0-0.8,0C8.8,11,5,7.2,5,2.5C5,2.2,5,1.9,5,1.7z"/><path d="M10.5,1C10.2,1,10,0.8,10,0.5S10.2,0,10.5,0h5c0.2,0,0.4,0.1,0.5,0.3c0.1,0.2,0,0.4-0.1,0.5L11.7,5h3.8C15.8,5,16,5.2,16,5.5S15.8,6,15.5,6h-5c-0.2,0-0.4-0.1-0.5-0.3c-0.1-0.2,0-0.4,0.1-0.5L14.3,1H10.5z"/></g></svg>