<svg viewBox="0 0 16 16" xmlns="http://www.w3.org/2000/svg"><path d="M8.25725 1.07125C8.09891 0.976249 7.90109 0.976249 7.74275 1.07125L0.242752 5.57125C0.0921494 5.66162 0 5.82437 0 6C0 6.17563 0.0921494 6.33838 0.242752 6.42875L7.74275 10.9287C7.90109 11.0238 8.09891 11.0238 8.25725 10.9287L15.7572 6.42875C15.9079 6.33838 16 6.17563 16 6C16 5.82437 15.9079 5.66162 15.7572 5.57125L8.25725 1.07125ZM8 9.91691L1.47183 6L8 2.0831L14.5282 6L8 9.91691ZM2.25725 9.52872C2.49404 9.38665 2.57082 9.07952 2.42875 8.84273C2.28667 8.60594 1.97954 8.52915 1.74275 8.67123L0.242752 9.57123C0.0921495 9.66159 0 9.82434 0 9.99998C0 10.1756 0.0921494 10.3384 0.242752 10.4287L7.74275 14.9287C7.90109 15.0237 8.09891 15.0237 8.25725 14.9287L15.7572 10.4287C15.9079 10.3384 16 10.1756 16 9.99998C16 9.82434 15.9079 9.66159 15.7572 9.57123L14.2572 8.67123C14.0205 8.52915 13.7133 8.60594 13.5713 8.84273C13.4292 9.07952 13.506 9.38665 13.7428 9.52872L14.5282 9.99998L8 13.9169L1.47183 9.99998L2.25725 9.52872Z"/></svg>