<svg xmlns="http://www.w3.org/2000/svg" viewBox="0 0 16 17"><path d="M0,4c0-0.8,0.7-1.5,1.5-1.5H2v1H1.5C1.2,3.5,1,3.7,1,4v11c0,0.3,0.2,0.5,0.5,0.5h13c0.3,0,0.5-0.2,0.5-0.5V4	c0-0.3-0.2-0.5-0.5-0.5H7v-1h7.5C15.3,2.5,16,3.2,16,4v11c0,0.8-0.7,1.5-1.5,1.5h-13C0.7,16.5,0,15.8,0,15V4z"/><path d="M2,2c0-0.8,0.7-1.5,1.5-1.5h1C5.3,0.5,6,1.2,6,2v11c0,0.8-0.7,1.5-1.5,1.5h-1C2.7,14.5,2,13.8,2,13V2z M3.5,1.5	C3.2,1.5,3,1.7,3,2v11c0,0.3,0.2,0.5,0.5,0.5h1C4.8,13.5,5,13.3,5,13V2c0-0.3-0.2-0.5-0.5-0.5H3.5z"/><path d="M7.2,9h1.8v1H7.2V9z"/><path d="M7.2,11.1h1.8v1H7.2V11.1z"/><path d="M7.2,13.2h1.8v1H7.2V13.2z"/><path d="M9.7,9h1.8v1H9.7V9z"/><path d="M9.7,11.1h1.8v1H9.7V11.1z"/><path d="M9.7,13.2h1.8v1H9.7V13.2z"/><path d="M12.2,9H14v1h-1.8V9z"/><path d="M12.2,11.1H14v1h-1.8V11.1z"/><path d="M12.2,13.2H14v1h-1.8V13.2z"/><path d="M13,4.5H8.2c-0.6,0-1,0.4-1,1V7c0,0.6,0.4,1,1,1H13c0.6,0,1-0.4,1-1V5.5C14,4.9,13.6,4.5,13,4.5z M13,7H8.2V5.5	H13V7z"/></svg>