<svg viewBox="0 0 24 24" xmlns="http://www.w3.org/2000/svg"><path d="M13.4998 6C13.4998 4.3455 14.8453 3 16.4998 3H17.9998V0H16.4998C14.6998 0 13.1008 0.813 11.9998 2.073C10.8988 0.813 9.29976 0 7.49976 0H5.99976V3H7.49976C9.15426 3 10.4998 4.3455 10.4998 6V7.5V13.5H5.99976V16.5H10.4998V18C10.4998 19.6545 9.15426 21 7.49976 21H5.99976V24H7.49976C9.29976 24 10.8988 23.187 11.9998 21.927C13.1008 23.187 14.6998 24 16.4998 24H17.9998V21H16.4998C14.8453 21 13.4998 19.6545 13.4998 18V16.5H17.9998V13.5H13.4998V7.5V6Z"/></svg>