<svg viewBox="0 0 24 24" xmlns="http://www.w3.org/2000/svg"><path d="M4 6C4 8.761 6.239 12 9 12C11.761 12 14 8.761 14 6V5C14 2.239 11.761 0 9 0C6.239 0 4 2.239 4 5V6ZM11.625 14.182C10.609 15.523 10 17.188 10 19C10 20.062 10.211 21.073 10.587 22H0V18.032C0 16.749 0.81 15.604 2.026 15.193C3.671 14.638 6.176 14 9 14C9.917 14 10.794 14.072 11.625 14.182ZM18 15C18.808 15 19.573 15.331 20.131 15.893L18.523 17.061L22.792 18L23.22 13.649L21.754 14.714C20.814 13.644 19.451 13 18 13C15.718 13 13.727 14.542 13.157 16.75L15.095 17.249C15.436 15.925 16.63 15 18 15ZM15.869 21.107C16.427 21.669 17.192 22 18 22C19.37 22 20.564 21.075 20.905 19.751L22.843 20.25C22.273 22.458 20.282 24 18 24C16.549 24 15.186 23.356 14.246 22.286L12.78 23.351L13.208 19L17.477 19.939L15.869 21.107Z"/></svg>