<svg viewBox="0 0 16 16" xmlns="http://www.w3.org/2000/svg"><path d="M0 0.5C0 0.223858 0.223858 0 0.5 0H10C10.2103 0 10.398 0.131534 10.4699 0.329128L12.3827 5.58933L15.6374 6.51924C15.852 6.58057 16 6.77676 16 7V13.5C16 13.7761 15.7761 14 15.5 14H11.5C11.2239 14 11 13.7761 11 13.5C11 13.2239 11.2239 13 11.5 13H15V7.37715L11.8626 6.48076C11.7085 6.43673 11.5849 6.32149 11.5301 6.17087L9.64979 1H1V13H2.5C2.77614 13 3 13.2239 3 13.5C3 13.7761 2.77614 14 2.5 14H0.5C0.223858 14 0 13.7761 0 13.5V0.5ZM7 11C5.89543 11 5 11.8954 5 13C5 14.1046 5.89543 15 7 15C8.10457 15 9 14.1046 9 13C9 11.8954 8.10457 11 7 11ZM4 13C4 11.3431 5.34315 10 7 10C8.65685 10 10 11.3431 10 13C10 14.6569 8.65685 16 7 16C5.34315 16 4 14.6569 4 13ZM6 2.5C6 2.22386 5.77614 2 5.5 2C5.22386 2 5 2.22386 5 2.5V6.5C5 6.77614 5.22386 7 5.5 7H9.5C9.77614 7 10 6.77614 10 6.5C10 6.22386 9.77614 6 9.5 6H6V2.5Z"/></svg>