<svg viewBox="0 0 24 24" xmlns="http://www.w3.org/2000/svg"><path fill-rule="evenodd" clip-rule="evenodd" d="M0 1.84615C0 0.826154 0.826154 0 1.84615 0H22.1538C23.1738 0 24 0.826154 24 1.84615V16.6154C24 17.6354 23.1738 18.4615 22.1538 18.4615H1.84615C0.826154 18.4615 0 17.6354 0 16.6154V1.84615ZM19.5 22.5C19.5 21.6 18.9 21 18 21H6C5.1 21 4.5 21.6 4.5 22.5C4.5 23.4 5.1 24 6 24H18C18.9 24 19.5 23.4 19.5 22.5ZM9.44444 5.55556C9.44444 4.14416 10.5886 3 12 3C13.4114 3 14.5556 4.14416 14.5556 5.55556C14.5556 6.96695 13.4114 8.11111 12 8.11111C10.5886 8.11111 9.44444 6.96695 9.44444 5.55556ZM8.19891 11.3099C9.03761 10.4712 10.1751 10 11.3612 10H12.639C13.8251 10 14.9627 10.4712 15.8014 11.3099C16.6401 12.1486 17.1112 13.2861 17.1112 14.4722C17.1112 14.8251 16.8252 15.1111 16.4724 15.1111H7.52791C7.35847 15.1111 7.19597 15.0438 7.07615 14.924C6.95634 14.8042 6.88902 14.6417 6.88902 14.4722C6.88902 13.2861 7.3602 12.1486 8.19891 11.3099Z"/></svg>