<svg xmlns="http://www.w3.org/2000/svg" viewBox="0 0 16 16"><g><path d="M1,3.5C1,3.2,1.2,3,1.5,3h7.2l0.9-1C9.6,2,9.6,2,9.5,2h-8C0.7,2,0,2.7,0,3.5v9c0,0,0,0,0,0l1-1.1V3.5z"/><path d="M15.8,4.1C15.6,4,15.5,4,15.3,4L11,5.8V5l3.4-3.6c0.2-0.2,0.2-0.5,0-0.7s-0.5-0.2-0.7,0L0.1,15.2c-0.2,0.2-0.2,0.5,0,0.7c0.2,0.2,0.5,0.2,0.7,0L2.6,14h6.9c0.8,0,1.5-0.7,1.5-1.5v-2.3l4.3,1.7c0.2,0.1,0.3,0,0.5-0.1c0.1-0.1,0.2-0.2,0.2-0.4v-7C16,4.3,15.9,4.2,15.8,4.1z M10,6.5v3c0,0,0,0,0,0v3c0,0.3-0.2,0.5-0.5,0.5h-6L10,6V6.5C10,6.5,10,6.5,10,6.5z M15,10.8l-4-1.6V6.8l4-1.6V10.8z"/></g></svg>