<svg viewBox="0 0 24 24" xmlns="http://www.w3.org/2000/svg"><g clip-path="url(#clip0)"><path d="M22.5008 0.000601039H1.50085C1.30073 -0.0114284 1.10033 0.0191291 0.912889 0.0902561C0.725449 0.161383 0.555229 0.271461 0.413467 0.413223C0.271706 0.554985 0.161627 0.725205 0.0905002 0.912645C0.0193733 1.10009 -0.0111843 1.30048 0.000845179 1.5006V18.0006C-0.0111843 18.2007 0.0193733 18.4011 0.0905002 18.5886C0.161627 18.776 0.271706 18.9462 0.413467 19.088C0.555229 19.2297 0.725449 19.3398 0.912889 19.4109C1.10033 19.4821 1.30073 19.5126 1.50085 19.5006H7.50085L12.0008 24.0006L16.5008 19.5006H22.5008C22.701 19.5126 22.9014 19.4821 23.0888 19.4109C23.2762 19.3398 23.4465 19.2297 23.5882 19.088C23.73 18.9462 23.8401 18.776 23.9112 18.5886C23.9823 18.4011 24.0129 18.2007 24.0008 18.0006V1.5006C24.0129 1.30048 23.9823 1.10009 23.9112 0.912645C23.8401 0.725205 23.73 0.554985 23.5882 0.413223C23.4465 0.271461 23.2762 0.161383 23.0888 0.0902561C22.9014 0.0191291 22.701 -0.0114284 22.5008 0.000601039V0.000601039ZM7.50085 13.5006H4.50085V6.0006H7.50085V13.5006ZM13.5008 15.0006H10.5008V4.5006H13.5008V15.0006ZM19.5008 12.0006H16.5008V7.5006H19.5008V12.0006Z"/></g><defs><clipPath id="clip0"><path d="M0 0H24V24H0V0Z"/></clipPath></defs></svg>