<svg viewBox="0 0 24 24" xmlns="http://www.w3.org/2000/svg"><path fill-rule="evenodd" clip-rule="evenodd" d="M17.6039 1.58875C17.8478 1.71926 18 1.9734 18 2.25V3.12868L16.5 4.62867V3.65139L8.66603 8.87404C8.54282 8.95617 8.39807 9 8.25 9H1.5V16.5H4.62859L3.12859 18H0.75C0.335786 18 0 17.6642 0 17.25V8.25C0 7.83579 0.335786 7.5 0.75 7.5H8.02292L16.834 1.62596C17.0641 1.47254 17.36 1.45823 17.6039 1.58875ZM18 9.31066L23.7803 3.53033C24.0732 3.23744 24.0732 2.76256 23.7803 2.46967C23.4874 2.17678 23.0126 2.17678 22.7197 2.46967L2.46967 22.7197C2.17678 23.0126 2.17678 23.4874 2.46967 23.7803C2.76256 24.0732 3.23744 24.0732 3.53033 23.7803L8.79556 18.5151L16.834 23.874C17.0641 24.0275 17.36 24.0418 17.6039 23.9113C17.8478 23.7807 18 23.5266 18 23.25V9.31066ZM16.5 10.8107L9.87723 17.4334L16.5 21.8486V10.8107Z"/></svg>