<svg width="1056" height="475" viewBox="0 0 1056 475" fill="none" xmlns="http://www.w3.org/2000/svg">
<g opacity="0.5" filter="url(#filter0_ddd)">
<rect x="16" y="14" width="1024" height="442.608" rx="12" fill="url(#paint0_linear)"/>
</g>
<g clip-path="url(#clip0)" filter="url(#filter1_i)">
<path d="M548.098 235.918L547.804 235.628C575.339 207.778 613.532 193.022 652.59 195.145C674.088 196.313 694.402 202.283 712.966 212.889L712.76 213.248C694.253 202.675 674.001 196.723 652.568 195.559C613.623 193.441 575.549 208.152 548.098 235.918Z" fill="url(#paint1_linear)"/>
<path d="M683.633 227.897L814.054 152.529C816.968 150.846 820.556 150.846 823.469 152.529L953.861 227.88C958.045 230.298 958.045 236.342 953.861 238.761L823.44 314.128C820.527 315.811 816.938 315.811 814.025 314.128L683.633 238.778C679.447 236.361 679.447 230.315 683.633 227.897Z" fill="url(#paint2_linear)"/>
<path d="M391.41 291.506L521.831 216.139C524.745 214.456 528.333 214.456 531.247 216.139L661.639 291.489C665.822 293.908 665.822 299.952 661.639 302.37L531.218 377.737C528.304 379.421 524.716 379.421 521.802 377.737L391.41 302.387C387.225 299.969 387.225 293.925 391.41 291.506Z" fill="url(#paint3_linear)"/>
<path d="M102.139 225.96L232.56 150.592C235.473 148.909 239.062 148.909 241.975 150.592L372.367 225.943C376.551 228.361 376.551 234.405 372.367 236.823L241.946 312.191C239.032 313.874 235.444 313.874 232.53 312.191L102.139 236.84C97.9532 234.424 97.9532 228.378 102.139 225.96Z" fill="url(#paint4_linear)"/>
<path d="M349.627 335.821C332.438 335.821 315.367 332.821 300.133 327.112C284.826 321.375 271.299 312.901 261.015 302.604L261.306 302.312C271.549 312.566 285.025 321.007 300.277 326.725C316.042 332.632 333.795 335.632 351.58 335.395C376.241 335.067 399.516 328.824 418.89 317.339L419.101 317.694C399.666 329.217 376.32 335.48 351.585 335.809C350.935 335.818 350.279 335.821 349.627 335.821Z" fill="url(#paint5_linear)"/>
<path d="M163.012 244.552L188.184 259.098L251.032 222.78C251.032 222.78 225.953 208.26 225.932 208.25L163.012 244.552Z" fill="#FFA68C"/>
<path d="M251.03 222.78L251.06 227.595C251.068 229.118 250.26 230.528 248.942 231.289L192.412 263.922C189.793 265.434 186.569 265.434 183.952 263.921L165.128 253.042C163.818 252.284 163.012 250.886 163.012 249.373V244.552L188.184 259.098L251.03 222.78Z" fill="white"/>
<path d="M200.778 200.994V215.522L175.661 230.039V215.509L200.778 200.994Z" fill="#FFA68C"/>
<path d="M175.66 230.039L169.387 226.415L169.373 219.141L175.66 215.509V230.039Z" fill="white"/>
<path d="M137.938 237.306L225.972 186.451L225.926 113.785L137.971 164.64L137.938 237.306Z" fill="white"/>
<path d="M137.938 237.305L133.797 234.913C132.488 234.157 131.681 232.759 131.681 231.248L131.645 164.677C131.643 162.405 132.855 160.306 134.82 159.171L216.501 111.993C218.471 110.856 220.898 110.86 222.864 112.004L225.925 113.785L137.97 164.639L137.938 237.305Z" fill="#871FFF"/>
<path d="M148.953 223.665L215.45 185.249C218.07 183.734 219.685 180.934 219.681 177.905L219.642 130.16C219.64 127.716 216.994 126.189 214.88 127.412L148.421 165.863C145.804 167.376 144.193 170.172 144.193 173.197V220.916C144.193 223.36 146.837 224.888 148.953 223.665Z" fill="url(#paint6_linear)"/>
<path d="M319.221 172.199C329.098 177.908 337.083 191.748 337.05 203.108C337.05 203.34 337.04 203.571 337.035 203.8C337.52 204.002 338.016 204.246 338.521 204.538C344.441 207.96 349.222 216.249 349.203 223.057C349.184 229.635 344.686 232.421 339.039 229.51L299.278 206.388C292.599 202.563 287.221 193.215 287.243 185.535C287.266 177.784 292.681 174.62 299.42 178.514C300.108 178.913 300.781 179.369 301.436 179.874C302.595 170.418 310.121 166.941 319.221 172.199Z" fill="white"/>
<path d="M364.676 214.262C364.676 214.272 364.676 214.548 364.676 214.548H364.479C364.477 214.548 364.276 214.782 364.268 214.952C364.268 214.966 364.266 214.864 364.266 214.878C364.264 214.935 364.259 214.988 364.256 215.045C364.25 215.146 364.245 215.247 364.237 215.347C364.235 215.376 364.23 215.405 364.228 215.435C364.221 215.509 364.213 215.582 364.206 215.656C364.199 215.725 364.194 215.794 364.185 215.861C364.18 215.9 364.173 215.94 364.168 215.979C364.158 216.058 364.146 216.137 364.132 216.216C364.124 216.269 364.117 216.324 364.108 216.376C364.099 216.421 364.089 216.463 364.081 216.508C364.065 216.592 364.048 216.676 364.031 216.759C364.021 216.804 364.014 216.85 364.003 216.895C363.995 216.936 363.981 216.975 363.972 217.017C363.948 217.116 363.923 217.216 363.895 217.312C363.883 217.355 363.873 217.401 363.861 217.444C363.852 217.475 363.84 217.504 363.832 217.534C363.796 217.652 363.756 217.767 363.717 217.882C363.701 217.925 363.689 217.972 363.672 218.014C363.667 218.03 363.658 218.044 363.653 218.059C363.581 218.248 363.504 218.432 363.422 218.609C363.418 218.616 363.415 218.624 363.411 218.633C363.405 218.648 363.394 218.66 363.387 218.676C363.274 218.908 363.152 219.129 363.02 219.337C363.015 219.346 363.01 219.356 363.005 219.364C363.003 219.368 363 219.371 362.998 219.375C362.888 219.545 362.771 219.705 362.649 219.859C362.62 219.897 362.589 219.933 362.559 219.969C362.438 220.113 362.315 220.251 362.186 220.378C362.179 220.385 362.172 220.393 362.164 220.4C362.027 220.532 361.882 220.654 361.735 220.771C361.699 220.8 361.661 220.828 361.625 220.855C361.474 220.967 361.32 221.073 361.157 221.168L346.078 229.938C346.109 229.92 346.136 229.898 346.166 229.879C346.231 229.84 346.293 229.795 346.356 229.752C346.42 229.709 346.486 229.67 346.548 229.625C346.586 229.598 346.622 229.57 346.658 229.541C346.699 229.508 346.737 229.47 346.778 229.438C346.842 229.385 346.903 229.333 346.965 229.276C347.005 229.24 347.049 229.209 347.087 229.172C347.094 229.165 347.101 229.156 347.109 229.149C347.2 229.06 347.284 228.96 347.37 228.862C347.415 228.811 347.463 228.765 347.506 228.711C347.528 228.684 347.55 228.656 347.573 228.629C347.695 228.476 347.811 228.316 347.921 228.146C347.93 228.134 347.936 228.12 347.945 228.107C347.948 228.103 347.95 228.098 347.952 228.093C348.007 228.005 348.055 227.908 348.106 227.815C348.175 227.693 348.249 227.574 348.311 227.445C348.321 227.423 348.333 227.403 348.345 227.38C348.355 227.358 348.364 227.334 348.374 227.31C348.402 227.25 348.427 227.184 348.453 227.123C348.494 227.025 348.539 226.93 348.577 226.831C348.599 226.772 348.618 226.712 348.64 226.654C348.666 226.583 348.688 226.509 348.712 226.437C348.728 226.389 348.745 226.343 348.76 226.293C348.781 226.223 348.801 226.154 348.822 226.082C348.849 225.984 348.875 225.886 348.899 225.786C348.92 225.702 348.939 225.616 348.957 225.529C348.966 225.491 348.973 225.451 348.982 225.412C348.99 225.371 348.999 225.329 349.006 225.288C349.006 225.285 349.007 225.281 349.007 225.278C349.026 225.182 349.042 225.084 349.059 224.984C349.071 224.907 349.083 224.828 349.095 224.749C349.11 224.642 349.122 224.533 349.134 224.424C349.139 224.375 349.145 224.326 349.15 224.277C349.151 224.261 349.153 224.247 349.155 224.232C349.157 224.223 349.157 224.213 349.158 224.204C349.17 224.076 349.181 223.945 349.187 223.815C349.191 223.76 349.198 223.705 349.201 223.65C349.21 223.466 349.22 223.279 349.22 223.088L349.225 223.092C349.225 223.081 349.225 223.071 349.225 223.061C349.225 222.947 349.21 222.815 349.198 222.745C349.198 222.727 349.196 222.71 349.196 222.693H349.201C349.199 222.693 349.201 222.575 349.199 222.544C349.198 222.478 349.193 222.355 349.191 222.288C349.184 222.152 349.175 222.016 349.165 221.879C349.163 221.86 349.162 221.839 349.16 221.821C349.157 221.786 349.155 221.75 349.151 221.716C349.15 221.7 349.15 221.687 349.148 221.671C349.136 221.527 349.121 221.383 349.103 221.238C349.096 221.182 349.091 221.123 349.084 221.067C349.06 220.864 349.031 220.663 349 220.459C349 220.457 349 220.457 349 220.455C348.999 220.448 348.999 220.441 348.997 220.436C348.994 220.419 348.99 220.4 348.988 220.383C348.959 220.204 348.928 220.026 348.894 219.847C348.88 219.775 348.865 219.703 348.851 219.632C348.824 219.497 348.794 219.359 348.764 219.224C348.76 219.206 348.755 219.191 348.752 219.174C348.743 219.134 348.733 219.093 348.724 219.054C348.719 219.031 348.714 219.011 348.709 218.988C348.678 218.856 348.643 218.722 348.609 218.59C348.589 218.511 348.568 218.434 348.547 218.355C348.51 218.212 348.468 218.069 348.426 217.929C348.415 217.894 348.405 217.86 348.395 217.826C348.388 217.8 348.379 217.774 348.372 217.748C348.371 217.741 348.369 217.736 348.367 217.729C348.304 217.523 348.24 217.317 348.17 217.111C348.165 217.097 348.16 217.084 348.156 217.072C348.091 216.879 348.024 216.687 347.954 216.494C347.95 216.488 347.948 216.479 347.945 216.472C347.935 216.445 347.924 216.417 347.914 216.39C347.904 216.364 347.895 216.338 347.885 216.312C347.83 216.168 347.775 216.024 347.719 215.88C347.691 215.811 347.664 215.744 347.636 215.675C347.576 215.527 347.513 215.378 347.449 215.23C347.439 215.205 347.427 215.179 347.417 215.153C347.406 215.131 347.398 215.108 347.387 215.086C347.386 215.081 347.382 215.076 347.38 215.071C347.293 214.871 347.204 214.672 347.109 214.475C347.087 214.428 347.065 214.382 347.042 214.335C346.969 214.179 346.893 214.025 346.816 213.87C346.812 213.863 346.807 213.855 346.804 213.848C346.785 213.812 346.766 213.776 346.747 213.738C346.715 213.676 346.684 213.614 346.651 213.552C346.598 213.449 346.545 213.344 346.49 213.243C346.399 213.075 346.303 212.908 346.208 212.742C346.155 212.647 346.104 212.551 346.049 212.458C346.042 212.444 346.035 212.432 346.027 212.419C345.997 212.369 345.968 212.321 345.939 212.271C345.86 212.139 345.776 212.012 345.695 211.883C345.553 211.651 345.412 211.417 345.261 211.191C345.251 211.175 345.242 211.158 345.232 211.143C345.196 211.089 345.16 211.034 345.124 210.981C344.928 210.691 344.729 210.404 344.522 210.124C344.52 210.121 344.516 210.117 344.515 210.114C344.515 210.114 344.515 210.112 344.513 210.112C344.364 209.909 344.213 209.712 344.058 209.514C343.936 209.36 343.813 209.207 343.689 209.056C343.672 209.035 343.655 209.013 343.638 208.992C343.636 208.989 343.633 208.987 343.631 208.984L343.629 208.982C343.485 208.808 343.338 208.637 343.19 208.468C343.149 208.42 343.104 208.374 343.063 208.327C342.957 208.209 342.85 208.092 342.744 207.975C342.737 207.969 342.732 207.963 342.725 207.957C342.701 207.931 342.677 207.905 342.653 207.881C342.622 207.848 342.591 207.816 342.56 207.785C342.468 207.687 342.375 207.591 342.281 207.496C342.214 207.429 342.147 207.362 342.08 207.297C341.989 207.208 341.898 207.118 341.805 207.031C341.791 207.017 341.778 207.005 341.764 206.991C341.73 206.959 341.694 206.926 341.658 206.893C341.634 206.871 341.611 206.849 341.587 206.828C341.496 206.744 341.405 206.661 341.314 206.581C341.241 206.515 341.167 206.452 341.093 206.388C340.999 206.308 340.906 206.229 340.812 206.15C340.791 206.132 340.769 206.115 340.748 206.098C340.712 206.069 340.676 206.04 340.642 206.011C340.626 205.998 340.611 205.985 340.595 205.973C340.496 205.894 340.396 205.816 340.297 205.739C340.23 205.688 340.161 205.634 340.094 205.585C339.985 205.502 339.875 205.423 339.763 205.344C339.732 205.322 339.7 205.299 339.669 205.277C339.648 205.262 339.628 205.246 339.605 205.232C339.6 205.229 339.595 205.226 339.59 205.222C339.423 205.107 339.255 204.995 339.087 204.887C339.077 204.88 339.065 204.874 339.054 204.867C338.881 204.757 338.708 204.652 338.533 204.551C338.027 204.259 337.532 204.013 337.047 203.812C337.054 203.582 337.062 203.352 337.062 203.12C337.064 202.359 337.028 201.584 336.959 200.805C336.944 200.635 336.927 200.465 336.908 200.295C336.851 199.752 336.781 199.207 336.692 198.659C336.692 198.656 336.69 198.651 336.69 198.647C336.642 198.352 336.589 198.057 336.532 197.761V197.759C336.51 197.641 336.484 197.521 336.46 197.402V197.4C336.432 197.263 336.402 197.124 336.371 196.987C336.323 196.767 336.275 196.547 336.223 196.327C336.223 196.327 336.223 196.327 336.223 196.325C336.17 196.104 336.115 195.884 336.058 195.662C336.058 195.661 336.057 195.659 336.057 195.657C335.997 195.425 335.933 195.192 335.866 194.96C335.828 194.824 335.791 194.69 335.751 194.554C335.751 194.553 335.749 194.551 335.749 194.548C335.719 194.439 335.688 194.333 335.655 194.226C335.655 194.225 335.655 194.225 335.655 194.223C335.55 193.88 335.442 193.534 335.327 193.191C335.32 193.168 335.312 193.146 335.303 193.124C335.302 193.117 335.298 193.11 335.296 193.103C335.19 192.789 335.08 192.475 334.965 192.162V192.16C334.776 191.643 334.572 191.128 334.361 190.614C334.282 190.426 334.205 190.237 334.124 190.049C334.123 190.046 334.123 190.044 334.121 190.041C334.085 189.957 334.049 189.871 334.011 189.787V189.785C333.865 189.452 333.714 189.12 333.56 188.79C333.508 188.68 333.453 188.572 333.402 188.462C333.292 188.234 333.182 188.005 333.069 187.779C333.069 187.777 333.067 187.777 333.067 187.775C332.98 187.6 332.887 187.425 332.796 187.25C332.794 187.246 332.793 187.243 332.791 187.239C332.702 187.069 332.614 186.898 332.523 186.728C332.275 186.264 332.017 185.805 331.751 185.35C331.662 185.196 331.569 185.043 331.477 184.89C331.477 184.888 331.475 184.888 331.475 184.886C331.363 184.701 331.252 184.515 331.139 184.333C331.036 184.169 330.933 184.005 330.828 183.842C330.713 183.662 330.596 183.481 330.478 183.303C330.478 183.301 330.476 183.299 330.476 183.299C330.399 183.183 330.32 183.069 330.243 182.952C330.241 182.951 330.241 182.949 330.239 182.949C329.91 182.461 329.575 181.977 329.227 181.506C329.227 181.506 329.227 181.506 329.225 181.505C329.217 181.493 329.208 181.482 329.199 181.47C328.959 181.146 328.714 180.824 328.467 180.507C328.467 180.505 328.465 180.505 328.465 180.503C328.268 180.251 328.065 180.002 327.863 179.754C327.852 179.742 327.842 179.729 327.832 179.715C327.804 179.682 327.779 179.648 327.751 179.615C327.751 179.615 327.751 179.614 327.749 179.614C327.509 179.323 327.264 179.038 327.017 178.757L327.015 178.755C326.945 178.676 326.874 178.599 326.804 178.521C326.802 178.519 326.8 178.518 326.799 178.516C326.624 178.32 326.449 178.126 326.27 177.936C326.27 177.936 326.27 177.936 326.269 177.934C326.169 177.826 326.066 177.721 325.965 177.616C325.963 177.614 325.961 177.613 325.96 177.611C325.822 177.467 325.683 177.324 325.544 177.182C325.15 176.781 324.748 176.393 324.34 176.019C324.338 176.017 324.338 176.017 324.336 176.015C324.185 175.876 324.034 175.739 323.882 175.603L323.88 175.601C323.758 175.493 323.634 175.387 323.513 175.28C323.356 175.146 323.2 175.014 323.044 174.883L323.042 174.882C322.924 174.784 322.804 174.686 322.684 174.588L322.682 174.586C322.517 174.454 322.351 174.325 322.184 174.196C322.073 174.111 321.961 174.025 321.85 173.941L321.848 173.939C321.665 173.801 321.479 173.669 321.294 173.537C321.29 173.533 321.287 173.532 321.284 173.528C321.194 173.465 321.105 173.399 321.014 173.336C321.012 173.334 321.011 173.333 321.007 173.331C320.729 173.138 320.45 172.951 320.168 172.771C320.149 172.759 320.13 172.747 320.112 172.735C319.823 172.553 319.533 172.374 319.242 172.206C318.979 172.055 318.718 171.912 318.459 171.775C318.361 171.723 318.263 171.668 318.166 171.618C317.97 171.519 317.774 171.416 317.58 171.323C317.495 171.282 317.407 171.223 317.321 171.184C317.198 171.127 316.817 170.983 316.427 170.84C308.628 167.752 302.492 171.421 301.455 179.887C301.138 179.643 300.817 179.411 300.491 179.189C300.491 179.189 300.491 179.189 300.489 179.189C300.46 179.169 300.431 179.152 300.402 179.131C300.398 179.129 300.395 179.126 300.39 179.124C300.076 178.915 299.76 178.714 299.439 178.528C299.437 178.528 299.437 178.526 299.435 178.526C299.259 178.423 299.082 178.329 298.907 178.236C298.84 178.202 298.775 178.167 298.708 178.133C298.576 178.066 298.444 178.001 298.311 177.939C298.287 177.927 298.263 177.917 298.239 177.905C298.212 177.893 298.184 177.879 298.157 177.867C298.148 177.863 298.142 177.86 298.133 177.855C297.955 177.774 297.776 177.697 297.599 177.625C297.591 177.621 297.582 177.618 297.574 177.614C297.388 177.54 297.205 177.472 297.021 177.41C297.016 177.408 297.011 177.407 297.006 177.405C296.982 177.396 296.959 177.389 296.935 177.382C296.906 177.374 296.879 177.364 296.849 177.355C296.724 177.314 296.601 177.274 296.477 177.24C296.405 177.219 296.335 177.2 296.264 177.182C296.151 177.152 296.039 177.123 295.93 177.097C295.909 177.092 295.89 177.089 295.87 177.084C295.834 177.075 295.799 177.068 295.763 177.06C295.748 177.056 295.731 177.053 295.715 177.049C295.61 177.027 295.508 177.01 295.405 176.991C295.322 176.977 295.242 176.962 295.159 176.95C295.061 176.936 294.967 176.926 294.871 176.915C294.835 176.912 294.801 176.908 294.764 176.905C294.725 176.902 294.687 176.896 294.648 176.893C294.636 176.891 294.624 176.89 294.612 176.89C294.528 176.883 294.444 176.879 294.361 176.876C294.258 176.871 294.155 176.866 294.052 176.866C293.979 176.866 293.906 176.867 293.833 176.869C293.798 176.869 293.764 176.872 293.731 176.874C293.668 176.876 293.604 176.879 293.541 176.883C293.512 176.884 293.483 176.884 293.455 176.886C293.388 176.891 293.323 176.896 293.256 176.903C293.064 176.924 292.873 176.95 292.688 176.986C292.671 176.989 292.654 176.991 292.637 176.994C292.63 176.996 292.623 176.998 292.616 176.999C292.583 177.006 292.551 177.015 292.518 177.024C292.403 177.049 292.287 177.077 292.175 177.108C292.12 177.123 292.067 177.142 292.014 177.159C291.923 177.187 291.834 177.216 291.744 177.249C291.739 177.25 291.734 177.254 291.729 177.255C291.695 177.269 291.66 177.285 291.626 177.298C291.559 177.326 291.492 177.352 291.427 177.379C291.375 177.401 291.322 177.422 291.272 177.444C291.127 177.513 290.984 177.587 290.845 177.668C290.84 177.669 290.837 177.671 290.831 177.674L305.898 168.91C306.045 168.824 306.196 168.747 306.349 168.675C306.399 168.65 306.452 168.632 306.504 168.609C306.608 168.563 306.715 168.518 306.823 168.479C306.84 168.472 306.857 168.463 306.874 168.458C306.945 168.432 307.018 168.412 307.091 168.389C307.144 168.372 307.197 168.353 307.252 168.338C307.365 168.305 307.48 168.279 307.595 168.254C307.633 168.245 307.669 168.235 307.707 168.228C307.71 168.226 307.715 168.226 307.719 168.225C307.734 168.221 307.749 168.221 307.765 168.218C307.95 168.182 308.141 168.156 308.333 168.135C308.36 168.132 308.388 168.127 308.415 168.123C308.453 168.12 308.492 168.12 308.532 168.118C308.657 168.109 308.782 168.103 308.909 168.101C308.954 168.099 308.995 168.094 309.04 168.094C309.069 168.094 309.098 168.097 309.127 168.097C309.229 168.097 309.332 168.103 309.435 168.108C309.493 168.111 309.55 168.109 309.608 168.113C309.634 168.115 309.661 168.12 309.687 168.121C309.773 168.128 309.858 168.139 309.944 168.147C310.011 168.154 310.076 168.159 310.143 168.168C310.172 168.171 310.203 168.178 310.233 168.183C310.313 168.195 310.396 168.209 310.478 168.223C310.543 168.235 310.607 168.242 310.672 168.255C310.71 168.262 310.749 168.273 310.788 168.281C310.859 168.297 310.931 168.312 311.003 168.329C311.013 168.331 311.024 168.334 311.034 168.336L321.591 162.196C321.809 162.069 322.032 161.954 322.262 161.847C322.337 161.813 322.414 161.784 322.49 161.749C322.646 161.681 322.804 161.615 322.965 161.557C322.993 161.547 323.018 161.535 323.046 161.524C323.145 161.488 323.25 161.461 323.351 161.428C323.435 161.402 323.518 161.373 323.604 161.349C323.756 161.306 323.911 161.27 324.067 161.236C324.137 161.22 324.208 161.2 324.28 161.186C324.29 161.184 324.299 161.181 324.309 161.179C324.51 161.14 324.714 161.109 324.918 161.081C324.973 161.074 325.03 161.068 325.085 161.062C325.165 161.052 325.246 161.042 325.328 161.033C325.385 161.028 325.443 161.03 325.498 161.025C325.675 161.011 325.855 161.004 326.037 160.999C326.104 160.997 326.167 160.99 326.234 160.99C326.277 160.99 326.322 160.994 326.365 160.994C326.517 160.995 326.672 161.001 326.828 161.009C326.912 161.013 326.996 161.011 327.08 161.018C327.118 161.019 327.156 161.026 327.193 161.03C327.327 161.04 327.463 161.056 327.598 161.071C327.696 161.081 327.792 161.088 327.892 161.1C327.933 161.105 327.974 161.114 328.015 161.121C328.127 161.136 328.239 161.157 328.35 161.176C328.45 161.193 328.547 161.205 328.649 161.226C328.705 161.236 328.764 161.251 328.82 161.263C328.928 161.286 329.038 161.311 329.148 161.335C329.232 161.354 329.313 161.37 329.397 161.39C329.477 161.411 329.56 161.437 329.64 161.457C329.743 161.485 329.846 161.512 329.949 161.543C330.009 161.56 330.068 161.574 330.13 161.593C330.251 161.629 330.373 161.672 330.495 161.713C330.583 161.743 330.668 161.768 330.756 161.799C330.787 161.81 330.818 161.818 330.849 161.83C331.087 161.914 331.327 162.005 331.569 162.101C331.806 162.196 332.045 162.297 332.285 162.405C332.319 162.421 332.355 162.44 332.391 162.455C332.477 162.495 332.563 162.536 332.649 162.577C332.769 162.634 332.887 162.687 333.007 162.746C333.083 162.783 333.158 162.825 333.234 162.862C333.332 162.912 333.428 162.962 333.526 163.014C333.598 163.051 333.668 163.086 333.74 163.125C333.929 163.228 334.119 163.333 334.31 163.445C334.368 163.479 334.426 163.513 334.485 163.548C334.716 163.685 334.948 163.828 335.178 163.974C335.197 163.986 335.216 163.996 335.235 164.008C335.236 164.01 335.24 164.01 335.242 164.011C335.495 164.173 335.749 164.341 336.002 164.515C336.026 164.532 336.051 164.551 336.075 164.568C336.172 164.633 336.266 164.704 336.36 164.771C336.499 164.87 336.64 164.966 336.779 165.068C336.825 165.102 336.87 165.138 336.916 165.172C337.03 165.257 337.141 165.344 337.254 165.43C337.357 165.509 337.462 165.586 337.565 165.667C337.628 165.717 337.69 165.77 337.754 165.822C337.874 165.92 337.994 166.017 338.114 166.117C338.196 166.184 338.279 166.249 338.359 166.318C338.435 166.382 338.509 166.45 338.584 166.514C338.708 166.62 338.83 166.727 338.953 166.835C339.02 166.895 339.089 166.952 339.156 167.012C339.242 167.089 339.326 167.17 339.41 167.249C339.532 167.361 339.653 167.474 339.773 167.587C339.828 167.641 339.885 167.69 339.942 167.744C340.039 167.838 340.136 167.936 340.232 168.03C340.345 168.14 340.456 168.25 340.568 168.364C340.611 168.407 340.654 168.448 340.695 168.491C340.808 168.608 340.92 168.728 341.033 168.846C341.136 168.954 341.239 169.061 341.342 169.171C341.369 169.202 341.399 169.229 341.428 169.26C341.577 169.422 341.725 169.588 341.872 169.753C341.944 169.834 342.016 169.911 342.088 169.994C342.1 170.007 342.111 170.019 342.123 170.031C342.356 170.298 342.584 170.567 342.812 170.84C342.814 170.844 342.814 170.847 342.818 170.849C342.854 170.892 342.881 170.937 342.917 170.979C343.111 171.215 343.293 171.452 343.482 171.692C343.494 171.706 343.482 171.721 343.492 171.737C343.748 172.062 343.952 172.391 344.199 172.726C344.202 172.73 344.117 172.733 344.117 172.738C344.415 173.212 344.894 173.697 345.225 174.186C345.263 174.243 345.397 174.296 345.435 174.353C345.474 174.413 345.512 174.473 345.551 174.533C345.67 174.713 345.786 174.894 345.903 175.076C346.008 175.239 346.112 175.404 346.215 175.569C346.329 175.753 346.44 175.938 346.552 176.124C346.62 176.239 346.692 176.352 346.761 176.469C346.783 176.507 346.804 176.548 346.826 176.586C347.092 177.041 347.35 177.501 347.598 177.965C347.612 177.99 347.628 178.016 347.641 178.042C347.719 178.186 347.791 178.331 347.864 178.475C347.957 178.653 348.051 178.832 348.142 179.012C348.16 179.047 348.178 179.081 348.196 179.115C348.305 179.334 348.408 179.555 348.515 179.775C348.554 179.859 348.595 179.942 348.635 180.024C348.64 180.036 348.647 180.048 348.652 180.06C348.786 180.347 348.918 180.636 349.045 180.924C349.059 180.955 349.071 180.986 349.084 181.017C349.124 181.106 349.16 181.194 349.198 181.283C349.268 181.448 349.34 181.611 349.409 181.778C349.443 181.86 349.476 181.943 349.508 182.025C349.555 182.138 349.601 182.253 349.646 182.367C349.683 182.46 349.721 182.552 349.759 182.647C349.816 182.793 349.869 182.94 349.924 183.086C349.961 183.19 350.001 183.291 350.039 183.394C350.054 183.437 350.071 183.48 350.087 183.524C350.184 183.796 350.279 184.067 350.37 184.339C350.38 184.368 350.39 184.397 350.401 184.426C350.402 184.43 350.404 184.433 350.404 184.436C350.507 184.746 350.607 185.053 350.701 185.362C350.711 185.393 350.718 185.424 350.728 185.457C350.763 185.568 350.794 185.68 350.826 185.792C350.876 185.963 350.929 186.137 350.977 186.309C350.994 186.374 351.01 186.437 351.029 186.501C351.065 186.633 351.097 186.764 351.132 186.896C351.163 187.016 351.197 187.138 351.226 187.258C351.25 187.358 351.272 187.458 351.296 187.559C351.327 187.689 351.358 187.822 351.387 187.952C351.406 188.033 351.427 188.115 351.444 188.196C351.477 188.342 351.502 188.488 351.533 188.634C351.557 188.754 351.583 188.875 351.607 188.995C351.616 189.039 351.626 189.086 351.634 189.13C351.681 189.381 351.724 189.632 351.765 189.883C351.772 189.927 351.78 189.972 351.787 190.017C351.789 190.024 351.789 190.03 351.791 190.037C351.839 190.338 351.882 190.638 351.919 190.937C351.923 190.968 351.926 190.999 351.93 191.032C351.942 191.128 351.952 191.224 351.964 191.32C351.983 191.485 352.007 191.65 352.022 191.815C352.029 191.891 352.039 191.966 352.046 192.043C352.057 192.159 352.077 192.274 352.084 192.389C352.091 192.488 352.124 192.588 352.13 192.686C352.139 192.815 352.187 192.943 352.192 193.072C352.197 193.18 352.292 193.29 352.297 193.399C352.299 193.45 352.482 193.502 352.482 193.551V193.553C352.482 193.567 352.369 193.581 352.369 193.594L352.34 193.55C352.348 193.819 352.482 194.089 352.482 194.357C352.482 194.364 352.482 194.371 352.482 194.378L352.3 194.659C352.299 194.766 352.268 194.932 352.235 195.099C352.295 195.125 352.353 195.149 352.414 195.176C352.556 195.24 352.698 195.307 352.841 195.377C352.844 195.379 352.848 195.381 352.851 195.382C352.86 195.388 352.868 195.391 352.879 195.396C353.009 195.461 353.139 195.528 353.272 195.6C353.383 195.661 353.496 195.724 353.608 195.789C353.642 195.81 353.678 195.831 353.713 195.851C353.853 195.934 353.992 196.02 354.131 196.109C354.142 196.116 354.152 196.121 354.162 196.128C354.164 196.129 354.166 196.129 354.167 196.131C354.32 196.229 354.471 196.329 354.622 196.432C354.637 196.442 354.651 196.452 354.667 196.463C354.723 196.502 354.78 196.543 354.838 196.585C354.922 196.645 355.006 196.701 355.089 196.763C355.116 196.784 355.144 196.806 355.171 196.827C355.238 196.877 355.307 196.93 355.374 196.981C355.435 197.029 355.499 197.074 355.561 197.124C355.598 197.153 355.636 197.186 355.674 197.217C355.746 197.275 355.818 197.333 355.89 197.394C355.94 197.435 355.99 197.474 356.039 197.516C356.084 197.553 356.129 197.595 356.175 197.634C356.249 197.698 356.321 197.761 356.395 197.826C356.436 197.862 356.477 197.897 356.516 197.933C356.568 197.979 356.618 198.027 356.667 198.074C356.741 198.141 356.813 198.208 356.885 198.276C356.918 198.307 356.952 198.338 356.987 198.371C357.045 198.428 357.102 198.486 357.16 198.543C357.227 198.608 357.294 198.675 357.361 198.742C357.386 198.768 357.412 198.792 357.438 198.819C357.507 198.89 357.574 198.962 357.64 199.032C357.702 199.096 357.762 199.159 357.824 199.225C357.841 199.243 357.858 199.261 357.876 199.279C357.966 199.377 358.054 199.477 358.143 199.577C358.186 199.623 358.229 199.669 358.27 199.717C358.277 199.726 358.284 199.733 358.293 199.741C358.432 199.901 358.571 200.063 358.706 200.226C358.708 200.228 358.71 200.229 358.711 200.231C358.732 200.255 358.751 200.279 358.77 200.305C358.888 200.447 359.005 200.592 359.12 200.738C359.127 200.746 359.133 200.755 359.14 200.763C359.295 200.959 359.446 201.158 359.595 201.361L359.597 201.363C359.806 201.646 360.007 201.937 360.204 202.23C360.226 202.265 360.252 202.297 360.275 202.332C360.288 202.352 360.3 202.373 360.312 202.393C360.558 202.763 360.793 203.139 361.019 203.522C361.035 203.548 361.052 203.573 361.067 203.599C361.081 203.621 361.093 203.645 361.107 203.67C361.266 203.943 361.421 204.217 361.57 204.496C361.579 204.511 361.587 204.527 361.596 204.542C361.642 204.628 361.685 204.715 361.73 204.803C361.785 204.91 361.841 205.016 361.894 205.124C361.905 205.145 361.915 205.165 361.925 205.186C361.992 205.322 362.057 205.459 362.123 205.597C362.143 205.641 362.167 205.686 362.188 205.731C362.191 205.737 362.195 205.744 362.196 205.749C362.277 205.923 362.356 206.095 362.433 206.27C362.442 206.289 362.45 206.309 362.459 206.328C362.483 206.382 362.505 206.435 362.528 206.49C362.571 206.588 362.613 206.686 362.653 206.783C362.673 206.833 362.692 206.883 362.713 206.933C362.74 207.002 362.768 207.07 362.795 207.139C362.818 207.194 362.84 207.251 362.862 207.306C362.897 207.393 362.927 207.481 362.96 207.568C362.984 207.63 363.006 207.692 363.03 207.756C363.039 207.781 363.049 207.807 363.06 207.831C363.12 207.994 363.176 208.159 363.231 208.324C363.236 208.34 363.243 208.357 363.248 208.372C363.248 208.374 363.25 208.376 363.25 208.379C363.312 208.565 363.37 208.748 363.429 208.934C363.434 208.953 363.439 208.972 363.446 208.99C363.466 209.057 363.485 209.124 363.504 209.191C363.535 209.294 363.566 209.398 363.593 209.499C363.604 209.538 363.614 209.576 363.624 209.614C363.646 209.693 363.665 209.772 363.686 209.851C363.705 209.923 363.725 209.995 363.743 210.067C363.758 210.127 363.77 210.188 363.785 210.249C363.804 210.328 363.823 210.406 363.84 210.485C363.851 210.533 363.864 210.583 363.875 210.631C363.894 210.718 363.911 210.806 363.928 210.894C363.943 210.966 363.959 211.038 363.972 211.11C363.978 211.137 363.985 211.163 363.99 211.191C364.019 211.342 364.043 211.495 364.069 211.646C364.072 211.672 364.077 211.696 364.082 211.721C364.082 211.725 364.084 211.728 364.084 211.733C364.113 211.914 364.137 212.092 364.161 212.273C364.163 212.292 364.165 212.31 364.168 212.329C364.175 212.388 364.182 212.444 364.187 212.503C364.199 212.601 364.211 212.7 364.221 212.798C364.226 212.845 364.23 212.889 364.233 212.934C364.24 213.003 364.247 213.073 364.252 213.142C364.257 213.2 364.269 213.26 364.273 213.319C364.278 213.396 364.292 213.472 364.295 213.549C364.299 213.614 364.326 213.678 364.329 213.745C364.331 213.776 364.383 213.803 364.383 213.832L364.479 213.827C364.475 213.954 364.676 214.102 364.676 214.262ZM290.809 177.664C290.811 177.664 290.811 177.662 290.813 177.662L290.802 177.668C290.804 177.668 290.807 177.666 290.809 177.664Z" fill="url(#paint7_linear)"/>
<path d="M604.439 212.706L616.386 240.298L640.244 233.396L604.439 212.706Z" fill="#D6219C"/>
<path d="M487.497 143.771L487.418 176.545L474.312 184.118L469.864 195.127L464.913 189.549L449.654 198.367L449.742 165.589L487.497 143.771Z" fill="white"/>
<path d="M463.411 176.607C464.18 174.799 463.974 172.981 462.952 172.545C461.93 172.11 460.479 173.223 459.71 175.03C458.941 176.838 459.147 178.656 460.169 179.092C461.191 179.527 462.643 178.415 463.411 176.607Z" fill="#D6219C"/>
<path d="M471.872 171.683C472.641 169.875 472.435 168.056 471.413 167.621C470.391 167.186 468.94 168.298 468.171 170.106C467.402 171.914 467.608 173.732 468.63 174.167C469.652 174.603 471.104 173.49 471.872 171.683Z" fill="#D6219C"/>
<path d="M480.333 166.795C481.102 164.987 480.896 163.168 479.874 162.733C478.852 162.298 477.401 163.41 476.632 165.218C475.863 167.026 476.069 168.844 477.091 169.279C478.113 169.715 479.565 168.602 480.333 166.795Z" fill="#D6219C"/>
<path d="M487.497 143.771L481.155 140.122C479.188 138.991 476.767 138.994 474.804 140.133L445.042 157.387C442.107 159.088 440.297 162.222 440.288 165.616L440.223 189.229C440.216 191.508 441.43 193.615 443.401 194.754L449.654 198.366L449.742 165.588L487.497 143.771ZM462.341 191.065L464.913 189.55L469.862 195.129L462.341 191.065Z" fill="#D6219C"/>
<path d="M527.887 238.021C525.711 229.55 523.173 221.058 520.341 212.783L520.947 212.575C523.782 220.868 526.325 229.375 528.506 237.861L527.887 238.021Z" fill="url(#paint8_linear)"/>
<path d="M510.553 199.215L510.529 335.902L574.219 299.099L574.256 162.396L510.553 199.215ZM515.08 322.759L515.101 201.844L519.65 199.215L519.648 204.472L565.141 178.183L565.143 172.926L569.705 170.305L569.671 291.213L515.08 322.759Z" fill="#D6219C"/>
<path d="M574.258 162.395L566.677 158.033C565.73 157.488 564.566 157.49 563.621 158.036L504.52 192.188C502.625 193.282 501.459 195.305 501.459 197.495L501.435 330.644L510.531 335.902L510.555 199.214L574.258 162.395Z" fill="url(#paint9_linear)"/>
<path d="M515.08 322.759L515.102 201.844L519.652 199.214L519.65 204.472L565.143 178.183V172.925L569.705 170.304L569.671 291.213L515.08 322.759Z" fill="white"/>
<path d="M426.698 235.4L426.78 268.766L440.124 276.476L444.652 287.687L449.692 282.007L465.227 290.985L465.138 257.613L426.698 235.4Z" fill="white"/>
<path d="M458.904 264.84L430.073 248.18L430.068 246.435L458.897 263.095L458.904 264.84Z" fill="#D6219C"/>
<path d="M458.904 270.425L430.073 253.765L430.068 252.02L458.897 268.68L458.904 270.425Z" fill="#D6219C"/>
<path d="M458.904 275.95L430.073 259.29L430.068 257.545L458.897 274.205L458.904 275.95Z" fill="#D6219C"/>
<path d="M444.486 273.172L430.073 264.85L430.068 263.105L444.479 271.427L444.486 273.172Z" fill="#D6219C"/>
<path d="M426.698 235.399L433.155 231.684C435.158 230.532 437.622 230.535 439.621 231.695L469.922 249.262C472.91 250.993 474.753 254.184 474.763 257.64L474.828 281.68C474.835 284.001 473.599 286.146 471.592 287.307L465.225 290.984L465.136 257.612L426.698 235.399ZM452.589 283.716L449.692 282.005L444.654 287.685L452.589 283.716Z" fill="url(#paint10_linear)"/>
<path d="M566.02 245.492L566.42 241.861C566.552 240.018 565.719 239.881 564.16 239.917C562.116 239.967 561.519 239.206 561.28 238.15C561.043 237.095 561.208 237.854 560.748 235.759C560.288 233.665 561.026 232.743 562.123 231.458C563.218 230.173 563.173 229.124 562.474 228.257C561.774 227.389 561.776 227.37 560.611 226.251C559.444 225.132 558.589 225.517 556.848 227.194C555.981 228.028 555.176 228.296 554.512 228.353C553.905 228.001 553.273 227.681 552.599 227.431L547.779 234.359C552.654 235.421 555.344 240.484 553.888 246.571C552.247 253.426 545.968 259.002 539.892 259.002C533.816 259.002 530.207 253.426 531.847 246.571C532.963 241.908 536.228 237.854 540.113 235.733L540.352 240.401L547.561 229.926C548.29 228.866 548.223 227.563 547.411 227.025L539.394 221.721L539.739 228.451C533.62 231.309 528.288 237.179 525.867 244.151C525.364 245.133 524.529 245.954 522.684 246.487C521.078 246.954 520.184 247.364 519.909 249.228L519.509 252.859C519.377 254.7 520.211 254.837 521.769 254.803C523.811 254.755 524.412 255.516 524.65 256.572C524.889 257.625 524.722 256.868 525.182 258.961C525.642 261.053 524.904 261.977 523.808 263.264C522.713 264.548 522.756 265.596 523.456 266.465C524.156 267.331 524.153 267.351 525.321 268.471C526.488 269.589 527.344 269.205 529.083 267.53C530.821 265.854 532.371 266.393 532.868 266.525C533.368 266.658 534.601 266.999 535.269 267.353C535.938 267.707 536.592 268.025 536.34 270.481C536.088 272.939 537.625 272.616 538.344 272.502L542.13 271.903C542.85 271.788 544.369 271.626 544.657 269.163C544.946 266.702 545.695 266.161 546.464 265.579C547.236 264.998 548.59 264.246 549.134 263.947C549.68 263.648 551.405 262.59 552.829 263.765C554.258 264.937 555.056 265.062 556.515 263.526C557.972 261.991 557.975 261.97 558.893 260.849C559.811 259.724 560.091 258.626 559.245 257.647C558.397 256.668 557.84 255.952 558.785 253.637C559.729 251.32 559.389 252.158 559.87 250.99C560.353 249.819 561.141 248.84 563.247 248.23C564.853 247.768 565.743 247.358 566.02 245.492Z" fill="url(#paint11_linear)"/>
<path d="M858.443 113.955C857.215 111.496 816.906 93.1525 816.906 93.1525V93.2332C816.032 92.4758 814.91 92 813.671 92L777.381 109.701C773.53 111.132 772.412 113.55 772.412 116.286V231.724C772.412 234.46 772.412 239.12 777.381 240.542L821.402 259.342C824.774 258.014 817.939 252.96 817.939 250.224L818.474 133.164L858.443 113.955Z" fill="url(#paint12_linear)"/>
<path d="M854.85 243.728L821.402 259.344C818.697 259.344 816.485 257.13 816.485 254.423V136.402C816.485 133.695 817.59 131.303 821.402 129.887L854.85 112.373C856.629 111.496 859.766 114.587 859.766 117.294V237.213C859.766 239.92 858.186 242.414 854.85 243.728Z" fill="white"/>
<path d="M829.494 235.288V256.391L850.58 245.84V224.908L829.494 235.288Z" fill="black"/>
<path d="M835.025 222.834L829.494 224.909V204.152L835.025 202.076V222.834Z" fill="black"/>
<path d="M850.9 214.545L845.371 216.62V195.863L850.9 193.787V214.545Z" fill="black"/>
<path d="M834.866 191.712L829.335 193.787V173.028L834.866 170.954V191.712Z" fill="black"/>
<path d="M850.74 183.423L845.209 185.498V164.741L850.74 162.665V183.423Z" fill="black"/>
<path d="M834.866 159.162L829.335 161.237V140.479L834.866 138.404V159.162Z" fill="black"/>
<path d="M850.74 150.874L845.209 152.949V132.193L850.74 130.116V150.874Z" fill="black"/>
<path d="M710.637 133.62L710.704 160.96L721.637 167.279L725.348 176.464L729.477 171.81L742.208 179.166L742.134 151.821L710.637 133.62Z" fill="#FFA68C"/>
<path d="M732.972 157.659C732.972 155.218 731.49 152.384 729.661 151.326C728.289 150.534 727.114 150.965 726.611 152.26C726.108 150.385 724.933 148.593 723.562 147.802C721.733 146.745 720.25 147.867 720.25 150.307C720.25 151.541 720.631 152.873 721.242 154.028L726.611 164.907L732.107 160.135L732.097 160.123C732.636 159.649 732.972 158.806 732.972 157.659Z" fill="white"/>
<path d="M742.134 151.82L742.208 179.165L747.424 176.153C749.07 175.203 750.081 173.444 750.076 171.543L750.023 151.844C750.014 149.012 748.504 146.398 746.057 144.979L721.228 130.585C719.589 129.635 717.57 129.631 715.929 130.576L710.639 133.619L742.134 151.82ZM725.348 176.464L729.477 171.809L731.632 173.063L725.348 176.464Z" fill="url(#paint13_linear)"/>
<path d="M604 213.75L604.067 241.09L615 247.409L618.711 256.594L622.84 251.94L635.571 259.296L635.497 231.951L604 213.75Z" fill="#FFA68C"/>
<path d="M635.497 231.95L635.571 259.295L640.787 256.283C642.433 255.333 643.444 253.574 643.439 251.673L643.385 231.974C643.377 229.142 641.867 226.528 639.42 225.109L614.591 210.715C612.952 209.765 610.932 209.761 609.292 210.706L604.001 213.75L635.497 231.95ZM618.711 256.594L622.84 251.939L624.995 253.193L618.711 256.594Z" fill="url(#paint14_linear)"/>
<path d="M629.828 242.42L629.814 243.032C629.787 244.221 628.935 244.681 627.913 244.059C627.009 243.509 626.527 244.504 627.149 245.636C627.853 246.917 627.821 248.281 627.078 248.682L626.696 248.888C625.953 249.289 624.781 248.576 624.077 247.294C623.455 246.162 622.35 246.024 622.326 247.075C622.299 248.264 621.447 248.724 620.424 248.102L619.898 247.781C618.875 247.159 618.068 245.689 618.096 244.5C618.12 243.449 617.04 242.258 616.384 242.612C615.641 243.013 614.468 242.299 613.764 241.018L613.402 240.358C612.699 239.077 612.73 237.713 613.473 237.312C614.129 236.958 613.706 235.412 612.803 234.862C611.78 234.24 610.972 232.77 611 231.581L611.014 230.968C611.042 229.779 611.894 229.319 612.916 229.941C613.82 230.491 614.302 229.496 613.68 228.364C612.976 227.083 613.008 225.719 613.75 225.318L614.133 225.112C614.875 224.711 616.048 225.424 616.752 226.706C617.374 227.838 618.478 227.976 618.503 226.925C618.53 225.736 619.382 225.276 620.405 225.898L620.931 226.219C621.954 226.841 622.761 228.311 622.733 229.5C622.709 230.551 623.789 231.742 624.445 231.388C625.188 230.987 626.36 231.701 627.064 232.982L627.426 233.642C628.13 234.923 628.099 236.287 627.356 236.688C626.7 237.042 627.123 238.588 628.026 239.138C629.049 239.761 629.856 241.23 629.828 242.42ZM625.01 239.798C625.079 236.845 623.076 233.2 620.537 231.654C617.998 230.109 615.885 231.25 615.817 234.203C615.749 237.156 617.751 240.801 620.29 242.347C622.829 243.892 624.942 242.75 625.01 239.798Z" fill="white"/>
<path d="M882.17 176.782L882.256 212.079L896.372 220.236L901.163 232.094L906.493 226.084L922.927 235.582L922.833 200.279L882.17 176.782Z" fill="white"/>
<path d="M922.833 200.279L922.927 235.582L929.661 231.691C931.785 230.465 933.091 228.194 933.084 225.74L933.016 200.308C933.005 196.653 931.056 193.278 927.895 191.446L895.84 172.862C893.726 171.636 891.118 171.632 889 172.85L882.17 176.78L922.833 200.279ZM901.163 232.093L906.493 226.085L909.276 227.703L901.163 232.093Z" fill="url(#paint15_linear)"/>
<path d="M906.669 202.667C908.494 200.672 908.046 197.288 905.669 195.11C903.292 192.931 899.886 192.782 898.06 194.778C896.235 196.773 896.682 200.156 899.059 202.335C901.437 204.513 904.843 204.662 906.669 202.667Z" fill="#D6219C"/>
<path d="M893.707 213.31L906.443 218.698C908.178 219.431 909.954 218.695 910.392 217.058L910.429 216.915C911.205 214.011 908.907 208.834 902.876 205.865L902.359 205.646C897.822 203.8 892.418 204.987 891.348 209.002C890.91 210.639 891.972 212.577 893.707 213.31Z" fill="#D6219C"/>
</g>
<defs>
<filter id="filter0_ddd" x="0" y="0" width="1056" height="474.608" filterUnits="userSpaceOnUse" color-interpolation-filters="sRGB">
<feFlood flood-opacity="0" result="BackgroundImageFix"/>
<feColorMatrix in="SourceAlpha" type="matrix" values="0 0 0 0 0 0 0 0 0 0 0 0 0 0 0 0 0 0 127 0"/>
<feOffset dy="2"/>
<feGaussianBlur stdDeviation="8"/>
<feColorMatrix type="matrix" values="0 0 0 0 0.0745098 0 0 0 0 0.0784314 0 0 0 0 0.0823529 0 0 0 0.1 0"/>
<feBlend mode="normal" in2="BackgroundImageFix" result="effect1_dropShadow"/>
<feColorMatrix in="SourceAlpha" type="matrix" values="0 0 0 0 0 0 0 0 0 0 0 0 0 0 0 0 0 0 127 0"/>
<feOffset dy="8"/>
<feGaussianBlur stdDeviation="4"/>
<feColorMatrix type="matrix" values="0 0 0 0 0.0745098 0 0 0 0 0.0784314 0 0 0 0 0.0823529 0 0 0 0.05 0"/>
<feBlend mode="normal" in2="effect1_dropShadow" result="effect2_dropShadow"/>
<feColorMatrix in="SourceAlpha" type="matrix" values="0 0 0 0 0 0 0 0 0 0 0 0 0 0 0 0 0 0 127 0"/>
<feOffset dy="4"/>
<feGaussianBlur stdDeviation="2"/>
<feColorMatrix type="matrix" values="0 0 0 0 0.0745098 0 0 0 0 0.0784314 0 0 0 0 0.0823529 0 0 0 0.05 0"/>
<feBlend mode="normal" in2="effect2_dropShadow" result="effect3_dropShadow"/>
<feBlend mode="normal" in="SourceGraphic" in2="effect3_dropShadow" result="shape"/>
</filter>
<filter id="filter1_i" x="99" y="92" width="858" height="291" filterUnits="userSpaceOnUse" color-interpolation-filters="sRGB">
<feFlood flood-opacity="0" result="BackgroundImageFix"/>
<feBlend mode="normal" in="SourceGraphic" in2="BackgroundImageFix" result="shape"/>
<feColorMatrix in="SourceAlpha" type="matrix" values="0 0 0 0 0 0 0 0 0 0 0 0 0 0 0 0 0 0 127 0" result="hardAlpha"/>
<feOffset dy="4"/>
<feGaussianBlur stdDeviation="2"/>
<feComposite in2="hardAlpha" operator="arithmetic" k2="-1" k3="1"/>
<feColorMatrix type="matrix" values="0 0 0 0 0 0 0 0 0 0 0 0 0 0 0 0 0 0 0.25 0"/>
<feBlend mode="normal" in2="shape" result="effect1_innerShadow"/>
</filter>
<linearGradient id="paint0_linear" x1="65.7169" y1="437.256" x2="1000.17" y2="437.256" gradientUnits="userSpaceOnUse">
<stop stop-color="#D5279B"/>
<stop offset="1" stop-color="#FEA18C"/>
</linearGradient>
<linearGradient id="paint1_linear" x1="617.548" y1="260.561" x2="643.948" y2="186.117" gradientUnits="userSpaceOnUse">
<stop offset="0.00080112" stop-color="#871FFF"/>
<stop offset="0.9984" stop-color="#FFA68C"/>
</linearGradient>
<linearGradient id="paint2_linear" x1="818.747" y1="315.391" x2="818.747" y2="151.268" gradientUnits="userSpaceOnUse">
<stop offset="0.00080112" stop-color="#871FFF"/>
<stop offset="1" stop-color="#FFA68C"/>
</linearGradient>
<linearGradient id="paint3_linear" x1="526.524" y1="379" x2="526.524" y2="214.877" gradientUnits="userSpaceOnUse">
<stop offset="0.00080112" stop-color="#871FFF"/>
<stop offset="0.9984" stop-color="#FFA68C"/>
</linearGradient>
<linearGradient id="paint4_linear" x1="237.253" y1="313.454" x2="237.253" y2="149.331" gradientUnits="userSpaceOnUse">
<stop offset="0.00080112" stop-color="#871FFF"/>
<stop offset="0.9984" stop-color="#FFA68C"/>
</linearGradient>
<linearGradient id="paint5_linear" x1="339.921" y1="301.284" x2="340.383" y2="335.972" gradientUnits="userSpaceOnUse">
<stop offset="0.00080112" stop-color="#871FFF"/>
<stop offset="0.9984" stop-color="#FFA68C"/>
</linearGradient>
<linearGradient id="paint6_linear" x1="181.938" y1="127.143" x2="181.938" y2="229.167" gradientUnits="userSpaceOnUse">
<stop stop-color="#D6219C"/>
<stop offset="0.9984" stop-color="#FFA68C"/>
</linearGradient>
<linearGradient id="paint7_linear" x1="290.802" y1="195.457" x2="364.677" y2="195.457" gradientUnits="userSpaceOnUse">
<stop stop-color="#D6219C"/>
<stop offset="0.9984" stop-color="#FFA68C"/>
</linearGradient>
<linearGradient id="paint8_linear" x1="528.507" y1="225.297" x2="520.343" y2="225.297" gradientUnits="userSpaceOnUse">
<stop offset="0.00080112" stop-color="#6F54A2"/>
<stop offset="1" stop-color="#84C5EC"/>
</linearGradient>
<linearGradient id="paint9_linear" x1="537.845" y1="333.512" x2="537.845" y2="157.13" gradientUnits="userSpaceOnUse">
<stop stop-color="#D6219C"/>
<stop offset="1" stop-color="#FFA68C"/>
</linearGradient>
<linearGradient id="paint10_linear" x1="427.933" y1="238.861" x2="475.007" y2="285.893" gradientUnits="userSpaceOnUse">
<stop stop-color="#D6219C"/>
<stop offset="0.9984" stop-color="#FFA68C"/>
</linearGradient>
<linearGradient id="paint11_linear" x1="520.432" y1="247.155" x2="562.599" y2="258.441" gradientUnits="userSpaceOnUse">
<stop stop-color="#D6219C"/>
<stop offset="0.9984" stop-color="#FFA68C"/>
</linearGradient>
<linearGradient id="paint12_linear" x1="772.411" y1="175.672" x2="858.443" y2="175.672" gradientUnits="userSpaceOnUse">
<stop stop-color="#D6219C"/>
<stop offset="1" stop-color="#FFA68C"/>
</linearGradient>
<linearGradient id="paint13_linear" x1="703.655" y1="128.456" x2="753.319" y2="178.075" gradientUnits="userSpaceOnUse">
<stop stop-color="#D6219C"/>
<stop offset="0.9984" stop-color="#FFA68C"/>
</linearGradient>
<linearGradient id="paint14_linear" x1="597.018" y1="208.586" x2="646.682" y2="258.205" gradientUnits="userSpaceOnUse">
<stop stop-color="#D6219C"/>
<stop offset="0.9984" stop-color="#FFA68C"/>
</linearGradient>
<linearGradient id="paint15_linear" x1="873.158" y1="170.116" x2="937.273" y2="234.174" gradientUnits="userSpaceOnUse">
<stop stop-color="#D6219C"/>
<stop offset="0.9984" stop-color="#FFA68C"/>
</linearGradient>
<clipPath id="clip0">
<rect width="858" height="287" fill="white" transform="translate(99 92)"/>
</clipPath>
</defs>
</svg>
