<svg width="1056" height="475" viewBox="0 0 1056 475" fill="none" xmlns="http://www.w3.org/2000/svg">
<g opacity="0.5" filter="url(#filter0_ddd)">
<rect x="16" y="14" width="1024" height="442.608" rx="12" fill="url(#paint0_linear)"/>
</g>
<g filter="url(#filter1_i)">
<path d="M65.4933 193.861L65.6661 264.785L94.055 281.176L103.857 287.017L114.411 292.928L147.464 312.012L147.275 241.077L65.4933 193.861Z" fill="#80C7F5"/>
<path d="M147.275 241.077L147.465 312.011L161.009 304.195C165.281 301.73 167.907 297.169 167.893 292.236L167.754 241.136C167.734 233.791 163.813 227.009 157.456 223.327L92.9894 185.987C88.7366 183.523 83.4926 183.515 79.2313 185.965L65.4935 193.861L147.275 241.077ZM116.976 294.418L114.411 292.928L120.009 296.179L116.976 294.418Z" fill="url(#paint1_linear)"/>
<path d="M116.379 248.139C120.416 244.499 120.17 237.645 115.829 232.83C111.489 228.015 104.697 227.063 100.66 230.702C96.6223 234.342 96.8684 241.196 101.209 246.011C105.55 250.826 112.342 251.778 116.379 248.139Z" fill="white"/>
<path d="M88.3429 266.963L112.806 280.188C116.138 281.988 119.837 280.854 121.024 277.666L121.128 277.388C123.237 271.727 119.634 260.931 108.128 253.832L107.136 253.296C98.407 248.731 87.363 250.066 84.4462 257.893C83.2566 261.081 85.0111 265.162 88.3429 266.963Z" fill="white"/>
<path d="M476.8 181.915L476.973 252.84L505.361 269.23L515.082 274.712L525.72 280.983L558.772 300.067L558.583 229.132L476.8 181.915Z" fill="#D3E9FC"/>
<path d="M545.318 244.493L483.981 209.079L483.969 205.37L545.306 240.784L545.318 244.493Z" fill="#80C7F5"/>
<path d="M545.317 256.365L483.98 220.953L483.969 217.243L545.305 252.656L545.317 256.365Z" fill="#80C7F5"/>
<path d="M545.317 268.11L483.98 232.698L483.969 228.989L545.305 264.401L545.317 268.11Z" fill="#80C7F5"/>
<path d="M514.643 262.203L483.98 244.515L483.969 240.806L514.63 258.494L514.643 262.203Z" fill="#80C7F5"/>
<path d="M476.8 181.914L490.538 174.018C494.8 171.569 500.043 171.577 504.295 174.041L568.762 211.381C575.119 215.063 579.04 221.845 579.06 229.19L579.2 280.291C579.213 285.223 576.588 289.785 572.317 292.25L558.773 300.066L558.584 229.13L476.8 181.914ZM531.883 284.618L525.72 280.983L527.771 282.193L531.883 284.618Z" fill="url(#paint2_linear)"/>
<path d="M795.947 192.157L795.773 263.083L767.385 279.474L757.056 285.488L747.027 291.226L713.973 310.31L714.163 239.374L795.947 192.157Z" fill="#80C7F5"/>
<path d="M737.953 254.517C737.953 248.187 741.801 240.832 746.549 238.09C750.108 236.035 753.161 237.155 754.469 240.511C755.774 235.646 758.829 230.999 762.387 228.945C767.135 226.203 770.985 229.112 770.985 235.444C770.985 238.644 769.996 242.101 768.412 245.095L754.469 273.317L740.195 260.939L740.203 260.929C738.811 259.698 737.953 257.493 737.953 254.517Z" fill="white"/>
<path d="M714.164 239.372L713.974 310.307L700.431 302.49C696.159 300.024 693.534 295.461 693.546 290.53L693.685 239.429C693.706 232.084 697.626 225.302 703.982 221.62L768.449 184.28C772.703 181.816 777.945 181.808 782.207 184.258L795.944 192.153L714.164 239.372ZM744.23 292.849L747.028 291.224L741.431 294.475L744.23 292.849Z" fill="url(#paint3_linear)"/>
<path d="M905.174 171.676L905.347 242.6L933.735 258.99L945.281 265.769L954.092 270.744L987.144 289.827L986.954 218.893L905.174 171.676Z" fill="#E6E6E6"/>
<path d="M957.376 242.752C955.711 238.84 956.156 234.905 958.369 233.963C960.582 233.021 963.726 235.429 965.391 239.341C967.056 243.253 966.611 247.187 964.398 248.129C962.184 249.071 959.041 246.664 957.376 242.752Z" fill="#80C7F5"/>
<path d="M939.048 232.1C937.384 228.188 937.828 224.253 940.042 223.311C942.255 222.37 945.399 224.777 947.063 228.689C948.728 232.601 948.283 236.536 946.07 237.477C943.857 238.419 940.713 236.012 939.048 232.1Z" fill="#80C7F5"/>
<path d="M920.721 221.519C919.057 217.607 919.501 213.673 921.715 212.731C923.928 211.789 927.072 214.197 928.736 218.108C930.401 222.02 929.956 225.955 927.743 226.897C925.53 227.839 922.386 225.431 920.721 221.519Z" fill="#80C7F5"/>
<path d="M905.173 171.675L918.91 163.779C923.172 161.329 928.415 161.338 932.669 163.801L997.136 201.141C1003.49 204.823 1007.41 211.605 1007.43 218.949L1007.57 270.05C1007.59 274.982 1004.96 279.543 1000.69 282.009L987.145 289.825L986.955 218.891L905.173 171.675ZM959.662 274.024L954.09 270.744L956.876 272.384L959.662 274.024Z" fill="#80C7F5"/>
<path d="M362.454 168.263L362.28 239.189L333.892 255.579L323.563 261.593L313.534 267.331L280.48 286.415L280.67 215.479L362.454 168.263Z" fill="#80C7F5"/>
<path d="M280.672 215.479L280.482 286.413L266.938 278.596C262.667 276.131 260.041 271.568 260.054 266.637L260.193 215.536C260.213 208.191 264.134 201.409 270.49 197.727L334.957 160.387C339.21 157.924 344.452 157.916 348.714 160.365L362.451 168.261L280.672 215.479ZM310.737 268.956L313.536 267.331L307.938 270.582L310.737 268.956Z" fill="url(#paint4_linear)"/>
<path d="M337.155 232.014C343.673 216.699 341.932 201.295 333.267 197.607C324.602 193.92 312.294 203.345 305.777 218.66C299.259 233.975 301 249.379 309.665 253.067C318.33 256.754 330.638 247.329 337.155 232.014Z" fill="white"/>
<path d="M321.364 240.541L322.912 241.212L323.601 239.672L333.109 218.417C333.678 217.144 333.122 215.686 331.849 215.117C330.576 214.547 329.118 215.104 328.549 216.377L320.374 234.651L314.35 232.054C313.08 231.495 311.631 232.052 311.063 233.321C310.494 234.594 311.05 236.051 312.323 236.621L312.332 236.625L312.341 236.629L321.364 240.541ZM312.971 235.177C312.97 235.177 312.97 235.176 312.969 235.176L312.971 235.177ZM329.993 217.023L329.993 217.024C329.993 217.024 329.993 217.024 329.993 217.023Z" fill="#65BAFF" stroke="#65BAFF" stroke-width="3.41333"/>
<path d="M431.065 167.944L430.613 169.08C428.918 173.511 425.29 177.15 420.865 178.861L419.73 179.317C418.482 179.773 418.485 181.59 419.735 182.042L420.871 182.494C425.302 184.19 428.942 187.817 430.652 192.242L431.108 193.377C431.565 194.625 433.381 194.622 433.833 193.373L434.286 192.236C435.981 187.805 439.608 184.166 444.034 182.455L445.168 181.999C446.416 181.543 446.413 179.726 445.164 179.274L444.027 178.822C439.597 177.126 435.957 173.499 434.247 169.074L433.79 167.939C433.334 166.804 431.631 166.807 431.065 167.944Z" fill="#FB8FD8"/>
<path d="M1010.21 154.553L1009.87 155.408C1008.59 158.742 1005.87 161.48 1002.56 162.767L1001.7 163.11C1000.77 163.453 1000.77 164.82 1001.71 165.16L1002.56 165.5C1005.88 166.776 1008.61 169.505 1009.9 172.834L1010.24 173.688C1010.58 174.627 1011.94 174.625 1012.28 173.684L1012.62 172.83C1013.89 169.496 1016.61 166.758 1019.93 165.471L1020.78 165.128C1021.72 164.784 1021.72 163.418 1020.78 163.078L1019.93 162.737C1016.6 161.462 1013.87 158.733 1012.59 155.403L1012.25 154.55C1011.91 153.696 1010.63 153.698 1010.21 154.553Z" fill="#FB8FD8"/>
<path d="M611.972 220.85L611.52 221.986C609.824 226.417 606.197 230.057 601.772 231.767L600.637 232.223C599.389 232.68 599.392 234.496 600.642 234.948L601.778 235.401C606.209 237.096 609.848 240.723 611.559 245.149L612.015 246.283C612.471 247.532 614.288 247.528 614.74 246.279L615.192 245.143C616.888 240.712 620.515 237.072 624.94 235.362L626.075 234.905C627.323 234.449 627.32 232.633 626.07 232.18L624.934 231.728C620.503 230.033 616.864 226.405 615.153 221.98L614.697 220.845C614.241 219.711 612.538 219.714 611.972 220.85Z" fill="#FB8FD8"/>
<path d="M808.239 282.29L807.787 283.427C806.091 287.858 802.464 291.497 798.038 293.208L796.904 293.664C795.656 294.12 795.659 295.937 796.908 296.389L798.045 296.841C802.476 298.537 806.115 302.164 807.826 306.589L808.282 307.724C808.738 308.972 810.555 308.969 811.007 307.719L811.459 306.583C813.155 302.152 816.782 298.513 821.207 296.802L822.342 296.346C823.59 295.89 823.587 294.073 822.337 293.621L821.201 293.169C816.77 291.473 813.13 287.846 811.42 283.42L810.964 282.286C810.508 281.151 808.805 281.154 808.239 282.29Z" fill="#FB8FD8"/>
<path d="M59.0121 290.583L58.5599 291.72C56.8642 296.151 53.237 299.79 48.8118 301.501L47.6771 301.957C46.4289 302.413 46.432 304.23 47.6817 304.682L48.8179 305.134C53.2489 306.83 56.8883 310.457 58.5989 314.882L59.055 316.017C59.5112 317.265 61.3278 317.262 61.7799 316.012L62.2322 314.876C63.9278 310.445 67.555 306.806 71.9803 305.095L73.1149 304.639C74.3631 304.183 74.36 302.366 73.1103 301.914L71.9741 301.462C67.5432 299.766 63.9038 296.139 62.1932 291.713L61.7371 290.579C61.281 289.444 59.5779 289.447 59.0121 290.583Z" fill="#FB8FD8"/>
<path d="M660.099 253.122L659.76 253.974C658.488 257.297 655.768 260.027 652.449 261.31L651.598 261.652C650.662 261.994 650.664 263.356 651.601 263.696L652.454 264.035C655.777 265.306 658.506 268.027 659.789 271.346L660.131 272.197C660.473 273.133 661.836 273.131 662.175 272.193L662.514 271.341C663.786 268.018 666.506 265.288 669.825 264.005L670.676 263.663C671.612 263.321 671.61 261.959 670.673 261.62L669.821 261.28C666.497 260.009 663.768 257.288 662.485 253.969L662.143 253.118C661.801 252.182 660.438 252.185 660.099 253.122Z" fill="#F89B85"/>
<path d="M448.472 244.588L448.133 245.44C446.862 248.764 444.141 251.493 440.822 252.776L439.971 253.118C439.035 253.46 439.037 254.823 439.975 255.162L440.827 255.501C444.15 256.773 446.88 259.493 448.163 262.812L448.505 263.663C448.847 264.599 450.209 264.597 450.548 263.66L450.888 262.808C452.159 259.484 454.88 256.755 458.199 255.472L459.05 255.13C459.986 254.788 459.983 253.425 459.046 253.086L458.194 252.747C454.871 251.475 452.141 248.755 450.858 245.436L450.516 244.585C450.174 243.649 448.812 243.651 448.472 244.588Z" fill="#F89B85"/>
<path d="M33.7526 207.282L33.4134 208.134C32.1417 211.457 29.4213 214.186 26.1024 215.469L25.2514 215.811C24.3152 216.154 24.3175 217.516 25.2548 217.855L26.107 218.194C29.4302 219.466 32.1598 222.187 33.4427 225.505L33.7847 226.356C34.1269 227.293 35.4894 227.29 35.8285 226.353L36.1677 225.501C37.4394 222.178 40.1598 219.448 43.4787 218.165L44.3297 217.823C45.2659 217.481 45.2636 216.118 44.3263 215.779L43.4742 215.44C40.1509 214.168 37.4214 211.448 36.1384 208.129L35.7964 207.278C35.4542 206.342 34.0917 206.344 33.7526 207.282Z" fill="#F89B85"/>
<path d="M702.766 183.148L702.427 184C701.155 187.323 698.434 190.053 695.116 191.336L694.265 191.678C693.328 192.02 693.331 193.382 694.268 193.721L695.12 194.061C698.443 195.332 701.173 198.053 702.456 201.372L702.798 202.223C703.14 203.159 704.503 203.156 704.842 202.219L705.181 201.367C706.453 198.044 709.173 195.314 712.492 194.031L713.343 193.689C714.279 193.347 714.277 191.985 713.339 191.646L712.487 191.306C709.164 190.035 706.435 187.314 705.152 183.995L704.81 183.144C704.467 182.208 703.105 182.21 702.766 183.148Z" fill="#871EFF"/>
<path d="M197.593 212.161L197.254 213.014C195.982 216.337 193.261 219.066 189.942 220.349L189.091 220.691C188.155 221.034 188.158 222.396 189.095 222.735L189.947 223.074C193.27 224.346 196 227.066 197.283 230.385L197.625 231.236C197.967 232.172 199.33 232.17 199.669 231.233L200.008 230.381C201.28 227.058 204 224.328 207.319 223.045L208.17 222.703C209.106 222.361 209.104 220.998 208.166 220.659L207.314 220.32C203.991 219.048 201.261 216.328 199.979 213.009L199.636 212.158C199.294 211.222 197.932 211.224 197.593 212.161Z" fill="#65BAFF"/>
<path d="M397.273 215.575L396.934 216.427C395.662 219.75 392.941 222.479 389.623 223.762L388.772 224.104C387.835 224.447 387.838 225.809 388.775 226.148L389.627 226.487C392.95 227.759 395.68 230.48 396.963 233.798L397.305 234.649C397.647 235.586 399.01 235.583 399.349 234.646L399.688 233.794C400.96 230.471 403.68 227.741 406.999 226.458L407.85 226.116C408.786 225.774 408.784 224.411 407.846 224.072L406.994 223.733C403.671 222.461 400.941 219.741 399.659 216.422L399.317 215.571C398.974 214.635 397.612 214.637 397.273 215.575Z" fill="#65BAFF"/>
<path d="M149.126 159.736L148.56 161.156C146.441 166.695 141.907 171.244 136.375 173.382L134.957 173.952C133.397 174.523 133.4 176.793 134.963 177.359L136.383 177.924C141.921 180.043 146.471 184.577 148.609 190.109L149.179 191.527C149.749 193.088 152.02 193.084 152.585 191.522L153.151 190.101C155.27 184.563 159.804 180.013 165.336 177.875L166.754 177.305C168.314 176.735 168.31 174.464 166.748 173.899L165.328 173.333C159.789 171.214 155.24 166.68 153.102 161.148L152.532 159.73C151.82 158.17 149.691 158.174 149.126 159.736Z" fill="#F89B85"/>
<path d="M364.165 272.376L363.6 273.796C361.481 279.335 356.947 283.884 351.415 286.022L349.997 286.592C348.436 287.163 348.44 289.434 350.002 289.999L351.423 290.564C356.961 292.684 361.511 297.218 363.649 302.749L364.219 304.167C364.789 305.728 367.06 305.724 367.625 304.162L368.191 302.741C370.31 297.203 374.844 292.653 380.376 290.515L381.794 289.945C383.354 289.375 383.35 287.104 381.788 286.539L380.368 285.974C374.829 283.854 370.28 279.32 368.142 273.788L367.572 272.37C366.859 270.81 364.731 270.814 364.165 272.376Z" fill="#F89B85"/>
<path d="M655.366 146.202L654.8 147.623C652.681 153.161 648.147 157.711 642.615 159.849L641.197 160.419C639.637 160.989 639.64 163.26 641.203 163.825L642.623 164.391C648.162 166.51 652.711 171.044 654.849 176.576L655.419 177.994C655.989 179.554 658.26 179.551 658.825 177.988L659.391 176.568C661.51 171.029 666.044 166.48 671.576 164.342L672.994 163.772C674.554 163.201 674.551 160.931 672.988 160.366L671.568 159.8C666.029 157.681 661.48 153.147 659.342 147.615L658.772 146.197C658.06 144.637 655.931 144.64 655.366 146.202Z" fill="#9DD2FE"/>
<path d="M864.459 173.149L863.894 174.57C861.774 180.108 857.24 184.658 851.708 186.796L850.29 187.366C848.73 187.936 848.734 190.207 850.296 190.772L851.716 191.337C857.255 193.457 861.804 197.991 863.942 203.523L864.512 204.941C865.083 206.501 867.354 206.497 867.919 204.935L868.484 203.515C870.604 197.976 875.138 193.427 880.669 191.289L882.087 190.719C883.648 190.148 883.644 187.877 882.082 187.312L880.661 186.747C875.123 184.627 870.573 180.093 868.435 174.562L867.865 173.144C867.153 171.584 865.024 171.587 864.459 173.149Z" fill="#B77EF9"/>
<path d="M246.79 295.239C243.415 279.492 229.126 271.862 228.543 271.541L223.997 280.334L226.298 275.978L223.997 280.334C224.135 280.359 234.763 286.172 237.133 297.311L246.79 295.239Z" fill="#6405D1"/>
<path d="M226.995 189.727L233.048 194.492L229.984 192.115L233.048 194.492C233.114 194.405 239.03 187.099 247.967 186.856L247.743 179.165C235.157 179.53 227.324 189.29 226.995 189.727Z" fill="#65BAFF"/>
<path d="M468.267 307.449L470.919 299.718L469.627 303.607L470.986 299.765C470.919 299.718 461.518 296.312 458.254 287.482L450.59 290.356C455.159 302.777 467.702 307.258 468.267 307.449Z" fill="#65BAFF"/>
<path d="M633.034 285.119C634.691 287.102 649.325 304.846 664.16 305.874L664.697 296.552C655.601 295.845 643.995 283.882 640.281 279.218L633.034 285.119Z" fill="#D6219C"/>
<path d="M556.254 179.596L563.287 182.964L559.798 181.307L563.287 182.964C563.341 182.908 567.57 174.434 576.286 172.279L574.421 164.714C562.032 167.745 556.467 179.043 556.254 179.596Z" fill="#C492D6"/>
<path d="M894.175 288.822L901.207 292.19L897.719 290.533L901.207 292.19C901.261 292.135 905.49 283.66 914.206 281.505L912.342 273.94C899.952 276.971 894.387 288.269 894.175 288.822Z" fill="#C492D6"/>
<path d="M796.134 158.375L794.37 165.97L795.232 162.206L794.37 165.97C794.436 166.011 803.625 168.303 807.618 176.345L814.6 172.886C808.956 161.447 796.72 158.463 796.134 158.375Z" fill="#C492D6"/>
<path d="M48.9476 168.886L56.3944 172.507L52.7004 170.725L56.3944 172.507C56.4523 172.448 60.9961 163.475 70.2658 161.241L68.3332 153.195C55.157 156.336 49.1766 168.3 48.9476 168.886Z" fill="#D6219C"/>
</g>
<defs>
<filter id="filter0_ddd" x="0" y="0" width="1056" height="474.608" filterUnits="userSpaceOnUse" color-interpolation-filters="sRGB">
<feFlood flood-opacity="0" result="BackgroundImageFix"/>
<feColorMatrix in="SourceAlpha" type="matrix" values="0 0 0 0 0 0 0 0 0 0 0 0 0 0 0 0 0 0 127 0"/>
<feOffset dy="2"/>
<feGaussianBlur stdDeviation="8"/>
<feColorMatrix type="matrix" values="0 0 0 0 0.0745098 0 0 0 0 0.0784314 0 0 0 0 0.0823529 0 0 0 0.1 0"/>
<feBlend mode="normal" in2="BackgroundImageFix" result="effect1_dropShadow"/>
<feColorMatrix in="SourceAlpha" type="matrix" values="0 0 0 0 0 0 0 0 0 0 0 0 0 0 0 0 0 0 127 0"/>
<feOffset dy="8"/>
<feGaussianBlur stdDeviation="4"/>
<feColorMatrix type="matrix" values="0 0 0 0 0.0745098 0 0 0 0 0.0784314 0 0 0 0 0.0823529 0 0 0 0.05 0"/>
<feBlend mode="normal" in2="effect1_dropShadow" result="effect2_dropShadow"/>
<feColorMatrix in="SourceAlpha" type="matrix" values="0 0 0 0 0 0 0 0 0 0 0 0 0 0 0 0 0 0 127 0"/>
<feOffset dy="4"/>
<feGaussianBlur stdDeviation="2"/>
<feColorMatrix type="matrix" values="0 0 0 0 0.0745098 0 0 0 0 0.0784314 0 0 0 0 0.0823529 0 0 0 0.05 0"/>
<feBlend mode="normal" in2="effect2_dropShadow" result="effect3_dropShadow"/>
<feBlend mode="normal" in="SourceGraphic" in2="effect3_dropShadow" result="shape"/>
</filter>
<filter id="filter1_i" x="24" y="145" width="998" height="176" filterUnits="userSpaceOnUse" color-interpolation-filters="sRGB">
<feFlood flood-opacity="0" result="BackgroundImageFix"/>
<feBlend mode="normal" in="SourceGraphic" in2="BackgroundImageFix" result="shape"/>
<feColorMatrix in="SourceAlpha" type="matrix" values="0 0 0 0 0 0 0 0 0 0 0 0 0 0 0 0 0 0 127 0" result="hardAlpha"/>
<feOffset dy="4"/>
<feGaussianBlur stdDeviation="2"/>
<feComposite in2="hardAlpha" operator="arithmetic" k2="-1" k3="1"/>
<feColorMatrix type="matrix" values="0 0 0 0 0 0 0 0 0 0 0 0 0 0 0 0 0 0 0.25 0"/>
<feBlend mode="normal" in2="shape" result="effect1_innerShadow"/>
</filter>
<linearGradient id="paint0_linear" x1="65.7169" y1="437.256" x2="1000.17" y2="437.256" gradientUnits="userSpaceOnUse">
<stop stop-color="#8728FB"/>
<stop offset="1" stop-color="#FFA58B"/>
</linearGradient>
<linearGradient id="paint1_linear" x1="47.3683" y1="180.467" x2="176.2" y2="309.299" gradientUnits="userSpaceOnUse">
<stop offset="0.00080112" stop-color="#871FFF"/>
<stop offset="1" stop-color="#80C7F5"/>
</linearGradient>
<linearGradient id="paint2_linear" x1="479.427" y1="189.272" x2="579.49" y2="289.335" gradientUnits="userSpaceOnUse">
<stop offset="0.00080112" stop-color="#871FFF"/>
<stop offset="1" stop-color="#80C7F5"/>
</linearGradient>
<linearGradient id="paint3_linear" x1="814.073" y1="178.762" x2="685.24" y2="307.595" gradientUnits="userSpaceOnUse">
<stop offset="0.00080112" stop-color="#871FFF"/>
<stop offset="1" stop-color="#80C7F5"/>
</linearGradient>
<linearGradient id="paint4_linear" x1="380.58" y1="154.869" x2="251.747" y2="283.702" gradientUnits="userSpaceOnUse">
<stop offset="0.00080112" stop-color="#871FFF"/>
<stop offset="1" stop-color="#80C7F5"/>
</linearGradient>
</defs>
</svg>
