<svg width="1056" height="475" viewBox="0 0 1056 475" fill="none" xmlns="http://www.w3.org/2000/svg">
<g opacity="0.5" filter="url(#filter0_ddd)">
<rect x="16" y="14" width="1024" height="442.608" rx="12" fill="url(#paint0_linear)"/>
</g>
<g filter="url(#filter1_i)">
<path fill-rule="evenodd" clip-rule="evenodd" d="M664.216 277.676L765.509 318.506L765.509 265.245L664.217 224.416L664.216 277.676Z" fill="#E3F3FF"/>
<path fill-rule="evenodd" clip-rule="evenodd" d="M695.785 171.235L467.909 79.3817C466.249 78.7124 464.76 78.8301 463.725 79.5506L463.719 79.5547C463.659 79.5976 463.596 79.635 463.539 79.6814L459.604 82.4477L462.254 84.7406V250.811C462.254 253.926 464.785 257.472 467.909 258.732L693.816 349.791L695.374 353.619L699.981 350.409C700.885 349.774 701.44 348.677 701.44 347.224V179.156C701.44 176.04 698.909 172.494 695.785 171.235Z" fill="url(#paint1_linear)"/>
<path fill-rule="evenodd" clip-rule="evenodd" d="M690.607 360.989H678.042V361.025L463.37 274.891C458.518 272.941 450.652 272.942 445.797 274.891L300.864 333.736V333.075H290.247V340.036C290.207 341.335 291.413 342.637 293.879 343.626L517.474 433.338C522.327 435.285 530.195 435.288 535.047 433.338L686.966 371.657C689.395 370.683 690.609 369.405 690.606 368.126H690.607V360.989Z" fill="url(#paint2_linear)"/>
<path fill-rule="evenodd" clip-rule="evenodd" d="M686.966 357.458L463.37 267.745C458.518 265.796 450.652 265.798 445.797 267.745L293.879 329.426C289.026 331.375 289.026 334.531 293.879 336.481L517.474 426.192C522.327 428.141 530.195 428.143 535.047 426.192L686.966 364.511C691.82 362.564 691.82 359.408 686.966 357.458Z" fill="#131415"/>
<path fill-rule="evenodd" clip-rule="evenodd" d="M464.998 276.81C459.881 274.758 451.584 274.758 446.468 276.81L372.062 306.807L579.143 389.893C584.257 391.948 592.554 391.948 597.672 389.893L672.076 359.901L464.998 276.81Z" fill="url(#paint3_linear)"/>
<path fill-rule="evenodd" clip-rule="evenodd" d="M502.086 366.642L458.123 348.907C454.849 347.589 449.54 347.589 446.266 348.907L403.257 366.452C399.983 367.768 399.983 369.896 403.257 371.207L447.219 388.946C450.494 390.259 455.802 390.262 459.076 388.946L502.086 371.398C505.358 370.086 505.358 367.956 502.086 366.642Z" fill="#FFFFFE"/>
<path fill-rule="evenodd" clip-rule="evenodd" d="M697.018 350.309C697.018 353.423 694.487 354.928 691.363 353.67L463.487 261.815C460.363 260.557 457.831 257.012 457.831 253.895V85.8271C457.831 82.7127 460.363 81.2066 463.487 82.4663L691.363 174.32C694.487 175.579 697.018 179.125 697.018 182.241V350.309Z" fill="white"/>
<path fill-rule="evenodd" clip-rule="evenodd" d="M465.966 244.882C465.268 244.602 464.51 243.517 464.444 243.024L464.447 90.1431L688.885 180.609C689.58 180.89 690.339 181.972 690.404 182.465L690.401 335.349L465.966 244.882Z" fill="#131415"/>
<path fill-rule="evenodd" clip-rule="evenodd" d="M753.008 325.829C754.322 326.359 755.755 325.391 755.755 323.974L755.756 273.675L657.209 233.954C655.895 233.424 654.462 234.392 654.462 235.809L654.461 286.106L753.008 325.829Z" fill="url(#paint4_linear)"/>
<path fill-rule="evenodd" clip-rule="evenodd" d="M582.529 301.128C582.529 303.29 580.774 304.332 578.606 303.459L538.724 287.218C536.558 286.344 534.803 283.884 534.803 281.725C534.803 279.563 536.558 278.52 538.724 279.396L578.606 295.637C580.774 296.511 582.529 298.969 582.529 301.128Z" fill="#D6219B"/>
<path fill-rule="evenodd" clip-rule="evenodd" d="M349.401 347.445C350.813 346.867 353.102 346.867 354.514 347.445C355.926 348.026 355.926 348.967 354.514 349.545C353.102 350.125 350.813 350.125 349.401 349.545C347.989 348.967 347.989 348.026 349.401 347.445Z" fill="#80C7F5"/>
<path fill-rule="evenodd" clip-rule="evenodd" d="M337.106 342.307C338.519 341.727 340.807 341.727 342.219 342.307C343.631 342.887 343.631 343.826 342.219 344.404C340.807 344.985 338.519 344.985 337.106 344.404C335.694 343.826 335.694 342.887 337.106 342.307Z" fill="#871FFF"/>
<path fill-rule="evenodd" clip-rule="evenodd" d="M324.813 337.166C326.225 336.586 328.513 336.586 329.925 337.166C331.337 337.746 331.337 338.685 329.925 339.264C328.513 339.845 326.225 339.845 324.813 339.264C323.4 338.685 323.4 337.746 324.813 337.166Z" fill="#FA7454"/>
<path fill-rule="evenodd" clip-rule="evenodd" d="M312.518 332.025C313.93 331.446 316.219 331.446 317.63 332.025C319.042 332.605 319.042 333.545 317.63 334.126C316.219 334.703 313.93 334.703 312.518 334.126C311.105 333.545 311.105 332.605 312.518 332.025Z" fill="#FFFFFE"/>
<path fill-rule="evenodd" clip-rule="evenodd" d="M581.023 54.6264L531.71 35.1549C529.019 34.0894 526.838 35.382 526.838 38.0431V61.788C526.838 64.4499 529.019 67.4712 531.71 68.5375L573.08 84.8618L582.72 94.1378C584.474 95.8241 585.894 95.7851 585.894 94.0525V61.376C585.894 58.7149 583.712 55.6928 581.023 54.6264Z" fill="#FCAC98"/>
<path fill-rule="evenodd" clip-rule="evenodd" d="M553.614 65.0451C553.604 63.5341 552.371 61.8126 550.859 61.2014L534.502 54.5228C532.992 53.9123 531.777 54.6423 531.787 56.1534C531.798 57.6636 533.033 59.3867 534.543 59.9971L550.9 66.6765C552.412 67.2878 553.625 66.5578 553.614 65.0451Z" fill="#FFFFFE"/>
<path fill-rule="evenodd" clip-rule="evenodd" d="M565.449 59.2512C565.438 57.7409 564.203 56.0195 562.693 55.409L534.425 43.9733C532.915 43.362 531.699 44.0929 531.71 45.6031C531.721 47.1158 532.955 48.8372 534.465 49.4485L562.733 60.8842C564.245 61.4947 565.459 60.7646 565.449 59.2512Z" fill="#FFFFFE"/>
<path fill-rule="evenodd" clip-rule="evenodd" d="M686.283 271.411C686.275 270.098 685.212 268.604 683.911 268.073L669.826 262.273C668.525 261.743 667.478 262.377 667.488 263.69C667.497 265.001 668.56 266.496 669.861 267.028L683.944 272.827C685.247 273.359 686.293 272.725 686.283 271.411Z" fill="#FFFFFE"/>
<path fill-rule="evenodd" clip-rule="evenodd" d="M702.618 268.853C702.609 267.54 701.546 266.044 700.245 265.515L669.76 253.113C668.459 252.58 667.411 253.217 667.421 254.528C667.431 255.841 668.494 257.336 669.794 257.867L700.279 270.27C701.58 270.798 702.628 270.165 702.618 268.853Z" fill="#FFFFFE"/>
<path fill-rule="evenodd" clip-rule="evenodd" d="M596.334 383.77C596.603 383.77 596.859 383.61 596.965 383.345C597.105 382.997 596.936 382.602 596.588 382.462L398.248 302.881C397.899 302.744 397.503 302.909 397.363 303.257C397.222 303.604 397.392 304 397.74 304.14L596.081 383.721C596.164 383.755 596.25 383.77 596.334 383.77Z" fill="white"/>
<path fill-rule="evenodd" clip-rule="evenodd" d="M612.8 377.096C613.07 377.096 613.325 376.935 613.431 376.671C613.572 376.323 613.403 375.927 613.055 375.787L414.715 296.206C414.366 296.068 413.97 296.234 413.83 296.583C413.689 296.93 413.859 297.324 414.207 297.465L612.547 377.045C612.629 377.081 612.716 377.096 612.8 377.096Z" fill="white"/>
<path fill-rule="evenodd" clip-rule="evenodd" d="M629.468 370.27C629.737 370.27 629.993 370.109 630.098 369.845C630.239 369.496 630.07 369.101 629.721 368.961L431.382 289.381C431.033 289.243 430.637 289.41 430.497 289.757C430.356 290.104 430.526 290.5 430.874 290.639L629.215 370.222C629.298 370.254 629.383 370.27 629.468 370.27Z" fill="white"/>
<path fill-rule="evenodd" clip-rule="evenodd" d="M646.144 363.873C646.413 363.873 646.668 363.711 646.775 363.447C646.916 363.099 646.747 362.702 646.398 362.564L448.058 282.982C447.709 282.846 447.313 283.012 447.173 283.36C447.032 283.706 447.202 284.101 447.55 284.241L645.89 363.823C645.974 363.856 646.06 363.873 646.144 363.873Z" fill="white"/>
<path fill-rule="evenodd" clip-rule="evenodd" d="M677.969 138.074C677.756 138.074 677.556 137.943 677.48 137.731C677.387 137.473 677.122 136.676 676.746 135.543C675.437 131.595 672.711 123.381 671.287 120.076C669.957 116.985 668.463 113.618 666.72 109.783C665.918 108.015 665.068 106.23 664.248 104.504C663.835 103.638 663.422 102.77 663.013 101.902C662.892 101.642 663.004 101.333 663.264 101.211C663.523 101.09 663.834 101.201 663.956 101.46C664.364 102.328 664.776 103.194 665.187 104.059C666.011 105.789 666.862 107.579 667.668 109.354C669.414 113.196 670.91 116.569 672.244 119.666C673.685 123.012 676.42 131.255 677.734 135.217C678.105 136.337 678.367 137.124 678.459 137.379C678.556 137.649 678.416 137.947 678.146 138.044C678.087 138.064 678.028 138.074 677.969 138.074Z" fill="#FFFFFE"/>
<path fill-rule="evenodd" clip-rule="evenodd" d="M551.413 226.034C552.727 226.563 554.16 225.596 554.16 224.179L554.162 154.683L419.106 100.245C417.792 99.7154 416.358 100.683 416.358 102.1L416.357 171.595L551.413 226.034Z" fill="url(#paint5_linear)"/>
<path fill-rule="evenodd" clip-rule="evenodd" d="M473.982 178.062C473.982 180.957 471.629 182.365 468.725 181.205L429.302 165.449C426.398 164.289 424.045 161 424.045 158.105V118.775C424.045 115.879 426.398 114.473 429.302 115.633L468.725 131.388C471.629 132.548 473.982 135.836 473.982 138.732V178.062Z" fill="white"/>
<path fill-rule="evenodd" clip-rule="evenodd" d="M522.069 165.475C522.059 164.162 520.998 162.667 519.696 162.137L483.119 147.215C481.818 146.684 480.772 147.318 480.781 148.63C480.79 149.944 481.853 151.437 483.154 151.967L519.731 166.891C521.032 167.422 522.079 166.789 522.069 165.475Z" fill="white"/>
<path fill-rule="evenodd" clip-rule="evenodd" d="M509.767 151.322C509.757 150.01 508.695 148.514 507.394 147.984L483.052 138.053C481.752 137.522 480.705 138.156 480.714 139.469C480.723 140.782 481.787 142.278 483.088 142.807L507.429 152.74C508.73 153.266 509.776 152.635 509.767 151.322Z" fill="white"/>
<path fill-rule="evenodd" clip-rule="evenodd" d="M497.196 164.61C497.187 163.298 496.125 161.804 494.823 161.272L483.119 156.377C481.818 155.846 480.772 156.48 480.781 157.792C480.79 159.106 481.853 160.598 483.154 161.13L494.858 166.027C496.159 166.558 497.206 165.924 497.196 164.61Z" fill="white"/>
<path fill-rule="evenodd" clip-rule="evenodd" d="M497.416 322.784C500.044 323.844 502.911 321.908 502.911 319.074L502.912 176.395L369.23 122.511C367.259 121.716 365.109 123.168 365.109 125.293L365.107 269.453L497.416 322.784Z" fill="url(#paint6_linear)"/>
<path fill-rule="evenodd" clip-rule="evenodd" d="M445.476 177.058C445.467 175.745 444.404 174.25 443.103 173.72L406.526 158.798C405.225 158.268 404.179 158.902 404.188 160.213C404.197 161.528 405.26 163.02 406.56 163.551L443.138 178.474C444.439 179.005 445.485 178.372 445.476 177.058Z" fill="white"/>
<path fill-rule="evenodd" clip-rule="evenodd" d="M433.173 162.906C433.163 161.593 432.101 160.097 430.8 159.566L406.459 149.636C405.159 149.105 404.111 149.74 404.12 151.053C404.13 152.365 405.193 153.86 406.494 154.39L430.835 164.324C432.137 164.85 433.182 164.218 433.173 162.906Z" fill="white"/>
<path fill-rule="evenodd" clip-rule="evenodd" d="M423.158 191.721C423.148 190.408 422.086 188.915 420.784 188.383L406.7 182.583C405.399 182.053 404.351 182.688 404.361 184C404.371 185.312 405.434 186.807 406.734 187.337L420.819 193.138C422.121 193.669 423.167 193.035 423.158 191.721Z" fill="white"/>
<path fill-rule="evenodd" clip-rule="evenodd" d="M433.347 186.69C433.337 185.378 432.275 183.883 430.974 183.353L406.632 173.422C405.332 172.891 404.284 173.526 404.294 174.837C404.303 176.151 405.366 177.646 406.667 178.177L431.008 188.108C432.31 188.639 433.356 188.004 433.347 186.69Z" fill="white"/>
<path fill-rule="evenodd" clip-rule="evenodd" d="M384.43 155.623C381.669 154.509 379.43 151.374 379.43 148.618C379.43 145.864 381.669 144.533 384.43 145.647C387.192 146.76 389.43 149.896 389.43 152.65C389.43 155.405 387.192 156.736 384.43 155.623ZM395.238 154.993C395.238 149.038 390.4 142.259 384.43 139.853C378.461 137.445 373.621 140.321 373.621 146.275C373.621 148.024 374.047 149.839 374.786 151.596L374.777 151.593L374.82 151.679C375.061 152.244 375.335 152.801 375.64 153.349L384.43 171.245L393.219 160.438C393.524 160.136 393.799 159.799 394.04 159.429L394.082 159.377L394.073 159.373C394.812 158.212 395.238 156.739 395.238 154.993Z" fill="white"/>
<path opacity="0.355469" fill-rule="evenodd" clip-rule="evenodd" d="M495.307 236.583C495.177 236.583 495.045 236.559 494.917 236.507L372.324 187.093C371.791 186.878 371.534 186.274 371.75 185.742C371.964 185.21 372.571 184.952 373.104 185.168L495.697 234.582C496.23 234.798 496.487 235.403 496.272 235.933C496.108 236.338 495.718 236.583 495.307 236.583Z" fill="white"/>
<path fill-rule="evenodd" clip-rule="evenodd" d="M492.502 218.245C492.502 220.412 490.742 221.464 488.571 220.597L459.082 208.811C456.911 207.943 455.15 205.484 455.15 203.318V173.9C455.15 171.735 456.911 170.682 459.082 171.549L488.571 183.335C490.742 184.202 492.502 186.661 492.502 188.828V218.245Z" fill="white"/>
<path fill-rule="evenodd" clip-rule="evenodd" d="M410.298 243.075C410.298 245.24 408.538 246.292 406.367 245.425L376.878 233.639C374.706 232.772 372.946 230.311 372.946 228.146V198.728C372.946 196.562 374.706 195.51 376.878 196.377L406.367 208.162C408.538 209.03 410.298 211.49 410.298 213.656V243.075Z" fill="#131415"/>
<path fill-rule="evenodd" clip-rule="evenodd" d="M495.075 308.729C495.075 310.895 493.314 311.948 491.143 311.079L461.654 299.296C459.483 298.426 457.722 295.967 457.722 293.802V264.385C457.722 262.218 459.483 261.166 461.654 262.033L491.143 273.819C493.314 274.687 495.075 277.146 495.075 279.312V308.729Z" fill="#FFFFFE"/>
<path fill-rule="evenodd" clip-rule="evenodd" d="M410.298 274.565C410.298 276.731 408.538 277.784 406.367 276.916L376.878 265.129C374.706 264.262 372.946 261.802 372.946 259.637V240.405C372.946 238.238 374.706 237.185 376.878 238.055L406.367 249.84C408.538 250.708 410.298 253.166 410.298 255.332V274.565Z" fill="white"/>
<path fill-rule="evenodd" clip-rule="evenodd" d="M495.075 266.332C495.075 268.499 493.314 269.553 491.143 268.685L461.654 256.9C459.483 256.031 457.722 253.572 457.722 251.406V232.174C457.722 230.007 459.483 228.956 461.654 229.823L491.143 241.608C493.314 242.475 495.075 244.934 495.075 247.101V266.332Z" fill="white"/>
<path d="M420.281 280.592L420.281 280.592C419.431 280.252 418.62 279.58 418.02 278.742C417.418 277.901 417.088 276.976 417.088 276.181V217.262C417.088 216.492 417.386 216.073 417.72 215.873C418.076 215.661 418.689 215.567 419.539 215.906C419.539 215.906 419.539 215.907 419.539 215.907L448.203 227.363L448.204 227.363C449.054 227.702 449.865 228.374 450.464 229.212C451.067 230.053 451.397 230.978 451.397 231.774V290.692C451.397 291.462 451.099 291.882 450.764 292.082C450.409 292.294 449.795 292.388 448.945 292.049L420.281 280.592Z" stroke="white" stroke-width="2"/>
<path fill-rule="evenodd" clip-rule="evenodd" d="M463.871 274.287C466.407 272.536 470.514 273.8 473.044 277.105L475.1 279.787L477.155 278.373C479.688 276.622 483.791 277.886 486.327 281.191C488.857 284.499 488.857 288.604 486.327 290.352L475.089 298.092L463.871 283.446C461.343 280.136 461.343 276.035 463.871 274.287Z" fill="#D6219C"/>
<path fill-rule="evenodd" clip-rule="evenodd" d="M430.745 378.909C430.335 378.909 429.947 378.666 429.783 378.265C429.565 377.733 429.819 377.128 430.351 376.91L439.579 373.144C440.11 372.929 440.718 373.182 440.936 373.712C441.154 374.243 440.898 374.849 440.366 375.067L431.14 378.832C431.011 378.884 430.877 378.909 430.745 378.909Z" fill="#FA7454"/>
<path fill-rule="evenodd" clip-rule="evenodd" d="M593.429 154.738C593.429 156.944 591.637 158.009 589.426 157.116L488.154 116.279C485.944 115.387 484.153 112.878 484.153 110.673C484.153 108.467 485.944 107.403 488.154 108.294L589.426 149.132C591.637 150.024 593.429 152.534 593.429 154.738Z" fill="#FCAC98"/>
<path fill-rule="evenodd" clip-rule="evenodd" d="M479.69 108.264C479.69 111.111 477.376 112.487 474.521 111.335C471.667 110.184 469.354 106.943 469.354 104.097C469.354 101.25 471.667 99.8741 474.521 101.025C477.376 102.177 479.69 105.417 479.69 108.264Z" fill="#CFA5FF"/>
<path fill-rule="evenodd" clip-rule="evenodd" d="M715.63 268.51L745.711 280.018V314.356L715.63 302.083V268.51Z" fill="white"/>
<path fill-rule="evenodd" clip-rule="evenodd" d="M643.249 212.399H674.133V128.795L686.059 121.796C686.059 121.796 668.382 83.1275 645.07 89.2864C621.758 95.4453 610.267 123.833 610.267 123.833L621.18 127.345L598.596 191.574L643.249 212.399Z" fill="white"/>
<path fill-rule="evenodd" clip-rule="evenodd" d="M603.173 130.651C603.658 131.735 603.325 132.351 602.432 132.031L589.883 127.509C588.988 127.185 587.872 126.046 587.39 124.963L576.001 100.189C575.516 99.1055 575.849 98.4882 576.742 98.8093L589.289 103.329C590.186 103.653 591.301 104.792 591.787 105.876L603.173 130.651Z" fill="#FCAC98"/>
<path fill-rule="evenodd" clip-rule="evenodd" d="M588.657 110.186C588.987 111.766 588.374 112.688 587.288 112.247C586.203 111.805 585.056 110.168 584.727 108.588C584.399 107.009 585.011 106.085 586.097 106.526C587.182 106.969 588.328 108.606 588.657 110.186Z" fill="#FFFFFE"/>
<path opacity="0.567081" fill-rule="evenodd" clip-rule="evenodd" d="M637.893 92.241C637.893 92.241 628.277 162.036 602.051 181.232C602.051 181.232 644.267 201.779 644.267 201.779C644.267 201.779 618.797 149.751 649.888 89.6182C651.992 87.3153 637.893 92.241 637.893 92.241Z" fill="url(#paint7_linear)"/>
<path fill-rule="evenodd" clip-rule="evenodd" d="M666.629 132.205L684.541 123.487C684.541 123.487 690.794 142.08 694.149 151.633C697.503 161.185 694.682 167.378 684.541 174.305C674.4 181.232 640.783 205.296 640.783 205.296L625.133 199.021L678.609 157.601L666.629 132.205Z" fill="#131415"/>
<path fill-rule="evenodd" clip-rule="evenodd" d="M627.114 194.444L602.051 181.232L562.648 245.54L627.114 339.908C627.114 339.908 623.335 346.058 621.165 349.806C616.59 357.712 627.913 366.873 635.322 356.064C642.73 345.254 661.865 318.886 661.865 318.886L597.004 248.64L621.165 211.72L627.114 194.444Z" fill="url(#paint8_linear)"/>
<path fill-rule="evenodd" clip-rule="evenodd" d="M653.087 205.296L612.528 368.117C612.528 368.117 577.372 372.673 567.621 373.957C558.257 375.189 556.629 362.008 565.497 359.95C574.365 357.893 581.163 356.218 581.163 356.218L618.34 214.293L602.051 181.232L653.087 205.296Z" fill="url(#paint9_linear)"/>
<path fill-rule="evenodd" clip-rule="evenodd" d="M613.462 124.909L621.758 127.008L609.853 159.775C609.853 159.775 595.155 142.143 588.809 135.184C582.463 128.225 591.166 118.832 597.76 127.008C604.353 135.184 607.935 139.273 607.935 139.273L613.462 124.909Z" fill="#131415"/>
<path fill-rule="evenodd" clip-rule="evenodd" d="M642.304 93.166C647.977 93.166 652.576 88.6282 652.576 83.0305C652.576 77.4328 647.977 72.895 642.304 72.895C636.632 72.895 632.033 77.4328 632.033 83.0305C632.033 88.6282 636.632 93.166 642.304 93.166Z" fill="#131415"/>
<path fill-rule="evenodd" clip-rule="evenodd" d="M643.984 81.6617C643.984 81.6617 629.114 89.9666 624.996 76.3726C624.996 76.3726 628.383 77.1426 630.046 74.2629C631.709 71.3832 635.517 62.8331 646.407 67.1082C657.296 71.3832 651.824 86.6288 651.824 86.6288C651.824 86.6288 650.452 79.5175 647.218 84.1233L643.984 81.6617Z" fill="#FCAC98"/>
</g>
<defs>
<filter id="filter0_ddd" x="0" y="0" width="1056" height="474.608" filterUnits="userSpaceOnUse" color-interpolation-filters="sRGB">
<feFlood flood-opacity="0" result="BackgroundImageFix"/>
<feColorMatrix in="SourceAlpha" type="matrix" values="0 0 0 0 0 0 0 0 0 0 0 0 0 0 0 0 0 0 127 0"/>
<feOffset dy="2"/>
<feGaussianBlur stdDeviation="8"/>
<feColorMatrix type="matrix" values="0 0 0 0 0.0745098 0 0 0 0 0.0784314 0 0 0 0 0.0823529 0 0 0 0.1 0"/>
<feBlend mode="normal" in2="BackgroundImageFix" result="effect1_dropShadow"/>
<feColorMatrix in="SourceAlpha" type="matrix" values="0 0 0 0 0 0 0 0 0 0 0 0 0 0 0 0 0 0 127 0"/>
<feOffset dy="8"/>
<feGaussianBlur stdDeviation="4"/>
<feColorMatrix type="matrix" values="0 0 0 0 0.0745098 0 0 0 0 0.0784314 0 0 0 0 0.0823529 0 0 0 0.05 0"/>
<feBlend mode="normal" in2="effect1_dropShadow" result="effect2_dropShadow"/>
<feColorMatrix in="SourceAlpha" type="matrix" values="0 0 0 0 0 0 0 0 0 0 0 0 0 0 0 0 0 0 127 0"/>
<feOffset dy="4"/>
<feGaussianBlur stdDeviation="2"/>
<feColorMatrix type="matrix" values="0 0 0 0 0.0745098 0 0 0 0 0.0784314 0 0 0 0 0.0823529 0 0 0 0.05 0"/>
<feBlend mode="normal" in2="effect2_dropShadow" result="effect3_dropShadow"/>
<feBlend mode="normal" in="SourceGraphic" in2="effect3_dropShadow" result="shape"/>
</filter>
<filter id="filter1_i" x="290" y="34.7815" width="475.509" height="404.219" filterUnits="userSpaceOnUse" color-interpolation-filters="sRGB">
<feFlood flood-opacity="0" result="BackgroundImageFix"/>
<feBlend mode="normal" in="SourceGraphic" in2="BackgroundImageFix" result="shape"/>
<feColorMatrix in="SourceAlpha" type="matrix" values="0 0 0 0 0 0 0 0 0 0 0 0 0 0 0 0 0 0 127 0" result="hardAlpha"/>
<feOffset dy="4"/>
<feGaussianBlur stdDeviation="2"/>
<feComposite in2="hardAlpha" operator="arithmetic" k2="-1" k3="1"/>
<feColorMatrix type="matrix" values="0 0 0 0 0 0 0 0 0 0 0 0 0 0 0 0 0 0 0.25 0"/>
<feBlend mode="normal" in2="shape" result="effect1_innerShadow"/>
</filter>
<linearGradient id="paint0_linear" x1="65.7169" y1="437.256" x2="1000.17" y2="437.256" gradientUnits="userSpaceOnUse">
<stop stop-color="#8728FB"/>
<stop offset="1" stop-color="#FFA58B"/>
</linearGradient>
<linearGradient id="paint1_linear" x1="420.289" y1="197.534" x2="606.976" y2="401.118" gradientUnits="userSpaceOnUse">
<stop stop-color="#819CF7"/>
<stop offset="1" stop-color="#871FFF"/>
</linearGradient>
<linearGradient id="paint2_linear" x1="764.357" y1="341.893" x2="587.155" y2="110.522" gradientUnits="userSpaceOnUse">
<stop stop-color="#D5279B"/>
<stop offset="1" stop-color="#FEA18C"/>
</linearGradient>
<linearGradient id="paint3_linear" x1="273.91" y1="329.444" x2="317.469" y2="476.159" gradientUnits="userSpaceOnUse">
<stop stop-color="#7EC5F5"/>
<stop offset="1" stop-color="#8822FF"/>
</linearGradient>
<linearGradient id="paint4_linear" x1="603.813" y1="279.891" x2="697.647" y2="380.911" gradientUnits="userSpaceOnUse">
<stop stop-color="#7EBFF6"/>
<stop offset="1" stop-color="#D6219B"/>
</linearGradient>
<linearGradient id="paint5_linear" x1="416.357" y1="99.1377" x2="416.357" y2="227.141" gradientUnits="userSpaceOnUse">
<stop stop-color="#7FBEF6"/>
<stop offset="1" stop-color="#8922FF"/>
</linearGradient>
<linearGradient id="paint6_linear" x1="330.808" y1="233.254" x2="478.825" y2="330.852" gradientUnits="userSpaceOnUse">
<stop stop-color="#7FC5F5"/>
<stop offset="0.39044" stop-color="#D6219B"/>
<stop offset="1" stop-color="#FFA78C"/>
</linearGradient>
<linearGradient id="paint7_linear" x1="602.051" y1="88.8845" x2="602.051" y2="201.779" gradientUnits="userSpaceOnUse">
<stop stop-color="#7EC5F5"/>
<stop offset="1" stop-color="#8822FF"/>
</linearGradient>
<linearGradient id="paint8_linear" x1="589.453" y1="188.482" x2="589.453" y2="271.118" gradientUnits="userSpaceOnUse">
<stop stop-color="#FCAC98"/>
<stop offset="1" stop-color="#DC409B"/>
</linearGradient>
<linearGradient id="paint9_linear" x1="559.65" y1="181.232" x2="559.65" y2="374.038" gradientUnits="userSpaceOnUse">
<stop stop-color="#FCAC98"/>
<stop offset="1" stop-color="#DC409B"/>
</linearGradient>
</defs>
</svg>
