<svg width="1056" height="475" viewBox="0 0 1056 475" fill="none" xmlns="http://www.w3.org/2000/svg">
<g opacity="0.5" filter="url(#filter0_ddd)">
<rect x="16" y="14" width="1024" height="442.608" rx="12" fill="url(#paint0_linear)"/>
</g>
<mask id="mask0" mask-type="alpha" maskUnits="userSpaceOnUse" x="91" y="35" width="850" height="370">
<rect x="91" y="35" width="850" height="370" fill="white"/>
</mask>
<g mask="url(#mask0)">
<g filter="url(#filter1_i)">
<path opacity="0.6" fill-rule="evenodd" clip-rule="evenodd" d="M305.295 492.641C382.971 492.641 445.94 429.029 445.94 350.559C445.94 272.09 382.971 208.478 305.295 208.478C227.619 208.478 164.651 272.09 164.651 350.559C164.651 429.029 227.619 492.641 305.295 492.641Z" fill="url(#paint1_linear)"/>
<path opacity="0.8" fill-rule="evenodd" clip-rule="evenodd" d="M167.96 502.7C209.996 502.7 244.074 468.274 244.074 425.808C244.074 383.342 209.996 348.917 167.96 348.917C125.923 348.917 91.8461 383.342 91.8461 425.808C91.8461 468.274 125.923 502.7 167.96 502.7Z" fill="#80C7F5"/>
<path opacity="0.5" fill-rule="evenodd" clip-rule="evenodd" d="M853.569 508.759C854.545 502.45 852.792 496.28 849.122 491.243C846.318 487.395 845.901 482.568 848.194 478.61C850.119 475.288 851.458 471.602 852.071 467.64C853.735 456.883 849.716 446.417 842.076 438.77C838.077 434.767 836.578 429.252 838.3 424.241C838.71 423.049 839.019 421.81 839.217 420.527C840.683 411.058 835.724 401.914 827.333 396.772C822.472 393.793 820.423 388.231 822.649 383.482C823.694 381.252 824.538 378.865 824.903 376.5C827.226 361.488 815.582 347.183 798.895 344.548L798.845 344.541C796.389 344.155 794.703 342.039 795.063 339.833C795.076 339.753 795.089 339.673 795.101 339.594C798.075 320.376 782.908 302.077 761.361 299.14C741.127 296.383 721.687 309.366 718.854 327.51C718.17 331.891 718.43 336.223 719.494 340.337C721.842 349.417 717.161 358.66 708.011 362.509C692.241 369.143 680.497 382.572 677.882 399.473C676.221 410.203 678.488 420.734 683.695 429.854C688.277 437.879 686.537 447.529 679.505 453.533C672.643 459.391 667.871 467.34 666.444 476.561C663.915 492.9 672.598 508.671 687.207 517.387C689.94 519.019 691.382 521.894 690.921 524.763C690.917 524.79 690.912 524.817 690.909 524.843C689.599 533.302 696.161 541.364 705.564 542.848C705.635 542.859 705.707 542.87 705.779 542.88C706.848 543.036 707.607 543.936 707.458 544.896L707.455 544.914C705.611 556.828 714.854 568.182 728.097 570.273C730.101 570.59 732.081 570.676 734.005 570.552C738.438 570.269 742.79 572.221 745.424 575.557C753.712 586.05 766.449 593.72 781.498 595.939C809.583 600.08 836.571 582.417 840.664 557.221C841.523 551.928 841.382 546.682 840.368 541.642C838.915 534.414 841.174 527.123 846.624 521.909C850.259 518.432 852.77 513.922 853.569 508.759Z" fill="#7B67EA"/>
<path opacity="0.7" fill-rule="evenodd" clip-rule="evenodd" d="M795.057 462.382C784.57 454.078 777.817 441.129 777.817 426.569C777.817 401.503 797.81 381.183 822.473 381.183C825.298 381.183 828.058 381.462 830.737 381.972C836.021 362.259 853.749 347.762 874.82 347.762C900.057 347.762 920.516 368.555 920.516 394.206C920.516 398.593 919.903 402.833 918.785 406.857C921.793 406.018 924.957 405.561 928.227 405.561C947.898 405.561 963.844 421.768 963.844 441.761C963.844 449.426 961.494 456.53 957.495 462.382H795.057Z" fill="url(#paint2_linear)"/>
</g>
<g filter="url(#filter2_i)">
<path fill-rule="evenodd" clip-rule="evenodd" d="M711.025 577.321H295.522C278.937 577.321 265.493 563.735 265.493 546.974V303.287C265.493 286.526 278.937 272.94 295.522 272.94H711.025C727.609 272.94 741.054 286.526 741.054 303.287V546.974C741.054 563.735 727.609 577.321 711.025 577.321Z" fill="#131415"/>
<path fill-rule="evenodd" clip-rule="evenodd" d="M731.819 574.072H296.98C281.746 574.072 269.397 562.013 269.397 547.138V299.906C269.397 285.031 281.746 272.972 296.98 272.972H731.819C747.052 272.972 759.401 285.031 759.401 299.906V547.138C759.401 562.013 747.052 574.072 731.819 574.072Z" fill="#131415"/>
<path fill-rule="evenodd" clip-rule="evenodd" d="M298.483 567.337H743.554V279.708H298.483V567.337Z" fill="white"/>
<path fill-rule="evenodd" clip-rule="evenodd" d="M308.419 306.338H376.308V290.566H308.419V306.338Z" fill="#F89B85"/>
<path fill-rule="evenodd" clip-rule="evenodd" d="M308.419 332.408H318.267V322.454H308.419V332.408Z" fill="#871EFF"/>
<path fill-rule="evenodd" clip-rule="evenodd" d="M308.419 349.093H318.267V339.14H308.419V349.093Z" fill="#D6219C"/>
<path fill-rule="evenodd" clip-rule="evenodd" d="M308.419 365.778H318.267V355.825H308.419V365.778Z" fill="#FCAC98"/>
</g>
<g filter="url(#filter3_i)">
<path fill-rule="evenodd" clip-rule="evenodd" d="M541.082 245.456H402.787C402.138 245.456 401.612 244.889 401.612 244.191V122.981H542.257V244.191C542.257 244.889 541.731 245.456 541.082 245.456Z" fill="url(#paint3_linear)"/>
<path fill-rule="evenodd" clip-rule="evenodd" d="M516.648 122.982V244.262H395.734C395.734 244.922 396.377 245.456 397.17 245.456H556.453C557.246 245.456 557.889 244.922 557.889 244.262V122.982H516.648Z" fill="url(#paint4_linear)"/>
</g>
<g clip-path="url(#clip0)" filter="url(#filter4_i)">
<path fill-rule="evenodd" clip-rule="evenodd" d="M482.054 409.575H335.247C334.558 409.575 334 409.054 334 408.413V297H483.301V408.413C483.301 409.054 482.743 409.575 482.054 409.575Z" fill="#131415"/>
<path fill-rule="evenodd" clip-rule="evenodd" d="M393.575 331.382C394.062 331.544 394.55 331.707 394.983 331.924C400.183 333.878 403 336.699 403 339.955C403 343.211 400.183 346.032 394.983 347.985C394.117 348.42 393.25 348.854 392.167 349.071C392.275 349.613 392.383 350.102 392.492 350.59C392.6 351.078 392.708 351.567 392.817 352.109C393.683 357.535 392.6 361.659 390 363.179C389.35 363.613 388.483 363.83 387.4 363.83C384.367 363.83 380.683 361.659 377 357.969C373.317 361.659 369.633 363.83 366.6 363.83C365.733 363.83 364.867 363.613 364 363.179C361.183 361.659 360.317 357.752 361.183 352.109C361.292 351.567 361.4 351.078 361.508 350.59C361.617 350.102 361.725 349.613 361.833 349.071C361.4 348.854 360.912 348.691 360.425 348.528C359.937 348.365 359.45 348.203 359.017 347.985C353.817 346.032 351 343.211 351 339.955C351 336.699 353.817 333.878 359.017 331.924C359.45 331.707 359.937 331.544 360.425 331.382C360.912 331.219 361.4 331.056 361.833 330.839C361.725 330.405 361.617 329.917 361.508 329.428C361.4 328.94 361.292 328.452 361.183 328.017C360.317 322.374 361.4 318.251 364 316.731C364.867 316.297 365.733 316.08 366.6 316.08C369.633 316.08 373.317 318.251 377 321.94C380.9 318.251 384.583 316.08 387.4 316.08C388.267 316.08 389.133 316.297 390 316.731C392.817 318.251 393.683 322.157 392.817 327.8C392.708 328.343 392.6 328.831 392.492 329.32C392.383 329.808 392.275 330.296 392.167 330.839C392.6 331.056 393.087 331.219 393.575 331.382ZM388.917 318.902C388.483 318.685 387.833 318.468 387.4 318.468C384.8 318.468 381.767 320.638 378.517 323.677C379.479 324.779 380.354 325.968 381.253 327.189C381.771 327.892 382.296 328.606 382.85 329.32C385.233 329.537 387.617 329.971 389.783 330.405C390 329.32 390.217 328.452 390.433 327.583C391.3 323.025 390.65 319.987 388.917 318.902ZM367.683 345.381C367.9 345.815 368.171 346.249 368.442 346.683C368.712 347.117 368.983 347.551 369.2 347.985C367.683 347.768 366.167 347.551 364.65 347.117C364.755 346.801 364.86 346.473 364.968 346.135L364.968 346.134L364.968 346.134C365.306 345.078 365.674 343.927 366.167 342.776C366.817 343.645 367.25 344.513 367.683 345.381ZM369.2 331.924C367.683 332.141 366.167 332.358 364.867 332.792C365.3 334.095 365.733 335.614 366.167 337.133C366.817 336.265 367.25 335.397 367.683 334.529C367.857 334.238 368.016 333.978 368.163 333.737C368.565 333.079 368.883 332.56 369.2 331.924ZM367.683 339.955C367.892 339.536 368.124 339.094 368.364 338.637C368.869 337.675 369.409 336.644 369.85 335.614C370.203 334.906 370.684 334.199 371.189 333.457C371.613 332.833 372.054 332.184 372.45 331.49C373.967 331.273 375.483 331.273 377 331.273C378.517 331.273 380.25 331.273 381.55 331.49C381.983 332.141 382.416 332.846 382.85 333.552L382.85 333.552L382.85 333.552L382.85 333.552L382.85 333.552L382.85 333.552L382.85 333.552L382.85 333.552L382.85 333.552L382.85 333.552L382.85 333.552C383.283 334.258 383.717 334.963 384.15 335.614C385.017 336.916 385.667 338.436 386.317 339.955C386.107 340.374 385.876 340.816 385.636 341.272L385.636 341.273C385.131 342.235 384.591 343.265 384.15 344.296C383.5 345.598 382.633 347.117 381.55 348.42C380.033 348.637 378.517 348.637 377 348.637C375.483 348.637 373.75 348.637 372.45 348.42C371.367 346.9 370.5 345.598 369.85 344.296C369.262 343.265 368.774 342.235 368.318 341.272C368.102 340.816 367.892 340.374 367.683 339.955ZM387.833 342.776C387.183 343.645 386.75 344.513 386.317 345.381C386.142 345.672 385.984 345.931 385.837 346.172C385.434 346.831 385.117 347.35 384.8 347.985C386.533 347.768 387.833 347.551 389.35 347.117C389.245 346.802 389.14 346.474 389.032 346.137L389.032 346.135L389.031 346.134L389.031 346.134C388.693 345.078 388.325 343.927 387.833 342.776ZM386.317 334.529L384.8 331.924C386.317 332.141 387.833 332.358 389.35 332.792C389.245 333.108 389.14 333.436 389.032 333.773L389.032 333.775L389.031 333.776L389.031 333.776C388.693 334.832 388.325 335.983 387.833 337.133C387.183 336.265 386.75 335.397 386.317 334.529ZM377 329.103H379.817C378.95 327.8 378.083 326.715 377 325.63C376.698 326.008 376.37 326.386 376.033 326.774C375.405 327.498 374.748 328.254 374.183 329.103H377ZM365.083 318.902C365.517 318.685 366.167 318.468 366.6 318.468C369.2 318.468 372.233 320.638 375.267 323.677C373.921 325.025 372.745 326.715 371.438 328.596L371.437 328.596C371.271 328.834 371.104 329.076 370.933 329.32C368.55 329.537 366.383 329.971 364.217 330.405C364 329.32 363.783 328.452 363.567 327.583L363.567 327.583C362.917 323.025 363.567 319.987 365.083 318.902ZM353.383 339.955C353.383 342.342 356.85 344.947 362.483 346.683C363.133 344.513 364 342.342 365.083 340.172C364 337.784 363.133 335.614 362.483 333.444C361.617 333.661 360.75 333.878 359.883 334.312C355.767 335.831 353.383 338.001 353.383 339.955ZM366.6 361.442C366.167 361.442 365.517 361.225 365.083 361.008C363.35 359.923 362.7 356.884 363.567 352.326C363.783 351.458 364 350.59 364.217 349.505C366.383 349.939 368.767 350.373 371.15 350.59C371.704 351.304 372.229 352.017 372.747 352.72C373.645 353.942 374.521 355.131 375.483 356.233C372.233 359.272 369.2 361.442 366.6 361.442ZM377 350.807H374.183C375.05 352.109 375.917 353.195 377 354.28C377.302 353.902 377.63 353.523 377.966 353.136L377.967 353.136C378.595 352.412 379.252 351.655 379.817 350.807H377ZM388.917 361.008C388.483 361.225 388.05 361.442 387.4 361.442C384.8 361.442 381.767 359.272 378.733 356.233C380.079 354.885 381.255 353.195 382.562 351.314L382.562 351.314C382.728 351.076 382.896 350.834 383.067 350.59C385.45 350.373 387.833 349.939 390 349.505C390.217 350.59 390.433 351.458 390.65 352.326L390.65 352.326C391.083 356.884 390.433 359.923 388.917 361.008ZM388.917 339.738C390 342.125 390.867 344.296 391.517 346.466C392.383 346.249 393.25 346.032 394.117 345.598C398.233 344.079 400.617 341.908 400.617 339.738C400.617 337.35 397.15 334.746 391.517 333.009C390.867 335.18 390 337.567 388.917 339.738Z" fill="#61DAFB"/>
<path d="M377 344.73C379.632 344.73 381.766 342.592 381.766 339.955C381.766 337.318 379.632 335.18 377 335.18C374.367 335.18 372.233 337.318 372.233 339.955C372.233 342.592 374.367 344.73 377 344.73Z" fill="#61DAFB"/>
<path fill-rule="evenodd" clip-rule="evenodd" d="M445.726 297V418.281H334C334 418.94 334.594 419.474 335.327 419.474H482.506C483.239 419.474 483.833 418.94 483.833 418.281V297H445.726Z" fill="url(#paint5_linear)"/>
</g>
<g filter="url(#filter5_i)">
<path fill-rule="evenodd" clip-rule="evenodd" d="M369 297V193H489V297H369Z" fill="white"/>
<path fill-rule="evenodd" clip-rule="evenodd" d="M461 193V297H491V193H461Z" fill="#CBC3F7"/>
<g clip-path="url(#clip1)">
<path d="M411.472 245H420.767L416 234.363L411.472 245ZM416 219L392.167 227.509L395.98 259.654L416 271L436.02 259.418L439.833 227.509L416 219ZM409.565 249.491L406.705 257.054H401.223L416 223.491L431.253 257.054L426.01 256.818L422.673 249.254H415.762" fill="#C4473A"/>
</g>
</g>
<g filter="url(#filter6_i)">
<path opacity="0.590402" fill-rule="evenodd" clip-rule="evenodd" d="M208.359 183.692C202.121 183.692 197.065 178.537 197.065 172.176C197.065 165.816 202.121 160.66 208.359 160.66C208.679 160.66 208.993 160.682 209.307 160.709C211.616 153.964 217.907 149.124 225.31 149.124C232.73 149.124 239.033 153.987 241.33 160.756C241.788 160.699 242.251 160.66 242.723 160.66C244.512 160.66 246.199 161.096 247.703 161.851C250.156 157.192 254.977 154.022 260.527 154.022C268.562 154.022 275.076 160.664 275.076 168.858C275.076 177.05 268.562 183.692 260.527 183.692H208.359Z" fill="#871EFF"/>
<path fill-rule="evenodd" clip-rule="evenodd" d="M719.348 136.817C727.88 136.817 734.796 129.88 734.796 121.322C734.796 112.765 727.88 105.828 719.348 105.828C717.493 105.828 715.723 106.173 714.075 106.774C711.389 96.4931 702.064 88.9067 690.971 88.9067C680.239 88.9067 671.16 96.0059 668.149 105.778C665.656 104.285 662.751 103.411 659.636 103.411C650.439 103.411 642.983 110.889 642.983 120.114C642.983 129.339 650.439 136.817 659.636 136.817H719.348Z" fill="#D6219B"/>
<path opacity="0.45931" fill-rule="evenodd" clip-rule="evenodd" d="M794.632 185.474C799.205 185.474 802.912 181.786 802.912 177.236C802.912 172.687 799.205 168.999 794.632 168.999C793.638 168.999 792.688 169.182 791.805 169.502C790.367 164.035 785.369 160.003 779.423 160.003C773.672 160.003 768.806 163.777 767.192 168.972C765.856 168.178 764.299 167.714 762.629 167.714C757.7 167.714 753.704 171.689 753.704 176.594C753.704 181.498 757.7 185.474 762.629 185.474H794.632Z" fill="#D6219B"/>
</g>
<g filter="url(#filter7_i)">
<path fill-rule="evenodd" clip-rule="evenodd" d="M418.152 58.0657C417.257 58.355 416.511 58.9924 416.081 59.8366L403.664 84.1865C402.937 85.6098 402.801 87.2667 403.284 88.7925L423.901 153.944C424.177 154.813 425.097 155.292 425.957 155.014L491.49 133.833C492.708 133.439 493.721 132.573 494.307 131.425L506.681 107.16C507.163 106.214 507.254 105.113 506.933 104.1L486.068 38.1684C485.789 37.2873 484.858 36.7997 483.985 37.078L418.152 58.0657Z" fill="white"/>
<g clip-path="url(#clip2)">
<path d="M439.727 84.0342C426.015 88.4896 418.643 103.281 423.233 117.408C426.876 128.621 437.13 135.702 447.889 135.925C449.086 135.784 449.542 134.892 449.323 134.219C449.105 133.547 448.449 131.528 447.793 129.51C441.262 133.12 438.456 129.073 438.456 129.073C436.384 126.523 434.519 126.137 434.519 126.137C431.761 125.298 434.234 124.495 434.234 124.495C436.78 123.915 438.93 125.944 438.93 125.944C442.417 129.026 445.649 126.736 446.779 125.625C446.494 123.982 446.804 122.642 447.26 121.75C441.27 123.2 434.921 122.784 431.788 113.141C430.914 110.45 431.084 107.916 432.075 105.611C431.631 105.011 429.858 102.612 430.114 98.8101C430.114 98.8101 431.918 97.48 437.732 99.3098C439.537 97.9797 441.487 97.0981 443.735 96.3677C445.758 95.7104 448.079 95.2042 450.32 95.2196C453.948 90.322 456.19 90.3374 456.19 90.3374C458.705 93.4871 458.607 96.246 458.601 96.9918C460.757 98.2744 462.385 100.225 463.259 102.916C466.392 112.558 461.276 116.7 456.1 119.126C457.29 119.73 458.402 120.857 459.203 123.323C460.296 126.687 461.171 129.378 461.462 130.275C461.681 130.948 462.422 131.699 463.625 130.812C472.423 124.234 476.331 112.552 472.688 101.34C468.098 87.212 453.44 79.5787 439.727 84.0342Z" fill="#181616"/>
</g>
<path fill-rule="evenodd" clip-rule="evenodd" d="M402.345 86.2308L471.633 63.5611L485.665 35.825L418.124 57.5627C417.318 57.8222 416.646 58.3959 416.259 59.1558L402.345 86.2308Z" fill="#FFC9BB"/>
<path fill-rule="evenodd" clip-rule="evenodd" d="M493.503 132.669L507.545 105.133L485.665 35.825L471.507 63.4955L493.503 132.669Z" fill="url(#paint6_linear)"/>
</g>
<g filter="url(#filter8_i)">
<path fill-rule="evenodd" clip-rule="evenodd" d="M317.599 174.259C308.43 222.282 295.368 270.306 295.368 270.306H335.079C335.079 270.306 337.755 261.592 327.562 263.174C325.878 259.437 331.57 223.254 338.439 201.885C345.307 180.517 317.599 174.259 317.599 174.259Z" fill="#DD3B9A"/>
<path fill-rule="evenodd" clip-rule="evenodd" d="M363.863 101.738C363.385 106.38 361.304 110.014 356.941 109.494C353.597 109.136 351.274 105.081 351.753 100.438C352.232 95.795 353.761 92.1542 358.675 92.6812C364.085 93.2617 364.342 97.0946 363.863 101.738Z" fill="#131415"/>
<path fill-rule="evenodd" clip-rule="evenodd" d="M349.195 92.8188C347.932 95.0205 345.913 97.3188 350.037 103.221L353.246 102.471L351.706 95.3554L349.195 92.8188Z" fill="#F79CA6"/>
<path fill-rule="evenodd" clip-rule="evenodd" d="M361.421 90.0339C358.562 88.5667 355.964 88.4855 353.515 89.1727C351.363 89.7755 350.45 91.0942 350.217 91.0899C350.323 90.6002 350.885 90.018 350.516 88.6367C349.823 86.044 345.826 85.8386 344.423 87.6115C343.021 89.3844 342.725 92.2499 345.203 93.7023C346.312 94.3524 348.523 93.3128 349.195 92.8188C349.253 93.4052 348.358 94.4224 348.662 96.6284C349.174 100.348 354.256 99.1654 355.555 98.7414C357.285 98.1768 358.222 96.2367 359.079 93.7681C359.079 93.7681 360.581 93.2943 363.329 95.2667C364.532 94.4277 364.765 91.7501 361.421 90.0339Z" fill="#F79CA6"/>
<path fill-rule="evenodd" clip-rule="evenodd" d="M372.849 113.855C374.292 116.123 373.01 124.628 373.01 124.628L354.896 116.204L358.102 112.72C358.102 112.72 362.43 113.611 366.197 113.855C369.964 114.098 372.849 113.855 372.849 113.855Z" fill="#05C5DB"/>
<path fill-rule="evenodd" clip-rule="evenodd" d="M408.205 104.825C398.716 106.867 367.235 114.209 360.347 113.287C359.289 116.492 359.004 122.641 358.057 125.88C364.841 126.925 372.7 124.969 380.704 123.17C382.886 122.679 408.935 113.745 410.834 113.287L408.205 104.825Z" fill="#855CFC"/>
<path fill-rule="evenodd" clip-rule="evenodd" d="M326.399 196.782C323.418 193.102 320.752 189.809 319.228 186.686C307.025 161.674 328.655 111.427 343.259 109.544C350.373 108.626 356.489 111.297 364.061 114.603C370.15 117.261 377.181 120.331 386.43 122.277C392.007 122.931 398.046 123.066 403.787 121.874C415.767 119.386 419.241 114.861 420.601 113.035C421.961 111.209 422.994 112.006 422.459 112.743L422.427 112.788C422.389 112.84 422.346 112.899 422.3 112.962C423.369 111.591 424.556 110.276 424.954 110.611C425.327 110.925 425.055 111.715 424.67 112.455C425.328 111.521 426.158 110.586 426.631 110.984C427.074 111.357 426.728 112.244 426.283 113.024C426.825 112.325 427.47 111.691 427.845 112.007C428.183 112.292 428.054 112.917 427.816 113.511C428.172 112.983 428.602 112.57 428.966 112.877C429.746 113.535 428.634 116.747 423.965 121.402C415.036 130.304 406.958 131.59 392.357 133.525C389.374 133.92 386.344 134.083 383.374 134.049L383.373 134.053C383.373 134.053 375.914 134.639 365.721 131.74C346.593 154.988 348.847 176.129 348.847 176.129C348.847 176.129 381.86 213.952 364.46 262.416C372.775 261.777 371.545 270.306 371.545 270.306H335.079C335.079 270.306 343.673 246.697 341.677 227.196C340.324 213.979 332.666 204.522 326.399 196.782Z" fill="url(#paint7_linear)"/>
<path fill-rule="evenodd" clip-rule="evenodd" d="M319.228 186.686C323.957 196.378 339.68 207.694 341.677 227.196C343.673 246.697 335.079 270.306 335.079 270.306H371.545C371.545 270.306 372.775 261.777 364.46 262.416C381.86 213.953 348.847 176.129 348.847 176.129C348.847 176.129 348.545 171.443 348.687 169.071C348.687 169.071 315.637 166.161 315.686 166.161C315.39 173.747 316.402 180.893 319.228 186.686Z" fill="url(#paint8_linear)"/>
</g>
<g filter="url(#filter9_i)">
<path fill-rule="evenodd" clip-rule="evenodd" d="M869.84 296.723C869.479 293.883 868.748 292.364 866.431 292.079C864.48 291.838 864.382 293.516 862.111 293.449C859.723 293.379 859.275 291.395 856.842 293.143C855.043 294.436 855.113 297.497 857.234 301.031C859.356 304.565 856.59 311.572 861.902 313.988C867.216 316.404 866.174 310.778 868.654 312.285C871.134 313.793 870.096 298.732 869.84 296.723Z" fill="#F79CA6"/>
<path fill-rule="evenodd" clip-rule="evenodd" d="M868.088 297.42C871.275 297.528 874.036 298.936 873.505 300.885C872.974 302.834 872.655 306.083 874.78 307.166C876.904 308.249 878.922 310.956 877.648 314.097C876.373 317.237 878.167 316.587 879.932 318.753C882.534 321.948 878.497 323.572 878.869 324.926C879.356 326.699 880.384 327.035 883.313 326.406C886.242 325.777 886.906 328.035 888.022 329.763C889.138 331.491 892.222 327.67 893.651 329.275C895.081 330.881 894.354 335.271 890.64 335.436C886.926 335.601 886.836 334.419 884.481 335.25C881.145 336.427 882.251 338.589 880.409 339.004C877.131 339.743 876.88 336.895 874.727 335.755C872.573 334.615 871.097 338.607 868.088 337.705C865.782 337.013 867.079 332.994 863.998 331.911C859.067 330.177 865.482 325.952 862.989 326.496C859.271 327.308 857.2 324.113 859.696 322.489C861.684 321.195 858.74 320.54 858.315 317.67C858.074 316.039 859.908 309.568 859.908 309.568L868.088 297.42Z" fill="#F79CA6"/>
<path fill-rule="evenodd" clip-rule="evenodd" d="M890.876 332.998C889.656 334.298 888.254 333.58 886.941 332.717C885.628 331.854 885.598 331.389 883.022 331.092C880.448 330.795 880.077 333.066 878.604 332.687C877.131 332.308 877.147 330.194 875.501 329.259C873.856 328.324 872.654 329.819 871.119 329.702C869.583 329.587 873.293 324.601 872.868 322.652C872.443 320.703 870.265 320.54 868.991 319.782C867.716 319.024 868.035 317.833 867.716 316.1C867.398 314.368 866.76 313.772 864.317 312.581L859.726 310.227C859.27 311.913 858.121 316.358 858.315 317.67C858.74 320.54 861.684 321.195 859.696 322.49C857.2 324.113 859.271 327.308 862.989 326.496C865.482 325.952 859.067 330.177 863.998 331.911C867.079 332.994 865.782 337.013 868.088 337.705C871.098 338.607 872.573 334.615 874.727 335.755C876.881 336.895 877.131 339.743 880.41 339.004C882.251 338.589 881.145 336.427 884.482 335.25C886.836 334.42 886.926 335.601 890.64 335.436C892.658 335.346 893.793 334.009 894.18 332.55C893.314 332.325 891.733 332.084 890.876 332.998Z" fill="#F79CA6"/>
<path fill-rule="evenodd" clip-rule="evenodd" d="M854.307 337.341C855.558 335.776 856.862 334.473 858.471 333.412C855.98 330.127 853.831 327.748 854.465 325.899C855.18 323.813 861.662 310.539 861.662 310.539L852.308 305.287C852.308 305.287 845.945 318.821 844.264 320.738C842.745 322.469 842.256 321.023 836.675 320.166C834.594 323.03 833.098 326.226 831.473 329.367C833.376 330.079 836.472 331.356 839.634 333.168C843.488 335.376 848.444 337.151 850.889 341.493C851.957 340.056 853.19 338.739 854.307 337.341Z" fill="#131415"/>
<path fill-rule="evenodd" clip-rule="evenodd" d="M843.818 321.178C843.96 321.062 844.106 320.917 844.264 320.737C845.945 318.821 852.308 305.286 852.308 305.286L861.662 310.539C861.662 310.539 855.18 323.813 854.465 325.899C854.35 326.235 854.327 326.589 854.382 326.962L843.818 321.178Z" fill="#131415"/>
<path fill-rule="evenodd" clip-rule="evenodd" d="M852.901 299.363C847.148 304.075 847.142 307.398 849.555 310.387C851.968 313.376 857.304 313.489 861.452 310.349C865.593 307.216 867.637 302.928 864.286 298.778C860.654 294.279 856.929 296.065 852.901 299.363Z" fill="#131415"/>
<path fill-rule="evenodd" clip-rule="evenodd" d="M859.059 307.404C857.496 308.715 857.272 311.071 858.558 312.664C859.844 314.257 862.154 314.486 863.717 313.174C865.28 311.863 865.504 309.508 864.218 307.915C862.931 306.321 860.622 306.093 859.059 307.404Z" fill="#131415"/>
<path fill-rule="evenodd" clip-rule="evenodd" d="M865.326 313.23C855.766 307.599 864.404 302.855 863.224 299.547C861.622 295.053 858.028 295.809 857.84 295.576C857.167 294.743 861.596 294.117 861.596 294.117L870.855 304.157L865.326 313.23Z" fill="#F79CA6"/>
<path fill-rule="evenodd" clip-rule="evenodd" d="M817.738 356.171C812.595 367.867 799.665 385.539 797.608 411.529C795.551 437.52 807.509 463.643 809.053 473C810.596 482.356 812.396 490.413 812.396 490.413C812.396 490.413 815.996 491.452 819.339 491.192C822.683 490.933 826.026 489.633 826.026 489.633C826.026 489.633 822.582 472.363 823.532 460.726C824.483 449.089 829.369 407.244 829.369 407.244C829.369 407.244 830.912 451.688 832.198 463.384C833.483 475.079 836.055 489.114 836.055 489.114C836.055 489.114 839.142 490.673 843.256 490.153C847.371 489.633 849.943 486.774 849.943 486.774C849.943 486.774 847.114 474.039 848.4 460.524C849.685 447.01 857.521 416.639 858.293 400.786C859.065 384.932 845.533 362.347 845.533 362.347L817.738 356.171Z" fill="#131415"/>
<path fill-rule="evenodd" clip-rule="evenodd" d="M811.624 318.792C811.624 318.792 824.151 318.355 836.675 320.165C836.675 320.165 836.37 330.141 839.527 331.921C842.033 333.334 847.162 332.648 851.242 332.102C854.082 331.722 856.413 331.41 856.998 331.921C858.454 333.192 859.325 335.046 859.845 336.153C859.895 336.258 859.941 336.357 859.985 336.448C859.985 336.448 859.985 336.449 859.985 336.449C860.067 336.576 860.149 336.694 860.234 336.819C860.283 336.89 860.333 336.963 860.385 337.041C865.359 344.715 864.354 358.156 859.576 368.009C854.802 377.853 849.77 384.772 842.993 383.99C837.796 383.39 833.503 380.499 828.529 377.067C831.233 375.119 833.164 373.198 833.684 369.833C839.527 373.321 844.585 375.203 844.585 375.203C844.585 375.203 846.921 371.478 849.94 364.543C852.689 358.233 853.804 349.267 853.98 347.722C853.923 347.784 853.874 347.832 853.836 347.864C845.474 354.798 845.556 359.712 845.587 361.594C845.593 361.967 845.597 362.22 845.533 362.347C845.167 363.077 813.758 363.579 817.738 356.172C821.719 348.764 830.312 332.827 830.312 332.827C830.312 332.827 815.484 334.363 805.967 328.842C799.281 324.962 801.811 299.768 801.811 299.768C801.811 299.768 804.897 300.634 807.469 300.634C810.04 300.634 811.069 298.729 811.069 298.729C811.47 306.468 811.624 318.792 811.624 318.792Z" fill="url(#paint9_linear)"/>
<path fill-rule="evenodd" clip-rule="evenodd" d="M829.893 378.058C828.327 377.095 827.202 376.383 826.796 376.133C825.04 375.063 818.685 371.604 819.315 370.546C819.579 370.104 820.124 370.143 820.809 370.499C821.52 370.862 822.284 371.222 822.698 371.411C821.582 370.826 817.871 368.833 818.356 367.849C818.643 367.262 819.976 367.829 821.32 368.479C822.269 368.936 823.232 369.433 823.694 369.672C823.139 369.353 821.881 368.647 820.752 367.924C819.591 367.184 818.684 366.356 819.059 365.866C819.395 365.417 820.312 365.705 821.316 366.276C822.084 366.718 822.894 367.198 823.537 367.577C822.18 366.719 820.214 365.33 820.736 364.721C821.482 363.846 826.781 367.36 827.308 367.715C827.028 367.458 825.437 366.015 825.175 365.69C824.713 365.132 824.767 364.336 825.634 364.423C826.432 364.499 830.185 367.073 831.57 368.688C832.141 369.011 832.861 369.403 833.684 369.833C833.348 373.222 832.487 375.962 829.893 378.058Z" fill="white"/>
<path fill-rule="evenodd" clip-rule="evenodd" d="M801.811 299.768C801.811 299.768 802.441 287.438 804.975 285.615C807.51 283.792 810.51 287.647 810.81 288.383C811.11 289.12 810.682 290.203 810.682 292.022C810.682 293.842 811.069 298.728 811.069 298.728L810.124 301.335L803.052 301.638L801.811 299.768Z" fill="#131415"/>
<path fill-rule="evenodd" clip-rule="evenodd" d="M811.706 292.849L802.704 286.19C800.67 284.686 800.227 281.791 801.716 279.736L803.071 277.864C803.365 277.458 803.928 277.37 804.329 277.667C804.73 277.964 804.817 278.534 804.524 278.939L803.168 280.811C802.266 282.056 802.535 283.81 803.767 284.722L812.769 291.381C814.001 292.292 815.737 292.02 816.639 290.775L820.476 285.476C820.77 285.071 821.334 284.983 821.735 285.28C822.136 285.576 822.223 286.146 821.93 286.552L818.093 291.85C816.604 293.905 813.74 294.353 811.706 292.849Z" fill="#F79CA6"/>
<path fill-rule="evenodd" clip-rule="evenodd" d="M838.363 295.699L778.127 269.749L800.283 239.156L842.971 289.336L838.363 295.699Z" fill="#871FFF"/>
<path fill-rule="evenodd" clip-rule="evenodd" d="M844.759 303.814L838.362 295.7L842.971 289.336L852.557 293.045L844.759 303.814Z" fill="#871FFF"/>
<path fill-rule="evenodd" clip-rule="evenodd" d="M773.548 242.871C767.429 251.319 769.246 263.18 777.606 269.363C785.964 275.546 797.701 273.711 803.819 265.262C809.937 256.815 808.12 244.954 799.761 238.77C791.402 232.587 779.666 234.423 773.548 242.871Z" fill="white"/>
<path fill-rule="evenodd" clip-rule="evenodd" d="M776.667 245.182C771.81 251.886 773.252 261.299 779.888 266.205C786.525 271.112 795.842 269.655 800.7 262.951C805.556 256.247 804.114 246.834 797.478 241.927C790.842 237.02 781.524 238.478 776.667 245.182Z" fill="#171733"/>
<path fill-rule="evenodd" clip-rule="evenodd" d="M805.795 286.001C805.795 286.001 805.195 289.64 805.795 289.77C806.395 289.9 806.524 290.55 807.038 290.593C807.553 290.636 807.553 291.156 808.153 291.243C808.753 291.329 808.392 291.474 809.206 291.691C810.02 291.907 811.469 292.391 812.019 289.442C812.57 286.492 807.938 282.656 805.066 285.655L805.795 286.001Z" fill="#131415"/>
<path fill-rule="evenodd" clip-rule="evenodd" d="M808.839 292.802C807.784 291.058 806.138 288.297 806.953 287.777C807.767 287.257 810.553 291.286 810.553 291.286L810.639 294.318C810.639 294.318 809.31 293.582 808.839 292.802Z" fill="#131415"/>
<path fill-rule="evenodd" clip-rule="evenodd" d="M793.695 246.155C793.631 246.155 793.567 246.135 793.511 246.094C792.352 245.236 792.395 243.937 792.433 242.79C792.469 241.656 792.502 240.676 791.607 240.014C790.713 239.354 789.799 239.68 788.74 240.06C787.67 240.442 786.458 240.876 785.298 240.019C784.14 239.162 784.182 237.863 784.22 236.716C784.258 235.581 784.291 234.602 783.397 233.942C782.503 233.28 781.59 233.608 780.531 233.987C779.461 234.37 778.248 234.804 777.089 233.947C775.931 233.09 775.974 231.791 776.012 230.644C776.049 229.51 776.082 228.531 775.189 227.87C774.296 227.209 773.382 227.537 772.324 227.916C771.254 228.3 770.042 228.734 768.884 227.877C767.725 227.021 767.769 225.722 767.807 224.574C767.844 223.44 767.878 222.461 766.984 221.801C766.091 221.141 765.178 221.467 764.119 221.847C763.05 222.231 761.837 222.665 760.679 221.808C759.52 220.951 759.563 219.652 759.601 218.506C759.639 217.372 759.671 216.392 758.779 215.731C758.64 215.629 758.609 215.432 758.711 215.292C758.812 215.153 759.007 215.122 759.146 215.225C760.304 216.081 760.261 217.381 760.222 218.527C760.185 219.661 760.152 220.641 761.046 221.301C761.939 221.961 762.852 221.634 763.911 221.255C764.981 220.872 766.193 220.437 767.351 221.294C768.509 222.151 768.467 223.45 768.428 224.596C768.391 225.73 768.357 226.71 769.251 227.37C770.143 228.03 771.057 227.703 772.116 227.324C773.185 226.941 774.398 226.506 775.555 227.363C776.715 228.22 776.672 229.519 776.634 230.665C776.595 231.799 776.563 232.779 777.456 233.44C778.35 234.101 779.265 233.774 780.323 233.395C781.394 233.012 782.606 232.578 783.765 233.435C784.923 234.292 784.88 235.591 784.842 236.737C784.804 237.871 784.771 238.851 785.665 239.512C786.56 240.173 787.474 239.846 788.533 239.467C789.603 239.084 790.815 238.65 791.975 239.508C793.134 240.364 793.091 241.664 793.054 242.811C793.017 243.946 792.984 244.925 793.879 245.587C794.017 245.689 794.047 245.886 793.946 246.026C793.884 246.11 793.79 246.155 793.695 246.155Z" fill="#FA7454"/>
<path fill-rule="evenodd" clip-rule="evenodd" d="M793.237 258.261C793.173 258.261 793.11 258.242 793.054 258.201C791.63 257.146 791.567 255.746 791.506 254.392C791.45 253.13 791.396 251.937 790.212 251.061C789.027 250.185 787.887 250.495 786.68 250.822C785.383 251.173 784.044 251.535 782.619 250.482C781.195 249.429 781.133 248.029 781.073 246.674C781.016 245.412 780.963 244.221 779.781 243.345C778.597 242.47 777.456 242.779 776.249 243.107C774.954 243.458 773.614 243.821 772.19 242.768C770.766 241.715 770.704 240.314 770.643 238.96C770.587 237.698 770.534 236.506 769.351 235.631C768.168 234.757 767.028 235.066 765.822 235.393C764.526 235.745 763.186 236.108 761.763 235.056C760.341 234.002 760.278 232.602 760.218 231.249C760.162 229.987 760.109 228.795 758.927 227.92C757.743 227.045 756.604 227.355 755.397 227.683C754.101 228.034 752.762 228.398 751.338 227.344C749.916 226.292 749.853 224.891 749.793 223.537C749.737 222.276 749.684 221.084 748.501 220.208C748.363 220.106 748.332 219.91 748.434 219.77C748.536 219.629 748.73 219.599 748.868 219.701C750.292 220.755 750.354 222.155 750.414 223.509C750.47 224.771 750.523 225.962 751.706 226.838C752.889 227.713 754.029 227.403 755.236 227.075C756.531 226.724 757.87 226.36 759.294 227.414C760.717 228.466 760.779 229.866 760.839 231.22C760.895 232.481 760.948 233.674 762.131 234.548C763.313 235.424 764.453 235.114 765.661 234.786C766.955 234.435 768.294 234.072 769.718 235.125C771.142 236.177 771.204 237.578 771.264 238.932C771.321 240.194 771.374 241.386 772.557 242.261C773.741 243.136 774.881 242.827 776.088 242.5C777.383 242.149 778.723 241.785 780.148 242.839C781.572 243.891 781.634 245.292 781.694 246.646C781.75 247.908 781.803 249.1 782.986 249.975C784.17 250.851 785.312 250.542 786.519 250.215C787.814 249.864 789.154 249.501 790.579 250.555C792.004 251.608 792.066 253.009 792.127 254.363C792.184 255.626 792.237 256.817 793.421 257.693C793.56 257.796 793.59 257.992 793.488 258.133C793.427 258.217 793.333 258.261 793.237 258.261Z" fill="#FA7454"/>
<path fill-rule="evenodd" clip-rule="evenodd" d="M782.129 262.124C782.066 262.124 782.002 262.104 781.945 262.063C780.787 261.206 780.83 259.906 780.867 258.76C780.904 257.625 780.937 256.645 780.042 255.983C779.148 255.322 778.234 255.65 777.175 256.029C776.104 256.411 774.892 256.845 773.732 255.988C772.574 255.131 772.617 253.832 772.655 252.685C772.693 251.55 772.725 250.571 771.832 249.911C770.938 249.25 770.025 249.577 768.965 249.956C767.896 250.339 766.682 250.773 765.524 249.916C764.365 249.059 764.408 247.76 764.447 246.613C764.484 245.479 764.516 244.5 763.623 243.839C762.73 243.179 761.816 243.506 760.758 243.885C759.688 244.268 758.477 244.703 757.318 243.846C756.16 242.99 756.204 241.691 756.242 240.544C756.279 239.41 756.311 238.43 755.419 237.77C754.525 237.11 753.611 237.436 752.553 237.816C751.484 238.2 750.272 238.635 749.113 237.777C747.955 236.92 747.997 235.621 748.036 234.475C748.073 233.341 748.106 232.361 747.213 231.7C747.075 231.598 747.044 231.401 747.146 231.261C747.247 231.122 747.442 231.091 747.581 231.194C748.739 232.05 748.695 233.35 748.657 234.496C748.619 235.631 748.587 236.61 749.48 237.27C750.373 237.93 751.287 237.604 752.346 237.224C753.416 236.841 754.627 236.406 755.786 237.263C756.944 238.12 756.901 239.419 756.862 240.565C756.825 241.699 756.792 242.679 757.685 243.34C758.578 244 759.492 243.672 760.55 243.294C761.62 242.91 762.832 242.475 763.99 243.332C765.149 244.189 765.105 245.489 765.068 246.634C765.03 247.769 764.998 248.748 765.891 249.409C766.784 250.07 767.699 249.743 768.757 249.364C769.827 248.981 771.041 248.547 772.199 249.404C773.358 250.261 773.314 251.56 773.276 252.706C773.238 253.84 773.206 254.82 774.1 255.481C774.994 256.142 775.908 255.815 776.967 255.436C778.037 255.054 779.25 254.619 780.41 255.477C781.568 256.334 781.525 257.634 781.489 258.781C781.451 259.914 781.419 260.894 782.313 261.556C782.452 261.658 782.482 261.855 782.38 261.995C782.319 262.079 782.225 262.124 782.129 262.124Z" fill="#FA7454"/>
</g>
<g filter="url(#filter10_i)">
<path fill-rule="evenodd" clip-rule="evenodd" d="M602.89 505.025H483.789C483.01 505.025 482.378 504.386 482.378 503.598V313.685H604.301V503.598C604.301 504.386 603.669 505.025 602.89 505.025Z" fill="#131415"/>
<path fill-rule="evenodd" clip-rule="evenodd" d="M573.292 313.685V503.16H482.378C482.378 504.189 482.861 505.024 483.457 505.024H603.221C603.817 505.024 604.301 504.189 604.301 503.16V313.685H573.292Z" fill="url(#paint10_linear)"/>
<path fill-rule="evenodd" clip-rule="evenodd" d="M602.751 311.637H483.928C483.072 311.637 482.378 312.338 482.378 313.203V313.685H604.301V313.203C604.301 312.338 603.607 311.637 602.751 311.637Z" fill="#525286"/>
<path fill-rule="evenodd" clip-rule="evenodd" d="M508 351.4H517.48L526.558 371.368L522.06 381.857C521.96 382.091 521.626 382.093 521.523 381.861L508 351.4ZM529.878 387.431C531.824 384.389 546.353 351.4 546.353 351.4H556C556 351.4 541.717 383.867 540.009 386.992C538.506 389.741 535.794 392.855 532.033 392.855H523.351C523.322 392.855 523.298 392.831 523.298 392.802C523.298 392.776 523.317 392.754 523.343 392.75C526.117 392.318 527.616 390.968 529.878 387.431Z" fill="#FF0000" style="mix-blend-mode:saturation"/>
<path fill-rule="evenodd" clip-rule="evenodd" d="M508 351.4H517.48L526.558 371.368L522.06 381.857C521.96 382.091 521.626 382.093 521.523 381.861L508 351.4ZM529.878 387.431C531.824 384.389 546.353 351.4 546.353 351.4H556C556 351.4 541.717 383.867 540.009 386.992C538.506 389.741 535.794 392.855 532.033 392.855H523.351C523.322 392.855 523.298 392.831 523.298 392.802C523.298 392.776 523.317 392.754 523.343 392.75C526.117 392.318 527.616 390.968 529.878 387.431Z" fill="white" style="mix-blend-mode:difference"/>
<path fill-rule="evenodd" clip-rule="evenodd" d="M508 351.4H517.48L526.558 371.368L522.06 381.857C521.96 382.091 521.626 382.093 521.523 381.861L508 351.4ZM529.878 387.431C531.824 384.389 546.353 351.4 546.353 351.4H556C556 351.4 541.717 383.867 540.009 386.992C538.506 389.741 535.794 392.855 532.033 392.855H523.351C523.322 392.855 523.298 392.831 523.298 392.802C523.298 392.776 523.317 392.754 523.343 392.75C526.117 392.318 527.616 390.968 529.878 387.431Z" fill="white" style="mix-blend-mode:saturation"/>
<path fill-rule="evenodd" clip-rule="evenodd" d="M508 351.4H517.48L526.558 371.368L522.06 381.857C521.96 382.091 521.626 382.093 521.523 381.861L508 351.4ZM529.878 387.431C531.824 384.389 546.353 351.4 546.353 351.4H556C556 351.4 541.717 383.867 540.009 386.992C538.506 389.741 535.794 392.855 532.033 392.855H523.351C523.322 392.855 523.298 392.831 523.298 392.802C523.298 392.776 523.317 392.754 523.343 392.75C526.117 392.318 527.616 390.968 529.878 387.431Z" fill="black" style="mix-blend-mode:overlay"/>
<path fill-rule="evenodd" clip-rule="evenodd" d="M508 351.4H517.48L526.558 371.368L522.06 381.857C521.96 382.091 521.626 382.093 521.523 381.861L508 351.4ZM529.878 387.431C531.824 384.389 546.353 351.4 546.353 351.4H556C556 351.4 541.717 383.867 540.009 386.992C538.506 389.741 535.794 392.855 532.033 392.855H523.351C523.322 392.855 523.298 392.831 523.298 392.802C523.298 392.776 523.317 392.754 523.343 392.75C526.117 392.318 527.616 390.968 529.878 387.431Z" fill="white" style="mix-blend-mode:overlay"/>
<path fill-rule="evenodd" clip-rule="evenodd" d="M508 351.4H517.48L526.558 371.368L522.06 381.857C521.96 382.091 521.626 382.093 521.523 381.861L508 351.4ZM529.878 387.431C531.824 384.389 546.353 351.4 546.353 351.4H556C556 351.4 541.717 383.867 540.009 386.992C538.506 389.741 535.794 392.855 532.033 392.855H523.351C523.322 392.855 523.298 392.831 523.298 392.802C523.298 392.776 523.317 392.754 523.343 392.75C526.117 392.318 527.616 390.968 529.878 387.431Z" fill="white" style="mix-blend-mode:overlay"/>
<path fill-rule="evenodd" clip-rule="evenodd" d="M508 351.4H517.48L526.558 371.368L522.06 381.857C521.96 382.091 521.626 382.093 521.523 381.861L508 351.4ZM529.878 387.431C531.824 384.389 546.353 351.4 546.353 351.4H556C556 351.4 541.717 383.867 540.009 386.992C538.506 389.741 535.794 392.855 532.033 392.855H523.351C523.322 392.855 523.298 392.831 523.298 392.802C523.298 392.776 523.317 392.754 523.343 392.75C526.117 392.318 527.616 390.968 529.878 387.431Z" fill="white" style="mix-blend-mode:overlay"/>
<path fill-rule="evenodd" clip-rule="evenodd" d="M508 351.4H517.48L526.558 371.368L522.06 381.857C521.96 382.091 521.626 382.093 521.523 381.861L508 351.4ZM529.878 387.431C531.824 384.389 546.353 351.4 546.353 351.4H556C556 351.4 541.717 383.867 540.009 386.992C538.506 389.741 535.794 392.855 532.033 392.855H523.351C523.322 392.855 523.298 392.831 523.298 392.802C523.298 392.776 523.317 392.754 523.343 392.75C526.117 392.318 527.616 390.968 529.878 387.431Z" fill="white" style="mix-blend-mode:overlay"/>
<path fill-rule="evenodd" clip-rule="evenodd" d="M508 351.4H517.48L526.558 371.368L522.06 381.857C521.96 382.091 521.626 382.093 521.523 381.861L508 351.4ZM529.878 387.431C531.824 384.389 546.353 351.4 546.353 351.4H556C556 351.4 541.717 383.867 540.009 386.992C538.506 389.741 535.794 392.855 532.033 392.855H523.351C523.322 392.855 523.298 392.831 523.298 392.802C523.298 392.776 523.317 392.754 523.343 392.75C526.117 392.318 527.616 390.968 529.878 387.431Z" fill="black" style="mix-blend-mode:overlay"/>
</g>
<g clip-path="url(#clip3)" filter="url(#filter11_i)">
<path fill-rule="evenodd" clip-rule="evenodd" d="M705.937 306H588.063C587.476 306 587 305.52 587 304.928V196H707V304.928C707 305.52 706.524 306 705.937 306Z" fill="#131415"/>
<path fill-rule="evenodd" clip-rule="evenodd" d="M676.48 196V304.928H587C587 305.52 587.476 306 588.063 306H705.937C706.524 306 707 305.52 707 304.928V196H676.48Z" fill="#819CF7"/>
<g clip-path="url(#clip4)">
<path d="M606 209H658V261H606V209Z" fill="#F0DB4F"/>
<path d="M653.745 248.709C653.273 246.346 651.855 244.455 647.127 242.564C645.473 241.855 643.818 241.382 643.345 240.2C643.109 239.491 643.109 239.018 643.345 238.782C643.582 237.364 645.236 236.891 646.655 237.364C647.6 237.6 648.309 238.309 648.782 239.255C650.909 237.836 650.909 237.836 652.564 236.891C652.091 235.946 651.618 235.709 651.382 235.236C649.964 233.818 648.309 232.873 645.236 233.109L643.818 233.346C642.4 233.818 640.982 234.527 640.036 235.473C637.673 238.309 638.382 243.036 641.218 245.164C644.055 247.291 648.545 248 649.018 249.891C649.491 252.491 647.127 253.2 644.764 252.964C643.109 252.491 641.927 251.782 640.982 250.127C639.091 251.309 639.091 251.309 636.964 252.491C637.436 253.436 637.909 253.909 638.618 254.855C642.4 258.636 651.855 258.4 653.509 252.727C653.745 252.018 654.218 250.6 653.745 248.709ZM634.364 232.873H629.4V245.4C629.4 248 629.636 250.6 629.164 251.309C628.455 252.727 626.564 252.491 625.855 252.255C624.909 251.782 624.673 251.309 623.964 250.364C623.727 250.127 623.727 249.891 623.727 249.891L619.709 252.255C620.418 253.909 621.364 255.091 622.545 255.8C624.436 256.982 626.8 257.218 629.4 256.746C631.055 256.273 632.473 255.327 633.418 253.673C634.6 251.546 634.364 249.182 634.364 246.346C634.364 241.855 634.364 237.364 634.364 232.873Z" fill="#323330"/>
</g>
</g>
<g filter="url(#filter12_i)">
<path fill-rule="evenodd" clip-rule="evenodd" d="M591.692 340.404H471.929C471.332 340.404 470.849 339.916 470.849 339.313V228.46H592.772V339.313C592.772 339.916 592.289 340.404 591.692 340.404Z" fill="url(#paint11_linear)"/>
<path fill-rule="evenodd" clip-rule="evenodd" d="M568.382 228.459V340.404H598.311C598.907 340.404 599.39 339.916 599.39 339.313V228.459H568.382Z" fill="#FFEDFB"/>
<path fill-rule="evenodd" clip-rule="evenodd" d="M508.605 288.114C508.287 287.463 507.637 287.051 506.926 287.052H490.271L493.609 259.663C493.846 257.741 495.439 256.298 497.33 256.296H542.779C544.664 256.296 546.266 257.743 546.499 259.663L549.838 287.052H533.177C532.47 287.052 531.821 287.463 531.503 288.114L528.271 294.741H511.836L508.605 288.114ZM534.236 291.398H549.838V304.27C549.833 307.314 547.336 309.781 544.254 309.785H495.856C492.773 309.782 490.274 307.314 490.271 304.268V291.398H505.874L509.081 297.736C509.395 298.36 510.039 298.753 510.746 298.753H529.362C530.068 298.753 530.71 298.36 531.025 297.736L534.236 291.398Z" fill="white"/>
</g>
<g filter="url(#filter13_i)">
<path fill-rule="evenodd" clip-rule="evenodd" d="M719.601 416.929H599.837C599.241 416.929 598.758 416.441 598.758 415.838V304.985H720.68V415.838C720.68 416.441 720.197 416.929 719.601 416.929Z" fill="white"/>
<path fill-rule="evenodd" clip-rule="evenodd" d="M689.672 304.985V415.838H598.758C598.758 416.441 599.241 416.929 599.837 416.929H719.601C720.197 416.929 720.68 416.441 720.68 415.838V304.985H689.672Z" fill="#871FFF"/>
<path d="M625.356 327.333H634.831L641 337.248L647.17 327.333H656.644L641 353.553L625.356 327.333Z" fill="#35495E"/>
<path d="M615 327.333H625.356L641 353.553L656.644 327.333H667L641 370.519L615 327.333Z" fill="#41B883"/>
</g>
</g>
<defs>
<filter id="filter0_ddd" x="0" y="0" width="1056" height="474.608" filterUnits="userSpaceOnUse" color-interpolation-filters="sRGB">
<feFlood flood-opacity="0" result="BackgroundImageFix"/>
<feColorMatrix in="SourceAlpha" type="matrix" values="0 0 0 0 0 0 0 0 0 0 0 0 0 0 0 0 0 0 127 0"/>
<feOffset dy="2"/>
<feGaussianBlur stdDeviation="8"/>
<feColorMatrix type="matrix" values="0 0 0 0 0.0745098 0 0 0 0 0.0784314 0 0 0 0 0.0823529 0 0 0 0.1 0"/>
<feBlend mode="normal" in2="BackgroundImageFix" result="effect1_dropShadow"/>
<feColorMatrix in="SourceAlpha" type="matrix" values="0 0 0 0 0 0 0 0 0 0 0 0 0 0 0 0 0 0 127 0"/>
<feOffset dy="8"/>
<feGaussianBlur stdDeviation="4"/>
<feColorMatrix type="matrix" values="0 0 0 0 0.0745098 0 0 0 0 0.0784314 0 0 0 0 0.0823529 0 0 0 0.05 0"/>
<feBlend mode="normal" in2="effect1_dropShadow" result="effect2_dropShadow"/>
<feColorMatrix in="SourceAlpha" type="matrix" values="0 0 0 0 0 0 0 0 0 0 0 0 0 0 0 0 0 0 127 0"/>
<feOffset dy="4"/>
<feGaussianBlur stdDeviation="2"/>
<feColorMatrix type="matrix" values="0 0 0 0 0.0745098 0 0 0 0 0.0784314 0 0 0 0 0.0823529 0 0 0 0.05 0"/>
<feBlend mode="normal" in2="effect2_dropShadow" result="effect3_dropShadow"/>
<feBlend mode="normal" in="SourceGraphic" in2="effect3_dropShadow" result="shape"/>
</filter>
<filter id="filter1_i" x="91.8461" y="208.478" width="871.998" height="392.064" filterUnits="userSpaceOnUse" color-interpolation-filters="sRGB">
<feFlood flood-opacity="0" result="BackgroundImageFix"/>
<feBlend mode="normal" in="SourceGraphic" in2="BackgroundImageFix" result="shape"/>
<feColorMatrix in="SourceAlpha" type="matrix" values="0 0 0 0 0 0 0 0 0 0 0 0 0 0 0 0 0 0 127 0" result="hardAlpha"/>
<feOffset dy="4"/>
<feGaussianBlur stdDeviation="2"/>
<feComposite in2="hardAlpha" operator="arithmetic" k2="-1" k3="1"/>
<feColorMatrix type="matrix" values="0 0 0 0 0 0 0 0 0 0 0 0 0 0 0 0 0 0 0.25 0"/>
<feBlend mode="normal" in2="shape" result="effect1_innerShadow"/>
</filter>
<filter id="filter2_i" x="265.493" y="272.94" width="493.909" height="308.381" filterUnits="userSpaceOnUse" color-interpolation-filters="sRGB">
<feFlood flood-opacity="0" result="BackgroundImageFix"/>
<feBlend mode="normal" in="SourceGraphic" in2="BackgroundImageFix" result="shape"/>
<feColorMatrix in="SourceAlpha" type="matrix" values="0 0 0 0 0 0 0 0 0 0 0 0 0 0 0 0 0 0 127 0" result="hardAlpha"/>
<feOffset dy="4"/>
<feGaussianBlur stdDeviation="2"/>
<feComposite in2="hardAlpha" operator="arithmetic" k2="-1" k3="1"/>
<feColorMatrix type="matrix" values="0 0 0 0 0 0 0 0 0 0 0 0 0 0 0 0 0 0 0.25 0"/>
<feBlend mode="normal" in2="shape" result="effect1_innerShadow"/>
</filter>
<filter id="filter3_i" x="395.734" y="122.981" width="162.155" height="126.474" filterUnits="userSpaceOnUse" color-interpolation-filters="sRGB">
<feFlood flood-opacity="0" result="BackgroundImageFix"/>
<feBlend mode="normal" in="SourceGraphic" in2="BackgroundImageFix" result="shape"/>
<feColorMatrix in="SourceAlpha" type="matrix" values="0 0 0 0 0 0 0 0 0 0 0 0 0 0 0 0 0 0 127 0" result="hardAlpha"/>
<feOffset dy="4"/>
<feGaussianBlur stdDeviation="2"/>
<feComposite in2="hardAlpha" operator="arithmetic" k2="-1" k3="1"/>
<feColorMatrix type="matrix" values="0 0 0 0 0 0 0 0 0 0 0 0 0 0 0 0 0 0 0.25 0"/>
<feBlend mode="normal" in2="shape" result="effect1_innerShadow"/>
</filter>
<filter id="filter4_i" x="334" y="297" width="151" height="128" filterUnits="userSpaceOnUse" color-interpolation-filters="sRGB">
<feFlood flood-opacity="0" result="BackgroundImageFix"/>
<feBlend mode="normal" in="SourceGraphic" in2="BackgroundImageFix" result="shape"/>
<feColorMatrix in="SourceAlpha" type="matrix" values="0 0 0 0 0 0 0 0 0 0 0 0 0 0 0 0 0 0 127 0" result="hardAlpha"/>
<feOffset dy="4"/>
<feGaussianBlur stdDeviation="2"/>
<feComposite in2="hardAlpha" operator="arithmetic" k2="-1" k3="1"/>
<feColorMatrix type="matrix" values="0 0 0 0 0 0 0 0 0 0 0 0 0 0 0 0 0 0 0.25 0"/>
<feBlend mode="normal" in2="shape" result="effect1_innerShadow"/>
</filter>
<filter id="filter5_i" x="369" y="193" width="122" height="108" filterUnits="userSpaceOnUse" color-interpolation-filters="sRGB">
<feFlood flood-opacity="0" result="BackgroundImageFix"/>
<feBlend mode="normal" in="SourceGraphic" in2="BackgroundImageFix" result="shape"/>
<feColorMatrix in="SourceAlpha" type="matrix" values="0 0 0 0 0 0 0 0 0 0 0 0 0 0 0 0 0 0 127 0" result="hardAlpha"/>
<feOffset dy="4"/>
<feGaussianBlur stdDeviation="2"/>
<feComposite in2="hardAlpha" operator="arithmetic" k2="-1" k3="1"/>
<feColorMatrix type="matrix" values="0 0 0 0 0 0 0 0 0 0 0 0 0 0 0 0 0 0 0.25 0"/>
<feBlend mode="normal" in2="shape" result="effect1_innerShadow"/>
</filter>
<filter id="filter6_i" x="197.065" y="88.9067" width="605.847" height="100.567" filterUnits="userSpaceOnUse" color-interpolation-filters="sRGB">
<feFlood flood-opacity="0" result="BackgroundImageFix"/>
<feBlend mode="normal" in="SourceGraphic" in2="BackgroundImageFix" result="shape"/>
<feColorMatrix in="SourceAlpha" type="matrix" values="0 0 0 0 0 0 0 0 0 0 0 0 0 0 0 0 0 0 127 0" result="hardAlpha"/>
<feOffset dy="4"/>
<feGaussianBlur stdDeviation="2"/>
<feComposite in2="hardAlpha" operator="arithmetic" k2="-1" k3="1"/>
<feColorMatrix type="matrix" values="0 0 0 0 0 0 0 0 0 0 0 0 0 0 0 0 0 0 0.25 0"/>
<feBlend mode="normal" in2="shape" result="effect1_innerShadow"/>
</filter>
<filter id="filter7_i" x="402.345" y="35.825" width="105.2" height="123.268" filterUnits="userSpaceOnUse" color-interpolation-filters="sRGB">
<feFlood flood-opacity="0" result="BackgroundImageFix"/>
<feBlend mode="normal" in="SourceGraphic" in2="BackgroundImageFix" result="shape"/>
<feColorMatrix in="SourceAlpha" type="matrix" values="0 0 0 0 0 0 0 0 0 0 0 0 0 0 0 0 0 0 127 0" result="hardAlpha"/>
<feOffset dy="4"/>
<feGaussianBlur stdDeviation="2"/>
<feComposite in2="hardAlpha" operator="arithmetic" k2="-1" k3="1"/>
<feColorMatrix type="matrix" values="0 0 0 0 0 0 0 0 0 0 0 0 0 0 0 0 0 0 0.25 0"/>
<feBlend mode="normal" in2="shape" result="effect1_innerShadow"/>
</filter>
<filter id="filter8_i" x="295.368" y="86.4543" width="133.827" height="187.852" filterUnits="userSpaceOnUse" color-interpolation-filters="sRGB">
<feFlood flood-opacity="0" result="BackgroundImageFix"/>
<feBlend mode="normal" in="SourceGraphic" in2="BackgroundImageFix" result="shape"/>
<feColorMatrix in="SourceAlpha" type="matrix" values="0 0 0 0 0 0 0 0 0 0 0 0 0 0 0 0 0 0 127 0" result="hardAlpha"/>
<feOffset dy="4"/>
<feGaussianBlur stdDeviation="2"/>
<feComposite in2="hardAlpha" operator="arithmetic" k2="-1" k3="1"/>
<feColorMatrix type="matrix" values="0 0 0 0 0 0 0 0 0 0 0 0 0 0 0 0 0 0 0.25 0"/>
<feBlend mode="normal" in2="shape" result="effect1_innerShadow"/>
</filter>
<filter id="filter9_i" x="747.086" y="215.164" width="147.249" height="311.31" filterUnits="userSpaceOnUse" color-interpolation-filters="sRGB">
<feFlood flood-opacity="0" result="BackgroundImageFix"/>
<feBlend mode="normal" in="SourceGraphic" in2="BackgroundImageFix" result="shape"/>
<feColorMatrix in="SourceAlpha" type="matrix" values="0 0 0 0 0 0 0 0 0 0 0 0 0 0 0 0 0 0 127 0" result="hardAlpha"/>
<feOffset dy="4"/>
<feGaussianBlur stdDeviation="2"/>
<feComposite in2="hardAlpha" operator="arithmetic" k2="-1" k3="1"/>
<feColorMatrix type="matrix" values="0 0 0 0 0 0 0 0 0 0 0 0 0 0 0 0 0 0 0.25 0"/>
<feBlend mode="normal" in2="shape" result="effect1_innerShadow"/>
</filter>
<filter id="filter10_i" x="482.378" y="311.637" width="121.923" height="197.388" filterUnits="userSpaceOnUse" color-interpolation-filters="sRGB">
<feFlood flood-opacity="0" result="BackgroundImageFix"/>
<feBlend mode="normal" in="SourceGraphic" in2="BackgroundImageFix" result="shape"/>
<feColorMatrix in="SourceAlpha" type="matrix" values="0 0 0 0 0 0 0 0 0 0 0 0 0 0 0 0 0 0 127 0" result="hardAlpha"/>
<feOffset dy="4"/>
<feGaussianBlur stdDeviation="2"/>
<feComposite in2="hardAlpha" operator="arithmetic" k2="-1" k3="1"/>
<feColorMatrix type="matrix" values="0 0 0 0 0 0 0 0 0 0 0 0 0 0 0 0 0 0 0.25 0"/>
<feBlend mode="normal" in2="shape" result="effect1_innerShadow"/>
</filter>
<filter id="filter11_i" x="587" y="196" width="120" height="114" filterUnits="userSpaceOnUse" color-interpolation-filters="sRGB">
<feFlood flood-opacity="0" result="BackgroundImageFix"/>
<feBlend mode="normal" in="SourceGraphic" in2="BackgroundImageFix" result="shape"/>
<feColorMatrix in="SourceAlpha" type="matrix" values="0 0 0 0 0 0 0 0 0 0 0 0 0 0 0 0 0 0 127 0" result="hardAlpha"/>
<feOffset dy="4"/>
<feGaussianBlur stdDeviation="2"/>
<feComposite in2="hardAlpha" operator="arithmetic" k2="-1" k3="1"/>
<feColorMatrix type="matrix" values="0 0 0 0 0 0 0 0 0 0 0 0 0 0 0 0 0 0 0.25 0"/>
<feBlend mode="normal" in2="shape" result="effect1_innerShadow"/>
</filter>
<filter id="filter12_i" x="470.849" y="228.459" width="128.541" height="115.945" filterUnits="userSpaceOnUse" color-interpolation-filters="sRGB">
<feFlood flood-opacity="0" result="BackgroundImageFix"/>
<feBlend mode="normal" in="SourceGraphic" in2="BackgroundImageFix" result="shape"/>
<feColorMatrix in="SourceAlpha" type="matrix" values="0 0 0 0 0 0 0 0 0 0 0 0 0 0 0 0 0 0 127 0" result="hardAlpha"/>
<feOffset dy="4"/>
<feGaussianBlur stdDeviation="2"/>
<feComposite in2="hardAlpha" operator="arithmetic" k2="-1" k3="1"/>
<feColorMatrix type="matrix" values="0 0 0 0 0 0 0 0 0 0 0 0 0 0 0 0 0 0 0.25 0"/>
<feBlend mode="normal" in2="shape" result="effect1_innerShadow"/>
</filter>
<filter id="filter13_i" x="598.758" y="304.985" width="121.923" height="115.944" filterUnits="userSpaceOnUse" color-interpolation-filters="sRGB">
<feFlood flood-opacity="0" result="BackgroundImageFix"/>
<feBlend mode="normal" in="SourceGraphic" in2="BackgroundImageFix" result="shape"/>
<feColorMatrix in="SourceAlpha" type="matrix" values="0 0 0 0 0 0 0 0 0 0 0 0 0 0 0 0 0 0 127 0" result="hardAlpha"/>
<feOffset dy="4"/>
<feGaussianBlur stdDeviation="2"/>
<feComposite in2="hardAlpha" operator="arithmetic" k2="-1" k3="1"/>
<feColorMatrix type="matrix" values="0 0 0 0 0 0 0 0 0 0 0 0 0 0 0 0 0 0 0.25 0"/>
<feBlend mode="normal" in2="shape" result="effect1_innerShadow"/>
</filter>
<linearGradient id="paint0_linear" x1="65.7169" y1="437.256" x2="1000.17" y2="437.256" gradientUnits="userSpaceOnUse">
<stop stop-color="#7FC6F4"/>
<stop offset="1" stop-color="#D5279B"/>
</linearGradient>
<linearGradient id="paint1_linear" x1="174.771" y1="298.804" x2="280.467" y2="368.298" gradientUnits="userSpaceOnUse">
<stop stop-color="#FF9EE8"/>
<stop offset="1" stop-color="#D6329D"/>
</linearGradient>
<linearGradient id="paint2_linear" x1="777.817" y1="347.762" x2="777.817" y2="462.382" gradientUnits="userSpaceOnUse">
<stop stop-color="#90DBFF"/>
<stop offset="1" stop-color="#8462FF"/>
</linearGradient>
<linearGradient id="paint3_linear" x1="486.321" y1="113.936" x2="394.713" y2="198.884" gradientUnits="userSpaceOnUse">
<stop stop-color="#FFA78C"/>
<stop offset="1" stop-color="#D6219B"/>
</linearGradient>
<linearGradient id="paint4_linear" x1="552.682" y1="112.417" x2="495.446" y2="160.88" gradientUnits="userSpaceOnUse">
<stop stop-color="#7EC5F5"/>
<stop offset="1" stop-color="#8822FF"/>
</linearGradient>
<linearGradient id="paint5_linear" x1="334" y1="297" x2="334" y2="419.474" gradientUnits="userSpaceOnUse">
<stop stop-color="#ED45CB"/>
<stop offset="1" stop-color="#D6219C"/>
</linearGradient>
<linearGradient id="paint6_linear" x1="503.833" y1="132.669" x2="503.833" y2="35.825" gradientUnits="userSpaceOnUse">
<stop stop-color="#D5279B"/>
<stop offset="1" stop-color="#FEA18C"/>
</linearGradient>
<linearGradient id="paint7_linear" x1="315.637" y1="109.361" x2="315.637" y2="270.306" gradientUnits="userSpaceOnUse">
<stop stop-color="#7FC8F5"/>
<stop offset="0.28652" stop-color="#8378FA"/>
<stop offset="1" stop-color="#881FFF"/>
</linearGradient>
<linearGradient id="paint8_linear" x1="315.637" y1="166.161" x2="315.637" y2="270.306" gradientUnits="userSpaceOnUse">
<stop stop-color="#FAA798"/>
<stop offset="1" stop-color="#D6219B"/>
</linearGradient>
<linearGradient id="paint9_linear" x1="801.341" y1="298.729" x2="801.341" y2="384.05" gradientUnits="userSpaceOnUse">
<stop stop-color="#E76296"/>
<stop offset="1" stop-color="#CD17A1"/>
</linearGradient>
<linearGradient id="paint10_linear" x1="523.632" y1="313.685" x2="523.632" y2="375.54" gradientUnits="userSpaceOnUse">
<stop stop-color="#8190F8"/>
<stop offset="1" stop-color="#8558FC"/>
</linearGradient>
<linearGradient id="paint11_linear" x1="513.677" y1="380.797" x2="594.354" y2="295.256" gradientUnits="userSpaceOnUse">
<stop stop-color="#BE5DCB"/>
<stop offset="1" stop-color="#8374F9"/>
</linearGradient>
<clipPath id="clip0">
<rect width="151" height="124" fill="white" transform="translate(334 297)"/>
</clipPath>
<clipPath id="clip1">
<rect width="52" height="52" fill="white" transform="translate(390 219)"/>
</clipPath>
<clipPath id="clip2">
<rect width="52" height="52" fill="white" transform="translate(415 92.0686) rotate(-18)"/>
</clipPath>
<clipPath id="clip3">
<rect width="120" height="110" fill="white" transform="translate(587 196)"/>
</clipPath>
<clipPath id="clip4">
<rect width="52" height="52" fill="white" transform="translate(606 209)"/>
</clipPath>
</defs>
</svg>
