<svg width="24" height="25" viewBox="0 0 24 25" fill="none" xmlns="http://www.w3.org/2000/svg">
<g clip-path="url(#clip0)">
<path d="M5.01818 15.7717C5.01818 17.1898 3.92727 18.2807 2.50909 18.2807C1.09091 18.2807 0 17.1898 0 15.7717C0 14.3535 1.09091 13.2626 2.50909 13.2626H5.01818V15.7717Z" fill="#E01E5A"/>
<path d="M6.32715 15.7717C6.32715 14.3535 7.41806 13.2626 8.83624 13.2626C10.2544 13.2626 11.3453 14.3535 11.3453 15.7717V22.0989C11.3453 23.5171 10.2544 24.608 8.83624 24.608C7.41806 24.608 6.32715 23.5171 6.32715 22.0989C6.32715 22.0989 6.32715 15.7717 6.32715 15.7717Z" fill="#E01E5A"/>
<path d="M8.83624 5.62621C7.41806 5.62621 6.32715 4.5353 6.32715 3.11712C6.32715 1.69894 7.41806 0.608032 8.83624 0.608032C10.2544 0.608032 11.3453 1.69894 11.3453 3.11712V5.62621H8.83624Z" fill="#36C5F0"/>
<path d="M8.83635 6.93542C10.2545 6.93542 11.3454 8.02633 11.3454 9.44451C11.3454 10.8627 10.2545 11.9536 8.83635 11.9536H2.50909C1.09091 11.9536 0 10.8627 0 9.44451C0 8.02633 1.09091 6.93542 2.50909 6.93542H8.83635Z" fill="#36C5F0"/>
<path d="M18.9819 9.44451C18.9819 8.02633 20.0728 6.93542 21.491 6.93542C22.9092 6.93542 24.0001 8.02633 24.0001 9.44451C24.0001 10.8627 22.9092 11.9536 21.491 11.9536H18.9819V9.44451Z" fill="#2EB67D"/>
<path d="M17.6725 9.44439C17.6725 10.8626 16.5816 11.9535 15.1634 11.9535C13.7452 11.9535 12.6543 10.8626 12.6543 9.44439V3.11712C12.6543 1.69894 13.7452 0.608032 15.1634 0.608032C16.5816 0.608032 17.6725 1.69894 17.6725 3.11712V9.44439Z" fill="#2EB67D"/>
<path d="M15.1634 19.5897C16.5816 19.5897 17.6725 20.6806 17.6725 22.0988C17.6725 23.517 16.5816 24.6079 15.1634 24.6079C13.7452 24.6079 12.6543 23.517 12.6543 22.0988V19.5897H15.1634Z" fill="#ECB22E"/>
<path d="M15.1634 18.2807C13.7452 18.2807 12.6543 17.1898 12.6543 15.7717C12.6543 14.3535 13.7452 13.2626 15.1634 13.2626H21.4907C22.9088 13.2626 23.9997 14.3535 23.9997 15.7717C23.9997 17.1898 22.9088 18.2807 21.4907 18.2807H15.1634Z" fill="#ECB22E"/>
</g>
<defs>
<clipPath id="clip0">
<rect width="24" height="24" fill="white" transform="translate(0 0.608032)"/>
</clipPath>
</defs>
</svg>
