<svg width="24" height="25" viewBox="0 0 24 25" fill="none" xmlns="http://www.w3.org/2000/svg">
<g clip-path="url(#clip0)">
<path d="M12 0.608032C5.34545 0.608032 0 6.04926 0 12.9052C0 18.3464 3.49091 22.9171 8.18182 24.5494C8.72727 24.6583 9.05455 24.3318 9.05455 24.0053C9.05455 23.6789 9.05455 22.6994 9.05455 21.72C5.67273 22.373 5.01818 20.1965 5.01818 20.1965C4.47273 18.7817 3.70909 18.3464 3.70909 18.3464C2.61818 17.5847 3.81818 17.5847 3.81818 17.5847C5.01818 17.6935 5.67273 18.8906 5.67273 18.8906C6.76364 20.7406 8.50909 20.1965 9.16364 19.87C9.27273 19.1082 9.6 18.5641 9.92727 18.2376C7.09091 18.02 4.36364 16.9317 4.36364 12.2523C4.36364 10.9464 4.8 9.85812 5.56364 8.98753C5.45455 8.66105 5.01818 7.35516 5.67273 5.72279C5.67273 5.72279 6.65455 5.39632 8.94545 7.02869C9.92727 6.70221 10.9091 6.59339 12 6.59339C12.9818 6.59339 14.0727 6.70221 15.0545 7.02869C17.3455 5.39632 18.3273 5.72279 18.3273 5.72279C18.9818 7.46398 18.5455 8.66105 18.4364 8.98753C19.2 9.85812 19.6364 10.9464 19.6364 12.2523C19.6364 16.9317 16.8 18.02 14.1818 18.3464C14.6182 18.7817 14.9455 19.4347 14.9455 20.6318C14.9455 22.2641 14.9455 23.57 14.9455 24.0053C14.9455 24.3318 15.1636 24.7671 15.8182 24.5494C20.6182 22.9171 24 18.3464 24 12.9052C24 6.04926 18.6545 0.608032 12 0.608032Z" fill="#181616"/>
</g>
<defs>
<clipPath id="clip0">
<rect width="24" height="24" fill="white" transform="translate(0 0.608032)"/>
</clipPath>
</defs>
</svg>
