<svg width="1056" height="475" viewBox="0 0 1056 475" fill="none" xmlns="http://www.w3.org/2000/svg">
<g filter="url(#filter0_ddd)">
<g clip-path="url(#clip0)">
<rect x="16" y="14" width="1024" height="442.811" rx="12" fill="white"/>
<g opacity="0.5" clip-path="url(#clip1)">
<rect width="1025.06" height="498.534" transform="translate(16 14)" fill="#F3F3F5"/>
<rect x="16" y="14" width="1089.67" height="666.506" fill="url(#paint0_linear)"/>
<rect x="44.5338" y="54.3779" width="108.213" height="95.2921" rx="4.30699" fill="white"/>
<rect x="49.9175" y="61.377" width="47.3769" height="8.61397" fill="#E6E6E6"/>
<rect x="44.5338" y="75.3745" width="108.213" height="17.2279" fill="#E6E6E6"/>
<rect x="49.9175" y="79.6814" width="71.0653" height="8.61397" fill="#999999"/>
<rect x="49.9175" y="97.9861" width="35.5326" height="8.61397" fill="#E6E6E6"/>
<rect x="49.9175" y="116.291" width="52.2222" height="8.61397" fill="#E6E6E6"/>
<rect x="49.9175" y="134.596" width="36.071" height="8.61397" fill="#E6E6E6"/>
<path d="M138.211 87.5956L135.842 85.2806C135.734 85.173 135.734 85.0114 135.842 84.9038C135.949 84.7961 136.111 84.7961 136.219 84.9038L138.211 86.8419L143.379 81.6735C143.487 81.5659 143.648 81.5659 143.756 81.6735C143.864 81.7812 143.864 81.9427 143.756 82.0504L138.211 87.5956Z" fill="#131415"/>
<rect x="44.5338" y="29.6128" width="108.213" height="21.5349" rx="3.23024" fill="#E6E6E6"/>
<g opacity="0.796921">
<path fill-rule="evenodd" clip-rule="evenodd" d="M138.053 39.5042C138.14 39.384 138.309 39.3574 138.429 39.4448L140.903 41.2439L143.376 39.4448C143.496 39.3574 143.665 39.384 143.752 39.5042C143.84 39.6244 143.813 39.7928 143.693 39.8802L141.061 41.7944C140.966 41.8631 140.839 41.8631 140.744 41.7944L138.112 39.8802C137.992 39.7928 137.965 39.6244 138.053 39.5042Z" fill="#131415"/>
</g>
<rect x="49.9175" y="36.0732" width="66.2199" height="8.61397" fill="#999999"/>
<rect x="28.3826" y="29.6128" width="2.21092" height="12.318" fill="#D6219C"/>
<rect x="28.3826" y="43.1941" width="2.21092" height="12.318" fill="#F89B85"/>
<rect x="28.3826" y="56.7754" width="2.21092" height="12.318" fill="#65BAFF"/>
<rect x="173.496" y="50.8245" width="52.3027" height="14.5285" rx="2.03399" stroke="#E6E6E6" stroke-width="0.581141"/>
<rect x="179.016" y="54.0208" width="41.261" height="8.13598" fill="#E6E6E6"/>
<rect x="232.191" y="50.8245" width="65.0878" height="14.5285" rx="2.03399" stroke="#E6E6E6" stroke-width="0.581141"/>
<rect x="237.712" y="54.0208" width="43.5856" height="8.13598" fill="#E6E6E6"/>
<g clip-path="url(#clip2)">
<path d="M292.447 55.6546C292.302 55.5093 292.084 55.5093 291.939 55.6546L290.014 57.5796L288.089 55.6546C287.943 55.5093 287.725 55.5093 287.58 55.6546C287.435 55.7999 287.435 56.0178 287.58 56.1631L289.505 58.0881L287.58 60.0132C287.435 60.1585 287.435 60.3764 287.58 60.5217C287.653 60.5943 287.725 60.6306 287.834 60.6306C287.943 60.6306 288.016 60.5943 288.089 60.5217L290.014 58.5966L291.939 60.5217C292.011 60.5943 292.12 60.6306 292.193 60.6306C292.266 60.6306 292.375 60.5943 292.447 60.5217C292.592 60.3764 292.592 60.1585 292.447 60.0132L290.522 58.0881L292.447 56.1631C292.592 56.0178 292.592 55.7999 292.447 55.6546Z" fill="#999999"/>
</g>
<rect x="231.9" y="29.6128" width="65.669" height="15.1097" rx="2.32457" fill="#E6E6E6"/>
<rect x="237.712" y="33.0996" width="43.5856" height="8.13598" fill="#F2F2F2"/>
<g clip-path="url(#clip3)">
<path d="M292.447 34.7332C292.302 34.5879 292.084 34.5879 291.939 34.7332L290.014 36.6583L288.089 34.7332C287.943 34.5879 287.725 34.5879 287.58 34.7332C287.435 34.8785 287.435 35.0964 287.58 35.2417L289.505 37.1668L287.58 39.0918C287.435 39.2371 287.435 39.455 287.58 39.6003C287.653 39.6729 287.725 39.7093 287.834 39.7093C287.943 39.7093 288.016 39.6729 288.089 39.6003L290.014 37.6753L291.939 39.6003C292.011 39.6729 292.12 39.7093 292.193 39.7093C292.266 39.7093 292.375 39.6729 292.447 39.6003C292.592 39.455 292.592 39.2371 292.447 39.0918L290.522 37.1668L292.447 35.2417C292.592 35.0964 292.592 34.8785 292.447 34.7332Z" fill="white"/>
</g>
<rect x="173.205" y="29.6128" width="52.8839" height="15.1097" rx="2.32457" fill="#E6E6E6"/>
<rect x="179.016" y="33.0996" width="41.261" height="8.13598" fill="#F2F2F2"/>
<rect x="173.743" y="76.9897" width="26.0686" height="13.0343" rx="2.03661" fill="#9941FF"/>
<rect x="173.743" y="96.5413" width="26.0686" height="13.0343" rx="2.03661" fill="#9941FF"/>
<rect x="173.743" y="116.093" width="26.0686" height="13.0343" rx="2.03661" fill="#9941FF"/>
<rect x="173.743" y="135.644" width="26.0686" height="13.0343" rx="2.03661" fill="#E6E6E6"/>
<rect x="206.329" y="76.9897" width="26.0686" height="13.0343" rx="2.03661" fill="#D6219C"/>
<rect x="206.329" y="96.5413" width="26.0686" height="13.0343" rx="2.03661" fill="#D6219C"/>
<rect x="206.329" y="116.093" width="26.0686" height="13.0343" rx="2.03661" fill="#D6219C"/>
<rect x="206.329" y="135.644" width="26.0686" height="13.0343" rx="2.03661" fill="#E6E6E6"/>
<rect x="238.915" y="76.9897" width="26.0686" height="13.0343" rx="2.03661" fill="#65BAFF"/>
<rect x="238.915" y="96.5413" width="26.0686" height="13.0343" rx="2.03661" fill="#65BAFF"/>
<rect x="238.915" y="116.093" width="26.0686" height="13.0343" rx="2.03661" fill="#65BAFF"/>
<rect x="238.915" y="135.644" width="26.0686" height="13.0343" rx="2.03661" fill="#E6E6E6"/>
<rect x="271.501" y="76.9897" width="26.0686" height="13.0343" rx="2.03661" fill="#F89B85"/>
<rect x="271.501" y="96.5413" width="26.0686" height="13.0343" rx="2.03661" fill="#F89B85"/>
<rect x="271.501" y="116.093" width="26.0686" height="13.0343" rx="2.03661" fill="#F89B85"/>
<rect x="271.501" y="135.644" width="26.0686" height="13.0343" rx="2.03661" fill="#E6E6E6"/>
<rect x="178.05" y="80.7583" width="17.2279" height="5.38373" fill="white" fill-opacity="0.5"/>
<rect x="178.05" y="100.14" width="17.2279" height="5.38373" fill="white" fill-opacity="0.5"/>
<rect x="178.05" y="120.06" width="17.2279" height="5.38373" fill="white" fill-opacity="0.5"/>
<rect x="178.05" y="139.441" width="17.2279" height="5.38373" fill="#C2C4CC"/>
<rect x="210.891" y="80.7583" width="17.2279" height="5.38373" fill="white" fill-opacity="0.5"/>
<rect x="210.891" y="100.14" width="17.2279" height="5.38373" fill="white" fill-opacity="0.5"/>
<rect x="210.891" y="120.06" width="17.2279" height="5.38373" fill="white" fill-opacity="0.5"/>
<rect x="210.891" y="139.441" width="17.2279" height="5.38373" fill="#C2C4CC"/>
<rect x="243.732" y="80.7583" width="16.6896" height="5.38373" fill="white" fill-opacity="0.5"/>
<rect x="243.732" y="100.14" width="16.6896" height="5.38373" fill="white" fill-opacity="0.5"/>
<rect x="243.732" y="120.06" width="16.6896" height="5.38373" fill="white" fill-opacity="0.5"/>
<rect x="243.732" y="139.441" width="16.6896" height="5.38373" fill="#C2C4CC"/>
<rect x="276.034" y="80.7583" width="17.2279" height="5.38373" fill="white" fill-opacity="0.5"/>
<rect x="276.034" y="100.14" width="17.2279" height="5.38373" fill="white" fill-opacity="0.5"/>
<rect x="276.034" y="120.06" width="17.2279" height="5.38373" fill="white" fill-opacity="0.5"/>
<rect x="276.034" y="139.441" width="17.2279" height="5.38373" fill="#C2C4CC"/>
<g filter="url(#filter1_d)">
<rect x="69.299" y="288.57" width="129.21" height="80.756" rx="4.30699" fill="white"/>
</g>
<path fill-rule="evenodd" clip-rule="evenodd" d="M79.5281 296.377C79.5281 296.228 79.6486 296.107 79.7972 296.107H84.6426C84.7913 296.107 84.9118 296.228 84.9118 296.377V297.992C84.9118 298.14 84.7913 298.261 84.6426 298.261C84.494 298.261 84.3734 298.14 84.3734 297.992V296.646H80.0664V297.992C80.0664 298.14 79.9459 298.261 79.7972 298.261C79.6486 298.261 79.5281 298.14 79.5281 297.992V296.377ZM77.9129 299.069C77.9129 298.92 78.0334 298.799 78.1821 298.799H86.2577C86.4063 298.799 86.5269 298.92 86.5269 299.069V302.837C86.5269 302.986 86.4063 303.106 86.2577 303.106H84.9118V304.452C84.9118 304.601 84.7913 304.721 84.6426 304.721H79.7972C79.6486 304.721 79.5281 304.601 79.5281 304.452V303.106H78.1821C78.0334 303.106 77.9129 302.986 77.9129 302.837V299.069ZM79.5281 302.568V301.222C79.5281 301.073 79.6486 300.953 79.7972 300.953H84.6426C84.7913 300.953 84.9118 301.073 84.9118 301.222V302.568H85.9885V299.338H78.4513V302.568H79.5281ZM84.3734 302.833V301.491H80.0664V304.183H84.3734V302.842C84.3734 302.84 84.3734 302.839 84.3734 302.837C84.3734 302.836 84.3734 302.834 84.3734 302.833Z" fill="#757575"/>
<rect x="95.1408" y="296.646" width="75.9106" height="8.0756" fill="#C2C4CC"/>
<path fill-rule="evenodd" clip-rule="evenodd" d="M78.4513 335.14C78.4513 334.694 78.8128 334.332 79.2588 334.332C79.7048 334.332 80.0664 334.694 80.0664 335.14C80.0664 335.586 79.7048 335.947 79.2588 335.947C78.8128 335.947 78.4513 335.586 78.4513 335.14ZM79.2588 333.794C78.5155 333.794 77.9129 334.396 77.9129 335.14C77.9129 335.883 78.5155 336.486 79.2588 336.486C80.0022 336.486 80.6048 335.883 80.6048 335.14C80.6048 334.396 80.0022 333.794 79.2588 333.794ZM78.4513 341.062C78.4513 340.616 78.8128 340.254 79.2588 340.254C79.7048 340.254 80.0664 340.616 80.0664 341.062C80.0664 341.508 79.7048 341.869 79.2588 341.869C78.8128 341.869 78.4513 341.508 78.4513 341.062ZM79.2588 339.716C78.5155 339.716 77.9129 340.318 77.9129 341.062C77.9129 341.805 78.5155 342.408 79.2588 342.408C80.0022 342.408 80.6048 341.805 80.6048 341.062C80.6048 340.318 80.0022 339.716 79.2588 339.716ZM84.9118 337.024C84.3171 337.024 83.8351 337.506 83.8351 338.101C83.8351 338.695 84.3171 339.177 84.9118 339.177C85.5065 339.177 85.9886 338.695 85.9886 338.101C85.9886 337.506 85.5065 337.024 84.9118 337.024ZM83.2967 338.101C83.2967 337.209 84.0198 336.486 84.9118 336.486C85.8038 336.486 86.5269 337.209 86.5269 338.101C86.5269 338.993 85.8038 339.716 84.9118 339.716C84.0198 339.716 83.2967 338.993 83.2967 338.101ZM79.5281 337.293C79.5281 337.144 79.4075 337.024 79.2589 337.024C79.1102 337.024 78.9897 337.144 78.9897 337.293V338.908C78.9897 339.057 79.1102 339.177 79.2589 339.177C79.4075 339.177 79.5281 339.057 79.5281 338.908V337.293ZM80.8617 335.979C80.9307 335.847 81.0933 335.796 81.225 335.865L82.9661 336.777C83.0978 336.846 83.1487 337.009 83.0797 337.141C83.0107 337.272 82.848 337.323 82.7163 337.254L80.9752 336.342C80.8435 336.273 80.7927 336.111 80.8617 335.979ZM82.9661 339.424C83.0978 339.355 83.1487 339.192 83.0797 339.061C83.0107 338.929 82.848 338.878 82.7163 338.947L80.9752 339.859C80.8435 339.928 80.7927 340.091 80.8617 340.222C80.9307 340.354 81.0933 340.405 81.225 340.336L82.9661 339.424Z" fill="#757575"/>
<rect x="95.1408" y="334.332" width="41.9931" height="8.0756" fill="#C2C4CC"/>
<path fill-rule="evenodd" clip-rule="evenodd" d="M83.8343 354.252H85.8981C86.0596 354.252 86.1673 354.36 86.1673 354.521V356.136C86.1673 356.298 86.0596 356.405 85.8981 356.405H78.5403C78.3788 356.405 78.2711 356.298 78.2711 356.136V354.521C78.2711 354.36 78.3788 354.252 78.5403 354.252H80.6041V352.906C80.6041 352.744 80.7117 352.637 80.8733 352.637H83.5651C83.7266 352.637 83.8343 352.744 83.8343 352.906V354.252ZM83.2959 353.175H81.1424V354.252H83.2959V353.175ZM78.8095 355.867H85.6289V354.79H83.5651H80.8733H78.8095V355.867ZM84.5529 357.213C84.5529 357.051 84.6605 356.944 84.822 356.944C84.9836 356.944 85.0912 357.051 85.0912 357.213V359.905C85.0912 360.658 84.499 361.251 83.7453 361.251H80.6945C79.9408 361.251 79.3486 360.658 79.3486 359.905V357.213C79.3486 357.051 79.4563 356.944 79.6178 356.944C79.7793 356.944 79.887 357.051 79.887 357.213V359.905C79.887 360.335 80.2638 360.712 80.6945 360.712H83.7453C84.176 360.712 84.5529 360.335 84.5529 359.905V357.213Z" fill="#757575"/>
<rect x="95.1408" y="353.175" width="86.1397" height="8.0756" fill="#C2C4CC"/>
<rect x="69.299" y="310.105" width="129.21" height="18.8431" fill="#E6E6E6"/>
<path fill-rule="evenodd" clip-rule="evenodd" d="M83.5658 316.117H78.0026V321.321H79.1063C79.231 321.936 79.7741 322.398 80.4253 322.398C81.0765 322.398 81.6196 321.936 81.7443 321.321H83.2967V321.321H83.7489C83.7463 321.351 83.7449 321.381 83.7449 321.411C83.7449 321.956 84.1868 322.398 84.7319 322.398C85.2771 322.398 85.719 321.956 85.719 321.411C85.719 321.381 85.7176 321.351 85.7149 321.322H86.4372V319.45L85.7194 319.091V317.553H83.5658V316.117ZM85.4934 320.783H85.8988V319.783L85.181 319.424V318.091H83.5658V320.783H83.9705C84.1515 320.564 84.4254 320.424 84.7319 320.424C85.0385 320.424 85.3124 320.564 85.4934 320.783ZM80.4253 319.706C79.7742 319.706 79.231 320.169 79.1063 320.783H78.541V316.656H83.0274V320.783H81.7443C81.6196 320.169 81.0764 319.706 80.4253 319.706ZM80.4253 320.245C79.9793 320.245 79.6177 320.606 79.6177 321.052C79.6177 321.498 79.9793 321.86 80.4253 321.86C80.8713 321.86 81.2329 321.498 81.2329 321.052C81.2329 320.606 80.8713 320.245 80.4253 320.245ZM84.2833 321.411C84.2833 321.163 84.4841 320.963 84.7319 320.963C84.9797 320.963 85.1806 321.163 85.1806 321.411C85.1806 321.659 84.9797 321.86 84.7319 321.86C84.4841 321.86 84.2833 321.659 84.2833 321.411ZM81.0534 318.45V319.168H80.5151V318.45H79.7973V317.912H80.5151V317.194H81.0534V317.912H81.7713V318.45H81.0534Z" fill="#757575"/>
<rect x="95.1408" y="315.489" width="67.2967" height="8.0756" fill="#757575"/>
<rect x="30.5361" y="163.668" width="36.6094" height="205.659" fill="white"/>
<rect width="36.6094" height="29.0722" transform="translate(30.5361 163.668)" fill="white"/>
<path fill-rule="evenodd" clip-rule="evenodd" d="M41.3035 171.743H44.1742L46.9234 177.967L45.5614 181.237C45.5311 181.309 45.43 181.31 45.3987 181.238L41.3035 171.743ZM47.9292 182.974C48.5185 182.026 52.9184 171.743 52.9184 171.743H55.8396C55.8396 171.743 51.5143 181.863 50.9971 182.837C50.5419 183.694 49.7206 184.664 48.5817 184.664H45.9527C45.9438 184.664 45.9366 184.657 45.9366 184.648C45.9366 184.64 45.9424 184.633 45.9502 184.632C46.7902 184.497 47.2442 184.076 47.9292 182.974Z" fill="#1A1A1A"/>
<rect width="36.6094" height="21.5349" transform="translate(30.5361 192.74)" fill="white"/>
<path fill-rule="evenodd" clip-rule="evenodd" d="M43.7823 202.732C43.7823 200.361 45.6748 198.449 47.998 198.449C50.3211 198.449 52.2136 200.361 52.2136 202.732C52.2136 203.909 51.7473 204.972 50.9935 205.746C50.989 205.75 50.9845 205.754 50.9801 205.758C50.9731 205.765 50.9664 205.772 50.9601 205.779C50.198 206.544 49.151 207.015 47.998 207.015C45.6748 207.015 43.7823 205.102 43.7823 202.732ZM51.2306 206.54C50.3635 207.297 49.2345 207.755 47.998 207.755C45.2558 207.755 43.0421 205.501 43.0421 202.732C43.0421 199.963 45.2558 197.709 47.998 197.709C50.7401 197.709 52.9539 199.963 52.9539 202.732C52.9539 203.985 52.5008 205.132 51.7508 206.013L54.3757 208.676C54.5192 208.822 54.5175 209.056 54.3719 209.2C54.2263 209.343 53.992 209.342 53.8485 209.196L51.2306 206.54Z" fill="#757575"/>
<rect width="36.6094" height="8.0756" transform="translate(30.5361 214.275)" fill="white"/>
<rect x="36.9966" y="217.737" width="24.079" height="0.538373" fill="#CED0D7"/>
<rect width="36.6094" height="22.0733" transform="translate(30.5361 222.351)" fill="white"/>
<path fill-rule="evenodd" clip-rule="evenodd" d="M47.3266 228.273C47.1594 228.273 47.0238 228.408 47.0238 228.576V230.998V234.792C46.7023 234.504 46.2778 234.329 45.8124 234.329C44.8089 234.329 43.9954 235.143 43.9954 236.146C43.9954 237.15 44.8089 237.963 45.8124 237.963C46.8159 237.963 47.6294 237.15 47.6294 236.146V231.301H52.4748V233.581C52.1533 233.293 51.7288 233.118 51.2635 233.118C50.26 233.118 49.4465 233.932 49.4465 234.935C49.4465 235.939 50.26 236.752 51.2635 236.752C52.267 236.752 53.0805 235.939 53.0805 234.935V230.998V228.576C53.0805 228.408 52.9449 228.273 52.7776 228.273H47.3266ZM52.4748 234.935C52.4748 234.266 51.9325 233.724 51.2635 233.724C50.5945 233.724 50.0521 234.266 50.0521 234.935C50.0521 235.604 50.5945 236.146 51.2635 236.146C51.9325 236.146 52.4748 235.604 52.4748 234.935ZM45.8124 234.935C46.4814 234.935 47.0238 235.477 47.0238 236.146C47.0238 236.815 46.4814 237.358 45.8124 237.358C45.1434 237.358 44.6011 236.815 44.6011 236.146C44.6011 235.477 45.1434 234.935 45.8124 234.935ZM52.4748 230.695V228.878H47.6294V230.695H52.4748Z" fill="#757575"/>
<rect width="36.6094" height="22.0733" transform="translate(30.5361 266.497)" fill="white"/>
<path fill-rule="evenodd" clip-rule="evenodd" d="M45.9131 273.226C45.9131 273.058 45.7776 272.923 45.6103 272.923C45.4431 272.923 45.3075 273.058 45.3075 273.226V275.373L46.5161 276.539C46.5489 276.584 46.5526 276.629 46.5444 276.66C46.54 276.676 46.5324 276.689 46.5224 276.698C46.5129 276.708 46.4961 276.72 46.4655 276.727L45.3075 277.03V277.876L44.5839 278.205L44.5717 278.212C44.0856 278.49 44.0856 279.187 44.5717 279.465L45.3075 279.866V280.09C45.3075 280.367 45.0797 280.595 44.8027 280.595H44.399C44.2317 280.595 44.0961 280.73 44.0961 280.898C44.0961 281.065 44.2317 281.2 44.399 281.2H44.8027C45.4142 281.2 45.9131 280.701 45.9131 280.09V279.506L44.8704 278.938C44.7959 278.893 44.7937 278.791 44.8638 278.743L45.9131 278.266V277.497L46.6141 277.315C46.8825 277.247 47.0658 277.053 47.1292 276.817C47.1911 276.588 47.1353 276.335 46.9735 276.141L46.963 276.128L45.9131 275.116V273.226ZM48.7399 274.842C48.7399 274.565 48.9677 274.337 49.2446 274.337H52.4749C52.7518 274.337 52.9796 274.565 52.9796 274.842V278.072C52.9796 278.349 52.7518 278.577 52.4749 278.577H47.8314L48.7399 277.366V274.842ZM49.2446 273.731C48.6332 273.731 48.1343 274.23 48.1343 274.842V277.164L46.6201 279.183H52.4749C53.0863 279.183 53.5853 278.684 53.5853 278.072V274.842C53.5853 274.23 53.0863 273.731 52.4749 273.731H49.2446ZM49.7492 275.346H51.97V275.952H49.7492V275.346ZM51.1625 276.961H49.7492V277.567H51.1625V276.961Z" fill="#757575"/>
<rect width="36.6094" height="22.0733" transform="translate(30.5361 332.717)" fill="white"/>
<path d="M52.7776 339.851H51.2635V338.942C51.2635 338.76 51.1423 338.639 50.9606 338.639C50.7789 338.639 50.6578 338.76 50.6578 338.942V339.851H47.0238V338.942C47.0238 338.76 46.9026 338.639 46.7209 338.639C46.5392 338.639 46.4181 338.76 46.4181 338.942V339.851H44.9039C44.4194 339.851 43.9954 340.274 43.9954 340.759V341.97V347.421C43.9954 347.906 44.4194 348.33 44.9039 348.33H52.7776C53.2622 348.33 53.6861 347.906 53.6861 347.421V341.97V340.759C53.6861 340.274 53.2622 339.851 52.7776 339.851ZM53.0805 347.421C53.0805 347.603 52.9593 347.724 52.7776 347.724H44.9039C44.7222 347.724 44.6011 347.603 44.6011 347.421V342.273H53.0805V347.421ZM53.0805 341.668H44.6011V340.759C44.6011 340.577 44.7222 340.456 44.9039 340.456H46.7209H50.9606H52.7776C52.9593 340.456 53.0805 340.577 53.0805 340.759V341.668Z" fill="#757575"/>
<rect width="36.6094" height="22.0733" transform="translate(30.5361 244.424)" fill="white"/>
<path d="M53.6256 252.829L51.2029 250.407C51.0818 250.285 50.9001 250.285 50.7789 250.407L44.7222 256.463C44.6617 256.524 44.6011 256.584 44.6011 256.645L43.9954 259.673C43.9954 259.794 43.9954 259.855 44.056 259.976C44.1771 260.037 44.2377 260.037 44.3588 260.037L47.3872 259.431C47.4477 259.431 47.5083 259.37 47.5689 259.37L53.6256 253.314C53.6861 253.193 53.6861 252.95 53.6256 252.829ZM47.2055 258.825L44.7222 259.31L45.2068 256.827L49.4465 252.587L51.4452 254.586L47.2055 258.825ZM51.8691 254.162L49.8704 252.163L50.9606 251.073L52.9593 253.071L51.8691 254.162Z" fill="#757575"/>
<rect width="36.6094" height="22.0733" transform="translate(30.5361 310.644)" fill="white"/>
<path fill-rule="evenodd" clip-rule="evenodd" d="M44.7408 318.073H52.9406C52.9469 318.073 52.9552 318.075 52.9659 318.086C52.9768 318.097 52.9862 318.115 52.9862 318.14V324.278C52.9862 324.303 52.9768 324.321 52.9659 324.333C52.9552 324.344 52.9469 324.345 52.9406 324.345H44.7408C44.7345 324.345 44.7262 324.344 44.7156 324.333C44.7046 324.321 44.6952 324.303 44.6952 324.278V318.14C44.6952 318.115 44.7046 318.097 44.7156 318.086C44.7262 318.075 44.7345 318.073 44.7408 318.073ZM52.9406 317.373H44.7408C44.3289 317.373 43.9954 317.717 43.9954 318.14V324.278C43.9954 324.702 44.3289 325.045 44.7408 325.045H52.9406C53.3525 325.045 53.6861 324.702 53.6861 324.278V318.14C53.6861 317.717 53.3525 317.373 52.9406 317.373ZM48.2351 319.796C48.2351 319.461 48.5062 319.19 48.8407 319.19C49.1752 319.19 49.4464 319.461 49.4464 319.796C49.4464 320.13 49.1752 320.402 48.8407 320.402C48.5062 320.402 48.2351 320.13 48.2351 319.796ZM48.8407 318.585C48.1717 318.585 47.6294 319.127 47.6294 319.796C47.6294 320.465 48.1717 321.007 48.8407 321.007C49.5097 321.007 50.0521 320.465 50.0521 319.796C50.0521 319.127 49.5097 318.585 48.8407 318.585ZM48.5379 322.219C48.1363 322.219 47.7512 322.378 47.4672 322.662C47.2557 322.874 47.1132 323.141 47.0543 323.43H50.6271C50.5682 323.141 50.4257 322.874 50.2142 322.662C49.9303 322.378 49.5451 322.219 49.1436 322.219H48.5379ZM47.0389 322.234C47.4365 321.836 47.9757 321.613 48.5379 321.613H49.1436C49.7058 321.613 50.245 321.836 50.6425 322.234C51.0401 322.631 51.2634 323.171 51.2634 323.733C51.2634 323.9 51.1278 324.036 50.9606 324.036H46.7209C46.5536 324.036 46.418 323.9 46.418 323.733C46.418 323.171 46.6414 322.631 47.0389 322.234ZM46.418 325.954C46.418 325.772 46.5392 325.651 46.7209 325.651H50.9606C51.1423 325.651 51.2634 325.772 51.2634 325.954C51.2634 326.135 51.1423 326.256 50.9606 326.256H46.7209C46.5392 326.256 46.418 326.135 46.418 325.954Z" fill="#757575"/>
<rect width="36.6094" height="22.0733" transform="translate(30.5361 288.57)" fill="white"/>
<rect x="36.9966" y="289.647" width="24.079" height="19.9198" rx="2.69187" fill="#9941FF"/>
<path fill-rule="evenodd" clip-rule="evenodd" d="M44.9039 298.127C44.9039 296.816 45.4347 295.629 46.2928 294.771L46.7211 295.199C45.9721 295.948 45.5096 296.982 45.5096 298.127C45.5096 299.271 45.9721 300.305 46.7211 301.054L46.2928 301.482C45.4347 300.624 44.9039 299.437 44.9039 298.127ZM46.5191 298.127C46.5191 296.372 47.8942 294.997 49.6483 294.997C51.4025 294.997 52.7776 296.372 52.7776 298.127H52.172C52.172 296.707 51.068 295.603 49.6483 295.603C48.2287 295.603 47.1247 296.707 47.1247 298.127C47.1247 298.578 47.262 299.089 47.5191 299.555L47.5191 299.555C47.855 300.164 48.2449 300.468 48.5892 300.733C48.5893 300.733 48.5894 300.733 48.5895 300.733L48.5996 300.741C48.9209 300.987 49.2234 301.218 49.3829 301.707C49.6065 302.385 49.8737 302.721 50.3298 302.962C50.494 303.035 50.6748 303.073 50.8597 303.073C51.5848 303.073 52.172 302.486 52.172 301.761H52.7776C52.7776 302.82 51.9193 303.679 50.8597 303.679C50.5872 303.679 50.3186 303.621 50.073 303.51L50.0651 303.507L50.0573 303.503C49.42 303.17 49.0672 302.683 48.8076 301.896L48.8073 301.895C48.7101 301.597 48.5494 301.465 48.2206 301.214L48.2199 301.213C47.8617 300.937 47.3877 300.571 46.9888 299.848C46.6886 299.304 46.5191 298.693 46.5191 298.127ZM48.3361 298.127C48.3361 297.402 48.9239 296.814 49.6483 296.814C50.3728 296.814 50.9606 297.402 50.9606 298.127C50.9606 298.851 50.3728 299.439 49.6483 299.439C48.9239 299.439 48.3361 298.851 48.3361 298.127ZM49.6483 297.42C49.2584 297.42 48.9417 297.737 48.9417 298.127C48.9417 298.517 49.2584 298.833 49.6483 298.833C50.0383 298.833 50.355 298.517 50.355 298.127C50.355 297.737 50.0383 297.42 49.6483 297.42Z" fill="white"/>
<g filter="url(#filter2_d)">
<path d="M84.3734 167.975C84.3734 165.596 86.3017 163.668 88.6804 163.668H294.339C296.718 163.668 298.646 165.596 298.646 167.975V265.42C298.646 267.799 296.718 269.727 294.339 269.727H88.6804C86.3017 269.727 84.3734 267.799 84.3734 265.42V167.975Z" fill="white"/>
</g>
<g clip-path="url(#clip4)">
<path fill-rule="evenodd" clip-rule="evenodd" d="M283.639 180.223H286.243C286.728 180.223 287.212 180.404 287.515 180.828C287.818 181.131 287.939 181.616 287.878 182.1L287.394 184.886C287.273 185.674 286.607 186.279 285.819 186.279H280.61V181.434C280.671 181.434 282.064 176.891 282.064 176.891C282.064 176.71 282.246 176.589 282.427 176.589C283.154 176.589 283.639 176.891 283.639 177.8V180.223ZM278.188 181.434H279.399V186.279H278.188V181.434Z" fill="#9941FF"/>
</g>
<path fill-rule="evenodd" clip-rule="evenodd" d="M111.427 179.953C111.427 181.838 109.946 183.318 108.062 183.318C106.178 183.318 104.697 181.838 104.697 179.953C104.697 178.069 106.178 176.589 108.062 176.589C109.946 176.589 111.427 178.069 111.427 179.953ZM110.081 179.953C110.081 178.877 109.139 177.935 108.062 177.935C106.985 177.935 106.043 178.877 106.043 179.953C106.043 181.03 106.985 181.972 108.062 181.972C109.139 181.972 110.081 181.03 110.081 179.953ZM117.483 181.972C117.483 183.453 116.272 184.664 114.792 184.664C113.311 184.664 112.1 183.453 112.1 181.972C112.1 180.492 113.311 179.28 114.792 179.28C116.272 179.28 117.483 180.492 117.483 181.972ZM116.138 181.972C116.138 181.165 115.599 180.626 114.792 180.626C113.984 180.626 113.446 181.165 113.446 181.972C113.446 182.78 113.984 183.318 114.792 183.318C115.599 183.318 116.138 182.78 116.138 181.972ZM113.446 188.029C113.446 187.087 113.042 186.279 112.503 185.606C111.831 185.068 111.023 184.664 110.081 184.664H106.043C105.101 184.664 104.293 185.068 103.62 185.606C103.082 186.279 102.678 187.087 102.678 188.029V192.067C102.678 192.471 102.947 192.74 103.351 192.74H104.024V197.451C104.024 197.854 104.293 198.124 104.697 198.124H111.427C111.831 198.124 112.1 197.854 112.1 197.451V192.74H112.773C113.176 192.74 113.446 192.471 113.446 192.067V188.029ZM112.1 191.394H111.427C111.023 191.394 110.754 191.663 110.754 192.067V196.778H105.37V192.067C105.37 191.663 105.101 191.394 104.697 191.394H104.024V188.029C104.024 187.491 104.293 186.952 104.562 186.549C104.832 186.145 105.505 186.01 106.043 186.01H110.081C110.619 186.01 111.158 186.279 111.561 186.549C111.831 186.952 112.1 187.491 112.1 188.029V191.394ZM116.81 186.01C117.349 186.01 117.887 186.279 118.291 186.549C118.56 186.952 118.829 187.491 118.829 188.029V192.067C118.829 192.471 118.56 192.74 118.156 192.74H117.483V196.105C117.483 196.508 117.214 196.778 116.81 196.778H114.119C113.715 196.778 113.446 196.508 113.446 196.105C113.446 195.701 113.715 195.432 114.119 195.432H116.138V192.067C116.138 191.663 116.407 191.394 116.81 191.394H117.483V188.029C117.483 187.962 117.45 187.861 117.416 187.76C117.382 187.659 117.349 187.558 117.349 187.491C117.282 187.491 117.181 187.457 117.08 187.423C116.979 187.39 116.878 187.356 116.81 187.356H115.465C115.061 187.356 114.792 187.087 114.792 186.683C114.792 186.279 115.061 186.01 115.465 186.01H116.81ZM101.332 184.664C102.813 184.664 104.024 183.453 104.024 181.972C104.024 180.492 102.813 179.28 101.332 179.28C99.8517 179.28 98.6404 180.492 98.6404 181.972C98.6404 183.453 99.8517 184.664 101.332 184.664ZM101.332 180.626C102.14 180.626 102.678 181.165 102.678 181.972C102.678 182.78 102.14 183.318 101.332 183.318C100.525 183.318 99.9863 182.78 99.9863 181.972C99.9863 181.165 100.525 180.626 101.332 180.626ZM99.9863 195.432H102.005C102.409 195.432 102.678 195.701 102.678 196.105C102.678 196.508 102.409 196.778 102.005 196.778H99.3133C98.9096 196.778 98.6404 196.508 98.6404 196.105V192.74H97.9674C97.5636 192.74 97.2944 192.471 97.2944 192.067V188.029C97.2944 187.491 97.429 186.818 97.8328 186.549C98.2366 186.279 98.775 186.01 99.3133 186.01H100.659C101.063 186.01 101.332 186.279 101.332 186.683C101.332 187.087 101.063 187.356 100.659 187.356H99.3133C99.246 187.356 99.1451 187.39 99.0441 187.423C98.9432 187.457 98.8423 187.491 98.775 187.491C98.775 187.558 98.7413 187.659 98.7077 187.76C98.674 187.861 98.6404 187.962 98.6404 188.029V191.394H99.3133C99.7171 191.394 99.9863 191.663 99.9863 192.067V195.432Z" fill="#757575"/>
<rect x="97.2944" y="209.968" width="60.8362" height="16.6896" fill="#C2C4CC"/>
<rect x="165.129" y="209.968" width="33.9175" height="16.6896" fill="#C2C4CC"/>
<rect x="97.2944" y="231.503" width="160.435" height="8.61397" fill="#E6E6E6"/>
<rect x="97.2944" y="244.424" width="136.208" height="8.61397" fill="#E6E6E6"/>
<rect x="230.811" y="178.742" width="42.5315" height="7.53723" fill="#E6E6E6"/>
<g filter="url(#filter3_d)">
<path fill-rule="evenodd" clip-rule="evenodd" d="M318.566 31.5402C318.566 29.8811 319.911 28.5361 321.57 28.5361H615.974C617.633 28.5361 618.978 29.8811 618.978 31.5403V267.364C618.978 269.023 617.633 270.368 615.974 270.368H321.57C319.911 270.368 318.566 269.023 318.566 267.364V31.5402Z" fill="white"/>
</g>
<g clip-path="url(#clip5)">
<rect x="342.849" y="87.3666" width="121.667" height="24.5337" rx="2.75378" fill="white" stroke="#1A1A1A" stroke-width="0.500687"/>
<rect x="349.609" y="100.134" width="70.5969" height="7.51031" fill="#757575"/>
<rect x="349.609" y="91.6223" width="36.0495" height="6.00825" fill="#E6E6E6"/>
</g>
<g clip-path="url(#clip6)">
<rect x="473.028" y="87.3666" width="121.667" height="24.5337" rx="2.75378" fill="white" stroke="#E6E6E6" stroke-width="0.500687"/>
</g>
<g clip-path="url(#clip7)">
<rect x="342.849" y="120.412" width="251.846" height="24.5337" rx="2.75378" fill="white" stroke="#E6E6E6" stroke-width="0.500687"/>
<rect x="349.609" y="128.674" width="127.675" height="8.01099" fill="#E6E6E6"/>
</g>
<rect x="479.787" y="95.6282" width="70.5969" height="8.01099" fill="#E6E6E6"/>
<g clip-path="url(#clip8)">
<rect x="342.849" y="153.457" width="251.846" height="24.5337" rx="2.75378" fill="white" stroke="#E6E6E6" stroke-width="0.500687"/>
<rect x="349.609" y="161.719" width="127.675" height="8.01099" fill="#E6E6E6"/>
</g>
<rect x="598.951" y="32.5415" width="16.0219" height="16.022" rx="8.01096" fill="white"/>
<g clip-path="url(#clip9)">
<path d="M609.477 38.0355C609.327 37.8853 609.101 37.8853 608.951 38.0355L606.961 40.0257L604.971 38.0355C604.821 37.8853 604.595 37.8853 604.445 38.0355C604.295 38.1857 604.295 38.411 604.445 38.5612L606.435 40.5515L604.445 42.5417C604.295 42.6919 604.295 42.9172 604.445 43.0674C604.52 43.1425 604.595 43.1801 604.708 43.1801C604.821 43.1801 604.896 43.1425 604.971 43.0674L606.961 41.0772L608.951 43.0674C609.026 43.1425 609.139 43.1801 609.214 43.1801C609.289 43.1801 609.402 43.1425 609.477 43.0674C609.627 42.9172 609.627 42.6919 609.477 42.5417L607.487 40.5515L609.477 38.5612C609.627 38.411 609.627 38.1857 609.477 38.0355Z" fill="#757575"/>
</g>
<rect x="406.687" y="222.302" width="60.0825" height="24.033" rx="3.00412" fill="#C2C4CC"/>
<rect x="342.599" y="194.263" width="12.0165" height="12.0165" rx="1.50206" fill="#757575"/>
<path d="M345.603 200.886L347.205 202.525L351.611 198.019" stroke="white" stroke-width="1.00137" stroke-linecap="square"/>
<rect x="342.849" y="222.552" width="59.5818" height="23.5323" rx="2.75378" stroke="#757575" stroke-width="0.500687"/>
<rect x="359.622" y="196.266" width="35.5488" height="8.01099" fill="#E6E6E6"/>
<rect x="397.674" y="196.266" width="61.0838" height="8.01099" fill="#757575"/>
<rect x="414.698" y="230.313" width="44.0605" height="8.01099" fill="#757575"/>
<rect x="350.61" y="230.313" width="44.0605" height="8.01099" fill="#757575"/>
<rect x="342.599" y="52.5688" width="97.634" height="12.5172" fill="#757575"/>
<g filter="url(#filter4_d)">
<g clip-path="url(#clip10)">
<path fill-rule="evenodd" clip-rule="evenodd" d="M219.505 285.879C219.505 284.689 220.469 283.725 221.659 283.725H537.145C538.335 283.725 539.299 284.689 539.299 285.879V310.644C539.299 311.833 538.335 312.797 537.145 312.797H221.659C220.469 312.797 219.505 311.833 219.505 310.644V285.879Z" fill="white"/>
<rect x="520.994" y="284.802" width="17.2279" height="17.2279" rx="8.61397" fill="white"/>
<g clip-path="url(#clip11)">
<path d="M532.313 290.71C532.151 290.548 531.909 290.548 531.747 290.71L529.607 292.85L527.467 290.71C527.306 290.548 527.064 290.548 526.902 290.71C526.741 290.872 526.741 291.114 526.902 291.275L529.042 293.415L526.902 295.555C526.741 295.717 526.741 295.959 526.902 296.121C526.983 296.201 527.064 296.242 527.185 296.242C527.306 296.242 527.387 296.201 527.467 296.121L529.607 293.981L531.747 296.121C531.828 296.201 531.949 296.242 532.03 296.242C532.111 296.242 532.232 296.201 532.313 296.121C532.474 295.959 532.474 295.717 532.313 295.555L530.173 293.415L532.313 291.275C532.474 291.114 532.474 290.872 532.313 290.71Z" fill="#757575"/>
</g>
<path d="M235.656 292.877C232.695 292.877 230.273 295.3 230.273 298.261C230.273 301.222 232.695 303.645 235.656 303.645C238.617 303.645 241.04 301.222 241.04 298.261C241.04 295.3 238.617 292.877 235.656 292.877ZM234.983 300.549L232.695 298.261L233.637 297.319L234.983 298.665L237.675 295.973L238.617 296.915L234.983 300.549Z" fill="#F89B85"/>
<rect x="247.5" y="293.954" width="97.9839" height="8.61397" fill="#F89B85"/>
</g>
</g>
<g filter="url(#filter5_d)">
<g clip-path="url(#clip12)">
<path fill-rule="evenodd" clip-rule="evenodd" d="M219.505 322.488C219.505 321.299 220.469 320.334 221.659 320.334H537.145C538.335 320.334 539.299 321.299 539.299 322.488V347.253C539.299 348.442 538.335 349.407 537.145 349.407H221.659C220.469 349.407 219.505 348.442 219.505 347.253V322.488Z" fill="white"/>
<g clip-path="url(#clip13)">
<path fill-rule="evenodd" clip-rule="evenodd" d="M238.325 329.57C238.477 329.515 238.637 329.487 238.798 329.487C240.077 329.487 241.041 331.223 241.041 333.525C241.041 335.827 240.077 337.562 238.798 337.562C238.637 337.562 238.478 337.534 238.327 337.479L231.485 335.298C231.111 335.186 230.786 334.948 230.566 334.625C230.346 334.303 230.242 333.914 230.274 333.525C230.243 333.133 230.348 332.742 230.571 332.418C230.794 332.095 231.121 331.857 231.498 331.747L238.325 329.57ZM237.452 333.525C237.452 335.322 238.163 336.665 238.798 336.665C239.433 336.665 240.144 335.322 240.144 333.525C240.144 331.727 239.433 330.384 238.798 330.384C238.163 330.384 237.452 331.727 237.452 333.525ZM239.246 333.525C239.245 333.195 239.123 332.877 238.903 332.632C238.683 332.386 238.381 332.231 238.053 332.194C237.949 332.63 237.898 333.077 237.9 333.525C237.898 333.973 237.949 334.419 238.053 334.855C238.381 334.819 238.683 334.663 238.903 334.417C239.123 334.172 239.245 333.854 239.246 333.525ZM235.507 337.523L232.91 336.695L234.091 339.6C234.142 339.727 234.218 339.843 234.314 339.941C234.41 340.039 234.525 340.117 234.651 340.171C234.777 340.225 234.913 340.253 235.05 340.254C235.188 340.256 235.324 340.23 235.451 340.179C235.578 340.127 235.694 340.052 235.792 339.955C235.89 339.859 235.968 339.745 236.022 339.619C236.076 339.492 236.104 339.357 236.105 339.219C236.107 339.082 236.081 338.946 236.03 338.819L235.507 337.523Z" fill="#D6219C"/>
</g>
<rect x="247.501" y="330.563" width="146.438" height="8.61397" fill="#D6219C"/>
<rect x="520.994" y="321.411" width="17.2279" height="17.2279" rx="8.61397" fill="white"/>
<g clip-path="url(#clip14)">
<path d="M532.313 327.319C532.151 327.157 531.909 327.157 531.747 327.319L529.607 329.459L527.467 327.319C527.306 327.157 527.064 327.157 526.902 327.319C526.741 327.48 526.741 327.723 526.902 327.884L529.042 330.024L526.902 332.164C526.741 332.326 526.741 332.568 526.902 332.73C526.983 332.81 527.064 332.851 527.185 332.851C527.306 332.851 527.387 332.81 527.467 332.73L529.607 330.59L531.747 332.73C531.828 332.81 531.949 332.851 532.03 332.851C532.111 332.851 532.232 332.81 532.313 332.73C532.474 332.568 532.474 332.326 532.313 332.164L530.173 330.024L532.313 327.884C532.474 327.723 532.474 327.48 532.313 327.319Z" fill="#757575"/>
</g>
</g>
</g>
<g filter="url(#filter6_d)">
<g clip-path="url(#clip15)">
<path fill-rule="evenodd" clip-rule="evenodd" d="M219.505 359.097C219.505 357.908 220.469 356.944 221.659 356.944H537.145C538.335 356.944 539.299 357.908 539.299 359.097V383.863C539.299 385.052 538.335 386.016 537.145 386.016H221.659C220.469 386.016 219.505 385.052 219.505 383.863V359.097Z" fill="white"/>
<path d="M235.656 366.096C232.695 366.096 230.273 368.519 230.273 371.48C230.273 374.441 232.695 376.864 235.656 376.864C238.617 376.864 241.04 374.441 241.04 371.48C241.04 368.519 238.617 366.096 235.656 366.096ZM236.329 374.172H234.983V370.807H236.329V374.172ZM235.656 370.134C235.253 370.134 234.983 369.865 234.983 369.461C234.983 369.057 235.253 368.788 235.656 368.788C236.06 368.788 236.329 369.057 236.329 369.461C236.329 369.865 236.06 370.134 235.656 370.134Z" fill="#9941FF"/>
<rect x="247.501" y="367.173" width="122.211" height="8.61397" fill="#9941FF"/>
<rect x="520.994" y="358.021" width="17.2279" height="17.2279" rx="8.61397" fill="white"/>
<g clip-path="url(#clip16)">
<path d="M532.313 363.928C532.151 363.767 531.909 363.767 531.747 363.928L529.607 366.068L527.467 363.928C527.306 363.767 527.064 363.767 526.902 363.928C526.741 364.09 526.741 364.332 526.902 364.494L529.042 366.634L526.902 368.774C526.741 368.935 526.741 369.177 526.902 369.339C526.983 369.42 527.064 369.46 527.185 369.46C527.306 369.46 527.387 369.42 527.467 369.339L529.607 367.199L531.747 369.339C531.828 369.42 531.949 369.46 532.03 369.46C532.111 369.46 532.232 369.42 532.313 369.339C532.474 369.177 532.474 368.935 532.313 368.774L530.173 366.634L532.313 364.494C532.474 364.332 532.474 364.09 532.313 363.928Z" fill="#757575"/>
</g>
</g>
</g>
<g filter="url(#filter7_d)">
<g clip-path="url(#clip17)">
<path fill-rule="evenodd" clip-rule="evenodd" d="M219.505 400.706C219.505 398.922 220.951 397.475 222.735 397.475H386.939C388.723 397.475 390.169 398.922 390.169 400.706V462.08C390.169 463.864 388.723 465.31 386.939 465.31H222.735C220.951 465.31 219.505 463.864 219.505 462.08V400.706Z" fill="white"/>
<path fill-rule="evenodd" clip-rule="evenodd" d="M219.505 400.167C219.505 398.681 220.71 397.475 222.197 397.475V397.475V465.31V465.31C220.71 465.31 219.505 464.105 219.505 462.619V400.167Z" fill="#1C8731"/>
<path fill-rule="evenodd" clip-rule="evenodd" d="M251.807 441.083C251.807 439.597 253.013 438.392 254.499 438.392H298.108C299.594 438.392 300.799 439.597 300.799 441.083V451.851C300.799 453.338 299.594 454.543 298.108 454.543H254.499C253.013 454.543 251.807 453.338 251.807 451.851V441.083Z" fill="#1C8731"/>
<path d="M237.002 408.243C233.597 408.243 230.811 411.029 230.811 414.434C230.811 417.839 233.597 420.625 237.002 420.625C240.407 420.625 243.194 417.839 243.194 414.434C243.194 411.029 240.407 408.243 237.002 408.243ZM236.228 417.065L233.597 414.434L234.68 413.35L236.228 414.898L239.324 411.803L240.407 412.886L236.228 417.065Z" fill="#1C8731"/>
<rect x="251.807" y="408.243" width="71.0653" height="10.7675" fill="#757575"/>
<rect x="251.807" y="424.932" width="127.594" height="8.61397" fill="#E6E6E6"/>
<rect opacity="0.7" x="258.268" y="443.237" width="36.071" height="6.46048" fill="white"/>
</g>
</g>
<rect x="403.09" y="396.783" width="149.668" height="38.7629" fill="#E6E6E6"/>
<circle cx="423.01" cy="416.165" r="12.921" fill="#C2C4CC"/>
<rect x="442.392" y="404.859" width="71.0653" height="10.7675" fill="#757575"/>
<rect x="442.392" y="418.857" width="101.753" height="8.61397" fill="#C2C4CC"/>
<g clip-path="url(#clip18)">
<path fill-rule="evenodd" clip-rule="evenodd" d="M425.971 412.665C425.971 414.301 424.645 415.626 423.01 415.626C421.375 415.626 420.049 414.301 420.049 412.665C420.049 411.03 421.375 409.704 423.01 409.704C424.645 409.704 425.971 411.03 425.971 412.665ZM418.075 419.903C418.075 418.692 419.679 416.613 423.01 416.613C426.341 416.613 427.945 418.692 427.945 419.903V420.562C427.945 420.823 427.841 421.074 427.656 421.259C427.471 421.445 427.22 421.549 426.958 421.549H419.062C418.8 421.549 418.549 421.445 418.364 421.259C418.179 421.074 418.075 420.823 418.075 420.562V419.903Z" fill="#757575"/>
</g>
<circle cx="431.893" cy="425.048" r="3.49943" fill="#757575" stroke="#E6E6E6" stroke-width="1.07675"/>
<rect x="403.09" y="438.238" width="149.668" height="38.7629" fill="#E6E6E6"/>
<circle cx="423.01" cy="457.62" r="12.921" fill="#C2C4CC"/>
<rect x="442.392" y="446.314" width="41.4547" height="10.7675" fill="#757575"/>
<g clip-path="url(#clip19)">
<path fill-rule="evenodd" clip-rule="evenodd" d="M423.01 454.12C423.828 454.12 424.491 453.457 424.491 452.64C424.491 451.822 423.828 451.159 423.01 451.159C422.192 451.159 421.53 451.822 421.53 452.64C421.53 453.457 422.192 454.12 423.01 454.12ZM418.569 455.971C419.386 455.971 420.049 455.308 420.049 454.49C420.049 453.673 419.386 453.01 418.569 453.01C417.751 453.01 417.088 453.673 417.088 454.49C417.088 455.308 417.751 455.971 418.569 455.971ZM428.932 454.49C428.932 455.308 428.269 455.971 427.452 455.971C426.634 455.971 425.971 455.308 425.971 454.49C425.971 453.673 426.634 453.01 427.452 453.01C428.269 453.01 428.932 453.673 428.932 454.49ZM423.01 459.672C424.237 459.672 425.231 458.678 425.231 457.451C425.231 456.225 424.237 455.231 423.01 455.231C421.784 455.231 420.789 456.225 420.789 457.451C420.789 458.678 421.784 459.672 423.01 459.672ZM420.539 460.561C422.1 460.364 423.92 460.364 425.481 460.561C426.399 460.676 427.082 461.47 427.082 462.396V462.634C427.082 462.839 426.916 463.003 426.711 463.003H419.309C419.104 463.003 418.939 462.839 418.939 462.542V462.396C418.939 461.47 419.621 460.676 420.539 460.561Z" fill="#757575"/>
</g>
<g filter="url(#filter8_d)">
<path fill-rule="evenodd" clip-rule="evenodd" d="M36.9965 383.787C36.9965 382.003 38.4427 380.557 40.2268 380.557H201.739C203.523 380.557 204.969 382.003 204.969 383.787V450.545C204.969 452.329 203.523 453.775 201.739 453.775H40.2268C38.4427 453.775 36.9965 452.329 36.9965 450.545V383.787Z" fill="white"/>
</g>
<g clip-path="url(#clip20)">
<path d="M64.4536 399.4C64.4536 395.846 61.5464 392.939 57.9931 392.939C54.4399 392.939 51.5327 395.846 51.5327 399.4C51.5327 401.769 52.8247 403.922 54.7629 404.999V406.937H61.2234V404.999C63.1615 403.922 64.4536 401.769 64.4536 399.4Z" fill="#9941FF"/>
<path d="M56.9164 410.167H59.0699C60.2543 410.167 61.2234 409.198 61.2234 408.014H54.7629C54.7629 409.198 55.732 410.167 56.9164 410.167Z" fill="#9941FF"/>
</g>
<path fill-rule="evenodd" clip-rule="evenodd" d="M36.9965 383.249C36.9965 381.762 38.2017 380.557 39.6884 380.557V380.557V453.775V453.775C38.2017 453.775 36.9965 452.57 36.9965 451.084V383.249Z" fill="#9941FF"/>
<rect x="169.706" y="425.511" width="26.9187" height="16.6896" rx="8.34479" stroke="#9941FF" stroke-width="0.538373"/>
<rect x="179.127" y="430.625" width="8.0756" height="6.46048" fill="#9941FF"/>
<rect x="77.9129" y="394.554" width="31.2257" height="9.69072" fill="#9B9DA3"/>
<rect x="77.9129" y="409.629" width="66.2199" height="7.53723" fill="#E6E6E6"/>
<rect x="77.9129" y="421.473" width="66.2199" height="7.53723" fill="#E6E6E6"/>
<rect x="77.9129" y="433.856" width="50.0687" height="7.53723" fill="#E6E6E6"/>
<g filter="url(#filter9_d)">
<rect x="566.756" y="291.262" width="323.024" height="188.431" rx="4.30699" fill="white"/>
</g>
<rect x="579.677" y="374.172" width="297.182" height="8.61397" fill="#E6E6E6"/>
<rect x="579.677" y="402.167" width="297.182" height="8.61397" fill="#E6E6E6"/>
<rect x="579.677" y="388.169" width="297.182" height="8.61397" fill="#E6E6E6"/>
<rect x="579.677" y="416.165" width="141.054" height="8.61397" fill="#E6E6E6"/>
<rect x="579.677" y="447.929" width="63.528" height="8.61397" fill="#D6219C"/>
<path d="M566.756 295.569C566.756 293.191 568.684 291.262 571.063 291.262H885.473C887.852 291.262 889.78 293.191 889.78 295.569V362.866H566.756V295.569Z" fill="#E6E6E6"/>
<g clip-path="url(#clip21)">
<path fill-rule="evenodd" clip-rule="evenodd" d="M749.466 340.187C749.668 340.389 749.87 340.389 750.072 340.389C750.88 340.389 751.687 339.783 752.091 338.976L760.166 314.749C760.57 313.538 759.965 312.528 758.955 312.125C757.744 311.721 756.734 312.326 756.331 313.336L748.255 337.563C747.851 338.774 748.457 339.783 749.466 340.187ZM744.621 333.726L738.564 327.669C737.757 326.862 737.757 325.65 738.564 324.843L744.621 318.786L747.447 321.613L742.804 326.256L747.447 330.9L744.621 333.726ZM763.599 333.726L760.772 330.9L765.416 326.256L760.772 321.613L763.599 318.786L769.655 324.843C770.463 325.65 770.463 326.862 769.655 327.669L763.599 333.726Z" fill="#757575"/>
</g>
<g clip-path="url(#clip22)">
<path fill-rule="evenodd" clip-rule="evenodd" d="M788.566 313.667C788.566 312.294 789.678 311.182 791.05 311.182H818.383C819.756 311.182 820.868 312.294 820.868 313.667V333.545C820.868 334.918 819.756 336.03 818.383 336.03H791.05C789.678 336.03 788.566 334.918 788.566 333.545V313.667ZM812.792 339.446H796.641C795.43 339.446 794.622 340.254 794.622 341.465C794.622 342.677 795.43 343.484 796.641 343.484H812.792C814.004 343.484 814.811 342.677 814.811 341.465C814.811 340.254 814.004 339.446 812.792 339.446ZM801.277 318.659C801.277 316.76 802.817 315.22 804.717 315.22C806.617 315.22 808.156 316.76 808.156 318.659C808.156 320.559 806.617 322.099 804.717 322.099C802.817 322.099 801.277 320.559 801.277 318.659ZM799.601 326.404C800.73 325.275 802.261 324.641 803.857 324.641H805.577C807.173 324.641 808.704 325.275 809.833 326.404C810.962 327.533 811.596 329.064 811.596 330.661C811.596 331.135 811.211 331.52 810.736 331.52H798.698C798.47 331.52 798.251 331.43 798.09 331.269C797.928 331.107 797.838 330.889 797.838 330.661C797.838 329.064 798.472 327.533 799.601 326.404Z" fill="#757575"/>
</g>
<g clip-path="url(#clip23)">
<path d="M855.324 310.105V320.161C857.435 320.656 859.051 322.655 859.051 325.014C859.051 326.504 858.42 327.746 857.304 328.741L861.769 332.468H862.041C863.036 332.468 863.904 333.337 863.904 334.332C863.904 335.327 863.152 336.196 862.157 336.196C861.162 336.196 860.294 335.443 860.294 334.448L854.936 329.984H854.082C851.349 329.984 849.112 327.746 849.112 325.014C849.112 322.655 850.728 320.782 852.839 320.161V310.222C845.88 310.843 840.415 316.691 840.415 323.772C840.415 327.004 841.551 329.877 843.288 332.235C844.531 333.852 845.385 335.836 845.385 337.826V338.447C845.385 339.069 845.773 339.564 846.394 339.69L858.818 342.408C859.566 342.655 860.294 342.034 860.294 341.165V339.302L862.39 339.418C865.249 339.666 867.748 337.428 867.748 334.448V330.605L870.349 329.246C870.971 328.998 871.228 328.236 870.854 327.615L867.632 322.141C866.884 315.803 861.784 310.726 855.324 310.105ZM854.082 322.529C852.708 322.529 851.597 323.641 851.597 325.014C851.597 326.387 852.708 327.499 854.082 327.499C855.455 327.499 856.566 326.387 856.566 325.014C856.566 323.641 855.455 322.529 854.082 322.529Z" fill="#757575"/>
</g>
<rect x="566.756" y="437.7" width="323.024" height="1.07675" fill="#E6E6E6"/>
<path fill-rule="evenodd" clip-rule="evenodd" d="M907.118 38.4481C909.261 38.4481 910.998 36.7113 910.998 34.5689C910.998 32.4265 909.261 30.6897 907.118 30.6897C904.976 30.6897 903.239 32.4265 903.239 34.5689C903.239 36.7113 904.976 38.4481 907.118 38.4481Z" fill="#D6219C"/>
<path fill-rule="evenodd" clip-rule="evenodd" d="M1009.79 38.4481C1011.93 38.4481 1013.67 36.7113 1013.67 34.5689C1013.67 32.4265 1011.93 30.6897 1009.79 30.6897C1007.65 30.6897 1005.91 32.4265 1005.91 34.5689C1005.91 36.7113 1007.65 38.4481 1009.79 38.4481Z" fill="#65BAFF"/>
<path fill-rule="evenodd" clip-rule="evenodd" d="M958.583 116.291C960.725 116.291 962.462 114.554 962.462 112.412C962.462 110.269 960.725 108.532 958.583 108.532C956.44 108.532 954.703 110.269 954.703 112.412C954.703 114.554 956.44 116.291 958.583 116.291Z" fill="#F89B85"/>
<rect x="910.998" y="41.0344" width="94.9115" height="64.6536" fill="url(#paint1_linear)"/>
<rect x="910.998" y="41.0344" width="94.9115" height="64.6536" fill="url(#paint2_linear)"/>
<g filter="url(#filter10_d)">
<rect x="904.316" y="125.443" width="105.521" height="86.6781" fill="white"/>
</g>
<path fill-rule="evenodd" clip-rule="evenodd" d="M997.027 139.662C999.169 139.662 1000.91 137.925 1000.91 135.783C1000.91 133.641 999.169 131.904 997.027 131.904C994.884 131.904 993.148 133.641 993.148 135.783C993.148 137.925 994.884 139.662 997.027 139.662Z" fill="#D6219C"/>
<path fill-rule="evenodd" clip-rule="evenodd" d="M997.027 157.111C999.169 157.111 1000.91 155.374 1000.91 153.232C1000.91 151.09 999.169 149.353 997.027 149.353C994.884 149.353 993.148 151.09 993.148 153.232C993.148 155.374 994.884 157.111 997.027 157.111Z" fill="#65BAFF"/>
<path fill-rule="evenodd" clip-rule="evenodd" d="M997.027 174.56C999.169 174.56 1000.91 172.823 1000.91 170.681C1000.91 168.539 999.169 166.802 997.027 166.802C994.884 166.802 993.148 168.539 993.148 170.681C993.148 172.823 994.884 174.56 997.027 174.56Z" fill="#F89B85"/>
<g filter="url(#filter11_d)">
<rect x="904.316" y="224.504" width="105.521" height="26.9187" fill="white"/>
</g>
<g filter="url(#filter12_d)">
<rect x="904.316" y="268.651" width="105.521" height="201.352" fill="white"/>
</g>
<rect x="917.237" y="281.572" width="79.6792" height="8.61397" fill="#E6E6E6"/>
<rect x="917.237" y="377.402" width="79.6792" height="8.61397" fill="#E6E6E6"/>
<rect x="917.237" y="329.487" width="79.6792" height="8.61397" fill="#E6E6E6"/>
<rect x="917.237" y="425.317" width="79.6792" height="8.61397" fill="#E6E6E6"/>
<rect x="917.237" y="295.569" width="79.6792" height="8.61397" fill="#E6E6E6"/>
<rect x="917.237" y="391.4" width="79.6792" height="8.61397" fill="#F89B85"/>
<rect x="917.237" y="343.484" width="79.6792" height="8.61397" fill="#E6E6E6"/>
<rect x="917.237" y="439.315" width="79.6792" height="8.61397" fill="#9941FF"/>
<rect x="904.316" y="315.489" width="105.521" height="1.07675" fill="#E6E6E6"/>
<rect x="904.316" y="144.825" width="105.521" height="1.07675" fill="#E6E6E6"/>
<rect x="904.316" y="162.053" width="105.521" height="1.07675" fill="#E6E6E6"/>
<rect x="904.316" y="179.281" width="105.521" height="1.07675" fill="#E6E6E6"/>
<rect x="904.316" y="411.319" width="105.521" height="1.07675" fill="#E6E6E6"/>
<rect x="904.316" y="363.404" width="105.521" height="1.07675" fill="#E6E6E6"/>
<path fill-rule="evenodd" clip-rule="evenodd" d="M636.744 59.4526C633.176 59.4526 630.284 62.3451 630.284 65.9131V65.9131C630.284 69.4811 633.176 72.3736 636.744 72.3736H647.512C651.08 72.3736 653.972 69.4811 653.972 65.9131V65.9131C653.972 62.3451 651.08 59.4526 647.512 59.4526H636.744Z" fill="#1C8731"/>
<path fill-rule="evenodd" clip-rule="evenodd" d="M647.512 70.7583C650.188 70.7583 652.357 68.589 652.357 65.913C652.357 63.237 650.188 61.0676 647.512 61.0676C644.836 61.0676 642.666 63.237 642.666 65.913C642.666 68.589 644.836 70.7583 647.512 70.7583Z" fill="white"/>
<g clip-path="url(#clip24)">
<path fill-rule="evenodd" clip-rule="evenodd" d="M636.745 43.0723C633.177 43.0723 630.284 45.9647 630.284 49.5327V49.5327C630.284 53.1008 633.177 55.9932 636.745 55.9932H647.512C651.08 55.9932 653.972 53.1008 653.972 49.5327V49.5327C653.972 45.9647 651.08 43.0723 647.512 43.0723H636.745Z" fill="#E61D1D"/>
<path fill-rule="evenodd" clip-rule="evenodd" d="M647.512 54.3782C650.188 54.3782 652.357 52.2089 652.357 49.5329C652.357 46.8568 650.188 44.6875 647.512 44.6875C644.836 44.6875 642.666 46.8568 642.666 49.5329C642.666 52.2089 644.836 54.3782 647.512 54.3782Z" fill="white"/>
</g>
<g clip-path="url(#clip25)">
<path fill-rule="evenodd" clip-rule="evenodd" d="M636.744 75.833C633.176 75.833 630.284 78.7255 630.284 82.2935V82.2935C630.284 85.8615 633.176 88.754 636.744 88.754H647.512C651.08 88.754 653.972 85.8615 653.972 82.2935V82.2935C653.972 78.7255 651.08 75.833 647.512 75.833H636.744Z" fill="#9941FF"/>
<path fill-rule="evenodd" clip-rule="evenodd" d="M647.511 87.139C650.188 87.139 652.357 84.9696 652.357 82.2936C652.357 79.6176 650.188 77.4482 647.511 77.4482C644.835 77.4482 642.666 79.6176 642.666 82.2936C642.666 84.9696 644.835 87.139 647.511 87.139Z" fill="white"/>
</g>
<g clip-path="url(#clip26)">
<path fill-rule="evenodd" clip-rule="evenodd" d="M636.744 92.2134C633.176 92.2134 630.284 95.1058 630.284 98.6739V98.6739C630.284 102.242 633.176 105.134 636.744 105.134H647.512C651.08 105.134 653.972 102.242 653.972 98.6739V98.6739C653.972 95.1058 651.08 92.2134 647.512 92.2134H636.744Z" fill="black"/>
<path fill-rule="evenodd" clip-rule="evenodd" d="M647.512 103.519C650.188 103.519 652.357 101.35 652.357 98.6737C652.357 95.9977 650.188 93.8284 647.512 93.8284C644.836 93.8284 642.666 95.9977 642.666 98.6737C642.666 101.35 644.836 103.519 647.512 103.519Z" fill="white"/>
</g>
<g clip-path="url(#clip27)">
<path fill-rule="evenodd" clip-rule="evenodd" d="M647.511 111.984C651.079 111.984 653.972 114.877 653.972 118.445V118.445C653.972 122.013 651.079 124.905 647.511 124.905H636.744C633.176 124.905 630.283 122.013 630.283 118.445V118.445C630.283 114.877 633.176 111.984 636.744 111.984H647.511Z" fill="#E6E6E6"/>
<path fill-rule="evenodd" clip-rule="evenodd" d="M636.744 123.29C634.068 123.29 631.899 121.121 631.899 118.445C631.899 115.769 634.068 113.599 636.744 113.599C639.42 113.599 641.589 115.769 641.589 118.445C641.589 121.121 639.42 123.29 636.744 123.29Z" fill="white"/>
</g>
<g filter="url(#filter13_d)">
<path d="M688.967 34.8706C688.967 32.8589 690.597 31.228 692.609 31.228H885.06C887.072 31.228 888.703 32.8589 888.703 34.8706V272.247C888.703 274.259 887.072 275.89 885.06 275.89H692.609C690.597 275.89 688.967 274.259 688.967 272.247V34.8706Z" fill="white"/>
</g>
<rect x="688.967" y="75.5464" width="199.736" height="32.7835" fill="url(#paint3_linear)"/>
<g clip-path="url(#clip28)">
<rect x="873.222" y="47.316" width="17.606" height="17.606" rx="8.80298" transform="rotate(90 873.222 47.316)" fill="white" stroke="#F2F2F2" stroke-width="0.607102"/>
<path fill-rule="evenodd" clip-rule="evenodd" d="M862.598 59.8526C862.598 59.7191 862.647 59.586 862.746 59.4852L866.038 56.119L862.746 52.7525C862.55 52.553 862.548 52.2259 862.741 52.0229C862.934 51.82 863.248 51.8176 863.444 52.0178L867.455 56.119L863.444 60.22C863.248 60.4201 862.934 60.4177 862.741 60.2148C862.646 60.1144 862.598 59.9833 862.598 59.8526" fill="#C2C4CC"/>
<mask id="mask0" mask-type="alpha" maskUnits="userSpaceOnUse" x="862" y="51" width="6" height="10">
<path fill-rule="evenodd" clip-rule="evenodd" d="M862.598 59.8526C862.598 59.7191 862.647 59.586 862.746 59.4852L866.038 56.119L862.746 52.7525C862.55 52.553 862.548 52.2259 862.741 52.0229C862.934 51.82 863.248 51.8176 863.444 52.0178L867.455 56.119L863.444 60.22C863.248 60.4201 862.934 60.4177 862.741 60.2148C862.646 60.1144 862.598 59.9833 862.598 59.8526" fill="white"/>
</mask>
<g mask="url(#mask0)">
</g>
<rect x="0.303551" y="0.303551" width="17.606" height="17.606" rx="8.80298" transform="matrix(0 1 1 0 831.028 47.0125)" fill="white" stroke="#F2F2F2" stroke-width="0.607102"/>
<mask id="mask1" mask-type="alpha" maskUnits="userSpaceOnUse" x="837" y="51" width="5" height="10">
<path fill-rule="evenodd" clip-rule="evenodd" d="M841.956 59.8526C841.956 59.7191 841.907 59.586 841.808 59.4852L838.516 56.119L841.808 52.7525C842.004 52.553 842.006 52.2259 841.813 52.0229C841.621 51.82 841.306 51.8176 841.11 52.0178L837.099 56.119L841.11 60.22C841.306 60.4201 841.621 60.4177 841.813 60.2148C841.909 60.1144 841.956 59.9833 841.956 59.8526" fill="white"/>
</mask>
<g mask="url(#mask1)">
<rect width="14.5704" height="14.5704" transform="matrix(0 1 1 0 832.243 48.8337)" fill="#C2C4CC"/>
</g>
<rect x="706.573" y="48.834" width="89.244" height="14.5704" fill="#E6E6E6"/>
<rect x="707.18" y="92.5452" width="57.0676" height="7.28522" fill="#F3F3F5"/>
<rect x="812.208" y="92.5452" width="57.0676" height="7.28522" fill="#F3F3F5"/>
<rect x="707.18" y="84.0459" width="16.3917" height="4.85681" fill="#F3F3F5"/>
<rect x="812.208" y="84.0459" width="16.3917" height="4.85681" fill="#F3F3F5"/>
<rect x="787.924" y="81.6174" width="0.607102" height="21.2486" fill="white"/>
</g>
<rect x="829.207" y="157.505" width="43.1042" height="15.7846" rx="7.89232" fill="#E6E6E6"/>
<rect x="704.83" y="194.333" width="167.56" height="16.0629" rx="8.03145" fill="#E6E6E6"/>
<rect x="704.83" y="212.722" width="167.56" height="16.0629" rx="8.03145" fill="#E6E6E6"/>
<rect x="704.83" y="176.028" width="167.56" height="16.0629" rx="8.03145" fill="#E6E6E6"/>
<rect x="704.83" y="230.503" width="42.4971" height="16.0629" rx="8.03145" fill="#E6E6E6"/>
<rect x="731.97" y="230.699" width="15.7846" height="15.7846" rx="7.89232" fill="#D6219C"/>
<rect x="829.207" y="157.505" width="15.7846" height="15.7846" rx="7.89232" fill="#9941FF"/>
<path d="M872.613 131.704L704.144 131.403" stroke="#E6E6E6" stroke-width="0.303551"/>
<rect x="834.064" y="162.362" width="6.07102" height="6.07102" fill="white"/>
<rect x="809.78" y="162.362" width="6.07102" height="6.07102" fill="#C2C4CC"/>
<rect x="785.496" y="162.362" width="6.07102" height="6.07102" fill="#C2C4CC"/>
<rect x="858.348" y="162.362" width="6.07102" height="6.07102" fill="#757575"/>
<rect x="858.348" y="181.182" width="6.07102" height="6.07102" fill="#757575"/>
<rect x="834.064" y="181.182" width="6.07102" height="6.07102" fill="#757575"/>
<rect x="809.78" y="181.182" width="6.07102" height="6.07102" fill="#757575"/>
<rect x="785.496" y="181.182" width="6.07102" height="6.07102" fill="#757575"/>
<rect x="858.348" y="199.395" width="6.07102" height="6.07102" fill="#757575"/>
<rect x="834.064" y="199.395" width="6.07102" height="6.07102" fill="#757575"/>
<rect x="809.78" y="199.395" width="6.07102" height="6.07102" fill="#757575"/>
<rect x="785.496" y="199.395" width="6.07102" height="6.07102" fill="#757575"/>
<rect x="858.348" y="217.608" width="6.07102" height="6.07102" fill="#757575"/>
<rect x="834.064" y="217.608" width="6.07102" height="6.07102" fill="#757575"/>
<rect x="809.78" y="217.608" width="6.07102" height="6.07102" fill="#757575"/>
<rect x="785.496" y="217.608" width="6.07102" height="6.07102" fill="#757575"/>
<rect x="834.064" y="144.149" width="6.07102" height="6.07102" fill="#C2C4CC"/>
<rect x="809.78" y="144.149" width="6.07102" height="6.07102" fill="#E6E6E6"/>
<rect x="785.496" y="144.149" width="6.07102" height="6.07102" fill="#E6E6E6"/>
<rect x="712.644" y="162.362" width="6.07102" height="6.07102" fill="#C2C4CC"/>
<rect x="712.644" y="181.182" width="6.07102" height="6.07102" fill="#757575"/>
<rect x="712.644" y="199.395" width="6.07102" height="6.07102" fill="#757575"/>
<rect x="712.644" y="217.608" width="6.07102" height="6.07102" fill="#757575"/>
<rect x="712.644" y="235.821" width="6.07102" height="6.07102" fill="#757575"/>
<rect x="712.644" y="144.149" width="6.07102" height="6.07102" fill="#E6E6E6"/>
<rect x="736.928" y="162.362" width="6.07102" height="6.07102" fill="#C2C4CC"/>
<rect x="736.928" y="181.182" width="6.07102" height="6.07102" fill="#757575"/>
<rect x="736.928" y="199.395" width="6.07102" height="6.07102" fill="#757575"/>
<rect x="736.928" y="217.608" width="6.07102" height="6.07102" fill="#757575"/>
<rect x="736.928" y="235.821" width="6.07102" height="6.07102" fill="white"/>
<rect x="736.928" y="144.149" width="6.07102" height="6.07102" fill="#E6E6E6"/>
<rect x="761.212" y="162.362" width="6.07096" height="6.07103" fill="#C2C4CC"/>
<rect x="761.212" y="181.182" width="6.07096" height="6.07103" fill="#757575"/>
<rect x="761.212" y="199.395" width="6.07096" height="6.07103" fill="#757575"/>
<rect x="761.212" y="217.608" width="6.07096" height="6.07101" fill="#757575"/>
<rect x="761.212" y="144.149" width="6.07096" height="6.07102" fill="#E6E6E6"/>
<rect x="858.348" y="144.149" width="6.07102" height="6.07102" fill="#C2C4CC"/>
<rect x="831.028" y="119.258" width="12.142" height="7.28522" fill="#757575"/>
<rect x="806.744" y="119.258" width="12.142" height="7.28522" fill="#757575"/>
<rect x="782.46" y="119.258" width="12.142" height="7.28522" fill="#757575"/>
<rect x="709.608" y="119.258" width="12.142" height="7.28522" fill="#757575"/>
<rect x="733.892" y="119.258" width="12.142" height="7.28522" fill="#757575"/>
<rect x="758.176" y="119.258" width="12.142" height="7.28522" fill="#757575"/>
<rect x="855.312" y="119.258" width="12.142" height="7.28522" fill="#757575"/>
<rect x="852.884" y="254.642" width="21.2486" height="6.67812" fill="#E6E6E6"/>
<g clip-path="url(#clip29)">
<rect x="631.361" y="164.206" width="13.9977" height="8.0756" fill="#C2C4CC"/>
</g>
<rect x="631.361" y="177.665" width="13.9977" height="1.61512" fill="#9941FF"/>
<g clip-path="url(#clip30)">
<rect x="647.512" y="194.355" width="12.921" height="8.0756" fill="#C2C4CC"/>
</g>
<rect x="631.361" y="208.891" width="29.0722" height="1.61512" fill="#9941FF"/>
<path fill-rule="evenodd" clip-rule="evenodd" d="M639.365 202.278H631.971C631.901 202.278 631.841 202.219 631.841 202.148V199.804H633.999L634.084 200.243C634.147 200.528 634.396 200.727 634.688 200.727H636.666C636.959 200.727 637.207 200.528 637.272 200.237L637.355 199.804H639.494V202.148C639.494 202.219 639.435 202.278 639.365 202.278V202.278ZM638.185 196.626C638.055 196.463 637.872 196.37 637.682 196.37H637.146C637.014 196.37 636.906 196.477 636.906 196.61C636.906 196.743 637.014 196.85 637.146 196.85H637.682C637.741 196.85 637.79 196.903 637.793 196.903V196.903L639.301 199.324H637.313C637.102 199.324 636.933 199.461 636.892 199.666L636.801 200.139C636.789 200.192 636.742 200.247 636.666 200.247H634.688C634.612 200.247 634.565 200.192 634.554 200.146L634.461 199.664C634.42 199.46 634.251 199.324 634.041 199.324H632.034L633.538 196.909C633.566 196.868 633.6 196.85 633.653 196.85H634.189C634.322 196.85 634.429 196.743 634.429 196.61C634.429 196.477 634.322 196.37 634.189 196.37H633.653C633.439 196.37 633.256 196.467 633.134 196.649L631.361 199.496V202.148C631.361 202.485 631.634 202.758 631.971 202.758H639.365C639.701 202.758 639.975 202.485 639.975 202.148V199.496L638.185 196.626ZM635.497 198.81L635.498 198.811L635.668 198.98L635.837 198.811L635.838 198.81L636.577 198.072C636.671 197.979 636.671 197.826 636.577 197.733C636.483 197.639 636.331 197.639 636.237 197.733L635.908 198.061V195.133C635.908 195.001 635.801 194.893 635.668 194.893C635.535 194.893 635.427 195.001 635.427 195.133V198.061L635.098 197.733C635.005 197.639 634.852 197.639 634.758 197.733C634.664 197.826 634.664 197.979 634.758 198.072L635.497 198.81Z" fill="#757575"/>
<rect x="631.361" y="146.44" width="10.7675" height="1.61512" fill="#9941FF"/>
<path fill-rule="evenodd" clip-rule="evenodd" d="M640.441 139.827H633.047C632.978 139.827 632.918 139.768 632.918 139.697V137.353H635.076L635.161 137.792C635.224 138.077 635.472 138.276 635.765 138.276H637.743C638.035 138.276 638.284 138.077 638.349 137.786L638.431 137.353H640.571V139.697C640.571 139.768 640.511 139.827 640.441 139.827V139.827ZM639.262 134.175C639.132 134.012 638.949 133.919 638.759 133.919H638.223C638.091 133.919 637.983 134.027 637.983 134.159C637.983 134.292 638.091 134.399 638.223 134.399H638.759C638.818 134.399 638.867 134.452 638.87 134.452V134.452L640.378 136.873H638.39C638.179 136.873 638.01 137.01 637.969 137.215L637.878 137.688C637.866 137.741 637.819 137.796 637.743 137.796H635.765C635.689 137.796 635.642 137.741 635.631 137.695L635.538 137.213C635.497 137.009 635.328 136.873 635.118 136.873H633.111L634.615 134.458C634.643 134.417 634.677 134.399 634.73 134.399H635.266C635.398 134.399 635.506 134.292 635.506 134.159C635.506 134.027 635.398 133.919 635.266 133.919H634.73C634.516 133.919 634.333 134.016 634.211 134.198L632.438 137.045V139.697C632.438 140.034 632.711 140.307 633.048 140.307H640.441C640.778 140.307 641.051 140.034 641.051 139.697V137.045L639.262 134.175ZM636.574 136.359L636.575 136.36L636.745 136.529L636.914 136.36L636.915 136.359L637.654 135.621C637.748 135.528 637.748 135.375 637.654 135.282C637.56 135.188 637.408 135.188 637.314 135.282L636.985 135.61V132.682C636.985 132.55 636.877 132.442 636.745 132.442C636.612 132.442 636.504 132.55 636.504 132.682V135.61L636.175 135.282C636.081 135.188 635.929 135.188 635.835 135.282C635.741 135.375 635.741 135.528 635.835 135.621L636.574 136.359Z" fill="#757575"/>
<path d="M677.93 89.3721C677.93 92.7915 675.158 95.5634 671.739 95.5634C668.319 95.5634 665.547 92.7915 665.547 89.3721C665.547 85.9527 668.319 83.1808 671.739 83.1808C675.158 83.1808 677.93 85.9527 677.93 89.3721Z" fill="white" stroke="#999999" stroke-width="0.538373"/>
<path d="M677.93 109.83C677.93 113.25 675.158 116.022 671.739 116.022C668.319 116.022 665.547 113.25 665.547 109.83C665.547 106.411 668.319 103.639 671.739 103.639C675.158 103.639 677.93 106.411 677.93 109.83Z" fill="white" stroke="#B3B3B3" stroke-width="0.538373"/>
<path d="M677.93 130.289C677.93 133.708 675.158 136.48 671.739 136.48C668.319 136.48 665.547 133.708 665.547 130.289C665.547 126.869 668.319 124.097 671.739 124.097C675.158 124.097 677.93 126.869 677.93 130.289Z" fill="white" stroke="black" stroke-width="0.538373"/>
<path d="M677.93 48.4558C677.93 51.8752 675.158 54.6471 671.739 54.6471C668.319 54.6471 665.547 51.8752 665.547 48.4558C665.547 45.0365 668.319 42.2645 671.739 42.2645C675.158 42.2645 677.93 45.0365 677.93 48.4558Z" fill="#F2F2F2" stroke="#B3B3B3" stroke-width="0.538373"/>
<path d="M677.93 68.9138C677.93 72.3332 675.158 75.1051 671.739 75.1051C668.319 75.1051 665.547 72.3332 665.547 68.9138C665.547 65.4945 668.319 62.7226 671.739 62.7226C675.158 62.7226 677.93 65.4945 677.93 68.9138Z" fill="white" stroke="black" stroke-width="0.538373"/>
<path fill-rule="evenodd" clip-rule="evenodd" d="M671.739 72.1441C673.523 72.1441 674.969 70.6978 674.969 68.9138C674.969 67.1298 673.523 65.6836 671.739 65.6836C669.955 65.6836 668.508 67.1298 668.508 68.9138C668.508 70.6978 669.955 72.1441 671.739 72.1441Z" fill="black"/>
<path d="M677.93 150.747C677.93 154.166 675.158 156.938 671.739 156.938C668.319 156.938 665.547 154.166 665.547 150.747C665.547 147.327 668.319 144.555 671.739 144.555C675.158 144.555 677.93 147.327 677.93 150.747Z" fill="white" stroke="#E61D1D" stroke-width="0.538373"/>
<rect x="914.007" y="132.442" width="65.6815" height="6.99885" fill="#C2C4CC"/>
<rect x="914.007" y="150.208" width="65.6815" height="6.99885" fill="#C2C4CC"/>
<rect x="914.007" y="166.898" width="65.6815" height="6.99885" fill="#C2C4CC"/>
<rect x="930.158" y="234.733" width="65.6815" height="6.99885" fill="#C2C4CC"/>
<path fill-rule="evenodd" clip-rule="evenodd" d="M914.007 190.048C914.007 188.561 915.212 187.356 916.698 187.356H960.307C961.793 187.356 962.999 188.561 962.999 190.048V200.816C962.999 202.302 961.793 203.507 960.307 203.507H916.698C915.212 203.507 914.007 202.302 914.007 200.816V190.048Z" fill="#65BAFF"/>
<rect opacity="0.7" x="920.467" y="192.202" width="36.071" height="6.46048" fill="white"/>
<rect x="910.776" y="231.503" width="12.921" height="12.921" rx="1.61512" fill="#757575"/>
<g clip-path="url(#clip31)">
<path d="M920.629 234.894L915.622 239.901L913.845 238.125C913.63 237.909 913.307 237.909 913.091 238.125C912.876 238.34 912.876 238.663 913.091 238.878L915.245 241.032C915.353 241.14 915.46 241.193 915.622 241.193C915.783 241.193 915.891 241.14 915.999 241.032L921.382 235.648C921.598 235.433 921.598 235.11 921.382 234.894C921.167 234.679 920.844 234.679 920.629 234.894Z" fill="white"/>
</g>
</g>
<g filter="url(#filter14_f)">
<rect x="280.995" y="146.151" width="482.249" height="219.33" rx="77.5017" fill="white"/>
</g>
<path d="M483.227 249.955C481.849 249.955 480.709 249.741 479.806 249.314C478.951 248.886 478.238 248.268 477.668 247.461L446.308 203.13C445.928 202.512 445.738 201.966 445.738 201.49C445.738 200.968 445.904 200.493 446.237 200.065C446.57 199.59 446.997 199.186 447.52 198.853C448.09 198.473 448.684 198.188 449.302 197.998C449.967 197.808 450.608 197.713 451.226 197.713C451.844 197.713 452.461 197.832 453.079 198.069C453.744 198.307 454.267 198.687 454.647 199.21L483.441 240.619L511.95 199.21C512.567 198.212 513.613 197.713 515.086 197.713C515.703 197.713 516.321 197.808 516.939 197.998C517.556 198.188 518.127 198.473 518.649 198.853C519.172 199.186 519.599 199.59 519.932 200.065C520.265 200.493 520.431 200.991 520.431 201.562C520.431 202.132 520.241 202.654 519.861 203.13L488.858 247.461C488.287 248.268 487.551 248.886 486.648 249.314C485.745 249.741 484.605 249.955 483.227 249.955ZM535.56 246.605C535.56 247.983 535.156 248.886 534.348 249.314C533.54 249.741 532.352 249.955 530.784 249.955C529.264 249.955 528.1 249.741 527.292 249.314C526.484 248.886 526.08 247.983 526.08 246.605V201.063C526.08 199.685 526.484 198.782 527.292 198.354C528.1 197.927 529.264 197.713 530.784 197.713C532.352 197.713 533.54 197.927 534.348 198.354C535.156 198.782 535.56 199.685 535.56 201.063V246.605ZM578.648 249.955C577.27 249.955 576.13 249.741 575.227 249.314C574.372 248.886 573.659 248.268 573.089 247.461L541.729 203.13C541.349 202.512 541.159 201.966 541.159 201.49C541.159 200.968 541.325 200.493 541.658 200.065C541.99 199.59 542.418 199.186 542.941 198.853C543.511 198.473 544.105 198.188 544.722 197.998C545.388 197.808 546.029 197.713 546.647 197.713C547.264 197.713 547.882 197.832 548.5 198.069C549.165 198.307 549.688 198.687 550.068 199.21L578.862 240.619L607.37 199.21C607.988 198.212 609.033 197.713 610.506 197.713C611.124 197.713 611.742 197.808 612.359 197.998C612.977 198.188 613.547 198.473 614.07 198.853C614.593 199.186 615.02 199.59 615.353 200.065C615.685 200.493 615.852 200.991 615.852 201.562C615.852 202.132 615.662 202.654 615.282 203.13L584.278 247.461C583.708 248.268 582.972 248.886 582.069 249.314C581.166 249.741 580.026 249.955 578.648 249.955ZM630.98 246.605C630.98 247.983 630.576 248.886 629.769 249.314C628.961 249.741 627.773 249.955 626.205 249.955C624.685 249.955 623.521 249.741 622.713 249.314C621.905 248.886 621.501 247.983 621.501 246.605V201.063C621.501 199.685 621.905 198.782 622.713 198.354C623.521 197.927 624.685 197.713 626.205 197.713C627.773 197.713 628.961 197.927 629.769 198.354C630.576 198.782 630.98 199.685 630.98 201.063V246.605ZM703.86 236.414C703.86 245.251 696.828 249.67 682.764 249.67H642.353C640.167 249.67 639.074 248.554 639.074 246.32V201.277C639.074 199.091 640.167 197.998 642.353 197.998H682.764C696.828 197.998 703.86 202.417 703.86 211.255V236.414ZM648.553 241.973H682.479C686.66 241.973 689.701 241.426 691.602 240.334C693.55 239.241 694.524 237.934 694.524 236.414V211.255C694.524 209.687 693.55 208.38 691.602 207.335C689.701 206.242 686.66 205.695 682.479 205.695H648.553V241.973Z" fill="#131415"/>
<path d="M401.426 252.698H353.042C347.738 252.698 341.841 248.397 339.874 243.093L319.691 189.166C317.724 183.862 320.427 179.561 325.734 179.561H374.115C379.419 179.561 385.316 183.862 387.283 189.166L407.467 243.093C409.436 248.397 406.732 252.698 401.426 252.698Z" fill="url(#paint4_linear)"/>
<path d="M424.052 193.832H374.412C369.455 193.832 363.944 197.851 362.105 202.808L346.927 243.72C345.088 248.677 347.615 252.696 352.574 252.696H402.215C407.172 252.696 412.683 248.677 414.522 243.72L429.699 202.808C431.538 197.851 429.009 193.832 424.052 193.832Z" fill="url(#paint5_linear)"/>
<path fill-rule="evenodd" clip-rule="evenodd" d="M352.726 252.697H401.488C401.788 252.691 402.08 252.671 402.362 252.638C402.379 252.639 402.397 252.64 402.415 252.64C405.257 252.64 408.247 251.118 409.621 250.001C411.62 248.377 412.805 247.218 414.087 244.825C411.79 248.842 409.412 248.639 407.693 243.912C407.618 243.705 407.535 243.533 407.445 243.394C407.411 243.294 407.375 243.194 407.338 243.093L389.465 194.912C389.33 194.547 389.176 194.187 389.005 193.833H374.412C369.455 193.833 363.944 197.852 362.104 202.809L346.927 243.721C346.855 243.915 346.789 244.109 346.73 244.3C344.997 248.607 342.924 248.66 340.643 244.713C341.967 247.158 343.19 248.342 345.253 250.001C346.672 251.142 349.759 252.698 352.693 252.698C352.704 252.698 352.715 252.697 352.726 252.697Z" fill="url(#paint6_linear)"/>
<g style="mix-blend-mode:hard-light" opacity="0.4">
<path fill-rule="evenodd" clip-rule="evenodd" d="M353.042 252.698H401.426C401.711 252.698 401.988 252.686 402.257 252.662C402.293 252.671 402.332 252.675 402.374 252.675C405.216 252.675 408.206 251.153 409.58 250.036C411.578 248.412 412.764 247.253 414.045 244.86C411.863 248.677 409.607 248.683 407.913 244.619C407.808 244.122 407.66 243.612 407.467 243.093L387.283 189.166C385.316 183.862 379.419 179.561 374.115 179.561H325.734C320.427 179.561 317.724 183.862 319.691 189.166L339.874 243.093C341.841 248.397 347.738 252.698 353.042 252.698Z" fill="url(#paint7_linear)"/>
</g>
<g style="mix-blend-mode:hard-light" opacity="0.15">
<path fill-rule="evenodd" clip-rule="evenodd" d="M374.474 193.893H424.114C429.071 193.893 431.601 197.912 429.762 202.869L414.584 243.781C412.745 248.738 407.234 252.757 402.277 252.757H352.795C352.782 252.758 352.769 252.758 352.755 252.758C352.703 252.758 352.651 252.758 352.599 252.757C351.927 252.754 351.301 252.677 350.724 252.534C348.487 252.063 346.407 250.94 345.316 250.062C343.252 248.403 342.029 247.218 340.706 244.774C342.986 248.72 345.059 248.667 346.793 244.361C346.852 244.169 346.917 243.976 346.99 243.781L362.167 202.869C364.006 197.912 369.517 193.893 374.474 193.893Z" fill="url(#paint8_linear)"/>
</g>
<path d="M424.164 193.893H374.523C369.566 193.893 364.055 197.912 362.216 202.869L347.039 243.781C345.2 248.738 347.727 252.757 352.686 252.757H402.326C407.283 252.757 412.794 248.738 414.633 243.781L429.811 202.869C431.65 197.912 429.12 193.893 424.164 193.893Z" fill="url(#paint9_linear)" fill-opacity="0.2"/>
<path d="M380.906 295.749L375.016 282.454H368.865L377.683 302.647C377.724 302.738 377.841 302.738 377.882 302.647L380.906 295.749Z" fill="#131415"/>
<path d="M393.742 282.454C393.742 282.454 385.767 300.757 384.766 302.996C382.38 308.353 380.611 309.692 378.814 309.978C378.801 309.978 378.787 309.992 378.787 310.013C378.787 310.034 378.801 310.048 378.821 310.048H384.451C386.933 310.048 388.627 308.353 391.013 302.996C391.849 301.127 399.996 282.454 399.996 282.454H393.742Z" fill="#131415"/>
<path d="M432.47 289.353C428.493 289.353 425.936 291.975 425.936 296.251C425.936 300.527 428.493 303.15 432.47 303.15C436.441 303.15 439.005 300.527 439.005 296.251C439.012 291.975 436.441 289.353 432.47 289.353ZM432.47 300.973C429.926 300.973 428.267 299.292 428.267 296.258C428.267 293.224 429.933 291.543 432.47 291.543C435.001 291.543 436.674 293.224 436.674 296.258C436.674 299.285 435.007 300.973 432.47 300.973Z" fill="#131415"/>
<path d="M452.506 289.659V302.849H449.812L443.4 293.182V302.849H441.103V289.659H443.805L450.216 299.39V289.659H452.506Z" fill="#131415"/>
<path d="M492.215 291.863V289.659H482.89V302.849H492.215V300.638H485.187V297.171H491.667V294.967H485.187V291.863H492.215Z" fill="#131415"/>
<path d="M423.049 289.659L418.4 300.038C418.372 300.094 418.304 300.094 418.276 300.038L413.627 289.659H411.008C411.008 289.659 415.554 299.857 415.911 300.652C416.631 302.263 417.22 303.003 418.345 303.003C419.469 303.003 420.066 302.263 420.779 300.652C421.129 299.857 425.682 289.659 425.682 289.659H423.049Z" fill="#131415"/>
<path d="M463.197 291.871C462.504 290.252 461.983 289.52 460.9 289.52C459.816 289.52 459.302 290.252 458.602 291.871C458.266 292.659 453.912 302.863 453.912 302.863H456.333L457.677 299.669H464.129L465.473 302.863H467.894C467.894 302.857 463.533 292.659 463.197 291.871ZM458.609 297.451L460.845 292.115C460.865 292.059 460.948 292.059 460.968 292.115L463.203 297.451H458.609Z" fill="#131415"/>
<path d="M474.243 295.693V297.695H478.131C477.96 299.466 476.293 300.952 474.319 300.952C471.987 300.952 470.294 299.215 470.294 296.356C470.294 293.377 471.857 291.543 474.531 291.543C476.122 291.543 477.439 292.317 477.871 293.663H480.25C479.736 290.964 477.377 289.366 474.531 289.366C470.472 289.366 467.962 292.073 467.962 296.411C467.962 300.624 470.705 303.163 474.127 303.163C477.061 303.163 478.179 301.426 478.488 300.868V302.856H480.524V295.693H474.243Z" fill="#131415"/>
<path d="M506.149 284.386H505.813V305.737H506.149V284.386Z" fill="#131415"/>
<path d="M520.123 289.038V301.519H524.979C528.8 301.519 531.142 299.074 531.142 295.235C531.142 291.353 528.731 289.038 525.023 289.038H520.123ZM521.907 290.735H524.727C528.06 290.735 529.323 292.702 529.323 295.27C529.323 297.829 528.06 299.822 524.727 299.822H521.907V290.735ZM541.464 296.262C541.464 293.668 539.775 292.102 537.199 292.102C534.388 292.102 532.525 293.964 532.525 296.941C532.525 299.761 534.196 301.659 537.138 301.659C539.157 301.659 540.463 300.753 541.316 299.509L539.958 298.708C539.462 299.474 538.644 300.127 537.225 300.127C535.371 300.127 534.336 298.995 534.24 297.489H541.464V296.262ZM537.182 293.634C538.74 293.634 539.688 294.426 539.741 296.053H534.249C534.466 294.6 535.458 293.634 537.182 293.634ZM550.916 294.539C550.402 293.103 549.01 292.102 546.738 292.102C544.397 292.102 542.874 293.155 542.874 294.957C542.874 297.037 544.928 297.298 546.729 297.524C548.139 297.698 549.393 297.855 549.393 298.839C549.393 299.674 548.479 300.214 547.182 300.214C545.903 300.214 544.701 299.691 544.258 298.456L542.682 299.047C543.326 300.762 545.067 301.659 547.112 301.659C549.436 301.659 551.107 300.484 551.107 298.621C551.107 296.541 549.018 296.323 547.225 296.114C545.815 295.949 544.571 295.801 544.571 294.817C544.571 294.051 545.328 293.555 546.66 293.555C548.078 293.555 549.01 294.121 549.393 295.113L550.916 294.539ZM554.771 288.742H552.804V290.744H554.771V288.742ZM554.649 292.276H552.926V301.519H554.649V292.276ZM565.773 292.276H564.058V293.79C563.44 292.633 562.369 292.102 560.855 292.102C557.826 292.102 556.468 294.252 556.468 296.532C556.468 298.821 557.835 300.988 560.837 300.988C562.361 300.988 563.44 300.423 564.058 299.248V301.014C564.058 302.416 563.013 303.356 561.177 303.356C559.671 303.356 558.635 302.712 558.226 301.519L556.599 302.033C557.13 303.73 558.775 304.888 561.168 304.888C564.032 304.888 565.773 303.217 565.773 300.962V292.276ZM561.133 293.642C562.935 293.642 564.058 294.835 564.058 296.532C564.058 298.229 562.935 299.448 561.133 299.448C559.34 299.448 558.192 298.238 558.192 296.532C558.192 294.835 559.332 293.642 561.133 293.642ZM568.122 292.276V301.519H569.846V296.515C569.846 294.983 570.838 293.695 572.657 293.695C574.154 293.695 574.92 294.574 574.92 296.123V301.519H576.635V295.453C576.635 293.399 575.338 292.102 573.066 292.102C571.256 292.102 570.35 292.929 569.846 293.834V292.276H568.122ZM592.083 292.345C591.726 290.178 590.003 288.76 587.131 288.76C584.467 288.76 582.396 289.969 582.396 292.485C582.396 295.218 584.841 295.627 587.052 296.001C588.889 296.314 590.56 296.602 590.56 298.151C590.56 299.43 589.42 300.205 587.644 300.205C585.677 300.205 584.232 299.256 583.928 297.437L582.117 297.759C582.526 300.275 584.737 301.807 587.574 301.807C590.334 301.807 592.362 300.353 592.362 297.881C592.362 295.157 589.898 294.783 587.696 294.434C585.895 294.147 584.197 293.877 584.197 292.302C584.197 290.996 585.355 290.361 587.017 290.361C588.932 290.361 590.072 291.205 590.351 292.72L592.083 292.345ZM600.969 292.276L598.132 299.691L595.207 292.276H593.319L597.244 301.554C596.835 302.59 596.217 303.173 595.12 303.173C594.711 303.173 594.311 303.103 593.876 302.99L593.58 304.452C594.172 304.618 594.763 304.714 595.32 304.714C596.878 304.714 598.106 303.939 598.75 302.346L602.823 292.276H600.969ZM611.57 294.539C611.057 293.103 609.664 292.102 607.392 292.102C605.051 292.102 603.528 293.155 603.528 294.957C603.528 297.037 605.582 297.298 607.384 297.524C608.794 297.698 610.047 297.855 610.047 298.839C610.047 299.674 609.133 300.214 607.836 300.214C606.557 300.214 605.356 299.691 604.912 298.456L603.336 299.047C603.98 300.762 605.721 301.659 607.766 301.659C610.09 301.659 611.762 300.484 611.762 298.621C611.762 296.541 609.673 296.323 607.88 296.114C606.47 295.949 605.225 295.801 605.225 294.817C605.225 294.051 605.982 293.555 607.314 293.555C608.733 293.555 609.664 294.121 610.047 295.113L611.57 294.539ZM618.785 292.276H616.104V289.482L614.381 289.952V292.276H612.457V293.851H614.381V298.96C614.381 300.614 615.069 301.659 617.192 301.659C617.784 301.659 618.42 301.572 619.064 301.415L618.898 299.979C618.463 300.074 618.054 300.127 617.697 300.127C616.104 300.127 616.104 299.108 616.104 298.647V293.851H618.785V292.276ZM628.846 296.262C628.846 293.668 627.158 292.102 624.581 292.102C621.77 292.102 619.908 293.964 619.908 296.941C619.908 299.761 621.579 301.659 624.521 301.659C626.54 301.659 627.845 300.753 628.698 299.509L627.341 298.708C626.844 299.474 626.026 300.127 624.608 300.127C622.754 300.127 621.718 298.995 621.622 297.489H628.846V296.262ZM624.564 293.634C626.122 293.634 627.071 294.426 627.123 296.053H621.631C621.848 294.6 622.841 293.634 624.564 293.634ZM630.674 292.276V301.519H632.397V296.384C632.397 294.904 633.32 293.695 634.947 293.695C636.314 293.695 637.019 294.548 637.019 296.045V301.519H638.742V296.384C638.742 294.896 639.656 293.695 641.275 293.695C642.65 293.695 643.373 294.539 643.373 296.045V301.519H645.087V295.322C645.087 293.373 643.886 292.102 641.71 292.102C639.787 292.102 638.786 293.094 638.298 294.191C637.863 292.868 637.001 292.102 635.417 292.102C633.746 292.102 632.867 292.92 632.397 293.799V292.276H630.674ZM660.022 301.519V299.874H652.763C653.103 299.074 654.078 298.377 654.791 297.899L656.636 296.671C658.168 295.653 659.735 294.652 659.735 292.476C659.735 290.396 658.316 289.029 655.74 289.029C652.728 289.029 650.927 290.875 650.892 293.416L652.659 293.555C652.676 291.806 653.79 290.657 655.618 290.657C657.072 290.657 657.951 291.397 657.951 292.511C657.951 293.912 656.567 294.8 655.67 295.383L653.956 296.497C652.041 297.742 650.657 299.256 650.657 300.91V301.519H660.022ZM664.339 299.256H662.102V301.519H664.339V299.256ZM670.988 289.029C667.837 289.029 666.079 291.197 666.079 295.078V295.609C666.079 299.491 667.837 301.659 670.988 301.659C674.148 301.659 675.906 299.491 675.906 295.609V295.078C675.906 291.197 674.148 289.029 670.988 289.029ZM670.988 290.657C673.086 290.657 674.122 292.137 674.122 295.078V295.609C674.122 298.56 673.086 300.031 670.988 300.031C668.899 300.031 667.864 298.56 667.864 295.609V295.078C667.864 292.137 668.899 290.657 670.988 290.657Z" fill="#131415"/>
</g>
</g>
<defs>
<filter id="filter0_ddd" x="0" y="0" width="1056" height="474.811" filterUnits="userSpaceOnUse" color-interpolation-filters="sRGB">
<feFlood flood-opacity="0" result="BackgroundImageFix"/>
<feColorMatrix in="SourceAlpha" type="matrix" values="0 0 0 0 0 0 0 0 0 0 0 0 0 0 0 0 0 0 127 0"/>
<feOffset dy="2"/>
<feGaussianBlur stdDeviation="8"/>
<feColorMatrix type="matrix" values="0 0 0 0 0.0745098 0 0 0 0 0.0784314 0 0 0 0 0.0823529 0 0 0 0.1 0"/>
<feBlend mode="normal" in2="BackgroundImageFix" result="effect1_dropShadow"/>
<feColorMatrix in="SourceAlpha" type="matrix" values="0 0 0 0 0 0 0 0 0 0 0 0 0 0 0 0 0 0 127 0"/>
<feOffset dy="8"/>
<feGaussianBlur stdDeviation="4"/>
<feColorMatrix type="matrix" values="0 0 0 0 0.0745098 0 0 0 0 0.0784314 0 0 0 0 0.0823529 0 0 0 0.05 0"/>
<feBlend mode="normal" in2="effect1_dropShadow" result="effect2_dropShadow"/>
<feColorMatrix in="SourceAlpha" type="matrix" values="0 0 0 0 0 0 0 0 0 0 0 0 0 0 0 0 0 0 127 0"/>
<feOffset dy="4"/>
<feGaussianBlur stdDeviation="2"/>
<feColorMatrix type="matrix" values="0 0 0 0 0.0745098 0 0 0 0 0.0784314 0 0 0 0 0.0823529 0 0 0 0.05 0"/>
<feBlend mode="normal" in2="effect2_dropShadow" result="effect3_dropShadow"/>
<feBlend mode="normal" in="SourceGraphic" in2="effect3_dropShadow" result="shape"/>
</filter>
<filter id="filter1_d" x="67.1455" y="287.494" width="133.517" height="85.063" filterUnits="userSpaceOnUse" color-interpolation-filters="sRGB">
<feFlood flood-opacity="0" result="BackgroundImageFix"/>
<feColorMatrix in="SourceAlpha" type="matrix" values="0 0 0 0 0 0 0 0 0 0 0 0 0 0 0 0 0 0 127 0"/>
<feOffset dy="1.07675"/>
<feGaussianBlur stdDeviation="1.07675"/>
<feColorMatrix type="matrix" values="0 0 0 0 0 0 0 0 0 0 0 0 0 0 0 0 0 0 0.1 0"/>
<feBlend mode="normal" in2="BackgroundImageFix" result="effect1_dropShadow"/>
<feBlend mode="normal" in="SourceGraphic" in2="effect1_dropShadow" result="shape"/>
</filter>
<filter id="filter2_d" x="73.6059" y="155.054" width="235.808" height="127.594" filterUnits="userSpaceOnUse" color-interpolation-filters="sRGB">
<feFlood flood-opacity="0" result="BackgroundImageFix"/>
<feColorMatrix in="SourceAlpha" type="matrix" values="0 0 0 0 0 0 0 0 0 0 0 0 0 0 0 0 0 0 127 0"/>
<feOffset dy="2.15349"/>
<feGaussianBlur stdDeviation="5.38373"/>
<feColorMatrix type="matrix" values="0 0 0 0 0.0745098 0 0 0 0 0.0784314 0 0 0 0 0.0823529 0 0 0 0.1 0"/>
<feBlend mode="normal" in2="BackgroundImageFix" result="effect1_dropShadow"/>
<feBlend mode="normal" in="SourceGraphic" in2="effect1_dropShadow" result="shape"/>
</filter>
<filter id="filter3_d" x="303.545" y="21.0258" width="330.454" height="271.873" filterUnits="userSpaceOnUse" color-interpolation-filters="sRGB">
<feFlood flood-opacity="0" result="BackgroundImageFix"/>
<feColorMatrix in="SourceAlpha" type="matrix" values="0 0 0 0 0 0 0 0 0 0 0 0 0 0 0 0 0 0 127 0"/>
<feOffset dy="7.51031"/>
<feGaussianBlur stdDeviation="7.51031"/>
<feColorMatrix type="matrix" values="0 0 0 0 0 0 0 0 0 0 0 0 0 0 0 0 0 0 0.15 0"/>
<feBlend mode="normal" in2="BackgroundImageFix" result="effect1_dropShadow"/>
<feBlend mode="normal" in="SourceGraphic" in2="effect1_dropShadow" result="shape"/>
</filter>
<filter id="filter4_d" x="214.121" y="279.418" width="330.561" height="39.8396" filterUnits="userSpaceOnUse" color-interpolation-filters="sRGB">
<feFlood flood-opacity="0" result="BackgroundImageFix"/>
<feColorMatrix in="SourceAlpha" type="matrix" values="0 0 0 0 0 0 0 0 0 0 0 0 0 0 0 0 0 0 127 0"/>
<feOffset dy="1.07675"/>
<feGaussianBlur stdDeviation="2.69187"/>
<feColorMatrix type="matrix" values="0 0 0 0 0.0745098 0 0 0 0 0.0784314 0 0 0 0 0.0823529 0 0 0 0.1 0"/>
<feBlend mode="normal" in2="BackgroundImageFix" result="effect1_dropShadow"/>
<feBlend mode="normal" in="SourceGraphic" in2="effect1_dropShadow" result="shape"/>
</filter>
<filter id="filter5_d" x="214.121" y="316.027" width="330.561" height="39.8396" filterUnits="userSpaceOnUse" color-interpolation-filters="sRGB">
<feFlood flood-opacity="0" result="BackgroundImageFix"/>
<feColorMatrix in="SourceAlpha" type="matrix" values="0 0 0 0 0 0 0 0 0 0 0 0 0 0 0 0 0 0 127 0"/>
<feOffset dy="1.07675"/>
<feGaussianBlur stdDeviation="2.69187"/>
<feColorMatrix type="matrix" values="0 0 0 0 0.0745098 0 0 0 0 0.0784314 0 0 0 0 0.0823529 0 0 0 0.1 0"/>
<feBlend mode="normal" in2="BackgroundImageFix" result="effect1_dropShadow"/>
<feBlend mode="normal" in="SourceGraphic" in2="effect1_dropShadow" result="shape"/>
</filter>
<filter id="filter6_d" x="214.121" y="352.637" width="330.561" height="39.8396" filterUnits="userSpaceOnUse" color-interpolation-filters="sRGB">
<feFlood flood-opacity="0" result="BackgroundImageFix"/>
<feColorMatrix in="SourceAlpha" type="matrix" values="0 0 0 0 0 0 0 0 0 0 0 0 0 0 0 0 0 0 127 0"/>
<feOffset dy="1.07675"/>
<feGaussianBlur stdDeviation="2.69187"/>
<feColorMatrix type="matrix" values="0 0 0 0 0.0745098 0 0 0 0 0.0784314 0 0 0 0 0.0823529 0 0 0 0.1 0"/>
<feBlend mode="normal" in2="BackgroundImageFix" result="effect1_dropShadow"/>
<feBlend mode="normal" in="SourceGraphic" in2="effect1_dropShadow" result="shape"/>
</filter>
<filter id="filter7_d" x="208.738" y="388.861" width="341.329" height="89.37" filterUnits="userSpaceOnUse" color-interpolation-filters="sRGB">
<feFlood flood-opacity="0" result="BackgroundImageFix"/>
<feColorMatrix in="SourceAlpha" type="matrix" values="0 0 0 0 0 0 0 0 0 0 0 0 0 0 0 0 0 0 127 0"/>
<feOffset dy="2.15349"/>
<feGaussianBlur stdDeviation="5.38373"/>
<feColorMatrix type="matrix" values="0 0 0 0 0.0745098 0 0 0 0 0.0784314 0 0 0 0 0.0823529 0 0 0 0.1 0"/>
<feBlend mode="normal" in2="BackgroundImageFix" result="effect1_dropShadow"/>
<feBlend mode="normal" in="SourceGraphic" in2="effect1_dropShadow" result="shape"/>
</filter>
<filter id="filter8_d" x="26.2291" y="371.943" width="189.507" height="94.7537" filterUnits="userSpaceOnUse" color-interpolation-filters="sRGB">
<feFlood flood-opacity="0" result="BackgroundImageFix"/>
<feColorMatrix in="SourceAlpha" type="matrix" values="0 0 0 0 0 0 0 0 0 0 0 0 0 0 0 0 0 0 127 0"/>
<feOffset dy="2.15349"/>
<feGaussianBlur stdDeviation="5.38373"/>
<feColorMatrix type="matrix" values="0 0 0 0 0.0745098 0 0 0 0 0.0784314 0 0 0 0 0.0823529 0 0 0 0.1 0"/>
<feBlend mode="normal" in2="BackgroundImageFix" result="effect1_dropShadow"/>
<feBlend mode="normal" in="SourceGraphic" in2="effect1_dropShadow" result="shape"/>
</filter>
<filter id="filter9_d" x="561.372" y="286.955" width="333.791" height="199.198" filterUnits="userSpaceOnUse" color-interpolation-filters="sRGB">
<feFlood flood-opacity="0" result="BackgroundImageFix"/>
<feColorMatrix in="SourceAlpha" type="matrix" values="0 0 0 0 0 0 0 0 0 0 0 0 0 0 0 0 0 0 127 0"/>
<feOffset dy="1.07675"/>
<feGaussianBlur stdDeviation="2.69187"/>
<feColorMatrix type="matrix" values="0 0 0 0 0.0745098 0 0 0 0 0.0784314 0 0 0 0 0.0823529 0 0 0 0.1 0"/>
<feBlend mode="normal" in2="BackgroundImageFix" result="effect1_dropShadow"/>
<feBlend mode="normal" in="SourceGraphic" in2="effect1_dropShadow" result="shape"/>
</filter>
<filter id="filter10_d" x="893.548" y="116.829" width="127.056" height="108.213" filterUnits="userSpaceOnUse" color-interpolation-filters="sRGB">
<feFlood flood-opacity="0" result="BackgroundImageFix"/>
<feColorMatrix in="SourceAlpha" type="matrix" values="0 0 0 0 0 0 0 0 0 0 0 0 0 0 0 0 0 0 127 0"/>
<feOffset dy="2.15349"/>
<feGaussianBlur stdDeviation="5.38373"/>
<feColorMatrix type="matrix" values="0 0 0 0 0.0745098 0 0 0 0 0.0784314 0 0 0 0 0.0823529 0 0 0 0.1 0"/>
<feBlend mode="normal" in2="BackgroundImageFix" result="effect1_dropShadow"/>
<feBlend mode="normal" in="SourceGraphic" in2="effect1_dropShadow" result="shape"/>
</filter>
<filter id="filter11_d" x="893.548" y="215.89" width="127.056" height="48.4536" filterUnits="userSpaceOnUse" color-interpolation-filters="sRGB">
<feFlood flood-opacity="0" result="BackgroundImageFix"/>
<feColorMatrix in="SourceAlpha" type="matrix" values="0 0 0 0 0 0 0 0 0 0 0 0 0 0 0 0 0 0 127 0"/>
<feOffset dy="2.15349"/>
<feGaussianBlur stdDeviation="5.38373"/>
<feColorMatrix type="matrix" values="0 0 0 0 0.0745098 0 0 0 0 0.0784314 0 0 0 0 0.0823529 0 0 0 0.1 0"/>
<feBlend mode="normal" in2="BackgroundImageFix" result="effect1_dropShadow"/>
<feBlend mode="normal" in="SourceGraphic" in2="effect1_dropShadow" result="shape"/>
</filter>
<filter id="filter12_d" x="893.548" y="260.037" width="127.056" height="222.887" filterUnits="userSpaceOnUse" color-interpolation-filters="sRGB">
<feFlood flood-opacity="0" result="BackgroundImageFix"/>
<feColorMatrix in="SourceAlpha" type="matrix" values="0 0 0 0 0 0 0 0 0 0 0 0 0 0 0 0 0 0 127 0"/>
<feOffset dy="2.15349"/>
<feGaussianBlur stdDeviation="5.38373"/>
<feColorMatrix type="matrix" values="0 0 0 0 0.0745098 0 0 0 0 0.0784314 0 0 0 0 0.0823529 0 0 0 0.1 0"/>
<feBlend mode="normal" in2="BackgroundImageFix" result="effect1_dropShadow"/>
<feBlend mode="normal" in="SourceGraphic" in2="effect1_dropShadow" result="shape"/>
</filter>
<filter id="filter13_d" x="670.753" y="19.086" width="236.163" height="281.088" filterUnits="userSpaceOnUse" color-interpolation-filters="sRGB">
<feFlood flood-opacity="0" result="BackgroundImageFix"/>
<feColorMatrix in="SourceAlpha" type="matrix" values="0 0 0 0 0 0 0 0 0 0 0 0 0 0 0 0 0 0 127 0"/>
<feOffset dy="6.07102"/>
<feGaussianBlur stdDeviation="9.10653"/>
<feColorMatrix type="matrix" values="0 0 0 0 0.0745098 0 0 0 0 0.0784314 0 0 0 0 0.0823529 0 0 0 0.1 0"/>
<feBlend mode="normal" in2="BackgroundImageFix" result="effect1_dropShadow"/>
<feBlend mode="normal" in="SourceGraphic" in2="effect1_dropShadow" result="shape"/>
</filter>
<filter id="filter14_f" x="234.494" y="99.6504" width="575.251" height="312.332" filterUnits="userSpaceOnUse" color-interpolation-filters="sRGB">
<feFlood flood-opacity="0" result="BackgroundImageFix"/>
<feBlend mode="normal" in="SourceGraphic" in2="BackgroundImageFix" result="shape"/>
<feGaussianBlur stdDeviation="23.2505" result="effect1_foregroundBlur"/>
</filter>
<linearGradient id="paint0_linear" x1="16" y1="270.411" x2="578.995" y2="270.411" gradientUnits="userSpaceOnUse">
<stop stop-color="white"/>
<stop offset="1" stop-color="white" stop-opacity="0"/>
</linearGradient>
<linearGradient id="paint1_linear" x1="889.898" y1="64.343" x2="908.095" y2="116.16" gradientUnits="userSpaceOnUse">
<stop stop-color="#D6219C"/>
<stop offset="1" stop-color="#FFA78C"/>
</linearGradient>
<linearGradient id="paint2_linear" x1="961.609" y1="38.9275" x2="942.014" y2="91.5532" gradientUnits="userSpaceOnUse">
<stop stop-color="#80C7F5"/>
<stop offset="1" stop-color="#FFA78C" stop-opacity="0.01"/>
</linearGradient>
<linearGradient id="paint3_linear" x1="698.664" y1="106.897" x2="880.935" y2="106.897" gradientUnits="userSpaceOnUse">
<stop stop-color="#9B9DA3"/>
<stop offset="1" stop-color="#C2C4CC"/>
</linearGradient>
<linearGradient id="paint4_linear" x1="376.695" y1="179.561" x2="319.049" y2="166.662" gradientUnits="userSpaceOnUse">
<stop stop-color="#A662FF"/>
<stop offset="1" stop-color="#57EDFD"/>
</linearGradient>
<linearGradient id="paint5_linear" x1="393.415" y1="242.621" x2="433.385" y2="195.326" gradientUnits="userSpaceOnUse">
<stop stop-color="#FC27F6"/>
<stop offset="1" stop-color="#FFA694"/>
</linearGradient>
<linearGradient id="paint6_linear" x1="364.114" y1="193.893" x2="413.957" y2="193.893" gradientUnits="userSpaceOnUse">
<stop stop-color="#7600FF"/>
<stop offset="1" stop-color="#FB2FFB"/>
</linearGradient>
<linearGradient id="paint7_linear" x1="385.134" y1="180.994" x2="373.51" y2="185.772" gradientUnits="userSpaceOnUse">
<stop stop-color="white"/>
<stop offset="1" stop-color="white" stop-opacity="0"/>
</linearGradient>
<linearGradient id="paint8_linear" x1="365.229" y1="197.715" x2="371.873" y2="200.153" gradientUnits="userSpaceOnUse">
<stop stop-color="white"/>
<stop offset="1" stop-color="white" stop-opacity="0"/>
</linearGradient>
<linearGradient id="paint9_linear" x1="423.353" y1="224.468" x2="415.072" y2="221.601" gradientUnits="userSpaceOnUse">
<stop stop-color="white"/>
<stop offset="1" stop-color="white" stop-opacity="0"/>
</linearGradient>
<clipPath id="clip0">
<rect x="16" y="14" width="1024" height="442.811" rx="12" fill="white"/>
</clipPath>
<clipPath id="clip1">
<rect width="1025.06" height="498.534" fill="white" transform="translate(16 14)"/>
</clipPath>
<clipPath id="clip2">
<rect width="5.81141" height="5.81141" fill="white" transform="translate(287.109 55.1831)"/>
</clipPath>
<clipPath id="clip3">
<rect width="5.81141" height="5.81141" fill="white" transform="translate(287.109 34.262)"/>
</clipPath>
<clipPath id="clip4">
<rect width="9.69072" height="9.69072" fill="white" transform="translate(278.188 176.589)"/>
</clipPath>
<clipPath id="clip5">
<rect width="122.168" height="25.0344" fill="white" transform="translate(342.599 87.1162)"/>
</clipPath>
<clipPath id="clip6">
<rect width="122.168" height="25.0344" fill="white" transform="translate(472.777 87.1162)"/>
</clipPath>
<clipPath id="clip7">
<rect width="252.346" height="25.0344" fill="white" transform="translate(342.599 120.162)"/>
</clipPath>
<clipPath id="clip8">
<rect width="252.346" height="25.0344" fill="white" transform="translate(342.599 153.207)"/>
</clipPath>
<clipPath id="clip9">
<rect width="6.00825" height="6.00825" fill="white" transform="translate(603.958 37.5483)"/>
</clipPath>
<clipPath id="clip10">
<rect width="319.794" height="29.0722" fill="white" transform="translate(219.505 283.725)"/>
</clipPath>
<clipPath id="clip11">
<rect width="6.46048" height="6.46048" fill="white" transform="translate(526.378 290.186)"/>
</clipPath>
<clipPath id="clip12">
<rect width="319.794" height="29.0722" fill="white" transform="translate(219.505 320.334)"/>
</clipPath>
<clipPath id="clip13">
<rect width="10.7675" height="10.7675" fill="white" transform="translate(230.273 329.487)"/>
</clipPath>
<clipPath id="clip14">
<rect width="6.46048" height="6.46048" fill="white" transform="translate(526.378 326.795)"/>
</clipPath>
<clipPath id="clip15">
<rect width="319.794" height="29.0722" fill="white" transform="translate(219.505 356.944)"/>
</clipPath>
<clipPath id="clip16">
<rect width="6.46048" height="6.46048" fill="white" transform="translate(526.378 363.404)"/>
</clipPath>
<clipPath id="clip17">
<rect width="319.794" height="67.835" fill="white" transform="translate(219.505 397.475)"/>
</clipPath>
<clipPath id="clip18">
<rect width="11.8442" height="11.8442" fill="white" transform="translate(417.088 409.704)"/>
</clipPath>
<clipPath id="clip19">
<rect width="11.8442" height="11.8442" fill="white" transform="translate(417.088 451.159)"/>
</clipPath>
<clipPath id="clip20">
<rect width="17.2279" height="17.2279" fill="white" transform="translate(49.3792 392.939)"/>
</clipPath>
<clipPath id="clip21">
<rect width="32.3024" height="32.3024" fill="white" transform="translate(737.959 310.105)"/>
</clipPath>
<clipPath id="clip22">
<rect width="32.3024" height="32.3024" fill="white" transform="translate(788.566 311.182)"/>
</clipPath>
<clipPath id="clip23">
<rect width="32.3024" height="32.3024" fill="white" transform="translate(839.173 310.105)"/>
</clipPath>
<clipPath id="clip24">
<rect width="23.6884" height="12.921" fill="white" transform="translate(630.284 43.0723)"/>
</clipPath>
<clipPath id="clip25">
<rect width="23.6884" height="12.921" fill="white" transform="translate(630.284 75.833)"/>
</clipPath>
<clipPath id="clip26">
<rect width="23.6884" height="12.921" fill="white" transform="translate(630.284 92.2134)"/>
</clipPath>
<clipPath id="clip27">
<rect width="23.6884" height="12.921" fill="white" transform="matrix(-1 0 0 1 653.972 111.984)"/>
</clipPath>
<clipPath id="clip28">
<rect width="171.203" height="56.4605" fill="white" transform="translate(706.573 47.0127)"/>
</clipPath>
<clipPath id="clip29">
<rect width="13.9977" height="11.3058" fill="white" transform="translate(631.361 162.591)"/>
</clipPath>
<clipPath id="clip30">
<rect width="13.9977" height="11.3058" fill="white" transform="translate(646.435 193.816)"/>
</clipPath>
<clipPath id="clip31">
<rect width="8.61397" height="8.61397" fill="white" transform="translate(912.93 233.656)"/>
</clipPath>
</defs>
</svg>
