<svg width="1056" height="475" viewBox="0 0 1056 475" fill="none" xmlns="http://www.w3.org/2000/svg">
<g filter="url(#filter0_ddd)">
<rect x="16" y="14" width="1024" height="442.608" rx="12" fill="url(#paint0_linear)"/>
</g>
<g filter="url(#filter1_i)">
<path d="M88 375C88 371.686 90.6863 369 94 369H168V413H94C90.6863 413 88 410.314 88 407V375Z" fill="#FCF5A7"/>
<rect x="168" y="369" width="80" height="44" fill="#FDE76D"/>
<rect x="248" y="369" width="80" height="44" fill="#FFC321"/>
<rect x="328" y="369" width="80" height="44" fill="#FA9F00"/>
<rect x="408" y="369" width="80" height="44" fill="#E87D02"/>
<rect x="488" y="369" width="80" height="44" fill="#BE5702"/>
<rect x="568" y="369" width="80" height="44" fill="#A64C03"/>
<rect x="648" y="369" width="80" height="44" fill="#803807"/>
<rect x="728" y="369" width="80" height="44" fill="#522801"/>
<rect x="808" y="369" width="80" height="44" fill="#2A1502"/>
<path d="M888 369H962C965.314 369 968 371.686 968 375V407C968 410.314 965.314 413 962 413H888V369Z" fill="#150B01"/>
<path d="M88 323C88 319.686 90.6863 317 94 317H168V361H94C90.6863 361 88 358.314 88 355V323Z" fill="#FEEFEB"/>
<rect x="168" y="317" width="80" height="44" fill="#FDE0D8"/>
<rect x="248" y="317" width="80" height="44" fill="#F8BFB1"/>
<rect x="328" y="317" width="80" height="44" fill="#F89B85"/>
<rect x="408" y="317" width="80" height="44" fill="#F47251"/>
<rect x="488" y="317" width="80" height="44" fill="#D34204"/>
<rect x="568" y="317" width="80" height="44" fill="#BB3700"/>
<rect x="648" y="317" width="80" height="44" fill="#893000"/>
<rect x="728" y="317" width="80" height="44" fill="#5B2102"/>
<rect x="808" y="317" width="80" height="44" fill="#2D1305"/>
<path d="M888 317H962C965.314 317 968 319.686 968 323V355C968 358.314 965.314 361 962 361H888V317Z" fill="#190900"/>
<path d="M88 271C88 267.686 90.6863 265 94 265H168V309H94C90.6863 309 88 306.314 88 303V271Z" fill="#FFEEF2"/>
<rect x="168" y="265" width="80" height="44" fill="#FEDFDF"/>
<rect x="248" y="265" width="80" height="44" fill="#FFBBBB"/>
<rect x="328" y="265" width="80" height="44" fill="#FE9696"/>
<rect x="408" y="265" width="80" height="44" fill="#FB6A6A"/>
<rect x="488" y="265" width="80" height="44" fill="#E61D1D"/>
<rect x="568" y="265" width="80" height="44" fill="#CD0D0D"/>
<rect x="648" y="265" width="80" height="44" fill="#9F0202"/>
<rect x="728" y="265" width="80" height="44" fill="#6E0000"/>
<rect x="808" y="265" width="80" height="44" fill="#3E0004"/>
<path d="M888 265H962C965.314 265 968 267.686 968 271V303C968 306.314 965.314 309 962 309H888V265Z" fill="#250004"/>
<path d="M88 219C88 215.686 90.6863 213 94 213H168V257H94C90.6863 257 88 254.314 88 251V219Z" fill="#E1F8E5"/>
<rect x="168" y="213" width="80" height="44" fill="#CFEED4"/>
<rect x="248" y="213" width="80" height="44" fill="#86E090"/>
<rect x="328" y="213" width="80" height="44" fill="#53CA6A"/>
<rect x="408" y="213" width="80" height="44" fill="#32AF4C"/>
<rect x="488" y="213" width="80" height="44" fill="#1C8731"/>
<rect x="568" y="213" width="80" height="44" fill="#167629"/>
<rect x="648" y="213" width="80" height="44" fill="#155923"/>
<rect x="728" y="213" width="80" height="44" fill="#183A1E"/>
<rect x="808" y="213" width="80" height="44" fill="#0A1E11"/>
<path d="M888 213H962C965.314 213 968 215.686 968 219V251C968 254.314 965.314 257 962 257H888V213Z" fill="#060F09"/>
<path d="M88 167C88 163.686 90.6863 161 94 161H168V205H94C90.6863 205 88 202.314 88 199V167Z" fill="#E8F4FB"/>
<rect x="168" y="161" width="80" height="44" fill="#D3E9FC"/>
<rect x="248" y="161" width="80" height="44" fill="#9DD2FE"/>
<rect x="328" y="161" width="80" height="44" fill="#65BAFF"/>
<rect x="408" y="161" width="80" height="44" fill="#2B9EFA"/>
<rect x="488" y="161" width="80" height="44" fill="#0276D5"/>
<rect x="568" y="161" width="80" height="44" fill="#0E65C2"/>
<rect x="648" y="161" width="80" height="44" fill="#094A9E"/>
<rect x="728" y="161" width="80" height="44" fill="#0E306D"/>
<rect x="808" y="161" width="80" height="44" fill="#071939"/>
<path d="M888 161H962C965.314 161 968 163.686 968 167V199C968 202.314 965.314 205 962 205H888V161Z" fill="#040D1D"/>
<path d="M88 115C88 111.686 90.6863 109 94 109H168V153H94C90.6863 153 88 150.314 88 147V115Z" fill="#FFEDFB"/>
<rect x="168" y="109" width="80" height="44" fill="#FFDCF7"/>
<rect x="248" y="109" width="80" height="44" fill="#F8B9E7"/>
<rect x="328" y="109" width="80" height="44" fill="#FB8FD8"/>
<rect x="408" y="109" width="80" height="44" fill="#EA6BC1"/>
<rect x="488" y="109" width="80" height="44" fill="#D6219C"/>
<rect x="568" y="109" width="80" height="44" fill="#BB1E89"/>
<rect x="648" y="109" width="80" height="44" fill="#8F1669"/>
<rect x="728" y="109" width="80" height="44" fill="#620256"/>
<rect x="808" y="109" width="80" height="44" fill="#32082C"/>
<path d="M888 109H962C965.314 109 968 111.686 968 115V147C968 150.314 965.314 153 962 153H888V109Z" fill="#1D031A"/>
<path d="M88 63C88 59.6863 90.6863 57 94 57H168V101H94C90.6863 101 88 98.3137 88 95V63Z" fill="#F5F0FD"/>
<rect x="168" y="57" width="80" height="44" fill="#ECE2FA"/>
<rect x="248" y="57" width="80" height="44" fill="#DCC1FC"/>
<rect x="328" y="57" width="80" height="44" fill="#CBA1FA"/>
<rect x="408" y="57" width="80" height="44" fill="#B77EF9"/>
<rect x="488" y="57" width="80" height="44" fill="#9941FF"/>
<rect x="568" y="57" width="80" height="44" fill="#871EFF"/>
<rect x="648" y="57" width="80" height="44" fill="#6405D1"/>
<rect x="728" y="57" width="80" height="44" fill="#440291"/>
<rect x="808" y="57" width="80" height="44" fill="#26044D"/>
<path d="M888 57H962C965.314 57 968 59.6863 968 63V95C968 98.3137 965.314 101 962 101H888V57Z" fill="#140623"/>
</g>
<defs>
<filter id="filter0_ddd" x="0" y="0" width="1056" height="474.608" filterUnits="userSpaceOnUse" color-interpolation-filters="sRGB">
<feFlood flood-opacity="0" result="BackgroundImageFix"/>
<feColorMatrix in="SourceAlpha" type="matrix" values="0 0 0 0 0 0 0 0 0 0 0 0 0 0 0 0 0 0 127 0"/>
<feOffset dy="2"/>
<feGaussianBlur stdDeviation="8"/>
<feColorMatrix type="matrix" values="0 0 0 0 0.0745098 0 0 0 0 0.0784314 0 0 0 0 0.0823529 0 0 0 0.1 0"/>
<feBlend mode="normal" in2="BackgroundImageFix" result="effect1_dropShadow"/>
<feColorMatrix in="SourceAlpha" type="matrix" values="0 0 0 0 0 0 0 0 0 0 0 0 0 0 0 0 0 0 127 0"/>
<feOffset dy="8"/>
<feGaussianBlur stdDeviation="4"/>
<feColorMatrix type="matrix" values="0 0 0 0 0.0745098 0 0 0 0 0.0784314 0 0 0 0 0.0823529 0 0 0 0.05 0"/>
<feBlend mode="normal" in2="effect1_dropShadow" result="effect2_dropShadow"/>
<feColorMatrix in="SourceAlpha" type="matrix" values="0 0 0 0 0 0 0 0 0 0 0 0 0 0 0 0 0 0 127 0"/>
<feOffset dy="4"/>
<feGaussianBlur stdDeviation="2"/>
<feColorMatrix type="matrix" values="0 0 0 0 0.0745098 0 0 0 0 0.0784314 0 0 0 0 0.0823529 0 0 0 0.05 0"/>
<feBlend mode="normal" in2="effect2_dropShadow" result="effect3_dropShadow"/>
<feBlend mode="normal" in="SourceGraphic" in2="effect3_dropShadow" result="shape"/>
</filter>
<filter id="filter1_i" x="88" y="57" width="882" height="358" filterUnits="userSpaceOnUse" color-interpolation-filters="sRGB">
<feFlood flood-opacity="0" result="BackgroundImageFix"/>
<feBlend mode="normal" in="SourceGraphic" in2="BackgroundImageFix" result="shape"/>
<feColorMatrix in="SourceAlpha" type="matrix" values="0 0 0 0 0 0 0 0 0 0 0 0 0 0 0 0 0 0 127 0" result="hardAlpha"/>
<feOffset dx="2" dy="2"/>
<feGaussianBlur stdDeviation="2"/>
<feComposite in2="hardAlpha" operator="arithmetic" k2="-1" k3="1"/>
<feColorMatrix type="matrix" values="0 0 0 0 0 0 0 0 0 0 0 0 0 0 0 0 0 0 0.25 0"/>
<feBlend mode="normal" in2="shape" result="effect1_innerShadow"/>
</filter>
<linearGradient id="paint0_linear" x1="1040" y1="249.5" x2="16" y2="250.5" gradientUnits="userSpaceOnUse">
<stop stop-color="#F2F2F2"/>
<stop offset="1" stop-color="#333333"/>
</linearGradient>
</defs>
</svg>
