<svg width="1056" height="475" viewBox="0 0 1056 475" fill="none" xmlns="http://www.w3.org/2000/svg">
<g opacity="0.5" filter="url(#filter0_ddd)">
<rect x="16" y="14" width="1024" height="442.608" rx="12" fill="url(#paint0_linear)"/>
</g>
<g filter="url(#filter1_i)">
<path opacity="0.8" d="M264 235C264 290.228 219.228 335 164 335C108.772 335 64 290.228 64 235C64 179.772 108.772 135 164 135C219.228 135 264 179.772 264 235Z" fill="white"/>
<g filter="url(#filter2_i)">
<rect width="130" height="100" rx="50" transform="matrix(-1 0 0 1 228.667 185)" fill="url(#paint1_linear)"/>
</g>
<path opacity="0.8" d="M506.667 235C506.667 290.228 461.895 335 406.667 335C351.438 335 306.667 290.228 306.667 235C306.667 179.772 351.438 135 406.667 135C461.895 135 506.667 179.772 506.667 235Z" fill="white"/>
<g filter="url(#filter3_i)">
<rect x="356.667" y="185" width="100" height="100" rx="12" fill="url(#paint2_linear)"/>
</g>
<path opacity="0.8" d="M549.333 235C549.333 290.228 594.105 335 649.333 335C704.562 335 749.333 290.228 749.333 235C749.333 179.772 704.562 135 649.333 135C594.105 135 549.333 179.772 549.333 235Z" fill="white"/>
<g filter="url(#filter4_i)">
<rect x="599.333" y="185" width="100" height="100" rx="50" fill="url(#paint3_linear)"/>
</g>
<path opacity="0.8" d="M992 235C992 290.228 947.228 335 892 335C836.772 335 792 290.228 792 235C792 179.772 836.772 135 892 135C947.228 135 992 179.772 992 235Z" fill="white"/>
<path d="M897.103 183.249C894.757 179.457 889.243 179.457 886.897 183.249L832.712 270.844C830.24 274.841 833.115 280 837.815 280H946.185C950.885 280 953.76 274.841 951.288 270.844L897.103 183.249Z" fill="url(#paint4_linear)"/>
</g>
<defs>
<filter id="filter0_ddd" x="0" y="0" width="1056" height="474.608" filterUnits="userSpaceOnUse" color-interpolation-filters="sRGB">
<feFlood flood-opacity="0" result="BackgroundImageFix"/>
<feColorMatrix in="SourceAlpha" type="matrix" values="0 0 0 0 0 0 0 0 0 0 0 0 0 0 0 0 0 0 127 0"/>
<feOffset dy="2"/>
<feGaussianBlur stdDeviation="8"/>
<feColorMatrix type="matrix" values="0 0 0 0 0.0745098 0 0 0 0 0.0784314 0 0 0 0 0.0823529 0 0 0 0.1 0"/>
<feBlend mode="normal" in2="BackgroundImageFix" result="effect1_dropShadow"/>
<feColorMatrix in="SourceAlpha" type="matrix" values="0 0 0 0 0 0 0 0 0 0 0 0 0 0 0 0 0 0 127 0"/>
<feOffset dy="8"/>
<feGaussianBlur stdDeviation="4"/>
<feColorMatrix type="matrix" values="0 0 0 0 0.0745098 0 0 0 0 0.0784314 0 0 0 0 0.0823529 0 0 0 0.05 0"/>
<feBlend mode="normal" in2="effect1_dropShadow" result="effect2_dropShadow"/>
<feColorMatrix in="SourceAlpha" type="matrix" values="0 0 0 0 0 0 0 0 0 0 0 0 0 0 0 0 0 0 127 0"/>
<feOffset dy="4"/>
<feGaussianBlur stdDeviation="2"/>
<feColorMatrix type="matrix" values="0 0 0 0 0.0745098 0 0 0 0 0.0784314 0 0 0 0 0.0823529 0 0 0 0.05 0"/>
<feBlend mode="normal" in2="effect2_dropShadow" result="effect3_dropShadow"/>
<feBlend mode="normal" in="SourceGraphic" in2="effect3_dropShadow" result="shape"/>
</filter>
<filter id="filter1_i" x="16" y="135" width="1024" height="204" filterUnits="userSpaceOnUse" color-interpolation-filters="sRGB">
<feFlood flood-opacity="0" result="BackgroundImageFix"/>
<feBlend mode="normal" in="SourceGraphic" in2="BackgroundImageFix" result="shape"/>
<feColorMatrix in="SourceAlpha" type="matrix" values="0 0 0 0 0 0 0 0 0 0 0 0 0 0 0 0 0 0 127 0" result="hardAlpha"/>
<feOffset dy="4"/>
<feGaussianBlur stdDeviation="2"/>
<feComposite in2="hardAlpha" operator="arithmetic" k2="-1" k3="1"/>
<feColorMatrix type="matrix" values="0 0 0 0 0 0 0 0 0 0 0 0 0 0 0 0 0 0 0.25 0"/>
<feBlend mode="normal" in2="shape" result="effect1_innerShadow"/>
</filter>
<filter id="filter2_i" x="98.6667" y="185" width="134" height="100" filterUnits="userSpaceOnUse" color-interpolation-filters="sRGB">
<feFlood flood-opacity="0" result="BackgroundImageFix"/>
<feBlend mode="normal" in="SourceGraphic" in2="BackgroundImageFix" result="shape"/>
<feColorMatrix in="SourceAlpha" type="matrix" values="0 0 0 0 0 0 0 0 0 0 0 0 0 0 0 0 0 0 127 0" result="hardAlpha"/>
<feOffset dx="4"/>
<feGaussianBlur stdDeviation="2"/>
<feComposite in2="hardAlpha" operator="arithmetic" k2="-1" k3="1"/>
<feColorMatrix type="matrix" values="0 0 0 0 0 0 0 0 0 0 0 0 0 0 0 0 0 0 0.25 0"/>
<feBlend mode="normal" in2="shape" result="effect1_innerShadow"/>
</filter>
<filter id="filter3_i" x="356.667" y="185" width="104" height="100" filterUnits="userSpaceOnUse" color-interpolation-filters="sRGB">
<feFlood flood-opacity="0" result="BackgroundImageFix"/>
<feBlend mode="normal" in="SourceGraphic" in2="BackgroundImageFix" result="shape"/>
<feColorMatrix in="SourceAlpha" type="matrix" values="0 0 0 0 0 0 0 0 0 0 0 0 0 0 0 0 0 0 127 0" result="hardAlpha"/>
<feOffset dx="4"/>
<feGaussianBlur stdDeviation="2"/>
<feComposite in2="hardAlpha" operator="arithmetic" k2="-1" k3="1"/>
<feColorMatrix type="matrix" values="0 0 0 0 0 0 0 0 0 0 0 0 0 0 0 0 0 0 0.25 0"/>
<feBlend mode="normal" in2="shape" result="effect1_innerShadow"/>
</filter>
<filter id="filter4_i" x="599.333" y="185" width="104" height="100" filterUnits="userSpaceOnUse" color-interpolation-filters="sRGB">
<feFlood flood-opacity="0" result="BackgroundImageFix"/>
<feBlend mode="normal" in="SourceGraphic" in2="BackgroundImageFix" result="shape"/>
<feColorMatrix in="SourceAlpha" type="matrix" values="0 0 0 0 0 0 0 0 0 0 0 0 0 0 0 0 0 0 127 0" result="hardAlpha"/>
<feOffset dx="4"/>
<feGaussianBlur stdDeviation="2"/>
<feComposite in2="hardAlpha" operator="arithmetic" k2="-1" k3="1"/>
<feColorMatrix type="matrix" values="0 0 0 0 0 0 0 0 0 0 0 0 0 0 0 0 0 0 0.25 0"/>
<feBlend mode="normal" in2="shape" result="effect1_innerShadow"/>
</filter>
<linearGradient id="paint0_linear" x1="65.7169" y1="437.256" x2="1000.17" y2="437.256" gradientUnits="userSpaceOnUse">
<stop stop-color="#7FC6F4"/>
<stop offset="1" stop-color="#8728FB"/>
</linearGradient>
<linearGradient id="paint1_linear" x1="6.31171" y1="95.6278" x2="124.944" y2="95.6278" gradientUnits="userSpaceOnUse">
<stop stop-color="#7FC6F4"/>
<stop offset="1" stop-color="#8728FB"/>
</linearGradient>
<linearGradient id="paint2_linear" x1="361.522" y1="280.628" x2="452.777" y2="280.628" gradientUnits="userSpaceOnUse">
<stop stop-color="#7FC6F4"/>
<stop offset="1" stop-color="#D5279B"/>
</linearGradient>
<linearGradient id="paint3_linear" x1="604.188" y1="280.628" x2="695.444" y2="280.628" gradientUnits="userSpaceOnUse">
<stop stop-color="#D5279B"/>
<stop offset="1" stop-color="#FEA18C"/>
</linearGradient>
<linearGradient id="paint4_linear" x1="959.717" y1="308.879" x2="822.834" y2="308.879" gradientUnits="userSpaceOnUse">
<stop stop-color="#8728FB"/>
<stop offset="1" stop-color="#FFA58B"/>
</linearGradient>
</defs>
</svg>
