<svg width="1056" height="475" viewBox="0 0 1056 475" fill="none" xmlns="http://www.w3.org/2000/svg">
<g opacity="0.5" filter="url(#filter0_ddd)">
<rect x="16" y="14" width="1024" height="442.608" rx="12" fill="url(#paint0_linear)"/>
</g>
<g filter="url(#filter1_i)">
<path d="M574.574 95.8733C489.683 135.892 418.169 100.078 350.822 163.144C275.677 233.473 290.431 410.251 450.543 431.082C872.44 485.969 866.936 -41.9559 574.574 95.8733Z" fill="url(#paint1_linear)"/>
<path d="M325.748 284.041C325.748 284.041 317.377 272.766 302.28 267.95C287.144 263.095 277.359 265.198 276.824 268.103C276.289 271.007 325.901 289.927 325.901 289.927L325.748 284.041Z" fill="#5F48DC"/>
<path d="M761.213 266.841C760.487 254.572 730.215 258.279 716.684 279.11C703.116 299.942 687.062 343.859 687.062 343.859L692.413 345.541C692.413 345.541 714.544 285.914 727.578 281.901C740.612 277.926 761.978 279.684 761.213 266.841Z" fill="#5F48DC"/>
<path d="M267.918 234.811C270.44 221.013 309.083 226.02 323.913 249.871C338.743 273.721 353.841 323.639 353.841 323.639L346.694 325.398C346.694 325.398 325.824 257.668 309.503 252.775C293.144 247.845 265.28 249.221 267.918 234.811Z" fill="#5F48DC"/>
<path d="M478.216 313.74C478.216 302.617 472.368 292.87 463.577 287.367C458.723 284.347 456.162 278.614 457.347 273.033C457.691 271.466 457.844 269.861 457.844 268.179C457.844 257.095 450.085 247.845 439.688 245.551C436.936 244.94 435.102 242.379 435.369 239.589C435.484 238.327 435.522 237.143 435.407 236.149C434.567 229.727 430.974 226.249 425.737 223.383C423.062 221.93 421.724 218.834 422.488 215.853C422.871 214.4 423.062 212.871 423.1 211.266C423.406 199.455 417.061 194.563 412.627 192.384C410.448 191.314 408.881 189.327 408.27 186.995C406.55 180.688 400.587 176.102 393.592 176.56C386.789 177.019 381.208 182.37 380.444 189.174C380.444 189.212 380.444 189.288 380.444 189.327C380.215 191.658 378.227 193.378 375.896 193.263C375.131 193.225 374.367 193.225 373.564 193.302C364.926 194.028 358.008 201.023 357.396 209.661C357.281 211.037 357.358 212.375 357.549 213.674C358.008 216.655 356.708 219.637 354.147 221.28C349.293 224.338 345.509 228.963 343.521 234.467C342.757 236.607 340.96 238.213 338.82 238.824C329.112 241.538 321.964 250.444 321.964 261.031C321.964 263.898 322.499 266.612 323.416 269.135C324.869 273.033 322.996 277.314 319.174 278.919C308.854 283.2 301.592 293.406 301.592 305.255C301.592 310.071 302.777 314.581 304.879 318.556C308.051 324.557 306.866 332.01 301.821 336.558C294.673 343.018 290.201 352.344 290.201 362.702V375.545H481.121V362.702C481.121 357.504 477.834 352.574 473.935 348.14C469.731 343.324 469.425 336.253 472.98 330.94C476.305 325.971 478.216 320.085 478.216 313.74Z" fill="url(#paint2_linear)"/>
<path d="M681.864 253.731C681.864 253.731 683.622 237.295 696.121 223.344C708.581 209.431 719.78 205.686 722.074 208.323C724.367 210.96 685.228 259.77 685.228 259.77L681.864 253.731Z" fill="#5F48DC"/>
<path d="M693.14 254.19C693.14 254.19 702.772 238.71 721.845 230.874C740.917 223.038 753.798 224.682 754.792 228.39C755.786 232.097 693.598 261.834 693.598 261.834L693.14 254.19Z" fill="#5F48DC"/>
<path d="M548.812 383.992C540.021 379.788 555.31 376.08 559.132 365.531C560.891 360.715 557.298 353.338 559.668 346.955C561.617 341.757 569.414 337.782 571.708 331.819C573.772 326.43 570.293 319.053 572.587 313.243C574.727 307.777 582.601 303.955 584.932 298.298C587.188 292.794 583.862 285.341 586.232 279.76C588.564 274.218 596.552 270.549 598.96 265.045C601.406 259.464 598.31 251.935 600.833 246.545C603.432 240.927 611.535 237.525 614.134 232.25C616.924 226.593 614.249 218.949 616.963 213.827C620.02 208.094 628.391 205.227 631.334 200.411C634.965 194.525 634.048 186.919 636.724 182.447C641.081 175.261 646.394 172.432 653.924 172.432C660.918 172.432 667.072 175.108 671.429 182.561C674.028 187.033 673.379 194.601 676.895 200.526C679.762 205.342 688.056 208.361 690.999 214.095C693.636 219.216 690.808 226.823 693.445 232.479C695.93 237.792 703.956 241.309 706.403 246.927C708.772 252.355 705.524 259.808 707.855 265.389C710.148 270.931 718.022 274.677 720.239 280.257C722.456 285.876 719.016 293.214 721.118 298.757C723.297 304.452 731.094 308.389 733.12 313.854C735.299 319.664 731.668 326.965 733.579 332.354C735.757 338.355 743.478 342.406 745.313 347.643C747.568 354.026 743.784 361.326 745.466 366.142C749.059 376.73 764.233 380.59 755.404 384.718C748.447 387.967 746.192 379.673 738.356 379.635C730.521 379.597 730.483 384.948 722.647 384.91C714.812 384.871 714.85 379.558 707.014 379.52C699.179 379.482 699.14 384.833 691.305 384.795C683.469 384.757 683.508 379.444 675.672 379.406C667.836 379.367 667.798 384.718 659.963 384.68C652.127 384.642 652.165 379.329 644.33 379.291C636.494 379.253 636.456 384.604 628.62 384.566C620.785 384.527 620.823 379.214 612.949 379.176C605.114 379.138 605.076 384.489 597.24 384.451C589.404 384.413 589.443 379.1 581.569 379.062C573.733 379.023 574.192 382.616 566.586 384.26C557.871 386.171 555.731 387.318 548.812 383.992Z" fill="url(#paint3_linear)"/>
<path d="M699.676 315.804L682.628 327.156V375.507H717.334V327.156L699.676 315.804Z" fill="white"/>
<path d="M729.107 327.156H717.334V375.507H729.107V327.156Z" fill="#3D6ACC"/>
<path d="M711.448 315.804H699.676L717.334 327.156H729.068L711.448 315.804Z" fill="#E373FA"/>
<path d="M703.651 339.655H699.981V346.458H703.651V339.655Z" fill="#79799A"/>
<path d="M703.651 356.205H699.981V363.008H703.651V356.205Z" fill="#79799A"/>
<path d="M747.721 351.351H717.334V375.507H747.721V351.351Z" fill="#B779FF"/>
<path d="M759.723 351.35L753.569 335.182L747.683 351.35V375.507H759.723V351.35Z" fill="white"/>
<path d="M723.182 335.182L717.334 351.35H747.683L753.569 335.182H723.182Z" fill="#E373FA"/>
<path d="M734.343 366.295H730.674V375.507H734.343V366.295Z" fill="white"/>
<path d="M755.518 366.295H751.849V375.507H755.518V366.295Z" fill="#3D6ACC"/>
<path d="M627.895 372.208C627.895 377.183 629.788 381.742 632.807 385.177H692.165C695.242 381.624 697.077 376.946 697.077 371.853C697.077 363.089 691.573 355.627 683.879 352.667C683.939 352.193 683.939 351.66 683.939 351.186C683.939 339.757 674.706 330.519 663.285 330.519C651.863 330.519 642.631 339.757 642.631 351.186C642.631 351.838 642.69 352.548 642.749 353.2C634.168 355.331 627.895 363.03 627.895 372.208Z" fill="#5F48DC"/>
<path d="M489.912 364.002C489.912 368.398 491.556 372.411 494.269 375.43H546.557C549.233 372.296 550.876 368.206 550.876 363.734C550.876 356.014 546.06 349.439 539.257 346.878C539.295 346.458 539.295 345.999 539.295 345.541C539.295 335.488 531.154 327.347 521.101 327.347C511.049 327.347 502.908 335.488 502.908 345.541C502.908 346.152 502.946 346.726 502.984 347.299C495.454 349.134 489.912 355.937 489.912 364.002Z" fill="url(#paint4_linear)"/>
<path d="M390.84 226.135C390.458 237.869 385.298 238.595 384.534 245.513C383.463 253.616 387.821 254.763 389.847 262.255C393.86 277.008 385.222 284.232 384.457 289.431C383.807 297.075 386.865 296.272 389.388 304.223C394.127 318.823 385.451 330.519 384.916 331.666C381.705 338.393 389.808 341.183 390.573 354.561C390.955 358.766 390.305 364.614 388.509 369.162C385.451 376.501 384.19 375.507 384.228 379.558C384.343 386.974 379.068 393.127 372.455 393.357C365.843 393.586 360.415 387.738 360.301 380.323C360.11 367.595 368.633 358.842 368.901 358.116C370.888 351.198 364.238 348.331 365.27 335.603C365.805 319.511 375.628 318.671 374.252 309.803C373.908 307.586 371.92 304.758 370.85 300.4C369.703 295.852 370.2 291.686 370.2 291.112C371.271 276.397 380.444 276.359 379.106 265.58C378.456 260.955 372.952 255.604 375.743 243.602C377.807 234.314 382.775 234.199 383.999 225.752C383.999 225.714 384.572 221.739 387.935 222.312C389.694 222.58 390.879 224.262 390.84 226.135Z" fill="#7A56E0"/>
<path d="M309.503 377.362C309.503 383.59 311.882 389.325 315.736 393.586H390.117C393.972 389.079 396.268 383.262 396.268 376.953C396.268 365.973 389.379 356.632 379.702 352.945C379.702 352.289 379.784 351.716 379.784 351.06C379.784 336.803 368.221 325.168 353.87 325.168C339.6 325.168 327.955 336.721 327.955 351.06C327.955 351.88 327.955 352.781 328.037 353.6C317.458 356.222 309.503 365.891 309.503 377.362Z" fill="white"/>
<path d="M642.763 275.709C642.763 275.709 648.764 333.118 651.095 375.507H612.72L604.388 299.751L603.738 300.744L597.967 375.507H559.63L555.311 301.088L642.763 275.709Z" fill="#171733"/>
<path d="M664.893 241.768L671.888 239.512C671.888 239.512 677.545 249.68 679.38 261.032C681.214 272.384 678.042 276.626 675.137 277.811C672.232 278.996 664.893 241.768 664.893 241.768Z" fill="#F0C3A8"/>
<path d="M664.893 241.768L671.888 239.512C671.888 239.512 677.545 249.68 679.38 261.032C681.214 272.384 678.042 276.626 675.137 277.811C672.232 278.996 664.893 241.768 664.893 241.768Z" fill="#131415"/>
<path d="M577.823 130.579C569.567 131.611 566.318 135.892 566.318 135.892C566.318 135.892 548.966 123.011 555.158 111.353C561.35 99.6955 571.975 104.664 578.511 109.48C585.047 114.296 585.85 113.647 594.756 113.15C603.7 112.653 609.739 119.151 609.739 128.248C609.739 137.344 616.963 146.9 604.579 158.749C590.054 172.662 577.823 130.579 577.823 130.579Z" fill="#8820FF"/>
<path d="M610.236 209.661C608.592 212.222 606.605 214.859 604.006 216.656C599.839 217.344 595.75 218.223 591.851 218.796C588.029 218.07 584.665 216.35 581.263 214.018C575.11 209.776 570.064 204.195 565.134 198.462C578.206 191.505 581.454 193.569 581.951 187.912C582.486 181.644 575.492 150.034 575.492 150.034L603.241 145.753C603.241 145.753 609.586 177.057 611.344 182.141C612.414 185.237 616.542 186.804 622.352 188.256C619.065 195.71 614.708 202.743 610.236 209.661Z" fill="#131415"/>
<path opacity="0.58" d="M584.053 177.516C582.945 177.707 581.875 177.822 580.881 177.822C578.855 167.005 576.753 156.876 576.753 156.876L595.482 153.895C596.743 165.82 592.883 176.064 584.053 177.516Z" fill="#616266"/>
<path d="M608.01 149.301C609.526 145.738 607.866 141.62 604.302 140.103C600.739 138.587 596.621 140.247 595.105 143.811C593.589 147.374 595.248 151.492 598.812 153.008C602.376 154.525 606.494 152.865 608.01 149.301Z" fill="#131415"/>
<path d="M567.847 151.983C569.949 164.635 573.237 174.573 585.353 172.432C596.017 170.254 603.623 159.093 601.559 146.441C599.457 133.79 592.844 123.928 579.199 126.336C562.764 129.165 565.745 139.294 567.847 151.983Z" fill="#131415"/>
<path d="M600.26 139.37L601.559 146.403L599.113 146.938C598.998 145.18 597.814 140.975 597.393 139.599L600.26 139.37Z" fill="#8820FF"/>
<path d="M540.442 253.196C540.442 253.196 538.837 217.764 549.042 208.591C559.209 199.417 569.491 195.939 571.822 194.754C574.154 193.569 579.658 191.238 579.658 191.238C579.658 191.238 583.327 197.735 595.023 196.245C606.719 194.754 614.555 184.893 614.555 184.893C614.555 184.893 621.244 187.912 625.907 188.906C630.57 189.9 649.757 191.735 657.44 202.934C665.123 214.133 674.793 240.659 674.793 240.659C674.793 240.659 668.945 244.672 658.281 248.495C647.617 252.355 540.442 253.196 540.442 253.196Z" fill="white"/>
<path d="M594.374 199.952C600.26 199.417 609.892 197.583 618.339 186.498C616.16 185.657 614.555 184.931 614.555 184.931C614.555 184.931 606.719 194.792 595.023 196.283C583.327 197.774 579.658 191.276 579.658 191.276C579.658 191.276 578.091 191.926 576.294 192.728C580.881 199.494 588.64 200.488 594.374 199.952Z" fill="white"/>
<path d="M595.673 121.635L571.134 120.794L564.254 130.579L566.318 135.892C566.777 134.975 566.968 133.407 568.573 131.802C571.478 132.528 574.651 131.993 576.103 131.496C577.288 131.076 579.734 128.974 581.072 127.751C584.283 127.942 587.264 129.012 588.22 130.732C592.233 137.841 595.1 133.599 597.355 139.638L600.221 139.37L595.673 121.635Z" fill="#8820FF"/>
<path d="M490.6 161.577C495.263 158.749 496.869 151.219 494.499 147.435C492.702 144.607 488.574 143.804 488.269 140.975C487.695 135.51 480.471 130.312 474.126 132.184C465.947 134.631 462.813 131.076 459.258 125.954C455.436 120.412 453.41 114.946 440.223 114.946C427.037 114.946 423.52 112.768 422.182 106.27C420.845 99.772 409.99 92.7391 397.797 98.4342C385.604 104.091 381.094 109.442 374.252 105.429C367.41 101.416 360.721 95.9115 353.039 101.607C345.356 107.264 348.375 121.482 356.861 122.82C365.384 124.158 359.345 133.484 356.02 139.179C352.695 144.836 357.358 155.194 368.71 153.359C380.062 151.525 381.896 155.041 384.381 161.195C386.865 167.387 396.077 168.687 401.084 166.202C406.091 163.718 411.939 162.036 417.596 167.043C423.253 172.05 424.934 174.879 432.961 173.044C440.988 171.209 442.249 172.585 446.11 175.605C449.932 178.624 459.029 176.866 459.029 176.866L490.6 161.577Z" fill="#D6219C"/>
<path d="M471.03 213.024C470.61 206.832 477.834 174.191 477.834 174.191L451.919 170.101C451.919 170.101 445.269 202.437 443.587 207.482C441.905 212.527 432.35 213.521 420.883 216.77C419.316 217.229 417.71 217.917 416.067 218.872C417.022 222.962 418.781 226.899 420.615 230.645C422.641 234.735 424.82 238.748 426.769 242.876C437.013 250.023 447.638 247.959 458.608 249.603C462.316 250.138 472.521 244.825 475.732 245.59C481.236 238.557 483.414 231.83 488.001 224.185C474.7 216.388 471.413 218.834 471.03 213.024Z" fill="white"/>
<path opacity="0.58" d="M456.085 180.841C456.85 185.657 460.94 199.188 472.406 201.711C473.438 195.977 474.623 189.862 475.617 184.855L456.085 180.841Z" fill="#FCAC98"/>
<path d="M463.104 171.14C466.381 167.388 465.996 161.69 462.244 158.413C458.491 155.136 452.793 155.521 449.516 159.273C446.239 163.026 446.624 168.724 450.376 172.001C454.129 175.278 459.827 174.893 463.104 171.14Z" fill="white"/>
<path d="M488.269 176.637C483.911 188.562 476.917 196.856 464.877 192.423C457.997 189.862 452.187 177.019 456.506 165.094C460.863 153.168 465.985 145.218 480.433 149.346C494.499 153.359 492.588 164.711 488.269 176.637Z" fill="white"/>
<path d="M453.525 171.095C453.372 171.477 452.951 171.706 452.531 171.553C452.149 171.4 451.919 170.98 452.072 170.56C452.225 170.177 452.646 169.948 453.066 170.101C453.448 170.292 453.639 170.712 453.525 171.095Z" fill="#FA7454"/>
<path d="M449.397 157.755C456.086 161.921 458.761 163.259 462.431 161.921C466.1 160.584 467.285 151.41 472.445 150.722C477.605 150.072 477.949 154.239 483.453 154.544C489.339 154.888 490.791 157.87 490.791 157.87C490.791 157.87 494.461 151.181 485.937 146.365C477.414 141.511 464.227 141.014 457.882 145.715C451.575 150.416 449.397 157.755 449.397 157.755Z" fill="#D6219C"/>
<path d="M500.347 375.545H385.183C385.183 375.545 401.428 308.121 418.131 274.524C434.49 278.575 458.799 279.646 475.082 275.174C475.082 275.174 499.238 338.355 500.347 375.545Z" fill="#D6219C"/>
<path d="M485.784 260.687C485.058 266.726 475.12 275.135 475.12 275.135C458.799 279.569 434.49 278.537 418.169 274.486C418.169 274.486 416.258 259.808 412.703 251.552C412.703 251.552 411.939 244.443 406.129 238.404C402.842 235.002 400.625 234.085 399.326 233.932C398.829 233.855 398.561 233.282 398.905 232.9C400.931 230.454 405.021 225.638 408.805 222.809C412.627 219.981 418.093 217.114 420.959 216.235C421.38 216.12 421.839 216.388 421.877 216.847C422.297 221.204 424.858 241.347 434.834 244.175C446.033 247.348 477.567 243.182 477.567 243.182C477.567 243.182 486.893 251.361 485.784 260.687Z" fill="#292969"/>
<path d="M471.91 216.044C468.355 218.605 463.654 219.981 458.15 219.981C452.034 219.981 444.695 217.038 440.95 210.616C440.758 210.731 440.567 210.846 440.376 210.96C443.854 216.847 450.658 220.669 458.15 220.669C463.806 220.669 468.699 219.216 472.368 216.541C472.215 216.388 472.062 216.235 471.91 216.044Z" fill="#F79CA6"/>
<path d="M509.023 230.224C509.023 230.224 513.686 204.31 514.795 196.054C515.406 191.582 516.362 183.784 517.547 177.592C518.541 172.394 519.496 168.381 520.91 168.572C523.242 168.84 521.981 173.732 521.56 178.433C521.331 181.224 521.293 184.358 521.293 186.192C521.293 186.766 521.981 187.033 522.401 186.651C524.503 184.511 529.205 180.306 531.918 182.408C535.473 185.199 528.746 194.143 528.746 194.143L534.173 196.627C533.524 199.15 529.434 204.386 528.211 205.151L527.141 233.091L509.023 230.224Z" fill="#F5CFBF"/>
<path d="M527.026 233.32L528.211 205.151C529.778 204.157 533.562 198.882 534.173 196.627L528.746 194.143C528.746 194.143 535.473 185.199 531.918 182.408C529.205 180.306 524.503 184.511 522.401 186.651C522.019 187.071 521.293 186.766 521.293 186.192C521.293 184.358 521.331 181.223 521.56 178.433C521.981 173.77 523.242 168.878 520.91 168.572C519.496 168.419 518.541 172.394 517.547 177.592C516.362 183.746 515.406 191.582 514.795 196.054C514.374 199.341 510.055 224.682 509.138 230.11C512.922 230.301 525.688 233.282 527.026 233.32Z" fill="#B07400"/>
<path d="M526.988 233.32L528.173 205.151C529.74 204.157 533.524 198.882 534.135 196.627L528.708 194.143C528.708 194.143 535.435 185.199 531.88 182.408C529.167 180.306 524.465 184.511 522.363 186.651C521.981 187.071 521.255 186.766 521.255 186.192C521.255 184.358 521.293 181.223 521.522 178.433C521.943 173.77 523.204 168.878 520.872 168.572C519.458 168.419 518.503 172.394 517.509 177.592C516.324 183.746 515.368 191.582 514.757 196.054C514.336 199.341 510.017 224.682 509.1 230.11C512.846 230.301 525.612 233.282 526.988 233.32Z" fill="white"/>
<path d="M533.715 191.849C535.397 192.805 536.199 195.175 534.67 196.742C533.103 198.309 526.491 202.322 525.421 201.596C524.35 200.87 524.312 198.462 525.803 197.659C527.332 196.78 533.715 191.849 533.715 191.849Z" fill="#F5CFBF"/>
<path d="M531.536 188.104C533.027 188.371 534.556 188.677 534.938 190.435C535.32 192.232 527.523 198.844 525.191 199.341C522.86 199.838 522.363 196.168 524.924 194.487C527.485 192.843 531.536 188.104 531.536 188.104Z" fill="#F5CFBF"/>
<path d="M532.224 182.638C534.632 185.313 532.492 188.83 528.937 192.117C525.382 195.404 524.083 194.945 522.974 194.334C521.866 193.722 524.197 191.085 526.605 188.639C528.975 186.192 532.224 182.638 532.224 182.638Z" fill="#F5CFBF"/>
<path fill-rule="evenodd" clip-rule="evenodd" d="M532.257 188.242C533.468 186.223 533.696 184.273 532.224 182.638C532.224 182.638 528.975 186.192 526.605 188.639C524.197 191.085 521.866 193.722 522.974 194.334C523.423 194.581 523.903 194.804 524.55 194.763C522.595 196.391 522.906 199.282 524.679 199.384C524.548 200.264 524.824 201.191 525.421 201.596C526.491 202.322 533.103 198.309 534.67 196.742C536.051 195.326 535.53 193.256 534.177 192.164C534.721 191.437 535.021 190.823 534.938 190.435C534.618 188.961 533.491 188.508 532.257 188.242Z" fill="white"/>
<path opacity="0.7" d="M529.625 191.314C530.733 190.129 530.275 188.753 526.376 188.639C522.477 188.562 517.509 192.155 517.509 192.155C516.744 192.537 515.941 192.881 515.177 193.187C515.101 193.875 514.986 194.525 514.909 195.136C514.68 196.933 514.26 199.456 513.801 202.36C513.877 202.36 513.916 202.36 513.992 202.36C522.095 202.093 524.694 192.232 524.694 192.232C524.694 192.232 528.899 192.079 529.625 191.314Z" fill="#FDCFC3"/>
<path d="M643.566 203.698H453.907C450.964 203.163 448.212 205.418 448.212 208.438V324.901C448.212 327.232 449.894 329.22 452.187 329.64H645.286C647.579 329.22 649.261 327.232 649.261 324.901V208.438C649.261 205.456 646.547 203.163 643.566 203.698Z" fill="#8D26FA"/>
<path d="M643.566 204.692H453.907C450.964 204.157 448.212 206.412 448.212 209.431V325.933C448.212 328.264 449.894 330.252 452.187 330.672H645.286C647.579 330.252 649.261 328.264 649.261 325.933V209.431C649.261 206.45 646.547 204.157 643.566 204.692Z" fill="#8D26FA"/>
<path d="M641.578 325.589L454.519 324.71V211.19L641.54 212.26L641.578 325.589Z" fill="#E1E2E6"/>
<path d="M650.789 217.764C656.752 218.681 660.039 220.325 663.708 228.657C667.225 236.646 674.831 253.043 677.086 263.478C679.341 273.912 678.806 279.378 670.856 279.684C662.027 280.028 655.414 261.108 654 252.202C652.548 242.914 650.675 234.429 650.675 234.429C650.675 234.429 647.005 234.161 643.795 233.32C640.546 232.479 637.603 235.27 636.571 233.664C635.539 232.059 638.979 229.536 643.489 229.613C643.489 229.613 641.234 228.925 638.1 229.651C634.927 230.377 633.895 230.53 633.589 229.307C633.284 228.084 637.259 226.096 640.087 226.02C642.877 225.943 644.292 225.79 644.292 225.79C644.292 225.79 639.284 224.835 636.762 225.982C634.239 227.166 632.213 228.428 631.564 227.09C630.914 225.752 634.392 223.077 638.252 222.159C642.113 221.242 642.954 221.586 642.954 221.586C642.954 221.586 638.176 221.242 635.615 222.312C633.054 223.382 631.984 224.3 631.143 223.23C630.302 222.198 632.481 220.057 636.303 218.719C640.087 217.343 643.833 216.694 650.789 217.764Z" fill="#131415"/>
<path d="M461.551 301.471C464.991 300.974 468.737 300.133 468.355 298.642C468.049 297.457 465.603 297.266 462.966 297.495C464.953 296.999 466.52 296.311 466.253 295.393C465.527 293.1 453.066 295.087 453.066 295.087C453.066 295.087 455.474 293.941 456.277 293.52C457.576 292.871 459.143 291.571 457.653 290.615C456.162 289.66 448.632 292.068 438.198 295.775C427.19 296.999 400.625 295.584 400.625 295.584C400.625 295.584 400.205 289.125 403.607 274.295C405.327 266.88 411.748 252.967 414.806 246.736C414.806 246.736 414.767 242.341 408.155 237.219C404.447 234.352 400.281 234.047 398.982 233.97C391.567 243.717 386.063 256.139 383.769 268.179C379.679 289.813 380.138 308.427 393.134 313.128C406.129 317.83 441.599 311.943 445.689 311.37C449.817 310.797 464.418 309.535 464.074 307.051C463.921 305.79 461.895 305.407 459.946 305.369C463.424 305.14 468.087 304.49 467.973 302.847C468.011 301.471 464.686 301.318 461.551 301.471Z" fill="white"/>
<path d="M583.671 371.876H513.916C512.272 371.876 510.934 373.214 510.934 374.857V375.545H586.691V374.857C586.691 373.214 585.353 371.876 583.671 371.876Z" fill="#292969"/>
<path d="M739.465 435.095H324.028C297.655 435.095 276.25 413.691 276.25 387.318V375.545H787.243V387.318C787.243 413.691 765.838 435.095 739.465 435.095Z" fill="#F3F3F5"/>
<path d="M494.346 390.108H491.326C486.701 390.108 482.917 386.324 482.917 381.699V377.227C482.917 372.602 486.701 368.818 491.326 368.818H494.346C498.971 368.818 502.755 372.602 502.755 377.227V381.699C502.717 386.324 498.971 390.108 494.346 390.108ZM491.326 372.526C488.727 372.526 486.587 374.628 486.587 377.265V381.737C486.587 384.336 488.689 386.477 491.326 386.477H494.346C496.945 386.477 499.085 384.375 499.085 381.737V377.265C499.085 374.666 496.983 372.526 494.346 372.526H491.326Z" fill="#871FFF"/>
<path d="M485.937 400.848H467.858C464.724 400.848 462.163 398.287 462.163 395.153V365.454C462.163 365.072 462.469 364.805 462.813 364.805H490.944C491.326 364.805 491.594 365.11 491.594 365.454V395.153C491.632 398.287 489.109 400.848 485.937 400.848Z" fill="#871FFF"/>
<g opacity="0.39">
<path d="M469.425 346.649C469.578 347.414 469.655 348.063 469.769 348.675C469.884 349.287 470.037 349.86 470.19 350.395C470.495 351.465 470.878 352.421 471.375 353.376C471.413 353.491 471.489 353.606 471.566 353.72L471.719 353.988C471.757 354.103 471.833 354.217 471.871 354.294C472.024 354.714 472.139 355.134 472.215 355.555C472.33 356.358 472.292 357.16 472.139 357.925C471.986 358.689 471.68 359.415 471.26 360.027C470.839 360.677 470.266 361.25 469.578 361.518C469.616 360.753 469.616 360.142 469.54 359.53C469.463 358.918 469.387 358.345 469.234 357.81C469.119 357.275 468.967 356.778 468.814 356.319C468.737 356.09 468.623 355.899 468.546 355.708L468.393 355.44C468.317 355.287 468.202 355.096 468.126 354.943C467.438 353.567 467.132 351.962 467.361 350.471C467.476 349.707 467.705 348.981 468.049 348.331C468.355 347.719 468.814 347.108 469.425 346.649Z" fill="#EB90CE"/>
<path d="M483.873 361.556C483.95 360.791 483.911 360.18 483.835 359.568C483.759 358.957 483.682 358.383 483.529 357.848C483.415 357.313 483.262 356.778 483.109 356.358C483.032 356.128 482.918 355.937 482.841 355.746L482.688 355.478C482.612 355.326 482.497 355.134 482.421 354.982C481.733 353.606 481.427 352 481.656 350.51C481.771 349.745 482 349.019 482.344 348.369C482.688 347.719 483.147 347.146 483.759 346.649C483.911 347.414 483.988 348.063 484.103 348.675C484.217 349.286 484.37 349.86 484.523 350.395C484.829 351.465 485.211 352.421 485.708 353.376C485.746 353.491 485.823 353.606 485.899 353.72L486.052 353.988C486.09 354.102 486.167 354.217 486.205 354.294C486.358 354.714 486.472 355.134 486.549 355.555C486.663 356.358 486.625 357.16 486.472 357.925C486.319 358.689 486.014 359.415 485.631 360.027C485.135 360.715 484.599 361.288 483.873 361.556Z" fill="#EB90CE"/>
<path d="M476.687 361.556C476.764 360.791 476.726 360.18 476.649 359.568C476.573 358.957 476.496 358.383 476.343 357.848C476.229 357.313 476.076 356.778 475.923 356.358C475.847 356.128 475.732 355.937 475.655 355.746L475.503 355.478C475.426 355.326 475.311 355.134 475.235 354.982C474.547 353.606 474.241 352 474.471 350.51C474.585 349.745 474.815 349.019 475.159 348.369C475.503 347.719 475.961 347.146 476.573 346.649C476.726 347.414 476.802 348.063 476.917 348.675C477.031 349.286 477.184 349.86 477.337 350.395C477.643 351.465 478.025 352.421 478.522 353.376C478.56 353.491 478.637 353.606 478.713 353.72L478.866 353.988C478.904 354.102 478.981 354.217 479.019 354.294C479.172 354.714 479.287 355.134 479.363 355.555C479.478 356.358 479.439 357.16 479.287 357.925C479.134 358.689 478.828 359.415 478.446 360.027C477.949 360.715 477.414 361.288 476.687 361.556Z" fill="#EB90CE"/>
</g>
<path d="M485.631 375.43H468.508V377.112H485.631V375.43Z" fill="#CFA5FF"/>
<path d="M485.631 380.094H468.508V381.775H485.631V380.094Z" fill="#CFA5FF"/>
<path d="M575.721 381.279H573.848C570.676 381.279 568.077 378.68 568.077 375.507V372.717C568.077 369.544 570.676 366.945 573.848 366.945H575.721C578.894 366.945 581.493 369.544 581.493 372.717V375.507C581.493 378.718 578.932 381.279 575.721 381.279ZM573.848 370.271C572.51 370.271 571.402 371.379 571.402 372.717V375.507C571.402 376.845 572.51 377.953 573.848 377.953H575.721C577.059 377.953 578.167 376.845 578.167 375.507V372.717C578.167 371.379 577.059 370.271 575.721 370.271H573.848Z" fill="#CBD7D7"/>
<path d="M572.51 386.706H557.604C556.19 382.731 554.661 370.194 554.966 365.34H575.148C575.224 369.888 574.001 382.54 572.51 386.706Z" fill="#CBD7D7"/>
<path d="M580.422 391.14H551.947C550.418 391.14 548.927 390.49 547.895 389.382L545.908 387.279C545.717 387.05 545.87 386.706 546.137 386.706H586.232C586.538 386.706 586.691 387.05 586.462 387.279L584.474 389.382C583.442 390.49 581.99 391.14 580.422 391.14Z" fill="#3D6ACC"/>
<path d="M546.099 387.47H546.137H586.232C586.27 387.47 586.27 387.47 586.27 387.47L586.462 387.279C586.653 387.05 586.5 386.706 586.232 386.706H546.137C545.831 386.706 545.678 387.05 545.908 387.279L546.099 387.47Z" fill="#3D6ACC"/>
<path opacity="0.58" d="M584.818 392.401H547.169C546.825 392.401 546.558 392.134 546.558 391.79C546.558 391.446 546.825 391.178 547.169 391.178H584.818C585.162 391.178 585.43 391.446 585.43 391.79C585.43 392.095 585.162 392.401 584.818 392.401Z" fill="#B6DBED"/>
<path opacity="0.58" d="M492.129 402.377H462.163C461.819 402.377 461.551 402.109 461.551 401.765V401.46C461.551 401.116 461.819 400.848 462.163 400.848H492.129C492.473 400.848 492.741 401.116 492.741 401.46V401.765C492.741 402.109 492.473 402.377 492.129 402.377Z" fill="#9CCDE2"/>
<path d="M644.139 93.0068H622.582C617.842 93.0068 614.02 89.1846 614.02 84.445V62.8877C614.02 58.1481 617.842 54.3259 622.582 54.3259H644.139C648.878 54.3259 652.701 58.1481 652.701 62.8877V84.445C652.739 89.1846 648.878 93.0068 644.139 93.0068Z" fill="#FA7454"/>
<path d="M631.258 75.3483C631.182 74.8514 631.105 74.3927 631.105 73.8958C631.105 72.4434 631.717 71.1438 633.666 69.6531C635.501 68.2389 636.112 67.6274 636.112 66.5954C636.112 65.5251 635.386 64.6843 633.475 64.6843C630.914 64.6843 629.232 65.6398 628.774 65.6398C628.238 65.6398 627.933 64.7225 627.933 63.958C627.933 63.2318 628.277 62.7349 629.347 62.4292C630.646 62.0852 631.984 61.894 633.513 61.894C637.374 61.894 639.246 63.8816 639.246 66.4425C639.246 68.3918 638.367 69.8443 636.036 71.4878C633.819 73.0167 633.59 74.2016 633.59 75.5394C633.59 75.9598 633.284 76.0362 632.405 76.0362C631.602 76.0362 631.373 75.9598 631.258 75.3483ZM630.838 80.3171C630.838 78.9794 631.258 78.2914 632.672 78.2914C634.048 78.2914 634.545 78.8647 634.545 80.3171C634.545 81.7314 634.048 82.3429 632.672 82.3429C631.258 82.3429 630.838 81.7314 630.838 80.3171Z" fill="white"/>
<path d="M713.206 139.867H693.331V141.205H713.206V139.867Z" fill="white"/>
<path d="M713.206 148.199H693.331V149.537H713.206V148.199Z" fill="white"/>
<path d="M520.49 119.724H498.933C494.193 119.724 490.371 115.902 490.371 111.162V89.605C490.371 84.8654 494.193 81.0432 498.933 81.0432H520.49C525.23 81.0432 529.052 84.8654 529.052 89.605V111.162C529.052 115.902 525.23 119.724 520.49 119.724Z" fill="#E34998"/>
<path d="M507.877 108.334C507.877 106.996 508.297 106.308 509.711 106.308C511.087 106.308 511.584 106.881 511.584 108.334C511.584 109.748 511.087 110.36 509.711 110.36C508.259 110.36 507.877 109.748 507.877 108.334ZM508.565 103.059C508.335 99.084 508.106 94.6884 508.106 90.9809C508.106 90.2547 508.488 90.1782 509.711 90.1782C510.973 90.1782 511.355 90.2547 511.355 90.9809C511.355 94.6884 511.087 99.084 510.896 103.059C510.858 103.556 510.59 103.594 509.75 103.594C508.87 103.632 508.603 103.556 508.565 103.059Z" fill="white"/>
<path d="M535.473 151.754C537.499 151.754 539.142 150.111 539.142 148.085C539.142 146.059 537.499 144.416 535.473 144.416C535.358 144.416 535.282 144.416 535.167 144.416C534.403 142.237 532.377 140.708 529.931 140.708C527.523 140.708 525.459 142.275 524.694 144.416C524.542 144.416 524.389 144.377 524.236 144.377C523.662 144.377 523.089 144.53 522.592 144.76C521.79 143.269 520.222 142.237 518.388 142.237C515.75 142.237 513.648 144.377 513.648 146.976C513.648 149.614 515.789 151.716 518.388 151.716H535.473V151.754Z" fill="#FA7454"/>
<path d="M559.362 50.8094C556.457 50.8094 554.125 48.4779 554.125 45.573C554.125 42.6681 556.457 40.3365 559.362 40.3365C559.515 40.3365 559.668 40.3365 559.821 40.3748C560.891 37.317 563.796 35.1001 567.236 35.1001C570.676 35.1001 573.619 37.317 574.689 40.413C574.918 40.3748 575.109 40.3748 575.339 40.3748C576.18 40.3748 576.944 40.5659 577.632 40.9099C578.779 38.8076 580.996 37.3552 583.595 37.3552C587.341 37.3552 590.36 40.3748 590.36 44.1205C590.36 47.8663 587.341 50.8859 583.595 50.8859H559.362V50.8094Z" fill="#D6219C"/>
<path d="M653.083 131.993C656.332 131.993 658.931 129.356 658.931 126.145C658.931 122.896 656.293 120.297 653.083 120.297C652.395 120.297 651.707 120.412 651.095 120.641C650.063 116.743 646.547 113.876 642.342 113.876C638.291 113.876 634.851 116.552 633.704 120.259C632.749 119.686 631.678 119.38 630.493 119.38C627.015 119.38 624.187 122.208 624.187 125.687C624.187 129.165 627.015 131.993 630.493 131.993H653.083Z" fill="#B779FF"/>
<path d="M433.84 66.5188C437.968 66.5188 441.332 63.1553 441.332 59.0273C441.332 54.8993 437.968 51.5357 433.84 51.5357C432.923 51.5357 432.082 51.6886 431.279 51.9944C429.98 47.0255 425.431 43.3562 420.042 43.3562C414.844 43.3562 410.41 46.7962 408.958 51.5357C407.735 50.8095 406.32 50.3891 404.83 50.3891C400.358 50.3891 396.727 54.0202 396.727 58.4922C396.727 62.9642 400.358 66.5953 404.83 66.5953H433.84V66.5188Z" fill="#FCAC98"/>
<path d="M370.544 323.563C369.78 323.295 368.977 323.181 368.251 323.143C367.487 323.104 366.76 323.181 366.034 323.257C364.582 323.487 363.167 323.907 361.868 324.519C361.524 324.671 361.218 324.824 360.912 325.015C360.607 325.207 360.301 325.398 359.995 325.589C359.689 325.78 359.383 326.009 359.116 326.2C358.848 326.43 358.543 326.659 358.275 326.888L357.472 327.615L356.708 328.379L355.943 329.143L355.217 329.946C354.72 330.481 354.223 330.94 353.727 331.475C353.497 331.743 353.23 331.972 352.962 332.201L352.58 332.545L352.236 332.927C351.777 333.424 351.242 333.921 350.783 334.418C350.325 334.915 349.866 335.45 349.407 335.947C348.949 336.444 348.528 337.017 348.07 337.514C347.687 337.935 347.382 338.355 347.038 338.814V312.173C347.152 312.096 347.229 312.02 347.305 311.905C348.375 310.529 349.675 309.344 351.051 308.351C351.739 307.854 352.465 307.357 353.23 306.936C353.612 306.707 353.994 306.516 354.376 306.363C354.567 306.287 354.797 306.21 354.988 306.134C355.217 306.057 355.408 306.019 355.638 305.943C356.058 305.828 356.517 305.751 356.937 305.675C357.167 305.637 357.358 305.599 357.587 305.56C357.816 305.522 358.007 305.484 358.237 305.446C358.466 305.407 358.657 305.369 358.848 305.293C359.039 305.255 359.269 305.178 359.46 305.14C359.842 305.025 360.224 304.872 360.607 304.719C361.333 304.375 362.021 303.993 362.671 303.458C363.32 302.923 363.932 302.311 364.505 301.318L364.582 301.165C364.62 301.088 364.658 301.05 364.696 300.974C365.193 299.903 364.735 298.604 363.664 298.069C363.091 297.801 362.556 297.687 362.021 297.61C361.486 297.534 360.951 297.572 360.454 297.61C359.46 297.725 358.504 298.031 357.625 298.451C357.205 298.68 356.784 298.91 356.402 299.215C356.02 299.521 355.638 299.827 355.294 300.171C354.606 300.859 353.994 301.662 353.383 302.388C353.077 302.77 352.733 303.114 352.427 303.42C352.083 303.764 351.739 304.031 351.395 304.337C351.051 304.643 350.707 304.949 350.363 305.216C350.019 305.522 349.675 305.828 349.331 306.095C348.681 306.669 347.993 307.242 347.305 307.777C347.305 307.701 347.305 307.586 347.305 307.51C346.923 304.834 346.847 302.197 346.923 299.521C346.999 296.884 347.114 294.208 347.764 291.571C347.917 290.921 348.108 290.271 348.299 289.622C348.49 288.972 348.643 288.322 348.796 287.672C349.102 286.373 349.331 285.073 349.407 283.774C349.446 283.124 349.484 282.474 349.484 281.824C349.484 281.175 349.446 280.525 349.369 279.875C349.293 279.225 349.178 278.575 349.025 277.926C348.872 277.276 348.681 276.588 348.337 275.9L348.261 275.785C348.146 275.556 347.955 275.327 347.764 275.135C346.885 274.371 345.547 274.447 344.783 275.327C344.515 275.632 344.286 275.938 344.095 276.282C343.903 276.588 343.712 276.932 343.521 277.276C343.177 277.926 342.948 278.614 342.719 279.263C342.527 279.951 342.336 280.601 342.222 281.289C342.107 281.977 342.031 282.665 341.992 283.353C341.916 284.729 342.031 286.105 342.26 287.443C342.489 288.819 342.795 290.157 343.101 291.533C343.674 294.247 343.789 296.922 343.903 299.598C343.98 301.7 344.018 303.802 343.903 305.904C343.063 305.102 342.26 304.337 341.419 303.535C340.655 302.77 339.89 302.044 339.126 301.279C338.361 300.553 337.635 299.712 336.947 298.833C336.603 298.413 336.259 297.954 335.915 297.495C335.571 297.075 335.189 296.616 334.845 296.196C334.08 295.393 333.278 294.629 332.36 294.055C331.443 293.444 330.449 292.947 329.379 292.641C328.844 292.488 328.271 292.374 327.697 292.297C327.391 292.259 327.086 292.259 326.78 292.259C326.474 292.259 326.168 292.297 325.786 292.335C325.633 292.374 325.442 292.412 325.289 292.45C324.295 292.871 323.799 294.017 324.219 295.011L324.334 295.317C324.563 295.89 324.907 296.349 325.213 296.807C325.557 297.228 325.901 297.648 326.245 297.992C326.971 298.719 327.774 299.33 328.615 299.827C329.035 300.095 329.494 300.324 329.952 300.553C330.411 300.783 330.87 300.974 331.367 301.165C332.322 301.547 333.354 301.853 334.31 302.235C335.303 302.617 336.221 303.114 337.062 303.687C337.903 304.299 338.743 304.872 339.508 305.56C341.075 306.86 342.527 308.351 343.674 310.071L343.712 310.109L343.751 310.147V327.806L343.139 327.194C342.871 326.888 342.566 326.659 342.298 326.391L341.457 325.589C341.304 325.474 341.19 325.321 341.037 325.168L340.578 324.786L339.699 324.022L339.24 323.639L338.782 323.257L337.864 322.531C337.253 321.996 336.603 321.575 335.991 321.079C335.38 320.582 334.73 320.161 334.08 319.703C333.469 319.206 332.819 318.747 332.207 318.25C331.596 317.753 330.946 317.256 330.335 316.759C329.723 316.263 329.035 315.804 328.385 315.307C327.047 314.39 325.633 313.625 324.181 313.052C322.69 312.479 321.161 312.058 319.594 311.829C318.027 311.638 316.422 311.561 314.74 311.905C314.396 311.982 314.052 312.135 313.784 312.44C313.058 313.167 313.058 314.351 313.823 315.078L313.861 315.116C314.472 315.727 315.122 316.186 315.772 316.607C316.422 317.065 317.071 317.409 317.721 317.753C319.059 318.441 320.397 319.015 321.773 319.511C322.461 319.741 323.149 319.97 323.837 320.161C324.525 320.352 325.251 320.505 325.977 320.696C326.703 320.849 327.43 321.002 328.156 321.193C328.882 321.384 329.608 321.537 330.296 321.805C330.984 322.034 331.711 322.302 332.36 322.607C333.01 322.913 333.698 323.257 334.31 323.639C335.571 324.366 336.794 325.207 337.941 326.124C340.234 327.959 342.26 330.099 343.751 332.622V352C342.948 351.274 342.183 350.51 341.419 349.783C340.655 349.019 339.89 348.293 339.126 347.528C338.361 346.802 337.635 345.961 336.947 345.082C336.603 344.662 336.259 344.203 335.915 343.744C335.571 343.324 335.189 342.865 334.845 342.445C334.08 341.642 333.278 340.878 332.36 340.304C331.443 339.693 330.449 339.196 329.379 338.89C328.844 338.737 328.271 338.623 327.697 338.546C327.391 338.508 327.086 338.508 326.78 338.508C326.474 338.508 326.168 338.546 325.786 338.584C325.633 338.622 325.442 338.661 325.289 338.699C324.295 339.119 323.799 340.266 324.219 341.26L324.334 341.566C324.563 342.139 324.907 342.598 325.213 343.056C325.557 343.477 325.901 343.897 326.245 344.241C326.971 344.967 327.774 345.579 328.615 346.076C329.035 346.343 329.494 346.573 329.952 346.802C330.411 347.031 330.87 347.223 331.367 347.414C332.322 347.796 333.354 348.102 334.31 348.484C335.303 348.866 336.221 349.363 337.062 349.936C337.903 350.548 338.743 351.121 339.508 351.809C341.075 353.109 342.527 354.599 343.674 356.319L343.712 356.358L343.751 356.396V375.239H347.076V344.318C347.114 344.279 347.114 344.241 347.152 344.203L347.191 344.126C348.223 341.795 349.751 339.654 351.471 337.82C351.93 337.361 352.389 336.941 352.847 336.482C353.344 336.062 353.841 335.641 354.338 335.259C354.835 334.839 355.37 334.495 355.905 334.151C356.44 333.807 357.014 333.539 357.625 333.271C357.931 333.157 358.199 333.004 358.504 332.889L359.422 332.583L360.339 332.278L361.256 332.01C361.562 331.934 361.868 331.819 362.135 331.704C362.441 331.628 362.747 331.513 363.015 331.437C363.32 331.322 363.588 331.207 363.855 331.093C364.161 330.978 364.429 330.863 364.696 330.749C365.805 330.252 366.913 329.755 367.945 329.105C369.015 328.455 370.047 327.767 371.118 326.774L371.232 326.659C371.462 326.468 371.615 326.2 371.729 325.895C372.073 324.977 371.538 323.907 370.544 323.563Z" fill="#292969"/>
<path d="M519.764 228.657H467.247V237.525H519.764V228.657Z" fill="#D6219C"/>
<path d="M608.936 286.564H556.419V295.432H608.936V286.564Z" fill="#292969"/>
<path d="M627.971 228.237H556.266V275.632H627.971V228.237Z" fill="#F79CA6"/>
<path d="M544.723 244.176H467.247V248.609H544.723V244.176Z" fill="white"/>
<path d="M544.723 253.463H467.247V257.897H544.723V253.463Z" fill="white"/>
<path d="M544.723 262.751H467.247V267.185H544.723V262.751Z" fill="white"/>
<path d="M544.723 272.04H467.247V276.473H544.723V272.04Z" fill="white"/>
<path d="M544.723 281.366H467.247V285.799H544.723V281.366Z" fill="white"/>
<path d="M544.723 296.349H467.247V300.782H544.723V296.349Z" fill="#59BCF0"/>
<path d="M544.723 305.637H467.247V310.07H544.723V305.637Z" fill="#59BCF0"/>
<path d="M329.157 210.681H307.562C302.822 210.681 299 206.859 299 202.119V180.562C299 175.822 302.822 172 307.562 172H329.119C333.859 172 337.681 175.822 337.681 180.562V202.119C337.719 206.82 333.897 210.681 329.157 210.681Z" fill="#80C8F6"/>
<path d="M322.726 179.75C323.251 179.925 323.426 180.45 323.251 180.8L314.501 203.55C314.326 204.075 313.801 204.25 313.451 204.075C312.926 203.9 312.751 203.375 312.926 203.025L321.676 180.275C321.676 179.925 322.201 179.575 322.726 179.75ZM310.826 185.175C311.001 185.525 311.001 186.225 310.826 186.575L306.101 191.125L310.651 195.675C311.001 196.025 311.001 196.55 310.651 196.9C310.301 197.25 309.776 197.25 309.426 196.9L304.176 191.65C304.001 191.475 304.001 190.775 304.176 190.425L309.426 185.175C309.776 185 310.476 185 310.826 185.175ZM326.576 185.175C326.226 184.825 325.701 184.825 325.351 185.175C325.001 185.525 325.001 186.05 325.351 186.4L329.901 190.95L325.351 195.5C325.001 195.85 325.001 196.375 325.351 196.725C325.701 197.075 326.226 197.075 326.576 196.725L331.826 191.475C332.176 191.125 332.176 190.6 331.826 190.25L326.576 185.175Z" fill="white"/>
<path d="M713.119 164.681H691.562C686.822 164.681 683 160.859 683 156.119V134.562C683 129.822 686.822 126 691.562 126H713.119C717.859 126 721.681 129.822 721.681 134.562V156.119C721.681 160.859 717.859 164.681 713.119 164.681Z" fill="#440291"/>
<path fill-rule="evenodd" clip-rule="evenodd" d="M706.876 135.125L711.876 140.125C712.001 140.375 712.001 140.875 711.876 141L698.126 154.75C697.876 155 697.501 155 697.251 154.75L692.251 149.75C692.001 149.5 692.001 149.125 692.251 148.875L695.376 145.75L697.876 143.25L700.376 140.75L702.876 138.25L706.001 135.125C706.251 134.875 706.626 134.875 706.876 135.125ZM693.501 149.375L697.626 153.5L710.501 140.625L706.376 136.5L704.126 138.75L705.501 140.125C705.751 140.375 705.751 140.75 705.501 141C705.251 141.25 704.876 141.25 704.626 141L703.251 139.625L701.626 141.25L703.126 142.625C703.251 142.875 703.251 143.375 703.126 143.625C702.876 143.75 702.376 143.75 702.126 143.5L700.751 142.125L699.126 143.75L700.626 145.125C700.751 145.375 700.751 145.875 700.626 146.125C700.376 146.25 699.876 146.25 699.626 146L698.251 144.625L696.626 146.25L698.001 147.625C698.251 147.875 698.251 148.25 698.001 148.5C697.751 148.75 697.376 148.75 697.126 148.5L695.751 147.125L693.501 149.375ZM695.25 143C695.5 143.25 695.875 143.25 696.125 143C696.375 142.75 696.375 142.375 696.125 142.125L693.5 139.375L696.375 136.5L699 139.125C699.25 139.375 699.625 139.375 699.875 139.125C700.125 138.875 700.125 138.5 699.875 138.25L696.875 135.125C696.625 135 696.125 135 695.875 135.125L692.125 138.875C692 139.125 692 139.625 692.125 139.875L695.25 143ZM710.626 148.875L708.751 147C708.501 146.75 708.126 146.75 707.876 147C707.626 147.25 707.626 147.625 707.876 147.875L709.626 149.625L710.626 153.5L706.751 152.5L705.001 150.75C704.751 150.5 704.376 150.5 704.126 150.75C703.876 151 703.876 151.375 704.126 151.625L706.001 153.5C706.073 153.572 706.103 153.603 706.14 153.616C706.167 153.625 706.198 153.625 706.251 153.625L711.251 154.875C711.501 154.875 711.751 154.875 711.876 154.75C712.001 154.625 712.126 154.375 712.001 154.125L710.751 149.125C710.751 149.125 710.626 149 710.626 148.875Z" fill="white"/>
</g>
<defs>
<filter id="filter0_ddd" x="0" y="0" width="1056" height="474.608" filterUnits="userSpaceOnUse" color-interpolation-filters="sRGB">
<feFlood flood-opacity="0" result="BackgroundImageFix"/>
<feColorMatrix in="SourceAlpha" type="matrix" values="0 0 0 0 0 0 0 0 0 0 0 0 0 0 0 0 0 0 127 0"/>
<feOffset dy="2"/>
<feGaussianBlur stdDeviation="8"/>
<feColorMatrix type="matrix" values="0 0 0 0 0.0745098 0 0 0 0 0.0784314 0 0 0 0 0.0823529 0 0 0 0.1 0"/>
<feBlend mode="normal" in2="BackgroundImageFix" result="effect1_dropShadow"/>
<feColorMatrix in="SourceAlpha" type="matrix" values="0 0 0 0 0 0 0 0 0 0 0 0 0 0 0 0 0 0 127 0"/>
<feOffset dy="8"/>
<feGaussianBlur stdDeviation="4"/>
<feColorMatrix type="matrix" values="0 0 0 0 0.0745098 0 0 0 0 0.0784314 0 0 0 0 0.0823529 0 0 0 0.05 0"/>
<feBlend mode="normal" in2="effect1_dropShadow" result="effect2_dropShadow"/>
<feColorMatrix in="SourceAlpha" type="matrix" values="0 0 0 0 0 0 0 0 0 0 0 0 0 0 0 0 0 0 127 0"/>
<feOffset dy="4"/>
<feGaussianBlur stdDeviation="2"/>
<feColorMatrix type="matrix" values="0 0 0 0 0.0745098 0 0 0 0 0.0784314 0 0 0 0 0.0823529 0 0 0 0.05 0"/>
<feBlend mode="normal" in2="effect2_dropShadow" result="effect3_dropShadow"/>
<feBlend mode="normal" in="SourceGraphic" in2="effect3_dropShadow" result="shape"/>
</filter>
<filter id="filter1_i" x="267.743" y="35" width="520.257" height="404.1" filterUnits="userSpaceOnUse" color-interpolation-filters="sRGB">
<feFlood flood-opacity="0" result="BackgroundImageFix"/>
<feBlend mode="normal" in="SourceGraphic" in2="BackgroundImageFix" result="shape"/>
<feColorMatrix in="SourceAlpha" type="matrix" values="0 0 0 0 0 0 0 0 0 0 0 0 0 0 0 0 0 0 127 0" result="hardAlpha"/>
<feOffset dy="4"/>
<feGaussianBlur stdDeviation="2"/>
<feComposite in2="hardAlpha" operator="arithmetic" k2="-1" k3="1"/>
<feColorMatrix type="matrix" values="0 0 0 0 0 0 0 0 0 0 0 0 0 0 0 0 0 0 0.25 0"/>
<feBlend mode="normal" in2="shape" result="effect1_innerShadow"/>
</filter>
<linearGradient id="paint0_linear" x1="65.7169" y1="437.256" x2="1000.17" y2="437.256" gradientUnits="userSpaceOnUse">
<stop stop-color="#7FC6F4"/>
<stop offset="1" stop-color="#D5279B"/>
</linearGradient>
<linearGradient id="paint1_linear" x1="544.7" y1="72.8496" x2="544.7" y2="361.312" gradientUnits="userSpaceOnUse">
<stop stop-color="#FFA58D"/>
<stop offset="1" stop-color="#F48191"/>
</linearGradient>
<linearGradient id="paint2_linear" x1="385.698" y1="375.532" x2="385.698" y2="198.602" gradientUnits="userSpaceOnUse">
<stop stop-color="#8D79E6"/>
<stop offset="1" stop-color="#57BDF0"/>
</linearGradient>
<linearGradient id="paint3_linear" x1="556.421" y1="376.761" x2="749.879" y2="376.761" gradientUnits="userSpaceOnUse">
<stop stop-color="#7FC6F4"/>
<stop offset="1" stop-color="#D5279B"/>
</linearGradient>
<linearGradient id="paint4_linear" x1="492.872" y1="373.328" x2="548.505" y2="373.328" gradientUnits="userSpaceOnUse">
<stop stop-color="#7FC6F4"/>
<stop offset="1" stop-color="#8728FB"/>
</linearGradient>
</defs>
</svg>
