<svg width="25" height="25" viewBox="0 0 25 25" fill="none" xmlns="http://www.w3.org/2000/svg">
<path fill-rule="evenodd" clip-rule="evenodd" d="M17.8512 0.758325L23.8512 6.75833C24.0012 7.05833 24.0012 7.65833 23.8512 7.80833L7.35117 24.3083C7.05117 24.6083 6.60117 24.6083 6.30117 24.3083L0.301172 18.3083C0.00117189 18.0083 0.00117189 17.5583 0.301172 17.2583L16.8012 0.758325C17.1012 0.458325 17.5512 0.458325 17.8512 0.758325ZM1.80117 17.8583L6.75117 22.8083L22.2012 7.35833L17.2512 2.40833L14.5512 5.10833L16.2012 6.75833C16.5012 7.05833 16.5012 7.50833 16.2012 7.80833C15.9012 8.10833 15.4512 8.10833 15.1512 7.80833L13.5012 6.15833L11.5512 8.10833L13.3512 9.75833C13.5012 10.0583 13.5012 10.6583 13.3512 10.9583C13.0512 11.1083 12.4512 11.1083 12.1512 10.8083L10.5012 9.15833L8.55117 11.1083L10.3512 12.7583C10.5012 13.0583 10.5012 13.6583 10.3512 13.9583C10.0512 14.1083 9.45117 14.1083 9.15117 13.8083L7.50117 12.1583L5.55117 14.1083L7.20117 15.7583C7.50117 16.0583 7.50117 16.5083 7.20117 16.8083C6.90117 17.1083 6.45117 17.1083 6.15117 16.8083L4.50117 15.1583L1.80117 17.8583Z" fill="black"/>
<path d="M3.90059 10.2086C4.20059 10.5086 4.65059 10.5086 4.95059 10.2086C5.25059 9.90862 5.25059 9.45862 4.95059 9.15862L1.80059 5.85862L5.25059 2.40862L8.40059 5.55862C8.70059 5.85862 9.15059 5.85862 9.45059 5.55862C9.75059 5.25862 9.75059 4.80862 9.45059 4.50862L5.85059 0.758618C5.55059 0.608618 4.95059 0.608618 4.65059 0.758618L0.150586 5.25862C0.000585943 5.55862 0.000585943 6.15862 0.150586 6.45862L3.90059 10.2086Z" fill="black"/>
<path d="M22.3512 17.2583L20.1012 15.0083C19.8012 14.7083 19.3512 14.7083 19.0512 15.0083C18.7512 15.3083 18.7512 15.7583 19.0512 16.0583L21.1512 18.1583L22.3512 22.8083L17.7012 21.6083L15.6012 19.5083C15.3012 19.2083 14.8512 19.2083 14.5512 19.5083C14.2512 19.8083 14.2512 20.2583 14.5512 20.5583L16.8012 22.8083C16.8874 22.8946 16.9241 22.9312 16.9682 22.9468C17.0008 22.9583 17.0374 22.9583 17.1012 22.9583L23.1012 24.4583C23.4012 24.4583 23.7012 24.4583 23.8512 24.3083C24.0012 24.1583 24.1512 23.8583 24.0012 23.5583L22.5012 17.5583C22.5012 17.5583 22.3512 17.4083 22.3512 17.2583Z" fill="black"/>
</svg>
