<svg width="1056" height="475" viewBox="0 0 1056 475" fill="none" xmlns="http://www.w3.org/2000/svg">
<g opacity="0.5" filter="url(#filter0_ddd)">
<rect x="16" y="14" width="1024" height="442.608" rx="12" fill="url(#paint0_linear)"/>
</g>
<g filter="url(#filter1_i)">
<path d="M841.569 172.051C796.256 172.051 757.587 200.687 742.378 240.982C737.78 239.156 732.775 238.142 727.534 238.142C705.148 238.142 687 256.435 687 279H735.47H768.068H947.668C947.666 219.933 900.165 172.051 841.569 172.051ZM999.744 110.138C996.102 110.138 992.727 111.277 989.942 113.218C984.954 104.211 975.41 98.1156 964.45 98.1156C953.36 98.1156 943.717 104.351 938.778 113.531C932.919 95.2347 915.889 82 895.788 82C870.841 82 850.619 102.384 850.619 127.531H935.268H940.957H982.488H993.631H1017C1017 117.926 1009.27 110.138 999.744 110.138Z" fill="url(#paint1_linear)"/>
</g>
<g filter="url(#filter2_i)">
<path d="M605.561 94.9975H584C584 85.5037 592.073 77.8065 602.031 77.8065C604.366 77.8065 606.593 78.2336 608.642 79.0043C615.408 62.0514 632.605 50 652.76 50C673.764 50 691.556 63.0872 697.678 81.1716C702.837 72.0926 712.916 65.927 724.506 65.927C741.348 65.927 755 78.9429 755 95H699.959H694.015H620.062L605.561 94.9975Z" fill="url(#paint2_linear)"/>
</g>
<g filter="url(#filter3_i)">
<path d="M67.4346 142.998H46C46 133.504 54.0261 125.807 63.9257 125.807C66.247 125.807 68.4609 126.234 70.4981 127.004C77.2241 110.051 94.3206 98 114.358 98C135.24 98 152.927 111.087 159.013 129.172C164.142 120.093 174.162 113.927 185.684 113.927C202.428 113.927 216 126.943 216 143H161.281H155.371H81.8514L67.4346 142.998Z" fill="url(#paint3_linear)"/>
</g>
<path d="M171.981 200.594L194.955 191.146V187.63L168.808 198.543V202.645L194.955 213.558V210.042L171.981 200.594ZM202.304 181.185V217H205.648V202.742C205.648 197.762 208.969 194.051 214.145 194.051C218.563 194.051 220.736 196.736 220.736 201.302V217H224.105V200.032C224.105 194.319 220.712 190.926 214.877 190.926C210.482 190.926 207.357 192.83 205.648 196.517V181.185H202.304ZM245.004 182.479H241.952C238.998 185.506 235.336 187.459 231.308 188.118V191.585C235.336 190.926 238.852 189.363 241.586 186.653V213.729H232.138V217H254.452V213.729H245.004V182.479ZM280.722 200.594L257.772 210.042V213.558L283.896 202.645V198.543L257.772 187.63V191.146L280.722 200.594ZM291.269 181.185V217H294.613V202.742C294.613 197.762 297.934 194.051 303.109 194.051C307.528 194.051 309.701 196.736 309.701 201.302V217H313.07V200.032C313.07 194.319 309.677 190.926 303.842 190.926C299.447 190.926 296.322 192.83 294.613 196.517V181.185H291.269ZM344.247 205.208V202.156C344.247 195.076 339.657 190.926 332.846 190.926C325.229 190.926 320.321 196.126 320.321 204.305C320.321 212.142 324.74 217.391 332.65 217.391C337.924 217.391 341.635 214.998 343.856 211.043L341.195 209.529C339.633 212.557 336.825 214.363 332.821 214.363C327.108 214.363 323.837 210.726 323.642 205.208H344.247ZM340.854 202.352H323.69C324.154 197.347 327.426 193.953 332.748 193.953C337.631 193.953 340.854 196.785 340.854 201.546V202.352ZM372.787 217V198.787C372.787 193.514 368.515 190.926 362.509 190.926C356.723 190.926 352.401 193.318 350.546 197.884L353.646 198.958C355.111 195.564 358.285 193.953 362.509 193.953C366.586 193.953 369.418 195.491 369.418 198.348C369.418 201.473 366.22 201.985 363.217 202.352L359.799 202.767C355.404 203.304 350.009 204.109 350.009 210.091C350.009 214.729 353.28 217.391 358.969 217.391C363.192 217.391 367.343 215.926 369.467 212.117V217H372.787ZM369.418 206.673C369.418 211.702 364.853 214.363 359.457 214.363C355.868 214.363 353.354 213.167 353.354 210.066C353.354 206.404 356.918 205.843 360.287 205.403L363.266 205.013C365.365 204.744 367.66 204.329 369.418 203.23V206.673ZM403.598 217V181.185H400.253V196.639C398.593 192.635 395.321 190.926 391.195 190.926C383.749 190.926 379.989 196.37 379.989 204.158C379.989 211.995 383.773 217.391 391.269 217.391C395.395 217.391 398.568 215.73 400.277 211.604V217H403.598ZM391.781 214.363C386.386 214.363 383.334 210.359 383.334 204.158C383.334 197.908 386.435 193.953 391.781 193.953C397.152 193.953 400.253 197.957 400.253 204.158C400.253 210.359 397.128 214.363 391.781 214.363ZM421.029 181.99H410.556V185.091H417.685V213.924H409.774V217H428.72V213.924H421.029V181.99ZM443.637 181.893H439.804V186.824H443.637V181.893ZM443.393 191.414H432.919V194.49H440.048V213.924H432.138V217H451.083V213.924H443.393V191.414ZM456.991 191.414V217H460.336V202.742C460.336 197.762 463.656 194.051 468.832 194.051C473.251 194.051 475.424 196.736 475.424 201.302V217H478.793V200.032C478.793 194.319 475.399 190.926 469.564 190.926C465.17 190.926 462.045 192.83 460.336 196.517V191.414H456.991ZM509.97 205.208V202.156C509.97 195.076 505.38 190.926 498.568 190.926C490.951 190.926 486.044 196.126 486.044 204.305C486.044 212.142 490.463 217.391 498.373 217.391C503.646 217.391 507.357 214.998 509.579 211.043L506.918 209.529C505.355 212.557 502.548 214.363 498.544 214.363C492.831 214.363 489.56 210.726 489.364 205.208H509.97ZM506.576 202.352H489.413C489.877 197.347 493.148 193.953 498.471 193.953C503.354 193.953 506.576 196.785 506.576 201.546V202.352ZM518.856 200.594L541.83 191.146V187.63L515.683 198.543V202.645L541.83 213.558V210.042L518.856 200.594ZM569.76 177.889H566.146L548.227 221.639H551.864L569.76 177.889ZM579.159 181.185V217H582.504V202.742C582.504 197.762 585.824 194.051 591 194.051C595.419 194.051 597.592 196.736 597.592 201.302V217H600.961V200.032C600.961 194.319 597.567 190.926 591.732 190.926C587.338 190.926 584.213 192.83 582.504 196.517V181.185H579.159ZM621.859 182.479H618.808C615.854 185.506 612.191 187.459 608.163 188.118V191.585C612.191 190.926 615.707 189.363 618.441 186.653V213.729H608.993V217H631.308V213.729H621.859V182.479ZM657.577 200.594L634.628 210.042V213.558L660.751 202.645V198.543L634.628 187.63V191.146L657.577 200.594Z" fill="black"/>
<path d="M211.981 280.594L234.955 271.146V267.63L208.808 278.543V282.645L234.955 293.558V290.042L211.981 280.594ZM242.304 261.185V297H245.648V282.742C245.648 277.762 248.969 274.051 254.145 274.051C258.563 274.051 260.736 276.736 260.736 281.302V297H264.105V280.032C264.105 274.319 260.712 270.926 254.877 270.926C250.482 270.926 247.357 272.83 245.648 276.517V261.185H242.304ZM296.112 297V293.777H275.8C276.508 291.043 278.876 288.577 282.05 286.38L287.299 282.742C290.814 280.301 295.258 277.249 295.258 271.219C295.258 265.555 291.327 261.99 284.809 261.99C277.313 261.99 272.602 266.629 272.431 273.611L275.873 273.904C275.995 268.411 279.438 265.164 284.564 265.164C289.008 265.164 291.791 267.605 291.791 271.316C291.791 275.809 287.763 278.519 285.419 280.154L280.512 283.572C275.58 287.015 271.796 291.336 271.796 295.804V297H296.112ZM325.36 280.594L302.411 290.042V293.558L328.534 282.645V278.543L302.411 267.63V271.146L325.36 280.594ZM352.582 271.39H343.329V263.455L339.936 264.31V271.39H333.222V274.49H339.936V289.944C339.936 295.145 342.963 297.391 347.797 297.391C349.75 297.391 351.898 297 353.827 296.341L353.339 293.484C351.728 294.021 350.141 294.314 348.7 294.314C344.916 294.314 343.329 292.386 343.329 289.383V274.49H352.582V271.39ZM370.209 261.893H366.376V266.824H370.209V261.893ZM369.965 271.414H359.491V274.49H366.62V293.924H358.71V297H377.655V293.924H369.965V271.414ZM400.238 271.39H390.985V263.455L387.592 264.31V271.39H380.878V274.49H387.592V289.944C387.592 295.145 390.619 297.391 395.453 297.391C397.406 297.391 399.555 297 401.483 296.341L400.995 293.484C399.384 294.021 397.797 294.314 396.356 294.314C392.572 294.314 390.985 292.386 390.985 289.383V274.49H400.238V271.39ZM417.377 261.99H406.903V265.091H414.032V293.924H406.122V297H425.067V293.924H417.377V261.99ZM453.485 285.208V282.156C453.485 275.076 448.896 270.926 442.084 270.926C434.467 270.926 429.56 276.126 429.56 284.305C429.56 292.142 433.979 297.391 441.889 297.391C447.162 297.391 450.873 294.998 453.095 291.043L450.434 289.529C448.871 292.557 446.063 294.363 442.06 294.363C436.347 294.363 433.075 290.726 432.88 285.208H453.485ZM450.092 282.352H432.929C433.393 277.347 436.664 273.953 441.986 273.953C446.869 273.953 450.092 276.785 450.092 281.546V282.352ZM462.372 280.594L485.346 271.146V267.63L459.198 278.543V282.645L485.346 293.558V290.042L462.372 280.594ZM513.275 257.889H509.662L491.742 301.639H495.38L513.275 257.889ZM522.675 261.185V297H526.02V282.742C526.02 277.762 529.34 274.051 534.516 274.051C538.935 274.051 541.107 276.736 541.107 281.302V297H544.477V280.032C544.477 274.319 541.083 270.926 535.248 270.926C530.854 270.926 527.729 272.83 526.02 276.517V261.185H522.675ZM576.483 297V293.777H556.171C556.879 291.043 559.247 288.577 562.421 286.38L567.67 282.742C571.186 280.301 575.629 277.249 575.629 271.219C575.629 265.555 571.698 261.99 565.18 261.99C557.685 261.99 552.973 266.629 552.802 273.611L556.244 273.904C556.366 268.411 559.809 265.164 564.936 265.164C569.379 265.164 572.162 267.605 572.162 271.316C572.162 275.809 568.134 278.519 565.79 280.154L560.883 283.572C555.951 287.015 552.167 291.336 552.167 295.804V297H576.483ZM605.731 280.594L582.782 290.042V293.558L608.905 282.645V278.543L582.782 267.63V271.146L605.731 280.594Z" fill="black"/>
<path d="M251.981 360.594L274.955 351.146V347.63L248.808 358.543V362.645L274.955 373.558V370.042L251.981 360.594ZM282.304 341.185V377H285.648V362.742C285.648 357.762 288.969 354.051 294.145 354.051C298.563 354.051 300.736 356.736 300.736 361.302V377H304.105V360.032C304.105 354.319 300.712 350.926 294.877 350.926C290.482 350.926 287.357 352.83 285.648 356.517V341.185H282.304ZM312.162 342.479V345.701H330.863L317.826 358.128L319.657 360.984C321.317 360.472 323.173 360.179 324.906 360.179C329.838 360.179 332.89 362.645 332.89 366.868C332.89 371.458 329.301 374.217 324.394 374.217C319.779 374.217 316.337 371.775 315.165 367.698L311.796 368.748C313.505 374.266 318.29 377.391 324.345 377.391C331.522 377.391 336.381 373.069 336.381 366.819C336.381 360.716 331.718 357.273 325.663 357.273C324.711 357.273 323.71 357.371 322.685 357.542L335.307 345.726V342.479H312.162ZM365.507 360.594L342.558 370.042V373.558L368.681 362.645V358.543L342.558 347.63V351.146L365.507 360.594ZM396.562 357.347C395.121 353.44 391.337 350.901 385.478 350.901C379.301 350.901 375.248 353.709 375.248 358.494C375.248 363.987 380.619 364.744 385.624 365.428C389.872 366.014 393.778 366.526 393.778 369.847C393.778 372.654 390.922 374.51 386.698 374.51C382.646 374.51 379.081 372.825 377.787 369.017L374.687 370.188C376.298 374.876 380.961 377.391 386.601 377.391C392.777 377.391 397.123 374.29 397.123 369.407C397.123 363.938 391.728 363.279 386.723 362.645C382.499 362.107 378.593 361.595 378.593 358.226C378.593 355.491 381.156 353.807 385.355 353.807C389.53 353.807 392.362 355.442 393.559 358.494L396.562 357.347ZM426.225 377V351.414H422.855V365.501C422.855 370.555 419.511 374.266 414.506 374.266C410.185 374.266 408.012 371.531 408.012 366.941V351.414H404.667V368.235C404.667 373.948 408.061 377.391 413.749 377.391C418.021 377.391 421.122 375.462 422.855 371.751V377H426.225ZM435.38 377H438.7V371.604C440.434 375.73 443.583 377.391 447.733 377.391C455.204 377.391 458.988 371.971 458.988 364.158C458.988 356.321 455.18 350.926 447.782 350.926C443.656 350.926 440.385 352.635 438.725 356.639V341.185H435.38V377ZM447.221 374.363C441.825 374.363 438.725 370.335 438.725 364.158C438.725 357.981 441.85 353.953 447.221 353.953C452.567 353.953 455.644 357.933 455.644 364.158C455.644 370.457 452.519 374.363 447.221 374.363ZM483.109 351.39H473.856V343.455L470.463 344.31V351.39H463.749V354.49H470.463V369.944C470.463 375.145 473.49 377.391 478.324 377.391C480.277 377.391 482.426 377 484.354 376.341L483.866 373.484C482.255 374.021 480.668 374.314 479.228 374.314C475.443 374.314 473.856 372.386 473.856 369.383V354.49H483.109V351.39ZM500.736 341.893H496.903V346.824H500.736V341.893ZM500.492 351.414H490.019V354.49H497.147V373.924H489.237V377H508.183V373.924H500.492V351.414ZM530.766 351.39H521.513V343.455L518.119 344.31V351.39H511.405V354.49H518.119V369.944C518.119 375.145 521.146 377.391 525.98 377.391C527.934 377.391 530.082 377 532.011 376.341L531.522 373.484C529.911 374.021 528.324 374.314 526.884 374.314C523.1 374.314 521.513 372.386 521.513 369.383V354.49H530.766V351.39ZM547.904 341.99H537.431V345.091H544.56V373.924H536.649V377H555.595V373.924H547.904V341.99ZM584.013 365.208V362.156C584.013 355.076 579.423 350.926 572.611 350.926C564.994 350.926 560.087 356.126 560.087 364.305C560.087 372.142 564.506 377.391 572.416 377.391C577.689 377.391 581.4 374.998 583.622 371.043L580.961 369.529C579.398 372.557 576.591 374.363 572.587 374.363C566.874 374.363 563.603 370.726 563.407 365.208H584.013ZM580.619 362.352H563.456C563.92 357.347 567.191 353.953 572.514 353.953C577.396 353.953 580.619 356.785 580.619 361.546V362.352ZM592.899 360.594L615.873 351.146V347.63L589.726 358.543V362.645L615.873 373.558V370.042L592.899 360.594ZM643.803 337.889H640.189L622.27 381.639H625.907L643.803 337.889ZM653.202 341.185V377H656.547V362.742C656.547 357.762 659.867 354.051 665.043 354.051C669.462 354.051 671.635 356.736 671.635 361.302V377H675.004V360.032C675.004 354.319 671.61 350.926 665.775 350.926C661.381 350.926 658.256 352.83 656.547 356.517V341.185H653.202ZM683.061 342.479V345.701H701.762L688.725 358.128L690.556 360.984C692.216 360.472 694.071 360.179 695.805 360.179C700.736 360.179 703.788 362.645 703.788 366.868C703.788 371.458 700.199 374.217 695.292 374.217C690.678 374.217 687.235 371.775 686.063 367.698L682.694 368.748C684.403 374.266 689.188 377.391 695.243 377.391C702.421 377.391 707.279 373.069 707.279 366.819C707.279 360.716 702.616 357.273 696.562 357.273C695.609 357.273 694.608 357.371 693.583 357.542L706.205 345.726V342.479H683.061ZM736.405 360.594L713.456 370.042V373.558L739.579 362.645V358.543L713.456 347.63V351.146L736.405 360.594Z" fill="black"/>
<defs>
<filter id="filter0_ddd" x="0" y="0" width="1056" height="474.608" filterUnits="userSpaceOnUse" color-interpolation-filters="sRGB">
<feFlood flood-opacity="0" result="BackgroundImageFix"/>
<feColorMatrix in="SourceAlpha" type="matrix" values="0 0 0 0 0 0 0 0 0 0 0 0 0 0 0 0 0 0 127 0"/>
<feOffset dy="2"/>
<feGaussianBlur stdDeviation="8"/>
<feColorMatrix type="matrix" values="0 0 0 0 0.0745098 0 0 0 0 0.0784314 0 0 0 0 0.0823529 0 0 0 0.1 0"/>
<feBlend mode="normal" in2="BackgroundImageFix" result="effect1_dropShadow"/>
<feColorMatrix in="SourceAlpha" type="matrix" values="0 0 0 0 0 0 0 0 0 0 0 0 0 0 0 0 0 0 127 0"/>
<feOffset dy="8"/>
<feGaussianBlur stdDeviation="4"/>
<feColorMatrix type="matrix" values="0 0 0 0 0.0745098 0 0 0 0 0.0784314 0 0 0 0 0.0823529 0 0 0 0.05 0"/>
<feBlend mode="normal" in2="effect1_dropShadow" result="effect2_dropShadow"/>
<feColorMatrix in="SourceAlpha" type="matrix" values="0 0 0 0 0 0 0 0 0 0 0 0 0 0 0 0 0 0 127 0"/>
<feOffset dy="4"/>
<feGaussianBlur stdDeviation="2"/>
<feColorMatrix type="matrix" values="0 0 0 0 0.0745098 0 0 0 0 0.0784314 0 0 0 0 0.0823529 0 0 0 0.05 0"/>
<feBlend mode="normal" in2="effect2_dropShadow" result="effect3_dropShadow"/>
<feBlend mode="normal" in="SourceGraphic" in2="effect3_dropShadow" result="shape"/>
</filter>
<filter id="filter1_i" x="687" y="82" width="330" height="201" filterUnits="userSpaceOnUse" color-interpolation-filters="sRGB">
<feFlood flood-opacity="0" result="BackgroundImageFix"/>
<feBlend mode="normal" in="SourceGraphic" in2="BackgroundImageFix" result="shape"/>
<feColorMatrix in="SourceAlpha" type="matrix" values="0 0 0 0 0 0 0 0 0 0 0 0 0 0 0 0 0 0 127 0" result="hardAlpha"/>
<feOffset dy="4"/>
<feGaussianBlur stdDeviation="2"/>
<feComposite in2="hardAlpha" operator="arithmetic" k2="-1" k3="1"/>
<feColorMatrix type="matrix" values="0 0 0 0 0 0 0 0 0 0 0 0 0 0 0 0 0 0 0.25 0"/>
<feBlend mode="normal" in2="shape" result="effect1_innerShadow"/>
</filter>
<filter id="filter2_i" x="584" y="50" width="171" height="49" filterUnits="userSpaceOnUse" color-interpolation-filters="sRGB">
<feFlood flood-opacity="0" result="BackgroundImageFix"/>
<feBlend mode="normal" in="SourceGraphic" in2="BackgroundImageFix" result="shape"/>
<feColorMatrix in="SourceAlpha" type="matrix" values="0 0 0 0 0 0 0 0 0 0 0 0 0 0 0 0 0 0 127 0" result="hardAlpha"/>
<feOffset dy="4"/>
<feGaussianBlur stdDeviation="2"/>
<feComposite in2="hardAlpha" operator="arithmetic" k2="-1" k3="1"/>
<feColorMatrix type="matrix" values="0 0 0 0 0 0 0 0 0 0 0 0 0 0 0 0 0 0 0.25 0"/>
<feBlend mode="normal" in2="shape" result="effect1_innerShadow"/>
</filter>
<filter id="filter3_i" x="46" y="98" width="170" height="49" filterUnits="userSpaceOnUse" color-interpolation-filters="sRGB">
<feFlood flood-opacity="0" result="BackgroundImageFix"/>
<feBlend mode="normal" in="SourceGraphic" in2="BackgroundImageFix" result="shape"/>
<feColorMatrix in="SourceAlpha" type="matrix" values="0 0 0 0 0 0 0 0 0 0 0 0 0 0 0 0 0 0 127 0" result="hardAlpha"/>
<feOffset dy="4"/>
<feGaussianBlur stdDeviation="2"/>
<feComposite in2="hardAlpha" operator="arithmetic" k2="-1" k3="1"/>
<feColorMatrix type="matrix" values="0 0 0 0 0 0 0 0 0 0 0 0 0 0 0 0 0 0 0.25 0"/>
<feBlend mode="normal" in2="shape" result="effect1_innerShadow"/>
</filter>
<linearGradient id="paint0_linear" x1="65.7169" y1="437.256" x2="1000.17" y2="437.256" gradientUnits="userSpaceOnUse">
<stop stop-color="#D5279B"/>
<stop offset="1" stop-color="#FEA18C"/>
</linearGradient>
<linearGradient id="paint1_linear" x1="703.022" y1="270.387" x2="1004.17" y2="270.387" gradientUnits="userSpaceOnUse">
<stop stop-color="#D5279B"/>
<stop offset="1" stop-color="#FEA18C"/>
</linearGradient>
<linearGradient id="paint2_linear" x1="592.302" y1="93.0325" x2="748.349" y2="93.0325" gradientUnits="userSpaceOnUse">
<stop stop-color="#D5279B"/>
<stop offset="1" stop-color="#FEA18C"/>
</linearGradient>
<linearGradient id="paint3_linear" x1="54.2538" y1="141.032" x2="209.388" y2="141.032" gradientUnits="userSpaceOnUse">
<stop stop-color="#D5279B"/>
<stop offset="1" stop-color="#FEA18C"/>
</linearGradient>
</defs>
</svg>
