<svg xmlns="http://www.w3.org/2000/svg" xmlns:xlink="http://www.w3.org/1999/xlink" xmlns:lucid="lucid" width="1160" height="836.6"><g transform="matrix(1,0,0,1,-80,-130.7)" lucid:page-tab-id="0_0"><path d="M 82 201 c 0 -3.3 2.7 -6 6 -6 h 88 c 3.3 0 6 2.7 6 6 v 88 c 0 3.3 -2.7 6 -6 6 h -88 c -3.3 0 -6 -2.7 -6 -6 z" stroke="#5e5e5e" stroke-width="3" fill="#ffdba9"/><use xlink:href="#a" transform="matrix(1,0,0,1,105,205) translate(10.5,37.5) matrix(1,0,0,1,0,0)"/><use xlink:href="#b" transform="matrix(1,0,0,1,105,205) translate(11.1,64.1) matrix(1,0,0,1,0,0)"/><path d="M 382 245 c 0 27.6 -22.4 50 -50 50 s -50 -22.4 -50 -50 s 22.4 -50 50 -50 s 50 22.4 50 50 z" stroke="#5e5e5e" stroke-width="3" fill="#ffffff"/><use xlink:href="#c" transform="matrix(1,0,0,1,305,205) translate(14.2,48.7) matrix(1,0,0,1,0,0)"/><path d="M 482 151.7 c 0 -3.3 2.7 -6 6 -6 h 708 c 3.3 0 6 2.7 6 6 v 186.7 c 0 3.3 -2.7 6 -6 6 H 488 c -3.3 0 -6 -2.7 -6 -6 z" stroke="#5e5e5e" stroke-width="3" fill="#ffdba9"/><use xlink:href="#d" transform="matrix(1,0,0,1,505,155.7) translate(0,17.8) matrix(1,0,0,1,0,0)"/><use xlink:href="#e" transform="matrix(1,0,0,1,505,155.7) translate(75.2,17.8) matrix(1,0,0,1,0,0)"/><use xlink:href="#f" transform="matrix(1,0,0,1,505,155.7) translate(149.3,17.8) matrix(1,0,0,1,0,0)"/><path d="M 542 191 c 0 -3.3 2.7 -6 6 -6 h 148 c 3.3 0 6 2.7 6 6 v 108 c 0 3.3 -2.7 6 -6 6 H 548 c -3.3 0 -6 -2.7 -6 -6 z" stroke="#5e5e5e" stroke-width="3" fill="#ffffff"/><use xlink:href="#g" transform="matrix(1,0,0,1,565,195) translate(34.4,59) matrix(1,0,0,1,0,0)"/><path d="M 762 191 c 0 -3.3 2.7 -6 6 -6 h 148 c 3.3 0 6 2.7 6 6 v 108 c 0 3.3 -2.7 6 -6 6 H 768 c -3.3 0 -6 -2.7 -6 -6 z" stroke="#5e5e5e" stroke-width="3" fill="#ffffff"/><use xlink:href="#h" transform="matrix(1,0,0,1,785,195) translate(57.1,59) matrix(1,0,0,1,0,0)"/><path d="M 982 191 c 0 -3.3 2.7 -6 6 -6 h 148 c 3.3 0 6 2.7 6 6 v 108 c 0 3.3 -2.7 6 -6 6 h -148 c -3.3 0 -6 -2.7 -6 -6 z" stroke="#5e5e5e" stroke-width="3" fill="#ffffff"/><use xlink:href="#i" transform="matrix(1,0,0,1,1005,195) translate(54.7,59) matrix(1,0,0,1,0,0)"/><path d="M 184.3 245 h 78.8" stroke="#9a9a9a" stroke-width="1.5" fill="none"/><path d="M 184.3 245.8 h -0.8 v -1.5 h 0.8 z" fill="#9a9a9a"/><path d="M 278.1 245 l -14.3 4.6 v -9.3 z" stroke="#9a9a9a" stroke-width="1.5" fill="#9a9a9a"/><path d="M 384.3 245 h 78.8" stroke="#9a9a9a" stroke-width="1.5" fill="none"/><path d="M 384.3 245.8 h -0.8 l 0 -0.7 l 0 -0.8 h 0.8 z" fill="#9a9a9a"/><path d="M 478.1 245 l -14.3 4.6 v -9.3 z" stroke="#9a9a9a" stroke-width="1.5" fill="#9a9a9a"/><path d="M 82 501.9 c 0 -3.3 2.7 -6 6 -6 h 88 c 3.3 0 6 2.7 6 6 v 88 c 0 3.3 -2.7 6 -6 6 h -88 c -3.3 0 -6 -2.7 -6 -6 z" stroke="#5e5e5e" stroke-width="3" fill="#c7e8ac"/><use xlink:href="#j" transform="matrix(1,0,0,1,105,505.9) translate(1.9,37.5) matrix(1,0,0,1,0,0)"/><use xlink:href="#k" transform="matrix(1,0,0,1,105,505.9) translate(11.1,64.1) matrix(1,0,0,1,0,0)"/><path d="M 285.1 502.6 c -1.7 -2.8 -0.4 -5.1 2.9 -5.1 h 108 c 3.3 0 4.6 2.3 2.9 5.1 l -53.8 88.1 c -1.7 2.8 -4.5 2.8 -6.2 0 z" stroke="#5e5e5e" stroke-width="3" fill="#ffffff"/><use xlink:href="#l" transform="matrix(1,0,0,1,305,507.5) translate(23.6,17.8) matrix(1,0,0,1,0,0)"/><path d="M 82 799.7 c 0 -3.3 2.7 -6 6 -6 h 88 c 3.3 0 6 2.7 6 6 v 88 c 0 3.3 -2.7 6 -6 6 h -88 c -3.3 0 -6 -2.7 -6 -6 z" stroke="#5e5e5e" stroke-width="3" fill="#99d2f2"/><use xlink:href="#m" transform="matrix(1,0,0,1,105,803.7) translate(6.9,37.5) matrix(1,0,0,1,0,0)"/><use xlink:href="#b" transform="matrix(1,0,0,1,105,803.7) translate(11.1,64.1) matrix(1,0,0,1,0,0)"/><path d="M 285.1 798.9 c -1.7 -2.8 -0.4 -5.1 2.9 -5.1 h 108 c 3.3 0 4.6 2.3 2.9 5.1 L 345.1 887 c -1.7 2.8 -4.5 2.8 -6.2 0 z" stroke="#5e5e5e" stroke-width="3" fill="#ffffff"/><use xlink:href="#l" transform="matrix(1,0,0,1,305,803.7) translate(23.6,17.8) matrix(1,0,0,1,0,0)"/><path d="M 482 453.3 c 0 -3.3 2.7 -6 6 -6 h 488 c 3.3 0 6 2.7 6 6 V 640 c 0 3.3 -2.7 6 -6 6 H 488 c -3.3 0 -6 -2.7 -6 -6 z" stroke="#5e5e5e" stroke-width="3" fill="#c7e8ac"/><use xlink:href="#n" transform="matrix(1,0,0,1,505,457.3) translate(0,17.8) matrix(1,0,0,1,0,0)"/><use xlink:href="#o" transform="matrix(1,0,0,1,505,457.3) translate(92.3,17.8) matrix(1,0,0,1,0,0)"/><use xlink:href="#p" transform="matrix(1,0,0,1,505,457.3) translate(166.3,17.8) matrix(1,0,0,1,0,0)"/><path d="M 542 492.7 c 0 -3.3 2.7 -6 6 -6 h 148 c 3.3 0 6 2.7 6 6 v 108 c 0 3.3 -2.7 6 -6 6 H 548 c -3.3 0 -6 -2.7 -6 -6 z" stroke="#5e5e5e" stroke-width="3" fill="#ffffff"/><use xlink:href="#q" transform="matrix(1,0,0,1,565,496.7) translate(19.5,59) matrix(1,0,0,1,0,0)"/><use xlink:href="#r" transform="matrix(1,0,0,1,565,496.7) translate(75,59) matrix(1,0,0,1,0,0)"/><path d="M 762 492.7 c 0 -3.3 2.7 -6 6 -6 h 148 c 3.3 0 6 2.7 6 6 v 108 c 0 3.3 -2.7 6 -6 6 H 768 c -3.3 0 -6 -2.7 -6 -6 z" stroke="#5e5e5e" stroke-width="3" fill="#ffffff"/><use xlink:href="#s" transform="matrix(1,0,0,1,785,496.7) translate(9.7,45.3) matrix(1,0,0,1,0,0)"/><use xlink:href="#t" transform="matrix(1,0,0,1,785,496.7) translate(84.8,45.3) matrix(1,0,0,1,0,0)"/><use xlink:href="#u" transform="matrix(1,0,0,1,785,496.7) translate(56.5,71.9) matrix(1,0,0,1,0,0)"/><path d="M 374.5 546.7 h 88.6" stroke="#9a9a9a" stroke-width="1.5" fill="none"/><path d="M 374.5 547.4 h -1.2 l 0.9 -1.5 h 0.3 z" fill="#9a9a9a"/><path d="M 478.1 546.7 l -14.3 4.6 v -9.3 z" stroke="#9a9a9a" stroke-width="1.5" fill="#9a9a9a"/><path d="M 480.5 749.6 c 0 -3.3 2.7 -6 6 -6 h 488 c 3.3 0 6 2.7 6 6 v 186.7 c 0 3.3 -2.7 6 -6 6 h -488 c -3.3 0 -6 -2.7 -6 -6 z" stroke="#5e5e5e" stroke-width="3" fill="#99d2f2"/><use xlink:href="#v" transform="matrix(1,0,0,1,503.5,753.6) translate(0,17.8) matrix(1,0,0,1,0,0)"/><use xlink:href="#o" transform="matrix(1,0,0,1,503.5,753.6) translate(82.3,17.8) matrix(1,0,0,1,0,0)"/><use xlink:href="#p" transform="matrix(1,0,0,1,503.5,753.6) translate(156.4,17.8) matrix(1,0,0,1,0,0)"/><path d="M 540.5 788.9 c 0 -3.3 2.7 -6 6 -6 h 148 c 3.3 0 6 2.7 6 6 v 108 c 0 3.3 -2.7 6 -6 6 h -148 c -3.3 0 -6 -2.7 -6 -6 z" stroke="#5e5e5e" stroke-width="3" fill="#ffffff"/><use xlink:href="#w" transform="matrix(1,0,0,1,563.5,792.9) translate(50.4,45.3) matrix(1,0,0,1,0,0)"/><use xlink:href="#x" transform="matrix(1,0,0,1,563.5,792.9) translate(27.5,71.9) matrix(1,0,0,1,0,0)"/><path d="M 760.5 788.9 c 0 -3.3 2.7 -6 6 -6 h 148 c 3.3 0 6 2.7 6 6 v 108 c 0 3.3 -2.7 6 -6 6 h -148 c -3.3 0 -6 -2.7 -6 -6 z" stroke="#5e5e5e" stroke-width="3" fill="#ffffff"/><use xlink:href="#y" transform="matrix(1,0,0,1,783.5,792.9) translate(38.6,45.3) matrix(1,0,0,1,0,0)"/><use xlink:href="#x" transform="matrix(1,0,0,1,783.5,792.9) translate(27.5,71.9) matrix(1,0,0,1,0,0)"/><path d="M 374.5 842.9 h 87.1" stroke="#9a9a9a" stroke-width="1.5" fill="none"/><path d="M 374.5 843.7 h -1.2 l 0.9 -1.5 h 0.3 z" fill="#9a9a9a"/><path d="M 476.6 842.9 l -14.3 4.6 v -9.3 z" stroke="#9a9a9a" stroke-width="1.5" fill="#9a9a9a"/><path d="M 184.3 546.7 H 292.8" stroke="#9a9a9a" stroke-width="1.5" fill="none"/><path d="M 184.3 547.4 h -0.8 v -1.5 h 0.8 z" fill="#9a9a9a"/><path d="M 307.8 546.7 l -14.3 4.6 v -9.3 z" stroke="#9a9a9a" stroke-width="1.5" fill="#9a9a9a"/><path d="M 184.3 842.9 H 292.8" stroke="#9a9a9a" stroke-width="1.5" fill="none"/><path d="M 184.3 843.7 h -0.8 v -1.5 h 0.8 z" fill="#9a9a9a"/><path d="M 307.8 842.9 l -14.3 4.6 v -9.3 z" stroke="#9a9a9a" stroke-width="1.5" fill="#9a9a9a"/><path d="M 132 297.3 l 0 2.2 l 0.2 2.8 l 0.3 2.7 l 0.4 2.7 l 0.5 2.6 l 0.6 2.6 l 0.7 2.5 l 0.8 2.5 l 0.9 2.5 l 1 2.5 l 1.2 2.5 l 1.3 2.5 l 1.5 2.5 l 1.6 2.6 l 1.8 2.6 l 2.1 2.7 l 2.3 2.8 l 2.6 2.9 l 3 3.1 l 3.5 3.2 l 4 3.5 l 4.8 3.8 l 5.8 4.2 l 7.1 4.7 l 9.3 5.6 l 13.6 7.5 l 81.5 40.7 l 9.4 5.6 l 7.1 4.7 l 5.8 4.2 l 4.8 3.8 l 4 3.5 l 3.5 3.3 l 3 3.1 l 2.6 2.9 l 2.3 2.8 l 2.1 2.7 l 1.8 2.6 l 1.6 2.6 l 1.5 2.5 l 1.3 2.5 l 1.2 2.5 l 1 2.5 l 0.9 2.5 l 0.8 2.5 l 0.4 1.6" stroke="#9a9a9a" stroke-width="1.5" fill="none"/><path d="M 132.8 297.3 l -1.5 0 l 0 -0.8 h 1.5 z" fill="#9a9a9a"/><path d="M 341.7 493.6 l -6.5 -13.5 l 9.2 -1.2 z" stroke="#9a9a9a" stroke-width="1.5" fill="#9a9a9a"/><path d="M 132 598.1 l 0 2 l 0.2 2.7 l 0.3 2.6 l 0.4 2.5 l 0.5 2.5 l 0.6 2.5 l 0.7 2.4 l 0.8 2.4 l 0.9 2.4 l 1 2.4 l 1.1 2.4 l 1.3 2.4 l 1.4 2.5 l 1.6 2.5 l 1.8 2.5 l 2 2.6 l 2.2 2.7 l 2.5 2.8 l 2.9 3 l 3.3 3.1 l 3.9 3.3 l 4.6 3.6 l 5.5 4 l 6.8 4.5 l 8.8 5.3 l 12.4 6.8 l 24.5 12.1 l 50.9 24.3 l 12.4 6.8 l 8.8 5.3 l 6.8 4.5 l 5.5 4 l 4.6 3.6 l 3.9 3.4 l 3.3 3.1 l 2.9 3 l 2.5 2.8 l 2.2 2.7 l 2 2.6 l 1.8 2.5 l 1.6 2.5 l 1.4 2.5 l 1.3 2.4 l 1.1 2.4 l 1 2.4 l 0.9 2.4 l 0.8 2.4 l 0.2 0.8" stroke="#9a9a9a" stroke-width="1.5" fill="none"/><path d="M 132.8 598.1 l -1.5 0 l 0 -0.8 h 1.5 z" fill="#9a9a9a"/><path d="M 341.7 789.8 l -6.6 -13.5 l 9.2 -1.3 z" stroke="#9a9a9a" stroke-width="1.5" fill="#9a9a9a"/><defs><path fill="#333333" d="M 83 -239 c -31 -9 -42 10 -38 44 h 38 v 23 H 45 V -5 H 14 v -167 H -13 v -23 h 27 c -7 -52 17 -82 69 -68 v 24" id="z"/><path fill="#333333" d="M 82 -199 c 63 0 86 42 84 106 H 31 c 0 40 14 67 53 68 c 26 1 43 -12 49 -29 l 28 8 c -11 28 -37 45 -77 45 C 26 -1 -4 -38 -3 -101 c 1 -61 26 -98 85 -98 z m 52 81 c 6 -60 -76 -77 -97 -28 c -3 7 -6 17 -6 28 h 103" id="A"/><path fill="#333333" d="M 123 -41 C 108 -20 92 0 55 -1 C 19 -2 -3 -22 -3 -58 c -1 -64 63 -63 125 -63 c 3 -35 -9 -54 -41 -54 c -24 1 -41 7 -42 31 l -33 -3 c 5 -37 33 -52 76 -52 c 45 0 72 20 72 64 v 82 c -1 20 7 32 28 27 v 20 c -31 9 -61 -2 -59 -35 z M 30 -58 c 0 20 12 33 32 33 c 41 -3 63 -29 60 -74 c -43 2 -92 -5 -92 41" id="B"/><path fill="#333333" d="M 41 -52 c -2 24 18 29 38 22 v 24 C 46 4 9 -1 9 -45 v -127 H -13 v -23 h 24 l 9 -43 h 21 v 43 h 35 v 23 H 41 v 120" id="C"/><path fill="#333333" d="M 66 -1 C -23 3 12 -117 5 -195 h 32 v 120 c 0 31 7 50 39 49 c 72 -2 45 -101 50 -169 h 31 l 1 190 h -30 c -1 -10 1 -25 -2 -33 c -11 22 -28 36 -60 37" id="D"/><path fill="#333333" d="M 96 -168 C 18 -184 43 -77 39 -5 H 7 l -1 -190 h 30 c 1 12 -1 29 2 39 c 6 -27 23 -49 58 -41 v 29" id="E"/><g id="a"><use transform="matrix(0.1,0,0,0.1,-16.9,-4.7)" xlink:href="#z"/><use transform="matrix(0.1,0,0,0.1,-10.7,-4.7)" xlink:href="#A"/><use transform="matrix(0.1,0,0,0.1,1.6,-4.7)" xlink:href="#B"/><use transform="matrix(0.1,0,0,0.1,14,-4.7)" xlink:href="#C"/><use transform="matrix(0.1,0,0,0.1,20.1,-4.7)" xlink:href="#D"/><use transform="matrix(0.1,0,0,0.1,32.5,-4.7)" xlink:href="#E"/><use transform="matrix(0.1,0,0,0.1,39.8,-4.7)" xlink:href="#A"/></g><path fill="#333333" d="M 97 -199 c 53 0 69 39 70 98 c 0 66 -23 100 -70 100 C 66 -2 48 -12 38 -35 L 36 -5 H 5 l 1 -261 h 32 v 101 c 10 -23 28 -34 59 -34 z m -8 174 c 40 0 45 -34 45 -75 c 0 -40 -5 -75 -45 -74 c -42 0 -51 32 -51 76 c 0 43 10 73 51 73" id="F"/><path fill="#333333" d="M 99 -199 c 89 -4 53 116 60 194 h -32 v -121 c 0 -31 -8 -49 -39 -48 C 16 -172 44 -72 39 -5 H 7 l -1 -190 h 30 c 1 10 -1 24 2 32 c 11 -22 29 -35 61 -36" id="G"/><path fill="#333333" d="M 78 -174 c -40 0 -48 33 -48 73 s 9 75 48 75 c 24 0 41 -14 43 -38 l 32 2 c -6 37 -31 61 -74 61 c -59 0 -76 -41 -82 -99 c -10 -93 101 -131 147 -64 c 4 7 5 14 7 22 l -32 3 c -4 -21 -16 -35 -41 -35" id="H"/><path fill="#333333" d="M 88 -174 C 16 -174 44 -72 39 -5 H 7 v -261 h 32 l -1 103 c 12 -21 28 -36 61 -36 c 89 0 53 116 60 194 h -32 v -121 c 2 -32 -8 -49 -39 -48" id="I"/><g id="b"><use transform="matrix(0.1,0,0,0.1,-16.9,-4.7)" xlink:href="#F"/><use transform="matrix(0.1,0,0,0.1,-4.5,-4.7)" xlink:href="#E"/><use transform="matrix(0.1,0,0,0.1,2.8,-4.7)" xlink:href="#B"/><use transform="matrix(0.1,0,0,0.1,15.1,-4.7)" xlink:href="#G"/><use transform="matrix(0.1,0,0,0.1,27.5,-4.7)" xlink:href="#H"/><use transform="matrix(0.1,0,0,0.1,38.6,-4.7)" xlink:href="#I"/></g><path fill="#333333" d="M 12 -253 c 87 1 191 -15 191 75 c 0 78 -77 80 -158 76 V -5 H 12 v -248 z m 33 125 c 57 0 124 11 124 -50 c 0 -59 -68 -47 -124 -48 v 98" id="J"/><path fill="#333333" d="M 214 -98 c -1 65 -40 97 -104 97 C 49 -1 10 -33 10 -95 v -158 h 33 c 8 89 -33 224 67 224 c 102 0 64 -133 71 -224 h 33 v 155" id="K"/><path fill="#333333" d="M 167 -194 c -5 -48 -123 -54 -124 2 c 14 75 158 14 163 119 c 3 78 -121 87 -175 55 c -17 -10 -28 -26 -33 -46 l 33 -7 c 5 56 141 63 141 -1 c 0 -78 -155 -14 -162 -118 c -5 -82 145 -84 179 -34 c 5 7 8 16 11 25" id="L"/><path fill="#333333" d="M 179 -5 v -115 H 45 V -5 H 12 v -248 h 33 v 105 h 134 v -105 h 34 V -5 h -34" id="M"/><g id="c"><use transform="matrix(0.1,0,0,0.1,-16.9,-4.7)" xlink:href="#J"/><use transform="matrix(0.1,0,0,0.1,-2.1,-4.7)" xlink:href="#K"/><use transform="matrix(0.1,0,0,0.1,13.9,-4.7)" xlink:href="#L"/><use transform="matrix(0.1,0,0,0.1,28.7,-4.7)" xlink:href="#M"/></g><g id="d"><use transform="matrix(0.1,0,0,0.1,-16.9,-4.7)" xlink:href="#z"/><use transform="matrix(0.1,0,0,0.1,-10.7,-4.7)" xlink:href="#A"/><use transform="matrix(0.1,0,0,0.1,1.6,-4.7)" xlink:href="#B"/><use transform="matrix(0.1,0,0,0.1,14,-4.7)" xlink:href="#C"/><use transform="matrix(0.1,0,0,0.1,20.1,-4.7)" xlink:href="#D"/><use transform="matrix(0.1,0,0,0.1,32.5,-4.7)" xlink:href="#E"/><use transform="matrix(0.1,0,0,0.1,39.8,-4.7)" xlink:href="#A"/></g><g id="e"><use transform="matrix(0.1,0,0,0.1,-16.9,-4.7)" xlink:href="#F"/><use transform="matrix(0.1,0,0,0.1,-4.5,-4.7)" xlink:href="#E"/><use transform="matrix(0.1,0,0,0.1,2.8,-4.7)" xlink:href="#B"/><use transform="matrix(0.1,0,0,0.1,15.1,-4.7)" xlink:href="#G"/><use transform="matrix(0.1,0,0,0.1,27.5,-4.7)" xlink:href="#H"/><use transform="matrix(0.1,0,0,0.1,38.6,-4.7)" xlink:href="#I"/></g><path fill="#333333" d="M 194 -184 c -10 -28 -35 -45 -73 -45 c -59 0 -87 40 -87 99 c 0 60 29 101 89 101 c 43 0 62 -24 78 -52 l 27 14 C 210 -29 177 -1 121 -1 C 41 -1 4 -51 0 -130 c -6 -104 99 -153 187 -111 c 19 9 31 26 39 46" id="N"/><path fill="#333333" d="M 15 -5 v -248 h 34 V -5 H 15" id="O"/><g id="f"><use transform="matrix(0.1,0,0,0.1,-16.9,-4.7)" xlink:href="#N"/><use transform="matrix(0.1,0,0,0.1,-0.9,-4.7)" xlink:href="#O"/></g><path fill="#333333" d="M 82 -199 c 62 -1 85 37 85 99 c 1 63 -27 99 -86 99 S -2 -40 -3 -100 c 0 -66 28 -99 85 -99 z M 81 -25 c 44 1 53 -31 53 -75 c 0 -43 -8 -75 -51 -75 s -53 32 -53 75 s 10 74 51 75" id="P"/><path fill="#333333" d="M 192 -174 c -67 3 -38 105 -44 169 h -31 v -121 c 0 -29 -5 -50 -35 -48 C 16 -170 44 -70 38 -5 H 7 l -1 -190 h 30 c 1 10 -1 24 2 32 c 10 -44 99 -50 107 0 c 11 -21 27 -35 58 -36 c 85 -2 47 119 55 194 h -31 v -121 c 0 -29 -5 -49 -35 -48" id="Q"/><path fill="#333333" d="M 97 -199 c 55 1 70 41 70 98 S 151 -3 97 -1 C 66 -1 48 -14 37 -35 l 1 105 H 6 l -1 -265 h 31 l 2 30 c 10 -21 28 -34 59 -34 z m -8 174 c 40 0 45 -34 45 -75 s -6 -73 -45 -74 c -42 0 -51 32 -51 76 c 0 43 10 73 51 73" id="R"/><path fill="#333333" d="M 6 -236 v -30 h 32 v 30 H 6 z M 6 -5 v -190 h 32 V -5 H 6" id="S"/><path fill="#333333" d="M 6 -5 v -261 h 32 V -5 H 6" id="T"/><g id="g"><use transform="matrix(0.1,0,0,0.1,-16.9,-4.7)" xlink:href="#N"/><use transform="matrix(0.1,0,0,0.1,-0.9,-4.7)" xlink:href="#P"/><use transform="matrix(0.1,0,0,0.1,11.4,-4.7)" xlink:href="#Q"/><use transform="matrix(0.1,0,0,0.1,29.9,-4.7)" xlink:href="#R"/><use transform="matrix(0.1,0,0,0.1,42.2,-4.7)" xlink:href="#S"/><use transform="matrix(0.1,0,0,0.1,47.1,-4.7)" xlink:href="#T"/><use transform="matrix(0.1,0,0,0.1,52,-4.7)" xlink:href="#A"/></g><path fill="#333333" d="M 12 -5 v -248 h 33 v 221 h 125 V -5 H 12" id="U"/><g id="h"><use transform="matrix(0.1,0,0,0.1,-16.9,-4.7)" xlink:href="#U"/><use transform="matrix(0.1,0,0,0.1,-4.5,-4.7)" xlink:href="#S"/><use transform="matrix(0.1,0,0,0.1,0.3,-4.7)" xlink:href="#G"/><use transform="matrix(0.1,0,0,0.1,12.7,-4.7)" xlink:href="#C"/></g><path fill="#333333" d="M 109 -225 V -5 H 75 v -220 H -10 v -28 h 204 v 28 h -85" id="V"/><path fill="#333333" d="M 117 -148 c -3 -34 -86 -38 -87 0 c 15 53 115 12 119 90 S -1 16 -8 -50 l 28 -5 c 4 36 97 45 98 0 c -10 -56 -113 -15 -118 -90 c -4 -57 82 -63 122 -42 c 12 7 21 19 24 35" id="W"/><g id="i"><use transform="matrix(0.1,0,0,0.1,-16.9,-4.7)" xlink:href="#V"/><use transform="matrix(0.1,0,0,0.1,-5.8,-4.7)" xlink:href="#A"/><use transform="matrix(0.1,0,0,0.1,6.5,-4.7)" xlink:href="#W"/><use transform="matrix(0.1,0,0,0.1,17.6,-4.7)" xlink:href="#C"/></g><path fill="#333333" d="M 29 -175 H 4 l -4 -78 h 33" id="X"/><path fill="#333333" d="M 67 -199 c 31 0 48 13 60 33 l -1 -100 h 32 l 1 261 h -30 c -2 -10 0 -23 -3 -31 C 116 -13 98 -1 67 -1 C 14 -1 -2 -40 -3 -99 c 0 -66 23 -100 70 -100 z m 9 24 c -40 0 -46 34 -46 75 c 0 40 6 74 45 74 c 42 0 51 -32 51 -76 c 0 -42 -9 -74 -50 -73" id="Y"/><path fill="#333333" d="M 90 -5 H 52 L -17 -195 h 34 L 71 -30 l 56 -165 h 34" id="Z"/><g id="j"><use transform="matrix(0.1,0,0,0.1,-16.9,-4.7)" xlink:href="#X"/><use transform="matrix(0.1,0,0,0.1,-12.7,-4.7)" xlink:href="#Y"/><use transform="matrix(0.1,0,0,0.1,-0.3,-4.7)" xlink:href="#A"/><use transform="matrix(0.1,0,0,0.1,12,-4.7)" xlink:href="#Z"/><use transform="matrix(0.1,0,0,0.1,23.1,-4.7)" xlink:href="#A"/><use transform="matrix(0.1,0,0,0.1,35.5,-4.7)" xlink:href="#T"/><use transform="matrix(0.1,0,0,0.1,40.3,-4.7)" xlink:href="#P"/><use transform="matrix(0.1,0,0,0.1,52.7,-4.7)" xlink:href="#R"/><use transform="matrix(0.1,0,0,0.1,65,-4.7)" xlink:href="#X"/></g><g id="k"><use transform="matrix(0.1,0,0,0.1,-16.9,-4.7)" xlink:href="#F"/><use transform="matrix(0.1,0,0,0.1,-4.5,-4.7)" xlink:href="#E"/><use transform="matrix(0.1,0,0,0.1,2.8,-4.7)" xlink:href="#B"/><use transform="matrix(0.1,0,0,0.1,15.1,-4.7)" xlink:href="#G"/><use transform="matrix(0.1,0,0,0.1,27.5,-4.7)" xlink:href="#H"/><use transform="matrix(0.1,0,0,0.1,38.6,-4.7)" xlink:href="#I"/></g><path fill="#333333" d="M 222 -5 l 2 -218 c -23 76 -54 145 -80 218 h -23 L 40 -223 L 41 -5 H 12 v -248 h 44 l 77 211 c 21 -75 51 -140 76 -211 h 43 V -5 h -30" id="aa"/><path fill="#333333" d="M 159 -195 C 149 -70 200 98 49 66 c -23 -6 -38 -20 -44 -43 l 32 -5 c 15 47 100 32 89 -28 v -30 C 115 -19 97 -4 65 -4 C 11 -4 -3 -45 -3 -100 c 0 -56 16 -97 71 -98 c 29 -1 48 16 59 35 c 1 -10 0 -23 2 -32 h 30 z M 76 -27 c 36 0 50 -32 50 -73 c 0 -42 -14 -75 -50 -75 c -39 0 -46 34 -46 75 s 6 73 46 73" id="ab"/><g id="l"><use transform="matrix(0.1,0,0,0.1,-16.9,-4.7)" xlink:href="#aa"/><use transform="matrix(0.1,0,0,0.1,1.6,-4.7)" xlink:href="#A"/><use transform="matrix(0.1,0,0,0.1,13.9,-4.7)" xlink:href="#E"/><use transform="matrix(0.1,0,0,0.1,21.3,-4.7)" xlink:href="#ab"/><use transform="matrix(0.1,0,0,0.1,33.6,-4.7)" xlink:href="#A"/></g><g id="m"><use transform="matrix(0.1,0,0,0.1,-16.9,-4.7)" xlink:href="#X"/><use transform="matrix(0.1,0,0,0.1,-12.7,-4.7)" xlink:href="#Q"/><use transform="matrix(0.1,0,0,0.1,5.8,-4.7)" xlink:href="#B"/><use transform="matrix(0.1,0,0,0.1,18.1,-4.7)" xlink:href="#W"/><use transform="matrix(0.1,0,0,0.1,29.2,-4.7)" xlink:href="#C"/><use transform="matrix(0.1,0,0,0.1,35.4,-4.7)" xlink:href="#A"/><use transform="matrix(0.1,0,0,0.1,47.7,-4.7)" xlink:href="#E"/><use transform="matrix(0.1,0,0,0.1,55.1,-4.7)" xlink:href="#X"/></g><g id="n"><use transform="matrix(0.1,0,0,0.1,-16.9,-4.7)" xlink:href="#X"/><use transform="matrix(0.1,0,0,0.1,-12.7,-4.7)" xlink:href="#Y"/><use transform="matrix(0.1,0,0,0.1,-0.3,-4.7)" xlink:href="#A"/><use transform="matrix(0.1,0,0,0.1,12,-4.7)" xlink:href="#Z"/><use transform="matrix(0.1,0,0,0.1,23.1,-4.7)" xlink:href="#A"/><use transform="matrix(0.1,0,0,0.1,35.5,-4.7)" xlink:href="#T"/><use transform="matrix(0.1,0,0,0.1,40.3,-4.7)" xlink:href="#P"/><use transform="matrix(0.1,0,0,0.1,52.7,-4.7)" xlink:href="#R"/><use transform="matrix(0.1,0,0,0.1,65,-4.7)" xlink:href="#X"/></g><g id="o"><use transform="matrix(0.1,0,0,0.1,-16.9,-4.7)" xlink:href="#F"/><use transform="matrix(0.1,0,0,0.1,-4.5,-4.7)" xlink:href="#E"/><use transform="matrix(0.1,0,0,0.1,2.8,-4.7)" xlink:href="#B"/><use transform="matrix(0.1,0,0,0.1,15.1,-4.7)" xlink:href="#G"/><use transform="matrix(0.1,0,0,0.1,27.5,-4.7)" xlink:href="#H"/><use transform="matrix(0.1,0,0,0.1,38.6,-4.7)" xlink:href="#I"/></g><g id="p"><use transform="matrix(0.1,0,0,0.1,-16.9,-4.7)" xlink:href="#N"/><use transform="matrix(0.1,0,0,0.1,-0.9,-4.7)" xlink:href="#O"/></g><path fill="#333333" d="M 142 -136 c 35 5 61 23 61 61 C 203 12 97 -7 12 -5 v -248 c 76 3 177 -17 177 60 c 0 33 -19 50 -47 57 z m -97 -11 c 50 -1 110 9 110 -42 c 0 -47 -63 -36 -110 -37 v 79 z m 0 115 c 55 -2 124 14 124 -45 c 0 -56 -70 -42 -124 -44 v 89" id="ac"/><g id="q"><use transform="matrix(0.1,0,0,0.1,-16.9,-4.7)" xlink:href="#ac"/><use transform="matrix(0.1,0,0,0.1,-2.1,-4.7)" xlink:href="#D"/><use transform="matrix(0.1,0,0,0.1,10.3,-4.7)" xlink:href="#S"/><use transform="matrix(0.1,0,0,0.1,15.1,-4.7)" xlink:href="#T"/><use transform="matrix(0.1,0,0,0.1,20,-4.7)" xlink:href="#Y"/></g><g id="r"><use transform="matrix(0.1,0,0,0.1,-16.9,-4.7)" xlink:href="#Y"/><use transform="matrix(0.1,0,0,0.1,-4.5,-4.7)" xlink:href="#A"/><use transform="matrix(0.1,0,0,0.1,7.8,-4.7)" xlink:href="#Q"/><use transform="matrix(0.1,0,0,0.1,26.3,-4.7)" xlink:href="#P"/></g><path fill="#333333" d="M 12 -253 c 118 -7 216 8 213 122 C 222 -53 182 -5 104 -5 H 12 v -248 z M 45 -32 c 89 8 146 -16 146 -99 s -60 -101 -146 -95 v 194" id="ad"/><path fill="#333333" d="M 161 -195 L 75 26 C 61 54 38 77 -6 68 V 44 c 39 6 53 -20 64 -50 L -17 -195 h 34 L 74 -39 l 54 -156 h 33" id="ae"/><g id="s"><use transform="matrix(0.1,0,0,0.1,-16.9,-4.7)" xlink:href="#ad"/><use transform="matrix(0.1,0,0,0.1,-0.9,-4.7)" xlink:href="#A"/><use transform="matrix(0.1,0,0,0.1,11.4,-4.7)" xlink:href="#R"/><use transform="matrix(0.1,0,0,0.1,23.8,-4.7)" xlink:href="#T"/><use transform="matrix(0.1,0,0,0.1,28.7,-4.7)" xlink:href="#P"/><use transform="matrix(0.1,0,0,0.1,41,-4.7)" xlink:href="#ae"/></g><g id="t"><use transform="matrix(0.1,0,0,0.1,-16.9,-4.7)" xlink:href="#Y"/><use transform="matrix(0.1,0,0,0.1,-4.5,-4.7)" xlink:href="#A"/><use transform="matrix(0.1,0,0,0.1,7.8,-4.7)" xlink:href="#Q"/><use transform="matrix(0.1,0,0,0.1,26.3,-4.7)" xlink:href="#P"/></g><g id="u"><use transform="matrix(0.1,0,0,0.1,-16.9,-4.7)" xlink:href="#B"/><use transform="matrix(0.1,0,0,0.1,-4.5,-4.7)" xlink:href="#R"/><use transform="matrix(0.1,0,0,0.1,7.8,-4.7)" xlink:href="#R"/></g><g id="v"><use transform="matrix(0.1,0,0,0.1,-16.9,-4.7)" xlink:href="#X"/><use transform="matrix(0.1,0,0,0.1,-12.7,-4.7)" xlink:href="#Q"/><use transform="matrix(0.1,0,0,0.1,5.8,-4.7)" xlink:href="#B"/><use transform="matrix(0.1,0,0,0.1,18.1,-4.7)" xlink:href="#W"/><use transform="matrix(0.1,0,0,0.1,29.2,-4.7)" xlink:href="#C"/><use transform="matrix(0.1,0,0,0.1,35.4,-4.7)" xlink:href="#A"/><use transform="matrix(0.1,0,0,0.1,47.7,-4.7)" xlink:href="#E"/><use transform="matrix(0.1,0,0,0.1,55.1,-4.7)" xlink:href="#X"/></g><g id="w"><use transform="matrix(0.1,0,0,0.1,-16.9,-4.7)" xlink:href="#ac"/><use transform="matrix(0.1,0,0,0.1,-2.1,-4.7)" xlink:href="#D"/><use transform="matrix(0.1,0,0,0.1,10.3,-4.7)" xlink:href="#S"/><use transform="matrix(0.1,0,0,0.1,15.1,-4.7)" xlink:href="#T"/><use transform="matrix(0.1,0,0,0.1,20,-4.7)" xlink:href="#Y"/></g><path fill="#333333" d="M 125 -5 L 61 -92 L 38 -73 V -5 H 6 v -261 h 32 v 163 l 83 -92 h 37 l -77 82 L 163 -5 h -38" id="af"/><g id="x"><use transform="matrix(0.1,0,0,0.1,-16.9,-4.7)" xlink:href="#R"/><use transform="matrix(0.1,0,0,0.1,-4.5,-4.7)" xlink:href="#B"/><use transform="matrix(0.1,0,0,0.1,7.8,-4.7)" xlink:href="#H"/><use transform="matrix(0.1,0,0,0.1,18.9,-4.7)" xlink:href="#af"/><use transform="matrix(0.1,0,0,0.1,30,-4.7)" xlink:href="#B"/><use transform="matrix(0.1,0,0,0.1,42.4,-4.7)" xlink:href="#ab"/><use transform="matrix(0.1,0,0,0.1,54.7,-4.7)" xlink:href="#A"/><use transform="matrix(0.1,0,0,0.1,67.1,-4.7)" xlink:href="#W"/></g><g id="y"><use transform="matrix(0.1,0,0,0.1,-16.9,-4.7)" xlink:href="#J"/><use transform="matrix(0.1,0,0,0.1,-2.1,-4.7)" xlink:href="#D"/><use transform="matrix(0.1,0,0,0.1,10.3,-4.7)" xlink:href="#F"/><use transform="matrix(0.1,0,0,0.1,22.6,-4.7)" xlink:href="#T"/><use transform="matrix(0.1,0,0,0.1,27.5,-4.7)" xlink:href="#S"/><use transform="matrix(0.1,0,0,0.1,32.4,-4.7)" xlink:href="#W"/><use transform="matrix(0.1,0,0,0.1,43.5,-4.7)" xlink:href="#I"/></g></defs></g></svg>