<svg xmlns="http://www.w3.org/2000/svg" xmlns:xlink="http://www.w3.org/1999/xlink" xmlns:lucid="lucid" width="1055.23" height="794.04"><g transform="translate(-677.5194492130322 -407.00000000000006)" lucid:page-tab-id="0_0"><path d="M1074.03 433c0-3.3 2.7-6 6-6h250.2c3.32 0 6 2.7 6 6v108c0 3.3-2.68 6-6 6h-250.2c-3.3 0-6-2.7-6-6z" stroke="#000" stroke-opacity="0" stroke-width="3" fill="#e2e2e2"/><use xlink:href="#a" transform="matrix(1,0,0,1,1086.0323948013452,439.00000000000006) translate(41.87037037037035 36.333333333333336)"/><use xlink:href="#b" transform="matrix(1,0,0,1,1086.0323948013452,439.00000000000006) translate(112.75925925925925 36.333333333333336)"/><use xlink:href="#c" transform="matrix(1,0,0,1,1086.0323948013452,439.00000000000006) translate(76.61111111111111 68.33333333333334)"/><path d="M933.8 673c0-3.3 2.7-6 6-6h148c3.32 0 6 2.7 6 6v108c0 3.3-2.68 6-6 6h-148c-3.3 0-6-2.7-6-6z" stroke="#000" stroke-opacity="0" stroke-width="3" fill="#DCC1FC"/><use xlink:href="#d" transform="matrix(1,0,0,1,945.8028273537329,679) translate(8.037037037037024 39.333333333333336)"/><use xlink:href="#e" transform="matrix(1,0,0,1,945.8028273537329,679) translate(113.14814814814815 39.333333333333336)"/><use xlink:href="#f" transform="matrix(1,0,0,1,945.8028273537329,679) translate(18.74074074074074 67.77777777777777)"/><use xlink:href="#g" transform="matrix(1,0,0,1,945.8028273537329,679) translate(69.2962962962963 67.77777777777777)"/><path d="M1316.47 673c0-3.3 2.7-6 6-6h148c3.3 0 6 2.7 6 6v108c0 3.3-2.7 6-6 6h-148c-3.3 0-6-2.7-6-6z" stroke="#000" stroke-opacity="0" stroke-width="3" fill="#9DD2FE"/><use xlink:href="#d" transform="matrix(1,0,0,1,1328.4694940203997,679) translate(8.037037037037024 39.333333333333336)"/><use xlink:href="#h" transform="matrix(1,0,0,1,1328.4694940203997,679) translate(113.14814814814815 39.333333333333336)"/><use xlink:href="#i" transform="matrix(1,0,0,1,1328.4694940203997,679) translate(17.475308641975303 67.77777777777777)"/><use xlink:href="#j" transform="matrix(1,0,0,1,1328.4694940203997,679) translate(68.03086419753086 67.77777777777777)"/><path d="M1205.12 548v.17l-.08 1.14-.12 1.13-.16 1.1-.2 1.1-.26 1.1-.3 1.07-.36 1.08-.4 1.1-.46 1.08-.53 1.1-.58 1.14-.67 1.15-.75 1.17-.84 1.22-.94 1.25-1.08 1.3-1.22 1.35-1.4 1.42-1.6 1.5-1.85 1.6-2.16 1.72-2.55 1.84-3.06 2.02-3.7 2.24-4.6 2.52-5.86 2.9-7.85 3.5-11.42 4.5-21.68 7.47-59.6 19.5-11.42 4.5-7.84 3.47-5.87 2.9-4.6 2.53-3.7 2.24-3.05 2.02-2.55 1.85-2.17 1.73-1.85 1.6-1.6 1.5-1.4 1.42-1.22 1.36-1.08 1.3-.7.94" stroke="#5e5e5e" stroke-width="2" fill="none"/><path d="M1206.1 548.05l-2-.04.04-1h2z" fill="#5e5e5e"/><path d="M1014.87 663.94l.3-15 8.76 3.05z" stroke="#5e5e5e" stroke-width="2" fill="#5e5e5e"/><path d="M1205.16 548v.17l.07 1.14.12 1.13.16 1.1.22 1.1.26 1.1.3 1.07.35 1.08.4 1.1.47 1.08.52 1.1.6 1.14.65 1.15.75 1.17.84 1.22.95 1.25 1.1 1.3 1.2 1.35 1.4 1.42 1.6 1.5 1.87 1.6 2.16 1.72 2.55 1.84 3.05 2.02 3.7 2.24 4.6 2.52 5.86 2.9 7.84 3.5 11.42 4.5 21.7 7.47 59.6 19.5 11.4 4.5 7.85 3.47 5.88 2.9 4.6 2.53 3.7 2.24 3.04 2.02 2.55 1.85 2.17 1.73 1.85 1.6 1.6 1.5 1.4 1.42 1.22 1.36 1.07 1.3.7.94" stroke="#5e5e5e" stroke-width="2" fill="none"/><path d="M1206.16 548l-2 .05-.02-1.05h2z" fill="#5e5e5e"/><path d="M1395.4 663.94l-9.06-11.95 8.75-3.05z" stroke="#5e5e5e" stroke-width="2" fill="#5e5e5e"/><path d="M1396.5 788v1.03l.13 1.96.2 1.88.28 1.84.35 1.8.4 1.75.5 1.74.55 1.72.63 1.7.72 1.7.8 1.7.9 1.7 1 1.74 1.1 1.75 1.25 1.8 1.4 1.86 1.6 1.9 1.78 2 2.05 2.08 2.36 2.22 2.75 2.38 3.3 2.6 4 2.92 5.12 3.4 7 4.22 12.26 6.7 35.36 18.53 7 4.25 5.1 3.38 4.02 2.92 3.3 2.6 2.76 2.38 2.36 2.22 2.05 2.1 1.78 1.98 1.58 1.9 1.4 1.85 1.25 1.8 1.13 1.76 1 1.73.9 1.7.8 1.7.04.14" stroke="#5e5e5e" stroke-width="2" fill="none"/><path d="M1397.5 788l-2 .05-.03-1.05h2z" fill="#5e5e5e"/><path d="M1523.84 913.82l-7.43-13.03 9.1-1.88z" stroke="#5e5e5e" stroke-width="2" fill="#5e5e5e"/><path d="M1013.78 788v.74l-.12 1.67-.17 1.64-.24 1.58-.3 1.55-.36 1.52-.42 1.5-.48 1.48-.55 1.48-.62 1.48-.7 1.5-.78 1.5-.88 1.5-.98 1.54-1.1 1.58-1.24 1.62-1.4 1.68-1.56 1.75-1.8 1.84-2.06 1.93-2.4 2.08-2.84 2.24-3.4 2.47-4.24 2.8-5.5 3.32-7.85 4.3-17.74 8.7-26.3 12.7-7.85 4.3-5.48 3.33-4.23 2.8-3.42 2.48-2.84 2.25-2.4 2.08-2.07 1.93-1.8 1.83-1.56 1.74-1.38 1.68-1.23 1.62-1.1 1.58-1 1.54-.87 1.5-.43.84" stroke="#5e5e5e" stroke-width="2" fill="none"/><path d="M1014.78 788.05l-2-.04.02-1h2z" fill="#5e5e5e"/><path d="M886.54 903.86l-1.13-14.96 9 2.2z" stroke="#5e5e5e" stroke-width="2" fill="#5e5e5e"/><path d="M697.52 913c0-3.3 2.7-6 6-6h364.5c3.33 0 6 2.7 6 6v252.05c0 3.3-2.67 6-6 6h-364.5c-3.3 0-6-2.7-6-6z" stroke="#000" stroke-opacity="0" stroke-width="5" fill="#DCC1FC"/><path d="M707.52 923c0-3.32 2.7-6 6-6h162.12c3.3 0 6 2.68 6 6v232.06c0 3.3-2.7 6-6 6H713.52c-3.3 0-6-2.7-6-6z" stroke="#000" stroke-opacity="0" stroke-width="3" fill="#fff"/><use xlink:href="#k" transform="matrix(1,0,0,1,719.5194492130322,928.9937388711243) translate(51.48765432098766 100.65277777777777)"/><use xlink:href="#l" transform="matrix(1,0,0,1,719.5194492130322,928.9937388711243) translate(34.79012345679013 127.31944444444446)"/><path d="M889.9 923c0-3.32 2.7-6 6-6h162.13c3.32 0 6 2.68 6 6v232.06c0 3.3-2.68 6-6 6H895.9c-3.3 0-6-2.7-6-6z" stroke="#000" stroke-opacity="0" stroke-width="3" fill="#5e5e5e"/><g><use xlink:href="#m" transform="matrix(1,0,0,1,901.9137598850102,928.9937388711245) translate(31.117283950617285 100.65277777777777)"/><use xlink:href="#n" transform="matrix(1,0,0,1,901.9137598850102,928.9937388711245) translate(34.79012345679013 127.31944444444446)"/></g><path d="M1336.24 923c0-3.32 2.7-6 6-6h364.5c3.33 0 6 2.68 6 6v252.04c0 3.32-2.67 6-6 6h-364.5c-3.3 0-6-2.68-6-6z" stroke="#000" stroke-opacity="0" stroke-width="5" fill="#9DD2FE"/><path d="M1346.24 933c0-3.33 2.7-6 6-6h162.12c3.3 0 6 2.67 6 6v232.05c0 3.3-2.7 6-6 6h-162.12c-3.3 0-6-2.7-6-6z" stroke="#000" stroke-opacity="0" stroke-width="3" fill="#fff"/><g><use xlink:href="#k" transform="matrix(1,0,0,1,1358.2399265727875,938.9874777422484) translate(51.48765432098766 100.65277777777777)"/><use xlink:href="#l" transform="matrix(1,0,0,1,1358.2399265727875,938.9874777422484) translate(34.79012345679013 127.31944444444446)"/></g><path d="M1528.63 933c0-3.33 2.7-6 6-6h162.12c3.32 0 6 2.67 6 6v232.05c0 3.3-2.68 6-6 6h-162.12c-3.3 0-6-2.7-6-6z" stroke="#000" stroke-opacity="0" stroke-width="3" fill="#5e5e5e"/><g><use xlink:href="#m" transform="matrix(1,0,0,1,1540.6342372447655,938.9874777422489) translate(31.117283950617285 100.65277777777777)"/><use xlink:href="#n" transform="matrix(1,0,0,1,1540.6342372447655,938.9874777422489) translate(34.79012345679013 127.31944444444446)"/></g><defs><path fill="#333" d="M212-179c-10-28-35-45-73-45-59 0-87 40-87 99 0 60 29 101 89 101 43 0 62-24 78-52l27 14C228-24 195 4 139 4 59 4 22-46 18-125c-6-104 99-153 187-111 19 9 31 26 39 46" id="o"/><path fill="#333" d="M100-194c62-1 85 37 85 99 1 63-27 99-86 99S16-35 15-95c0-66 28-99 85-99zM99-20c44 1 53-31 53-75 0-43-8-75-51-75s-53 32-53 75 10 74 51 75" id="p"/><path fill="#333" d="M24 0v-261h32V0H24" id="q"/><path fill="#333" d="M114-163C36-179 61-72 57 0H25l-1-190h30c1 12-1 29 2 39 6-27 23-49 58-41v29" id="r"/><g id="a"><use transform="matrix(0.07407407407407408,0,0,0.07407407407407408,0,0)" xlink:href="#o"/><use transform="matrix(0.07407407407407408,0,0,0.07407407407407408,19.185185185185187,0)" xlink:href="#p"/><use transform="matrix(0.07407407407407408,0,0,0.07407407407407408,34,0)" xlink:href="#q"/><use transform="matrix(0.07407407407407408,0,0,0.07407407407407408,39.851851851851855,0)" xlink:href="#p"/><use transform="matrix(0.07407407407407408,0,0,0.07407407407407408,54.66666666666667,0)" xlink:href="#r"/></g><path fill="#333" d="M127-220V0H93v-220H8v-28h204v28h-85" id="s"/><path fill="#333" d="M143 0L79-87 56-68V0H24v-261h32v163l83-92h37l-77 82L181 0h-38" id="t"/><path fill="#333" d="M100-194c63 0 86 42 84 106H49c0 40 14 67 53 68 26 1 43-12 49-29l28 8c-11 28-37 45-77 45C44 4 14-33 15-96c1-61 26-98 85-98zm52 81c6-60-76-77-97-28-3 7-6 17-6 28h103" id="u"/><path fill="#333" d="M117-194c89-4 53 116 60 194h-32v-121c0-31-8-49-39-48C34-167 62-67 57 0H25l-1-190h30c1 10-1 24 2 32 11-22 29-35 61-36" id="v"/><path fill="#333" d="M135-143c-3-34-86-38-87 0 15 53 115 12 119 90S17 21 10-45l28-5c4 36 97 45 98 0-10-56-113-15-118-90-4-57 82-63 122-42 12 7 21 19 24 35" id="w"/><g id="b"><use transform="matrix(0.07407407407407408,0,0,0.07407407407407408,0,0)" xlink:href="#s"/><use transform="matrix(0.07407407407407408,0,0,0.07407407407407408,13.259259259259261,0)" xlink:href="#p"/><use transform="matrix(0.07407407407407408,0,0,0.07407407407407408,28.074074074074076,0)" xlink:href="#t"/><use transform="matrix(0.07407407407407408,0,0,0.07407407407407408,41.40740740740741,0)" xlink:href="#u"/><use transform="matrix(0.07407407407407408,0,0,0.07407407407407408,56.22222222222223,0)" xlink:href="#v"/><use transform="matrix(0.07407407407407408,0,0,0.07407407407407408,71.03703703703704,0)" xlink:href="#w"/></g><path fill="#333" d="M233-177c-1 41-23 64-60 70L243 0h-38l-65-103H63V0H30v-248c88 3 205-21 203 71zM63-129c60-2 137 13 137-47 0-61-80-42-137-45v92" id="x"/><path fill="#333" d="M96-169c-40 0-48 33-48 73s9 75 48 75c24 0 41-14 43-38l32 2c-6 37-31 61-74 61-59 0-76-41-82-99-10-93 101-131 147-64 4 7 5 14 7 22l-32 3c-4-21-16-35-41-35" id="y"/><path fill="#333" d="M85-194c31 0 48 13 60 33l-1-100h32l1 261h-30c-2-10 0-23-3-31C134-8 116 4 85 4 32 4 16-35 15-94c0-66 23-100 70-100zm9 24c-40 0-46 34-46 75 0 40 6 74 45 74 42 0 51-32 51-76 0-42-9-74-50-73" id="z"/><g id="c"><use transform="matrix(0.07407407407407408,0,0,0.07407407407407408,0,0)" xlink:href="#x"/><use transform="matrix(0.07407407407407408,0,0,0.07407407407407408,19.185185185185187,0)" xlink:href="#u"/><use transform="matrix(0.07407407407407408,0,0,0.07407407407407408,34,0)" xlink:href="#y"/><use transform="matrix(0.07407407407407408,0,0,0.07407407407407408,47.33333333333334,0)" xlink:href="#p"/><use transform="matrix(0.07407407407407408,0,0,0.07407407407407408,62.14814814814816,0)" xlink:href="#r"/><use transform="matrix(0.07407407407407408,0,0,0.07407407407407408,70.96296296296296,0)" xlink:href="#z"/></g><path fill="#333" d="M185-189c-5-48-123-54-124 2 14 75 158 14 163 119 3 78-121 87-175 55-17-10-28-26-33-46l33-7c5 56 141 63 141-1 0-78-155-14-162-118-5-82 145-84 179-34 5 7 8 16 11 25" id="A"/><path fill="#333" d="M106-169C34-169 62-67 57 0H25v-261h32l-1 103c12-21 28-36 61-36 89 0 53 116 60 194h-32v-121c2-32-8-49-39-48" id="B"/><path fill="#333" d="M210-169c-67 3-38 105-44 169h-31v-121c0-29-5-50-35-48C34-165 62-65 56 0H25l-1-190h30c1 10-1 24 2 32 10-44 99-50 107 0 11-21 27-35 58-36 85-2 47 119 55 194h-31v-121c0-29-5-49-35-48" id="C"/><g id="d"><use transform="matrix(0.07407407407407408,0,0,0.07407407407407408,0,0)" xlink:href="#A"/><use transform="matrix(0.07407407407407408,0,0,0.07407407407407408,17.77777777777778,0)" xlink:href="#y"/><use transform="matrix(0.07407407407407408,0,0,0.07407407407407408,31.111111111111114,0)" xlink:href="#B"/><use transform="matrix(0.07407407407407408,0,0,0.07407407407407408,45.92592592592593,0)" xlink:href="#u"/><use transform="matrix(0.07407407407407408,0,0,0.07407407407407408,60.74074074074075,0)" xlink:href="#C"/><use transform="matrix(0.07407407407407408,0,0,0.07407407407407408,82.8888888888889,0)" xlink:href="#u"/></g><path fill="#333" d="M27 0v-27h64v-190l-56 39v-29l58-41h29v221h61V0H27" id="D"/><use transform="matrix(0.07407407407407408,0,0,0.07407407407407408,0,0)" xlink:href="#D" id="e"/><path fill="#333" d="M87 75C49 33 22-17 22-94c0-76 28-126 65-167h31c-38 41-64 92-64 168S80 34 118 75H87" id="E"/><path fill="#333" d="M33 0v-38h34V0H33" id="F"/><path fill="#333" d="M177-190C167-65 218 103 67 71c-23-6-38-20-44-43l32-5c15 47 100 32 89-28v-30C133-14 115 1 83 1 29 1 15-40 15-95c0-56 16-97 71-98 29-1 48 16 59 35 1-10 0-23 2-32h30zM94-22c36 0 50-32 50-73 0-42-14-75-50-75-39 0-46 34-46 75s6 73 46 73" id="G"/><g id="f"><use transform="matrix(0.06172839506172839,0,0,0.06172839506172839,0,0)" xlink:href="#E"/><use transform="matrix(0.06172839506172839,0,0,0.06172839506172839,7.345679012345679,0)" xlink:href="#u"/><use transform="matrix(0.06172839506172839,0,0,0.06172839506172839,19.691358024691358,0)" xlink:href="#F"/><use transform="matrix(0.06172839506172839,0,0,0.06172839506172839,25.864197530864196,0)" xlink:href="#G"/><use transform="matrix(0.06172839506172839,0,0,0.06172839506172839,38.20987654320987,0)" xlink:href="#F"/></g><path fill="#333" d="M24-231v-30h32v30H24zM24 0v-190h32V0H24" id="H"/><path fill="#333" d="M59-47c-2 24 18 29 38 22v24C64 9 27 4 27-40v-127H5v-23h24l9-43h21v43h35v23H59v120" id="I"/><path fill="#333" d="M33-261c38 41 65 92 65 168S71 34 33 75H2C39 34 66-17 66-93S39-220 2-261h31" id="J"/><g id="g"><use transform="matrix(0.06172839506172839,0,0,0.06172839506172839,0,0)" xlink:href="#q"/><use transform="matrix(0.06172839506172839,0,0,0.06172839506172839,4.876543209876543,0)" xlink:href="#H"/><use transform="matrix(0.06172839506172839,0,0,0.06172839506172839,9.753086419753085,0)" xlink:href="#G"/><use transform="matrix(0.06172839506172839,0,0,0.06172839506172839,22.098765432098766,0)" xlink:href="#B"/><use transform="matrix(0.06172839506172839,0,0,0.06172839506172839,34.44444444444444,0)" xlink:href="#I"/><use transform="matrix(0.06172839506172839,0,0,0.06172839506172839,40.617283950617285,0)" xlink:href="#J"/></g><path fill="#333" d="M101-251c82-7 93 87 43 132L82-64C71-53 59-42 53-27h129V0H18c2-99 128-94 128-182 0-28-16-43-45-43s-46 15-49 41l-32-3c6-41 34-60 81-64" id="K"/><use transform="matrix(0.07407407407407408,0,0,0.07407407407407408,0,0)" xlink:href="#K" id="h"/><g id="i"><use transform="matrix(0.06172839506172839,0,0,0.06172839506172839,0,0)" xlink:href="#E"/><use transform="matrix(0.06172839506172839,0,0,0.06172839506172839,7.345679012345679,0)" xlink:href="#u"/><use transform="matrix(0.06172839506172839,0,0,0.06172839506172839,19.691358024691358,0)" xlink:href="#F"/><use transform="matrix(0.06172839506172839,0,0,0.06172839506172839,25.864197530864196,0)" xlink:href="#G"/><use transform="matrix(0.06172839506172839,0,0,0.06172839506172839,38.20987654320987,0)" xlink:href="#F"/></g><path fill="#333" d="M141-36C126-15 110 5 73 4 37 3 15-17 15-53c-1-64 63-63 125-63 3-35-9-54-41-54-24 1-41 7-42 31l-33-3c5-37 33-52 76-52 45 0 72 20 72 64v82c-1 20 7 32 28 27v20c-31 9-61-2-59-35zM48-53c0 20 12 33 32 33 41-3 63-29 60-74-43 2-92-5-92 41" id="L"/><g id="j"><use transform="matrix(0.06172839506172839,0,0,0.06172839506172839,0,0)" xlink:href="#z"/><use transform="matrix(0.06172839506172839,0,0,0.06172839506172839,12.345679012345679,0)" xlink:href="#L"/><use transform="matrix(0.06172839506172839,0,0,0.06172839506172839,24.691358024691358,0)" xlink:href="#r"/><use transform="matrix(0.06172839506172839,0,0,0.06172839506172839,32.03703703703704,0)" xlink:href="#t"/><use transform="matrix(0.06172839506172839,0,0,0.06172839506172839,43.14814814814815,0)" xlink:href="#J"/></g><path fill="#333" d="M240 0l2-218c-23 76-54 145-80 218h-23L58-218 59 0H30v-248h44l77 211c21-75 51-140 76-211h43V0h-30" id="M"/><g id="k"><use transform="matrix(0.06172839506172839,0,0,0.06172839506172839,0,0)" xlink:href="#M"/><use transform="matrix(0.06172839506172839,0,0,0.06172839506172839,18.456790123456788,0)" xlink:href="#L"/><use transform="matrix(0.06172839506172839,0,0,0.06172839506172839,30.80246913580247,0)" xlink:href="#H"/><use transform="matrix(0.06172839506172839,0,0,0.06172839506172839,35.67901234567901,0)" xlink:href="#v"/></g><g id="l"><use transform="matrix(0.06172839506172839,0,0,0.06172839506172839,0,0)" xlink:href="#A"/><use transform="matrix(0.06172839506172839,0,0,0.06172839506172839,14.814814814814813,0)" xlink:href="#y"/><use transform="matrix(0.06172839506172839,0,0,0.06172839506172839,25.925925925925924,0)" xlink:href="#B"/><use transform="matrix(0.06172839506172839,0,0,0.06172839506172839,38.2716049382716,0)" xlink:href="#u"/><use transform="matrix(0.06172839506172839,0,0,0.06172839506172839,50.61728395061728,0)" xlink:href="#C"/><use transform="matrix(0.06172839506172839,0,0,0.06172839506172839,69.07407407407406,0)" xlink:href="#u"/></g><path fill="#fff" d="M205 0l-28-72H64L36 0H1l101-248h38L239 0h-34zm-38-99l-47-123c-12 45-31 82-46 123h93" id="N"/><path fill="#fff" d="M24 0v-261h32V0H24" id="O"/><path fill="#fff" d="M59-47c-2 24 18 29 38 22v24C64 9 27 4 27-40v-127H5v-23h24l9-43h21v43h35v23H59v120" id="P"/><path fill="#fff" d="M100-194c63 0 86 42 84 106H49c0 40 14 67 53 68 26 1 43-12 49-29l28 8c-11 28-37 45-77 45C44 4 14-33 15-96c1-61 26-98 85-98zm52 81c6-60-76-77-97-28-3 7-6 17-6 28h103" id="Q"/><path fill="#fff" d="M114-163C36-179 61-72 57 0H25l-1-190h30c1 12-1 29 2 39 6-27 23-49 58-41v29" id="R"/><path fill="#fff" d="M117-194c89-4 53 116 60 194h-32v-121c0-31-8-49-39-48C34-167 62-67 57 0H25l-1-190h30c1 10-1 24 2 32 11-22 29-35 61-36" id="S"/><path fill="#fff" d="M141-36C126-15 110 5 73 4 37 3 15-17 15-53c-1-64 63-63 125-63 3-35-9-54-41-54-24 1-41 7-42 31l-33-3c5-37 33-52 76-52 45 0 72 20 72 64v82c-1 20 7 32 28 27v20c-31 9-61-2-59-35zM48-53c0 20 12 33 32 33 41-3 63-29 60-74-43 2-92-5-92 41" id="T"/><g id="m"><use transform="matrix(0.06172839506172839,0,0,0.06172839506172839,0,0)" xlink:href="#N"/><use transform="matrix(0.06172839506172839,0,0,0.06172839506172839,14.814814814814813,0)" xlink:href="#O"/><use transform="matrix(0.06172839506172839,0,0,0.06172839506172839,19.691358024691354,0)" xlink:href="#P"/><use transform="matrix(0.06172839506172839,0,0,0.06172839506172839,25.864197530864192,0)" xlink:href="#Q"/><use transform="matrix(0.06172839506172839,0,0,0.06172839506172839,38.20987654320987,0)" xlink:href="#R"/><use transform="matrix(0.06172839506172839,0,0,0.06172839506172839,45.55555555555555,0)" xlink:href="#S"/><use transform="matrix(0.06172839506172839,0,0,0.06172839506172839,57.90123456790123,0)" xlink:href="#T"/><use transform="matrix(0.06172839506172839,0,0,0.06172839506172839,70.24691358024691,0)" xlink:href="#P"/><use transform="matrix(0.06172839506172839,0,0,0.06172839506172839,76.41975308641975,0)" xlink:href="#Q"/></g><path fill="#fff" d="M185-189c-5-48-123-54-124 2 14 75 158 14 163 119 3 78-121 87-175 55-17-10-28-26-33-46l33-7c5 56 141 63 141-1 0-78-155-14-162-118-5-82 145-84 179-34 5 7 8 16 11 25" id="U"/><path fill="#fff" d="M96-169c-40 0-48 33-48 73s9 75 48 75c24 0 41-14 43-38l32 2c-6 37-31 61-74 61-59 0-76-41-82-99-10-93 101-131 147-64 4 7 5 14 7 22l-32 3c-4-21-16-35-41-35" id="V"/><path fill="#fff" d="M106-169C34-169 62-67 57 0H25v-261h32l-1 103c12-21 28-36 61-36 89 0 53 116 60 194h-32v-121c2-32-8-49-39-48" id="W"/><path fill="#fff" d="M210-169c-67 3-38 105-44 169h-31v-121c0-29-5-50-35-48C34-165 62-65 56 0H25l-1-190h30c1 10-1 24 2 32 10-44 99-50 107 0 11-21 27-35 58-36 85-2 47 119 55 194h-31v-121c0-29-5-49-35-48" id="X"/><g id="n"><use transform="matrix(0.06172839506172839,0,0,0.06172839506172839,0,0)" xlink:href="#U"/><use transform="matrix(0.06172839506172839,0,0,0.06172839506172839,14.814814814814813,0)" xlink:href="#V"/><use transform="matrix(0.06172839506172839,0,0,0.06172839506172839,25.925925925925924,0)" xlink:href="#W"/><use transform="matrix(0.06172839506172839,0,0,0.06172839506172839,38.2716049382716,0)" xlink:href="#Q"/><use transform="matrix(0.06172839506172839,0,0,0.06172839506172839,50.61728395061728,0)" xlink:href="#X"/><use transform="matrix(0.06172839506172839,0,0,0.06172839506172839,69.07407407407406,0)" xlink:href="#Q"/></g></defs></g></svg>