<svg width="1056" height="795" viewBox="0 0 1056 795" fill="none" xmlns="http://www.w3.org/2000/svg">
<path d="M396.511 26C396.511 22.7 399.211 20 402.511 20H652.711C656.031 20 658.711 22.7 658.711 26V134C658.711 137.3 656.031 140 652.711 140H402.511C399.211 140 396.511 137.3 396.511 134V26Z" fill="#E6E6E6"/>
<path d="M256 266C256 262.7 258.7 260 262 260H410C413.32 260 416 262.7 416 266V374C416 377.3 413.32 380 410 380H262C258.7 380 256 377.3 256 374V266Z" fill="#DCC1FC"/>
<path d="M308.703 305.852C308.414 303.859 306.938 302.547 304.406 302.547C301.961 302.547 300.25 303.773 300.25 305.992C300.25 308.445 302.328 308.844 304.148 309.188C305.586 309.461 306.883 309.719 306.883 310.953C306.883 311.922 306.078 312.516 304.82 312.516C303.344 312.516 302.289 311.711 302.109 310.32L300.133 310.664C300.391 312.82 302.344 314.258 304.812 314.258C307.273 314.258 308.875 312.82 308.875 310.664C308.875 308.188 306.766 307.836 304.938 307.508C303.516 307.25 302.258 307.016 302.258 305.781C302.258 304.789 303.078 304.289 304.312 304.289C305.828 304.289 306.586 305.031 306.734 306.188L308.703 305.852ZM316.305 308.641L318.164 308.312C317.852 306.641 316.617 305.453 314.516 305.453C312.047 305.453 310.57 307.094 310.57 309.797C310.57 312.477 312.016 314.133 314.477 314.133C316.578 314.133 317.852 312.93 318.164 311.258L316.305 310.93C316.109 311.922 315.477 312.477 314.477 312.477C313.195 312.477 312.492 311.555 312.492 309.812C312.492 308.039 313.227 307.109 314.516 307.109C315.492 307.109 316.109 307.656 316.305 308.641ZM320.164 302.539V314H322.086V309.242C322.086 308.07 322.797 307.172 324.031 307.172C325.086 307.172 325.57 307.836 325.57 308.961V314H327.492V308.336C327.492 306.547 326.492 305.453 324.664 305.453C323.281 305.453 322.531 306.078 322.086 306.898V302.539H320.164ZM337.203 309.312C337.203 306.945 335.789 305.453 333.477 305.453C331.023 305.453 329.492 307.141 329.492 309.844C329.492 312.414 330.867 314.125 333.438 314.125C335.289 314.125 336.484 313.227 337.086 311.984L335.406 311.391C335.094 311.977 334.547 312.508 333.5 312.508C332.156 312.508 331.484 311.594 331.422 310.453H337.203V309.312ZM333.445 307.07C334.516 307.07 335.227 307.648 335.266 309.023H331.43C331.562 307.875 332.234 307.07 333.445 307.07ZM339.289 305.609V314H341.211V309.117C341.211 308 341.844 307.172 342.961 307.172C343.93 307.172 344.406 307.797 344.406 308.914V314H346.336V309.117C346.336 307.992 346.953 307.172 348.062 307.172C349.031 307.172 349.531 307.789 349.531 308.914V314H351.453V308.266C351.453 306.555 350.5 305.453 348.672 305.453C347.25 305.453 346.383 306.125 345.914 307.164C345.57 306.102 344.859 305.453 343.586 305.453C342.336 305.453 341.648 306.047 341.211 306.898V305.609H339.289ZM361.172 309.312C361.172 306.945 359.758 305.453 357.445 305.453C354.992 305.453 353.461 307.141 353.461 309.844C353.461 312.414 354.836 314.125 357.406 314.125C359.258 314.125 360.453 313.227 361.055 311.984L359.375 311.391C359.062 311.977 358.516 312.508 357.469 312.508C356.125 312.508 355.453 311.594 355.391 310.453H361.172V309.312ZM357.414 307.07C358.484 307.07 359.195 307.648 359.234 309.023H355.398C355.531 307.875 356.203 307.07 357.414 307.07ZM371.086 302.906H369.445C368.695 303.836 367.688 304.414 366.414 304.625V306.641C367.609 306.43 368.523 305.984 369.141 305.336V314H371.086V302.906ZM298.266 332.609C298.266 330.281 299.234 328.141 301.156 326.406L300.008 325.094C297.609 327.055 296.328 329.734 296.328 332.609C296.328 335.477 297.609 338.156 300.008 340.117L301.156 338.805C299.234 337.078 298.266 334.922 298.266 332.609ZM310.008 333.312C310.008 330.945 308.594 329.453 306.281 329.453C303.828 329.453 302.297 331.141 302.297 333.844C302.297 336.414 303.672 338.125 306.242 338.125C308.094 338.125 309.289 337.227 309.891 335.984L308.211 335.391C307.898 335.977 307.352 336.508 306.305 336.508C304.961 336.508 304.289 335.594 304.227 334.453H310.008V333.312ZM306.25 331.07C307.32 331.07 308.031 331.648 308.07 333.023H304.234C304.367 331.875 305.039 331.07 306.25 331.07ZM314.406 335.664H312.094V338H314.406V335.664ZM324.516 329.609H322.594V330.852C322.133 329.875 321.281 329.453 320.102 329.453C317.703 329.453 316.484 331.188 316.484 333.414C316.484 335.664 317.719 337.406 320.078 337.406C321.297 337.406 322.117 336.938 322.594 335.953V337.625C322.594 338.695 321.844 339.43 320.531 339.43C319.391 339.43 318.648 338.867 318.391 337.938L316.547 338.391C316.992 339.984 318.414 341.055 320.523 341.055C322.969 341.055 324.516 339.617 324.516 337.57V329.609ZM320.516 331.094C321.828 331.094 322.594 332.008 322.594 333.422C322.594 334.836 321.828 335.766 320.508 335.766C319.203 335.766 318.406 334.844 318.406 333.422C318.406 332.008 319.195 331.094 320.516 331.094ZM329.375 335.664H327.062V338H329.375V335.664ZM335.781 326.539V338H337.703V326.539H335.781ZM342.336 326.469H340.25V328.406H342.336V326.469ZM342.25 329.609H340.328V338H342.25V329.609ZM352.359 329.609H350.438V330.852C349.977 329.875 349.125 329.453 347.945 329.453C345.547 329.453 344.328 331.188 344.328 333.414C344.328 335.664 345.562 337.406 347.922 337.406C349.141 337.406 349.961 336.938 350.438 335.953V337.625C350.438 338.695 349.688 339.43 348.375 339.43C347.234 339.43 346.492 338.867 346.234 337.938L344.391 338.391C344.836 339.984 346.258 341.055 348.367 341.055C350.812 341.055 352.359 339.617 352.359 337.57V329.609ZM348.359 331.094C349.672 331.094 350.438 332.008 350.438 333.422C350.438 334.836 349.672 335.766 348.352 335.766C347.047 335.766 346.25 334.844 346.25 333.422C346.25 332.008 347.039 331.094 348.359 331.094ZM354.906 326.539V338H356.828V333.242C356.828 332.07 357.539 331.172 358.773 331.172C359.828 331.172 360.312 331.836 360.312 332.961V338H362.234V332.336C362.234 330.547 361.234 329.453 359.406 329.453C358.023 329.453 357.273 330.078 356.828 330.898V326.539H354.906ZM369.273 329.609H367.266V327.133L365.344 327.672V329.609H363.812V331.32H365.344V335.797C365.344 337.602 366.344 338.125 367.836 338.125C368.352 338.125 368.914 338.055 369.422 337.93L369.336 336.352C369 336.406 368.688 336.438 368.438 336.438C367.266 336.438 367.266 335.711 367.266 335.297V331.32H369.273V329.609ZM373.742 332.609C373.742 334.922 372.766 337.078 370.844 338.805L371.992 340.117C374.398 338.156 375.672 335.477 375.672 332.609C375.672 329.734 374.398 327.055 371.992 325.094L370.844 326.406C372.766 328.141 373.742 330.281 373.742 332.609Z" fill="black"/>
<path d="M489.102 66.1172C488.695 63.8281 486.945 62.5391 484.484 62.5391C481.148 62.5391 479.188 64.8906 479.188 68.4766C479.188 72.0547 481.141 74.2578 484.375 74.2578C487.023 74.2578 488.781 72.7812 489.172 70.4375L487.219 70.0312C486.977 71.5625 485.977 72.4062 484.422 72.4062C482.383 72.4062 481.203 70.9453 481.203 68.4219C481.203 65.9453 482.336 64.3906 484.492 64.3906C485.961 64.3906 486.945 65.1094 487.141 66.5312L489.102 66.1172ZM494.68 65.4531C492.242 65.4531 490.703 67.1328 490.703 69.7891C490.703 72.4453 492.242 74.125 494.68 74.125C497.125 74.125 498.664 72.4453 498.664 69.7891C498.664 67.1328 497.125 65.4531 494.68 65.4531ZM494.68 67.0938C495.984 67.0938 496.742 68.0391 496.742 69.7891C496.742 71.5469 495.984 72.4844 494.68 72.4844C493.383 72.4844 492.625 71.5469 492.625 69.7891C492.625 68.0391 493.383 67.0938 494.68 67.0938ZM500.75 62.5391V74H502.672V62.5391H500.75ZM508.727 65.4531C506.289 65.4531 504.75 67.1328 504.75 69.7891C504.75 72.4453 506.289 74.125 508.727 74.125C511.172 74.125 512.711 72.4453 512.711 69.7891C512.711 67.1328 511.172 65.4531 508.727 65.4531ZM508.727 67.0938C510.031 67.0938 510.789 68.0391 510.789 69.7891C510.789 71.5469 510.031 72.4844 508.727 72.4844C507.43 72.4844 506.672 71.5469 506.672 69.7891C506.672 68.0391 507.43 67.0938 508.727 67.0938ZM514.797 65.6094V74H516.719V69.9062C516.719 68.1797 517.586 67.3828 519 67.3828C519.258 67.3828 519.508 67.4062 519.781 67.4453L519.836 65.5938C519.594 65.5469 519.375 65.5234 519.133 65.5234C518.086 65.5234 517.164 65.9062 516.719 67.1484V65.6094H514.797ZM523.891 64.6719H527.648V74H529.633V64.6719H533.391V62.7969H523.891V64.6719ZM537.852 65.4531C535.414 65.4531 533.875 67.1328 533.875 69.7891C533.875 72.4453 535.414 74.125 537.852 74.125C540.297 74.125 541.836 72.4453 541.836 69.7891C541.836 67.1328 540.297 65.4531 537.852 65.4531ZM537.852 67.0938C539.156 67.0938 539.914 68.0391 539.914 69.7891C539.914 71.5469 539.156 72.4844 537.852 72.4844C536.555 72.4844 535.797 71.5469 535.797 69.7891C535.797 68.0391 536.555 67.0938 537.852 67.0938ZM551.758 65.6094H549.133L545.844 68.9688V62.5391H543.922V74H545.844V71.4297L547.109 70.2188L549.336 74H551.586L548.453 68.8594L551.758 65.6094ZM560.227 69.3125C560.227 66.9453 558.812 65.4531 556.5 65.4531C554.047 65.4531 552.516 67.1406 552.516 69.8438C552.516 72.4141 553.891 74.125 556.461 74.125C558.312 74.125 559.508 73.2266 560.109 71.9844L558.43 71.3906C558.117 71.9766 557.57 72.5078 556.523 72.5078C555.18 72.5078 554.508 71.5938 554.445 70.4531H560.227V69.3125ZM556.469 67.0703C557.539 67.0703 558.25 67.6484 558.289 69.0234H554.453C554.586 67.875 555.258 67.0703 556.469 67.0703ZM562.312 65.6094V74H564.234V69.2422C564.234 68.0703 564.945 67.1719 566.18 67.1719C567.234 67.1719 567.719 67.8359 567.719 68.9609V74H569.641V68.3359C569.641 66.5469 568.641 65.4531 566.812 65.4531C565.43 65.4531 564.68 66.0781 564.234 66.8984V65.6094H562.312ZM578.734 67.7891C578.398 66.4375 577.258 65.4531 575.195 65.4531C573.109 65.4531 571.766 66.4531 571.766 68.1328C571.766 70.0234 573.492 70.2891 574.953 70.5078C576.023 70.6719 576.977 70.8047 576.977 71.5781C576.977 72.1719 576.414 72.5859 575.469 72.5859C574.477 72.5859 573.711 72.125 573.461 71.2188L571.656 71.6797C572.102 73.2109 573.57 74.125 575.438 74.125C577.516 74.125 578.891 72.9844 578.891 71.3047C578.891 69.4141 577.148 69.2031 575.688 69.0078C574.602 68.8594 573.664 68.7344 573.664 67.9531C573.664 67.3984 574.133 67 575.125 67C576.164 67 576.727 67.4453 576.953 68.2422L578.734 67.7891ZM502.766 86.7969V98H504.75V93.9844H507.117L509.078 98H511.297L509.188 93.7188C510.523 93.1641 511.367 91.7969 511.367 90.25C511.367 88.3594 510.117 86.7969 507.914 86.7969H502.766ZM504.75 88.6719H507.57C508.641 88.6719 509.359 89.3047 509.359 90.3359C509.359 91.3984 508.586 92.1328 507.438 92.1328H504.75V88.6719ZM520.695 93.3125C520.695 90.9453 519.281 89.4531 516.969 89.4531C514.516 89.4531 512.984 91.1406 512.984 93.8438C512.984 96.4141 514.359 98.125 516.93 98.125C518.781 98.125 519.977 97.2266 520.578 95.9844L518.898 95.3906C518.586 95.9766 518.039 96.5078 516.992 96.5078C515.648 96.5078 514.977 95.5938 514.914 94.4531H520.695V93.3125ZM516.938 91.0703C518.008 91.0703 518.719 91.6484 518.758 93.0234H514.922C515.055 91.875 515.727 91.0703 516.938 91.0703ZM527.969 92.6406L529.828 92.3125C529.516 90.6406 528.281 89.4531 526.18 89.4531C523.711 89.4531 522.234 91.0938 522.234 93.7969C522.234 96.4766 523.68 98.1328 526.141 98.1328C528.242 98.1328 529.516 96.9297 529.828 95.2578L527.969 94.9297C527.773 95.9219 527.141 96.4766 526.141 96.4766C524.859 96.4766 524.156 95.5547 524.156 93.8125C524.156 92.0391 524.891 91.1094 526.18 91.1094C527.156 91.1094 527.773 91.6562 527.969 92.6406ZM535.258 89.4531C532.82 89.4531 531.281 91.1328 531.281 93.7891C531.281 96.4453 532.82 98.125 535.258 98.125C537.703 98.125 539.242 96.4453 539.242 93.7891C539.242 91.1328 537.703 89.4531 535.258 89.4531ZM535.258 91.0938C536.562 91.0938 537.32 92.0391 537.32 93.7891C537.32 95.5469 536.562 96.4844 535.258 96.4844C533.961 96.4844 533.203 95.5469 533.203 93.7891C533.203 92.0391 533.961 91.0938 535.258 91.0938ZM541.328 89.6094V98H543.25V93.9062C543.25 92.1797 544.117 91.3828 545.531 91.3828C545.789 91.3828 546.039 91.4062 546.312 91.4453L546.367 89.5938C546.125 89.5469 545.906 89.5234 545.664 89.5234C544.617 89.5234 543.695 89.9062 543.25 91.1484V89.6094H541.328ZM555.375 98V86.5391H553.453V90.9062C552.977 89.9219 552.109 89.4531 550.898 89.4531C548.57 89.4531 547.344 91.2266 547.344 93.7969C547.344 96.3438 548.547 98.125 550.93 98.125C552.109 98.125 552.992 97.6875 553.484 96.6016V98H555.375ZM551.367 96.4844C550.039 96.4844 549.266 95.4922 549.266 93.7891C549.266 92.0703 550.047 91.0938 551.367 91.0938C552.68 91.0938 553.453 92.0703 553.453 93.7891C553.453 95.4922 552.688 96.4844 551.367 96.4844Z" fill="black"/>
<path d="M639 266C639 262.7 641.7 260 645 260H793C796.3 260 799 262.7 799 266V374C799 377.3 796.3 380 793 380H645C641.7 380 639 377.3 639 374V266Z" fill="#9DD2FE"/>
<path d="M689.781 305.852C689.492 303.859 688.016 302.547 685.484 302.547C683.039 302.547 681.328 303.773 681.328 305.992C681.328 308.445 683.406 308.844 685.227 309.188C686.664 309.461 687.961 309.719 687.961 310.953C687.961 311.922 687.156 312.516 685.898 312.516C684.422 312.516 683.367 311.711 683.188 310.32L681.211 310.664C681.469 312.82 683.422 314.258 685.891 314.258C688.352 314.258 689.953 312.82 689.953 310.664C689.953 308.188 687.844 307.836 686.016 307.508C684.594 307.25 683.336 307.016 683.336 305.781C683.336 304.789 684.156 304.289 685.391 304.289C686.906 304.289 687.664 305.031 687.812 306.188L689.781 305.852ZM697.383 308.641L699.242 308.312C698.93 306.641 697.695 305.453 695.594 305.453C693.125 305.453 691.648 307.094 691.648 309.797C691.648 312.477 693.094 314.133 695.555 314.133C697.656 314.133 698.93 312.93 699.242 311.258L697.383 310.93C697.188 311.922 696.555 312.477 695.555 312.477C694.273 312.477 693.57 311.555 693.57 309.812C693.57 308.039 694.305 307.109 695.594 307.109C696.57 307.109 697.188 307.656 697.383 308.641ZM701.242 302.539V314H703.164V309.242C703.164 308.07 703.875 307.172 705.109 307.172C706.164 307.172 706.648 307.836 706.648 308.961V314H708.57V308.336C708.57 306.547 707.57 305.453 705.742 305.453C704.359 305.453 703.609 306.078 703.164 306.898V302.539H701.242ZM718.281 309.312C718.281 306.945 716.867 305.453 714.555 305.453C712.102 305.453 710.57 307.141 710.57 309.844C710.57 312.414 711.945 314.125 714.516 314.125C716.367 314.125 717.562 313.227 718.164 311.984L716.484 311.391C716.172 311.977 715.625 312.508 714.578 312.508C713.234 312.508 712.562 311.594 712.5 310.453H718.281V309.312ZM714.523 307.07C715.594 307.07 716.305 307.648 716.344 309.023H712.508C712.641 307.875 713.312 307.07 714.523 307.07ZM720.367 305.609V314H722.289V309.117C722.289 308 722.922 307.172 724.039 307.172C725.008 307.172 725.484 307.797 725.484 308.914V314H727.414V309.117C727.414 307.992 728.031 307.172 729.141 307.172C730.109 307.172 730.609 307.789 730.609 308.914V314H732.531V308.266C732.531 306.555 731.578 305.453 729.75 305.453C728.328 305.453 727.461 306.125 726.992 307.164C726.648 306.102 725.938 305.453 724.664 305.453C723.414 305.453 722.727 306.047 722.289 306.898V305.609H720.367ZM742.25 309.312C742.25 306.945 740.836 305.453 738.523 305.453C736.07 305.453 734.539 307.141 734.539 309.844C734.539 312.414 735.914 314.125 738.484 314.125C740.336 314.125 741.531 313.227 742.133 311.984L740.453 311.391C740.141 311.977 739.594 312.508 738.547 312.508C737.203 312.508 736.531 311.594 736.469 310.453H742.25V309.312ZM738.492 307.07C739.562 307.07 740.273 307.648 740.312 309.023H736.477C736.609 307.875 737.281 307.07 738.492 307.07ZM755.727 314V312.188H750.031C750.305 311.641 750.875 311.109 751.461 310.695L752.805 309.75C754.094 308.844 755.5 307.859 755.5 305.898C755.5 304.055 754.25 302.719 751.961 302.719C749.398 302.719 747.836 304.398 747.789 306.648L749.703 306.836C749.727 305.383 750.539 304.469 751.828 304.469C752.891 304.469 753.523 305.102 753.523 305.984C753.523 307.078 752.57 307.773 751.781 308.328L750.406 309.297C748.453 310.672 747.648 311.992 747.648 313.328V314H755.727ZM680.828 332.609C680.828 330.281 681.797 328.141 683.719 326.406L682.57 325.094C680.172 327.055 678.891 329.734 678.891 332.609C678.891 335.477 680.172 338.156 682.57 340.117L683.719 338.805C681.797 337.078 680.828 334.922 680.828 332.609ZM692.57 333.312C692.57 330.945 691.156 329.453 688.844 329.453C686.391 329.453 684.859 331.141 684.859 333.844C684.859 336.414 686.234 338.125 688.805 338.125C690.656 338.125 691.852 337.227 692.453 335.984L690.773 335.391C690.461 335.977 689.914 336.508 688.867 336.508C687.523 336.508 686.852 335.594 686.789 334.453H692.57V333.312ZM688.812 331.07C689.883 331.07 690.594 331.648 690.633 333.023H686.797C686.93 331.875 687.602 331.07 688.812 331.07ZM696.969 335.664H694.656V338H696.969V335.664ZM707.078 329.609H705.156V330.852C704.695 329.875 703.844 329.453 702.664 329.453C700.266 329.453 699.047 331.188 699.047 333.414C699.047 335.664 700.281 337.406 702.641 337.406C703.859 337.406 704.68 336.938 705.156 335.953V337.625C705.156 338.695 704.406 339.43 703.094 339.43C701.953 339.43 701.211 338.867 700.953 337.938L699.109 338.391C699.555 339.984 700.977 341.055 703.086 341.055C705.531 341.055 707.078 339.617 707.078 337.57V329.609ZM703.078 331.094C704.391 331.094 705.156 332.008 705.156 333.422C705.156 334.836 704.391 335.766 703.07 335.766C701.766 335.766 700.969 334.844 700.969 333.422C700.969 332.008 701.758 331.094 703.078 331.094ZM711.938 335.664H709.625V338H711.938V335.664ZM725.75 338V326.539H723.828V330.906C723.352 329.922 722.484 329.453 721.273 329.453C718.945 329.453 717.719 331.227 717.719 333.797C717.719 336.344 718.922 338.125 721.305 338.125C722.484 338.125 723.367 337.688 723.859 336.602V338H725.75ZM721.742 336.484C720.414 336.484 719.641 335.492 719.641 333.789C719.641 332.07 720.422 331.094 721.742 331.094C723.055 331.094 723.828 332.07 723.828 333.789C723.828 335.492 723.062 336.484 721.742 336.484ZM731.852 329.453C729.773 329.453 728.469 330.398 727.992 331.961L729.852 332.43C730.102 331.578 730.727 331.07 731.789 331.07C732.781 331.07 733.234 331.508 733.234 332.078C733.234 332.844 732.43 332.953 731.273 333.078C729.773 333.242 727.844 333.438 727.844 335.594C727.844 337.172 728.867 338.125 730.594 338.125C731.711 338.125 732.648 337.727 733.266 336.719V338H735.156V332.234C735.156 330.469 734 329.453 731.852 329.453ZM731.055 336.508C730.242 336.508 729.758 336.195 729.758 335.484C729.758 334.586 730.523 334.508 731.492 334.383C732.117 334.305 732.703 334.211 733.234 334.031V334.703C733.234 335.828 732.273 336.508 731.055 336.508ZM737.703 329.609V338H739.625V333.906C739.625 332.18 740.492 331.383 741.906 331.383C742.164 331.383 742.414 331.406 742.688 331.445L742.742 329.594C742.5 329.547 742.281 329.523 742.039 329.523C740.992 329.523 740.07 329.906 739.625 331.148V329.609H737.703ZM752.289 329.609H749.664L746.375 332.969V326.539H744.453V338H746.375V335.43L747.641 334.219L749.867 338H752.117L748.984 332.859L752.289 329.609ZM756.18 332.609C756.18 334.922 755.203 337.078 753.281 338.805L754.43 340.117C756.836 338.156 758.109 335.477 758.109 332.609C758.109 329.734 756.836 327.055 754.43 325.094L753.281 326.406C755.203 328.141 756.18 330.281 756.18 332.609Z" fill="black"/>
<path d="M527.601 141V141.17L527.521 142.31L527.401 143.44L527.241 144.54L527.041 145.64L526.781 146.74L526.481 147.81L526.121 148.89L525.721 149.99L525.261 151.07L524.731 152.17L524.151 153.31L523.481 154.46L522.731 155.63L521.891 156.85L520.951 158.1L519.871 159.4L518.651 160.75L517.251 162.17L515.651 163.67L513.8 165.27L511.641 166.99L509.091 168.83L506.031 170.85L502.331 173.09L497.731 175.61L491.871 178.51L484.021 182.01L472.601 186.51L450.92 193.98L391.32 213.48L379.901 217.98L372.06 221.45L366.19 224.35L361.591 226.88L357.891 229.12L354.841 231.14L352.291 232.99L350.121 234.72L348.271 236.32L346.67 237.82L345.271 239.24L344.051 240.6L342.971 241.9L342.271 242.84" stroke="#4D4D4D" stroke-width="2"/>
<path d="M528.581 141.05L526.581 141.01L526.621 140.01H528.621L528.581 141.05Z" fill="#4D4D4D"/>
<path d="M337.351 256.94L337.651 241.94L346.411 244.99L337.351 256.94Z" fill="#4D4D4D" stroke="#4D4D4D" stroke-width="2"/>
<path d="M527.641 141V141.17L527.711 142.31L527.831 143.44L527.991 144.54L528.211 145.64L528.471 146.74L528.771 147.81L529.121 148.89L529.521 149.99L529.991 151.07L530.511 152.17L531.111 153.31L531.761 154.46L532.511 155.63L533.351 156.85L534.301 158.1L535.401 159.4L536.601 160.75L538.001 162.17L539.601 163.67L541.471 165.27L543.631 166.99L546.181 168.83L549.231 170.85L552.931 173.09L557.531 175.61L563.391 178.51L571.231 182.01L582.651 186.51L604.351 193.98L663.951 213.48L675.351 217.98L683.201 221.45L689.081 224.35L693.681 226.88L697.381 229.12L700.421 231.14L702.971 232.99L705.141 234.72L706.991 236.32L708.591 237.82L709.991 239.24L711.211 240.6L712.281 241.9L712.981 242.84" stroke="#4D4D4D" stroke-width="2"/>
<path d="M528.641 141L526.641 141.05L526.621 140H528.621L528.641 141Z" fill="#4D4D4D"/>
<path d="M717.881 256.94L708.821 244.99L717.571 241.94L717.881 256.94Z" fill="#4D4D4D" stroke="#4D4D4D" stroke-width="2"/>
<path d="M718.98 381V382.03L719.11 383.99L719.31 385.87L719.59 387.71L719.94 389.51L720.34 391.26L720.84 393L721.391 394.72L722.021 396.42L722.74 398.12L723.541 399.82L724.44 401.52L725.44 403.26L726.541 405.01L727.791 406.81L729.19 408.67L730.791 410.57L732.57 412.57L734.62 414.65L736.98 416.87L739.73 419.25L743.031 421.85L747.031 424.77L752.151 428.17L759.151 432.39L771.411 439.09L806.771 457.62L813.771 461.87L818.87 465.25L822.891 468.17L826.19 470.77L828.95 473.15L831.31 475.37L833.36 477.47L835.141 479.45L836.72 481.35L838.12 483.2L839.37 485L840.5 486.76L841.5 488.49L842.401 490.19L843.2 491.89L843.24 492.03" stroke="#4D4D4D" stroke-width="2"/>
<path d="M719.981 381L717.981 381.05L717.951 380H719.951L719.981 381Z" fill="#4D4D4D"/>
<path d="M846.321 506.82L838.891 493.79L847.991 491.91L846.321 506.82Z" fill="#4D4D4D" stroke="#4D4D4D" stroke-width="2"/>
<path d="M336.261 381V381.74L336.141 383.41L335.971 385.05L335.731 386.63L335.431 388.18L335.071 389.7L334.651 391.2L334.171 392.68L333.621 394.16L333.001 395.64L332.301 397.14L331.521 398.64L330.641 400.14L329.661 401.68L328.561 403.26L327.321 404.88L325.921 406.56L324.361 408.31L322.561 410.15L320.501 412.08L318.101 414.16L315.261 416.4L311.861 418.87L307.621 421.67L302.121 424.99L294.271 429.29L276.531 437.99L250.231 450.69L242.381 454.99L236.901 458.32L232.671 461.12L229.251 463.6L226.411 465.85L224.011 467.93L221.941 469.86L220.141 471.69L218.581 473.43L217.201 475.11L215.971 476.73L214.871 478.31L213.871 479.85L213.001 481.35L212.571 482.19" stroke="#4D4D4D" stroke-width="2"/>
<path d="M337.261 381.05L335.261 381.01L335.281 380.01H337.281L337.261 381.05Z" fill="#4D4D4D"/>
<path d="M209.021 496.86L207.891 481.9L216.891 484.1L209.021 496.86Z" fill="#4D4D4D" stroke="#4D4D4D" stroke-width="2"/>
<path d="M20.001 506C20.001 502.7 22.701 500 26.001 500H390.501C393.831 500 396.501 502.7 396.501 506V758.05C396.501 761.35 393.831 764.05 390.501 764.05H26.001C22.701 764.05 20.001 761.35 20.001 758.05V506Z" fill="#DCC1FC"/>
<path d="M30.001 516C30.001 512.68 32.701 510 36.001 510H198.121C201.421 510 204.121 512.68 204.121 516V748.06C204.121 751.36 201.421 754.06 198.121 754.06H36.001C32.701 754.06 30.001 751.36 30.001 748.06V516Z" fill="white"/>
<path d="M213 516C213 512.68 215.7 510 219 510H381.13C384.45 510 387.13 512.68 387.13 516V748.06C387.13 751.36 384.45 754.06 381.13 754.06H219C215.7 754.06 213 751.36 213 748.06V516Z" fill="#4D4D4D"/>
<path d="M658.721 516C658.721 512.68 661.421 510 664.721 510H1029.22C1032.55 510 1035.22 512.68 1035.22 516V768.04C1035.22 771.36 1032.55 774.04 1029.22 774.04H664.721C661.421 774.04 658.721 771.36 658.721 768.04V516Z" fill="#9DD2FE"/>
<path d="M851 526C851 522.67 853.7 520 857 520H1019.12C1022.42 520 1025.12 522.67 1025.12 526V758.05C1025.12 761.35 1022.42 764.05 1019.12 764.05H857C853.7 764.05 851 761.35 851 758.05V526Z" fill="white"/>
<path d="M668.721 526C668.721 522.67 671.421 520 674.721 520H836.841C840.161 520 842.841 522.67 842.841 526V758.05C842.841 761.35 840.161 764.05 836.841 764.05H674.721C671.421 764.05 668.721 761.35 668.721 758.05V526Z" fill="#4D4D4D"/>
<path d="M746.477 624.797L743.633 633.094L740.789 624.797H737.883V636H739.836V627.547L742.5 635.219H744.766L747.43 627.547V636H749.383V624.797H746.477ZM755.625 627.453C753.547 627.453 752.242 628.398 751.766 629.961L753.625 630.43C753.875 629.578 754.5 629.07 755.562 629.07C756.555 629.07 757.008 629.508 757.008 630.078C757.008 630.844 756.203 630.953 755.047 631.078C753.547 631.242 751.617 631.438 751.617 633.594C751.617 635.172 752.641 636.125 754.367 636.125C755.484 636.125 756.422 635.727 757.039 634.719V636H758.93V630.234C758.93 628.469 757.773 627.453 755.625 627.453ZM754.828 634.508C754.016 634.508 753.531 634.195 753.531 633.484C753.531 632.586 754.297 632.508 755.266 632.383C755.891 632.305 756.477 632.211 757.008 632.031V632.703C757.008 633.828 756.047 634.508 754.828 634.508ZM763.484 624.469H761.398V626.406H763.484V624.469ZM763.398 627.609H761.477V636H763.398V627.609ZM766.023 627.609V636H767.945V631.242C767.945 630.07 768.656 629.172 769.891 629.172C770.945 629.172 771.43 629.836 771.43 630.961V636H773.352V630.336C773.352 628.547 772.352 627.453 770.523 627.453C769.141 627.453 768.391 628.078 767.945 628.898V627.609H766.023ZM733.625 651.852C733.336 649.859 731.859 648.547 729.328 648.547C726.883 648.547 725.172 649.773 725.172 651.992C725.172 654.445 727.25 654.844 729.07 655.188C730.508 655.461 731.805 655.719 731.805 656.953C731.805 657.922 731 658.516 729.742 658.516C728.266 658.516 727.211 657.711 727.031 656.32L725.055 656.664C725.312 658.82 727.266 660.258 729.734 660.258C732.195 660.258 733.797 658.82 733.797 656.664C733.797 654.188 731.688 653.836 729.859 653.508C728.438 653.25 727.18 653.016 727.18 651.781C727.18 650.789 728 650.289 729.234 650.289C730.75 650.289 731.508 651.031 731.656 652.188L733.625 651.852ZM741.227 654.641L743.086 654.312C742.773 652.641 741.539 651.453 739.438 651.453C736.969 651.453 735.492 653.094 735.492 655.797C735.492 658.477 736.938 660.133 739.398 660.133C741.5 660.133 742.773 658.93 743.086 657.258L741.227 656.93C741.031 657.922 740.398 658.477 739.398 658.477C738.117 658.477 737.414 657.555 737.414 655.812C737.414 654.039 738.148 653.109 739.438 653.109C740.414 653.109 741.031 653.656 741.227 654.641ZM745.086 648.539V660H747.008V655.242C747.008 654.07 747.719 653.172 748.953 653.172C750.008 653.172 750.492 653.836 750.492 654.961V660H752.414V654.336C752.414 652.547 751.414 651.453 749.586 651.453C748.203 651.453 747.453 652.078 747.008 652.898V648.539H745.086ZM762.125 655.312C762.125 652.945 760.711 651.453 758.398 651.453C755.945 651.453 754.414 653.141 754.414 655.844C754.414 658.414 755.789 660.125 758.359 660.125C760.211 660.125 761.406 659.227 762.008 657.984L760.328 657.391C760.016 657.977 759.469 658.508 758.422 658.508C757.078 658.508 756.406 657.594 756.344 656.453H762.125V655.312ZM758.367 653.07C759.438 653.07 760.148 653.648 760.188 655.023H756.352C756.484 653.875 757.156 653.07 758.367 653.07ZM764.211 651.609V660H766.133V655.117C766.133 654 766.766 653.172 767.883 653.172C768.852 653.172 769.328 653.797 769.328 654.914V660H771.258V655.117C771.258 653.992 771.875 653.172 772.984 653.172C773.953 653.172 774.453 653.789 774.453 654.914V660H776.375V654.266C776.375 652.555 775.422 651.453 773.594 651.453C772.172 651.453 771.305 652.125 770.836 653.164C770.492 652.102 769.781 651.453 768.508 651.453C767.258 651.453 766.57 652.047 766.133 652.898V651.609H764.211ZM786.094 655.312C786.094 652.945 784.68 651.453 782.367 651.453C779.914 651.453 778.383 653.141 778.383 655.844C778.383 658.414 779.758 660.125 782.328 660.125C784.18 660.125 785.375 659.227 785.977 657.984L784.297 657.391C783.984 657.977 783.438 658.508 782.391 658.508C781.047 658.508 780.375 657.594 780.312 656.453H786.094V655.312ZM782.336 653.07C783.406 653.07 784.117 653.648 784.156 655.023H780.32C780.453 653.875 781.125 653.07 782.336 653.07Z" fill="white"/>
<path d="M901.562 632H903.68L904.656 629.281H909.289L910.273 632H912.383L908.234 620.797H905.703L901.562 632ZM905.32 627.406L906.969 622.82L908.625 627.406H905.32ZM914.156 620.539V632H916.078V620.539H914.156ZM923.195 623.609H921.188V621.133L919.266 621.672V623.609H917.734V625.32H919.266V629.797C919.266 631.602 920.266 632.125 921.758 632.125C922.273 632.125 922.836 632.055 923.344 631.93L923.258 630.352C922.922 630.406 922.609 630.438 922.359 630.438C921.188 630.438 921.188 629.711 921.188 629.297V625.32H923.195V623.609ZM932.398 627.312C932.398 624.945 930.984 623.453 928.672 623.453C926.219 623.453 924.688 625.141 924.688 627.844C924.688 630.414 926.062 632.125 928.633 632.125C930.484 632.125 931.68 631.227 932.281 629.984L930.602 629.391C930.289 629.977 929.742 630.508 928.695 630.508C927.352 630.508 926.68 629.594 926.617 628.453H932.398V627.312ZM928.641 625.07C929.711 625.07 930.422 625.648 930.461 627.023H926.625C926.758 625.875 927.43 625.07 928.641 625.07ZM934.484 623.609V632H936.406V627.906C936.406 626.18 937.273 625.383 938.688 625.383C938.945 625.383 939.195 625.406 939.469 625.445L939.523 623.594C939.281 623.547 939.062 623.523 938.82 623.523C937.773 623.523 936.852 623.906 936.406 625.148V623.609H934.484ZM941.234 623.609V632H943.156V627.242C943.156 626.07 943.867 625.172 945.102 625.172C946.156 625.172 946.641 625.836 946.641 626.961V632H948.562V626.336C948.562 624.547 947.562 623.453 945.734 623.453C944.352 623.453 943.602 624.078 943.156 624.898V623.609H941.234ZM954.57 623.453C952.492 623.453 951.188 624.398 950.711 625.961L952.57 626.43C952.82 625.578 953.445 625.07 954.508 625.07C955.5 625.07 955.953 625.508 955.953 626.078C955.953 626.844 955.148 626.953 953.992 627.078C952.492 627.242 950.562 627.438 950.562 629.594C950.562 631.172 951.586 632.125 953.312 632.125C954.43 632.125 955.367 631.727 955.984 630.719V632H957.875V626.234C957.875 624.469 956.719 623.453 954.57 623.453ZM953.773 630.508C952.961 630.508 952.477 630.195 952.477 629.484C952.477 628.586 953.242 628.508 954.211 628.383C954.836 628.305 955.422 628.211 955.953 628.031V628.703C955.953 629.828 954.992 630.508 953.773 630.508ZM964.914 623.609H962.906V621.133L960.984 621.672V623.609H959.453V625.32H960.984V629.797C960.984 631.602 961.984 632.125 963.477 632.125C963.992 632.125 964.555 632.055 965.062 631.93L964.977 630.352C964.641 630.406 964.328 630.438 964.078 630.438C962.906 630.438 962.906 629.711 962.906 629.297V625.32H964.914V623.609ZM974.117 627.312C974.117 624.945 972.703 623.453 970.391 623.453C967.938 623.453 966.406 625.141 966.406 627.844C966.406 630.414 967.781 632.125 970.352 632.125C972.203 632.125 973.398 631.227 974 629.984L972.32 629.391C972.008 629.977 971.461 630.508 970.414 630.508C969.07 630.508 968.398 629.594 968.336 628.453H974.117V627.312ZM970.359 625.07C971.43 625.07 972.141 625.648 972.18 627.023H968.344C968.477 625.875 969.148 625.07 970.359 625.07ZM916.125 647.852C915.836 645.859 914.359 644.547 911.828 644.547C909.383 644.547 907.672 645.773 907.672 647.992C907.672 650.445 909.75 650.844 911.57 651.188C913.008 651.461 914.305 651.719 914.305 652.953C914.305 653.922 913.5 654.516 912.242 654.516C910.766 654.516 909.711 653.711 909.531 652.32L907.555 652.664C907.812 654.82 909.766 656.258 912.234 656.258C914.695 656.258 916.297 654.82 916.297 652.664C916.297 650.188 914.188 649.836 912.359 649.508C910.938 649.25 909.68 649.016 909.68 647.781C909.68 646.789 910.5 646.289 911.734 646.289C913.25 646.289 914.008 647.031 914.156 648.188L916.125 647.852ZM923.727 650.641L925.586 650.312C925.273 648.641 924.039 647.453 921.938 647.453C919.469 647.453 917.992 649.094 917.992 651.797C917.992 654.477 919.438 656.133 921.898 656.133C924 656.133 925.273 654.93 925.586 653.258L923.727 652.93C923.531 653.922 922.898 654.477 921.898 654.477C920.617 654.477 919.914 653.555 919.914 651.812C919.914 650.039 920.648 649.109 921.938 649.109C922.914 649.109 923.531 649.656 923.727 650.641ZM927.586 644.539V656H929.508V651.242C929.508 650.07 930.219 649.172 931.453 649.172C932.508 649.172 932.992 649.836 932.992 650.961V656H934.914V650.336C934.914 648.547 933.914 647.453 932.086 647.453C930.703 647.453 929.953 648.078 929.508 648.898V644.539H927.586ZM944.625 651.312C944.625 648.945 943.211 647.453 940.898 647.453C938.445 647.453 936.914 649.141 936.914 651.844C936.914 654.414 938.289 656.125 940.859 656.125C942.711 656.125 943.906 655.227 944.508 653.984L942.828 653.391C942.516 653.977 941.969 654.508 940.922 654.508C939.578 654.508 938.906 653.594 938.844 652.453H944.625V651.312ZM940.867 649.07C941.938 649.07 942.648 649.648 942.688 651.023H938.852C938.984 649.875 939.656 649.07 940.867 649.07ZM946.711 647.609V656H948.633V651.117C948.633 650 949.266 649.172 950.383 649.172C951.352 649.172 951.828 649.797 951.828 650.914V656H953.758V651.117C953.758 649.992 954.375 649.172 955.484 649.172C956.453 649.172 956.953 649.789 956.953 650.914V656H958.875V650.266C958.875 648.555 957.922 647.453 956.094 647.453C954.672 647.453 953.805 648.125 953.336 649.164C952.992 648.102 952.281 647.453 951.008 647.453C949.758 647.453 949.07 648.047 948.633 648.898V647.609H946.711ZM968.594 651.312C968.594 648.945 967.18 647.453 964.867 647.453C962.414 647.453 960.883 649.141 960.883 651.844C960.883 654.414 962.258 656.125 964.828 656.125C966.68 656.125 967.875 655.227 968.477 653.984L966.797 653.391C966.484 653.977 965.938 654.508 964.891 654.508C963.547 654.508 962.875 653.594 962.812 652.453H968.594V651.312ZM964.836 649.07C965.906 649.07 966.617 649.648 966.656 651.023H962.82C962.953 649.875 963.625 649.07 964.836 649.07Z" fill="black"/>
<path d="M263.562 626H265.68L266.656 623.281H271.289L272.273 626H274.383L270.234 614.797H267.703L263.562 626ZM267.32 621.406L268.969 616.82L270.625 621.406H267.32ZM276.156 614.539V626H278.078V614.539H276.156ZM285.195 617.609H283.188V615.133L281.266 615.672V617.609H279.734V619.32H281.266V623.797C281.266 625.602 282.266 626.125 283.758 626.125C284.273 626.125 284.836 626.055 285.344 625.93L285.258 624.352C284.922 624.406 284.609 624.438 284.359 624.438C283.188 624.438 283.188 623.711 283.188 623.297V619.32H285.195V617.609ZM294.398 621.312C294.398 618.945 292.984 617.453 290.672 617.453C288.219 617.453 286.688 619.141 286.688 621.844C286.688 624.414 288.062 626.125 290.633 626.125C292.484 626.125 293.68 625.227 294.281 623.984L292.602 623.391C292.289 623.977 291.742 624.508 290.695 624.508C289.352 624.508 288.68 623.594 288.617 622.453H294.398V621.312ZM290.641 619.07C291.711 619.07 292.422 619.648 292.461 621.023H288.625C288.758 619.875 289.43 619.07 290.641 619.07ZM296.484 617.609V626H298.406V621.906C298.406 620.18 299.273 619.383 300.688 619.383C300.945 619.383 301.195 619.406 301.469 619.445L301.523 617.594C301.281 617.547 301.062 617.523 300.82 617.523C299.773 617.523 298.852 617.906 298.406 619.148V617.609H296.484ZM303.234 617.609V626H305.156V621.242C305.156 620.07 305.867 619.172 307.102 619.172C308.156 619.172 308.641 619.836 308.641 620.961V626H310.562V620.336C310.562 618.547 309.562 617.453 307.734 617.453C306.352 617.453 305.602 618.078 305.156 618.898V617.609H303.234ZM316.57 617.453C314.492 617.453 313.188 618.398 312.711 619.961L314.57 620.43C314.82 619.578 315.445 619.07 316.508 619.07C317.5 619.07 317.953 619.508 317.953 620.078C317.953 620.844 317.148 620.953 315.992 621.078C314.492 621.242 312.562 621.438 312.562 623.594C312.562 625.172 313.586 626.125 315.312 626.125C316.43 626.125 317.367 625.727 317.984 624.719V626H319.875V620.234C319.875 618.469 318.719 617.453 316.57 617.453ZM315.773 624.508C314.961 624.508 314.477 624.195 314.477 623.484C314.477 622.586 315.242 622.508 316.211 622.383C316.836 622.305 317.422 622.211 317.953 622.031V622.703C317.953 623.828 316.992 624.508 315.773 624.508ZM326.914 617.609H324.906V615.133L322.984 615.672V617.609H321.453V619.32H322.984V623.797C322.984 625.602 323.984 626.125 325.477 626.125C325.992 626.125 326.555 626.055 327.062 625.93L326.977 624.352C326.641 624.406 326.328 624.438 326.078 624.438C324.906 624.438 324.906 623.711 324.906 623.297V619.32H326.914V617.609ZM336.117 621.312C336.117 618.945 334.703 617.453 332.391 617.453C329.938 617.453 328.406 619.141 328.406 621.844C328.406 624.414 329.781 626.125 332.352 626.125C334.203 626.125 335.398 625.227 336 623.984L334.32 623.391C334.008 623.977 333.461 624.508 332.414 624.508C331.07 624.508 330.398 623.594 330.336 622.453H336.117V621.312ZM332.359 619.07C333.43 619.07 334.141 619.648 334.18 621.023H330.344C330.477 619.875 331.148 619.07 332.359 619.07ZM278.125 641.852C277.836 639.859 276.359 638.547 273.828 638.547C271.383 638.547 269.672 639.773 269.672 641.992C269.672 644.445 271.75 644.844 273.57 645.188C275.008 645.461 276.305 645.719 276.305 646.953C276.305 647.922 275.5 648.516 274.242 648.516C272.766 648.516 271.711 647.711 271.531 646.32L269.555 646.664C269.812 648.82 271.766 650.258 274.234 650.258C276.695 650.258 278.297 648.82 278.297 646.664C278.297 644.188 276.188 643.836 274.359 643.508C272.938 643.25 271.68 643.016 271.68 641.781C271.68 640.789 272.5 640.289 273.734 640.289C275.25 640.289 276.008 641.031 276.156 642.188L278.125 641.852ZM285.727 644.641L287.586 644.312C287.273 642.641 286.039 641.453 283.938 641.453C281.469 641.453 279.992 643.094 279.992 645.797C279.992 648.477 281.438 650.133 283.898 650.133C286 650.133 287.273 648.93 287.586 647.258L285.727 646.93C285.531 647.922 284.898 648.477 283.898 648.477C282.617 648.477 281.914 647.555 281.914 645.812C281.914 644.039 282.648 643.109 283.938 643.109C284.914 643.109 285.531 643.656 285.727 644.641ZM289.586 638.539V650H291.508V645.242C291.508 644.07 292.219 643.172 293.453 643.172C294.508 643.172 294.992 643.836 294.992 644.961V650H296.914V644.336C296.914 642.547 295.914 641.453 294.086 641.453C292.703 641.453 291.953 642.078 291.508 642.898V638.539H289.586ZM306.625 645.312C306.625 642.945 305.211 641.453 302.898 641.453C300.445 641.453 298.914 643.141 298.914 645.844C298.914 648.414 300.289 650.125 302.859 650.125C304.711 650.125 305.906 649.227 306.508 647.984L304.828 647.391C304.516 647.977 303.969 648.508 302.922 648.508C301.578 648.508 300.906 647.594 300.844 646.453H306.625V645.312ZM302.867 643.07C303.938 643.07 304.648 643.648 304.688 645.023H300.852C300.984 643.875 301.656 643.07 302.867 643.07ZM308.711 641.609V650H310.633V645.117C310.633 644 311.266 643.172 312.383 643.172C313.352 643.172 313.828 643.797 313.828 644.914V650H315.758V645.117C315.758 643.992 316.375 643.172 317.484 643.172C318.453 643.172 318.953 643.789 318.953 644.914V650H320.875V644.266C320.875 642.555 319.922 641.453 318.094 641.453C316.672 641.453 315.805 642.125 315.336 643.164C314.992 642.102 314.281 641.453 313.008 641.453C311.758 641.453 311.07 642.047 310.633 642.898V641.609H308.711ZM330.594 645.312C330.594 642.945 329.18 641.453 326.867 641.453C324.414 641.453 322.883 643.141 322.883 645.844C322.883 648.414 324.258 650.125 326.828 650.125C328.68 650.125 329.875 649.227 330.477 647.984L328.797 647.391C328.484 647.977 327.938 648.508 326.891 648.508C325.547 648.508 324.875 647.594 324.812 646.453H330.594V645.312ZM326.836 643.07C327.906 643.07 328.617 643.648 328.656 645.023H324.82C324.953 643.875 325.625 643.07 326.836 643.07Z" fill="white"/>
<path d="M107.477 614.797L104.633 623.094L101.789 614.797H98.8828V626H100.836V617.547L103.5 625.219H105.766L108.43 617.547V626H110.383V614.797H107.477ZM116.625 617.453C114.547 617.453 113.242 618.398 112.766 619.961L114.625 620.43C114.875 619.578 115.5 619.07 116.562 619.07C117.555 619.07 118.008 619.508 118.008 620.078C118.008 620.844 117.203 620.953 116.047 621.078C114.547 621.242 112.617 621.438 112.617 623.594C112.617 625.172 113.641 626.125 115.367 626.125C116.484 626.125 117.422 625.727 118.039 624.719V626H119.93V620.234C119.93 618.469 118.773 617.453 116.625 617.453ZM115.828 624.508C115.016 624.508 114.531 624.195 114.531 623.484C114.531 622.586 115.297 622.508 116.266 622.383C116.891 622.305 117.477 622.211 118.008 622.031V622.703C118.008 623.828 117.047 624.508 115.828 624.508ZM124.484 614.469H122.398V616.406H124.484V614.469ZM124.398 617.609H122.477V626H124.398V617.609ZM127.023 617.609V626H128.945V621.242C128.945 620.07 129.656 619.172 130.891 619.172C131.945 619.172 132.43 619.836 132.43 620.961V626H134.352V620.336C134.352 618.547 133.352 617.453 131.523 617.453C130.141 617.453 129.391 618.078 128.945 618.898V617.609H127.023ZM94.625 641.852C94.3359 639.859 92.8594 638.547 90.3281 638.547C87.8828 638.547 86.1719 639.773 86.1719 641.992C86.1719 644.445 88.25 644.844 90.0703 645.188C91.5078 645.461 92.8047 645.719 92.8047 646.953C92.8047 647.922 92 648.516 90.7422 648.516C89.2656 648.516 88.2109 647.711 88.0312 646.32L86.0547 646.664C86.3125 648.82 88.2656 650.258 90.7344 650.258C93.1953 650.258 94.7969 648.82 94.7969 646.664C94.7969 644.188 92.6875 643.836 90.8594 643.508C89.4375 643.25 88.1797 643.016 88.1797 641.781C88.1797 640.789 89 640.289 90.2344 640.289C91.75 640.289 92.5078 641.031 92.6562 642.188L94.625 641.852ZM102.227 644.641L104.086 644.312C103.773 642.641 102.539 641.453 100.438 641.453C97.9688 641.453 96.4922 643.094 96.4922 645.797C96.4922 648.477 97.9375 650.133 100.398 650.133C102.5 650.133 103.773 648.93 104.086 647.258L102.227 646.93C102.031 647.922 101.398 648.477 100.398 648.477C99.1172 648.477 98.4141 647.555 98.4141 645.812C98.4141 644.039 99.1484 643.109 100.438 643.109C101.414 643.109 102.031 643.656 102.227 644.641ZM106.086 638.539V650H108.008V645.242C108.008 644.07 108.719 643.172 109.953 643.172C111.008 643.172 111.492 643.836 111.492 644.961V650H113.414V644.336C113.414 642.547 112.414 641.453 110.586 641.453C109.203 641.453 108.453 642.078 108.008 642.898V638.539H106.086ZM123.125 645.312C123.125 642.945 121.711 641.453 119.398 641.453C116.945 641.453 115.414 643.141 115.414 645.844C115.414 648.414 116.789 650.125 119.359 650.125C121.211 650.125 122.406 649.227 123.008 647.984L121.328 647.391C121.016 647.977 120.469 648.508 119.422 648.508C118.078 648.508 117.406 647.594 117.344 646.453H123.125V645.312ZM119.367 643.07C120.438 643.07 121.148 643.648 121.188 645.023H117.352C117.484 643.875 118.156 643.07 119.367 643.07ZM125.211 641.609V650H127.133V645.117C127.133 644 127.766 643.172 128.883 643.172C129.852 643.172 130.328 643.797 130.328 644.914V650H132.258V645.117C132.258 643.992 132.875 643.172 133.984 643.172C134.953 643.172 135.453 643.789 135.453 644.914V650H137.375V644.266C137.375 642.555 136.422 641.453 134.594 641.453C133.172 641.453 132.305 642.125 131.836 643.164C131.492 642.102 130.781 641.453 129.508 641.453C128.258 641.453 127.57 642.047 127.133 642.898V641.609H125.211ZM147.094 645.312C147.094 642.945 145.68 641.453 143.367 641.453C140.914 641.453 139.383 643.141 139.383 645.844C139.383 648.414 140.758 650.125 143.328 650.125C145.18 650.125 146.375 649.227 146.977 647.984L145.297 647.391C144.984 647.977 144.438 648.508 143.391 648.508C142.047 648.508 141.375 647.594 141.312 646.453H147.094V645.312ZM143.336 643.07C144.406 643.07 145.117 643.648 145.156 645.023H141.32C141.453 643.875 142.125 643.07 143.336 643.07Z" fill="black"/>
</svg>
