<svg xmlns="http://www.w3.org/2000/svg" viewBox="0 0 16 16"><g><path d="M8,6C6.9,6,6,6.9,6,8s0.9,2,2,2s2-0.9,2-2S9.1,6,8,6z M8,9C7.4,9,7,8.6,7,8s0.4-1,1-1s1,0.4,1,1S8.6,9,8,9z"/><path d="M14,6c-0.4,0-0.7,0.1-1,0.3L9.7,3C9.9,2.7,10,2.4,10,2c0-1.1-0.9-2-2-2S6,0.9,6,2c0,0.4,0.1,0.7,0.3,1L3,6.3C2.7,6.1,2.4,6,2,6C0.9,6,0,6.9,0,8s0.9,2,2,2c0.4,0,0.7-0.1,1-0.3L6.3,13C6.1,13.3,6,13.6,6,14c0,1.1,0.9,2,2,2s2-0.9,2-2c0-0.4-0.1-0.7-0.3-1L13,9.7c0.3,0.2,0.6,0.3,1,0.3c1.1,0,2-0.9,2-2S15.1,6,14,6z M8,12c-0.4,0-0.7,0.1-1,0.3L3.7,9C3.9,8.7,4,8.4,4,8S3.9,7.3,3.7,7L7,3.7C7.3,3.9,7.6,4,8,4s0.7-0.1,1-0.3L12.3,7C12.1,7.3,12,7.6,12,8s0.1,0.7,0.3,1L9,12.3C8.7,12.1,8.4,12,8,12z M8,1c0.6,0,1,0.4,1,1S8.6,3,8,3S7,2.6,7,2S7.4,1,8,1z M1,8c0-0.6,0.4-1,1-1s1,0.4,1,1S2.6,9,2,9S1,8.6,1,8zM8,15c-0.6,0-1-0.4-1-1s0.4-1,1-1s1,0.4,1,1S8.6,15,8,15z M14,9c-0.6,0-1-0.4-1-1s0.4-1,1-1s1,0.4,1,1S14.6,9,14,9z"/></g></svg>