<svg viewBox="0 0 24 24" xmlns="http://www.w3.org/2000/svg"><g clip-path="url(#clip0)"><path d="M13.5 0C10.8 0 8.25 1.05 6.3 2.85C4.35 4.8 3.15 7.35 3 10.05L0.3 14.1C0.15 14.4 0 14.55 0 14.7C0 14.85 0 15.15 0 15.3C0 15.45 0.15 15.75 0.3 15.9C0.45 16.05 0.6 16.2 0.75 16.35L3 17.4V20.25C3 21.3 3.45 22.2 4.05 22.95C4.8 23.55 5.7 24 6.75 24H10.5C11.7 24 12.9 23.55 13.65 22.65C14.55 21.9 15 20.7 15 19.5V13.05C14.4 12.75 13.95 12.15 13.8 11.55C13.5 10.95 13.5 10.35 13.65 9.75C13.8 9 14.1 8.55 14.7 8.1C15.15 7.65 15.9 7.5 16.5 7.5C17.1 7.5 17.85 7.65 18.3 8.1C18.75 8.55 19.2 9 19.35 9.75C19.5 10.35 19.5 10.95 19.2 11.7C18.9 12.3 18.45 12.75 18 13.2V19.5C18 21.15 17.4 22.65 16.5 24H19.5C19.95 24 20.25 23.85 20.55 23.55C20.85 23.25 21 22.95 21 22.5V17.85C22.5 16.35 23.4 14.55 23.85 12.45C24.3 10.35 24 8.25 23.25 6.45C22.35 4.5 21 2.85 19.35 1.8C17.55 0.6 15.6 0 13.5 0Z"/></g><defs><clipPath id="clip0"><path d="M0 0H24V24H0V0Z"/></clipPath></defs></svg>