<svg viewBox="0 0 16 16" xmlns="http://www.w3.org/2000/svg"><path d="M10 10.8334H11.5333V11.8334H10V10.8334Z"/><path d="M13.5 5.83337H10V4.83337H14.5V7.69102L15.8333 8.35769V11.8334H13.8V10.8334H14.8333V8.97572L13.5 8.30906V5.83337Z"/><path d="M0.166992 2.16663H10.5003V11.8333H6.66699V10.8333H9.50033V3.16663H1.16699V10.8333H2.66699V11.8333H0.166992V2.16663Z"/><path d="M4.66699 9.83337C3.83857 9.83337 3.16699 10.5049 3.16699 11.3334C3.16699 12.1618 3.83857 12.8334 4.66699 12.8334C5.49542 12.8334 6.16699 12.1618 6.16699 11.3334C6.16699 10.5049 5.49542 9.83337 4.66699 9.83337ZM2.16699 11.3334C2.16699 9.95266 3.28628 8.83337 4.66699 8.83337C6.0477 8.83337 7.16699 9.95266 7.16699 11.3334C7.16699 12.7141 6.0477 13.8334 4.66699 13.8334C3.28628 13.8334 2.16699 12.7141 2.16699 11.3334Z"/><path d="M12.6663 11.1666C12.2061 11.1666 11.833 11.5397 11.833 12C11.833 12.4602 12.2061 12.8333 12.6663 12.8333C13.1266 12.8333 13.4997 12.4602 13.4997 12C13.4997 11.5397 13.1266 11.1666 12.6663 11.1666ZM10.833 12C10.833 10.9874 11.6538 10.1666 12.6663 10.1666C13.6789 10.1666 14.4997 10.9874 14.4997 12C14.4997 13.0125 13.6789 13.8333 12.6663 13.8333C11.6538 13.8333 10.833 13.0125 10.833 12Z"/><path d="M5.83301 4.16663V7.83329H4.83301V4.16663H5.83301Z"/><path d="M3.5 5.5H7.16667V6.5H3.5V5.5Z"/></svg>