<svg viewBox="0 0 16 16" xmlns="http://www.w3.org/2000/svg"><path d="M15.9566 0.352696C15.9288 0.285298 15.8874 0.222154 15.8326 0.167368C15.7778 0.112581 15.7147 0.0712446 15.6473 0.043359C15.5799 0.0154201 15.5061 0 15.4286 0H15.4285H7.42857C7.11298 0 6.85714 0.255837 6.85714 0.571429C6.85714 0.88702 7.11298 1.14286 7.42857 1.14286H14.049L0.167368 15.0245C-0.0557892 15.2477 -0.0557892 15.6095 0.167368 15.8326C0.390524 16.0558 0.752333 16.0558 0.97549 15.8326L14.8571 1.95098V8.57143C14.8571 8.88702 15.113 9.14286 15.4286 9.14286C15.7442 9.14286 16 8.88702 16 8.57143V0.571988V0.571429C16 0.570285 16 0.569143 16 0.568001C15.9995 0.49177 15.9842 0.419077 15.9566 0.352696Z"/></svg>