<svg viewBox="0 0 16 16" xmlns="http://www.w3.org/2000/svg"><path d="M15.8326 0.97549C16.0558 0.752333 16.0558 0.390524 15.8326 0.167368C15.6095 -0.0557892 15.2477 -0.0557892 15.0245 0.167368L1.14286 14.049V7.42857C1.14286 7.11298 0.88702 6.85714 0.571429 6.85714C0.255837 6.85714 0 7.11298 0 7.42857V15.4285V15.4286C0 15.5061 0.0154201 15.5799 0.043359 15.6473C0.0712446 15.7147 0.112581 15.7778 0.167368 15.8326C0.222154 15.8874 0.285298 15.9288 0.352696 15.9566C0.413981 15.982 0.478783 15.9962 0.544017 15.9993C0.553148 15.9998 0.562289 16 0.571429 16C0.571615 16 0.571802 16 0.571988 16H8.57143C8.88702 16 9.14286 15.7442 9.14286 15.4286C9.14286 15.113 8.88702 14.8571 8.57143 14.8571H1.95098L15.8326 0.97549Z"/></svg>