<svg viewBox="0 0 16 16" xmlns="http://www.w3.org/2000/svg"><path d="M12.7466 1.46747C11.1843 -0.0947891 8.65174 -0.0947891 7.08948 1.46747L2.67044 5.88751C0.425166 8.13283 0.42539 11.7734 2.67048 14.0196C4.91579 16.2649 8.55643 16.2646 10.8026 14.0195L14.8676 9.95354C15.0629 9.75825 15.0628 9.44167 14.8675 9.24643C14.6723 9.05119 14.3557 9.05123 14.1604 9.24652L10.0954 13.3125C8.23962 15.1673 5.23223 15.1671 3.37758 13.3125C1.52277 11.4567 1.52296 8.4492 3.37762 6.59454L6.93574 3.03562L7.2158 2.75549L7.79662 2.17454C8.96836 1.00284 10.8678 1.00286 12.0395 2.17458C13.2112 3.34632 13.2112 5.24573 12.0395 6.41747L7.97373 10.4832C7.48488 10.9714 6.6932 10.9708 6.20558 10.4835C5.71762 9.99451 5.71807 9.20309 6.20558 8.71558L6.39774 8.52343L7.65792 7.26324L9.21058 5.71058C9.40585 5.51532 9.40585 5.19873 9.21058 5.00347C9.01532 4.80821 8.69874 4.80821 8.50348 5.00347L7.53161 5.97534L6.55145 6.9555L5.49848 8.00847C4.62007 8.88688 4.6207 10.3115 5.49848 11.1906C6.37688 12.069 7.80152 12.0684 8.68058 11.1906L12.7466 7.12458C14.3088 5.56232 14.3088 3.02974 12.7466 1.46747Z"/></svg>