<svg viewBox="0 0 24 24" xmlns="http://www.w3.org/2000/svg"><path fill-rule="evenodd" clip-rule="evenodd" d="M19.8846 1.87156C19.4976 1.47753 18.8645 1.47183 18.4704 1.85881C18.0764 2.2458 18.0707 2.87894 18.4577 3.27297C23.1807 8.08194 23.1807 15.9179 18.4578 20.7256C18.0707 21.1196 18.0764 21.7528 18.4704 22.1398C18.8643 22.5268 19.4975 22.5212 19.8845 22.1272C25.3719 16.5413 25.3716 7.45846 19.8846 1.87156ZM10.0853 2.71592C10.4092 2.43563 10.9125 2.66569 10.9125 3.09399V20.906C10.9125 21.3343 10.4092 21.5644 10.0853 21.2841L4.36502 16.3333H2.18251C0.976673 16.3333 0 15.3389 0 14.1111V9.88889C0 8.66111 0.976673 7.66667 2.18251 7.66667H4.36502L10.0853 2.71592ZM14.7122 8.15672C14.3252 7.76269 13.6921 7.75698 13.2981 8.14397C12.904 8.53096 12.8983 9.1641 13.2853 9.55813C14.599 10.8957 14.599 13.1061 13.2853 14.4436C12.8983 14.8376 12.904 15.4708 13.2981 15.8578C13.6921 16.2448 14.3252 16.239 14.7122 15.845C16.79 13.7294 16.79 10.2723 14.7122 8.15672ZM15.9194 5.00139C16.3134 4.6144 16.9466 4.62011 17.3336 5.01414C21.116 8.86539 21.1164 15.1347 17.3334 18.9851C16.9464 19.3791 16.3132 19.3847 15.9193 18.9976C15.5253 18.6106 15.5197 17.9774 15.9068 17.5835C18.9251 14.5113 18.9251 9.48894 15.9067 6.41555C15.5197 6.02152 15.5254 5.38838 15.9194 5.00139Z"/></svg>