<svg viewBox="0 0 24 24" xmlns="http://www.w3.org/2000/svg"><path fill-rule="evenodd" clip-rule="evenodd" d="M10.0853 2.71567C10.4092 2.43539 10.9125 2.66544 10.9125 3.09374V20.9058C10.9125 21.3341 10.4092 21.5641 10.0853 21.2838L4.36502 16.3331H2.18251C0.976673 16.3331 0 15.3386 0 14.1109V9.88864C0 8.66087 0.976673 7.66642 2.18251 7.66642H4.36502L10.0853 2.71567ZM21.7071 8.29265C22.0976 8.68317 22.0976 9.31634 21.7071 9.70686L19.4142 11.9998L21.7071 14.2926C22.0976 14.6832 22.0976 15.3163 21.7071 15.7069C21.3166 16.0974 20.6834 16.0974 20.2929 15.7069L18 13.414L15.7071 15.7069C15.3166 16.0974 14.6834 16.0974 14.2929 15.7069C13.9024 15.3163 13.9024 14.6832 14.2929 14.2926L16.5858 11.9998L14.2929 9.70686C13.9024 9.31634 13.9024 8.68317 14.2929 8.29265C14.6834 7.90212 15.3166 7.90212 15.7071 8.29265L18 10.5855L20.2929 8.29265C20.6834 7.90212 21.3166 7.90212 21.7071 8.29265Z"/></svg>