<svg viewBox="0 0 24 24" xmlns="http://www.w3.org/2000/svg"><path d="M1 1.25C0.746649 1.25 0.510421 1.37791 0.371945 1.59007C0.233468 1.80223 0.211464 2.06996 0.313441 2.30188L6.87162 17.2169L6.87168 17.217C7.18641 17.9329 8.20403 17.9259 8.50926 17.2064L10.6903 12.0707C10.7721 11.8781 10.7697 11.6602 10.6839 11.4695L6.28116 1.69206C6.16001 1.42301 5.89236 1.25 5.59729 1.25H1ZM7.67848 15.3253L2.14908 2.75H5.11248L9.18143 11.7863L7.67848 15.3253ZM18.7501 1.25H22.9999C23.2509 1.25 23.4852 1.3755 23.6243 1.5844C23.7633 1.79329 23.7887 2.05789 23.6919 2.2894L23.4086 2.9658C23.2279 3.3972 22.9689 4.01514 22.6555 4.76135C22.0289 6.25374 21.1853 8.25946 20.317 10.3124C18.5915 14.3925 16.7402 18.7288 16.3304 19.5172C15.9582 20.2335 15.4233 21.0245 14.7206 21.6452C14.0133 22.27 13.1017 22.75 12.0064 22.75H8.0243C7.56739 22.75 7.24994 22.3729 7.24994 21.9746C7.24994 21.6178 7.50264 21.2739 7.90013 21.2093C8.41535 21.1247 8.77142 20.9622 9.11403 20.6631C9.48391 20.3401 9.86648 19.8335 10.3772 18.9936C10.5679 18.6801 11.127 17.4705 11.8893 15.7449C12.6378 14.0507 13.5531 11.9269 14.4416 9.84669C15.3298 7.76693 16.1903 5.73276 16.8288 4.21838C17.0078 3.79366 17.2363 3.28515 17.4349 2.84322L17.435 2.84297C17.5904 2.49718 17.7275 2.19217 17.8082 2C18.0003 1.61789 18.2109 1.25 18.7501 1.25ZM18.7643 3.4664L18.764 3.46709L18.7639 3.46745C18.596 3.87588 18.3989 4.35529 18.211 4.80111C17.572 6.31677 16.7105 8.35323 15.8211 10.4358C14.9318 12.518 14.0137 14.6483 13.2615 16.351C12.5232 18.0223 11.9145 19.3526 11.6589 19.773C11.3071 20.3516 10.9761 20.8436 10.6308 21.25H12.0065C12.6363 21.25 13.2092 20.9789 13.7276 20.521C14.2505 20.0591 14.6823 19.4358 14.9995 18.8256C15.3733 18.1062 17.1895 13.8568 18.9355 9.72818C19.8031 7.67678 20.6463 5.67234 21.2726 4.18067C21.5061 3.62438 21.7095 3.13943 21.8727 2.75H19.0604C18.9847 2.93026 18.8816 3.18096 18.7643 3.4664Z" fill="currentColor"/></svg>