<svg viewBox="0 0 24 24" xmlns="http://www.w3.org/2000/svg"><path d="M11.9967 0.595474C15.0211 0.596665 17.8591 1.77392 19.9939 3.90988C22.1281 6.04645 23.3035 8.88567 23.3023 11.9059C23.3 18.1376 18.2277 23.208 11.9967 23.208H11.9919C10.1001 23.2074 8.24042 22.7328 6.58917 21.8319L0.595719 23.4039L2.19993 17.5474C1.21025 15.8337 0.689804 13.8888 0.6904 11.897C0.693377 5.66534 5.76444 0.595474 11.9967 0.595474ZM11.9967 0C5.43693 0 0.0979027 5.33664 0.0949254 11.897C0.0943299 13.9019 0.600483 15.8777 1.56039 17.6266L0.0210866 23.2473C-0.034888 23.4528 0.0222775 23.6719 0.172337 23.8231C0.285477 23.9375 0.438514 24 0.595719 24C0.646335 24 0.69695 23.9934 0.74697 23.9803L6.51533 22.4678C8.19933 23.342 10.087 23.8035 11.9919 23.8041C18.5564 23.8041 23.8954 18.4669 23.8984 11.9065C23.8996 8.72727 22.6628 5.73799 20.4161 3.48948C18.1682 1.24037 15.1783 0.00119095 11.9967 0Z" fill="#CFD8DC"/><path d="M18.6433 5.2593C16.8688 3.4836 14.5102 2.50523 11.9996 2.50464C6.81662 2.50464 2.60126 6.71821 2.59888 11.8977C2.59828 13.6728 3.09491 15.4008 4.03576 16.8973L4.25966 17.2528L3.30987 20.719L6.86664 19.7865L7.21023 19.9901C8.65247 20.8464 10.3067 21.299 11.9931 21.2996H11.9967C17.1761 21.2996 21.3915 17.0854 21.3932 11.9054C21.3938 9.39547 20.4179 7.03501 18.6433 5.2593Z" fill="#40C351"/><path fill-rule="evenodd" clip-rule="evenodd" d="M9.17053 7.17234C8.95913 6.70192 8.73643 6.69239 8.53456 6.68405C8.36961 6.67691 8.18144 6.6775 7.99327 6.6775C7.8051 6.6775 7.49903 6.74836 7.24 7.03121C6.98097 7.31406 6.25092 7.99707 6.25092 9.38691C6.25092 10.7767 7.26322 12.1201 7.40435 12.3083C7.54548 12.4965 9.3587 15.4399 12.2301 16.5725C14.6161 17.5134 15.102 17.3264 15.6201 17.2793C16.1382 17.2323 17.2916 16.5963 17.5268 15.9365C17.762 15.2767 17.762 14.7116 17.6918 14.5937C17.6209 14.4758 17.4327 14.4056 17.1505 14.2638C16.8682 14.1221 15.479 13.4391 15.22 13.345C14.9609 13.2509 14.7727 13.2039 14.584 13.4868C14.3958 13.769 13.8545 14.4056 13.6896 14.5937C13.5246 14.7825 13.3597 14.8063 13.0774 14.6646C12.7952 14.5229 11.8853 14.2251 10.8057 13.2629C9.96608 12.5143 9.39919 11.5896 9.23424 11.3067C9.0693 11.0245 9.21638 10.8714 9.3581 10.7303C9.48494 10.6035 9.64036 10.4004 9.78208 10.2355C9.92321 10.0705 9.97025 9.95261 10.0643 9.76444C10.1584 9.57568 10.1114 9.41073 10.0405 9.2696C9.97084 9.12788 9.42182 7.7309 9.17053 7.17234Z" fill="white"/></svg>