<svg viewBox="0 0 24 24" xmlns="http://www.w3.org/2000/svg"><g clip-path="url(#clip0)"><path d="M23.4982 6.18541C23.2227 5.14632 22.4086 4.32814 21.3764 4.04996C19.5055 3.54541 12 3.54541 12 3.54541C12 3.54541 4.49455 3.54541 2.62364 4.04996C1.59136 4.32814 0.777273 5.14632 0.501818 6.18541C3.25116e-08 8.06996 0 12 0 12C0 12 3.25116e-08 15.93 0.501818 17.8145C0.777273 18.8536 1.59136 19.6718 2.62364 19.95C4.49455 20.4545 12 20.4545 12 20.4545C12 20.4545 19.5055 20.4545 21.3764 19.95C22.4086 19.6718 23.2227 18.8536 23.4982 17.8145C24 15.93 24 12 24 12C24 12 24 8.06996 23.4982 6.18541Z" fill="#FF0000"/><path d="M9.54547 15.5684V8.43115L15.8182 11.9998L9.54547 15.5684Z" fill="white"/></g><defs><clipPath id="clip0"><path d="M0 0H24V24H0V0Z" fill="white"/></clipPath></defs></svg>