<svg viewBox="0 0 24 24" xmlns="http://www.w3.org/2000/svg"><g clip-path="url(#clip0)"><path d="M6.62443 21.6109C11.9457 22.371 17.1584 23.1312 22.371 23.8914C20.5249 20.7421 18.7873 17.7014 17.0498 14.6606C17.0498 14.552 6.62443 21.6109 6.62443 21.6109ZM23.8914 4.23529C23.457 4.99547 22.914 5.64706 22.4796 6.40724C20.8507 8.90498 19.3303 11.4027 17.7014 13.9005C17.5928 14.009 17.4842 14.1176 17.5928 14.3348C19.1131 16.9412 20.6335 19.6561 22.1538 22.371C22.371 22.8054 22.5882 23.2398 22.914 23.5656C23.3484 17.1584 23.6742 10.6425 23.8914 4.23529C23.8914 4.23529 24 4.23529 23.8914 4.23529ZM2.82353 12.4887C2.93213 12.5973 3.04072 12.5973 3.14932 12.5973C4.66968 11.8371 6.08145 11.0769 7.60181 10.3167C8.0362 10.0995 8.47059 9.55656 8.79638 9.23077C10.0995 7.9276 11.5113 6.62443 12.8145 5.32127C12.9231 5.21267 13.0317 5.21267 13.0317 5.10407C13.4661 4.1267 14.009 3.14932 14.4434 2.06335C13.9005 1.84615 13.2489 1.62896 12.7059 1.41176C12.5973 1.41176 12.4887 1.41176 12.3801 1.52036C11.0769 2.28054 9.77375 3.04072 8.47059 3.8009C8.0362 4.1267 7.60181 4.77828 6.95023 5.21267C6.08145 6.08145 5.21267 6.95023 4.34389 7.819C4.1267 8.0362 3.9095 8.36199 3.69231 8.57919C3.04072 9.44796 2.49774 10.4253 1.84615 11.4027C2.17195 11.8371 2.49774 12.1629 2.82353 12.4887ZM8.25339 11.2941C7.49321 14.552 6.73303 17.81 6.08145 21.0679C9.66516 18.6787 13.1403 16.3982 16.5068 14.009C13.7919 13.1403 11.0769 12.1629 8.25339 11.2941ZM23.0226 4.23529C19.9819 4.77828 17.0498 5.32127 14.1176 5.75566C15.095 8.36199 16.0724 10.8597 17.1584 13.3575C19.1131 10.3167 21.0679 7.38462 23.0226 4.23529ZM8.36199 10.5339C11.0769 11.4027 13.6833 12.3801 16.3982 13.2489C15.4208 10.6425 14.4434 8.25339 13.4661 5.64706C11.7285 7.38461 10.0995 8.90498 8.36199 10.5339ZM2.93213 14.4434C1.95475 16.8326 1.08597 19.1131 0.108597 21.5023C1.95475 21.3937 3.69231 21.3937 5.53846 21.2851C4.66968 19.0045 3.8009 16.724 2.93213 14.4434ZM5.53846 19.6561C6.29864 16.8326 6.95023 14.009 7.60181 11.1855C6.08145 11.9457 4.77828 12.7059 3.25792 13.5747C4.0181 15.4208 4.77828 17.5928 5.53846 19.6561ZM21.9367 3.8009C21.0679 3.58371 20.1991 3.36652 19.3303 3.04072C18.1357 2.71493 16.8326 2.38914 15.638 2.06335C15.5294 2.06335 15.4208 1.95475 15.3122 2.17195C14.8778 3.14932 14.4434 4.0181 14.009 4.99547V5.10407C16.6154 4.66968 19.3303 4.23529 21.9367 3.8009ZM16.9412 1.62896L24 3.69231C23.5656 2.49774 23.2398 1.41176 22.8054 0.217195L16.9412 1.62896ZM6.19004 22.0452C5.32127 21.9367 4.45249 22.0452 3.58371 22.0452C2.82353 22.0452 2.17195 22.0452 1.41176 22.1538C1.30317 22.1538 1.30317 22.1538 1.19457 22.2624C7.16742 22.8054 13.1403 23.457 19.1131 24V23.8914C17.1584 23.5656 15.3122 23.3484 13.3575 23.0226C10.9683 22.8054 8.57918 22.371 6.19004 22.0452ZM0.217195 19.3303C0.977376 17.4842 1.73756 15.638 2.49774 13.7919C2.60633 13.5747 2.60633 13.4661 2.38914 13.3575C2.06335 13.0317 1.73756 12.7059 1.41176 12.2715C0.977376 14.7692 0.434389 17.1584 0 19.5475C0.217195 19.4389 0.217195 19.3303 0.217195 19.3303ZM15.4208 1.19457C16.724 0.868778 18.0271 0.542986 19.3303 0.217195C19.4389 0.217195 19.5475 0.217195 19.5475 0.108597V0C17.7014 0.217195 15.8552 0.542986 13.9005 0.760181C14.4434 1.08597 14.8778 1.30317 15.4208 1.19457Z"/></g><defs><clipPath id="clip0"><path d="M0 0H24V24H0V0Z" fill="white"/></clipPath></defs></svg>