<svg viewBox="0 0 24 24" xmlns="http://www.w3.org/2000/svg"><g clip-path="url(#clip0)"><path d="M8.28502 0.654886C1.86407 2.83784 -1.50964 9.71415 0.775777 15.9356C2.08173 19.6466 5.23779 22.5936 9.15565 23.5759C11.2234 24.1217 13.4 24.1217 15.3589 23.6851C17.209 23.2485 18.9503 22.3753 20.3651 21.1747C21.8887 19.8649 22.8682 18.1185 23.4123 16.1539C23.9565 14.0801 24.0653 11.8971 23.7388 9.8233H12.2029C12.2029 11.3514 12.2029 12.9886 12.2029 14.5166H18.8415C18.6238 16.0447 17.6444 17.3545 16.4472 18.2277C15.6854 18.7734 14.706 19.1009 13.7265 19.3192C12.747 19.5374 11.7676 19.5374 10.7881 19.3192C9.80863 18.9917 8.93799 18.5551 8.06736 18.0094C6.7614 17.1362 5.78194 15.8264 5.23779 14.2984C4.69364 12.7703 4.69364 11.1331 5.23779 9.605C5.56428 8.51352 6.21726 7.53119 6.97906 6.76716C8.82917 4.91165 11.6587 4.14761 14.1618 4.91165C15.1413 5.23909 16.0119 5.67568 16.7737 6.43972C17.5355 5.67568 18.2973 5.0208 19.0591 4.25676C19.4945 3.82017 19.821 3.49273 20.2563 3.05614C19.168 1.96466 17.7532 1.20063 16.3384 0.654886C13.8353 -0.218295 10.8969 -0.218295 8.28502 0.654886Z" fill="white"/><path d="M8.28501 0.654785C11.0057 -0.218397 13.8353 -0.218397 16.5561 0.763932C17.9708 1.30967 19.3856 2.07371 20.4739 3.16518C20.0386 3.60177 19.7121 3.92922 19.2768 4.36581C18.515 5.12984 17.7532 5.78473 16.9914 6.54876C16.2296 5.89388 15.3589 5.34814 14.3795 5.02069C11.7676 4.25666 9.04681 5.02069 7.19671 6.87621C6.32608 7.64024 5.6731 8.62257 5.34661 9.71405L1.31992 6.65791C2.7347 3.82007 5.23778 1.63711 8.28501 0.654785Z" fill="#E33629"/><path d="M0.231624 9.60497C0.449283 8.51349 0.775772 7.53116 1.31992 6.54883L5.34661 9.60497C4.80247 11.133 4.80247 12.7702 5.34661 14.2983C4.04066 15.2806 2.62587 16.3721 1.31992 17.3545C0.122794 14.9532 -0.312524 12.2245 0.231624 9.60497Z" fill="#F8BD00"/><path d="M12.2029 9.71411H23.7388C24.1741 11.7879 24.0653 13.9709 23.4123 16.0447C22.8682 17.9002 21.7799 19.6466 20.3651 21.0655C19.0591 20.0831 17.7532 19.1008 16.4472 18.1185C17.7532 17.2453 18.6238 15.9355 18.8415 14.4075H12.2029C12.2029 12.8794 12.2029 11.3513 12.2029 9.71411Z" fill="#587DBD"/><path d="M1.31992 17.3547C2.62587 16.3724 4.04066 15.2809 5.34661 14.2986C5.89076 15.8267 6.87022 17.0273 8.17618 18.0096C8.93799 18.5553 9.91745 18.9919 10.8969 19.2102C11.8764 19.4285 12.8559 19.4285 13.8353 19.2102C14.8148 19.1011 15.6854 18.6645 16.5561 18.1188C17.862 19.1011 19.168 20.0834 20.4739 21.0657C19.0591 22.3755 17.3179 23.2487 15.4678 23.5761C13.4 24.0127 11.2234 24.0127 9.26447 23.467C7.63203 23.0304 6.10842 22.2664 4.80246 21.284C3.27885 20.3017 2.08172 18.9919 1.31992 17.3547Z" fill="#319F43"/></g><defs><clipPath id="clip0"><path d="M0 0H24V24H0V0Z" fill="white"/></clipPath></defs></svg>