<svg viewBox="0 0 24 24" xmlns="http://www.w3.org/2000/svg"><path fill-rule="evenodd" clip-rule="evenodd" d="M23.9981 16.333L23.3296 15.6804L23.3164 7.6633L23.9982 7.00537L23.9981 16.3331L23.9981 16.333Z" fill="#803300"/><path d="M23.3297 7.66333H0.658325V15.6831H23.3297V7.66333Z" fill="#FF6600"/><path fill-rule="evenodd" clip-rule="evenodd" d="M0.00024666 7L24.0002 7.00269L23.3212 7.66071L0.665828 7.66852L0 7L0.00024666 7Z" fill="#FFCCAA"/><path fill-rule="evenodd" clip-rule="evenodd" d="M0.00280762 16.333L24.0001 16.3355L23.329 15.6775H0.658256L0.00284762 16.333L0.00280762 16.333Z" fill="#552200"/><path fill-rule="evenodd" clip-rule="evenodd" d="M0.66352 15.6725L0.000385243 16.3333L0.00012207 7.00024L0.66083 7.66086L0.663522 15.6726L0.66352 15.6725Z" fill="#FF9955"/><path d="M3.21137 9.57812H5.16052L6.17609 11.3398L7.16046 9.57812H9.09008L7.30886 12.3515L9.25801 15.3046H7.2698L6.14089 13.4648L5.00812 15.3046H3.03165L5.00812 12.3202L3.21131 9.57812H3.21137ZM9.80492 9.57812H12.133L13.0314 13.0624L13.9259 9.57812H16.2462V15.3045H14.8009V10.9374L13.6799 15.3045H12.3713L11.2542 10.9374V15.3045H9.80499V9.57812H9.80492ZM17.3714 9.57812H19.1409V13.8944H21.9025V15.3045H17.3714V9.57812V9.57812Z" fill="#803300"/><path d="M2.82838 8.95947H4.77753L5.7931 10.7212L6.77747 8.95947H8.70708L6.92587 11.7329L8.87501 14.6859H6.8868L5.7579 12.8461L4.62513 14.6859H2.64865L4.62513 11.7016L2.82831 8.95947H2.82838ZM9.42193 8.95947H11.75L12.6484 12.4438L13.5429 8.95947H15.8632V14.6858H14.4179V10.3188L13.2969 14.6858H11.9883L10.8712 10.3188V14.6858H9.422V8.95947H9.42193ZM16.9884 8.95947H18.7579V13.2758H21.5195V14.6858H16.9884V8.95947V8.95947Z" fill="white"/></svg>