<svg viewBox="0 0 24 24" xmlns="http://www.w3.org/2000/svg"><path d="M3.50538 7.74546C2.75269 7.74546 2 8.4 2 9.27273V15.4909C2 16.3636 2.64516 17.0182 3.50538 17.0182C4.36559 17.0182 5.01075 16.3636 5.01075 15.4909V9.27273C4.90323 8.4 4.25806 7.74546 3.50538 7.74546ZM15.2258 2.18182L16.1935 0.327273C16.3011 0.218182 16.1935 0.109091 16.086 0C15.9785 0 15.871 2.43837e-08 15.7634 0.109091L14.6882 1.96364C13.828 1.52727 12.8602 1.30909 11.7849 1.30909C10.7097 1.30909 9.74194 1.52727 8.88172 1.96364L7.80645 0.109091C8.0215 2.43837e-08 7.91398 0 7.80645 0C7.69892 0.109091 7.69892 0.218182 7.80645 0.327273L8.77419 2.18182C6.83871 3.27273 5.44086 5.23636 5.44086 7.52727H18.5591C18.5591 5.23636 17.2688 3.27273 15.2258 2.18182ZM8.98925 5.12727C8.66667 5.12727 8.45161 4.90909 8.45161 4.58182C8.45161 4.25455 8.66667 4.03636 8.98925 4.03636C9.31183 4.03636 9.52688 4.25455 9.52688 4.58182C9.52688 4.90909 9.31183 5.12727 8.98925 5.12727ZM15.0108 5.12727C14.6882 5.12727 14.4731 4.90909 14.4731 4.58182C14.4731 4.25455 14.6882 4.03636 15.0108 4.03636C15.3333 4.03636 15.5484 4.25455 15.5484 4.58182C15.5484 4.90909 15.3333 5.12727 15.0108 5.12727ZM5.44086 8.07273V17.6727C5.44086 18.5455 6.08602 19.2 6.94624 19.2H8.0215V22.4727C8.0215 23.2364 8.66667 24 9.52688 24C10.3871 24 11.0323 23.3455 11.0323 22.4727V19.2H12.9677V22.4727C12.9677 23.2364 13.6129 24 14.4731 24C15.3333 24 15.9785 23.3455 15.9785 22.4727V19.2H17.0538C17.914 19.2 18.5591 18.5455 18.5591 17.6727V8.07273H5.44086ZM22 9.27273C22 8.4 21.3548 7.74546 20.4946 7.74546C19.7419 7.74546 18.9892 8.4 18.9892 9.27273V15.4909C18.9892 16.3636 19.6344 17.0182 20.4946 17.0182C21.2473 17.0182 22 16.3636 22 15.4909V9.27273Z"/></svg>