<svg viewBox="0 0 24 24" xmlns="http://www.w3.org/2000/svg"><g clip-path="url(#clip0)"><path d="M19.1271 21.8661V15.4365H21.2611V24.0001H2V15.4365H4.13396V21.8661H19.1271Z" fill="#BCBBBB"/><path d="M6.48963 14.8269L16.9654 17.0163L17.4089 14.91L6.93305 12.7206L6.48963 14.8269V14.8269ZM7.87532 9.8384L17.5752 14.3557L18.462 12.4158L8.76216 7.87072L7.87532 9.8384ZM10.5636 5.07163L18.7946 11.9169L20.1525 10.2818L11.9215 3.43651L10.5636 5.07163V5.07163ZM15.8846 0L14.1664 1.27484L20.5405 9.86611L22.2588 8.59128L15.8846 0V0ZM6.26792 19.7045H16.9654V17.5706H6.26792V19.7045Z" fill="#F48023"/></g><defs><clipPath id="clip0"><path d="M0 0H24V24H0V0Z" fill="white"/></clipPath></defs></svg>