<svg viewBox="0 0 24 24" xmlns="http://www.w3.org/2000/svg"><path fill-rule="evenodd" clip-rule="evenodd" d="M14.8778 13.7059C14.8778 9.47059 14.8778 5.23529 14.8778 1C9.88235 1 4.88688 1 0 1C0 1.1086 0 4.58371 0 6.32127C3.04072 6.32127 6.08145 6.32127 9.12217 6.32127C14.8778 13.7059 9.12217 6.32127 14.8778 13.7059Z" fill="#00467F"/><path fill-rule="evenodd" clip-rule="evenodd" d="M14.7692 18.3756C12.8145 15.9865 10.9683 13.4887 9.12217 11.0996C9.12217 15.3349 9.12217 19.4616 9.12217 23.6969C14.1176 23.6969 19.0045 23.6969 24 23.6969C24 21.8507 24 20.1132 24 18.267C20.8507 18.3756 17.81 18.3756 14.7692 18.3756Z" fill="#00467F"/><path fill-rule="evenodd" clip-rule="evenodd" d="M15.8552 2.08594C15.8552 3.4977 15.8552 4.90947 15.8552 6.32123C15.8552 6.32123 17.4842 6.32123 18.2443 6.32123C18.2443 10.0135 18.2443 13.8144 18.2443 17.5068C19.7647 17.5068 21.3937 17.5068 22.914 17.5068C22.914 12.4027 22.914 7.19001 22.914 2.08594C20.5249 2.08594 18.1357 2.08594 15.8552 2.08594Z" fill="#B9C7D4"/><path fill-rule="evenodd" clip-rule="evenodd" d="M5.75566 7.29858C4.2353 7.29858 2.60634 7.29858 1.08598 7.29858C1.08598 12.4027 1.08598 17.6153 1.08598 22.7194C3.36652 22.7194 5.75566 22.7194 8.0362 22.7194C8.0362 21.3076 8.0362 19.7873 8.0362 18.3755C7.27602 18.3755 6.51584 18.3755 5.75566 18.3755C5.75566 14.6832 5.75566 10.9909 5.75566 7.29858Z" fill="#B9C7D4"/></svg>