<svg viewBox="0 0 24 24" xmlns="http://www.w3.org/2000/svg"><g clip-path="url(#clip0)"><path d="M22.2778 5.29925C21.8702 3.84411 21.0632 2.69467 19.8811 1.88151C18.3893 0.852315 16.6733 0.489549 15.1917 0.267406C13.1414 -0.0382949 11.2848 -0.081093 9.51377 0.134936C7.85484 0.338737 6.60554 0.662779 5.46629 1.18655C3.23264 2.2137 1.89163 3.87468 1.48199 6.1226C1.28226 7.21497 1.14776 8.20137 1.07031 9.14293C0.890966 11.3195 1.05401 13.2454 1.56758 15.0307C2.06893 16.7712 2.94324 18.0144 4.24145 18.8316C4.57161 19.0395 4.99551 19.1903 5.40515 19.335C5.63749 19.4165 5.8637 19.496 6.04916 19.5836C6.22035 19.6631 6.22035 19.6774 6.21832 19.82C6.20405 21.0571 6.21832 23.4823 6.21832 23.4823L6.22239 24H7.15172L7.30254 23.8533C7.4024 23.7595 9.70535 21.534 10.5267 20.6373L10.6388 20.513C10.7794 20.3499 10.7794 20.3499 10.9241 20.3479C12.0328 20.3255 13.1659 20.2827 14.2909 20.2215C15.6543 20.1482 17.2337 20.0157 18.7215 19.3961C20.0829 18.8275 21.0774 17.9247 21.6746 16.7141C22.2982 15.4506 22.6671 14.0831 22.8057 12.5321C23.0502 9.80528 22.877 7.43915 22.2778 5.29925ZM17.3744 15.903C17.032 16.4594 16.5225 16.8466 15.9213 17.0973C15.4811 17.2807 15.0327 17.242 14.5986 17.0585C10.9648 15.5199 8.11366 13.0967 6.23055 9.61167C5.84129 8.89429 5.57227 8.1117 5.26249 7.35356C5.19931 7.19867 5.20339 7.01525 5.17486 6.84406C5.20135 5.61921 6.14087 4.92833 7.09058 4.72045C7.45335 4.63893 7.77535 4.76733 8.04437 5.02615C8.79028 5.73538 9.37927 6.56077 9.82355 7.48603C10.0172 7.89159 9.92953 8.25028 9.59937 8.5519C9.53008 8.61508 9.45875 8.67215 9.38334 8.72921C8.62928 9.29578 8.51923 9.7258 8.92071 10.5797C9.60548 12.0328 10.7427 13.009 12.2121 13.6143C12.5993 13.7733 12.9641 13.6938 13.2596 13.3799C13.3004 13.3392 13.3452 13.2984 13.3738 13.2495C13.9526 12.2835 14.7943 12.3793 15.5707 12.9295C16.0802 13.2923 16.5755 13.6755 17.0789 14.0443C17.8472 14.6089 17.8411 15.1387 17.3744 15.903ZM12.5545 6.26119C12.3833 6.26119 12.2121 6.27545 12.0429 6.30398C11.7576 6.35086 11.4906 6.15929 11.4417 5.87396C11.3949 5.59068 11.5864 5.32166 11.8717 5.27479C12.0959 5.23607 12.3262 5.21773 12.5545 5.21773C14.8146 5.21773 16.6529 7.05601 16.6529 9.31616C16.6529 9.54645 16.6346 9.77675 16.5958 9.99889C16.5531 10.2536 16.3329 10.435 16.0823 10.435C16.0537 10.435 16.0252 10.433 15.9946 10.4269C15.7114 10.38 15.5198 10.111 15.5667 9.8277C15.5952 9.66058 15.6095 9.48939 15.6095 9.31616C15.6095 7.63276 14.2379 6.26119 12.5545 6.26119ZM15.0877 9.39156C15.0877 9.67892 14.8534 9.91329 14.566 9.91329C14.2786 9.91329 14.0443 9.67892 14.0443 9.39156C14.0443 8.52949 13.3412 7.82637 12.4791 7.82637C12.1917 7.82637 11.9573 7.592 11.9573 7.30464C11.9573 7.01729 12.1917 6.78292 12.4791 6.78292C13.9179 6.78292 15.0877 7.95273 15.0877 9.39156ZM18.0673 10.5512C18.0123 10.7937 17.7962 10.9568 17.5578 10.9568C17.5191 10.9568 17.4803 10.9527 17.4416 10.9445C17.1604 10.8793 16.9851 10.6001 17.0483 10.3189C17.1237 9.98666 17.1624 9.64224 17.1624 9.29578C17.1624 6.7605 15.0979 4.696 12.5626 4.696C12.2162 4.696 11.8717 4.73472 11.5396 4.81012C11.2583 4.87534 10.9791 4.69803 10.9159 4.41679C10.8507 4.13554 11.028 3.85634 11.3093 3.79316C11.7169 3.69941 12.1387 3.65254 12.5626 3.65254C15.6747 3.65254 18.2059 6.18374 18.2059 9.29578C18.2059 9.71968 18.159 10.1416 18.0673 10.5512Z"/></g><defs><clipPath id="clip0"><path d="M0 0H24V24H0V0Z" fill="white"/></clipPath></defs></svg>