<svg viewBox="0 0 24 24" xmlns="http://www.w3.org/2000/svg"><path d="M15 16.4999C12.2 16.9999 10.6 16.9999 8.60001 16.7999C7.10001 16.6999 8.10001 15.8999 8.10001 15.8999C4.00001 17.2999 10.4 18.7999 16 17.0999C15.4 16.8999 15 16.4999 15 16.4999Z" fill="#0074BD"/><path d="M8.70001 18.6001C5.00001 19.6001 10.9 21.7001 15.7 19.7001C15 19.4001 14.4 19.1001 14.4 19.1001C12.3 19.5001 11.3 19.5001 9.40001 19.3001C7.80001 19.1001 8.70001 18.6001 8.70001 18.6001Z" fill="#0074BD"/><path d="M17.2 4.8999C17.2 4.8999 9 6.9999 12.9 11.4999C14.1 12.7999 12.6 13.9999 12.6 13.9999C12.6 13.9999 15.5 12.4999 14.2 10.5999C12.9 8.7999 12 7.8999 17.2 4.8999Z" fill="#EA2D2E"/><path d="M16.9 17.6V17.7C22.9 16.1 20.7 12.1 17.8 13.1C17.5 13.2 17.4 13.4 17.4 13.4C17.4 13.4 17.5 13.4 17.9 13.3C19.3 13 21.4 15.3 16.9 17.6Z" fill="#0074BD"/><path d="M19.2 20.5001C19.2 20.5001 19.9 21.1001 18.5 21.5001C15.8 22.3001 7.19999 22.6001 4.79999 21.5001C3.89999 21.1001 5.49999 20.6001 6.09999 20.5001C6.59999 20.4001 6.89999 20.4001 6.89999 20.4001C5.89999 19.7001 0.699991 21.7001 4.29999 22.3001C13.8 23.9001 21.6 21.6001 19.2 20.5001Z" fill="#0074BD"/><path d="M15.9 14.6001C16.4 14.3001 17 14.0001 17 14.0001C17 14.0001 15.2 14.3001 13.4 14.5001C11.2 14.7001 8.8 14.8001 7.6 14.6001C4.7 14.2001 9.1 13.2001 9.1 13.2001C9.1 13.2001 7.4 13.1001 5.4 14.0001C2.9 15.2001 11.5 15.8001 15.9 14.6001Z" fill="#0074BD"/><path d="M11.8 13.1C10.9 11.1 7.90001 9.4 11.8 6.3C16.7 2.5 14.2 0 14.2 0C15.2 4 10.7 5.2 9.00001 7.6C7.90001 9.3 9.60001 11.1 11.8 13.1Z" fill="#EA2D2E"/><path d="M17.1 23.1C13.4 23.8 8.90001 23.6999 6.20001 23.2999C6.20001 23.2999 6.70001 23.6999 9.60001 23.9C13.9 24.1999 20.6 23.7 20.7 21.7C20.7 21.7 20.4 22.5 17.1 23.1Z" fill="#0074BD"/></svg>