<svg viewBox="0 0 24 24" xmlns="http://www.w3.org/2000/svg"><path d="M19.4157 17.9569L12 15.0822L4.58427 17.9569L7.51281 13.3726L0 10.5681L9.22787 10.6112L12 6L14.7721 10.6058L24 10.5681L16.4872 13.3726L19.4157 17.9569Z" fill="#010101"/><path d="M18.4126 17.1372L12.0054 14.6563L5.59821 17.1372L8.12765 13.1785L1.63956 10.7516L9.61079 10.7893L12.0054 6.80908L14.4 10.7893L22.3712 10.7516L15.8832 13.1731L18.4126 17.1372Z" fill="#619CBC"/><path d="M19.8148 12.3423C19.7393 12.0726 19.68 11.7976 19.6207 11.501C19.5775 11.2852 19.529 11.0587 19.4751 10.8322C19.4643 10.7944 19.4589 10.7567 19.4481 10.7243C19.4319 10.6542 19.4103 10.5895 19.3995 10.5248C19.3888 10.2929 19.2377 10.0879 19.0112 10.0232C18.8926 9.98545 18.7685 9.98545 18.6715 9.98006C18.6445 9.98006 18.6121 9.98006 18.6013 9.97466C18.4072 9.95848 18.2184 10.0448 18.1052 10.2066C18.062 10.2713 18.0351 10.3414 18.0243 10.4169C17.9919 10.363 17.9595 10.309 17.9272 10.2605C17.9056 10.2335 17.8894 10.2066 17.8679 10.1796C17.7924 10.0879 17.6953 10.0286 17.5874 10.0016C17.5281 9.98545 17.4688 9.98545 17.4094 9.99084C17.404 9.99084 17.3933 9.99084 17.3879 9.99084C17.2476 10.007 17.129 10.0825 17.0427 10.185C17.0427 10.185 17.0427 10.185 17.0427 10.1904C17.0319 10.2066 17.0157 10.2228 17.0049 10.2443C17.0049 10.2443 17.0049 10.2497 16.9995 10.2497C16.9942 10.2605 16.9888 10.2767 16.978 10.2875C16.7299 10.0987 16.4494 9.99624 16.1474 9.99624C15.9964 9.99624 15.8508 10.034 15.7321 10.1095C15.6458 10.0556 15.5434 10.0286 15.4409 10.0286C15.2791 10.034 15.1281 10.1095 15.031 10.2335C15.0148 10.2551 14.9986 10.2767 14.9825 10.2929C14.6697 10.0232 14.2867 9.87219 13.8822 9.87219C13.4346 9.87219 13.138 10.1472 12.9438 10.4439C12.7173 10.1419 12.4045 9.97466 12.0539 9.97466C12.0485 9.97466 12.0216 9.96927 12.0054 9.96927C11.9515 9.95848 11.8706 9.9477 11.7789 9.9477C11.369 9.9477 11.04 10.2713 10.8351 10.541C10.7649 10.3198 10.5492 10.1634 10.3065 10.1742C10.1663 10.1796 10.0584 10.2228 9.96674 10.2821C9.94517 10.2659 9.9182 10.2443 9.89124 10.2281C9.65933 10.0771 9.35191 10.1257 9.17933 10.3414C9.09303 10.2335 8.96899 10.158 8.82876 10.1419C8.64 10.1149 8.44584 10.1958 8.33258 10.3468L8.16 10.5679C8.13843 10.4708 8.12225 10.3846 8.12225 10.3144C8.11685 10.158 8.04674 10.0124 7.9227 9.91534C7.90652 9.89916 7.88494 9.88837 7.86876 9.87759C7.9982 9.32747 8.06832 8.63174 7.79865 8.21107C7.64225 7.96298 7.38337 7.82275 7.09214 7.82275C6.43955 7.82275 5.7654 8.52388 5.31236 9.05242C4.85393 9.58096 4.37394 10.2713 4.19596 10.6488C3.88315 11.3068 3.87776 11.927 4.17438 12.3962C4.32 12.6228 4.51955 12.7953 4.77304 12.914C4.7191 12.9302 4.67056 12.9463 4.62742 12.9625C4.44405 13.0219 4.30922 13.1783 4.27146 13.367C4.23371 13.5558 4.29843 13.7499 4.44405 13.874C4.66517 14.0681 4.84854 14.3324 4.99955 14.6884C5.05349 14.8178 5.16135 14.9257 5.29618 14.9742C5.3609 15.0012 5.42562 15.012 5.49034 15.012C5.56584 15.012 5.63596 14.9958 5.70607 14.9688C5.89483 14.8879 6.14832 14.8232 6.41798 14.7531C7.18382 14.5589 8.13843 14.3216 8.56989 13.4102C8.60225 13.3454 8.62382 13.2807 8.64539 13.216C8.66157 13.2592 8.67236 13.2969 8.69393 13.3347C8.94202 13.9171 9.38966 14.0034 9.63236 14.0034C9.9236 14.0034 10.2256 13.9171 10.4683 13.7607C10.6139 13.669 10.7002 13.518 10.7164 13.3508C10.9267 13.5396 11.2018 13.6367 11.52 13.6367C12.0378 13.6367 12.5124 13.3886 12.8575 12.9625C13.1488 13.3131 13.5964 13.5072 14.1411 13.5072C14.6535 13.5072 15.1065 13.2484 15.3762 12.8061C15.4247 12.9841 15.4894 13.1567 15.5649 13.3185C15.8724 13.9495 16.3362 14.1005 16.6867 14.1113C16.6436 14.1976 16.6166 14.3001 16.6274 14.3971C16.6382 14.5589 16.6382 14.6722 16.5843 14.7801C16.5465 14.861 16.498 14.9257 16.3577 15.0174C16.2337 15.0983 16.1474 15.2223 16.1204 15.3679C16.0935 15.5135 16.1258 15.6646 16.2175 15.7832C16.347 15.9558 16.5573 16.0583 16.8 16.0583C17.0319 16.0583 17.3986 15.9828 17.76 15.8911C17.8625 15.9396 17.9811 15.9666 18.1052 15.9666C18.8602 15.9666 19.5506 15.3625 19.8364 14.7908C19.8418 14.7801 19.8472 14.7747 19.8472 14.7639C19.8903 14.6722 19.9281 14.5751 19.9551 14.478C20.187 13.6259 19.9712 12.887 19.8148 12.3423ZM18.4935 11.7329C18.4395 11.5872 18.3856 11.4201 18.3479 11.296V11.2906C18.3586 11.3122 18.3694 11.3392 18.3802 11.3607C18.4342 11.4794 18.4827 11.6088 18.4935 11.7329ZM17.5335 13.6637C17.5335 13.669 17.5389 13.6744 17.5389 13.6798C17.5443 13.7014 17.5551 13.7284 17.5658 13.7553C17.5712 13.7661 17.5766 13.7769 17.582 13.7877C17.5874 13.8039 17.5928 13.8147 17.5982 13.8308C17.5119 13.8308 17.4418 13.8308 17.3879 13.8308C17.4418 13.7823 17.4903 13.7284 17.5335 13.6637ZM10.3119 11.8569C10.3119 11.8731 10.3065 11.8893 10.3065 11.9055C10.2903 11.9001 10.2796 11.9001 10.2634 11.8947C10.2796 11.8785 10.2957 11.8677 10.3119 11.8569Z" fill="black"/><path fill-rule="evenodd" clip-rule="evenodd" d="M12.0378 10.514C11.9407 10.514 11.8598 10.4817 11.7681 10.4817C11.5092 10.4817 11.1748 10.9293 11.0777 11.1343C10.7272 11.8785 10.6139 13.1082 11.5146 13.1082C12.027 13.1082 12.4261 12.763 12.6472 12.2884C12.9384 11.6736 12.6849 10.514 12.0378 10.514ZM12.6472 11.6844C12.507 11.9864 12.1402 12.2669 11.822 12.2669C11.2503 12.2669 11.0508 11.5334 11.2989 11.0048C11.369 10.8592 11.4715 10.7082 11.6279 10.6057C11.3744 10.9671 11.369 11.528 11.7951 11.528C11.8813 11.528 12.0485 11.4417 12.0971 11.3446C12.1672 11.1936 11.6764 10.9833 11.7735 10.7729C11.822 10.6705 11.9083 10.6219 12.0108 10.6219C12.3775 10.6219 12.8252 11.3123 12.6472 11.6844Z" fill="white"/><path fill-rule="evenodd" clip-rule="evenodd" d="M13.8715 10.4062C13.5856 10.4062 13.3969 10.6759 13.2782 10.9186C12.7928 11.9487 13.0139 12.9788 14.1411 12.9788C14.4971 12.9788 14.8099 12.7847 14.9771 12.4233C15.4031 11.5227 14.7721 10.4062 13.8715 10.4062ZM14.9393 11.6413C14.8045 11.9218 14.4755 12.0674 14.2166 12.0674C13.6018 12.0674 13.1757 11.431 13.4724 10.8054C13.5209 10.6975 13.591 10.5842 13.7097 10.5087C13.4184 10.8539 13.6773 11.3177 14.0171 11.3177C14.0764 11.3177 14.2166 11.253 14.2652 11.1937C14.2652 10.9995 13.7906 10.8377 13.8768 10.6489C13.9146 10.5627 13.9901 10.5357 14.071 10.5357C14.4539 10.5411 15.1281 11.2422 14.9393 11.6413Z" fill="white"/><path fill-rule="evenodd" clip-rule="evenodd" d="M7.46427 10.3576C7.43191 10.6435 7.3564 10.9509 7.21079 11.2529C6.96809 11.7653 6.46652 12.3531 5.85708 12.3531C4.9564 12.3531 4.66517 11.3176 5.06427 10.4817C5.28539 10.0124 6.34786 8.51312 6.9627 8.51312C7.49663 8.51312 7.01663 10.239 6.82786 10.6435C6.73618 10.843 6.50966 11.1558 6.25079 11.1558C5.96494 11.1558 5.9218 10.7136 6.04045 10.4601C6.11595 10.3037 6.25618 10.1473 6.3209 10.0017C6.41798 9.79132 6.17528 9.62413 6.24539 9.37604C5.95955 9.61334 5.7546 9.93154 5.61977 10.2174C5.37168 10.7459 5.3555 11.4417 5.97573 11.4417C6.49348 11.4417 6.93573 10.8484 7.12989 10.4331C7.3564 9.95312 7.72854 8.35132 7.09213 8.35132C6.36404 8.35132 4.9618 10.2929 4.68674 10.8754C4.22831 11.8462 4.64359 12.5473 5.61438 12.5473C6.3155 12.5473 6.99506 12.0241 7.30787 11.3554C7.3618 11.2367 7.40494 11.1181 7.4373 10.9994C7.61528 11.1828 7.72315 11.7329 7.56674 12.0619C7.19461 12.8439 5.49573 13.2376 4.8 13.4695C5.11281 13.7392 5.33393 14.0951 5.49573 14.4781C6.27236 14.1383 7.63146 14.1437 8.08989 13.1837C8.44584 12.4286 7.60989 11.1235 7.58292 10.336L7.46427 10.3576Z" fill="white"/><path fill-rule="evenodd" clip-rule="evenodd" d="M9.96674 11.005C9.66472 11.005 9.7564 10.7785 9.58921 10.676C9.50292 10.8055 9.16854 11.307 8.98517 11.307C8.89887 11.307 8.78562 10.7677 8.74786 10.676L8.45123 11.0643C9.23865 11.4904 8.76944 13.4751 9.62157 13.4751C9.78876 13.4751 9.99371 13.4266 10.1717 13.3133C10.107 13.0275 10.1124 12.7524 10.1609 12.418C9.96674 12.5043 9.74562 12.6392 9.55685 12.6392C9.20629 12.6392 8.86112 11.7223 8.99056 11.4473C9.02292 11.3825 9.12 11.3556 9.17393 11.3556C9.22247 11.3556 9.47056 11.5713 9.64854 11.5713C9.89663 11.5713 10.1501 11.2855 10.2526 11.0697C10.3173 10.9295 10.3119 10.8216 10.3065 10.703C10.1717 10.7138 10.107 11.005 9.96674 11.005Z" fill="white"/><path fill-rule="evenodd" clip-rule="evenodd" d="M17.1667 13.2269C17.5982 12.31 17.1074 10.5303 16.1366 10.5303C16.0719 10.5303 15.9694 10.5518 15.9317 10.6381C15.7968 10.924 16.0557 11.3123 16.3038 11.3608C16.5411 10.8485 16.3038 11.0372 16.2876 10.7352C16.2876 10.7083 16.3524 10.7083 16.3577 10.7083C16.8108 10.7083 17.2261 11.528 16.9995 12.0026C16.9133 12.1806 16.7568 12.3586 16.5519 12.3586C15.6512 12.3586 15.8616 11.0588 15.4409 10.5626C15.3924 10.6274 15.3384 10.6921 15.2791 10.7514C15.9047 11.377 15.6189 13.5775 16.7245 13.5775C16.9294 13.5775 17.0858 13.4049 17.1667 13.2269Z" fill="white"/><path fill-rule="evenodd" clip-rule="evenodd" d="M19.3025 12.4935C19.1569 11.9919 19.0814 11.4742 18.9573 10.9672C18.9249 10.8378 18.8872 10.7083 18.8656 10.5735C18.8656 10.5573 18.8764 10.5411 18.8602 10.5358C18.7793 10.5142 18.6445 10.5196 18.5528 10.5088C18.7631 10.9079 19.2431 11.6198 18.9519 12.2346C18.8872 12.3749 18.72 12.5259 18.5636 12.5259C17.9164 12.5259 17.8894 11.0589 17.4472 10.525C17.4148 10.5951 17.3771 10.6652 17.3393 10.7299C18.0836 11.3555 17.6144 13.9982 18.5474 13.9982C18.7578 13.9982 18.898 13.8149 18.9843 13.6369C19.1676 13.254 19.173 12.7793 19.1569 12.4396C19.1569 12.4342 19.1569 12.4234 19.1622 12.4126L19.1569 12.4018L19.1515 12.3802C19.1676 12.3802 19.1623 12.3964 19.1569 12.4126V12.4234L19.1946 12.6176C19.2216 12.7524 19.2378 12.8872 19.2539 13.0274C19.2809 13.3079 19.3079 13.6423 19.1515 13.9713C18.5528 15.0769 17.3825 14.4782 17.1721 14.4782C17.1182 14.4782 16.9942 14.4243 16.9564 14.3973C16.9726 14.5969 16.9726 14.818 16.8647 15.0499C16.773 15.2441 16.6436 15.3789 16.4387 15.5083C16.4656 15.5461 16.5303 15.5623 16.5897 15.5623C17.0751 15.5623 18.6283 15.9398 19.3564 14.5429C19.3888 14.4728 19.4157 14.4081 19.4319 14.338C19.6261 13.6531 19.4589 13.0382 19.3025 12.4935Z" fill="white"/></svg>