<svg viewBox="0 0 24 24" xmlns="http://www.w3.org/2000/svg"><g clip-path="url(#clip0)"><path d="M15.3684 14.539C15.4776 14.3205 15.5869 14.102 15.6961 13.8835C16.1332 12.5723 16.5702 11.1519 17.0073 9.84079C17.2258 9.29449 17.3351 8.85744 17.6628 8.31114C18.2091 7.65557 18.8647 7.21852 19.7388 7.10926C20.0666 7.10926 20.3944 7 20.7222 7C21.7055 7 22.6889 7 23.7815 7C23.7815 7 23.8907 7 24 7C24 7.10926 24 7.10926 23.8907 7.10926C23.563 7.76483 23.1259 8.4204 22.7981 9.07597C22.1426 10.2778 21.487 11.3705 20.7222 12.5723C20.2851 13.3372 19.8481 13.9927 19.3018 14.6483C18.8647 15.0853 18.4277 15.6316 17.8814 15.9594C17.5536 16.178 17.1165 16.2872 16.6795 16.2872C15.0406 16.2872 13.5109 16.2872 11.872 16.2872C11.4349 16.2872 10.9979 16.0687 10.6701 15.7409C10.2331 15.3039 9.90529 14.7576 9.68677 14.102C9.24972 13.0094 9.0312 11.8075 8.70341 10.6056C8.59415 10.0593 8.37563 9.51301 8.26637 8.9667V8.85744L8.04785 9.07597C7.50154 9.73153 6.95523 10.3871 6.40893 11.1519C6.29966 11.3705 6.1904 11.589 6.1904 11.8075C5.97188 12.6816 5.6441 13.5557 5.42557 14.4298C5.09779 15.1946 4.66074 15.8502 3.89592 16.2872C3.45887 16.5057 2.91256 16.615 2.47552 16.615C1.71069 16.615 0.945859 16.615 0.18103 16.615C-0.0374926 16.615 -0.0374925 16.615 0.0717688 16.3965C0.18103 15.1946 0.618076 13.9927 1.16438 12.9001C1.71069 11.6982 2.36626 10.6056 3.13109 9.51301C3.67739 8.85744 4.2237 8.20187 4.98853 7.65557C5.31631 7.43705 5.75336 7.21852 6.1904 7.21852C6.29967 7.21852 6.29966 7.21852 6.40893 7.21852C8.04785 7.21852 9.68677 7.21852 11.3257 7.21852C12.1998 7.21852 12.8553 7.54631 13.2924 8.31114C13.6202 8.74818 13.8387 9.18523 13.948 9.73153C14.2757 10.7149 14.4943 11.6982 14.822 12.7909C14.9313 13.3372 15.1498 13.9927 15.2591 14.539C15.2591 14.539 15.2591 14.539 15.3684 14.539Z"/></g><defs><clipPath id="clip0"><path d="M0 0H24V24H0V0Z" fill="white"/></clipPath></defs></svg>