<svg viewBox="0 0 24 24" xmlns="http://www.w3.org/2000/svg"><path d="M5.01818 15.1636C5.01818 16.5818 3.92727 17.6727 2.50909 17.6727C1.09091 17.6727 0 16.5818 0 15.1636C0 13.7454 1.09091 12.6545 2.50909 12.6545H5.01818V15.1636Z" fill="#E01E5A"/><path d="M6.32727 15.1636C6.32727 13.7454 7.41818 12.6545 8.83636 12.6545C10.2545 12.6545 11.3454 13.7454 11.3454 15.1636V21.4909C11.3454 22.9091 10.2545 24 8.83636 24C7.41818 24 6.32727 22.9091 6.32727 21.4909C6.32727 21.4909 6.32727 15.1636 6.32727 15.1636Z" fill="#E01E5A"/><path d="M8.83636 5.01818C7.41818 5.01818 6.32727 3.92727 6.32727 2.50909C6.32727 1.09091 7.41818 0 8.83636 0C10.2545 0 11.3454 1.09091 11.3454 2.50909V5.01818H8.83636Z" fill="#36C5F0"/><path d="M8.83635 6.32739C10.2545 6.32739 11.3454 7.4183 11.3454 8.83648C11.3454 10.2547 10.2545 11.3456 8.83635 11.3456H2.50909C1.09091 11.3456 0 10.2547 0 8.83648C0 7.4183 1.09091 6.32739 2.50909 6.32739H8.83635Z" fill="#36C5F0"/><path d="M18.9818 8.83648C18.9818 7.4183 20.0727 6.32739 21.4909 6.32739C22.9091 6.32739 24 7.4183 24 8.83648C24 10.2547 22.9091 11.3456 21.4909 11.3456H18.9818V8.83648Z" fill="#2EB67D"/><path d="M17.6727 8.83635C17.6727 10.2545 16.5817 11.3454 15.1636 11.3454C13.7454 11.3454 12.6545 10.2545 12.6545 8.83635V2.50909C12.6545 1.09091 13.7454 0 15.1636 0C16.5817 0 17.6727 1.09091 17.6727 2.50909V8.83635Z" fill="#2EB67D"/><path d="M15.1636 18.9817C16.5817 18.9817 17.6727 20.0726 17.6727 21.4908C17.6727 22.909 16.5817 23.9999 15.1636 23.9999C13.7454 23.9999 12.6545 22.909 12.6545 21.4908V18.9817H15.1636Z" fill="#ECB22E"/><path d="M15.1636 17.6727C13.7454 17.6727 12.6545 16.5818 12.6545 15.1636C12.6545 13.7454 13.7454 12.6545 15.1636 12.6545H21.4908C22.909 12.6545 23.9999 13.7454 23.9999 15.1636C23.9999 16.5818 22.909 17.6727 21.4908 17.6727H15.1636Z" fill="#ECB22E"/></svg>