<svg viewBox="0 0 24 24" xmlns="http://www.w3.org/2000/svg"><path d="M22.2545 0H1.74545C0.763636 0 0 0.763636 0 1.74545V22.2545C0 23.2364 0.763636 24 1.74545 24H22.1455C23.1273 24 23.8909 23.2364 23.8909 22.2545V1.74545C24 0.763636 23.2364 0 22.2545 0ZM7.09091 20.4H3.6V8.94545H7.2V20.4H7.09091ZM5.34545 7.41818C4.14545 7.41818 3.27273 6.54545 3.27273 5.34545C3.27273 4.14545 4.14545 3.27273 5.34545 3.27273C6.43636 3.27273 7.41818 4.14545 7.41818 5.34545C7.41818 6.54545 6.43636 7.41818 5.34545 7.41818ZM20.4 20.4H16.8V14.8364C16.8 13.5273 16.8 11.7818 14.9455 11.7818C13.0909 11.7818 12.7636 13.2 12.7636 14.7273V20.4H9.38182V8.94545H12.7636V10.4727C13.3091 9.70909 14.4 8.72727 16.1455 8.72727C19.7455 8.72727 20.4 11.1273 20.4 14.1818V20.4Z"/></svg>