<svg viewBox="0 0 24 24" xmlns="http://www.w3.org/2000/svg"><g clip-path="url(#clip0)"><path d="M20.157 20.5785C19.9587 20.281 19.6612 20.0331 19.3636 19.8347C19.0165 19.6364 18.5702 19.4876 18.0248 19.438C17.4297 19.3388 16.8347 19.2893 16.2397 19.3388L8.45454 19.3884C8.6033 18.843 9.04959 18.1488 9.69421 17.3058C10.438 16.3636 11.4793 15.3223 12.8182 14.0826L13.8595 13.0909C14.0083 12.9421 14.2562 12.6942 14.6033 12.4463C16.6859 10.5124 18.0248 8.92562 18.6694 7.58678C19.1157 6.64463 19.4132 5.65289 19.6116 4.61157C19.7107 4.01653 19.7603 3.47107 19.7107 2.87603C19.7107 2.33058 19.6612 1.8843 19.5124 1.53719C19.3636 1.09091 19.1653 0.793388 18.9174 0.595041C18.6198 0.347107 18.2231 0.198347 17.6281 0.0991735C17.1818 0.0495868 16.5868 0 15.8926 0L6.91735 0.0495868C5.82645 0.0495868 4.98347 0.247934 4.43802 0.595041C3.99174 0.892562 3.69421 1.38843 3.59504 1.8843C3.59504 2.03306 3.54545 2.18182 3.54545 2.33058C3.54545 3.07438 3.84297 3.66942 4.43802 4.01653C4.78512 4.21488 5.2314 4.36364 5.72727 4.46281C6.07438 4.5124 6.47107 4.56198 6.91735 4.56198H14.4545C14.405 5.15702 14.2562 5.70248 13.9587 6.19835C13.6612 6.7438 12.9669 7.4876 11.9256 8.42975C11.6281 8.67769 11.1818 9.07438 10.5868 9.61984C8.2562 11.6033 6.52066 13.3388 5.38017 14.876C4.58678 15.9174 3.99174 16.9587 3.59504 18C3.34711 18.595 3.19835 19.1901 3.09917 19.7851C3.04959 20.2314 3 20.6281 3 21.0248C3 21.6198 3.09917 22.1157 3.19835 22.5124C3.34711 22.9091 3.54545 23.2066 3.84297 23.4545C4.09091 23.6529 4.53719 23.7521 5.08264 23.8512C5.82645 23.9504 6.81818 24 8.10744 24L16.2893 23.9504C17.7273 23.9504 18.7686 23.7521 19.4132 23.405C19.9091 23.157 20.2562 22.6612 20.3058 22.0661C20.3058 21.9174 20.3554 21.7686 20.3554 21.6198C20.4545 21.2231 20.3554 20.876 20.157 20.5785Z" fill="#CB2232"/></g><defs><clipPath id="clip0"><path d="M0 0H24V24H0V0Z" fill="white"/></clipPath></defs></svg>