<svg xmlns="http://www.w3.org/2000/svg" viewBox="0 0 24 24"><path d="M12.8,0C12.3,0,12,0.3,12,0.8c0,0.4,0.3,0.8,0.8,0.8c2.6,0,5.1,1,6.9,2.9c1.8,1.8,2.9,4.3,2.9,6.9	c0,0.4,0.3,0.8,0.8,0.8s0.8-0.3,0.8-0.8c0-3-1.2-5.8-3.3-8C18.6,1.2,15.7,0,12.8,0z M12.8,4.5c-0.4,0-0.8,0.3-0.8,0.8S12.3,6,12.8,6	c1.4,0,2.7,0.6,3.7,1.5c1,1,1.5,2.3,1.5,3.7c0,0.4,0.3,0.8,0.8,0.8s0.8-0.3,0.8-0.8c0-1.8-0.7-3.5-2-4.8C16.3,5.2,14.5,4.5,12.8,4.5	z M13.3,10.7c0.3,0.3,0.3,0.8,0,1.1l-1,1l6.9,6.9c0.3,0.3,0.3,0.8,0,1.1c-2.1,2.1-5,3.3-8,3.3c-3,0-5.8-1.2-8-3.3	c-2.1-2.1-3.3-5-3.3-8c0-3,1.2-5.8,3.3-8c0.1-0.1,0.3-0.2,0.5-0.2s0.4,0.1,0.5,0.2l6.9,6.9l1-1C12.5,10.4,13,10.4,13.3,10.7zM10.7,13.3L3.8,6.4c-1.5,1.8-2.3,4-2.3,6.3c0,2.6,1,5.1,2.9,6.9s4.3,2.9,6.9,2.9c2.3,0,4.6-0.8,6.3-2.3L10.7,13.3	C10.7,13.3,10.7,13.3,10.7,13.3C10.7,13.3,10.7,13.3,10.7,13.3z"/></svg>