<svg viewBox="0 0 24 24" xmlns="http://www.w3.org/2000/svg"><path d="M3 21H10.5V24H1.5C1.10218 24 0.720644 23.842 0.43934 23.5607C0.158035 23.2794 0 22.8978 0 22.5V4.5C0 4.10218 0.158035 3.72064 0.43934 3.43934C0.720644 3.15804 1.10218 3 1.5 3H4.5V0H7.5V3H10.5V0H13.5V3H16.5V0H19.5V3H22.5C22.8978 3 23.2794 3.15804 23.5607 3.43934C23.842 3.72064 24 4.10218 24 4.5V13.5H21V7.5H3V21ZM15.4395 23.5605C15.7207 23.8418 16.1022 23.9999 16.5 24C16.8977 23.9999 17.2792 23.8418 17.5605 23.5605L23.5605 17.5605L21.4395 15.4395L16.5 20.379L14.5605 18.4395L12.4395 20.5605L15.4395 23.5605Z"/></svg>