<svg viewBox="0 0 24 24" xmlns="http://www.w3.org/2000/svg"><path d="M17.1371 8.92573L23.8933 2.16956L21.7237 0L14.9673 6.75636V1.93699H11.8991V11.994H21.9561V8.92573H17.1371Z"/><path d="M3.85608 0.853375C4.26564 0.75006 4.68734 0.770676 5.08705 0.943526C5.52713 1.13383 5.83991 1.49772 6.06715 1.87655C6.25545 2.17216 6.76051 2.96718 7.58178 4.26073C8.42382 5.58701 8.92786 6.89849 8.5936 8.02188C8.37601 8.8076 8.01356 9.54703 7.35887 9.93641C7.34948 9.98738 7.34204 10.1101 7.39109 10.3364L7.39542 10.3563C7.4778 10.7858 7.77994 11.3905 8.433 12.1851C9.1195 13.0204 9.62575 13.5982 9.96123 13.9367C10.3153 14.294 10.8967 14.809 11.7226 15.4899C12.51 16.1391 13.117 16.4578 13.5566 16.5587C13.7692 16.6053 13.886 16.5996 13.9357 16.5914C14.3168 15.9395 15.0431 15.5589 15.8254 15.3178L15.8464 15.3113C16.4199 15.1505 17.0315 15.2125 17.6348 15.3982C18.2398 15.5844 18.8891 15.9111 19.5761 16.3498C20.8287 17.1495 21.6337 17.6742 21.9607 17.9068C22.3316 18.1364 22.6827 18.4491 22.8669 18.8828C23.0365 19.2821 23.0566 19.7025 22.9553 20.1114L22.9439 20.1576L22.5016 21.3528C22.1256 22.3691 21.3548 23.116 20.3083 23.62L20.297 23.6255C19.3162 24.0802 18.1679 24.097 16.9296 23.8043C15.7219 23.5189 14.483 23.0347 13.2143 22.3625C11.958 21.697 10.7355 20.9218 9.54678 20.0381C8.36494 19.1594 7.34758 18.293 6.50017 17.4379C5.65279 16.5829 4.79427 15.5565 3.92362 14.3642C3.04792 13.165 2.27998 11.9319 1.62072 10.6648C0.955031 9.38541 0.475762 8.13674 0.193337 6.92011C-0.096016 5.67364 -0.0788398 4.52054 0.369529 3.53587L0.374659 3.5246C0.872386 2.47233 1.61193 1.69293 2.62372 1.31179L3.80927 0.865183L3.85608 0.853375Z"/></svg>