<svg xmlns="http://www.w3.org/2000/svg" viewBox="0 0 16 16"><g><path d="M11.5,7.5C11.5,7.8,11.7,8,12,8s0.5-0.2,0.5-0.5c0-2.2-1.8-4-4-4C8.2,3.5,8,3.7,8,4s0.2,0.5,0.5,0.5C10.2,4.5,11.5,5.8,11.5,7.5z"/><path d="M8.5,0.5C8.2,0.5,8,0.7,8,1s0.2,0.5,0.5,0.5c3.3,0,6,2.7,6,6C14.5,7.8,14.7,8,15,8s0.5-0.2,0.5-0.5C15.5,3.6,12.4,0.5,8.5,0.5z"/></g><path d="M3.6,2c0.3,0,0.5,0.2,0.6,0.3c0.3,0.4,1.4,2,1.4,2.7c0,0.7-0.3,1.1-0.9,1.5c0,0,0.2,1.2,1.9,2.9	c1.5,1.6,2.9,1.9,2.9,1.9s0.3-0.8,1.1-0.9c0.1,0,0.2,0,0.3,0c0.7,0,1.4,0.4,2.8,1.5c0.5,0.4-0.1,2.2-1.6,2.5c-0.1,0-0.2,0-0.3,0	c-1.6,0-4.3-1.5-6.3-3.6c-1.8-1.9-3.3-4-3.7-6.2C1.3,2.5,3.1,2.1,3.4,2C3.5,2,3.5,2,3.6,2 M3.6,1C3.4,1,3.3,1,3.2,1	C1.3,1.5,0.4,2.9,0.8,4.8c0.4,2.1,1.7,4.3,3.9,6.7c2.1,2.2,5.1,3.9,7,3.9c0.2,0,0.3,0,0.4,0c1.4-0.2,2.3-1.3,2.6-2.4	c0.2-0.8,0-1.5-0.5-1.9c-1.5-1.2-2.4-1.7-3.4-1.7c-0.2,0-0.3,0-0.5,0c-0.6,0.1-1,0.4-1.3,0.7C8.7,9.9,8,9.5,7.3,8.7	C6.5,7.9,6.1,7.3,5.9,6.8c0.4-0.4,0.8-1,0.7-1.9C6.6,4,5.7,2.7,5,1.7C4.7,1.3,4.2,1,3.6,1L3.6,1z"/></svg>