<svg xmlns="http://www.w3.org/2000/svg" viewBox="0 0 24 24"><style type="text/css">.st0{fill:#111111;}</style><g><path d="M0.8,7.5H15v5.2c0,0.3,0.2,0.6,0.4,0.7c0.3,0.1,0.6,0.1,0.8-0.1l7.5-6C23.9,7.2,24,7,24,6.8s-0.1-0.4-0.3-0.6l-7.5-6C16,0,15.7-0.1,15.4,0.1C15.2,0.2,15,0.5,15,0.8V6H0.8C0.3,6,0,6.3,0,6.8S0.3,7.5,0.8,7.5z M16.5,6.8V2.3L22,6.8l-5.5,4.4V6.8z"/><path d="M23.2,16.5H9v-5.2c0-0.3-0.2-0.6-0.4-0.7c-0.3-0.1-0.6-0.1-0.8,0.1l-7.5,6C0.1,16.8,0,17,0,17.2s0.1,0.4,0.3,0.6l7.5,6C8,24,8.3,24.1,8.6,23.9C8.8,23.8,9,23.5,9,23.2V18h14.2c0.4,0,0.8-0.3,0.8-0.8S23.7,16.5,23.2,16.5zM7.5,17.2v4.4L2,17.2l5.5-4.4V17.2z"/></g></svg>