<svg viewBox="0 0 16 16" xmlns="http://www.w3.org/2000/svg"><path d="M2 1H7V2H3V5.5H2V1Z"/><path d="M8.10083 9.00829C11.4282 9.00829 13.2431 9.91576 14.0498 10.4199C14.7556 10.924 15.1589 11.8315 15.058 12.4365C14.9572 13.0415 14.7556 13.4448 14.4531 13.6464C14.4531 13.6464 14.3522 13.6464 14.2514 13.6464C13.6464 13.6464 12.3357 13.2431 11.8315 13.0415C11.2265 12.739 11.1257 12.134 11.1257 11.8315C11.1257 11.529 11.2265 11.3274 10.924 11.1257C10.3191 10.8232 9.51244 10.7224 8.10083 10.7224C6.68922 10.7224 5.88259 10.8232 5.37844 11.2265C4.97512 11.529 5.17678 11.6299 5.07595 11.9323C5.07595 12.2348 4.97512 12.739 4.37015 13.1423C3.866 13.4448 2.55522 13.7473 1.95025 13.7473C1.84942 13.7473 1.74859 13.7473 1.74859 13.7473C1.4461 13.5456 1.14361 13.1423 1.04278 12.5373C0.941953 11.9323 1.34527 10.924 2.05107 10.5207C2.95854 9.91576 4.77346 9.00829 8.10083 9.00829ZM8.10083 8C4.67263 8 2.65605 8.90746 1.54693 9.61327C0.538636 10.3191 -0.167169 11.6299 0.0344895 12.6381C0.236148 13.8481 0.740294 14.3522 1.14361 14.5539C1.34527 14.6547 1.54693 14.7556 1.84942 14.7556C2.65605 14.7556 4.16849 14.3522 4.77346 13.9489C5.98341 13.4448 6.08424 12.4365 6.08424 12.134C6.08424 12.0332 6.08424 12.0332 6.08424 11.9323C6.48756 11.8315 7.09254 11.7307 8.10083 11.7307C9.10912 11.7307 9.7141 11.8315 10.0166 11.9323V12.0332C10.0166 12.3357 10.2182 13.4448 11.2265 13.9489C11.8315 14.2514 13.3439 14.7556 14.1506 14.7556C14.4531 14.7556 14.6547 14.6547 14.8564 14.5539C15.2597 14.3522 15.7639 13.8481 15.9655 12.6381C16.1672 11.529 15.4614 10.2182 14.4531 9.61327C13.4448 8.90746 11.4282 8 8.10083 8Z"/><path d="M7.98105 5.3444L12.6656 1.1283L13.3346 1.87159L8.01913 6.65549L2.68774 2.39038L3.31244 1.60951L7.98105 5.3444Z"/></svg>