<svg xmlns="http://www.w3.org/2000/svg" viewBox="0 0 24 24"><style type="text/css">.st0{fill:#000305;}</style><g><path d="M5.3,14.4l1.1-1.1C4.6,11.1,3.4,8.8,3,6.5C2.4,3.4,4.6,2.8,5.3,2.6c0.1,0,0.1,0,0.1,0c0.1-0.1,0.1-0.1,0.2-0.1c0,0,0.1,0,0.1,0c0.5,0,0.8,0.3,0.9,0.5c0.4,0.6,2.1,3,2.1,4S8.3,8.6,7.4,9.2c0,0,0.1,0.8,1,2.1l1.1-1.1c-0.1-0.2-0.2-0.3-0.3-0.5c0.6-0.6,1.2-1.5,1-2.8c0-1.3-1.3-3.5-2.4-5c-0.3-0.5-1-1-2.1-1c-0.2,0-0.5,0-0.6,0.2C2.3,1.8,0.9,3.9,1.5,6.8C2,9.2,3.2,11.7,5.3,14.4z"/><path d="M23,1c-0.3-0.3-0.8-0.3-1.1,0L1,22c-0.3,0.3-0.3,0.8,0,1.1c0.3,0.3,0.8,0.3,1.1,0l5.8-5.8c3.1,3.1,7.3,5.4,10,5.4h0.6c2.1-0.3,3.5-2,3.9-3.6c0.3-1.2,0-2.2-0.8-2.9c-2.2-1.8-3.6-2.5-5.1-2.5h-0.8c-0.9,0.2-1.5,0.6-2,1c-0.1,0-0.1-0.1-0.2-0.1l0,0c-0.4-0.3-1.1-0.7-1.8-1.4L23,2C23.3,1.7,23.3,1.3,23,1z M14.6,16.5c0,0,0.5-1.2,1.7-1.4h0.5c1,0,2.1,0.6,4.2,2.2c0.8,0.6-0.2,3.3-2.4,3.8H18c-2.3,0-6.1-2.1-9.1-5l1.9-1.9C12.8,16.1,14.6,16.5,14.6,16.5z"/></g></svg>