<svg viewBox="0 0 24 24" xmlns="http://www.w3.org/2000/svg"><path d="M22.5 5.25H18.75L16.2 1.35C15.9 1.05 15.45 0.75 15 0.75H9C8.55 0.75 8.1 1.05 7.8 1.35L5.25 5.25H1.5C0.6 5.25 0 5.85 0 6.75V21.75C0 22.65 0.6 23.25 1.5 23.25H22.5C23.4 23.25 24 22.65 24 21.75V6.75C24 5.85 23.4 5.25 22.5 5.25ZM16.5 14C16.5 16.4853 14.4853 18.5 12 18.5C9.51472 18.5 7.5 16.4853 7.5 14C7.5 11.5147 9.51472 9.5 12 9.5C14.4853 9.5 16.5 11.5147 16.5 14ZM18 14C18 17.3137 15.3137 20 12 20C8.68629 20 6 17.3137 6 14C6 10.6863 8.68629 8 12 8C15.3137 8 18 10.6863 18 14Z"/></svg>