<svg xmlns="http://www.w3.org/2000/svg" viewBox="0 0 24 25"><path fill="currentColor" fill-rule="evenodd" d="M23.7657 1.36569C24.0781 1.05327 24.0781 0.546734 23.7657 0.234315C23.4533 -0.0781049 22.9467 -0.0781049 22.6343 0.234315L0.234315 22.6343C-0.0781049 22.9467 -0.0781049 23.4533 0.234315 23.7657C0.546734 24.0781 1.05327 24.0781 1.36569 23.7657L11.6314 13.5H15.75C16.95 13.5 18 12.45 18 11.25V7.13137L23.7657 1.36569ZM16.5 8.63137L13.1314 12H15.75C16.2 12 16.5 11.7 16.5 11.25V8.63137Z" clip-rule="evenodd"/><path fill="currentColor" d="M15.75 0C16.6883 0 17.5349.641992 17.8595 1.49569L16.5 2.85523V2.25C16.5 1.8 16.2 1.5 15.75 1.5H2.25C1.8 1.5 1.5 1.8 1.5 2.25V11.25C1.5 11.7 1.8 12 2.25 12H5.25C5.7 12 6 12.3 6 12.75V13.3552L4.5 14.8552V13.5H2.25C1.05 13.5 0 12.45 0 11.25V2.25C0 1.05 1.05 0 2.25 0H15.75zM20.25 6C19.8 6 19.5 6.3 19.5 6.75 19.5 7.2 19.8 7.5 20.25 7.5H21.75C22.2 7.5 22.5 7.8 22.5 8.25V17.25C22.5 17.7 22.2 18 21.75 18H18.75C18.3 18 18 18.3 18 18.75V21.45L14.85 18.3C14.7 18.15 14.4 18 14.25 18H9.75C9.3 18 9 18.3 9 18.75 9 19.2 9.3 19.5 9.75 19.5H13.95L18.3 23.85C18.45 24 18.9 24.15 19.05 24 19.35 23.85 19.5 23.55 19.5 23.25V19.5H21.75C22.95 19.5 24 18.45 24 17.25V8.25C24 7.05 22.95 6 21.75 6H20.25z"/></svg>