<svg xmlns="http://www.w3.org/2000/svg" viewBox="0 0 24 25"><path fill="currentColor" d="M2.25 0C1.05 0 0 1.05 0 2.25V11.25C0 12.45 1.05 13.5 2.25 13.5H4.5V17.25C4.5 17.55 4.65 17.85 4.95 18C5.25 18.15 5.55 18 5.7 17.85L10.05 13.5H15.75C16.95 13.5 18 12.45 18 11.25V2.25C18 1.05 16.95 0 15.75 0H2.25ZM1.5 2.25C1.5 1.8 1.8 1.5 2.25 1.5H15.75C16.2 1.5 16.5 1.8 16.5 2.25V11.25C16.5 11.7 16.2 12 15.75 12H9.75C9.6 12 9.3 12.15 9.15 12.15L6 15.45V12.75C6 12.3 5.7 12 5.25 12H2.25C1.8 12 1.5 11.7 1.5 11.25V2.25ZM20.25 6C19.8 6 19.5 6.3 19.5 6.75C19.5 7.2 19.8 7.5 20.25 7.5H21.75C22.2 7.5 22.5 7.8 22.5 8.25V17.25C22.5 17.7 22.2 18 21.75 18H18.75C18.3 18 18 18.3 18 18.75V21.45L14.85 18.3C14.7 18.15 14.4 18 14.25 18H9.75C9.3 18 9 18.3 9 18.75C9 19.2 9.3 19.5 9.75 19.5H13.95L18.3 23.85C18.45 24 18.9 24.15 19.05 24C19.35 23.85 19.5 23.55 19.5 23.25V19.5H21.75C22.95 19.5 24 18.45 24 17.25V8.25C24 7.05 22.95 6 21.75 6H20.25Z"/></svg>