<svg viewBox="0 0 16 16" xmlns="http://www.w3.org/2000/svg"><path d="M6.5 0C2.99904 0 0 2.38141 0 5.5C0 6.58463 0.371868 7.58936 1 8.43222V12C1 12.1894 1.10701 12.3625 1.27641 12.4472C1.44581 12.5319 1.64852 12.5136 1.80002 12.4L4.15991 10.6298C4.88641 10.8681 5.67488 11 6.5 11C10.001 11 13 8.61859 13 5.5C13 2.38141 10.001 0 6.5 0ZM1 5.5C1 3.09659 3.37296 1 6.5 1C9.62704 1 12 3.09659 12 5.5C12 7.90341 9.62704 10 6.5 10C5.69484 10 4.93365 9.85574 4.24676 9.60116C4.08739 9.5421 3.90894 9.56803 3.77297 9.67002L2 10.9999V8.262C2 8.14881 1.96159 8.03897 1.89106 7.95044C1.32291 7.23732 1 6.39606 1 5.5ZM15.1121 6.22046C14.955 5.99339 14.6435 5.93672 14.4164 6.09387C14.1894 6.25102 14.1327 6.56249 14.2899 6.78955C14.7449 7.44705 15 8.20099 15 9C15 9.89701 14.6771 10.7373 14.1089 11.4504C14.0384 11.539 14 11.6488 14 11.762V14.5659L11.9923 13.2279C11.8642 13.1426 11.704 13.121 11.5579 13.1693C10.9209 13.3801 10.2279 13.5 9.49999 13.5C7.93613 13.5 6.53629 12.9651 5.54228 12.1226C5.33162 11.944 5.01611 11.9701 4.83757 12.1807C4.65902 12.3914 4.68505 12.7069 4.89571 12.8854C6.0797 13.8889 7.71186 14.5 9.49999 14.5C10.2493 14.5 10.9673 14.3896 11.6363 14.1924L14.2227 15.9161C14.3761 16.0183 14.5734 16.0278 14.736 15.9408C14.8985 15.8538 15 15.6844 15 15.5V11.9322C15.6281 11.0895 16 10.0856 16 9C16 7.98102 15.6731 7.03096 15.1121 6.22046Z"/></svg>