<svg viewBox="0 0 16 16" xmlns="http://www.w3.org/2000/svg"><path d="M5.5 0C5.22386 0 5 0.223858 5 0.5V2.5C5 2.77614 5.22386 3 5.5 3H11.5C11.7761 3 12 2.77614 12 2.5V0.5C12 0.223858 11.7761 0 11.5 0H5.5ZM11 2H6V1H11V2ZM2.14645 2.14645C2.24021 2.05268 2.36739 2 2.5 2H3.5C3.77614 2 4 1.77614 4 1.5C4 1.22386 3.77614 1 3.5 1H2.5C2.10218 1 1.72064 1.15804 1.43934 1.43934C1.15804 1.72064 1 2.10218 1 2.5V14.5C1 14.8978 1.15804 15.2794 1.43934 15.5607C1.72064 15.842 2.10217 16 2.5 16H14.5C14.8978 16 15.2794 15.842 15.5607 15.5607C15.842 15.2794 16 14.8978 16 14.5V2.5C16 2.10217 15.842 1.72064 15.5607 1.43934C15.2794 1.15804 14.8978 1 14.5 1H13.5C13.2239 1 13 1.22386 13 1.5C13 1.77614 13.2239 2 13.5 2H14.5C14.6326 2 14.7598 2.05268 14.8536 2.14645C14.9473 2.24021 15 2.36739 15 2.5V14.5C15 14.6326 14.9473 14.7598 14.8536 14.8536C14.7598 14.9473 14.6326 15 14.5 15H2.5C2.36739 15 2.24021 14.9473 2.14645 14.8536C2.05268 14.7598 2 14.6326 2 14.5V2.5C2 2.36739 2.05268 2.24021 2.14645 2.14645ZM8.5 6C8.77614 6 9 6.22386 9 6.5V9H11.5C11.7761 9 12 9.22386 12 9.5C12 9.77614 11.7761 10 11.5 10H9V12.5C9 12.7761 8.77614 13 8.5 13C8.22386 13 8 12.7761 8 12.5V10H5.5C5.22386 10 5 9.77614 5 9.5C5 9.22386 5.22386 9 5.5 9H8V6.5C8 6.22386 8.22386 6 8.5 6Z"/></svg>