<svg xmlns="http://www.w3.org/2000/svg" viewBox="0 0 16 16"><g><path d="M13.4,0.1c-0.2-0.2-0.5-0.2-0.7,0l-8,8C4.6,8.2,4.5,8.3,4.5,8.4l-1,3.5c0,0.2,0,0.4,0.1,0.5c0.1,0.1,0.3,0.2,0.5,0.1l3.5-1c0.1,0,0.2-0.1,0.2-0.1l8-8c0.2-0.2,0.2-0.5,0-0.7L13.4,0.1z M4.7,11.3l0.7-2.5L13,1.2L14.8,3l-7.6,7.6L4.7,11.3z M1,3.5C1,3.2,1.2,3,1.5,3h5C6.8,3,7,2.8,7,2.5S6.8,2,6.5,2h-5C0.7,2,0,2.7,0,3.5v11C0,15.3,0.7,16,1.5,16h11c0.8,0,1.5-0.7,1.5-1.5v-5C14,9.2,13.8,9,13.5,9S13,9.2,13,9.5v5c0,0.3-0.2,0.5-0.5,0.5h-11C1.2,15,1,14.8,1,14.5V3.5z"/></g></svg>