<svg viewBox="0 0 25 24" xmlns="http://www.w3.org/2000/svg"><path fill-rule="evenodd" clip-rule="evenodd" d="M9.25 2C9.25 1.58579 9.58579 1.25 10 1.25H14.5C14.9142 1.25 15.25 1.58579 15.25 2V6.5C15.25 6.91421 14.9142 7.25 14.5 7.25H10C9.58579 7.25 9.25 6.91421 9.25 6.5V2ZM10.75 2.75V5.75H13.75V2.75H10.75ZM8.88587 8.85688C9.24106 9.06999 9.35623 9.53069 9.14312 9.88587L5.32464 16.25H7C7.41421 16.25 7.75 16.5858 7.75 17V23C7.75 23.4142 7.41421 23.75 7 23.75H1C0.585786 23.75 0.25 23.4142 0.25 23V17C0.25 16.5858 0.585786 16.25 1 16.25H3.57536L7.85688 9.11413C8.06999 8.75894 8.53069 8.64377 8.88587 8.85688ZM3.98625 17.75H1.75V22.25H6.25V17.75H4.01233C4.00365 17.7502 3.99495 17.7502 3.98625 17.75ZM15.6141 8.85688C15.9693 8.64377 16.43 8.75894 16.6431 9.11413L20.9246 16.25H23.5C23.9142 16.25 24.25 16.5858 24.25 17V23C24.25 23.4142 23.9142 23.75 23.5 23.75H17.5C17.0858 23.75 16.75 23.4142 16.75 23V17C16.75 16.5858 17.0858 16.25 17.5 16.25H19.1754L15.3569 9.88587C15.1438 9.53069 15.2589 9.06999 15.6141 8.85688ZM20.4877 17.75H18.25V22.25H22.75V17.75H20.5138C20.5051 17.7502 20.4964 17.7502 20.4877 17.75Z"/></svg>