<svg viewBox="0 0 24 24" xmlns="http://www.w3.org/2000/svg"><path d="M0.75 0C0.335787 0 0 0.335787 0 0.75V17.25C0 17.6642 0.335787 18 0.75 18H17.25C17.6642 18 18 17.6642 18 17.25V0.75C18 0.335787 17.6642 0 17.25 0H0.75ZM1.5 16.5V1.5H16.5V16.5H1.5ZM20.25 6C19.8358 6 19.5 6.33579 19.5 6.75C19.5 7.16421 19.8358 7.5 20.25 7.5H22.5V22.5H7.5V20.25C7.5 19.8358 7.16421 19.5 6.75 19.5C6.33579 19.5 6 19.8358 6 20.25V23.25C6 23.6642 6.33579 24 6.75 24H23.25C23.6642 24 24 23.6642 24 23.25V6.75C24 6.33579 23.6642 6 23.25 6H20.25Z"/></svg>