<svg viewBox="0 0 24 24" xmlns="http://www.w3.org/2000/svg"><path d="M17.7429 6.25714C17.4 5.91429 16.8857 5.91429 16.5429 6.25714L12 10.8L7.45714 6.25714C7.11429 5.91429 6.6 5.91429 6.25714 6.25714C5.91429 6.6 5.91429 7.11429 6.25714 7.45714L10.8 12L6.25714 16.5429C5.91429 16.8857 5.91429 17.4 6.25714 17.7429C6.42857 17.9143 6.6 18 6.85714 18C7.11429 18 7.28571 17.9143 7.45714 17.7429L12 13.2L16.5429 17.7429C16.7143 17.9143 16.9714 18 17.1429 18C17.3143 18 17.5714 17.9143 17.7429 17.7429C18.0857 17.4 18.0857 16.8857 17.7429 16.5429L13.2 12L17.7429 7.45714C18.0857 7.11429 18.0857 6.6 17.7429 6.25714Z"/></svg>