<svg xmlns="http://www.w3.org/2000/svg" viewBox="0 0 24 24"><path d="M21.2,5.3H2.8C2.3,5.3,2,5,2,4.6s0.3-0.8,0.7-0.8c0,0,0,0,0.1,0h18.5c0.4,0,0.8,0.3,0.8,0.7S21.7,5.3,21.2,5.3	C21.3,5.3,21.3,5.3,21.2,5.3z M21.2,15.1H2.8c-0.4,0-0.8-0.3-0.8-0.7s0.3-0.8,0.7-0.8c0,0,0,0,0.1,0h18.5c0.4,0,0.8,0.3,0.8,0.7	S21.7,15.1,21.2,15.1C21.3,15.1,21.3,15.1,21.2,15.1z M21.2,10.2H2.8C2.3,10.2,2,9.9,2,9.4C2,9,2.3,8.7,2.8,8.7c0,0,0,0,0,0h18.5	C21.7,8.7,22,9,22,9.4C22,9.9,21.7,10.2,21.2,10.2C21.2,10.2,21.2,10.2,21.2,10.2z M21.2,20H2.8C2.3,20,2,19.6,2,19.2	c0-0.4,0.3-0.8,0.8-0.8c0,0,0,0,0,0h18.5c0.4,0,0.8,0.3,0.8,0.8C22,19.6,21.7,20,21.2,20C21.2,20,21.2,20,21.2,20z"/></svg>