<svg xmlns="http://www.w3.org/2000/svg" viewBox="0 0 24 24"><g><ellipse cx="13.6" cy="16.3" rx="1.1" ry="1.1"/><ellipse cx="13.6" cy="13.2" rx="1.1" ry="1.1"/><ellipse cx="10.5" cy="13.2" rx="1.1" ry="1.1"/><ellipse cx="10.5" cy="16.3" rx="1.1" ry="1.1"/><path d="M8.5,20.6h7.1c0.9,0,1.6-0.7,1.6-1.7V2.4c0-0.9-0.7-1.7-1.6-1.7H8.5c-0.9,0-1.6,0.7-1.6,1.7v16.5C6.9,19.8,7.6,20.6,8.5,20.6z M8.2,2.4c0-0.2,0.2-0.4,0.3-0.4h7.1c0.2,0,0.3,0.2,0.3,0.4v16.5c0,0.2-0.2,0.4-0.3,0.4H8.5c-0.2,0-0.3-0.2-0.3-0.4V2.4z"/><path d="M14.9,4H9.3v6.4h5.6V4z M13.6,9.1h-3V5.3h3V9.1z"/><path d="M20.1,11.4c-0.2-0.4-0.5-0.9-0.8-1.3C19,9.8,18.6,9.7,18.3,10c-0.3,0.2-0.4,0.6-0.1,0.9c0.3,0.4,0.6,0.9,0.8,1.3l0.1,0.3l0.3,0.1c2,0.7,3.3,2.5,3.3,4.6c0,2.7-2.2,4.8-4.9,4.8l-6.6,0l-6.1,0c-2.1,0-3.8-1.7-3.8-3.8c0-1.7,1.1-3.1,2.7-3.6l0.4-0.1L4.5,14c0.2-1.2,0.8-2.4,1.5-3.3c0.2-0.3,0.2-0.7-0.1-0.9C5.6,9.5,5.2,9.6,5,9.9c-0.8,1-1.4,2.2-1.7,3.5C1.3,14.1,0,16,0,18.1c0,2.8,2.3,5.1,5.2,5.1h0l12.6,0c3.4,0,6.2-2.7,6.2-6.1C24,14.5,22.4,12.3,20.1,11.4z"/></g></svg>