<svg viewBox="0 0 16 16" xmlns="http://www.w3.org/2000/svg"><path d="M0 2.5C0 2.22386 0.223858 2 0.5 2H8.5C8.77614 2 9 2.22386 9 2.5C9 2.77614 8.77614 3 8.5 3H0.5C0.223858 3 0 2.77614 0 2.5ZM11.6464 4.64645C11.8417 4.45118 12.1583 4.45118 12.3536 4.64645L15.8536 8.14645C16.0488 8.34171 16.0488 8.65829 15.8536 8.85355L12.3536 12.3536C12.1583 12.5488 11.8417 12.5488 11.6464 12.3536C11.4512 12.1583 11.4512 11.8417 11.6464 11.6464L14.2929 9H0.5C0.223858 9 0 8.77614 0 8.5C0 8.22386 0.223858 8 0.5 8H14.2929L11.6464 5.35355C11.4512 5.15829 11.4512 4.84171 11.6464 4.64645ZM0 14.5C0 14.2239 0.223858 14 0.5 14H8.5C8.77614 14 9 14.2239 9 14.5C9 14.7761 8.77614 15 8.5 15H0.5C0.223858 15 0 14.7761 0 14.5Z"/></svg>