<svg xmlns="http://www.w3.org/2000/svg" viewBox="0 0 16 16"><g><g><path d="M15.8,0.2c0.2,0.2,0.2,0.6,0,0.8l-5.7,5.7c-0.2,0.2-0.6,0.2-0.8,0c-0.2-0.2-0.2-0.6,0-0.8L15,0.2C15.2-0.1,15.6-0.1,15.8,0.2z"/><path d="M6.7,9.3c0.2,0.2,0.2,0.6,0,0.8L1,15.8c-0.2,0.2-0.6,0.2-0.8,0c-0.2-0.2-0.2-0.6,0-0.8l5.7-5.7C6.1,9.1,6.5,9.1,6.7,9.3z"/><path d="M8,0.6C8,0.3,8.3,0,8.6,0h6.9C15.7,0,16,0.3,16,0.6v6.9C16,7.7,15.7,8,15.4,8c-0.3,0-0.6-0.3-0.6-0.6V1.1H8.6C8.3,1.1,8,0.9,8,0.6z"/><path d="M0.6,8c0.3,0,0.6,0.3,0.6,0.6v6.3h6.3c0.3,0,0.6,0.3,0.6,0.6C8,15.7,7.7,16,7.4,16H0.6C0.3,16,0,15.7,0,15.4V8.6C0,8.3,0.3,8,0.6,8z"/></g></g></svg>