<svg xmlns="http://www.w3.org/2000/svg" viewBox="0 0 24 24"><g><path d="M0.2,11.7c-0.1,0.2-0.1,0.4,0,0.6c0,0,1,1.7,3,4.2l1.1-1.1C3,13.8,2.3,13,1.7,12c0,0,0.9-1.6,2.9-3.6S9,4.5,12,4.5c0.9,0,1.8,0.2,2.7,0.5l1.2-1.2C14.7,3.3,13.4,3,12,3C8.3,3,3.7,5.3,0.2,11.7z"/><path d="M23.7,11.2c-0.2-0.3-1-1.4-1.2-1.7c0,0-1.1-1.4-1.8-2.2c-0.5-0.5-1-1-1.5-1.5L23,2c0.3-0.3,0.3-0.8,0-1.1c-0.3-0.3-0.8-0.3-1.1,0L1,22c-0.3,0.3-0.3,0.8,0,1.1c0.3,0.3,0.8,0.3,1.1,0l4-4c1.7,1.1,3.7,2,6,2c3.8,0,6.8-2.2,8.7-4.3c1-1.1,1.8-2.1,2.4-3c0.6-1.1,0.8-1.4,0.8-1.4l0,0C24,12.1,23.9,11.6,23.7,11.2z M14.6,10.5c0.3,0.4,0.4,1,0.4,1.5c0,1.7-1.3,3-3,3c-0.6,0-1.1-0.2-1.5-0.4L14.6,10.5z M22.4,12c-0.1,0.2-0.5,0.7-0.5,0.7v0l0,0c0,0-0.6,1-2.4,2.9S15,19.5,12,19.5c-1.7,0-3.4-0.7-4.8-1.6l2.2-2.2c0.7,0.5,1.6,0.8,2.6,0.8c2.5,0,4.5-2,4.5-4.5c0-1-0.3-1.9-0.8-2.6L18.1,7c0.6,0.5,1,0.8,1.6,1.4C21.2,10,22.4,12,22.4,12z"/><path d="M7.5,12c0,0,0,0.1,0,0.1l4.6-4.6c0,0-0.1,0-0.1,0C9.5,7.5,7.5,9.5,7.5,12z"/></g></svg>