<svg xmlns="http://www.w3.org/2000/svg" viewBox="0 0 16 16"><g><path d="M15.9,7.8L15.9,7.8L15.9,7.8L15.9,7.8C15.9,7.7,15.9,7.7,15.9,7.8c-0.1-0.1-0.1-0.2-0.1-0.3c-0.1-0.2-0.2-0.4-0.4-0.6c-0.4-0.5-0.9-1.2-1.6-2C12.5,3.5,10.5,2,8,2S3.5,3.5,2.2,4.9C1.5,5.6,1,6.3,0.6,6.9C0.4,7.1,0.3,7.3,0.2,7.5c0,0.1-0.1,0.1-0.1,0.2c0,0,0,0,0,0.1l0,0l0,0l0,0l0,0c0,0,0,0,0.2,0.1L0.1,7.8C0,7.9,0,8.1,0.1,8.2l0.2-0.1C0.1,8.2,0.1,8.2,0.1,8.2l0,0l0,0l0,0l0,0c0,0,0,0,0,0.1c0,0,0.1,0.1,0.1,0.2c0.1,0.2,0.2,0.4,0.4,0.6c0.4,0.5,0.9,1.2,1.6,2C3.5,12.5,5.5,14,8,14s4.5-1.5,5.8-2.9c0.7-0.7,1.2-1.4,1.6-2c0.2-0.3,0.3-0.5,0.4-0.6c0-0.1,0.1-0.1,0.1-0.2c0,0,0,0,0-0.1l0,0l0,0l0,0l0,0c0,0,0,0-0.4-0.2C15.9,7.8,15.9,7.8,15.9,7.8L15.9,7.8z M14.5,8.6c-0.3,0.5-0.8,1.2-1.5,1.8C11.8,11.7,10,13,8,13s-3.8-1.3-5.1-2.6C2.3,9.7,1.8,9.1,1.5,8.6C1.3,8.3,1.2,8.1,1.1,8c0.1-0.1,0.2-0.3,0.4-0.6c0.3-0.5,0.8-1.2,1.5-1.8C4.2,4.3,6,3,8,3s3.8,1.3,5.1,2.6c0.6,0.7,1.1,1.3,1.5,1.8c0.2,0.2,0.3,0.4,0.4,0.6C14.8,8.1,14.7,8.3,14.5,8.6z"/><path d="M15.9,7.8L15.5,8l0.4,0.2C16,8.1,16,7.9,15.9,7.8z"/><path d="M8,5C6.3,5,5,6.3,5,8s1.3,3,3,3s3-1.3,3-3S9.7,5,8,5z M8,10c-1.1,0-2-0.9-2-2s0.9-2,2-2s2,0.9,2,2S9.1,10,8,10z"/></g></svg>