<svg xmlns="http://www.w3.org/2000/svg" viewBox="0 0 24 24"><g><path d="M0,2.2v1.5h3v18h11.6l6.2-6.2l0,0l0,0l0,0l0.2-0.2V3.8h3V2.2H0z M15,19.2v-3.4h3.4L15,19.2z M19.5,14.2h-6v6h-9V3.8h15V14.2z"/><path d="M10.2,10.5h1.5c0.4,0,0.8-0.3,0.8-0.8S12.1,9,11.7,9h-0.8V8.2c0-0.4-0.3-0.8-0.8-0.8c-0.4,0-0.8,0.3-0.8,0.8v1.5C9.4,10.2,9.8,10.5,10.2,10.5z"/><path d="M10.5,13.9c2.5,0,4.5-2,4.5-4.5s-2-4.5-4.5-4.5S6,7,6,9.4S8,13.9,10.5,13.9z M10.5,6.4c1.7,0,3,1.3,3,3c0,1.7-1.3,3-3,3c-1.7,0-3-1.3-3-3C7.5,7.8,8.8,6.4,10.5,6.4z"/></g></svg>