<svg viewBox="0 0 16 16" xmlns="http://www.w3.org/2000/svg"><path d="M3 0.5C3 0.223858 3.22386 0 3.5 0H12.5C12.7761 0 13 0.223858 13 0.5V3.5C13 3.77614 12.7761 4 12.5 4C12.2239 4 12 3.77614 12 3.5V1H4V3.5C4 3.77614 3.77614 4 3.5 4C3.22386 4 3 3.77614 3 3.5V0.5Z"/><path d="M0 5.5C0 5.22386 0.223858 5 0.5 5H15.5C15.7761 5 16 5.22386 16 5.5V12.5C16 12.7761 15.7761 13 15.5 13H12.5C12.2239 13 12 12.7761 12 12.5C12 12.2239 12.2239 12 12.5 12H15V6H1V12H3.5C3.77614 12 4 12.2239 4 12.5C4 12.7761 3.77614 13 3.5 13H0.5C0.223858 13 0 12.7761 0 12.5V5.5Z"/><path d="M3 9.5C3 9.22386 3.22386 9 3.5 9H12.5C12.7761 9 13 9.22386 13 9.5V15.5C13 15.7761 12.7761 16 12.5 16H3.5C3.22386 16 3 15.7761 3 15.5V9.5ZM4 10V15H12V10H4Z"/></svg>