<svg xmlns="http://www.w3.org/2000/svg" viewBox="0 0 24 24"><g><path d="M5.7,15.3c0-1.9-0.9-3.1-2.6-3.1H0.8v6.3H3C4.8,18.5,5.7,17.2,5.7,15.3z M1.9,17.4v-4.2h1c1.1,0,1.6,0.7,1.6,2.1c0,1.4-0.5,2.1-1.6,2.1H1.9z"/><path d="M12,15.3c0-2-0.8-3.3-2.6-3.3c-1.8,0-2.7,1.3-2.7,3.3c0,2,0.8,3.3,2.7,3.3C11.1,18.6,12,17.4,12,15.3z M7.8,15.3c0-1.4,0.5-2.3,1.5-2.3c1.1,0,1.5,0.9,1.5,2.3c0,1.4-0.5,2.3-1.5,2.3C8.2,17.6,7.8,16.7,7.8,15.3z"/><path d="M15.7,13.1c0.8,0,1.2,0.4,1.3,1.2l1.1-0.2c-0.2-1.3-1.1-2-2.4-2c-1.9,0-2.8,1.3-2.8,3.3c0,2,0.9,3.3,2.7,3.3c1.4,0,2.3-0.8,2.5-2.2L17,16.3c-0.1,0.8-0.6,1.3-1.4,1.3c-1.2,0-1.6-1-1.6-2.3C14,14,14.5,13.1,15.7,13.1z"/><path d="M22.3,7.7l-7.5-7.5C14.6,0.1,14.4,0,14.2,0h-12C1.8,0,1.5,0.3,1.5,0.8V10H3V1.5h10.5v6.8c0,0.4,0.3,0.8,0.8,0.8H21v13.5H3V21H1.5v2.2c0,0.4,0.3,0.8,0.8,0.8h19.5c0.4,0,0.8-0.3,0.8-0.8v-15C22.5,8.1,22.4,7.9,22.3,7.7z M15,7.5V2.6l4.9,4.9H15z"/></g></svg>