<svg xmlns="http://www.w3.org/2000/svg" viewBox="0 0 16 16"><g><path d="M2.5,15H1V1h12v7c0,0.3,0.2,0.5,0.5,0.5S14,8.3,14,8V0.5C14,0.2,13.8,0,13.5,0h-13C0.2,0,0,0.2,0,0.5v15C0,15.8,0.2,16,0.5,16h2C2.8,16,3,15.8,3,15.5S2.8,15,2.5,15z"/><path d="M11,3.5C11,3.2,10.8,3,10.5,3h-7C3.2,3,3,3.2,3,3.5S3.2,4,3.5,4h7C10.8,4,11,3.8,11,3.5z"/><path d="M3.5,6C3.2,6,3,6.2,3,6.5C3,6.8,3.2,7,3.5,7H9c0.3,0,0.5-0.2,0.5-0.5C9.5,6.2,9.3,6,9,6H3.5z"/><path d="M5.5,9.5C5.5,9.2,5.3,9,5,9H3.5C3.2,9,3,9.2,3,9.5S3.2,10,3.5,10H5C5.3,10,5.5,9.8,5.5,9.5z"/><path d="M13.5,11c-1.4,0-2.5,1.1-2.5,2.5c0,0.6,0.2,1.1,0.5,1.5h-2c0.3-0.4,0.5-0.9,0.5-1.5c0-1.4-1.1-2.5-2.5-2.5S5,12.1,5,13.5S6.1,16,7.5,16h6c1.4,0,2.5-1.1,2.5-2.5S14.9,11,13.5,11z M7.5,15C6.7,15,6,14.3,6,13.5C6,12.7,6.7,12,7.5,12S9,12.7,9,13.5C9,14.3,8.3,15,7.5,15z M13.5,15c-0.8,0-1.5-0.7-1.5-1.5c0-0.8,0.7-1.5,1.5-1.5c0.8,0,1.5,0.7,1.5,1.5C15,14.3,14.3,15,13.5,15z"/></g></svg>