<svg viewBox="0 0 24 24" xmlns="http://www.w3.org/2000/svg"><path d="M2.99988 0H20.9999C21.2651 0 21.5194 0.105357 21.707 0.292893C21.8945 0.48043 21.9999 0.734784 21.9999 1V23C21.9999 23.2652 21.8945 23.5196 21.707 23.7071C21.5194 23.8946 21.2651 24 20.9999 24H2.99988C2.73466 24 2.48031 23.8946 2.29277 23.7071C2.10523 23.5196 1.99988 23.2652 1.99988 23V1C1.99988 0.734784 2.10523 0.48043 2.29277 0.292893C2.48031 0.105357 2.73466 0 2.99988 0ZM13.125 7.64178V5.25H10.8749V7.64183C10.4621 7.74809 10.0722 7.91145 9.7142 8.123L8.02204 6.43086L6.43103 8.02184L8.12314 9.71392C7.91149 10.0721 7.74806 10.4621 7.64177 10.875H5.25V13.125H7.64177C7.74805 13.5379 7.91147 13.9279 8.12309 14.286L6.43103 15.978L8.02204 17.569L9.71411 15.877C10.0722 16.0886 10.4621 16.2519 10.875 16.3582V18.75H13.125V16.3582C13.5379 16.252 13.9278 16.0886 14.2859 15.877L15.9779 17.569L17.5689 15.9781L15.877 14.2861C16.0886 13.928 16.252 13.538 16.3583 13.125H18.75V10.875H16.3583C16.252 10.462 16.0886 10.072 15.8769 9.71385L17.5689 8.02184L15.9779 6.43086L14.2858 8.12296C13.9277 7.9114 13.5378 7.74803 13.125 7.64178ZM10.4392 10.3795L10.3795 10.4392C9.9919 10.8415 9.75273 11.3877 9.75005 11.9898V12.0103C9.75273 12.6105 9.99047 13.1553 10.376 13.5572L10.4428 13.6241C10.847 14.0118 11.3957 14.25 12 14.25C12.6031 14.25 13.1507 14.0128 13.5546 13.6266L13.6267 13.5546C14.0091 13.1546 14.2454 12.6138 14.25 12.0178V11.9823C14.2454 11.3846 14.0078 10.8425 13.6235 10.4421L13.5579 10.3766C13.1537 9.98853 12.6047 9.75003 12 9.75003C11.3939 9.75003 10.8438 9.9897 10.4392 10.3795Z"/></svg>