<svg xmlns="http://www.w3.org/2000/svg" viewBox="0 0 24 24"><g><path d="M22.3,7.7l-7.5-7.5C14.6,0.1,14.4,0,14.2,0h-12C1.8,0,1.5,0.3,1.5,0.8V10H3V1.5h10.5v6.8c0,0.4,0.3,0.8,0.8,0.8H21v13.5H3V21H1.5v2.2c0,0.4,0.3,0.8,0.8,0.8h19.5c0.4,0,0.8-0.3,0.8-0.8v-15C22.5,8.1,22.4,7.9,22.3,7.7z M15,7.5V2.6l4.9,4.9H15z"/><path d="M14.5,17.7c-0.8,0-1.4-0.5-1.5-1.2L12,16.6c0.1,1.3,1.2,2,2.6,2c1.4,0,2.2-0.8,2.2-2c0-1.4-1.1-1.6-2.1-1.8l0,0c-0.8-0.2-1.5-0.3-1.5-1c0-0.6,0.5-0.8,1.1-0.8c0.8,0,1.2,0.4,1.3,1.1l1.1-0.2c-0.1-1.2-1-1.9-2.4-1.9C13,12.1,12,12.7,12,14c0,1.4,1.1,1.6,2.1,1.8l0,0c0.8,0.2,1.5,0.3,1.5,1C15.6,17.3,15.2,17.7,14.5,17.7z"/><polygon points="1.7,18.5 3,16.2 4.3,18.5 5.6,18.5 3.7,15.3 5.5,12.2 4.2,12.2 3,14.3 1.8,12.2 0.5,12.2 2.3,15.3 0.4,18.5 	"/><polygon points="6.8,12.2 6.8,18.5 11.2,18.5 11.2,17.4 7.9,17.4 7.9,12.2 	"/></g></svg>