<svg viewBox="0 0 16 16" xmlns="http://www.w3.org/2000/svg"><path d="M4 3.5C4 3.22386 4.22386 3 4.5 3H11.5C11.7761 3 12 3.22386 12 3.5C12 3.77614 11.7761 4 11.5 4H4.5C4.22386 4 4 3.77614 4 3.5Z"/><path d="M4 6.5C4 6.22386 4.22386 6 4.5 6H8.5C8.77614 6 9 6.22386 9 6.5C9 6.77614 8.77614 7 8.5 7H4.5C4.22386 7 4 6.77614 4 6.5Z"/><path d="M4 9.5C4 9.22386 4.22386 9 4.5 9H6C6.27614 9 6.5 9.22386 6.5 9.5C6.5 9.77614 6.27614 10 6 10H4.5C4.22386 10 4 9.77614 4 9.5Z"/><path d="M1 0.5C1 0.223858 1.22386 0 1.5 0H14.5C14.7761 0 15 0.223858 15 0.5V4.40909H14V1H2V15H4.6V16H1.5C1.22386 16 1 15.7761 1 15.5V0.5Z"/><path d="M12.6667 5.95947L15.3738 8.66658L9.58897 14.4514L5.97949 15.3538L6.88186 11.7443L12.6667 5.95947ZM7.78483 12.2555L7.35386 13.9794L9.07772 13.5484L13.9596 8.66658L12.6667 7.37369L7.78483 12.2555Z"/></svg>