<svg xmlns="http://www.w3.org/2000/svg" viewBox="0 0 16 16"><g><path d="M4.5,6h2C6.8,6,7,5.8,7,5.5S6.8,5,6.5,5h-2C4.2,5,4,5.2,4,5.5S4.2,6,4.5,6z"/><path d="M11.5,8h-7C4.2,8,4,8.2,4,8.5S4.2,9,4.5,9h7C11.8,9,12,8.8,12,8.5S11.8,8,11.5,8z"/><path d="M11.5,11h-7C4.2,11,4,11.2,4,11.5S4.2,12,4.5,12h7c0.3,0,0.5-0.2,0.5-0.5S11.8,11,11.5,11z"/><path d="M15,5.3c0-0.1-0.1-0.1-0.1-0.2l-5-5c0,0-0.1-0.1-0.2-0.1C9.6,0,9.6,0,9.5,0h-8C1.2,0,1,0.2,1,0.5v15C1,15.8,1.2,16,1.5,16h13c0.3,0,0.5-0.2,0.5-0.5v-10C15,5.4,15,5.4,15,5.3z M10,1.7L13.3,5H10V1.7z M2,15V1h7v4.5C9,5.8,9.2,6,9.5,6H14v9H2z"/></g></svg>