<svg viewBox="0 0 24 24" xmlns="http://www.w3.org/2000/svg"><path fill-rule="evenodd" clip-rule="evenodd" d="M22.5 9H13.5V0H3C2.1 0 1.5 0.6 1.5 1.5V22.5C1.5 23.4 2.1 24 3 24H21C21.9 24 22.5 23.4 22.5 22.5V9ZM16.5 0V6H22.5L16.5 0ZM10.082 19.3736H5.5V18.308L8.16393 14.5785H5.5V13.2998H10.082V14.2588L7.41803 17.9883H10.082V19.3736ZM12.7459 19.3736H11.041V13.2998H12.7459V19.3736ZM17.8607 16.8162C17.4344 17.1359 16.9016 17.349 16.1557 17.349H15.7295V19.3736H14.1311V13.2998H16.2623C17.0082 13.2998 17.6475 13.5129 17.9672 13.8326C18.2869 14.1523 18.5 14.6851 18.5 15.2178C18.5 15.8572 18.2869 16.39 17.8607 16.8162ZM16.1557 14.5785H15.7295V15.9637H16.0492C16.2623 15.9637 16.4754 15.8572 16.6885 15.7506C16.9016 15.6441 16.9016 15.4309 16.9016 15.2178C16.7951 14.7916 16.582 14.5785 16.1557 14.5785Z"/></svg>