<svg xmlns="http://www.w3.org/2000/svg" viewBox="0 0 512 512"><path style="fill:#F5F5F5;" d="M503.2,423.6H8.8c-4.9,0-8.8-4-8.8-8.8V97c0-4.9,4-8.8,8.8-8.8h494.3c4.9,0,8.8,4,8.8,8.8v317.8	C512,419.7,508,423.6,503.2,423.6z"/><path style="fill:#D57800;" d="M134,224.8c0,0,9.8,14.8,18.4,10.9s12.5-17.1,20.8-20.6s24.9,9,33.1,5.1s6.3-35.5,6.3-35.5	s41.9,15.2,78,8.1S412.3,145,412.3,145l-1.3,6.8c0,0-76.3,42.9-79.4,56s22,38.7,22,38.7s-40.6-6.3-48.5-1s-3.8,16.6-10.1,21.6	c-6.3,4.9-27.5,15-37.3,15.6c-9.7,0.6-23.1-3.6-30.8,5.1c-7.8,8.7-0.6,14-0.6,14l-11.7-0.9c0,0,1.3-8-5.9-12.2	c-7.3-4.2-16.5,2.5-24.4,1.6s-32.9-10.3-42.1-31.4C133.1,237.8,134,224.8,134,224.8z"/><g><path style="fill:#4E5B31;" d="M256.1,379.8c-0.1,0-0.2,0-0.2,0c-25.3-0.1-51.7-17.8-78.7-41.3c-19.5-17.1-31.9-34-32.5-34.7c-3.1-4.2-2.1-10.1,2.1-13.1c4.2-3.1,10.1-2.1,13.1,2.1l0,0c0.5,0.6,46.2,56.8,96,56.9c0.1,0,0.1,0,0.2,0c14.2,0,37.1,0.3,66.2-25.2c18-15.8,29.6-31.6,29.7-31.7c3.1-4.2,8.9-5.1,13.1-2.1c4.2,3.1,5.1,8.9,2.1,13.1C365.2,306.7,315.4,379.8,256.1,379.8z"/></g></svg>