<svg xmlns="http://www.w3.org/2000/svg" viewBox="0 0 512 512"><path style="fill:#FF4B55;" d="M503.2,423.7H8.8c-4.9,0-8.8-4-8.8-8.8V97.1c0-4.9,4-8.8,8.8-8.8h494.3c4.9,0,8.8,4,8.8,8.8v317.8	C512,419.8,508,423.7,503.2,423.7z"/><g><path style="fill:#F5F5F5;" d="M8.8,88.3c-2.4,0-4.5,1-6.1,2.5l359.2,332.9h26.5L26.5,88.3H8.8z"/><path style="fill:#F5F5F5;" d="M150.1,88.3h-26.5l361.9,335.4h17.7c2.4,0,4.5-1,6.1-2.5L150.1,88.3z"/></g><polygon style="fill:#464655;" points="26.5,88.3 388.4,423.7 485.5,423.7 123.6,88.3 "/></svg>