<svg xmlns="http://www.w3.org/2000/svg" viewBox="0 0 512 512"><path style="fill:#41479B;" d="M503.2,423.7H8.8c-4.9,0-8.8-4-8.8-8.8V97.1c0-4.9,4-8.8,8.8-8.8h494.3c4.9,0,8.8,4,8.8,8.8v317.8	C512,419.8,508,423.7,503.2,423.7z"/><path style="fill:#F5F5F5;" d="M512,97.1c0-4.9-4-8.8-8.8-8.8h-39.5L300.1,195.4V88.3h-88.3v107.1L48.3,88.3H8.8	c-4.9,0-8.8,4-8.8,8.8v22.8l140.3,91.9H0v88.3h140.3L0,392.1v22.8c0,4.9,4,8.8,8.8,8.8h39.5l163.5-107.1v107.1h88.3V316.6	l163.5,107.1h39.5c4.9,0,8.8-4,8.8-8.8v-22.8l-140.3-91.9H512v-88.3H371.7L512,119.9V97.1z"/><g><polygon style="fill:#FF4B55;" points="512,229.5 282.5,229.5 282.5,88.3 229.5,88.3 229.5,229.5 0,229.5 0,282.5 229.5,282.5 
		229.5,423.7 282.5,423.7 282.5,282.5 512,282.5 	"/><path style="fill:#FF4B55;" d="M178.9,300.1L0.2,416.1c0.6,4.3,4.1,7.6,8.6,7.6H21l190.4-123.6L178.9,300.1L178.9,300.1z"/><path style="fill:#FF4B55;" d="M346.4,300.1H314l190.1,123.4c4.4-0.5,7.9-4.1,7.9-8.6v-7.3L346.4,300.1z"/><path style="fill:#FF4B55;" d="M0,106.8l161.8,105h32.4L5.1,89.1c-3,1.4-5.1,4.4-5.1,8V106.8z"/><path style="fill:#FF4B55;" d="M332.6,211.9L511.7,95.6c-0.7-4.1-4.2-7.3-8.5-7.3h-12.6L300.1,211.9H332.6z"/></g></svg>