<svg xmlns="http://www.w3.org/2000/svg" viewBox="0 0 512 512"><path style="fill:#FF4B55;" d="M512,256H0V97.1c0-4.9,4-8.8,8.8-8.8h494.3c4.9,0,8.8,4,8.8,8.8L512,256L512,256z"/><g><path style="fill:#F5F5F5;" d="M0,256h512v158.9c0,4.9-4,8.8-8.8,8.8H8.8c-4.9,0-8.8-4-8.8-8.8V256z"/><path style="fill:#F5F5F5;" d="M72.6,172.3c0-29,21.3-53.1,49.1-57.5c1.5-0.2,1.6-2.3,0.1-2.7c-6.9-1.6-14.2-2-21.8-1c-30,4.1-53.2,30-53.6,60.3c-0.5,34.6,27.4,62.7,61.8,62.7c4.7,0,9.2-0.5,13.6-1.6c1.5-0.3,1.4-2.4-0.1-2.7C93.9,225.4,72.6,201.4,72.6,172.3z"/><path style="fill:#F5F5F5;" d="M122.1,187.8l-2.6,7.8l-8.3,0.1c-1.1,0-1.5,1.4-0.7,2l6.6,4.9l-2.5,7.9c-0.3,1,0.8,1.9,1.7,1.2l6.7-4.8l6.7,4.8c0.9,0.6,2-0.2,1.7-1.2l-2.5-7.9l6.6-4.9c0.9-0.6,0.4-2-0.7-2l-8.3-0.1l-2.6-7.8C123.9,186.8,122.5,186.8,122.1,187.8z"/><path style="fill:#F5F5F5;" d="M163,187.8l-2.6,7.8l-8.3,0.1c-1.1,0-1.5,1.4-0.7,2l6.6,4.9l-2.5,7.9c-0.3,1,0.8,1.9,1.7,1.2l6.7-4.8l6.7,4.8c0.9,0.6,2-0.2,1.7-1.2l-2.5-7.9l6.6-4.9c0.9-0.6,0.4-2-0.7-2l-8.3-0.1l-2.6-7.8C164.7,186.8,163.3,186.8,163,187.8z"/><path style="fill:#F5F5F5;" d="M142.7,124.8l-2.6,7.8l-8.3,0.1c-1.1,0-1.5,1.4-0.7,2l6.6,4.9l-2.5,7.9c-0.3,1,0.8,1.9,1.7,1.2l6.7-4.8l6.7,4.8c0.9,0.6,2-0.2,1.7-1.2l-2.5-7.9l6.6-4.9c0.9-0.6,0.4-2-0.7-2l-8.3-0.1l-2.6-7.8C144.5,123.8,143.1,123.8,142.7,124.8z"/><path style="fill:#F5F5F5;" d="M110.2,148.9l-2.6,7.8l-8.3,0.1c-1.1,0-1.5,1.4-0.7,2l6.6,4.9l-2.5,7.9c-0.3,1,0.8,1.9,1.7,1.2l6.7-4.8l6.7,4.8c0.9,0.6,2-0.2,1.7-1.2l-2.5-7.9l6.6-4.9c0.9-0.6,0.4-2-0.7-2l-8.3-0.1l-2.6-7.8C112,147.9,110.5,147.9,110.2,148.9z"/><path style="fill:#F5F5F5;" d="M175,148.9l-2.6,7.8l-8.3,0.1c-1.1,0-1.5,1.4-0.7,2l6.6,4.9l-2.5,7.9c-0.3,1,0.8,1.9,1.7,1.2l6.7-4.8l6.7,4.8c0.9,0.6,2-0.2,1.7-1.2l-2.5-7.9l6.6-4.9c0.9-0.6,0.4-2-0.7-2l-8.3-0.1l-2.6-7.8C176.8,147.9,175.4,147.9,175,148.9z"/></g></svg>