<svg xmlns="http://www.w3.org/2000/svg" viewBox="0 0 512 512"><path style="fill:#82AFFF;" d="M512,200.1H0v-103c0-4.9,4-8.8,8.8-8.8h494.3c4.9,0,8.8,4,8.8,8.8L512,200.1L512,200.1z"/><path style="fill:#73AF00;" d="M503.2,423.7H8.8c-4.9,0-8.8-4-8.8-8.8v-103h512v103C512,419.8,508,423.7,503.2,423.7z"/><rect y="200.1" style="fill:#F5F5F5;" width="512" height="111.8"/><g><rect y="190.2" style="fill:#FF4B55;" width="512" height="13.9"/><rect y="307.9" style="fill:#FF4B55;" width="512" height="13.9"/></g><g><path style="fill:#F5F5F5;" d="M113.5,172.1c-18.1,0-32.7-14.6-32.7-32.6c0-18.1,14.6-32.8,32.7-32.8c0.1,0,0.1,0,0.2,0c1.1,0,1.4-1.4,0.5-1.9c-5.6-3-11.9-4.7-18.7-4.6c-21.6,0.2-39.2,18.1-39,39.7c0.2,21.4,17.7,38.7,39.2,38.7c6.7,0,12.9-1.7,18.4-4.6c0.9-0.5,0.6-1.9-0.5-1.9C113.6,172.1,113.6,172.1,113.5,172.1z"/></g></svg>