<svg xmlns="http://www.w3.org/2000/svg" viewBox="0 0 512 512"><path style="fill:#41479B;" d="M503.2,423.7H8.8c-4.9,0-8.8-4-8.8-8.8V97.1c0-4.9,4-8.8,8.8-8.8h494.3c4.9,0,8.8,4,8.8,8.8v317.8	C512,419.8,508,423.7,503.2,423.7z"/><path style="fill:#F5F5F5;" d="M247.2,88.3h-15.3l-81.8,53.6V88.3H106v53.6L24.2,88.3H8.8c-4.9,0-8.8,4-8.8,8.8v7l70.2,46H0v44.1	h70.2L0,240.2v7c0,4.9,4,8.8,8.8,8.8h15.3l81.8-53.6V256H150v-53.6l81.8,53.6h15.3c4.9,0,8.8-4,8.8-8.8v-7l-70.2-46H256v-44.1h-70.2	l70.2-46v-7C256,92.2,252,88.3,247.2,88.3z"/><path style="fill:#FF4B55;" d="M431.8,257.1h-96v-35.5c0-11.1-0.8-8.8,8.8-8.8H423c9.7,0,8.8-0.9,8.8,8.8V257.1L431.8,257.1z"/><path style="fill:#F5F5F5;" d="M431.8,263.1c-8,0-8,7.2-16,7.2s-8-7.2-16-7.2s-8,7.2-16,7.2s-8-7.2-16-7.2s-8,7.2-16,7.2	s-8-7.2-16-7.2v-13.3c8,0,8,7.2,16,7.2s8-7.2,16-7.2s8,7.2,16,7.2s8-7.2,16-7.2s8,7.2,16,7.2s8-7.2,16-7.2V263.1z"/><path style="fill:#41479B;" d="M408.9,321c-2.5-2.1-4.4-4.6-9.1-4.6c-8,0-8,7.2-16,7.2s-8-7.2-16-7.2c-4.7,0-6.7,2.5-9.1,4.6	c6.4,6.1,14.6,11,25.1,13.7C394.3,332,402.5,327.1,408.9,321z"/><path style="fill:#FFE15A;" d="M461.4,328.6l-8.5-12.1c-0.1,0-2,1.3-4.9,2.3c3.1-4.7,5.8-9.7,7.9-15l-13.7-5.4	c-2.5,6.2-5.9,11.9-10.1,17c-3.5-3.3-6.1-8-8-12.4l-9.4,14c2,3.3,4.3,6.2,6.7,8.6c-10.5,7.9-23.6,12.7-37.7,12.7	c-14.1,0-27.1-4.7-37.5-12.5c2.3-2.2,4.3-4.8,6.1-7.9c0.7-1.1-8.1-16.6-8.1-16.6c-1.9,4.8-4.8,10.4-8.8,14.2	c-4.2-5.1-7.6-10.8-10.1-17.1l-13.7,5.4c2.1,5.3,4.7,10.3,7.8,14.9c-2.8-1-4.7-2.2-4.7-2.2l-8.5,12.1c0.4,0.3,8.5,6,19.1,6	c2.3,0,4.7-0.3,7.1-1c13.7,12.1,31.6,19.5,51.3,19.5c19.7,0,37.6-7.4,51.3-19.5c2.5,0.7,4.9,1,7.2,1	C452.9,334.6,461,328.9,461.4,328.6z"/><path style="fill:#F5F5F5;" d="M428.1,210.1h-19.3l-0.3-0.9c-0.3-0.9-0.8-1.6-1.4-2.2l-1-14.1l-38.7,4.6c-2.4,0-7.3,10.3-6.6,12.6	h-21.3c-3.6,0-6.5,2.9-6.5,6.5v33.2v7.4v3.7c0,0.7,0,1.5,0,2.4c0.1,3,0.4,7.9,1.4,13.9c0.9,5.1,2.1,10.1,3.6,14.8	c2.3,7.3,5.4,13.9,9.2,19.7c2.8,4.3,5.9,8.1,9.5,11.5c7.3,7,16.2,11.8,26.4,14.3l0.7,0.2l0.7-0.2c10.1-2.5,19-7.4,26.4-14.3	c3.5-3.3,6.7-7.2,9.5-11.5c3.8-5.8,6.8-12.4,9.2-19.7c1.5-4.7,2.7-9.7,3.6-14.8c1-6,1.3-10.8,1.4-13.9c0-0.9,0-1.7,0-2.4v-3.7v-7.4	v-33.2C434.6,213,431.7,210.1,428.1,210.1z M431.8,249.7v7.4c0,1.4,0,2.7,0,3.7c0,0.6,0,1.4,0,2.3c-0.1,3.2-0.5,7.9-1.4,13.5	c-0.7,4.4-1.8,9.3-3.5,14.4c-2,6.3-4.9,12.9-8.9,19c-2.5,3.9-5.5,7.6-9.1,11c-6.4,6.1-14.6,11-25.1,13.6	c-10.5-2.6-18.7-7.6-25.1-13.7c-3.5-3.4-6.5-7.1-9.1-11c-4-6.1-6.8-12.7-8.9-19c-1.6-5.1-2.7-10-3.5-14.4	c-0.9-5.5-1.3-10.2-1.4-13.4c7.9,0,8,7.2,15.9,7.2c8,0,8-7.2,16-7.2s8,7.2,16,7.2s8-7.2,16-7.2s8,7.2,16,7.2s8-7.2,16-7.2	c0-0.9,0-1.6,0-2.3c0-2.6,0-6.5,0-11.1c-8,0-8,7.2-16,7.2c-7.9,0.1-7.9-7.2-15.9-7.2s-8,7.2-16,7.2s-8-7.2-16-7.2s-8,7.2-16,7.2	s-8-7.2-16-7.2v-0.1v-33.2c0-2,1.7-3.7,3.7-3.7l22.2,0l0,0.1l2-0.1l38.6,0l0,0h7.4l0,0l18.4,0c2,0,3.7,1.7,3.7,3.7V249.7z"/><path style="fill:#73AF00;" d="M412.2,189.6c0-7.4-12.1-13.4-26.9-13.4c-9.8,0-18.4,2.6-23.1,6.5c-0.3-3.2-3.1-5.8-6.4-5.8	c-3.5,0-6.4,2.9-6.4,6.4s2.9,6.4,6.4,6.4c0.9,0,1.8-0.2,2.6-0.5c0,0.1,0,0.2,0,0.4c0,3.3,2.4,6.3,6.4,8.6c-1,1-1.6,2.4-1.6,4.1	c0,3,2.1,5.4,4.6,5.4c2.5,0,4.6-2.4,4.6-5.4c0-0.4,0-0.7-0.1-1c3.9,1.1,8.3,1.7,13.1,1.7c3.9,0,7.7-0.4,11-1.2c0,0.2,0,0.4,0,0.5	c0,3,2.1,5.4,4.6,5.4s4.6-2.4,4.6-5.4c0-1.3-0.4-2.4-1-3.3C409.2,196.6,412.2,193.3,412.2,189.6z"/><g><polygon style="fill:#FF4B55;" points="256,158.9 141.2,158.9 141.2,88.3 114.8,88.3 114.8,158.9 0,158.9 0,185.4 114.8,185.4 
		114.8,256 141.2,256 141.2,185.4 256,185.4 	"/><path style="fill:#FF4B55;" d="M97.1,150.1L4.2,89.8C1.7,91.3,0,94,0,97.1v0.5l80.9,52.5H97.1z"/><path style="fill:#FF4B55;" d="M166.3,150.1l88.4-57.4c-1.5-2.6-4.2-4.4-7.5-4.4h-1.9l-95.2,61.8H166.3z"/><path style="fill:#FF4B55;" d="M89.5,194.2L1.3,251.5c1.5,2.7,4.3,4.5,7.6,4.5h1.7l95.2-61.8H89.5z"/><path style="fill:#FF4B55;" d="M255.9,247.9l-82.7-53.7H157l93.9,60.9C253.7,253.8,255.6,251.1,255.9,247.9z"/></g><ellipse style="fill:#FFD255;" cx="384.7" cy="174.1" rx="20.4" ry="23.4"/><circle style="fill:#73AF00;" cx="361.3" cy="275.8" r="14.7"/><circle style="fill:#73AF00;" cx="406" cy="275.8" r="14.7"/><circle style="fill:#73AF00;" cx="383.8" cy="306.4" r="14.7"/></svg>