<svg xmlns="http://www.w3.org/2000/svg" viewBox="0 0 512 512"><path style="fill:#41479B;" d="M503.2,423.7H8.8c-4.9,0-8.8-4-8.8-8.8V97.1c0-4.9,4-8.8,8.8-8.8h494.3c4.9,0,8.8,4,8.8,8.8v317.8	C512,419.8,508,423.7,503.2,423.7z"/><rect y="167.7" style="fill:#FF4B55;" width="512" height="176.6"/><polygon style="fill:#F5F5F5;" points="347.8,285.4 347.8,260.4 347.8,260.4 352,243.7 331.1,201.9 322.8,201.9 306.1,243.7 
	281,243.7 258.1,181.1 253.9,181.1 231,243.7 205.9,243.7 189.2,201.9 180.9,201.9 160,243.7 164.2,260.4 164.2,260.4 164.2,285.4 
	135,335.4 377,335.4 "/></svg>