<svg xmlns="http://www.w3.org/2000/svg" viewBox="0 0 512 512"><path style="fill:#FF4B55;" d="M512,256H0V97.1c0-4.9,4-8.8,8.8-8.8h494.3c4.9,0,8.8,4,8.8,8.8L512,256L512,256z"/><path style="fill:#73AF00;" d="M0,256h512v158.9c0,4.9-4,8.8-8.8,8.8H8.8c-4.9,0-8.8-4-8.8-8.8V256z"/><path style="fill:#FFE15A;" d="M258.7,207.9l11.1,33.3l35.1,0.3c2.7,0,3.8,3.5,1.7,5.1l-28.2,20.9l10.6,33.5	c0.8,2.6-2.1,4.7-4.3,3.2L256,283.6L227.4,304c-2.2,1.6-5.2-0.6-4.3-3.2l10.6-33.5l-28.2-20.9c-2.2-1.6-1.1-5.1,1.7-5.1l35.1-0.3	l11.1-33.3C254.2,205.3,257.8,205.3,258.7,207.9z"/></svg>