<svg xmlns="http://www.w3.org/2000/svg" viewBox="0 0 512 512"><polygon style="fill:#464655;" points="0,150.1 0,361.9 141.2,256 "/><polygon style="fill:#F5F5F5;" points="85.3,88.3 56.9,88.3 224.1,220.7 512,220.7 512,203 230.3,203 "/><polygon style="fill:#FFE15A;" points="0,133.3 0,155.8 126.5,256 0,356.2 0,378.7 155,256 "/><polygon style="fill:#F5F5F5;" points="224.1,291.3 56.9,423.7 85.3,423.7 230.3,309 512,309 512,291.3 "/><path style="fill:#FF4B55;" d="M70.6,88.3l158.9,123.6H512V97.1c0-4.9-4-8.8-8.8-8.8L70.6,88.3L70.6,88.3z"/><path style="fill:#41479B;" d="M70.6,423.7l158.9-123.6H512v114.8c0,4.9-4,8.8-8.8,8.8H70.6L70.6,423.7z"/><path style="fill:#73AF00;" d="M56.9,88.3H8.8c-4.9,0-8.8,4-8.8,8.8v36.2L155,256L0,378.7v36.2c0,4.9,4,8.8,8.8,8.8h48.1	l167.3-132.4H512v-70.6H224.1L56.9,88.3z"/></svg>