<svg xmlns="http://www.w3.org/2000/svg" viewBox="0 0 512 512"><path style="fill:#FF4B55;" d="M503.2,423.7H8.8c-4.9,0-8.8-4-8.8-8.8V97.1c0-4.9,4-8.8,8.8-8.8h494.3c4.9,0,8.8,4,8.8,8.8v317.8	C512,419.8,508,423.7,503.2,423.7z"/><g><path style="fill:#F5F5F5;" d="M253.5,225.8l13.8,18.1l21.6-7.2c1.2-0.4,2.2,1,1.5,2l-12.9,18.8l13.6,18.3c0.8,1-0.2,2.4-1.4,2.1l-21.8-6.5l-13.2,18.5c-0.7,1-2.4,0.5-2.4-0.7l-0.6-22.8l-21.7-6.8c-1.2-0.4-1.2-2.1,0-2.5l21.5-7.6l-0.2-22.8C251.1,225.3,252.7,224.7,253.5,225.8z"/><path style="fill:#F5F5F5;" d="M177,326.7c-39,0-70.6-31.6-70.6-70.7c0-39,31.6-70.7,70.6-70.7c14.5,0,27.9,4.5,39,12c1.7,1.2,3.7-1.1,2.2-2.6c-16.7-17.3-40.2-27.9-66.4-27c-44.9,1.5-82.1,37.6-85,82.4c-3.3,51.4,37.4,94.1,88.1,94.1c25,0,47.4-10.4,63.4-27.1c1.4-1.5-0.5-3.7-2.2-2.5C204.9,322.2,191.5,326.7,177,326.7z"/></g></svg>