<svg xmlns="http://www.w3.org/2000/svg" viewBox="0 0 512 512"><path style="fill:#73AF00;" d="M503.2,88.3H8.8c-4.9,0-8.8,4-8.8,8.8v317.8c0,4.9,4,8.8,8.8,8.8h494.3c4.9,0,8.8-4,8.8-8.8V97.1	C512,92.2,508,88.3,503.2,88.3z"/><path style="fill:#FFE15A;" d="M512,97.1c0-4.9-4-8.8-8.8-8.8h-39.5L256,224.3L48.3,88.3H8.8c-4.9,0-8.8,4-8.8,8.8v22.8L207.7,256	L0,392.1v22.8c0,4.9,4,8.8,8.8,8.8h39.5l207.7-136l207.7,136.1h39.5c4.9,0,8.8-4,8.8-8.8v-22.8L304.3,256L512,119.9V97.1z"/><g><polygon style="fill:#464655;" points="512,119.9 512,392.1 304.3,256 	"/><polygon style="fill:#464655;" points="0,392.1 0,119.9 207.7,256 	"/></g></svg>