<svg xmlns="http://www.w3.org/2000/svg" viewBox="0 0 512 512"><path style="fill:#41479B;" d="M503.2,423.7H8.8c-4.9,0-8.8-4-8.8-8.8V97.1c0-4.9,4-8.8,8.8-8.8h494.3c4.9,0,8.8,4,8.8,8.8v317.8	C512,419.8,508,423.7,503.2,423.7z"/><path style="fill:#41479B;" d="M301.9,256l22.9-39.7h-45.9L256,176.6l-22.9,39.7h-45.9l22.9,39.7l-22.9,39.7h45.9l22.9,39.7	l22.9-39.7h45.9L301.9,256z M302.3,229.3l-7.9,13.7l-7.9-13.7H302.3z M286.9,256l-15.4,26.7h-30.9L225.1,256l15.4-26.7h30.9	L286.9,256z M256,202.5l7.9,13.7H248L256,202.5z M209.7,229.3h15.9l-7.9,13.7L209.7,229.3z M209.7,282.7l7.9-13.7l7.9,13.7H209.7zM256,309.5l-7.9-13.7H264L256,309.5z M294.4,269l7.9,13.7h-15.9L294.4,269z"/><rect y="150.1" style="fill:#F5F5F5;" width="512" height="211.9"/></svg>