<svg xmlns="http://www.w3.org/2000/svg" viewBox="0 0 512 512"><path style="fill:#C8414B;" d="M8.8,423.7h494.3c4.9,0,8.8-4,8.8-8.8V97.1c0-4.9-4-8.8-8.8-8.8H8.8c-4.9,0-8.8,4-8.8,8.8v317.8	C0,419.8,4,423.7,8.8,423.7z"/><path style="fill:#FAB446;" d="M176.6,291.3v4.4c0,2.4-2,4.4-4.4,4.4s-4.4-2-4.4-4.4v-4.4H176.6 M185.4,282.5h-26.5v13.2	c0,7.3,5.9,13.2,13.2,13.2s13.2-5.9,13.2-13.2L185.4,282.5L185.4,282.5z"/><path style="fill:#FFA0D2;" d="M172.1,264.8L172.1,264.8c-4.9,0-8.8-4-8.8-8.8v-8.8c0-4.9,4-8.8,8.8-8.8l0,0c4.9,0,8.8,4,8.8,8.8	v8.8C181,260.9,177,264.8,172.1,264.8z"/><path style="fill:#C8414B;" d="M123.6,220.7l-8.8-8.8l5.2-5.2c8-8,18.8-12.5,30.1-12.5l0,0c11.3,0,22.1,4.5,30.1,12.5l5.2,5.2	l-8.8,8.8H123.6z"/><rect y="158.9" style="fill:#FFD250;" width="512" height="194.2"/><rect x="185.4" y="256" style="fill:#C8414B;" width="44.1" height="8.8"/><rect x="66.2" y="317.8" style="fill:#5064AA;" width="35.3" height="8.8"/><rect x="198.6" y="317.8" style="fill:#5064AA;" width="35.3" height="8.8"/><rect x="145.7" y="194.2" style="fill:#FFB441;" width="8.8" height="26.5"/><g><path style="fill:#C8414B;" d="M210.5,229.5h11.7l1.6-7.2c0.7-3.1-1.7-6-4.8-6h-5.3c-3.2,0-5.5,2.9-4.8,6L210.5,229.5z"/><polygon style="fill:#C8414B;" points="212.4,238.3 216.3,256 220.2,238.3 	"/></g><g><path style="fill:#C8414B;" d="M150.1,273.7v-44.1h-35.3c-4.8,0-8.8,3.9-8.8,8.8V256H70.6v8.8H106v8.9h8.8v39.5c2.5,2,5.5,3.5,8.8,4.1v-43.6h8.8v43.7c3.3-0.7,6.3-2.2,8.8-4.1v-39.6h8.8v22.1c0,12.2,9.9,22.1,22.1,22.1s22.1-9.9,22.1-22.1v-22.1H150.1z"/><polygon style="fill:#C8414B;" points="70.6,291.3 97.1,282.5 97.1,273.7 70.6,282.5 	"/></g><polygon style="fill:#FAB446;" points="141.3,247.1 141.3,238.3 114.8,238.3 114.8,247.1 119.2,247.1 119.2,256 114.8,256 
	114.8,264.8 141.3,264.8 141.3,256 136.9,256 136.9,247.1 "/><circle style="fill:#5064AA;" cx="150.1" cy="273.7" r="13.2"/></svg>