<svg xmlns="http://www.w3.org/2000/svg" viewBox="0 0 512 512"><path style="fill:#FF4B55;" d="M512,200.1H0v-103c0-4.9,4-8.8,8.8-8.8h494.3c4.9,0,8.8,4,8.8,8.8L512,200.1L512,200.1z"/><path style="fill:#464655;" d="M503.2,423.7H8.8c-4.9,0-8.8-4-8.8-8.8v-103h512v103C512,419.8,508,423.7,503.2,423.7z"/><path style="fill:#F0C727;" d="M284.2,238.6c0-4.4-4.3-7.5-8.4-6.1l-7.8,2.6l-1.9-11.4c-1.1-6.8-7-11.8-13.9-11.8h-7.3l-7.6,9.4	h10.1l-2.8,14l-8.2-2.7c-4.2-1.4-8.4,1.7-8.4,6.1V286l11.4-11.4l-5.4,16.1h-6v9.4h56.4v-9.4h-6l-5.4-16.1l11.4,11.4L284.2,238.6	L284.2,238.6z M251.3,290.7h-7.6l5.2-13.9l2.4,3L251.3,290.7L251.3,290.7z M260.7,290.7v-10.9l2.4-3l5.2,13.9H260.7z M256,273.7	c0,0-14.5-9.8-13.9-28.2c0,0,9-1.5,13.9-9.4c5,7.9,13.9,9.4,13.9,9.4C270.5,263.9,256,273.7,256,273.7z"/><rect y="200.1" style="fill:#F5F5F5;" width="512" height="111.8"/></svg>