<svg xmlns="http://www.w3.org/2000/svg" viewBox="0 0 512 512"><path style="fill:#FF4B55;" d="M503.2,88.3H256v335.4h247.2c4.9,0,8.8-4,8.8-8.8V97.1C512,92.2,508,88.3,503.2,88.3z"/><path style="fill:#F5F5F5;" d="M8.8,423.7H256V88.3H8.8c-4.9,0-8.8,4-8.8,8.8v317.8C0,419.8,4,423.7,8.8,423.7z"/><path style="fill:#FF4B55;" d="M73.6,108.9v23.6c1.3,0.1,2.8,0.6,4,1.8s1.8,2.7,1.8,4H103v23.5H79.4c-0.1,1.3-0.6,2.8-1.8,4	s-2.7,1.8-4,1.8v23.6H50v-23.6c-1.3-0.1-2.8-0.6-4-1.8s-1.8-2.7-1.8-4H20.6v-23.5h23.6c0.1-1.3,0.6-2.8,1.8-4s2.7-1.8,4-1.8v-23.6	L73.6,108.9 M76.5,105.9h-2.9H50h-2.9v2.9v21.3c-1.1,0.5-2.2,1.2-3.1,2.1c-0.9,0.9-1.6,2-2.1,3.1H20.6h-2.9v2.9v23.5v2.9h2.9h21.3	c0.5,1.1,1.2,2.2,2.1,3.1c0.9,0.9,2,1.6,3.1,2.1v21.3v2.9H50h23.5h2.9v-2.9V170c1.1-0.5,2.2-1.2,3.1-2.1c0.9-0.9,1.6-2,2.1-3.1H103	h2.9v-2.9v-23.5v-2.9H103H81.7c-0.5-1.1-1.2-2.2-2.1-3.1c-0.9-0.9-2-1.6-3.1-2.1v-21.3L76.5,105.9L76.5,105.9z"/><polygon style="fill:#CDCDCD;" points="103,138.3 73.6,138.3 73.6,108.9 50,108.9 50,138.3 20.6,138.3 20.6,161.8 50,161.8 
	50,191.3 73.6,191.3 73.6,161.8 103,161.8 "/><g><circle style="fill:#B4A08C;" cx="61.8" cy="150.1" r="11.8"/><ellipse transform="matrix(0.7071 -0.7071 0.7071 0.7071 -101.1541 82.2068)" style="fill:#B4A08C;" cx="48.7" cy="163.2" rx="3.7" ry="5.2"/><ellipse transform="matrix(0.7071 -0.7071 0.7071 0.7071 -93.4507 100.7851)" style="fill:#B4A08C;" cx="74.9" cy="163.2" rx="5.2" ry="3.7"/><ellipse transform="matrix(0.7071 -0.7071 0.7071 0.7071 -74.8836 93.0857)" style="fill:#B4A08C;" cx="74.9" cy="136.9" rx="3.7" ry="5.2"/><ellipse transform="matrix(0.7071 -0.7071 0.7071 0.7071 -82.5751 74.508)" style="fill:#B4A08C;" cx="48.7" cy="136.9" rx="5.2" ry="3.7"/><path style="fill:#B4A08C;" d="M61.8,166.2c-8.9,0-16.1-7.2-16.1-16.1S52.9,134,61.8,134s16.1,7.2,16.1,16.1C77.9,159,70.7,166.2,61.8,166.2z M61.8,135.4c-8.1,0-14.6,6.6-14.6,14.6s6.6,14.6,14.6,14.6s14.6-6.6,14.6-14.6S69.9,135.4,61.8,135.4z"/></g></svg>