<svg xmlns="http://www.w3.org/2000/svg" viewBox="0 0 512 512"><g><path style="fill:#4173CD;" d="M512,200.1H0v-103c0-4.9,4-8.8,8.8-8.8h494.3c4.9,0,8.8,4,8.8,8.8L512,200.1L512,200.1z"/><path style="fill:#4173CD;" d="M503.2,423.7H8.8c-4.9,0-8.8-4-8.8-8.8v-103h512v103C512,419.8,508,423.7,503.2,423.7z"/></g><g><path style="fill:#4173CD;" d="M257.3,241.6l3.2,9.5l10,0.1c1.3,0,1.8,1.7,0.8,2.4l-8,5.9l3,9.5c0.4,1.2-1,2.3-2.1,1.5l-8.1-5.8l-8.1,5.8c-1.1,0.8-2.5-0.3-2.1-1.5l3-9.5l-8-5.9c-1-0.8-0.5-2.4,0.8-2.4l10-0.1l3.2-9.5C255.1,240.4,256.9,240.4,257.3,241.6z"/><path style="fill:#4173CD;" d="M167.1,267l3.2,9.5l10,0.1c1.3,0,1.8,1.7,0.8,2.4l-8,5.9l3,9.5c0.4,1.2-1,2.3-2.1,1.5l-8.1-5.8l-8.1,5.8c-1.1,0.8-2.5-0.3-2.1-1.5l3-9.5l-8-5.9c-1-0.8-0.5-2.4,0.8-2.4l10-0.1l3.2-9.5C165,265.8,166.7,265.8,167.1,267z"/><path style="fill:#4173CD;" d="M167.1,216.2l3.2,9.5l10,0.1c1.3,0,1.8,1.7,0.8,2.4l-8,5.9l3,9.5c0.4,1.2-1,2.3-2.1,1.5l-8.1-5.8l-8.1,5.8c-1.1,0.8-2.5-0.3-2.1-1.5l3-9.5l-8-5.9c-1-0.8-0.5-2.4,0.8-2.4l10-0.1l3.2-9.5C165,214.9,166.7,214.9,167.1,216.2z"/><path style="fill:#4173CD;" d="M347.4,267l3.2,9.5l10,0.1c1.3,0,1.8,1.7,0.8,2.4l-8,5.9l3,9.5c0.4,1.2-1,2.3-2.1,1.5l-8.1-5.8l-8.1,5.8c-1.1,0.8-2.5-0.3-2.1-1.5l3-9.5l-8-5.9c-1-0.8-0.5-2.4,0.8-2.4l10-0.1l3.2-9.5C345.3,265.8,347,265.8,347.4,267z"/><path style="fill:#4173CD;" d="M347.4,216.2l3.2,9.5l10,0.1c1.3,0,1.8,1.7,0.8,2.4l-8,5.9l3,9.5c0.4,1.2-1,2.3-2.1,1.5l-8.1-5.8l-8.1,5.8c-1.1,0.8-2.5-0.3-2.1-1.5l3-9.5l-8-5.9c-1-0.8-0.5-2.4,0.8-2.4l10-0.1l3.2-9.5C345.3,214.9,347,214.9,347.4,216.2z"/></g><rect y="200.1" style="fill:#F5F5F5;" width="512" height="111.8"/></svg>