<svg xmlns="http://www.w3.org/2000/svg" viewBox="0 0 512 512"><g><path style="fill:#41479B;" d="M512,200.1H0v-103c0-4.9,4-8.8,8.8-8.8h494.3c4.9,0,8.8,4,8.8,8.8L512,200.1L512,200.1z"/><path style="fill:#41479B;" d="M503.2,423.7H8.8c-4.9,0-8.8-4-8.8-8.8v-103h512v103C512,419.8,508,423.7,503.2,423.7z"/></g><g><path style="fill:#50AF69;" d="M256,300.5c-24.4,0-44.2-19.8-44.2-44.2c0-11.8,4.6-22.9,12.9-31.3c2-2,5.1-2,7.1,0c2,2,2,5.1,0,7.1c-6.5,6.5-10,15.1-10,24.2c0,18.9,15.3,34.2,34.2,34.2s34.2-15.3,34.2-34.2c0-9.6-3.9-18.5-10.9-25c-2-1.9-2.1-5-0.2-7.1c1.9-2,5-2.1,7.1-0.2c8.9,8.3,14.1,20.1,14.1,32.3C300.2,280.7,280.4,300.5,256,300.5z"/></g><rect y="200.1" style="fill:#F5F5F5;" width="512" height="111.8"/><ellipse style="fill:#41479B;" cx="256.3" cy="254" rx="35.3" ry="24.6"/><path style="fill:#FFE15A;" d="M245,240.7c-0.3,0-0.7-0.1-0.9-0.4l-13.8-17.8c-0.4-0.5-0.3-1.2,0.2-1.5c0.5-0.4,1.2-0.3,1.5,0.2	l13.8,17.8c0.4,0.5,0.3,1.2-0.2,1.5C245.4,240.6,245.2,240.7,245,240.7z"/><path style="fill:#FFE15A;" d="M238.3,251.6c-0.2,0-0.4-0.1-0.6-0.2l-17.7-11c-0.5-0.3-0.7-1-0.4-1.5s1-0.7,1.5-0.4l17.7,11	c0.5,0.3,0.7,1,0.4,1.5C239.1,251.4,238.7,251.6,238.3,251.6z"/><path style="fill:#FFE15A;" d="M267,240.6c-0.2,0-0.5-0.1-0.7-0.2c-0.5-0.4-0.6-1.1-0.2-1.5l13.8-17.8c0.4-0.5,1.1-0.6,1.5-0.2	s0.6,1.1,0.2,1.5l-13.8,17.8C267.7,240.5,267.4,240.6,267,240.6z"/><path style="fill:#FFE15A;" d="M287.8,269.7l-30.9-46.3c-0.4-0.6-1.4-0.6-1.8,0l-30.9,46.3c-0.3,0.3-0.3,0.7-0.1,1.1	c0.2,0.4,0.6,0.6,1,0.6h61.8c0.4,0,0.8-0.2,1-0.6C288,270.5,288,270,287.8,269.7z"/><path style="fill:#FFE15A;" d="M273.7,251.6c-0.4,0-0.7-0.2-0.9-0.5c-0.3-0.5-0.2-1.2,0.4-1.5l17.7-11c0.5-0.3,1.2-0.2,1.5,0.4	c0.3,0.5,0.2,1.2-0.4,1.5l-17.7,11C274.1,251.5,273.9,251.6,273.7,251.6z"/><path style="fill:#41479B;" d="M256,225L256,225c-1,0-1.8-0.8-1.8-1.8V215c0-1,0.8-1.8,1.8-1.8l0,0c1,0,1.8,0.8,1.8,1.8v8.1	C257.8,224.2,257,225,256,225z"/><circle style="fill:#FF4B55;" cx="256" cy="243.9" r="4.4"/></svg>