<svg xmlns="http://www.w3.org/2000/svg" viewBox="0 0 512 512"><path style="fill:#F5F5F5;" d="M512,200.1H0v-103c0-4.9,4-8.8,8.8-8.8h494.3c4.9,0,8.8,4,8.8,8.8L512,200.1L512,200.1z"/><path style="fill:#FF4B55;" d="M503.2,423.7H8.8c-4.9,0-8.8-4-8.8-8.8v-103h512v103C512,419.8,508,423.7,503.2,423.7z"/><path style="fill:#FF1722;" d="M166.9,155.2c0,1.6,0.1,3.1,0.1,4.8c-0.7,17.7-3.3,56.3-9.1,67.9c-8.5,17-16.3,22.6-30.1,27.8	c-13.8-5.2-21.6-10.8-30-27.8C92,216.2,89.4,177,88.7,160c0-1.7,0-3.3,0.1-4.8c-1.7,0.7-3.4,1.4-5.1,2.1c0.1,3.4,1,26,3.5,45.8	c1.4,11.1,3.4,21.3,6.2,26.7c9.8,19.6,19.7,25.2,34.4,30.5c14.7-5.3,24.6-11,34.4-30.5c2.7-5.4,4.7-15.6,6.2-26.7	c2.6-19.8,3.4-42.4,3.5-45.8C170.3,156.6,168.6,155.9,166.9,155.2z"/><path style="fill:#F5F5F5;" d="M155.7,218.8l-13.2-21.9l-4.9,9.8l-9.8-19.6l-9.8,19.6l-4.9-9.8l-13.1,22c0.5,1.9,1,3.5,1.5,4.9	c0,0,1,2.1,2.3,4.7c0,0,0,0,0,0c0.1,0.1,0.1,0.2,0.2,0.3c1.7,3.2,3.9,7,5.8,8.8c5.4,6.5,11,9.6,18,12.3c7-2.7,12.6-5.8,18-12.3	c0.8-1,2-2.5,3.2-4.3c0,0,0,0,0,0c0.2-0.4,0.5-0.8,0.8-1.2c1.8-2.8,3.6-6,4.4-8.4C154.7,222.3,155.3,220.7,155.7,218.8z"/><g><rect y="200.1" style="fill:#41479B;" width="512" height="111.8"/><path style="fill:#41479B;" d="M172,157.4c0,0-1.8,56.6-9.7,72.5c-9.8,19.5-19.7,25.2-34.4,30.5c-14.7-5.3-24.6-11-34.4-30.5c-7.9-15.9-9.7-72.5-9.7-72.5C111.8,144.7,143.9,144.7,172,157.4z"/></g><circle style="fill:#FFE15A;" cx="113.2" cy="160.8" r="4"/><circle style="fill:#FFE15A;" cx="142.2" cy="160.8" r="4"/><circle style="fill:#FFE15A;" cx="127.7" cy="175" r="4"/></svg>