<svg xmlns="http://www.w3.org/2000/svg" viewBox="0 0 512 512"><path style="fill:#FFD250;" d="M503.2,88.3H8.8c-4.9,0-8.8,4-8.8,8.8v317.8c0,4.9,4,8.8,8.8,8.8h494.3c4.9,0,8.8-4,8.8-8.8V97.1	C512,92.2,508,88.3,503.2,88.3z"/><path style="fill:#963C3C;" d="M185.4,123.6v264.8c0,4.9,4,8.8,8.8,8.8h282.5c4.9,0,8.8-4,8.8-8.8V123.6c0-4.9-4-8.8-8.8-8.8H194.2	C189.3,114.8,185.4,118.7,185.4,123.6z"/><path style="fill:#5AA587;" d="M92.7,114.8H35.3c-4.9,0-8.8,4-8.8,8.8v264.8c0,4.9,4,8.8,8.8,8.8h57.4V114.8z"/><path style="fill:#FF7350;" d="M150.1,114.8H92.7v282.5h57.4c4.9,0,8.8-4,8.8-8.8V123.6C158.9,118.7,154.9,114.8,150.1,114.8z"/><path style="fill:#FFD250;" d="M438.8,201.6c-0.7-1.1-41.5-20.2-54.8-21.9c-10.8-1.4-38.9,8.9-40.3,8.9c-5.1-6-10.4-6.2-10.7-6.2	c-0.8,0.1-2.4,4-3.1,5c-4.5-5.6-10.8-5-11-5c-0.4,0-1.3,5.2-2.1,6.1c-8.8-7-15.6-1.3-15.6-1.2c-0.5,0.5-19.7,6.7-20.3,5.7	c-1-1.6-2.5-2.7-4.2-3c-1.9-0.4-4.5,0-6.2,1.9c-1.9,2.1-1.8,39.3-1.8,39.3c-0.2,0.4,23.3,10.2,22.8,10.6	c-4.5,3.7-10.8,8.8-15.2,17.4c-2.2,4.4-4,11-3.5,18c-3.3-2.7-9.4-8.2-13.9-13.7c0.5-0.4,1.1-0.7,1.6-1.2c1.4-1.4,2.2-3.1,2.2-4.8	c0-3.6-2.6-6.1-5.1-7c-0.9-0.3-1.8-0.4-2.6-0.2c-0.1-59,6.6-77,8-80.1c0.2-0.5-1.1-2-1.6-1.8c-0.9,0.3-21.7,6.8-22.2,41.2l0.3,41.1	c-2.8-0.3-5.5,0.5-7.1,2.2c-0.9,0.9-1.8,2.6-1.3,5.2c0.7,3.4,3.4,5.9,7.6,7.3c-0.1,0.4,2,17.8,2.8,18.5c-2.1-0.4-3.5,0.6-4.2,1.8	c-1,1.8-0.6,4.3,0.9,5.5c1.2,1,2.7,1.3,4.1,1.2c-0.7,1.2-2,10.6-2.9,10.5c-1.1-0.2-2.2,0-3.2,0.7c-1.4,1-2,3-1.3,5	c0.5,1.5,9.5,12.5,11.1,14.1c0.3,0.3,0.7,0.4,1.1,0.4s0.7-0.1,1-0.4c1.6-1.6,10.6-12.6,11.1-14.1c0.7-2,0.1-4.1-1.3-5	c-1-0.7-2.1-0.9-3.2-0.7c-0.8,0.2-2.2-9.2-2.9-10.4c1.4,0,24.2,15.3,25.9,15.3c4.9,0,8.5-4.1,10.1-6.2c3,1.9,10.7,5,10.8,5	c0.5,1.5,4.9,14.5,4.3,18.3c-0.9,4.9-8.7,5-12.7,4.3c-2.9-0.5-5.5,0.3-7.5,2.1c-1.9,1.8-3,4.6-2.7,7.4c0.2,1.9,1.2,2.9,2,3.3	c1.8,1,33,0,33.6-0.3c4.3-3.6,10.7-37,11.3-37.7c6.8-1.5,28.9-11.6,35.1-13.5c1.7-0.5,18.2,37.4,17.9,38.4c-0.3,0.6-2.9,3.3-6.7,2.8	c-3.1-0.4-6.6,0.6-8.9,2.6c-1.6,1.4-2.5,3.3-2.5,5.2c0,1.6,0.8,2.4,1.4,2.8c2,1.2,65.8,0.6,66.2,0.1c1.6-2.3,0.7-6.2-1-8.3	c-1-1.3-1.5-39.5,1.4-48.2c1.6-4.9,3.3-10,4.4-15.1c2.6-12.6-3.7-22.7-6-25.8c6.4-6.3,9-12.2,7.9-17.8c-1.2-6.2-7-10.4-11.5-12.1	c-5.5-2.1-14.7-1-23.6,0.1c-7,0.8-40.3-13.5-40.2-15.1c0-1.1,0.4-3.1,2.6-4.3c1-0.5,1.9-0.6,2.6-0.4c1.3,0.5,54.6,15.3,58.9,17.3	c4.7,2.2,8.1,1.7,10.1,0.9s3.6-2.3,4.2-4C440,206.9,440.3,203.9,438.8,201.6z M384.7,290.8c0.3,0.2,0.6,0.5,1,0.7	C385.4,291.2,385,291,384.7,290.8z M358.1,224.9c0.4,0.2,51.7-2.1,54.3-2.5c5.6-0.7,11.3,1.6,12.7,5.2c1.1,2.7-0.6,5.8-4.7,8.8	c-11.3,8.2-65.5,4.6-71,4.2C347.9,239.2,355.5,223.3,358.1,224.9z M256.6,307.4c0,0,0-0.1,0-0.1	C256.6,307.3,256.6,307.3,256.6,307.4z M396,326.4c0.1-1.1,3.8-20.2,4.6-19.7c2.1,1.4,4.3,2.9,6.6,4.6c5.1,3.7,4.8,12.7,5,14.2	c0.4,3.8-1.8,4.5-4.8,5.1c-0.4,0.1-7.3,1.5-9.5,3.5C397.7,333.4,396.2,327.6,396,326.4z"/><polygon style="fill:#FFD250;" points="222.4,155.2 194.4,138.8 210.9,123.9 "/><polygon style="fill:#FFD250;" points="222.4,357.8 194.4,374.1 210.9,389.1 "/><polygon style="fill:#FFD250;" points="445.2,155.2 473.2,138.8 456.7,123.9 "/><polygon style="fill:#FFD250;" points="445.2,357.8 473.2,374.1 456.7,389.1 "/></svg>