<svg xmlns="http://www.w3.org/2000/svg" viewBox="0 0 512 512"><path style="fill:#73AF00;" d="M503.2,423.7H8.8c-4.9,0-8.8-4-8.8-8.8V97.1c0-4.9,4-8.8,8.8-8.8h494.3c4.9,0,8.8,4,8.8,8.8v317.8	C512,419.8,508,423.7,503.2,423.7z"/><path style="fill:#FFE15A;" d="M251.4,135.2l-186,113.3c-5.7,3.4-5.7,11.6,0,15.1l186.1,113.3c2.8,1.7,6.4,1.7,9.2,0l186.1-113.3	c5.7-3.4,5.7-11.6,0-15.1L260.6,135.2C257.8,133.5,254.2,133.5,251.4,135.2z"/><circle style="fill:#41479B;" cx="256" cy="256" r="70.6"/><g><path style="fill:#F5F5F5;" d="M195.4,219.9c-3.3,5.6-5.9,11.6-7.6,18.1c39.1-2.9,97.1,8,133.9,43.8c2.4-6.1,4-12.7,4.6-19.5C288.2,230.2,235.6,218.8,195.4,219.9z"/></g></svg>