<svg xmlns="http://www.w3.org/2000/svg" viewBox="0 0 512 512"><path style="fill:#F5F5F5;" d="M503.2,423.7H8.8c-4.9,0-8.8-4-8.8-8.8V97.1c0-4.9,4-8.8,8.8-8.8h494.3c4.9,0,8.8,4,8.8,8.8v317.8	C512,419.8,508,423.7,503.2,423.7z"/><path style="fill:#FF6B71;" d="M258.9,257.1v-4.7h-6v4.6c0,0.1-0.1,0.1-0.1,0.2h-15.2v10.5c0,2.9,2.3,5.2,5.2,5.2h7.9	c2.2,0,4,1.1,5.1,2.6l0,0.1c0,0,0,0,0,0c0,0,0,0,0,0l0-0.1c1.1-1.5,3-2.6,5.1-2.6h7.9c2.9,0,5.2-2.3,5.2-5.2v-10.5H258.9z"/><path style="fill:#64B496;" d="M225.2,239c-1.7,2.5-5.1,10.2-3.8,16.9c1.3,6.6,5.6,14.8,13.3,20.3s10.9,6.1,10.9,6.1l9.6-1.1	c0,0,0.1-4.5-4.4-8.4s-9.8-4.7-13.5-12.2c-3.7-7.5-2.9-16.6-4-20.2C232.2,236.8,227,236.4,225.2,239z"/><path style="fill:#64B496;" d="M285.8,239c1.7,2.5,5.1,10.2,3.8,16.9s-5.6,14.8-13.3,20.3s-10.9,6.1-10.9,6.1l-9.6-1.1	c0,0-0.1-4.5,4.4-8.4c4.5-3.9,9.8-4.7,13.5-12.2c3.7-7.5,2.9-16.6,4-20.2C278.8,236.8,284,236.4,285.8,239z"/><path style="fill:#41479B;" d="M255.4,217.5c-15.3,0-30.9,13.1-33.5,16.7c1.4,1,2.8,2.1,4.2,3.1c2.9-3.9,13-14.6,29.6-14.6	s28.1,11.7,30.3,14.6c1.4-1,2.8-2.1,4.2-3.1C286.9,229.7,274.2,217.5,255.4,217.5z"/><g><path style="fill:#41479B;" d="M211.9,220.7H8.8c-4.9,0-8.8-4-8.8-8.8V97.1c0-4.9,4-8.8,8.8-8.8h203c4.9,0,8.8,4,8.8,8.8v114.8C220.7,216.7,216.7,220.7,211.9,220.7z"/><path style="fill:#41479B;" d="M503.2,423.7h-203c-4.9,0-8.8-4-8.8-8.8V300.1c0-4.9,4-8.8,8.8-8.8h203c4.9,0,8.8,4,8.8,8.8v114.8C512,419.8,508,423.7,503.2,423.7z"/></g><g><path style="fill:#FF4B55;" d="M503.2,220.7h-203c-4.9,0-8.8-4-8.8-8.8V97.1c0-4.9,4-8.8,8.8-8.8h203c4.9,0,8.8,4,8.8,8.8v114.8C512,216.7,508,220.7,503.2,220.7z"/><path style="fill:#FF4B55;" d="M211.9,423.7H8.8c-4.9,0-8.8-4-8.8-8.8V300.1c0-4.9,4-8.8,8.8-8.8h203c4.9,0,8.8,4,8.8,8.8v114.8C220.7,419.8,216.7,423.7,211.9,423.7z"/></g><g><path style="fill:#FF6B71;" d="M259.6,283.7l-3.6,0.9l-3.6-0.9c-0.8-0.2-1.6,0.4-1.6,1.3v1.8c0,0.9,0.8,1.5,1.6,1.3l3.6-0.9v0.1l3.6,0.9c0.8,0.2,1.6-0.4,1.6-1.3V285C261.2,284.1,260.4,283.5,259.6,283.7z"/><path style="fill:#FF6B71;" d="M221.9,285.8c0.7,1.6,1.5,3.2,2.2,4.7c2.6-1.2,17.6-7.8,32.4-7.8c14.5,0,28.9,6.6,31.4,7.8c0.7-1.5,1.5-3.1,2.2-4.7c-1.9-0.9-18-7.4-34.1-7.4C239.9,278.4,223.9,284.9,221.9,285.8z"/></g><rect x="267.8" y="250.5" style="fill:#F5F5F5;" width="6.6" height="6.6"/><rect x="237.6" y="250.5" style="fill:#F5F5F5;" width="6.6" height="6.6"/><polygon style="fill:#F5F5F5;" points="248.1,241.3 248.1,245.3 253.4,247.9 253.4,246.6 "/><polygon style="fill:#F5F5F5;" points="263.9,241.3 263.9,245.3 258.6,247.9 258.6,246.6 "/><polygon style="fill:#464655;" points="260,230.8 260,241.8 252.1,242 252.1,230.8 237.8,230.8 237.6,250.5 252.1,250.5 
	252.1,247.1 260,247 260,250.5 274.4,250.5 274.2,230.8 "/></svg>