<svg xmlns="http://www.w3.org/2000/svg" viewBox="0 0 512 512"><path style="fill:#FF4B55;" d="M503.2,423.7H8.8c-4.9,0-8.8-4-8.8-8.8V97.1c0-4.9,4-8.8,8.8-8.8h494.3c4.9,0,8.8,4,8.8,8.8v317.8	C512,419.8,508,423.7,503.2,423.7z"/><path style="fill:#41479B;" d="M8.8,88.3h238.3c4.9,0,8.8,4,8.8,8.8v150.1c0,4.9-4,8.8-8.8,8.8H8.8C4,256,0,252,0,247.2V97.1	C0,92.2,4,88.3,8.8,88.3z"/><g><path style="fill:#F5F5F5;" d="M96.4,172.1c0-8.7,3.5-16.6,9.2-22.3l-26.5-7.6c-1.5-0.4-2.6,1.5-1.5,2.6L97.5,164l-26.7,6.7c-1.6,0.4-1.6,2.6,0,3l26.7,6.7l-19.8,19.2c-1.1,1.1,0,3,1.5,2.6l26.5-7.6C99.9,188.8,96.4,180.9,96.4,172.1z"/><path style="fill:#F5F5F5;" d="M105.7,149.8c5.7-5.7,13.6-9.2,22.3-9.2s16.6,3.5,22.3,9.2l7.6-26.5c0.4-1.5-1.5-2.6-2.6-1.5l-19.2,19.8l-6.7-26.7c-0.4-1.6-2.6-1.6-3,0l-6.7,26.7l-19.2-19.8c-1.1-1.1-3,0-2.6,1.5L105.7,149.8z"/><path style="fill:#F5F5F5;" d="M150.3,194.5c-5.7,5.7-13.6,9.2-22.3,9.2s-16.6-3.5-22.3-9.2L98.1,221c-0.4,1.5,1.5,2.6,2.6,1.5l19.2-19.8l6.7,26.7c0.4,1.6,2.6,1.6,3,0l6.7-26.7l19.2,19.8c1.1,1.1,3,0,2.6-1.5L150.3,194.5z"/><path style="fill:#F5F5F5;" d="M185.2,170.6l-26.7-6.7l19.8-19.2c1.1-1.1,0-3-1.5-2.6l-26.5,7.6c5.7,5.7,9.2,13.6,9.2,22.3s-3.5,16.6-9.2,22.3l26.5,7.6c1.5,0.4,2.6-1.5,1.5-2.6l-19.8-19.2l26.7-6.7C186.8,173.2,186.8,171,185.2,170.6z"/><circle style="fill:#F5F5F5;" cx="128" cy="172.1" r="25.2"/></g></svg>