<svg xmlns="http://www.w3.org/2000/svg" viewBox="0 0 512 512"><path style="fill:#F5F5F5;" d="M512,256H0V97.1c0-4.9,4-8.8,8.8-8.8h494.3c4.9,0,8.8,4,8.8,8.8L512,256L512,256z"/><path style="fill:#FF4B55;" d="M17.7,256v-8.8H0v8.8v8.8v150.1c0,4.9,4,8.8,8.8,8.8h494.3c4.9,0,8.8-4,8.8-8.8V256H17.7z"/><path style="fill:#41479B;" d="M158.9,256H8.8C4,256,0,252,0,247.2V97.1c0-4.9,4-8.8,8.8-8.8h150.1c4.9,0,8.8,4,8.8,8.8v150.1	C167.7,252,163.8,256,158.9,256z"/><path style="fill:#F5F5F5;" d="M87.3,134.5l8.4,25.2l26.6,0.2c3.4,0,4.9,4.4,2.1,6.5L103,182.2l8,25.4c1,3.3-2.7,6-5.5,4l-21.6-15.5	l-21.6,15.5c-2.8,2-6.5-0.7-5.5-4l8-25.4l-21.4-15.8c-2.8-2-1.3-6.4,2.1-6.5l26.6-0.2l8.4-25.2C81.6,131.2,86.2,131.2,87.3,134.5z"/></svg>