<svg xmlns="http://www.w3.org/2000/svg" viewBox="0 0 512 512"><path style="fill:#82AFFF;" d="M170.7,423.7H8.8c-4.9,0-8.8-4-8.8-8.8V97.1c0-4.9,4-8.8,8.8-8.8h161.8V423.7z"/><path style="fill:#82AFFF;" d="M503.2,423.7H341.3V88.3h161.8c4.9,0,8.8,4,8.8,8.8v317.8C512,419.8,508,423.7,503.2,423.7z"/><path style="fill:#966446;" d="M228.1,294.3l-8.8,8.8l-4.4-8.7l13.1-13.1l4.4,4.4l-1.3,3.8C230.5,291.3,229.5,293,228.1,294.3z"/><path style="fill:#B9B9B9;" d="M276,229.1l-48,48c-1.2,1.2-1.2,3.2,0,4.4l2.2,2.2l8.7-8.7l34.9-39.3l4.4-4.4L276,229.1z"/><path style="fill:#966446;" d="M239.8,269.6c-0.6,0.6-0.9,1.4-0.9,2.2v3.1l34.9-39.3L239.8,269.6z"/><path style="fill:#966446;" d="M286.3,294.3l8.8,8.8l4.4-8.7l-13.1-13.1l-4.4,4.4l1.3,3.8C283.9,291.3,284.9,293,286.3,294.3z"/><path style="fill:#B9B9B9;" d="M238.4,229.1l48,48c1.2,1.2,1.2,3.2,0,4.4l-2.2,2.2l-8.7-8.7l-34.9-39.3l-4.4-4.4L238.4,229.1z"/><path style="fill:#966446;" d="M274.6,269.6c0.6,0.6,0.9,1.4,0.9,2.2v3.1l-34.9-39.3L274.6,269.6z"/><path style="fill:#B9B9B9;" d="M239.3,292.5l2.2,2c7.9-8.7,21.7-23.8,43.7-43.5C285.2,251,267,262.2,239.3,292.5z"/><path style="fill:#FFE15A;" d="M233.2,301.4L233.2,301.4c-0.8-0.7-0.8-1.9-0.1-2.7l4.6-5.1c0.7-0.8,1.9-0.8,2.7-0.1l0,0	c0.8,0.7,0.8,1.9,0.1,2.7l-4.6,5.1C235.2,302.1,234,302.1,233.2,301.4z"/><path style="fill:#FFC855;" d="M237.6,290.9l-1.3,0.6c-1.1,0.6-4.1,2.2-4.6,4.6c-0.2,1.1,0.1,2.2,1,3.3c0.1-0.2,0.2-0.4,0.4-0.6	l0.6-0.6c-0.4-0.6-0.6-1.1-0.5-1.7c0.3-1.5,2.3-2.8,3.5-3.5l5.6,5.1l1.4-1.5L237.6,290.9z"/><path style="fill:#B9B9B9;" d="M275.1,294.9l-2.2,2c-7.9-8.7-21.7-23.8-43.7-43.5C229.3,253.4,247.4,264.6,275.1,294.9z"/><path style="fill:#FFE15A;" d="M281.2,303.8L281.2,303.8c0.8-0.7,0.8-1.9,0.1-2.7l-4.6-5.1c-0.7-0.8-1.9-0.8-2.7-0.1l0,0	c-0.8,0.7-0.8,1.9-0.1,2.7l4.6,5.1C279.2,304.5,280.4,304.5,281.2,303.8z"/><path style="fill:#FFC855;" d="M276.9,293.3l1.3,0.6c1.1,0.6,4.1,2.2,4.6,4.6c0.2,1.1-0.1,2.2-1,3.3c-0.1-0.2-0.2-0.4-0.4-0.6	l-0.6-0.6c0.4-0.6,0.6-1.1,0.5-1.7c-0.3-1.5-2.3-2.8-3.5-3.5l-5.6,5.1l-1.4-1.5L276.9,293.3z"/><path style="fill:#69B469;" d="M258.2,214.7c0.2-0.4,0.3-0.9,0.3-1.4c0-2-1.6-3.6-3.6-3.6c-2,0-3.6,1.6-3.6,3.6	c0,1.2,0.6,2.3,1.5,2.9c-1.3,10.6,9.1,11.4,13.1,12.9c6,2.2,13.6,6.8,13.1,19.5c-0.5,12.3-8.3,24.3-8.3,24.3l6.5-8.8	c-2.4,10-7.9,22.8-21.1,38c0,0,9-8.8,16.5-20.1c-5.5,13-11.6,25-11.6,25s10.8-14.1,19.6-38.4C291.1,238.9,268.7,221.2,258.2,214.7z"/><path style="fill:#FCF0A8;" d="M268.1,236.4c2.7,0,4.9-2.2,4.9-4.9s-2.2-4.9-4.9-4.9H239c2.7,0,4.9,2.2,4.9,4.9s-2.2,4.9-4.9,4.9	s-4.9-2.2-4.9-4.9c0,8.2,6.8,18,9,26.7c0,0,0.7,2.2,0.7,4.9s-2.2,4.9-4.9,4.9h29.2c2.7,0,4.9-2.2,4.9-4.9c0-8.2-6.8-18-9-26.7	L268.1,236.4L268.1,236.4z"/><rect x="170.7" y="88.3" style="fill:#F5F5F5;" width="170.7" height="335.5"/><rect x="239" y="258.3" style="fill:#F4E08F;" width="9.7" height="4.9"/><polygon style="fill:#FFC855;" points="253.8,212.1 248.7,214.6 253.4,216.6 "/><polygon style="fill:#A0A0A0;" points="278.2,231.2 276,229.1 273.8,231.2 276,233.4 278.2,235.6 302.2,207.2 "/><polygon style="fill:#A0A0A0;" points="236.3,231.2 238.4,229.1 240.6,231.2 238.4,233.4 236.3,235.6 212.3,207.2 "/><g><path style="fill:#73AF00;" d="M256,305.6c-28.1,0-51-22.9-51-51c0-17.5,8.8-33.5,23.5-43l1.3,2c-14,9-22.4,24.3-22.4,40.9c0,26.8,21.8,48.6,48.6,48.6L256,305.6L256,305.6z"/><path style="fill:#73AF00;" d="M226.8,308.8c1.9,0.4,4.9-0.1,8-1.6c3.1-1.4,5.4-3.4,6.3-5.1c-1.9-0.4-4.9,0.1-8,1.6C230.1,305.1,227.7,307.1,226.8,308.8z"/><path style="fill:#73AF00;" d="M241.2,302.1c0.4-1.9-0.1-4.9-1.6-8c-1.4-3.1-3.4-5.4-5.1-6.3c-0.4,1.9,0.1,4.9,1.6,8C237.5,298.9,239.4,301.2,241.2,302.1z"/><path style="fill:#73AF00;" d="M216.6,302.6c1.9,0.7,4.9,0.6,8.2-0.4c3.3-1,5.8-2.6,7-4.2c-1.9-0.7-4.9-0.6-8.2,0.4C220.4,299.4,217.8,301,216.6,302.6z"/><path style="fill:#73AF00;" d="M231.8,298.1c0.7-1.9,0.6-4.9-0.4-8.2c-1-3.3-2.6-5.8-4.2-7c-0.7,1.9-0.6,4.9,0.4,8.2C228.6,294.3,230.2,296.9,231.8,298.1z"/><path style="fill:#73AF00;" d="M207.2,294.1c1.7,1,4.7,1.5,8.1,1.1s6.2-1.5,7.7-2.8c-1.7-1-4.7-1.5-8.1-1.1S208.7,292.7,207.2,294.1z"/><path style="fill:#73AF00;" d="M223,292.4c1-1.7,1.5-4.7,1.1-8.1s-1.5-6.2-2.8-7.7c-1,1.7-1.5,4.7-1.1,8.1C220.5,288.1,221.6,290.9,223,292.4z"/><path style="fill:#73AF00;" d="M199.5,282.3c1.5,1.3,4.4,2.3,7.8,2.5s6.4-0.4,8-1.4c-1.5-1.3-4.4-2.3-7.8-2.5C204.1,280.7,201.1,281.3,199.5,282.3z"/><path style="fill:#73AF00;" d="M215.3,283.4c1.3-1.5,2.3-4.4,2.5-7.8c0.2-3.4-0.4-6.4-1.4-8c-1.3,1.5-2.3,4.4-2.5,7.8C213.6,278.8,214.2,281.8,215.3,283.4z"/><path style="fill:#73AF00;" d="M194.9,269.4c1.2,1.6,3.8,3.2,7.1,4.1s6.3,1,8.2,0.3c-1.2-1.6-3.8-3.2-7.1-4.1S196.8,268.7,194.9,269.4z"/><path style="fill:#73AF00;" d="M210.1,273.8c1.6-1.2,3.2-3.8,4.1-7.1c0.9-3.3,1-6.3,0.3-8.2c-1.6,1.2-3.2,3.8-4.1,7.1C209.5,268.9,209.4,271.9,210.1,273.8z"/><path style="fill:#73AF00;" d="M193,254.3c0.8,1.8,2.9,4,5.8,5.8c2.9,1.8,5.8,2.6,7.8,2.4c-0.8-1.8-2.9-4-5.8-5.8C197.9,254.9,195,254.1,193,254.3z"/><path style="fill:#73AF00;" d="M206.6,262.5c1.8-0.8,4-2.9,5.8-5.8c1.8-2.9,2.6-5.8,2.4-7.8c-1.8,0.8-4,2.9-5.8,5.8C207.2,257.6,206.4,260.5,206.6,262.5z"/><path style="fill:#73AF00;" d="M194.8,240c0.4,2,1.9,4.5,4.4,6.9c2.5,2.3,5.2,3.7,7.1,4c-0.4-2-1.9-4.5-4.4-6.9C199.5,241.7,196.8,240.2,194.8,240z"/><path style="fill:#73AF00;" d="M206.4,250.9c2-0.4,4.5-1.9,6.9-4.4c2.3-2.5,3.7-5.2,4-7.1c-2,0.4-4.5,1.9-6.9,4.4C208,246.2,206.6,248.9,206.4,250.9z"/><path style="fill:#73AF00;" d="M202,224.6c-0.4,1.9,0.1,4.9,1.5,8c1.4,3.1,3.4,5.4,5.1,6.4c0.4-1.9-0.1-4.9-1.5-8C205.7,227.9,203.7,225.5,202,224.6z"/><path style="fill:#73AF00;" d="M208.6,239c1.9,0.4,4.9-0.1,8-1.5c3.1-1.4,5.4-3.4,6.4-5.1c-1.9-0.4-4.9,0.1-8,1.5S209.5,237.3,208.6,239z"/><path style="fill:#73AF00;" d="M210.5,213.1c-0.9,1.8-1.2,4.8-0.7,8.1c0.5,3.4,1.8,6.1,3.2,7.5c0.9-1.8,1.2-4.8,0.7-8.1C213.2,217.3,212,214.5,210.5,213.1z"/><path style="fill:#73AF00;" d="M213,228.8c1.8,0.9,4.8,1.2,8.1,0.7c3.4-0.5,6.1-1.8,7.5-3.2c-1.8-0.9-4.8-1.2-8.1-0.7C217.2,226.1,214.4,227.4,213,228.8z"/><path style="fill:#73AF00;" d="M219,205.2c-1.2,1.6-1.9,4.5-1.9,7.9s0.9,6.3,2.1,7.9c1.2-1.6,1.9-4.5,1.9-7.9C221,209.7,220.1,206.8,219,205.2z"/><path style="fill:#73AF00;" d="M219.1,221c1.6,1.2,4.5,1.9,7.9,1.9s6.3-0.9,7.9-2.1c-1.6-1.2-4.5-1.9-7.9-1.9C223.6,219,220.7,219.9,219.1,221z"/><path style="fill:#73AF00;" d="M223.2,216.9c2,0.2,4.9-0.7,7.8-2.5c2.9-1.8,5-4,5.7-5.9c-2-0.2-4.9,0.7-7.8,2.5C226,212.8,223.9,215,223.2,216.9z"/><path style="fill:#73AF00;" d="M256,305.6v-2.4c26.8,0,48.6-21.8,48.6-48.6c0-16.6-8.4-32-22.4-40.9l1.3-2c14.7,9.4,23.5,25.5,23.5,43C307,282.8,284.1,305.6,256,305.6z"/><path style="fill:#73AF00;" d="M285.2,308.8c-1.9,0.4-4.9-0.1-8-1.6c-3.1-1.4-5.4-3.4-6.3-5.1c1.9-0.4,4.9,0.1,8,1.6C281.9,305.1,284.3,307.1,285.2,308.8z"/><path style="fill:#73AF00;" d="M270.8,302.1c-0.4-1.9,0.1-4.9,1.6-8c1.4-3.1,3.4-5.4,5.1-6.3c0.4,1.9-0.1,4.9-1.6,8C274.5,298.9,272.6,301.2,270.8,302.1z"/><path style="fill:#73AF00;" d="M295.4,302.6c-1.9,0.7-4.9,0.6-8.2-0.4c-3.3-1-5.8-2.6-7-4.2c1.9-0.7,4.9-0.6,8.2,0.4C291.6,299.4,294.2,301,295.4,302.6z"/><path style="fill:#73AF00;" d="M280.2,298.1c-0.7-1.9-0.6-4.9,0.4-8.2c1-3.3,2.6-5.8,4.2-7c0.7,1.9,0.6,4.9-0.4,8.2C283.4,294.3,281.8,296.9,280.2,298.1z"/><path style="fill:#73AF00;" d="M304.8,294.1c-1.7,1-4.7,1.5-8.1,1.1s-6.2-1.5-7.7-2.8c1.7-1,4.7-1.5,8.1-1.1S303.3,292.7,304.8,294.1z"/><path style="fill:#73AF00;" d="M289,292.4c-1-1.7-1.5-4.7-1.1-8.1s1.5-6.2,2.8-7.7c1,1.7,1.5,4.7,1.1,8.1S290.4,290.9,289,292.4z"/><path style="fill:#73AF00;" d="M312.5,282.3c-1.5,1.3-4.4,2.3-7.8,2.5c-3.4,0.2-6.4-0.4-8-1.4c1.5-1.3,4.4-2.3,7.8-2.5C307.9,280.7,310.9,281.3,312.5,282.3z"/><path style="fill:#73AF00;" d="M296.7,283.4c-1.3-1.5-2.3-4.4-2.5-7.8c-0.2-3.4,0.4-6.4,1.4-8c1.3,1.5,2.3,4.4,2.5,7.8C298.4,278.8,297.8,281.8,296.7,283.4z"/><path style="fill:#73AF00;" d="M317.1,269.4c-1.2,1.6-3.8,3.2-7.1,4.1c-3.3,0.9-6.3,1-8.2,0.3c1.2-1.6,3.8-3.2,7.1-4.1S315.2,268.7,317.1,269.4z"/><path style="fill:#73AF00;" d="M301.9,273.8c-1.6-1.2-3.2-3.8-4.1-7.1c-0.9-3.3-1-6.3-0.3-8.2c1.6,1.2,3.2,3.8,4.1,7.1C302.5,268.9,302.6,271.9,301.9,273.8z"/><path style="fill:#73AF00;" d="M319,254.3c-0.8,1.8-2.9,4-5.8,5.8c-2.9,1.8-5.8,2.6-7.8,2.4c0.8-1.8,2.9-4,5.8-5.8C314.1,254.9,317,254.1,319,254.3z"/><path style="fill:#73AF00;" d="M305.4,262.5c-1.8-0.8-4-2.9-5.8-5.8c-1.8-2.9-2.6-5.8-2.4-7.8c1.8,0.8,4,2.9,5.8,5.8C304.8,257.6,305.6,260.5,305.4,262.5z"/><path style="fill:#73AF00;" d="M317.2,240c-0.4,2-1.9,4.5-4.4,6.9s-5.2,3.7-7.1,4c0.4-2,1.9-4.5,4.4-6.9S315.2,240.2,317.2,240z"/><path style="fill:#73AF00;" d="M305.6,250.9c-2-0.4-4.5-1.9-6.9-4.4c-2.3-2.5-3.7-5.2-4-7.1c2,0.4,4.5,1.9,6.9,4.4C304,246.2,305.4,248.9,305.6,250.9z"/><path style="fill:#73AF00;" d="M310,224.6c0.4,1.9-0.1,4.9-1.5,8s-3.4,5.4-5.1,6.4c-0.4-1.9,0.1-4.9,1.5-8C306.3,227.9,308.3,225.5,310,224.6z"/><path style="fill:#73AF00;" d="M303.4,239c-1.9,0.4-4.9-0.1-8-1.5s-5.4-3.4-6.4-5.1c1.9-0.4,4.9,0.1,8,1.5C300.1,235.3,302.5,237.3,303.4,239z"/><path style="fill:#73AF00;" d="M301.5,213.1c0.9,1.8,1.2,4.8,0.7,8.1c-0.5,3.4-1.8,6.1-3.2,7.5c-0.9-1.8-1.2-4.8-0.7-8.1S300,214.5,301.5,213.1z"/><path style="fill:#73AF00;" d="M299,228.8c-1.8,0.9-4.8,1.2-8.1,0.7c-3.4-0.5-6.1-1.8-7.5-3.2c1.8-0.9,4.8-1.2,8.1-0.7C294.8,226.1,297.6,227.4,299,228.8z"/><path style="fill:#73AF00;" d="M293,205.2c1.2,1.6,1.9,4.5,1.9,7.9s-0.9,6.3-2.1,7.9c-1.2-1.6-1.9-4.5-1.9-7.9C291,209.7,291.9,206.8,293,205.2z"/><path style="fill:#73AF00;" d="M292.9,221c-1.6,1.2-4.5,1.9-7.9,1.9s-6.3-0.9-7.9-2.1c1.6-1.2,4.5-1.9,7.9-1.9S291.3,219.9,292.9,221z"/><path style="fill:#73AF00;" d="M288.8,216.9c-2,0.2-4.9-0.7-7.8-2.5c-2.9-1.8-5-4-5.7-5.9c2-0.2,4.9,0.7,7.8,2.5C286,212.8,288.1,215,288.8,216.9z"/></g><g><circle style="fill:#ECD077;" cx="239" cy="263.1" r="4.9"/><circle style="fill:#ECD077;" cx="239" cy="231.5" r="4.9"/></g><g><path style="fill:#F4E08F;" d="M243.9,231.5c0,2.7-2.2,4.9-4.9,4.9h29.2c2.7,0,4.9-2.2,4.9-4.9H243.9z"/><path style="fill:#F4E08F;" d="M243.9,263.1c0,2.7-2.2,4.9-4.9,4.9h29.2c2.7,0,4.9-2.2,4.9-4.9H243.9z"/></g></svg>