<svg xmlns="http://www.w3.org/2000/svg" viewBox="0 0 512 512"><path style="fill:#73AF00;" d="M503.2,88.3H8.8c-4.9,0-8.8,4-8.8,8.8v317.8c0,4.9,4,8.8,8.8,8.8h494.3c4.9,0,8.8-4,8.8-8.8V97.1	C512,92.2,508,88.3,503.2,88.3z"/><rect x="326.6" y="203" style="fill:#FF4B55;" width="61.8" height="220.7"/><rect x="388.4" y="203" style="fill:#464655;" width="61.8" height="220.7"/><g><rect x="450.2" y="203" style="fill:#FF9B55;" width="61.8" height="220.7"/><path style="fill:#FF9B55;" d="M497,128.9c0.2-0.4,0.1-0.9-0.2-1.1c-0.3-0.3-0.8-0.3-1.2-0.1c-1.8,1.2-3.6,2.3-5.4,3.2c5.7-4.7,6.6-8.9,6.6-9.2c0.1-0.4-0.1-0.8-0.4-1s-0.7-0.2-1.1,0c-6.2,4.2-12.4,7.2-17.8,9.3c7.2-4.5,10-9.2,10.2-9.5c0.2-0.4,0.2-0.9-0.1-1.2c-0.3-0.3-0.8-0.4-1.2-0.1c-5.7,3.5-12.5,6.2-19,8.3c0.9-1.3,1.5-2.8,0.9-3.7c-0.5-0.8-1.4-0.8-2.8,0c-2.7,1.6-23.2,6.8-31.2,8.8c-8.1-1.5-14.8,0.6-16.9,1.4c-0.6-0.7-0.8-1.3-0.9-1.8c-0.2-0.8,0-1.6,0.3-2.2c0.6-0.9,1.9-1,3.1-1.1c0.5,0,0.9-0.1,1.3-0.2c0.2,0.1,0.6,0.2,0.6,0.3c0,0.4,0.3,0.8,0.7,1c0.4,0.1,0.9,0,1.1-0.4c0.1-0.1,1.4-2.3,0.4-4.2c-0.8-1.4-2.5-2.1-5.2-2.1c-1.1-0.8-5.3-3.3-10.4-1.3c-5.2,2-7.5,7.3-8.3,9.6c-4-0.6-22.6-3.4-32.7-9.3c-0.5-0.2-2.2-0.9-3.1,0c-0.6,0.5-0.6,1.4-0.2,2.5c0.2,0.6,0.6,1.2,1.1,1.8c-5.4-2.5-12.7-5.9-18.2-9c-0.9-0.4-2.4-0.9-3.2-0.1c-0.5,0.5-0.5,1.3,0,2.3c0.1,0.2,0.2,0.4,0.3,0.7c0.5,1.2,1.3,2.7,3.1,4.5c-1.3-0.7-2.5-1.5-3.5-2.2c-4.8-3.8-5.5-4.1-6.4-3.5c-0.7,0.5-0.5,1.4-0.2,2.2l0.1,0.2c0.2,0.7,0.6,2,1.5,3.4c-0.7-0.5-1.4-0.6-1.9-0.3c-0.3,0.2-0.8,0.7-0.4,1.9c0.8,2.7,40.2,33.7,71.7,33.9c0.1,3.1-5.7,11.7-6.1,17.1c0,0.4,0.2,0.8,0.6,0.9c0.4,0.2,0.8,0.1,1.1-0.2c0,0,3.4,1.8,4.7,3.1c0.3,0.3,0.7,0.4,1,0.2c0.4-0.1,4-0.6,5.6,0.4c0.1,0.1,0.3,0.1,0.5,0.1s0.4-0.1,0.6-0.2c0.3-0.3,0.4-0.7,0.3-1.1l-0.5-1.4c0.3-0.3,0.8-0.8,1.2-1.4c0.2,0.3,4.5,2.5,4.6,2.6c0.2,0.2,0.4,0.3,0.7,0.3c0.1,0,0.2,0,0.2,0c0.3-0.1,0.6-0.3,0.7-0.7l0.5-2c1.4-0.7,3.3-1.7,4.2-0.4c0.2,0.3,0.5,0.4,0.8,0.4s0.6-0.2,0.8-0.4c0,0,0.7-1.1,1.1-1.8c1.5-2.8-0.8-4.5-1.9-5.3c-0.3-0.2-0.7-0.5-0.7-0.5c-0.2-0.5-0.1-1,0-1.4c0.9,0.6,2,1.2,3.2,1.5c0.1,0,0.1,0,0.2,0c0.3,0,0.6-0.1,0.8-0.4c0.2-0.3,61.3-31.7,60.6-33.4c-0.2-0.5-0.8-0.9-1.6-0.6c-0.2,0.1-0.6,0.3-1.2,0.5C494.9,132.8,496.8,129.2,497,128.9z"/></g></svg>