<svg xmlns="http://www.w3.org/2000/svg" viewBox="0 0 512 512"><path style="fill:#73AF00;" d="M503.2,423.7H8.8c-4.9,0-8.8-4-8.8-8.8V97.1c0-4.9,4-8.8,8.8-8.8h494.3c4.9,0,8.8,4,8.8,8.8v317.8	C512,419.8,508,423.7,503.2,423.7z"/><g><path style="fill:#FFFFFF;" d="M183.2,208.5c-4.8,0-9,1.4-11.8,3.5c-0.9-19.9-3-42.6-3-42.9c-0.2-1.9-1.9-3.3-3.8-3.1c-0.8,0.1-1.6,0.5-2.1,1l-12.3,6c-0.6,0.1-1.1,0.4-1.6,0.8c-1.1,0.9-1.5,2.4-1,3.7l5.6,16.8c0.4,1.3,0.1,2.6-0.8,3.6l-0.6,0.6c-0.9,0.9-2.3,1.1-3.4,0.6c-2.3-1.1-4.8-1.3-7.2-0.7c-0.5-11.2-1.7-22.3-4.3-30c-0.6-1.8-2.6-2.8-4.4-2.2c-1.8,0.6-25.6,13.5-27.5,13.9c-1.9,0.4-3.1,2.2-2.7,4.1l3.7,18.1c0,0-3.4,37.1-3.7,42.8c-0.3,0.9-2.4,9.4,0.1,16c1.6,4.3,4,5.3,5.8,5.5l10.2,2.6c7.3,0.9,13.3,1,19.7,0.7c4.6,0,9.2-1.4,13.6-4.1c11.6-7.2,20-22.8,20-37.2c0.1-1.3,0.2-2.7,0.2-4.2c2.8,2,6.9,3.2,11.4,3.2c8.4,0,15.3-4.3,15.3-9.6S191.6,208.5,183.2,208.5z"/><path style="fill:#FFFFFF;" d="M178.6,193.9c0.8,0,1.5-0.2,2.1-0.7l17.5-13.8c0.2-0.2,0.4-0.4,0.6-0.7c2.5-1.5,4.2-4.3,4.2-7.4c0-4.8-3.9-8.7-8.7-8.7c-4.8,0-8.7,3.9-8.7,8.7c0,2.7,1.2,5.1,3.2,6.7l-12.4,9.7c-1.5,1.2-1.8,3.4-0.6,4.9C176.6,193.5,177.6,193.9,178.6,193.9z"/><path style="fill:#FFFFFF;" d="M383.8,252.6c0.5,0,14.2-3,14.2-3c0,0,0.9-0.1,1.4-0.3c1.8-0.8,2.6-2.8,1.8-4.6c-3.2-7.4-9.1-17.3-15.9-27.4c-1.4-12.8-3.1-25.3-4.5-34.3c0.7,0.1-2.7-14.5-2.7-14.5c-0.9-1.4-34-2.7-35.1-1.5c-1,1.3-1,3.1,0,4.4c0.2,0.2,8.8,11,19,24.8c1.8,23,3,46.9,1.3,51.9c-0.3,0.9-0.8,2-1.3,2c-2.1,0.3-7.1-4.4-9.6-9.4c-1.5-2.9-3.5-3.2-4.7-3.2c-3.7,0.2-5.2,4.3-7.9,11.8c-1.9,5.4-4.5,1.7-4.5-0.2c0-5.2-7.2-81.1-7.2-81.1c-0.6-1.7-2.3-2.7-4-2.3c0,0-13.4,0.4-13.8,0.5c-1.7,0.4-2.9,2-2.7,3.7c2.4,24,6.9,70.8,6.9,76.2c0,4.8-8.6,14.3-22.4,21.2c-1.7,0.9-2.4,2.9-1.6,4.7c0.6,1.2,1.8,1.9,3.1,1.9c0.5,0,1.1-0.1,1.6-0.4c11.3-5.6,23.4-15.2,25.8-24.2l0.4,0c0,0.1,0,0.1,0,0.2c1,7.1,3.6,19.3,9.6,21.3c0.5,0.2,5-0.2,6.8-2c3.8-3.8,6.4-11,8.6-17.4c0.5-1.4,1.1-3.1,1.7-4.6c3.2,4.7,8.8,10.5,14.4,10c2-0.1,5.6-1.2,7.4-6.8c1.9-5.6,10.5-10,10.5-1.5C380.4,251.1,381.9,252.6,383.8,252.6z"/><path style="fill:#FFFFFF;" d="M410.3,234.3c-2.5-18.4-10.8-66.5-10.8-66.5c-1-1.3-2.7-1.7-4.2-1.1c-1.5,0.6-2.3,2.2-2,3.8c0.1,0.4,6.3,36.1,10.1,64.7c1.5,10.9-0.7,20.7-5.7,26.1c-3.2,3.5-7.6,5.1-12.8,4.8c-1.9-0.1-3.6,1.3-3.7,3.3c-0.1,2,1.3,3.6,3.3,3.7c0.6,0,1.2,0.1,1.7,0.1c6.6,0,12.3-2.4,16.6-7C409.3,259.1,412,247.5,410.3,234.3z"/><path style="fill:#FFFFFF;" d="M359.7,333.6H144c7,7,20.9,10.4,31.3,10.4c7.5,0,100.9,0,153.1,0v7c0,1.9,1.6,3.5,3.5,3.5h27.8c5.8,0,10.4-4.7,10.4-10.4C370.1,338.3,365.5,333.6,359.7,333.6z"/><path style="fill:#FFFFFF;" d="M210.7,201.7c4.1,0,7.6-3,9.1-7.3c2.1,6.8,6.9,11.6,12.5,11.6c4.4,0,8.4-3,10.8-7.6c2.4,3.2,5.7,5.1,9.3,5.1c3,0,13.1-4.3,13.9-4.4l14.7-1.5c1,1.6,2.1,3.2,3.1,4.8c1.5,14.8,2.7,33.7,2.7,54.4c0,1.9,1.6,3.5,3.5,3.5c1.6-0.3,21.2-20.6,20.5-22.4c-4.4-11.7-12.3-25.7-20.1-38.1c-1.9-18.7-4-30.6-4.1-30.9c-0.3-1.9-2.2-3.2-4-2.8c-1.7,0.3-19.9-0.2-25.7,0.5c-1.4-0.7-2.9-1-4.4-1c-4.4,0-8.4,3-10.8,7.6c-2.4-3.2-5.7-5.1-9.3-5.1c-6.6,0-12.1,6.6-13.3,15.4c-1.8-3.2-4.8-5.4-8.3-5.4c-5.4,0-9.9,5.3-9.9,11.8C200.8,196.4,205.3,201.7,210.7,201.7z"/><path style="fill:#FFFFFF;" d="M283,230.1c-0.9-0.6-2-1.2-3.1-1.2c0,0-8.2,1.3-6.5-2.9c0.6-1.5,1.2-4.4-1.3-7.8c-2.3-3.1-5.7-5.1-8.8-3.8c-29.7,12.3-56.6,3-56.9,3.1c-1.5,0.6-3.3,2.2-3.3,6.2c0,1.8,0.8,3.6,1.6,5.6c1.6,3.7,0.3,5.8-0.8,8c-6.4,11.9-30.5,23.5-37,26.4c-1.7,0.8-2.5,2.9-1.7,4.6c0.6,1.3,1.8,2,3.2,2c0.5,0,1-0.1,1.4-0.3c2-0.9,11.2-5.2,20.8-11.1c1.8,6,5.5,11.4,12.6,11.4c8.3,0,17.8-6.8,23.3-17c0.7,1.2,1.4,2.3,2.3,3.3c8.8,10.1,25.9,10.2,26.6,10.2c1.9,0,3.4-1.5,3.5-3.4c0.1-1.9-1.4-3.5-3.2-3.6c0,0-2.8-0.3-4.3-2.1c-0.9-1.1-1.3-2.6-1.1-4.6c0.4-4.3,14.2-7.5,26.4-7.7c1.5,0,2.7-0.9,3.2-2.3l3.5-9.8C283.8,232.2,283.6,231.1,283,230.1z"/></g></svg>