<svg xmlns="http://www.w3.org/2000/svg" viewBox="0 0 512 512"><path style="fill:#FF4B55;" d="M512,155.4H0V97.1c0-4.9,4-8.8,8.8-8.8h494.3c4.9,0,8.8,4,8.8,8.8L512,155.4L512,155.4z"/><path style="fill:#41479B;" d="M3.3,421.6l244.3-160.1c4-2.6,4-8.4,0-11L3.3,90.4C1.3,92,0,94.4,0,97.1v317.8	C0,417.6,1.3,420,3.3,421.6z"/><path style="fill:#F5F5F5;" d="M90.2,215l9.2,27.6l29.1,0.2c3.8,0,5.3,4.8,2.3,7.1l-23.4,17.3l8.8,27.8c1.1,3.6-3,6.6-6,4.4	l-23.7-16.9l-23.7,16.9c-3.1,2.2-7.2-0.8-6-4.4l8.8-27.8L42.1,250c-3-2.2-1.5-7.1,2.3-7.1l29.1-0.2l9.2-27.6	C83.9,211.4,89,211.4,90.2,215z"/><rect y="155.4" style="fill:#F5F5F5;" width="512" height="67.1"/><rect y="289.6" style="fill:#F5F5F5;" width="512" height="67.1"/><g><rect y="222.5" style="fill:#FF4B55;" width="512" height="67.1"/><path style="fill:#FF4B55;" d="M503.2,423.7H8.8c-4.9,0-8.8-4-8.8-8.8v-58.3h512v58.3C512,419.8,508,423.7,503.2,423.7z"/></g></svg>