<svg xmlns="http://www.w3.org/2000/svg" viewBox="0 0 512 512"><path style="fill:#41479B;" d="M503.2,423.7H8.8c-4.9,0-8.8-4-8.8-8.8V97.1c0-4.9,4-8.8,8.8-8.8h494.3c4.9,0,8.8,4,8.8,8.8v317.8	C512,419.8,508,423.7,503.2,423.7z"/><path style="fill:#F5F5F5;" d="M247.2,88.3h-15.3l-81.8,53.6V88.3h-44.1v53.6L24.2,88.3H8.8c-4.9,0-8.8,4-8.8,8.8v7l70.2,46H0v44.1	h70.2L0,240.2v7c0,4.9,4,8.8,8.8,8.8h15.3l81.8-53.6V256h44.1v-53.6l81.8,53.6h15.3c4.9,0,8.8-4,8.8-8.8v-7l-70.2-46H256v-44.1	h-70.2l70.2-46v-7C256,92.2,252,88.3,247.2,88.3z"/><g><polygon style="fill:#FF4B55;" points="256,158.9 141.2,158.9 141.2,88.3 114.8,88.3 114.8,158.9 0,158.9 0,185.4 114.8,185.4 
		114.8,256 141.2,256 141.2,185.4 256,185.4 	"/><path style="fill:#FF4B55;" d="M97.1,150.1L4.2,89.8C1.7,91.3,0,94,0,97.1v0.5l80.9,52.5L97.1,150.1L97.1,150.1z"/><path style="fill:#FF4B55;" d="M166.3,150.1l88.4-57.4c-1.5-2.6-4.2-4.4-7.5-4.4h-1.9l-95.2,61.8H166.3z"/><path style="fill:#FF4B55;" d="M89.5,194.2L1.3,251.5c1.5,2.7,4.3,4.5,7.6,4.5h1.7l95.2-61.8L89.5,194.2L89.5,194.2z"/><path style="fill:#FF4B55;" d="M255.9,247.9l-82.7-53.7H157l93.9,60.9C253.7,253.8,255.6,251.1,255.9,247.9z"/></g><g><path style="fill:#F5F5F5;" d="M130.7,304.1l6.7,22l21.4-8.5c1.8-0.7,3.5,1.4,2.4,3l-13,18.9l20,11.4c1.7,1,1.1,3.6-0.8,3.7l-22.9,1.6l3.5,22.7c0.3,1.9-2.1,3.1-3.4,1.6l-15.5-16.9l-15.5,16.9c-1.3,1.4-3.7,0.3-3.4-1.6l3.5-22.7l-22.9-1.6c-2-0.1-2.5-2.7-0.8-3.7l20-11.4l-13-18.9c-1.1-1.6,0.5-3.7,2.4-3l21.4,8.5l6.7-22C127.4,302.3,130.1,302.3,130.7,304.1z"/><path style="fill:#F5F5F5;" d="M393.3,147.7l3.3,10.7l10.4-4.2c0.9-0.4,1.7,0.7,1.2,1.4l-6.4,9.2l9.8,5.6c0.8,0.5,0.5,1.7-0.4,1.8l-11.2,0.8l1.7,11.1c0.1,0.9-1,1.5-1.7,0.8l-7.6-8.3l-7.6,8.3c-0.6,0.7-1.8,0.1-1.7-0.8l1.7-11.1l-11.2-0.8c-1-0.1-1.2-1.3-0.4-1.8l9.8-5.6l-6.4-9.2c-0.5-0.8,0.3-1.8,1.2-1.4l10.4,4.2l3.3-10.7C391.7,146.8,393,146.8,393.3,147.7z"/><path style="fill:#F5F5F5;" d="M320.7,230.2L324,241l10.4-4.2c0.9-0.4,1.7,0.7,1.2,1.4l-6.4,9.2l9.8,5.6c0.8,0.5,0.5,1.7-0.4,1.8l-11.2,0.8l1.7,11.1c0.1,0.9-1,1.5-1.7,0.8l-7.6-8.3l-7.6,8.3c-0.6,0.7-1.8,0.1-1.7-0.8l1.7-11.1l-11.2-0.8c-1-0.1-1.2-1.3-0.4-1.8l9.8-5.6l-6.4-9.2c-0.5-0.8,0.3-1.8,1.2-1.4l10.4,4.2l3.3-10.7C319.1,229.3,320.4,229.3,320.7,230.2z"/><path style="fill:#F5F5F5;" d="M461.9,194.9l3.3,10.7l10.4-4.2c0.9-0.4,1.7,0.7,1.2,1.4l-6.4,9.2l9.8,5.6c0.8,0.5,0.5,1.7-0.4,1.8l-11.2,0.8l1.7,11.1c0.1,0.9-1,1.5-1.7,0.8L461,224l-7.6,8.3c-0.6,0.7-1.8,0.1-1.7-0.8l1.7-11.1l-11.2-0.8c-1-0.1-1.2-1.3-0.4-1.8l9.8-5.6l-6.4-9.2c-0.5-0.8,0.3-1.8,1.2-1.4l10.4,4.2l3.3-10.7C460.4,194,461.7,194,461.9,194.9z"/><path style="fill:#F5F5F5;" d="M393.3,336.1l3.3,10.7l10.4-4.2c0.9-0.4,1.7,0.7,1.2,1.4l-6.4,9.2l9.8,5.6c0.8,0.5,0.5,1.7-0.4,1.8l-11.2,0.8l1.7,11.1c0.1,0.9-1,1.5-1.7,0.8l-7.6-8.3l-7.6,8.3c-0.6,0.7-1.8,0.1-1.7-0.8l1.7-11.1l-11.2-0.8c-1-0.1-1.2-1.3-0.4-1.8l9.8-5.6l-6.4-9.2c-0.5-0.8,0.3-1.8,1.2-1.4l10.4,4.2l3.3-10.7C391.7,335.2,393,335.2,393.3,336.1z"/><path style="fill:#F5F5F5;" d="M418.5,249.5l-2.6,7.8l-8.3,0.1c-1.1,0-1.5,1.4-0.7,2l6.6,4.9l-2.5,7.9c-0.3,1,0.8,1.9,1.7,1.2l6.7-4.8l6.7,4.8c0.9,0.6,2-0.2,1.7-1.2l-2.5-7.9l6.6-4.9c0.9-0.6,0.4-2-0.7-2l-8.3-0.1l-2.6-7.8C420.2,248.5,418.8,248.5,418.5,249.5z"/></g></svg>