<svg xmlns="http://www.w3.org/2000/svg" viewBox="0 0 512 512"><path style="fill:#73AF00;" d="M503.2,423.7H132.4V88.3h370.8c4.9,0,8.8,4,8.8,8.8v317.8C512,419.8,508,423.7,503.2,423.7z"/><g><path style="fill:#F5F5F5;" d="M132.4,423.7H8.8c-4.9,0-8.8-4-8.8-8.8V97.1c0-4.9,4-8.8,8.8-8.8h123.6V423.7z"/><path style="fill:#F5F5F5;" d="M412.1,302.2c-40.6,36.2-102.8,32.5-139-8.2c-36.1-40.6-32.4-103,8.2-139.2c0.1-0.1,0.1-0.1,0.2-0.2c1-0.8,0-2.4-1.2-1.9c-40.1,15.6-68.5,54.6-68.5,100.2c0,59.4,48.1,107.6,107.4,107.6c41,0,76.6-23.1,94.6-57C414.5,302.4,413.1,301.3,412.1,302.2C412.1,302.2,412.1,302.2,412.1,302.2z"/><path style="fill:#F5F5F5;" d="M359.8,172.6l14.1,15.8l19.6-8.2c2.5-1.1,5,1.7,3.6,4.1l-10.7,18.3l13.9,16.1c1.8,2.1-0.1,5.2-2.8,4.7l-20.7-4.5l-11,18.2c-1.4,2.4-5,1.5-5.3-1.2l-2.1-21.1l-20.7-4.8c-2.7-0.6-3-4.3-0.5-5.4l19.4-8.5l-1.8-21.1C354.6,172,358,170.5,359.8,172.6z"/></g></svg>