<svg xmlns="http://www.w3.org/2000/svg" viewBox="0 0 512 512"><path style="fill:#FF4B55;" d="M341.3,88.3h161.8c4.9,0,8.8,4,8.8,8.8v317.8c0,4.9-4,8.8-8.8,8.8H341.3V88.3z"/><path style="fill:#41479B;" d="M8.8,88.3h161.8v335.4H8.8c-4.9,0-8.8-4-8.8-8.8V97.1C0,92.2,4,88.3,8.8,88.3z"/><path style="fill:#FFAA5A;" d="M325.4,258.8c-0.1-0.5-0.5-1-1-1.3l-3-1.8l-1.8-1.1l-1.2-0.7c-0.3-0.2-0.7-0.3-1.1-0.3	c-0.7,0-1.4,0.4-1.8,1l-7,11.5v-39.7v-2.8v-14.2c0-5.9-4.8-10.6-10.6-10.6c-5.8,0-10.6,4.8-10.6,10.6v3.6c-0.2,0-0.5,0-0.7,0	c-6.7,0-12.3,4.9-13.3,11.3h-1.8c-0.7-5.6-2.6-22.2-2.6-29c0-9.9-7-13.5-13.5-13.5c-4.8,0-7.9,1.8-9.3,2.8H246	c0.1-0.2,0.1-0.5,0.1-0.7v-2.8c0-1.2-1-2.1-2.1-2.1h-0.7v-0.7c0.5-0.9-0.5-1.8-1.7-1.8h-2.8c-1.2,0-2.1,1-2.1,2.1v0.7H236	c-1.2,0-2.1,1-2.1,2.1v2.8c0,1.2,1,2.1,2.1,2.1h0.7v12c0,1.2,1,2.1,2.1,2.1h2.8c1.2,0,2.1-1,2.1-2.1v-2.1l2.3,1.7l1.8,1.3l-5.1,25.3	h-4.8c-1-6.4-6.6-11.3-13.3-11.3c-0.2,0-0.5,0-0.7,0v-3.6c0-5.9-4.8-10.6-10.6-10.6c-5.8,0-10.6,4.8-10.6,10.6v14.2v2.8v30.2	c-1.1-1.2-2.4-2.2-4-2.9c-0.1,0-0.2-0.1-0.3-0.1c-1.1-0.4-2.4-0.7-3.7-0.7c-5.8,0-10.5,4.7-10.5,10.5s4.7,10.5,10.5,10.5	c0.5,0,1,0,1.5-0.1c0.3,0.2,0.5,0.4,0.8,0.5c-1.3,1.7-2,3.8-2,6.1c0,4.7,3.1,8.7,7.4,10v32.1c0,0.9,0.5,1.6,1.3,2	c0.3,0.1,0.5,0.2,0.8,0.2c0.6,0,1.1-0.2,1.5-0.6c0.3-0.3,7-7,8.7-14.9c0.7-0.9,9.8,12.1,9.8,12.1c0.4,0.4,29.8,20,29.8,20	c0.4,0.3,0.8,0.4,1.2,0.4c0.4,0,0.9-0.1,1.2-0.4c0,0,32-19.7,32.5-20.2c0,0,7.5-9.6,7.6-10c2.3,6.9,7.8,12.5,8.1,12.8	c0.4,0.4,1,0.6,1.5,0.6c0.3,0,0.5-0.1,0.8-0.2c0.8-0.3,1.3-1.1,1.3-2v-37.5l5.9-9.8c0.1,0,0.3,0,0.4,0c0.7,0,1.4-0.4,1.8-1l8.5-14	C325.5,259.9,325.6,259.3,325.4,258.8z M288,306.3l0.1-0.2l0,0L288,306.3z M292.6,294.8C292.6,294.8,292.6,294.7,292.6,294.8	c0,0.4,0,0.8,0.1,1.2C292.6,295.6,292.6,295.2,292.6,294.8z"/><path style="fill:#FF4B55;" d="M224.6,226.8c0,0,0,40.4,0,53.8c0,14.2,20.5,12.3,31.2,22.7c10.6-10.4,31.2-8.5,31.2-22.7	c0-13.5,0-53.8,0-53.8H224.6L224.6,226.8z"/><path style="fill:#41479B;" d="M224.6,257.9c0,9,0,17.7,0,22.7c0,14.2,20.5,12.3,31.2,22.7c10.6-10.4,31.2-8.5,31.2-22.7	c0-5,0-13.7,0-22.7H224.6L224.6,257.9z"/><path style="fill:#73AF00;" d="M234.2,322l-12.7-19.7c1.3-1.4,2.2-3.2,2.2-5.3c0-4.2-3.4-7.6-7.6-7.6c-0.9,0-1.8,0.2-2.6,0.5	l-2.3-3.5c1.6-1.4,2.6-3.4,2.6-5.7c0-4.2-3.4-7.6-7.6-7.6c-1.1,0-2.2,0.3-3.2,0.7l-3.2-4.9c1.3-1.4,2.1-3.2,2.1-5.2	c0-4.2-3.4-7.6-7.6-7.6s-7.6,3.4-7.6,7.6s3.4,7.6,7.6,7.6c1.2,0,2.2-0.3,3.2-0.7l3.2,4.9c-1.3,1.4-2.1,3.2-2.1,5.3	c0,4.2,3.4,7.6,7.6,7.6c0.9,0,1.8-0.2,2.6-0.5l2.3,3.5c-1.6,1.4-2.6,3.4-2.6,5.7c0,4.2,3.4,7.6,7.6,7.6c1.1,0,2.2-0.2,3.1-0.7	l12.7,19.6L234.2,322z"/><rect x="170.7" y="88.3" style="fill:#FFE15A;" width="170.7" height="335.5"/><polygon style="fill:#FFE15A;" points="250.1,297.6 236,325.9 255.8,340.1 255.8,300.4 "/><polygon style="fill:#FFE15A;" points="236.1,320.9 231,312.9 245.8,301.5 "/><polygon style="fill:#FFE15A;" points="225.9,304.7 225,288.4 232.7,294.1 "/><polygon style="fill:#FFE15A;" points="276.1,320.9 281.3,312.9 266.4,301.5 "/><polygon style="fill:#FFE15A;" points="286.3,304.7 287.2,288.4 279.5,294.1 "/><g><path style="fill:#FFE15A;" d="M261.5,266.4c0,0,16.9-14.3,16.9-22.6c0-11.4-11.3-14.2-11.3-14.2s10.6,15.8-3.9,22l-1.7-2.2h-2.9H253h-2.9l-1.7,2.2c-14.5-6.3-3.9-22-3.9-22s-11.3,2.8-11.3,14.2c0,8.2,16.9,22.6,16.9,22.6v17l-2.8,5.7l8.5,5.7l8.5-5.7l-2.8-5.7V266.4z"/><path style="fill:#FFE15A;" d="M274.3,276.8c0.6-3.2,3.3-5.5,6.4-5.8c-0.6-0.3-1.3-0.6-2.1-0.8c-4-0.8-7.8,1.8-8.6,5.8s1.8,7.8,5.8,8.6c0.7,0.1,1.5,0.1,2.2,0.1C275.3,283.1,273.7,280,274.3,276.8z"/><circle style="fill:#FFE15A;" cx="256" cy="238.2" r="6.3"/><circle style="fill:#FFE15A;" cx="237.6" cy="276.9" r="6.3"/></g><circle style="fill:#FF4B55;" cx="220.8" cy="303.6" r="2.8"/><circle style="fill:#FF4B55;" cx="210" cy="287" r="2.8"/><circle style="fill:#FF4B55;" cx="199.2" cy="270.3" r="2.8"/></svg>