<svg xmlns="http://www.w3.org/2000/svg" viewBox="0 0 512 512"><path style="fill:#73AF00;" d="M0,311.9h512v103c0,4.9-4,8.8-8.8,8.8H8.8c-4.9,0-8.8-4-8.8-8.8V311.9z"/><path style="fill:#FF4B55;" d="M8.8,88.3h494.3c4.9,0,8.8,4,8.8,8.8v103H0v-103C0,92.2,4,88.3,8.8,88.3z"/><path style="fill:#73AF00;" d="M244.6,206c0,0-0.2,0.3-0.7,0.8c-0.4,0.5-0.9,1.2-1.5,2.3c-1.1,2-2.3,5.1-2.4,8.8c0,1.8,0.4,4,1,5.7	c0.7,1.9,1.8,3.8,3.2,5.4c1.4,1.7,3.3,2.9,5.3,3.9c1,0.5,2.1,0.8,3.2,1.1c0.5,0.2,1.1,0.2,1.7,0.3c0.3,0.1,0.6,0,0.8,0.1h0.4h0.2	h0.1h0.1l0,0c-0.1,0,0.2,0-0.2,0c0.7,0,1.5,0,2.1-0.1c0.5-0.1,0.9-0.1,1.5-0.3c1.1-0.3,2.2-0.6,3.2-1.1c2-0.9,3.9-2.2,5.3-3.9	c1.4-1.6,2.5-3.5,3.2-5.4c0.6-2,1-3.8,1-5.7c0-3.7-1.2-6.8-2.4-8.8c-0.6-1-1.1-1.8-1.5-2.3s-0.6-0.8-0.6-0.8l-0.1-0.1	c-0.4-0.5-0.3-1.2,0.2-1.6c0.4-0.3,0.9-0.3,1.3-0.1c0,0,0.3,0.2,0.9,0.6c0.6,0.4,1.5,1,2.4,2c1.9,1.9,4.5,5.3,5.4,10.3	c0.4,2.4,0.5,5.2-0.1,8.1c-0.6,2.9-1.8,5.8-3.8,8.4c-1.9,2.6-4.5,4.9-7.6,6.4c-1.5,0.8-3.2,1.4-4.9,1.8c-0.8,0.2-1.8,0.3-2.8,0.5	c-0.9,0.1-1.5,0.1-2.2,0.1H256h-0.1h-0.2h-0.3h-0.7c-0.4,0-0.9,0-1.3-0.1c-0.9-0.2-1.7-0.2-2.6-0.5c-1.7-0.4-3.4-1-4.9-1.8	c-3.1-1.5-5.7-3.8-7.6-6.4c-2-2.6-3.2-5.5-3.8-8.4c-0.6-3-0.6-5.6-0.1-8.1c0.9-4.9,3.4-8.4,5.4-10.3c1-1,1.9-1.6,2.5-2.1	c0.6-0.4,0.9-0.6,0.9-0.6c0.5-0.3,1.2-0.2,1.6,0.4C244.9,205.1,244.9,205.6,244.6,206z"/><path style="fill:#FF4B55;" d="M253.8,293.9v14c0,1.4-1.7,2.1-2.7,1.1l-0.8-0.8c-0.6-0.6-1-1.5-1-2.4v-11.9L253.8,293.9L253.8,293.9	z"/><path style="fill:#FFE15A;" d="M247.1,291.6v10.1c0,0.6,0.2,1.2,0.7,1.6l1.5,1.5v-13.3L247.1,291.6L247.1,291.6z"/><path style="fill:#FF4B55;" d="M258.2,293.9v14c0,1.4,1.7,2.1,2.7,1.1l0.8-0.8c0.6-0.6,1-1.5,1-2.4v-11.9L258.2,293.9L258.2,293.9z"/><path style="fill:#FFE15A;" d="M264.9,291.6v10.1c0,0.6-0.2,1.2-0.7,1.6l-1.5,1.5v-13.3L264.9,291.6L264.9,291.6z"/><path style="fill:#3CC8FF;" d="M256,295c-14.1,0-25.5-12.9-25.5-28.8s11.4-28.8,25.5-28.8s25.5,12.9,25.5,28.8S270.1,295,256,295z"/><path style="fill:#825546;" d="M262.9,231l26.3-8.1l-14-5.2c-2.5-0.9-5.1-1.4-7.8-1.4h-2.6c-1.2,0-2.2,1-2.2,2.2v2.2h-2.8	c-0.8-1.3-2.2-2.2-3.8-2.2s-3,0.9-3.8,2.2h-2.9v-2.2c0-1.2-1-2.2-2.2-2.2h-2.6c-2.7,0-5.3,0.5-7.8,1.4l-14,5.2L249,231	c1.3,0.4,1.9,1.9,1.3,3.1l-3.3,6.5h17.7l-3.3-6.5C261,232.9,261.6,231.4,262.9,231z"/><rect y="200.1" style="fill:#FFE15A;" width="512" height="111.8"/><g><path style="fill:#FF4B55;" d="M298.1,250v-9.3l-6.6,4.8V234l-8.9,6.5V252l6.7-4.9v25.6c0,10.5-8.5,19-19,19c-1.6,0-3.1-0.2-4.6-0.6l10,6.6c3.1,1.9,6.5,2.9,10.1,2.9c10.5,0,19-8.5,19-19v-36.5L298.1,250z"/><path style="fill:#FF4B55;" d="M246.3,291.1c-1.5,0.4-3,0.6-4.6,0.6c-10.5,0-19-8.5-19-19v-25.6l6.7,4.9v-11.5l-8.9-6.5v11.5l-6.6-4.8v9.3l-6.7-4.9v36.5c0,10.5,8.5,19,19,19c3.6,0,7-1,10.1-2.9L246.3,291.1z"/></g><g><path style="fill:#FFBE5A;" d="M226.9,291.4l-2.9-2.9c-1.8-1.8-1.7-4.7,0.1-6.4l9.1-8.9l6.6,10.6l-6.6,7.4C231.6,293.1,228.7,293.1,226.9,291.4z"/><circle style="fill:#FFBE5A;" cx="225.5" cy="289.9" r="2.2"/></g><g><path style="fill:#FFBE5A;" d="M285.5,291.5l2.6-2.6c1.6-1.6,1.5-4.2-0.1-5.7l-9.6-9.1l-6.1,9.8l7.5,7.4C281.3,293,283.9,293,285.5,291.5z"/><ellipse style="fill:#FFBE5A;" cx="286.8" cy="290.2" rx="2" ry="1.9"/></g></svg>