<svg xmlns="http://www.w3.org/2000/svg" viewBox="0 0 512 512"><path style="fill:#41479B;" d="M0,311.9h512v103c0,4.9-4,8.8-8.8,8.8H8.8c-4.9,0-8.8-4-8.8-8.8V311.9z"/><path style="fill:#41479B;" d="M317.2,154.6c-5.6,0.3-11.1,0.9-16.5,1.8c-1.3,5.6-1.4,5.6,0-0.1c-4.4-3.2-9-6.2-13.8-9	c-5.4,1.2-10.7,2.7-15.9,4.3c-0.4,5.2-0.4,5.1,0,0c-4.8-2.4-9.8-4.7-15-6.8c-5.2,2.1-10.2,4.3-15,6.8c-5.2-1.7-10.5-3.1-15.9-4.3	c-4.8,2.8-9.4,5.9-13.7,9c-5.3-0.8-11.2-1.4-16.6-1.8c-4.3,3.6-8.5,7.3-12.4,11.1c3.9,9.5,7.9,19,11.8,28.5	c4-1.6,32.9-10.4,61.8-10.4s57.8,8.9,61.8,10.6c4-9.6,8-19.1,11.9-28.6C325.7,161.8,321.5,158.1,317.2,154.6z"/><rect y="200.1" style="fill:#F5F5F5;" width="512" height="111.8"/><ellipse style="fill:#F5F5F5;" cx="256.5" cy="303.6" rx="58.3" ry="41.9"/><g><path style="fill:#FF4B55;" d="M511.9,97.1c0-4.8-3.9-8.8-8.8-8.8H8.8C4,88.3,0,92.2,0,97.1v103h189.8v2.9v79.4c0,36.5,29.7,66.2,66.2,66.2s66.2-29.7,66.2-66.2V203v-2.9h189.7V97.1z M256,344.2c-0.4,0-0.8,0-1.3,0C255.2,344.2,255.6,344.2,256,344.2C256,344.2,256,344.2,256,344.2z M317.8,259.5h-24.6v28.3h24.4c-1.1,12.2-5.5,20.9-9.8,28.2h-14.7v-28.2h-24.7V316H293v15.8c2-1.5,1.8-1.3-0.3,0.3c-7.1,5.2-15.3,9-24.2,10.8l-0.1-26.9h-24.7v27c-9.2-1.9-17.6-5.8-24.8-11.2V316h-14.7c-6-9.2-9.6-20-9.9-31.7c0,1.2,0.1,2.4,0.3,3.6l24.4-0.1v-28.2h-24.7v-28.4h24.7V203h24.7v28.2h24.7V203h24.8v28.2h24.7V259.5z"/><rect x="218.9" y="231.3" style="fill:#FF4B55;" width="24.7" height="28.2"/><rect x="268.4" y="231.3" style="fill:#FF4B55;" width="24.7" height="28.2"/><rect x="243.6" y="259.5" style="fill:#FF4B55;" width="24.7" height="28.2"/><rect x="218.9" y="287.8" style="fill:#FF4B55;" width="24.7" height="28.2"/></g><g><path style="fill:#FFE15A;" d="M206.8,172.8c0.7,2.5-1,5.1-3.8,6s-5.7-0.2-6.6-2.6c-0.9-2.4,0.8-5.2,3.7-6.2C203.1,169,206.1,170.3,206.8,172.8z"/><path style="fill:#FFE15A;" d="M314.1,177c-1.3,2.3-4.3,2.9-6.9,1.6c-2.6-1.3-3.9-4.1-2.9-6.5c1-2.3,4.2-3.1,7-1.8C314.1,171.6,315.3,174.7,314.1,177z"/><path style="fill:#FFE15A;" d="M254.6,162.5c0,2-1.8,3.7-4.1,3.8s-4.2-1.5-4.3-3.5s1.7-3.8,4.1-3.9C252.6,158.9,254.6,160.5,254.6,162.5z"/><path style="fill:#FFE15A;" d="M265.9,162.8c-0.1,2-2.1,3.6-4.3,3.5c-2.3-0.1-4.1-1.7-4.1-3.8c0-2,2-3.7,4.3-3.6C264.1,159,266,160.8,265.9,162.8z"/><path style="fill:#FFE15A;" d="M260,172.1c-0.1,2-1.9,3.7-4,3.7c-2.2,0-3.9-1.6-4-3.7c-0.1-2,1.7-3.8,4-3.7C258.3,168.3,260.1,170,260,172.1z"/></g></svg>