<svg xmlns="http://www.w3.org/2000/svg" viewBox="0 0 512 512"><path style="fill:#F5F5F5;" d="M503.2,423.7H8.8c-4.9,0-8.8-4-8.8-8.8V97.1c0-4.9,4-8.8,8.8-8.8h494.3c4.9,0,8.8,4,8.8,8.8v317.8	C512,419.8,508,423.7,503.2,423.7z"/><path style="fill:#FF4B55;" d="M305,182.5c-40.6-27-95.4-16-122.4,24.5c-13.6,20.2-8,47.7,12.2,61.2c20.3,13.5,47.6,8,61.2-12.3	c13.5-20.3,40.9-25.7,61.2-12.3c20.3,13.5,25.8,41,12.2,61.2C356.5,264.4,345.5,209.6,305,182.5"/><path style="fill:#41479B;" d="M182.6,207c-13.6,20.2-8,47.7,12.2,61.2c20.3,13.5,47.6,8,61.2-12.3c13.5-20.3,40.9-25.7,61.2-12.3	c20.3,13.5,25.8,41,12.2,61.2c-27,40.6-81.8,51.5-122.3,24.5C166.6,302.4,155.6,247.6,182.6,207"/><g><path style="fill:#464655;" d="M367.1,137.7l40.8,61.3c1.4,2,0.8,4.8-1.2,6.1l-4.1,2.7c-2,1.4-4.8,0.8-6.1-1.2l-40.8-61.3c-1.4-2-0.8-4.8,1.2-6.1l4.1-2.7C363,135.2,365.7,135.7,367.1,137.7z"/><path style="fill:#464655;" d="M384.4,126.4l40.8,61.3c1.4,2,0.8,4.8-1.2,6.1l-4.1,2.7c-2,1.4-4.8,0.8-6.1-1.2L373,134c-1.4-2-0.8-4.8,1.2-6.1l4.1-2.7C380.3,123.8,383.1,124.4,384.4,126.4z"/><path style="fill:#464655;" d="M350.1,149.4l40.8,61.3c1.4,2,0.8,4.8-1.2,6.1l-4.1,2.7c-2,1.4-4.8,0.8-6.1-1.2L338.6,157c-1.4-2-0.8-4.8,1.2-6.1l4.1-2.7C346,146.8,348.7,147.4,350.1,149.4z"/><path style="fill:#464655;" d="M132.7,294l40.8,61.2c1.4,2,0.8,4.8-1.2,6.1l-4.1,2.7c-2,1.4-4.8,0.8-6.1-1.2l-40.8-61.2c-1.4-2-0.8-4.8,1.2-6.1l4.1-2.7C128.6,291.4,131.4,292,132.7,294z"/><path style="fill:#464655;" d="M116.1,306l40.8,61.2c1.4,2,0.8,4.8-1.2,6.1l-4.1,2.7c-2,1.4-4.8,0.8-6.1-1.2l-40.8-61.2c-1.4-2-0.8-4.8,1.2-6.1l4.1-2.7C112,303.4,114.7,304,116.1,306z"/><path style="fill:#464655;" d="M98.4,316.9l40.8,61.2c1.4,2,0.8,4.8-1.2,6.1l-4.1,2.7c-2,1.4-4.8,0.8-6.1-1.2L87,324.5c-1.4-2-0.8-4.8,1.2-6.1l4.1-2.7C94.3,314.3,97.1,314.8,98.4,316.9z"/><path style="fill:#464655;" d="M121.3,210.4l40.8-61.3c1.4-2,4.1-2.6,6.1-1.2l4.1,2.7c2,1.4,2.6,4.1,1.2,6.1L132.7,218c-1.4,2-4.1,2.6-6.1,1.2l-4.1-2.7C120.5,215.2,119.9,212.5,121.3,210.4z"/><path style="fill:#464655;" d="M104.1,199l40.8-61.3c1.4-2,4.1-2.6,6.1-1.2l4.1,2.7c2,1.4,2.6,4.1,1.2,6.1l-40.8,61.3c-1.4,2-4.1,2.6-6.1,1.2l-4.1-2.7C103.3,203.8,102.8,201,104.1,199z"/><path style="fill:#464655;" d="M87,187.6l40.8-61.3c1.4-2,4.1-2.6,6.1-1.2l4.1,2.7c2,1.4,2.6,4.1,1.2,6.1l-40.8,61.3c-1.4,2-4.1,2.6-6.1,1.2l-4.1-2.7C86.2,192.4,85.6,189.7,87,187.6z"/><path style="fill:#464655;" d="M373.3,377.1l40.8-61.3c1.4-2,4.1-2.6,6.1-1.2l4.1,2.7c2,1.4,2.6,4.1,1.2,6.1l-40.8,61.2c-1.4,2-4.1,2.6-6.1,1.2l-4.1-2.7C372.5,381.9,371.9,379.1,373.3,377.1z"/><path style="fill:#464655;" d="M356.1,365.7l40.8-61.3c1.4-2,4.1-2.6,6.1-1.2l4.1,2.7c2,1.4,2.6,4.1,1.2,6.1l-40.8,61.3c-1.4,2-4.1,2.6-6.1,1.2l-4.1-2.7C355.3,370.4,354.8,367.7,356.1,365.7z"/><path style="fill:#464655;" d="M339,354.3l40.8-61.3c1.4-2,4.1-2.6,6.1-1.2l4.1,2.7c2,1.4,2.6,4.1,1.2,6.1l-40.8,61.3c-1.4,2-4.1,2.6-6.1,1.2l-4.1-2.7C338.2,359.1,337.6,356.3,339,354.3z"/></g></svg>