<svg viewBox="0 0 24 25" xmlns="http://www.w3.org/2000/svg"><path d="M3 3C3 2.1 3.6 1.5 4.5 1.5C5.4 1.5 6 2.1 6 3C6 3.9 5.4 4.5 4.5 4.5C3.6 4.5 3 3.9 3 3ZM4.5 0C2.85 0 1.5 1.35 1.5 3C1.5 4.65 2.85 6 4.5 6C6.15 6 7.5 4.65 7.5 3C7.5 1.35 6.15 0 4.5 0ZM14.25 9H7.5V23.25C7.5 23.7 7.2 24 6.75 24C6.3 24 6 23.7 6 23.25V9H2.25C2.175 9 2.0625 9.0375 1.95 9.075C1.8375 9.1125 1.725 9.15 1.65 9.15C1.65 9.225 1.6125 9.3375 1.575 9.45C1.5375 9.5625 1.5 9.675 1.5 9.75V23.25C1.5 23.7 1.2 24 0.75 24C0.3 24 0 23.7 0 23.25V9.75C0 9.15 0.3 8.55 0.6 8.1C1.05 7.8 1.65 7.5 2.25 7.5H6.75H14.25C14.7 7.5 15 7.8 15 8.25C15 8.7 14.7 9 14.25 9ZM11.25 3C10.8 3 10.5 3.3 10.5 3.75C10.5 4.2 10.8 4.5 11.25 4.5H14.25H22.5V16.5H11.25C10.8 16.5 10.5 16.8 10.5 17.25C10.5 17.7 10.8 18 11.25 18H15.3001L18.15 23.6997C18.45 23.9997 18.9 24.1497 19.2 23.9997C19.5 23.6997 19.65 23.2497 19.5 22.9497L17.0251 18H23.25C23.7 18 24 17.7 24 17.25V3.75C24 3.3 23.7 3 23.25 3H15V0.75C15 0.3 14.7 0 14.25 0C13.8 0 13.5 0.3 13.5 0.75V3H11.25Z"/></svg>