<svg viewBox="0 0 24 24" xmlns="http://www.w3.org/2000/svg"><path d="M17.8906 10.1875C16.1045 10.1875 14.6562 8.02047 14.6562 6.23438C14.6562 4.44828 16.1045 3 17.8906 3C19.6767 3 21.125 4.44828 21.125 6.23438C21.125 8.02047 19.6767 10.1875 17.8906 10.1875ZM7.54688 11.9062C9.73044 11.9062 11.5 9.41794 11.5 7.23438C11.5 5.05081 9.73044 3.28125 7.54688 3.28125C5.36331 3.28125 3.59375 5.05081 3.59375 7.23438C3.59375 9.41794 5.36331 11.9062 7.54688 11.9062ZM22.2025 12.4358C21.2746 12.0656 19.7738 11.625 17.8907 11.625C16.5028 11.625 15.3247 11.8651 14.4285 12.1389C16.5085 13.0884 17.5313 14.9162 17.5313 16.7892V17.375H24.0001V15.1023C24.0001 13.9171 23.295 12.8706 22.2025 12.4358ZM7.54688 13.3438C10.0575 13.3438 11.9442 14.0064 13.0848 14.562C14.3053 15.1564 15.0938 16.4236 15.0938 17.7892V20.5312H0V17.7892C0 16.4236 0.788469 15.1564 2.00891 14.562C3.14956 14.0064 5.03628 13.3438 7.54688 13.3438Z"/></svg>