<svg xmlns="http://www.w3.org/2000/svg" viewBox="0 0 16 16"><g><g><path d="M3,2C2.4,2,2,2.4,2,3s0.4,1,1,1s1-0.4,1-1S3.6,2,3,2z M1,3c0-1.1,0.9-2,2-2s2,0.9,2,2S4.1,5,3,5S1,4.1,1,3z"/><path d="M2.5,7C2.3,7,2.1,7,1.9,7.1C1.7,7.2,1.6,7.3,1.4,7.4C1.3,7.6,1.2,7.7,1.1,7.9C1,8.1,1,8.3,1,8.5l0,0V14h3v-3.5C4,10.2,4.2,10,4.5,10C4.8,10,5,10.2,5,10.5v4C5,14.8,4.8,15,4.5,15h-4C0.2,15,0,14.8,0,14.5v-6c0-0.3,0.1-0.7,0.2-1C0.3,7.2,0.5,7,0.7,6.7C1,6.5,1.2,6.3,1.5,6.2C1.8,6.1,2.2,6,2.5,6c1.1,0,1.8,0.5,2.4,1.2c0.2,0.2,0.3,0.4,0.5,0.5c0.5,0.6,1,1.2,1.9,1.8c0.2,0.2,0.3,0.5,0.1,0.7c-0.2,0.2-0.5,0.3-0.7,0.1c-0.9-0.7-1.5-1.4-2-2C4.5,8.2,4.3,8,4.2,7.9C3.6,7.3,3.2,7,2.5,7L2.5,7z"/><path d="M13.5,6c0.3,0,0.7,0.1,1,0.2c0.3,0.1,0.6,0.3,0.8,0.5c0.2,0.2,0.4,0.5,0.5,0.8c0.1,0.3,0.2,0.6,0.2,1v6c0,0.3-0.2,0.5-0.5,0.5h-4c-0.3,0-0.5-0.2-0.5-0.5v-4c0-0.3,0.2-0.5,0.5-0.5c0.3,0,0.5,0.2,0.5,0.5V14h3V8.5l0,0c0-0.2,0-0.4-0.1-0.6c-0.1-0.2-0.2-0.3-0.3-0.5c-0.1-0.1-0.3-0.2-0.5-0.3C13.9,7,13.7,7,13.5,7l0,0c-0.7,0-1.1,0.3-1.7,0.9c-0.1,0.1-0.3,0.3-0.4,0.5c-0.5,0.6-1.1,1.3-2,2c-0.2,0.2-0.5,0.1-0.7-0.1c-0.2-0.2-0.1-0.5,0.1-0.7c0.8-0.7,1.4-1.3,1.9-1.8c0.2-0.2,0.3-0.4,0.5-0.5C11.7,6.5,12.4,6,13.5,6z"/><path d="M13,2c-0.6,0-1,0.4-1,1s0.4,1,1,1s1-0.4,1-1S13.6,2,13,2z M11,3c0-1.1,0.9-2,2-2s2,0.9,2,2s-0.9,2-2,2S11,4.1,11,3z"/></g></g></svg>