<svg viewBox="0 0 24 24" xmlns="http://www.w3.org/2000/svg"><path d="M12 9C9.45 9 7.5 7.05 7.5 4.5C7.5 1.95 9.45 0 12 0C14.55 0 16.5 1.95 16.5 4.5C16.5 7.05 14.55 9 12 9Z"/><path d="M15 24H9V18L6 15V10.5H18V15L15 18V24Z"/><path d="M3 7.5C1.35 7.5 0 6.15 0 4.5C0 2.85 1.35 1.5 3 1.5C4.65 1.5 6 2.85 6 4.5C6 6.15 4.65 7.5 3 7.5Z"/><path d="M4.5 15.6V9H0V13.5L1.5 15V21H6V17.1L4.5 15.6Z"/><path d="M21 7.5C22.65 7.5 24 6.15 24 4.5C24 2.85 22.65 1.5 21 1.5C19.35 1.5 18 2.85 18 4.5C18 6.15 19.35 7.5 21 7.5Z"/><path d="M19.5 15.6V9H24V13.5L22.5 15V21H18V17.1L19.5 15.6Z"/></svg>