<svg xmlns="http://www.w3.org/2000/svg" viewBox="0 0 16 16"><path d="M3.8,6.5C3,6.5,2.3,7.2,2.3,8c0,0.8,0.7,1.5,1.5,1.5c0.8,0,1.5-0.7,1.5-1.5C5.2,7.2,4.6,6.5,3.8,6.5z M1.3,8	c0-1.4,1.1-2.5,2.5-2.5S6.2,6.6,6.2,8s-1.1,2.5-2.5,2.5S1.3,9.3,1.3,8z M12.2,6.5c-0.8,0-1.5,0.7-1.5,1.5c0,0.8,0.7,1.5,1.5,1.5	c0.8,0,1.5-0.7,1.5-1.5C13.7,7.2,13,6.5,12.2,6.5z M9.8,8c0-1.4,1.1-2.5,2.5-2.5s2.5,1.1,2.5,2.5s-1.1,2.5-2.5,2.5S9.8,9.3,9.8,8z"/><g><g><path d="M12.2,12.7c0.1,0,0.1,0,0.2,0c0.1,0,0.1,0,0.1,0c1,0,1.6,0.4,2,0.8l0,0c0.3,0.2,0.4,0.5,0.4,0.9V15H9.6v-0.6c0-0.3,0.1-0.7,0.4-0.9l0,0C10.4,13.2,11.2,12.8,12.2,12.7 M12.2,11.7C12.2,11.7,12.2,11.7,12.2,11.7c-1.5,0.1-2.5,0.7-2.9,1c-0.5,0.4-0.8,1-0.8,1.7V15c0,0.6,0.4,1,1,1H15c0.6,0,1-0.4,1-1v-0.6c0-0.7-0.3-1.3-0.8-1.7c-0.6-0.4-1.3-0.9-2.6-1l-0.2,0L12.2,11.7C12.2,11.7,12.2,11.7,12.2,11.7L12.2,11.7z"/></g></g><g><g><path d="M3.7,12.7c0.1,0,0.1,0,0.2,0c0.1,0,0.1,0,0.1,0c1,0,1.6,0.4,2,0.8l0,0c0.3,0.2,0.4,0.5,0.4,0.9V15H1v-0.6c0-0.3,0.1-0.7,0.4-0.9l0,0C1.8,13.2,2.6,12.8,3.7,12.7 M3.7,11.7C3.6,11.7,3.6,11.7,3.7,11.7c-1.5,0.1-2.5,0.7-2.9,1c-0.5,0.4-0.8,1-0.8,1.7V15c0,0.6,0.4,1,1,1h5.4c0.6,0,1-0.4,1-1v-0.6c0-0.7-0.3-1.3-0.8-1.7c-0.6-0.4-1.3-0.9-2.6-1l-0.2,0L3.7,11.7C3.7,11.7,3.7,11.7,3.7,11.7L3.7,11.7z"/></g></g><path d="M8,0c0.3,0,0.5,0.2,0.5,0.5v5C8.5,5.8,8.3,6,8,6S7.5,5.8,7.5,5.5v-5C7.5,0.2,7.7,0,8,0z"/><path d="M5,3c0-0.3,0.2-0.5,0.5-0.5h5C10.8,2.5,11,2.7,11,3s-0.2,0.5-0.5,0.5h-5C5.2,3.5,5,3.3,5,3z"/></svg>