<svg viewBox="0 0 16 16" xmlns="http://www.w3.org/2000/svg"><path d="M1 8C1 4.13401 4.13401 1 8 1C11.866 1 15 4.13401 15 8C15 11.866 11.866 15 8 15C4.13401 15 1 11.866 1 8ZM8 0C3.58172 0 0 3.58172 0 8C0 12.4183 3.58172 16 8 16C12.4183 16 16 12.4183 16 8C16 3.58172 12.4183 0 8 0ZM4.09937 8.88914C4.03815 8.61987 3.77023 8.45122 3.50096 8.51244C3.23169 8.57367 3.06304 8.84159 3.12426 9.11086C3.37556 10.2161 3.9949 11.2031 4.88076 11.9101C5.76661 12.6172 6.8664 13.0023 7.99982 13.0023C9.13324 13.0023 10.233 12.6172 11.1189 11.9101C12.0047 11.2031 12.6241 10.2161 12.8754 9.11086C12.9366 8.84159 12.7679 8.57367 12.4987 8.51244C12.2294 8.45122 11.9615 8.61987 11.9003 8.88914C11.6992 9.77331 11.2037 10.5629 10.4951 11.1286C9.78638 11.6942 8.90655 12.0023 7.99982 12.0023C7.09308 12.0023 6.21325 11.6942 5.50457 11.1286C4.79589 10.5629 4.30041 9.77331 4.09937 8.88914ZM5 5C4.73478 5 4.48043 5.10536 4.29289 5.29289C4.10536 5.48043 4 5.73478 4 6C4 6.27614 3.77614 6.5 3.5 6.5C3.22386 6.5 3 6.27614 3 6C3 5.46957 3.21071 4.96086 3.58579 4.58579C3.96086 4.21071 4.46957 4 5 4C5.53043 4 6.03914 4.21071 6.41421 4.58579C6.78929 4.96086 7 5.46957 7 6C7 6.27614 6.77614 6.5 6.5 6.5C6.22386 6.5 6 6.27614 6 6C6 5.73478 5.89464 5.48043 5.70711 5.29289C5.51957 5.10536 5.26522 5 5 5ZM10.2929 5.29289C10.4804 5.10536 10.7348 5 11 5C11.2652 5 11.5196 5.10536 11.7071 5.29289C11.8946 5.48043 12 5.73478 12 6C12 6.27614 12.2239 6.5 12.5 6.5C12.7761 6.5 13 6.27614 13 6C13 5.46957 12.7893 4.96086 12.4142 4.58579C12.0391 4.21071 11.5304 4 11 4C10.4696 4 9.96086 4.21071 9.58579 4.58579C9.21071 4.96086 9 5.46957 9 6C9 6.27614 9.22386 6.5 9.5 6.5C9.77614 6.5 10 6.27614 10 6C10 5.73478 10.1054 5.48043 10.2929 5.29289Z"/></svg>