<svg xmlns="http://www.w3.org/2000/svg" viewBox="0 0 24 24"><path d="M22.8,8.7L22.8,8.7c0.7,0,1.2-0.5,1.2-1.1V7.2c0-0.6-0.5-1.1-1.2-1.1H19V1.2C19,0.5,18.5,0,17.9,0h-0.4c-0.6,0-1.1,0.5-1.1,1.2v4.9H7.6V1.2C7.6,0.5,7.1,0,6.5,0H6.1C5.5,0,5,0.5,5,1.2v4.9H1.2C0.5,6.1,0,6.6,0,7.2v0.4c0,0.6,0.5,1.1,1.2,1.1H5v6.5H1.2c-0.7,0-1.2,0.5-1.2,1.1v0.4c0,0.6,0.5,1.1,1.2,1.1H5v4.9C5,23.5,5.5,24,6.1,24h0.4c0.6,0,1.1-0.5,1.1-1.2v-4.9h8.8v4.9c0,0.7,0.5,1.2,1.1,1.2h0.4c0.6,0,1.1-0.5,1.1-1.2v-4.9h3.8c0.7,0,1.2-0.5,1.2-1.1v-0.4c0-0.6-0.5-1.1-1.2-1.1H19V8.7H22.8z M16.4,15.3H7.6V8.7h8.8V15.3z"/></svg>