<svg viewBox="0 0 24 24" xmlns="http://www.w3.org/2000/svg"><path fill-rule="evenodd" clip-rule="evenodd" d="M12 22.5C17.799 22.5 22.5 17.799 22.5 12C22.5 6.20101 17.799 1.5 12 1.5C6.20101 1.5 1.5 6.20101 1.5 12C1.5 17.799 6.20101 22.5 12 22.5ZM12 24C18.6274 24 24 18.6274 24 12C24 5.37258 18.6274 0 12 0C5.37258 0 0 5.37258 0 12C0 18.6274 5.37258 24 12 24ZM10.7541 17.2032C10.7541 17.9901 11.2787 18.5147 12.0656 18.5147C12.8525 18.5147 13.377 17.9901 13.377 17.2032C13.377 16.4163 12.8525 15.8917 12.0656 15.8917C11.2787 15.8917 10.7541 16.4163 10.7541 17.2032ZM13.377 13.2688C13.377 13.0065 13.377 12.8753 14.0328 12.4819C14.1009 12.4274 14.1761 12.37 14.2562 12.309C14.9469 11.7824 16 10.9796 16 9.33433C16 7.10482 14.2951 5.3999 12.0656 5.3999C10.623 5.3999 9.31148 6.18679 8.65574 7.36712L8 8.54744L10.2295 9.85892L10.8852 8.67859C11.1475 8.28515 11.541 8.02285 12.0656 8.02285C12.8525 8.02285 13.377 8.54744 13.377 9.33433C13.377 9.72777 13.2459 9.85892 12.5902 10.2524C11.8033 10.777 10.7541 11.5638 10.7541 13.2688V14.5802H13.377V13.2688Z"/></svg>