<svg viewBox="0 0 24 24" xmlns="http://www.w3.org/2000/svg"><g clip-path="url(#clip0)"><path d="M21.7614 10.5L12.0002 3.85072L2.23904 10.5L0.750244 7.39366L11.2558 0.236196C11.7181 -0.0787321 12.2839 -0.0787321 12.7446 0.236196L23.2502 7.39366L21.7614 10.5ZM6.00024 21V24H18.0002V21C18.0002 21 16.5002 18 12.0002 18C7.50024 18 6.00024 21 6.00024 21ZM15.0002 13.5C15.0002 15.1569 13.6571 16.5 12.0002 16.5C10.3434 16.5 9.00024 15.1569 9.00024 13.5C9.00024 11.8431 10.3434 10.5 12.0002 10.5C13.6571 10.5 15.0002 11.8431 15.0002 13.5Z"/></g><defs><clipPath id="clip0"><path d="M0 0H24V24H0V0Z"/></clipPath></defs></svg>