<svg viewBox="0 0 16 16" xmlns="http://www.w3.org/2000/svg"><path d="M2 0.5C2 0.223858 2.22386 0 2.5 0H13.5C13.7761 0 14 0.223858 14 0.5C14 0.776142 13.7761 1 13.5 1H2.5C2.22386 1 2 0.776142 2 0.5ZM4.5 6C4.77614 6 5 6.22386 5 6.5V8H11V6.5C11 6.22386 11.2239 6 11.5 6C11.7761 6 12 6.22386 12 6.5V8.5C12 8.77614 11.7761 9 11.5 9H4.5C4.22386 9 4 8.77614 4 8.5V6.5C4 6.22386 4.22386 6 4.5 6ZM0.5 3C0.223858 3 0 3.22386 0 3.5V14.5C0 14.7761 0.223858 15 0.5 15H15.5C15.7761 15 16 14.7761 16 14.5V3.5C16 3.22386 15.7761 3 15.5 3H0.5ZM1 14V4H15V14H1Z"/></svg>