<svg viewBox="0 0 16 16" xmlns="http://www.w3.org/2000/svg"><path d="M6.00001 0.5C6.00001 0.223858 6.22387 0 6.50001 0H9.50001C9.77615 0 10 0.223858 10 0.5V5H11.5C11.6962 5 11.8743 5.11474 11.9553 5.29339C12.0364 5.47205 12.0055 5.68161 11.8763 5.82925L8.3763 9.82925C8.28135 9.93776 8.14419 10 8.00001 10C7.85583 10 7.71866 9.93776 7.62372 9.82925L4.12372 5.82925C3.99453 5.68161 3.96362 5.47205 4.04469 5.29339C4.12576 5.11474 4.30382 5 4.50001 5H6.00001V0.5ZM7.00001 1V5.5C7.00001 5.77614 6.77615 6 6.50001 6H5.60189L8.00001 8.7407L10.3981 6H9.50001C9.22387 6 9.00001 5.77614 9.00001 5.5V1H7.00001Z"/><path d="M1.5 1C1.22414 1 1 1.22414 1 1.5V14.5C1 14.7759 1.22414 15 1.5 15H14.5C14.7759 15 15 14.7759 15 14.5V1.5C15 1.22414 14.7759 1 14.5 1H12.5C12.2239 1 12 0.776142 12 0.5C12 0.223858 12.2239 0 12.5 0H14.5C15.3281 0 16 0.671858 16 1.5V14.5C16 15.3281 15.3281 16 14.5 16H1.5C0.671858 16 0 15.3281 0 14.5V1.5C0 0.671858 0.671858 0 1.5 0H3.5C3.77614 0 4 0.223858 4 0.5C4 0.776142 3.77614 1 3.5 1H1.5Z"/><path d="M0 12.5C0 12.2239 0.223858 12 0.5 12H15.5C15.7761 12 16 12.2239 16 12.5C16 12.7761 15.7761 13 15.5 13H0.5C0.223858 13 0 12.7761 0 12.5Z"/></svg>