<svg viewBox="0 0 24 24" xmlns="http://www.w3.org/2000/svg"><path d="M23.9431 4.96291C23.9065 4.87445 23.8522 4.79158 23.7803 4.71967C23.6339 4.57322 23.4419 4.5 23.25 4.5H14.25C13.8358 4.5 13.5 4.83579 13.5 5.25C13.5 5.66421 13.8358 6 14.25 6H21.4393L12.75 14.6893L7.28033 9.21967C6.98744 8.92678 6.51256 8.92678 6.21967 9.21967L0.21967 15.2197C-0.0732233 15.5126 -0.0732233 15.9874 0.21967 16.2803C0.512563 16.5732 0.987437 16.5732 1.28033 16.2803L6.75 10.8107L12.2197 16.2803C12.5126 16.5732 12.9874 16.5732 13.2803 16.2803L22.5 7.06066V14.25C22.5 14.6642 22.8358 15 23.25 15C23.6642 15 24 14.6642 24 14.25V5.25C24 5.14831 23.9798 5.05134 23.9431 4.96291Z"/></svg>