<svg viewBox="0 0 16 16" xmlns="http://www.w3.org/2000/svg"><path d="M0 0.5C0 0.223858 0.223858 0 0.5 0H3.5C3.77614 0 4 0.223858 4 0.5V3.5C4 3.77614 3.77614 4 3.5 4H0.5C0.223858 4 0 3.77614 0 3.5V0.5ZM1 1V3H3V1H1ZM6 0.5C6 0.223858 6.22386 0 6.5 0H9.5C9.77614 0 10 0.223858 10 0.5V3.5C10 3.77614 9.77614 4 9.5 4H6.5C6.22386 4 6 3.77614 6 3.5V0.5ZM7 1V3H9V1H7ZM12.5 0C12.2239 0 12 0.223858 12 0.5V3.5C12 3.77614 12.2239 4 12.5 4H15.5C15.7761 4 16 3.77614 16 3.5V0.5C16 0.223858 15.7761 0 15.5 0H12.5ZM13 3V1H15V3H13ZM0 6.5C0 6.22386 0.223858 6 0.5 6H3.5C3.77614 6 4 6.22386 4 6.5V9.5C4 9.77614 3.77614 10 3.5 10H0.5C0.223858 10 0 9.77614 0 9.5V6.5ZM1 7V9H3V7H1ZM6.5 6C6.22386 6 6 6.22386 6 6.5V9.5C6 9.77614 6.22386 10 6.5 10H9.5C9.77614 10 10 9.77614 10 9.5V6.5C10 6.22386 9.77614 6 9.5 6H6.5ZM7 9V7H9V9H7ZM12 6.5C12 6.22386 12.2239 6 12.5 6H15.5C15.7761 6 16 6.22386 16 6.5V9.5C16 9.77614 15.7761 10 15.5 10H12.5C12.2239 10 12 9.77614 12 9.5V6.5ZM13 7V9H15V7H13ZM0.5 12C0.223858 12 0 12.2239 0 12.5V15.5C0 15.7761 0.223858 16 0.5 16H3.5C3.77614 16 4 15.7761 4 15.5V12.5C4 12.2239 3.77614 12 3.5 12H0.5ZM1 15V13H3V15H1ZM6 12.5C6 12.2239 6.22386 12 6.5 12H9.5C9.77614 12 10 12.2239 10 12.5V15.5C10 15.7761 9.77614 16 9.5 16H6.5C6.22386 16 6 15.7761 6 15.5V12.5ZM7 13V15H9V13H7ZM12.5 12C12.2239 12 12 12.2239 12 12.5V15.5C12 15.7761 12.2239 16 12.5 16H15.5C15.7761 16 16 15.7761 16 15.5V12.5C16 12.2239 15.7761 12 15.5 12H12.5ZM13 15V13H15V15H13Z"/></svg>