<svg viewBox="0 0 24 25" xmlns="http://www.w3.org/2000/svg"><path d="M3.10665 5.82752H4.57515V0.478516H3.28065L1.44165 1.97852L2.19165 2.90102L2.79165 2.40002C2.91206 2.29352 3.02437 2.1782 3.12765 2.05502C3.11365 2.34102 3.10665 2.65602 3.10665 3.00002V5.82752ZM1.35004 14.8665H5.23354L5.23804 13.677H3.21304V13.6395C3.80604 13.1075 4.19354 12.7465 4.37554 12.5565C4.53917 12.39 4.68589 12.2076 4.81354 12.012C4.91849 11.8492 5.00027 11.6725 5.05654 11.487C5.11091 11.2974 5.13769 11.1009 5.13604 10.9035C5.13857 10.6337 5.0602 10.3694 4.91104 10.1445C4.75442 9.91349 4.5347 9.7323 4.27804 9.62255C3.98466 9.49569 3.66762 9.43279 3.34804 9.43805C3.09544 9.43486 2.84344 9.46358 2.59804 9.52355C2.3842 9.57715 2.1784 9.65886 1.98604 9.76655C1.73667 9.91897 1.50346 10.0964 1.29004 10.296L2.08504 11.226C2.26497 11.0651 2.46043 10.9224 2.66854 10.8C2.82293 10.7061 2.99933 10.6543 3.18004 10.65C3.31755 10.6412 3.4534 10.684 3.56104 10.77C3.60629 10.8118 3.64183 10.8631 3.66515 10.9201C3.68847 10.9771 3.69902 11.0385 3.69604 11.1C3.69677 11.2115 3.67429 11.3218 3.63004 11.424C3.56549 11.556 3.48488 11.6794 3.39004 11.7915C3.27454 11.934 3.03154 12.201 2.65804 12.591L1.35004 13.914V14.8665ZM5.05509 19.7341C5.06282 20.0466 4.95614 20.3512 4.75509 20.5906C4.52025 20.8469 4.21414 21.0271 3.87609 21.1081V21.1291C4.77009 21.2411 5.21709 21.6641 5.21709 22.3981C5.22457 22.6278 5.17424 22.8557 5.07072 23.061C4.9672 23.2662 4.8138 23.4421 4.62459 23.5726C4.13436 23.8851 3.55792 24.0347 2.97759 24.0001C2.70986 24.0015 2.44247 23.9809 2.17809 23.9386C1.90563 23.8901 1.63878 23.8143 1.38159 23.7121V22.5121C1.60866 22.6288 1.84887 22.7179 2.09709 22.7776C2.31694 22.8325 2.5425 22.8612 2.76909 22.8631C3.00825 22.8795 3.24757 22.8335 3.46359 22.7296C3.53502 22.6868 3.59316 22.625 3.63156 22.5511C3.66996 22.4772 3.68711 22.3941 3.68109 22.3111C3.68938 22.187 3.64842 22.0647 3.56709 21.9706C3.46389 21.8785 3.33722 21.8167 3.20109 21.7921C2.98465 21.7466 2.76372 21.7259 2.54259 21.7306H2.21259V20.6446H2.55009C3.28359 20.6446 3.65259 20.4571 3.65259 20.0806C3.65627 20.0182 3.64301 19.956 3.61423 19.9006C3.58545 19.8451 3.54221 19.7985 3.48909 19.7656C3.35548 19.6912 3.20385 19.6554 3.05109 19.6621C2.67154 19.6741 2.30322 19.7937 1.98909 20.0071L1.38909 19.0396C1.65387 18.8532 1.94791 18.7122 2.25909 18.6226C2.5919 18.5352 2.93503 18.4933 3.27909 18.4981C3.73707 18.4727 4.19189 18.5878 4.58259 18.8281C4.73198 18.9264 4.85379 19.0612 4.93648 19.2197C5.01917 19.3783 5.06 19.5553 5.05509 19.7341ZM9.75024 2.99951C9.33603 2.99951 9.00024 3.3353 9.00024 3.74951C9.00024 4.16373 9.33603 4.49951 9.75024 4.49951H23.2502C23.6645 4.49951 24.0002 4.16373 24.0002 3.74951C24.0002 3.3353 23.6645 2.99951 23.2502 2.99951H9.75024ZM9.00024 12.7495C9.00024 12.3353 9.33603 11.9995 9.75024 11.9995H23.2502C23.6645 11.9995 24.0002 12.3353 24.0002 12.7495C24.0002 13.1637 23.6645 13.4995 23.2502 13.4995H9.75024C9.33603 13.4995 9.00024 13.1637 9.00024 12.7495ZM9.75024 20.9995C9.33603 20.9995 9.00024 21.3353 9.00024 21.7495C9.00024 22.1637 9.33603 22.4995 9.75024 22.4995H23.2502C23.6645 22.4995 24.0002 22.1637 24.0002 21.7495C24.0002 21.3353 23.6645 20.9995 23.2502 20.9995H9.75024Z"/></svg>