<svg viewBox="0 0 16 16" xmlns="http://www.w3.org/2000/svg"><path d="M1 2C1 1.44772 1.44772 1 2 1C2.55228 1 3 1.44772 3 2C3 2.55228 2.55228 3 2 3C1.44772 3 1 2.55228 1 2ZM2 0C0.89543 0 0 0.89543 0 2C0 3.10457 0.89543 4 2 4C3.10457 4 4 3.10457 4 2C4 0.89543 3.10457 0 2 0ZM1 8C1 7.44772 1.44772 7 2 7C2.55228 7 3 7.44772 3 8C3 8.55228 2.55228 9 2 9C1.44772 9 1 8.55228 1 8ZM2 6C0.89543 6 0 6.89543 0 8C0 9.10457 0.89543 10 2 10C3.10457 10 4 9.10457 4 8C4 6.89543 3.10457 6 2 6ZM2 13C1.44772 13 1 13.4477 1 14C1 14.5523 1.44772 15 2 15C2.55228 15 3 14.5523 3 14C3 13.4477 2.55228 13 2 13ZM0 14C0 12.8954 0.89543 12 2 12C3.10457 12 4 12.8954 4 14C4 15.1046 3.10457 16 2 16C0.89543 16 0 15.1046 0 14ZM6.5 2C6.22386 2 6 2.22386 6 2.5C6 2.77614 6.22386 3 6.5 3H15.5C15.7761 3 16 2.77614 16 2.5C16 2.22386 15.7761 2 15.5 2H6.5ZM6 8.5C6 8.22386 6.22386 8 6.5 8H15.5C15.7761 8 16 8.22386 16 8.5C16 8.77614 15.7761 9 15.5 9H6.5C6.22386 9 6 8.77614 6 8.5ZM6.5 14C6.22386 14 6 14.2239 6 14.5C6 14.7761 6.22386 15 6.5 15H15.5C15.7761 15 16 14.7761 16 14.5C16 14.2239 15.7761 14 15.5 14H6.5Z"/></svg>