<svg viewBox="0 0 24 24" xmlns="http://www.w3.org/2000/svg"><path d="M23.7852 0.224588C23.8547 0.295346 23.9073 0.376463 23.9431 0.462912C23.9798 0.551342 24 0.648308 24 0.75V9.75C24 10.1642 23.6642 10.5 23.25 10.5C22.8358 10.5 22.5 10.1642 22.5 9.75V2.56066L16.2803 8.78033C15.9874 9.07322 15.5126 9.07322 15.2197 8.78033C14.9268 8.48744 14.9268 8.01256 15.2197 7.71967L21.4393 1.5H14.25C13.8358 1.5 13.5 1.16421 13.5 0.75C13.5 0.335786 13.8358 0 14.25 0H23.2499H23.25C23.4546 0 23.6401 0.0819399 23.7754 0.214796L23.7852 0.224588ZM0.75 13.5C1.16421 13.5 1.5 13.8358 1.5 14.25V21.4393L7.71967 15.2197C8.01256 14.9268 8.48744 14.9268 8.78033 15.2197C9.07322 15.5126 9.07322 15.9874 8.78033 16.2803L2.56066 22.5H9.75C10.1642 22.5 10.5 22.8358 10.5 23.25C10.5 23.6642 10.1642 24 9.75 24H0.75C0.648308 24 0.551342 23.9798 0.462912 23.9431C0.376463 23.9073 0.295346 23.8547 0.224588 23.7852L0.214796 23.7754C0.0819399 23.6401 0 23.4546 0 23.25V23.2499V14.25C0 13.8358 0.335786 13.5 0.75 13.5ZM0.462912 0.0569091C0.375106 0.093239 0.2928 0.146963 0.221263 0.218082L0.21967 0.21967L0.218082 0.221263C0.083292 0.356858 0 0.543702 0 0.75V0.75013V9.75C0 10.1642 0.335786 10.5 0.75 10.5C1.16421 10.5 1.5 10.1642 1.5 9.75V2.56066L7.71967 8.78033C8.01256 9.07322 8.48744 9.07322 8.78033 8.78033C9.07322 8.48744 9.07322 8.01256 8.78033 7.71967L2.56066 1.5H9.75C10.1642 1.5 10.5 1.16421 10.5 0.75C10.5 0.335786 10.1642 0 9.75 0H0.75013H0.75C0.648308 0 0.551342 0.0202391 0.462912 0.0569091ZM23.25 13.5C23.6642 13.5 24 13.8358 24 14.25V23.25C24 23.3517 23.9798 23.4487 23.9431 23.5371C23.9076 23.6228 23.8555 23.7034 23.7869 23.7737L23.7737 23.7869C23.6385 23.9187 23.4538 24 23.25 24H14.25C13.8358 24 13.5 23.6642 13.5 23.25C13.5 22.8358 13.8358 22.5 14.25 22.5H21.4393L15.2197 16.2803C14.9268 15.9874 14.9268 15.5126 15.2197 15.2197C15.5126 14.9268 15.9874 14.9268 16.2803 15.2197L22.5 21.4393V14.25C22.5 13.8358 22.8358 13.5 23.25 13.5Z"/></svg>