<svg xmlns="http://www.w3.org/2000/svg" viewBox="0 0 16 16"><path d="M15.8,0.1C15.6,0,15.4,0,15.3,0L8.9,3H3.5C1.6,3,0,4.6,0,6.5C0,8.3,1.4,9.8,3.2,10l2.5,4.9l0,0	c0.5,1,1.7,1.4,2.7,0.9c1-0.5,1.4-1.7,0.9-2.7l0,0l-0.9-1.8c-0.1-0.2-0.4-0.3-0.7-0.2c-0.2,0.1-0.3,0.4-0.2,0.7l0.9,1.8l0,0	C8.7,14,8.5,14.6,8,14.9c-0.5,0.3-1.1,0.1-1.3-0.4l0,0L4.3,10h4.6l6.4,3c0.2,0.1,0.3,0.1,0.5,0c0.1-0.1,0.2-0.3,0.2-0.4v-12	C16,0.3,15.9,0.2,15.8,0.1z M15,11.7L9.2,9C9.1,9,9.1,9,9,9H3.5h0c0,0,0,0,0,0C2.1,9,1,7.9,1,6.5C1,5.1,2.1,4,3.5,4H9	c0.1,0,0.1,0,0.2,0L15,1.3V11.7z"/></svg>