<svg viewBox="0 0 24 24" xmlns="http://www.w3.org/2000/svg"><path d="M23.0999 12.6008C23.3999 12.4508 23.5499 12.1508 23.5499 12.0008C23.5499 11.7008 23.3999 11.4008 23.0999 11.4008L2.54988 1.2008C2.24988 1.0508 1.94988 1.2008 1.64988 1.3508C1.49988 1.5008 1.34988 1.9508 1.49988 2.2508L4.04988 9.1508C4.19988 9.6008 4.64988 9.7508 4.94988 9.6008C5.39988 9.4508 5.54988 9.0008 5.39988 8.5508L3.44988 3.4508L21.1499 12.0008L3.44988 20.5508L6.29988 12.7508H12.1499C12.5999 12.7508 12.8999 12.4508 12.8999 12.0008C12.8999 11.5508 12.5999 11.2508 12.1499 11.2508H5.84988C5.54988 11.2508 5.24988 11.4008 5.09988 11.7008L1.49988 21.7508C1.34988 22.0508 1.49988 22.3508 1.64988 22.5008C1.94988 22.6508 2.24988 22.8008 2.54988 22.6508L23.0999 12.6008Z"/></svg>