<svg viewBox="0 0 24 24" xmlns="http://www.w3.org/2000/svg"><path d="M0 7.99805V15.5059H1.32984V12.9195H3.08901C4.66492 12.9195 5.56545 11.8043 5.56545 10.3698C5.56545 8.98234 4.71204 7.99805 3.2356 7.99805H0ZM1.32984 9.25459H3.01571C3.77487 9.25459 4.21466 9.69962 4.21466 10.4221C4.21466 11.1865 3.72251 11.6734 2.93194 11.6734H1.32984V9.25459Z"/><path d="M9.27225 9.77815C7.57068 9.77815 6.49215 10.9195 6.49215 12.6839C6.49215 14.4483 7.57068 15.5897 9.27225 15.5897C10.9686 15.5897 12.0471 14.4483 12.0471 12.6839C12.0471 10.9195 10.9686 9.77815 9.27225 9.77815ZM9.27225 10.8776C10.2199 10.8776 10.7592 11.553 10.7592 12.6839C10.7592 13.82 10.2199 14.4902 9.27225 14.4902C8.32461 14.4902 7.7801 13.82 7.7801 12.6839C7.7801 11.553 8.32461 10.8776 9.27225 10.8776Z"/><path d="M18.2565 11.2651C17.9267 10.3645 17.0209 9.77292 15.6387 9.77292C14.178 9.77292 13.1885 10.4274 13.1885 11.5687C13.1885 12.8829 14.4921 13.0452 15.6021 13.1761C16.3979 13.2703 17.089 13.3541 17.089 13.8619C17.089 14.2912 16.5812 14.553 15.911 14.553C15.1937 14.553 14.555 14.2651 14.2984 13.6368L13.1099 14.0138C13.5079 15.0399 14.6073 15.5897 15.8796 15.5897C17.3403 15.5897 18.377 14.8567 18.377 13.6996C18.377 12.3907 17.0681 12.2598 15.9686 12.1446C15.1675 12.0609 14.4712 11.9876 14.4712 11.4588C14.4712 11.0556 14.8901 10.8148 15.5812 10.8148C16.3613 10.8148 16.8691 11.1132 17.0838 11.6368L18.2565 11.2651Z"/><path d="M23.7958 9.87763H21.9267V8.17606L20.6335 8.51114V9.87763H19.2094V11.0242H20.6335V13.7886C20.6335 14.9457 21.2356 15.5897 22.6126 15.5897C23.0628 15.5897 23.5602 15.5164 24 15.4064L23.9005 14.3279C23.5864 14.4012 23.2723 14.4431 23 14.4431C21.9267 14.4431 21.9267 13.7834 21.9267 13.5059V11.0242H23.7958V9.87763Z"/></svg>