<svg viewBox="0 0 24 24" xmlns="http://www.w3.org/2000/svg"><path d="M12 12.7C14.0163 12.7 15.5 11.1206 15.5 9.42V6.28C15.5 4.57938 14.0163 3 12 3C9.98365 3 8.5 4.57938 8.5 6.28V9.42C8.5 11.1206 9.98365 12.7 12 12.7ZM18.5 9.42C18.5 12.874 15.575 15.7 12 15.7C8.425 15.7 5.5 12.874 5.5 9.42V6.28C5.5 2.826 8.425 0 12 0C15.575 0 18.5 2.826 18.5 6.28V9.42Z"/><path d="M23.8501 10.6497C24.0001 9.8997 23.4001 9.1497 22.6501 8.9997C21.9001 8.8497 21.0001 9.4497 21.0001 10.1997C20.2501 14.6997 16.5001 17.9996 12.0001 17.9996C7.50009 17.9996 3.75009 14.6997 3.15009 10.3497C3.00009 9.4497 2.25009 8.8497 1.35009 8.9997C0.600092 9.1497 9.21348e-05 9.8997 0.150092 10.6497C0.900092 16.0496 5.25009 20.0996 10.5001 20.8496V23.9996H13.5001V20.8496C18.7501 20.2496 23.1001 16.0496 23.8501 10.6497Z"/></svg>