<svg viewBox="0 0 24 24" xmlns="http://www.w3.org/2000/svg"><path d="M12 1.5C9.10071 1.5 6.75 3.85071 6.75 6.75V7.5H9C9.41421 7.5 9.75 7.83579 9.75 8.25C9.75 8.66421 9.41421 9 9 9H6.75V9.75C6.75 12.6493 9.10071 15 12 15C14.8993 15 17.25 12.6493 17.25 9.75V9H15C14.5858 9 14.25 8.66421 14.25 8.25C14.25 7.83579 14.5858 7.5 15 7.5H17.25V6.75C17.25 3.85071 14.8993 1.5 12 1.5ZM18.75 8.25V9.75C18.75 13.4777 15.7277 16.5 12 16.5C8.27229 16.5 5.25 13.4777 5.25 9.75V8.25V6.75C5.25 3.02229 8.27229 0 12 0C15.7277 0 18.75 3.02229 18.75 6.75V8.25ZM1.5 9C1.91421 9 2.25 9.33579 2.25 9.75C2.25 15.1348 6.61521 19.5 12 19.5C17.3848 19.5 21.75 15.1348 21.75 9.75C21.75 9.33579 22.0858 9 22.5 9C22.9142 9 23.25 9.33579 23.25 9.75C23.25 15.7112 18.6135 20.5895 12.75 20.9754V23.25C12.75 23.6642 12.4142 24 12 24C11.5858 24 11.25 23.6642 11.25 23.25V20.9754C5.38647 20.5895 0.75 15.7112 0.75 9.75C0.75 9.33579 1.08579 9 1.5 9Z"/></svg>