<svg viewBox="0 0 24 24" xmlns="http://www.w3.org/2000/svg"><path d="M12 15C15.3 15 18 12.3 18 9V6C18 2.7 15.3 0 12 0C8.7 0 6 2.7 6 6V9C6 12.3 8.7 15 12 15Z"/><path d="M23.8501 10.6497C24.0001 9.8997 23.4001 9.1497 22.6501 8.9997C21.9001 8.8497 21.0001 9.4497 21.0001 10.1997C20.2501 14.6997 16.5001 17.9996 12.0001 17.9996C7.50009 17.9996 3.75009 14.6997 3.15009 10.3497C3.00009 9.4497 2.25009 8.8497 1.35009 8.9997C0.600092 9.1497 9.21348e-05 9.8997 0.150092 10.6497C0.900092 16.0496 5.25009 20.0996 10.5001 20.8496V23.9996H13.5001V20.8496C18.7501 20.2496 23.1001 16.0496 23.8501 10.6497Z"/></svg>