<svg viewBox="0 0 24 24" xmlns="http://www.w3.org/2000/svg"><g clip-path="url(#clip0)"><path d="M23.6999 19.05C23.3999 19.35 23.0999 19.5 22.6499 19.5L6.1499 2.85003C7.0499 1.65003 8.3999 0.750029 9.8999 0.300029C11.3999 -0.149971 13.0499 2.85562e-05 14.5499 0.450029C15.8999 0.900029 17.2499 1.95003 18.1499 3.15003C19.0499 4.35003 19.4999 6.00003 19.4999 7.50003V12C19.4999 12.7857 19.7285 13.4571 19.9862 14.2137L19.9864 14.2142C20.0238 14.3242 20.0619 14.4359 20.0999 14.55C20.5499 15.3 20.9999 15.9 21.7499 16.5H22.4999C22.9499 16.5 23.2499 16.65 23.5499 16.95C23.8499 17.25 23.9999 17.55 23.9999 18C24.1499 18.45 23.9999 18.75 23.6999 19.05ZM9 21H15C15 21.75 14.7 22.5 14.1 23.1C13.5 23.7 12.75 24 12 24C11.25 24 10.5 23.7 9.9 23.1C9.3 22.5 9 21.75 9 21ZM4.5 7.6499V11.9999C4.5 12.7856 4.27137 13.457 4.0137 14.2136L4.01369 14.2136C3.9762 14.3237 3.9381 14.4356 3.9 14.5499C3.45 15.2999 3 16.0499 2.25 16.4999H1.5C1.05 16.4999 0.75 16.6499 0.45 16.9499C0.15 17.2499 0 17.5499 0 17.9999C0 18.4499 0.15 18.7499 0.45 19.0499C0.75 19.3499 1.05 19.4999 1.5 19.4999H16.35L4.5 7.6499ZM22.2 23.25H22.5C22.65 23.25 22.8 23.25 22.95 23.1C23.1 23.1 23.25 22.95 23.25 22.8V22.35C23.25 22.2 23.25 22.05 23.1 21.9L2.1 0.9C2.025 0.9 1.9125 0.8625 1.8 0.825C1.6875 0.7875 1.575 0.75 1.5 0.75C1.425 0.75 1.3125 0.7875 1.2 0.825C1.0875 0.8625 0.975 0.9 0.9 0.9C0.9 0.975 0.8625 1.0875 0.825 1.2C0.7875 1.3125 0.75 1.425 0.75 1.5C0.75 1.575 0.7875 1.6875 0.825 1.8C0.8625 1.9125 0.9 2.025 0.9 2.1L21.9 23.1C21.975 23.1 22.0125 23.1375 22.05 23.175C22.0875 23.2125 22.125 23.25 22.2 23.25Z"/></g><defs><clipPath id="clip0"><path d="M0 0H24V24H0V0Z"/></clipPath></defs></svg>