<svg viewBox="0 0 16 16" xmlns="http://www.w3.org/2000/svg"><path d="M15.8536 0.146447C16.0488 0.341709 16.0488 0.658291 15.8536 0.853553L7.85355 8.85355C7.65829 9.04882 7.34171 9.04882 7.14645 8.85355C6.95118 8.65829 6.95118 8.34171 7.14645 8.14645L15.1464 0.146447C15.3417 -0.0488155 15.6583 -0.0488155 15.8536 0.146447Z"/><path d="M8 0.5C8 0.223858 8.22386 0 8.5 0H15.5C15.7761 0 16 0.223858 16 0.5V7.5C16 7.77614 15.7761 8 15.5 8C15.2239 8 15 7.77614 15 7.5V1H8.5C8.22386 1 8 0.776142 8 0.5Z"/><path d="M1.5 4C1.22414 4 1 4.22414 1 4.5V14.5C1 14.7759 1.22414 15 1.5 15H11.5C11.7759 15 12 14.7759 12 14.5V9.5C12 9.22386 12.2239 9 12.5 9C12.7761 9 13 9.22386 13 9.5V14.5C13 15.3281 12.3281 16 11.5 16H1.5C0.671858 16 0 15.3281 0 14.5V4.5C0 3.67186 0.671858 3 1.5 3H6.5C6.77614 3 7 3.22386 7 3.5C7 3.77614 6.77614 4 6.5 4H1.5Z"/></svg>