<svg viewBox="0 0 24 24" xmlns="http://www.w3.org/2000/svg"><path d="M16.1526 0C15.8723 0 15.6182 0.0802269 15.4008 0.245105C15.1758 0.415825 15.0378 0.654728 14.9802 0.942574L14.4749 3.61026H13.6805C13.3486 3.61026 13.0538 3.66618 12.8473 3.82538C12.6474 3.97942 12.529 4.20476 12.4731 4.47038L12.25 5.67978H14.1528L13.7893 7.64734H12.0956L11.9465 8.55366L11.9459 8.55752C11.8971 8.88709 11.906 9.19864 12.0594 9.41447C12.2158 9.63437 12.466 9.71687 12.7379 9.71687H13.4677L12.7919 13.3449H14.0629C14.3406 13.3449 14.5976 13.2693 14.8278 13.1183C15.0882 12.9474 15.2339 12.6747 15.2896 12.3435L15.7769 9.71687H17.0948L16.6347 12.144C16.5987 12.2989 16.5955 12.4534 16.6319 12.6033C16.6652 12.7399 16.7202 12.8654 16.7993 12.9762C16.8801 13.0894 16.9827 13.1798 17.1051 13.2451C17.2293 13.3114 17.3635 13.3449 17.5042 13.3449H18.7201L19.3959 9.71687H21.3295L21.479 8.81994L21.4798 8.81495C21.5285 8.48008 21.5185 8.16349 21.3596 7.94686C21.2006 7.72999 20.9512 7.64734 20.6787 7.64734H19.7174L20.0809 5.67978H20.7677C21.0996 5.67978 21.3944 5.62386 21.6009 5.46466C21.8008 5.31062 21.9193 5.08529 21.9752 4.81967L22.1865 3.61026H20.4038L20.8912 1.05367L20.8923 1.04704C20.9383 0.763002 20.8728 0.50183 20.6783 0.294653C20.4897 0.093777 20.2413 0 19.9585 0H18.7788L18.0941 3.61026H16.7665L17.4512 0H16.1526ZM16.0894 7.64754L16.453 5.67998H17.781L17.4174 7.64754H16.0894Z"/><path d="M4.67006 1.96995C5.05987 1.87162 5.46123 1.89124 5.84166 2.05575C6.26051 2.23688 6.5582 2.58322 6.77447 2.94376C6.95369 3.22512 7.43439 3.98178 8.21604 5.21294C9.01746 6.47524 9.49719 7.72345 9.17905 8.79265C8.97196 9.54047 8.62699 10.2442 8.00389 10.6148C7.99495 10.6633 7.98787 10.7801 8.03455 10.9955L8.03867 11.0145C8.11708 11.4233 8.40464 11.9987 9.0262 12.755C9.67959 13.55 10.1614 14.0999 10.4807 14.4221C10.8177 14.7622 11.371 15.2524 12.1571 15.9005C12.9065 16.5183 13.4843 16.8216 13.9026 16.9176C14.105 16.962 14.2162 16.9566 14.2635 16.9488C14.6261 16.3283 15.3175 15.9661 16.062 15.7366L16.082 15.7304C16.6278 15.5774 17.2099 15.6364 17.7841 15.8131C18.3599 15.9903 18.9779 16.3013 19.6318 16.7188C20.8239 17.48 21.5901 17.9794 21.9013 18.2008C22.2543 18.4193 22.5885 18.7169 22.7638 19.1297C22.9252 19.5097 22.9444 19.9098 22.848 20.299L22.8371 20.3429L22.4162 21.4805C22.0583 22.4478 21.3247 23.1587 20.3287 23.6383L20.3179 23.6435C19.3844 24.0763 18.2915 24.0923 17.1129 23.8138C15.9635 23.5421 14.7844 23.0812 13.5768 22.4415C12.3811 21.8081 11.2176 21.0703 10.0862 20.2292C8.96142 19.3929 7.99314 18.5683 7.18661 17.7545C6.38011 16.9407 5.563 15.9638 4.73435 14.829C3.90089 13.6877 3.16999 12.5141 2.54254 11.3081C1.90896 10.0904 1.45281 8.90197 1.18401 7.74403C0.908616 6.55769 0.924963 5.46022 1.3517 4.52304L1.35659 4.51232C1.8303 3.51081 2.53417 2.76901 3.49715 2.40625L4.62551 1.98119L4.67006 1.96995Z"/></svg>