<svg viewBox="0 0 24 24" xmlns="http://www.w3.org/2000/svg"><path d="M4.78913 1.65517C5.28568 1.65517 5.61671 1.98621 5.78223 2.15172C6.27878 2.81379 8.09947 5.46207 8.09947 6.62069C8.09947 7.77931 7.60292 8.44138 6.60982 9.10345C6.60982 9.10345 6.94085 11.0897 9.75464 13.9034C12.2374 16.7172 14.5546 17.2138 14.5546 17.2138C14.5546 17.2138 15.0512 15.8897 16.3753 15.7241C16.5409 15.7241 16.7064 15.7241 16.8719 15.7241C18.0305 15.7241 19.1891 16.3862 21.5064 18.2069C22.334 18.869 21.3409 21.8483 18.8581 22.3448C18.6926 22.3448 18.5271 22.3448 18.3615 22.3448C15.7133 22.3448 11.2443 19.8621 7.93395 16.3862C4.78913 13.2414 2.47188 9.76552 1.80982 6.12414C1.14775 2.48276 3.96154 1.98621 4.45809 1.82069C4.62361 1.65517 4.62361 1.65517 4.78913 1.65517ZM4.78913 0C4.62361 0 4.29257 -6.166e-08 4.12706 0.165517C0.98223 0.993103 -0.507426 3.31035 0.154643 6.45517C0.816712 9.93103 2.96844 13.5724 6.60982 17.5448C10.0857 21.1862 15.0512 24 18.196 24C18.5271 24 18.6926 24 18.8581 24C21.1753 23.669 22.665 21.8483 23.1615 20.0276C23.4926 18.7034 23.1615 17.5448 22.334 16.8828C19.8512 14.8966 18.3615 14.069 16.7064 14.069C16.3753 14.069 16.2098 14.069 15.8788 14.069C14.8857 14.2345 14.2236 14.731 13.7271 15.2276C13.2305 14.8966 12.0719 14.2345 10.9133 12.9103C9.58913 11.5862 8.92706 10.4276 8.59602 9.76552C9.25809 9.10345 9.92016 8.11035 9.75464 6.62069C9.75464 5.13103 8.26499 2.81379 7.10637 1.15862C6.77533 0.662069 5.94775 0 4.78913 0Z"/></svg>