<svg xmlns="http://www.w3.org/2000/svg" viewBox="0 0 16 16"><g id="Layer_1"></g><g id="Layer_1_copy"><path d="M8,0C3.6,0,0,3.6,0,8s3.6,8,8,8s8-3.6,8-8S12.4,0,8,0z M8,15c-1.7,0-3.3-0.6-4.6-1.7l1.9-0.9c0.5-0.2,0.9-0.4,1.2-0.8c0.2-0.2,0.3-0.5,0.4-0.7C7.2,10.9,7.6,11,8,11c0.4,0,0.8-0.1,1.1-0.2c0.1,0.3,0.2,0.5,0.4,0.7c0.3,0.4,0.7,0.6,1.1,0.9c0,0,0,0,0,0l1.9,0.9C11.3,14.4,9.7,15,8,15z M5,7c0-1.7,1.3-3,3-3s3,1.3,3,3s-1.3,3-3,3c-0.5,0-0.9-0.1-1.3-0.3c0,0,0,0,0,0C5.7,9.2,5,8.2,5,7z M13.3,12.6l-2.2-1.1c-0.4-0.2-0.7-0.4-0.8-0.6c-0.1-0.1-0.2-0.3-0.2-0.5c1.2-0.7,2-2,2-3.4c0-2.2-1.8-4-4-4C5.8,3,4,4.8,4,7c0,1.5,0.8,2.7,2,3.4c0,0.2-0.1,0.4-0.3,0.5c-0.2,0.2-0.4,0.4-0.7,0.5c0,0,0,0-0.1,0l-2.2,1.1C1.6,11.3,1,9.7,1,8c0-3.9,3.1-7,7-7c3.9,0,7,3.1,7,7C15,9.7,14.4,11.3,13.3,12.6z"/></g></svg>