<svg viewBox="0 0 16 16" xmlns="http://www.w3.org/2000/svg"><path d="M7 0C5.34286 0 4 1.34286 4 3H1.5C1.22386 3 1 3.22386 1 3.5V6.55C1 6.78774 1.1674 6.9926 1.40037 7.03997C2.31328 7.22559 3 8.03268 3 9C3 9.96732 2.31328 10.7744 1.40037 10.96C1.1674 11.0074 1 11.2123 1 11.45V14.5C1 14.7761 1.22386 15 1.5 15H4.55C4.78774 15 4.9926 14.8326 5.03997 14.5996C5.22559 13.6867 6.03268 13 7 13C7.96732 13 8.77441 13.6867 8.96003 14.5996C9.0074 14.8326 9.21226 15 9.45 15H12.5C12.7761 15 13 14.7761 13 14.5V12C14.6571 12 16 10.6571 16 9C16 7.34286 14.6571 6 13 6V3.5C13 3.22386 12.7761 3 12.5 3H10C10 1.34286 8.65714 0 7 0ZM5 3C5 1.89514 5.89514 1 7 1C8.10486 1 9 1.89514 9 3C9 3.13579 8.98572 3.27028 8.95948 3.40311C8.93049 3.54986 8.96873 3.70188 9.06371 3.81745C9.15868 3.93302 9.30041 4 9.45 4H12V6.55C12 6.69959 12.067 6.84132 12.1825 6.93629C12.2981 7.03127 12.4501 7.06951 12.5969 7.04052C12.7297 7.01428 12.8642 7 13 7C14.1049 7 15 7.89514 15 9C15 10.1049 14.1049 11 13 11C12.8623 11 12.7287 10.9863 12.5998 10.9601C12.4527 10.9301 12.2999 10.9678 12.1837 11.0628C12.0674 11.1577 12 11.2999 12 11.45V14H9.82906C9.41707 12.8351 8.30723 12 7 12C5.69277 12 4.58293 12.8351 4.17094 14H2V11.8291C3.16489 11.4171 4 10.3072 4 9C4 7.69277 3.16489 6.58293 2 6.17094V4H4.55C4.69959 4 4.84132 3.93302 4.93629 3.81745C5.03127 3.70188 5.06951 3.54986 5.04052 3.40311C5.01428 3.27028 5 3.13579 5 3Z"/></svg>