<svg viewBox="0 0 24 24" xmlns="http://www.w3.org/2000/svg"><path d="M10.5 0H13.5V10.5H10.5V0ZM6.0456 20.6485C7.79703 21.8543 9.87329 22.5 11.9997 22.5001C14.1259 22.4997 16.202 21.8538 17.9532 20.6478C19.7044 19.4419 21.0482 17.7327 21.8068 15.7464C22.5654 13.76 22.7031 11.5902 22.2017 9.5239C21.7003 7.45761 20.5834 5.59224 18.9987 4.17456L16.9992 6.40956C18.1315 7.42212 18.9296 8.75463 19.288 10.2307C19.6463 11.7069 19.548 13.257 19.0061 14.676C18.4641 16.0951 17.5041 17.3161 16.253 18.1775C15.0019 19.0389 13.5187 19.5002 11.9997 19.5002C10.4807 19.5002 8.99749 19.0389 7.74638 18.1775C6.49527 17.3161 5.53521 16.0951 4.99327 14.676C4.45132 13.257 4.35302 11.7069 4.71139 10.2307C5.06976 8.75463 5.86789 7.42212 7.00018 6.40956L4.99918 4.17456C3.41441 5.59232 2.29744 7.45783 1.79606 9.52427C1.29468 11.5907 1.43251 13.7607 2.19133 15.7471C2.95015 17.7334 4.29418 19.4426 6.0456 20.6485Z"/></svg>