<svg viewBox="0 0 24 24" xmlns="http://www.w3.org/2000/svg"><g clip-path="url(#clip0)"><path d="M15 1L23 1C23.5522 1 24 1.44727 24 2V12C24 17.0439 22.1099 20.3828 18.3823 21.9243C17.8721 22.1343 17.2876 21.8926 17.0757 21.3823C16.8647 20.8716 17.1074 20.2871 17.6177 20.0757C20.3262 18.956 21.7564 16.6367 21.9712 13H15C14.4478 13 14 12.5522 14 12L14 2C14 1.44727 14.4478 1 15 1Z"/><path d="M1 1L9 1C9.55225 1 10 1.44727 10 2L10 12C10 17.044 8.10986 20.3828 4.38232 21.9243C3.87353 22.1343 3.28759 21.8926 3.07568 21.3823C2.86474 20.8716 3.10742 20.2871 3.61767 20.0757C6.32617 18.9561 7.75635 16.6367 7.97119 13L1 13C0.447751 13 9.22507e-07 12.5523 8.74228e-07 12L0 2C-4.83212e-08 1.44727 0.44775 1 1 1Z"/></g><defs><clipPath id="clip0"><path d="M24 24L0 24L-2.09815e-06 2.09815e-06L24 0L24 24Z"/></clipPath></defs></svg>