<svg viewBox="0 0 24 24" xmlns="http://www.w3.org/2000/svg"><path d="M11.96 0C6.13915 0 1.40002 4.73913 1.40002 10.56V13.7587V14.4C1.40002 15.4608 2.25922 16.32 3.32002 16.32H5.24002V11.52C5.24002 10.4785 4.41035 9.63612 3.37627 9.60562C3.8497 5.27469 7.49988 1.92 11.96 1.92C16.4202 1.92 20.0703 5.27469 20.5438 9.60562C19.5097 9.63612 18.68 10.4785 18.68 11.52V16.32H20.6C21.6608 16.32 22.52 15.4608 22.52 14.4V11.52V10.56C22.52 4.73913 17.7809 0 11.96 0ZM18.68 18.24V19.2C18.68 20.272 17.832 21.12 16.76 21.12H13.6194C13.4512 20.8286 13.2093 20.5866 12.9181 20.4181C12.6269 20.2496 12.2965 20.1606 11.96 20.16C11.4508 20.16 10.9624 20.3623 10.6024 20.7224C10.2423 21.0824 10.04 21.5708 10.04 22.08C10.04 22.5892 10.2423 23.0776 10.6024 23.4376C10.9624 23.7977 11.4508 24 11.96 24C12.2968 23.9997 12.6276 23.9109 12.9192 23.7424C13.2108 23.5739 13.4529 23.3317 13.6213 23.04H16.76C18.8695 23.04 20.6 21.3094 20.6 19.2V18.24H18.68Z"/></svg>