<svg viewBox="0 0 16 16" xmlns="http://www.w3.org/2000/svg"><path d="M1 1.5C1 1.22386 1.22386 1 1.5 1H14.5C14.7761 1 15 1.22386 15 1.5V14.5C15 14.7761 14.7761 15 14.5 15H1.5C1.22386 15 1 14.7761 1 14.5V1.5ZM1.5 0C0.671573 0 0 0.671573 0 1.5V14.5C0 15.3284 0.671573 16 1.5 16H14.5C15.3284 16 16 15.3284 16 14.5V1.5C16 0.671573 15.3284 0 14.5 0H1.5ZM5.85355 6.14645C5.65829 5.95118 5.34171 5.95118 5.14645 6.14645L2.14645 9.14645C1.95118 9.34171 1.95118 9.65829 2.14645 9.85355C2.34171 10.0488 2.65829 10.0488 2.85355 9.85355L5.5 7.20711L9.14645 10.8536C9.34171 11.0488 9.65829 11.0488 9.85355 10.8536L13.8536 6.85355C14.0488 6.65829 14.0488 6.34171 13.8536 6.14645C13.6583 5.95118 13.3417 5.95118 13.1464 6.14645L9.5 9.79289L5.85355 6.14645Z"/></svg>