<svg xmlns="http://www.w3.org/2000/svg" viewBox="0 0 16 16"><g><path d="M11.9,3.4c-0.4,0-0.8,0.1-1.1,0.2c-0.6-0.7-1.4-1-2.3-1c-0.6,0-1.2,0.2-1.8,0.6C6.7,3.2,6.6,3.2,6.5,3.3C6.4,3.2,6.4,3.1,6.3,3.1C5.7,2.5,4.9,2.1,4.1,2.1C2.4,2.1,1,3.6,1,5.3c0,0.4,0.1,0.8,0.2,1.1C0.4,7,0,7.9,0,8.9c0,1.8,1.4,3.2,3.1,3.2c0.1,0,0.1,0,0.2,0c0.5,1.1,1.6,1.7,2.8,1.7c1,0,2-0.5,2.5-1.4c1.1,0.3,2.4-0.1,3.1-1.1c0.1,0,0.2,0,0.3,0c2.2,0,3.9-1.8,3.9-4C15.9,5.2,14.1,3.4,11.9,3.4z M11.9,10.5c-0.1,0-0.1,0-0.2,0l-0.5,0l-0.3,0.4c-0.5,0.6-1.3,0.9-2.1,0.7l-0.7-0.2l-0.4,0.6c-0.4,0.6-1,0.9-1.7,0.9c-0.8,0-1.5-0.5-1.9-1.2l-0.3-0.6l-0.7,0c0,0-0.1,0-0.1,0C2,11.1,1,10.2,1,8.9c0-0.7,0.3-1.3,0.8-1.7l0.6-0.5L2.1,6.1C2,5.8,2,5.6,2,5.3c0-1.2,1-2.2,2.1-2.2c0.6,0,1.2,0.3,1.6,0.8l0.7,0.8l0.8-0.7C7.5,3.7,8,3.5,8.5,3.5c0.6,0,1.1,0.3,1.5,0.7l0.4,0.5l0.6-0.2c0.3-0.1,0.6-0.1,0.8-0.1c1.6,0,2.9,1.3,2.9,3C14.9,9.1,13.5,10.5,11.9,10.5z"/><path d="M8.9,5.9L6.6,8.3L5.5,7.2C5.3,7,5,7,4.8,7.2c-0.2,0.2-0.2,0.4,0,0.6l1.7,1.8l2.9-3c0.2-0.2,0.2-0.4,0-0.6C9.3,5.8,9,5.8,8.9,5.9z"/></g></svg>