<svg viewBox="0 0 24 24" xmlns="http://www.w3.org/2000/svg"><path d="M0.289961 8.46941L0.309547 8.58471C1.04764 12.8689 3.54565 20.6183 12 24C24 19.2 24 5.60073 24 5.60073C19.502 5.07219 15.294 3.10822 12 0C8.70598 3.10822 4.49802 5.07219 0 5.60073C0 5.60073 0 6.73736 0.289961 8.46941ZM19.691 11.947C18.4879 15.1552 16.2538 18.6344 12 20.72C7.74624 18.6344 5.5121 15.1552 4.30897 11.947C3.76975 10.5091 3.45048 9.15241 3.26247 8.05484C6.4237 7.28122 9.39679 5.87388 12 3.91763C14.6032 5.87388 17.5763 7.28122 20.7375 8.05484C20.5495 9.15241 20.2302 10.5091 19.691 11.947Z"/></svg>