<svg viewBox="0 0 16 16" xmlns="http://www.w3.org/2000/svg"><path d="M7.14645 1.14645C7.24022 1.05268 7.36739 1 7.5 1H14.5C14.6326 1 14.7598 1.05268 14.8536 1.14645C14.9473 1.24022 15 1.36739 15 1.5V5.5C15 5.63261 14.9473 5.75978 14.8536 5.85355C14.7598 5.94732 14.6326 6 14.5 6H9.5C9.40129 6 9.30478 6.02922 9.22265 6.08397L7 7.56574V1.5C7 1.36739 7.05268 1.24022 7.14645 1.14645ZM7.5 0C7.10218 0 6.72064 0.158035 6.43934 0.43934C6.15804 0.720644 6 1.10217 6 1.5V8.5C6 8.6844 6.10149 8.85383 6.26407 8.94084C6.42665 9.02785 6.62392 9.01831 6.77735 8.91603L9.65139 7H14.5C14.8978 7 15.2794 6.84196 15.5607 6.56066C15.842 6.27936 16 5.89783 16 5.5V1.5C16 1.10217 15.842 0.720644 15.5607 0.43934C15.2794 0.158035 14.8978 0 14.5 0H7.5ZM2.14645 2.14645C2.24021 2.05268 2.36739 2 2.5 2H4.5C4.77614 2 5 1.77614 5 1.5C5 1.22386 4.77614 1 4.5 1H2.5C2.10218 1 1.72064 1.15804 1.43934 1.43934C1.15804 1.72064 1 2.10218 1 2.5V14.5C1 14.8978 1.15804 15.2794 1.43934 15.5607C1.72064 15.842 2.10217 16 2.5 16H10.5C10.8978 16 11.2794 15.842 11.5607 15.5607C11.842 15.2794 12 14.8978 12 14.5V8.5C12 8.22386 11.7761 8 11.5 8C11.2239 8 11 8.22386 11 8.5V14.5C11 14.6326 10.9473 14.7598 10.8536 14.8536C10.7598 14.9473 10.6326 15 10.5 15H2.5C2.36739 15 2.24021 14.9473 2.14645 14.8536C2.05268 14.7598 2 14.6326 2 14.5V2.5C2 2.36739 2.05268 2.24021 2.14645 2.14645Z"/></svg>