<svg xmlns="http://www.w3.org/2000/svg" viewBox="0 0 16 16"><g><path d="M6,0.2H0.7c-0.3,0-0.5,0.2-0.5,0.5V6c0,0.3,0.2,0.5,0.5,0.5H6c0.3,0,0.5-0.2,0.5-0.5V0.7C6.5,0.4,6.3,0.2,6,0.2z M5.5,5.5H1.2V1.2h4.3V5.5z"/><path d="M15.3,0.2H10c-0.3,0-0.5,0.2-0.5,0.5V6c0,0.3,0.2,0.5,0.5,0.5h5.3c0.3,0,0.5-0.2,0.5-0.5V0.7C15.8,0.4,15.6,0.2,15.3,0.2z M14.8,5.5h-4.3V1.2h4.3V5.5z"/><path d="M6,9.5H0.7c-0.3,0-0.5,0.2-0.5,0.5v5.3c0,0.3,0.2,0.5,0.5,0.5H6c0.3,0,0.5-0.2,0.5-0.5V10C6.5,9.7,6.3,9.5,6,9.5z M5.5,14.8H1.2v-4.3h4.3V14.8z"/><path d="M15.3,9.5H10c-0.3,0-0.5,0.2-0.5,0.5v5.3c0,0.3,0.2,0.5,0.5,0.5h5.3c0.3,0,0.5-0.2,0.5-0.5V10C15.8,9.7,15.6,9.5,15.3,9.5z M14.8,14.8h-4.3v-4.3h4.3V14.8z"/></g></svg>