<svg viewBox="0 0 26 24" xmlns="http://www.w3.org/2000/svg"><path d="M23.7159 8.15852L17.2404 7.21652L14.3499 1.35002C14.2125 1.11372 14.0155 0.917612 13.7786 0.781299C13.5417 0.644985 13.2732 0.573242 12.9999 0.573242C12.7266 0.573242 12.458 0.644985 12.2211 0.781299C11.9842 0.917612 11.7872 1.11372 11.6499 1.35002L8.75937 7.21802L2.28387 8.15852C2.00658 8.1983 1.74596 8.31492 1.53154 8.4952C1.31712 8.67547 1.15746 8.91218 1.07066 9.17853C0.983852 9.44488 0.973367 9.73021 1.04039 10.0022C1.10741 10.2742 1.24926 10.522 1.44987 10.7175L6.13437 15.285L5.02887 21.735C4.98161 22.0109 5.01246 22.2945 5.11794 22.5537C5.22343 22.8129 5.39933 23.0375 5.62577 23.202C5.8522 23.3664 6.12014 23.4643 6.39929 23.4845C6.67844 23.5046 6.95765 23.4463 7.20537 23.316L12.9999 20.2695L18.7914 23.313C19.0391 23.4433 19.3183 23.5016 19.5975 23.4815C19.8766 23.4613 20.1445 23.3634 20.371 23.199C20.5974 23.0345 20.7733 22.8099 20.8788 22.5507C20.9843 22.2915 21.0151 22.0079 20.9679 21.732L19.8624 15.282L24.5499 10.7175C24.75 10.5221 24.8915 10.2747 24.9584 10.0031C25.0253 9.73158 25.015 9.44672 24.9286 9.18072C24.8421 8.91473 24.6831 8.6782 24.4693 8.49784C24.2555 8.31748 23.9956 8.20047 23.7189 8.16002L23.7159 8.15852Z"/></svg>