<svg viewBox="0 0 16 16" xmlns="http://www.w3.org/2000/svg"><path d="M7 1.5C7 1.22386 6.77614 1 6.5 1C6.22386 1 6 1.22386 6 1.5V13.5C6 13.7761 6.22386 14 6.5 14C6.77614 14 7 13.7761 7 13.5V1.5ZM9 2.5C9 2.22386 8.77614 2 8.5 2C8.22386 2 8 2.22386 8 2.5V14.5C8 14.7761 8.22386 15 8.5 15C8.77614 15 9 14.7761 9 14.5V2.5ZM4.5 4C4.77614 4 5 4.22386 5 4.5V11.5C5 11.7761 4.77614 12 4.5 12C4.22386 12 4 11.7761 4 11.5V4.5C4 4.22386 4.22386 4 4.5 4ZM2.96997 6.5C2.96997 6.22386 2.74611 6 2.46997 6C2.19383 6 1.96997 6.22386 1.96997 6.5V10.5C1.96997 10.7761 2.19383 11 2.46997 11C2.74611 11 2.96997 10.7761 2.96997 10.5V6.5ZM0.5 7C0.776142 7 1 7.22386 1 7.5V9.5C1 9.77614 0.776142 10 0.5 10C0.223858 10 0 9.77614 0 9.5V7.5C0 7.22386 0.223858 7 0.5 7ZM11 4.5C11 4.22386 10.7761 4 10.5 4C10.2239 4 10 4.22386 10 4.5V11.5C10 11.7761 10.2239 12 10.5 12C10.7761 12 11 11.7761 11 11.5V4.5ZM12.5 6C12.7761 6 13 6.22386 13 6.5V10.5C13 10.7761 12.7761 11 12.5 11C12.2239 11 12 10.7761 12 10.5V6.5C12 6.22386 12.2239 6 12.5 6ZM15 7.5C15 7.22386 14.7761 7 14.5 7C14.2239 7 14 7.22386 14 7.5V9.5C14 9.77614 14.2239 10 14.5 10C14.7761 10 15 9.77614 15 9.5V7.5Z"/></svg>