<svg xmlns="http://www.w3.org/2000/svg" viewBox="0 0 16 16"><style type="text/css">.st0{fill:#111111;}</style><g><path d="M3.5,0h-3C0.2,0,0,0.2,0,0.5v8C0,8.8,0.2,9,0.5,9h3C3.8,9,4,8.8,4,8.5v-8C4,0.2,3.8,0,3.5,0z M3,8H1V1h2V8z"/><path d="M16,6.9l-1.1-5c-0.1-0.6-0.4-1-1-1.4C13.5,0.2,13,0,12.4,0H5.5C5.2,0,5,0.2,5,0.5S5.2,1,5.5,1h6.9c0.4,0,0.7,0.2,1,0.3c0.3,0.2,0.4,0.5,0.5,0.8L15,7.2c0.1,0.2,0.1,0.4,0,0.6c-0.1,0.2-0.2,0.5-0.3,0.6c-0.2,0.2-0.4,0.4-0.6,0.5C14,9,13.8,9,13.5,9h-4C9.2,9,9,9.2,9,9.5v4c0,0.4-0.2,0.8-0.5,1c-0.2,0.2-0.4,0.3-0.7,0.4L6,9.3C5.9,9.1,5.6,8.9,5.3,9C5.1,9.1,4.9,9.4,5,9.7l2,6C7.1,15.9,7.3,16,7.5,16c0.6,0,1.3-0.3,1.8-0.7c0.5-0.5,0.7-1.1,0.7-1.8V10h3.5c0.3,0,0.8,0,1.2-0.3c0.3-0.2,0.6-0.5,0.8-0.7c0.3-0.3,0.4-0.7,0.5-1C16.1,7.7,16.1,7.2,16,6.9z"/></g></svg>