<svg viewBox="0 0 16 16" xmlns="http://www.w3.org/2000/svg"><path d="M0 7.99989C0 7.71753 0.188235 7.5293 0.470588 7.5293H3.29412C3.57647 7.5293 3.76471 7.71753 3.76471 7.99989V15.5293C3.76471 15.8117 3.57647 15.9999 3.29412 15.9999H0.470588C0.188235 15.9999 0 15.8117 0 15.5293V7.99989ZM0.941176 8.47047V15.0587H2.82353V8.47047H0.941176Z"/><path d="M12.1411 15.5295H5.64699C5.36464 15.5295 5.1764 15.3413 5.1764 15.0589C5.1764 14.7766 5.36464 14.5883 5.64699 14.5883H12.1411C12.4235 14.5883 12.7999 14.4942 12.9882 14.306C13.2705 14.1178 13.4588 13.8354 13.4588 13.5531L14.494 8.84717C14.494 8.65894 14.494 8.4707 14.494 8.18835C14.494 8.00011 14.3058 7.81188 14.2117 7.62364C14.1176 7.43541 13.9293 7.34129 13.7411 7.24717C13.5529 7.15306 13.3646 7.15306 13.1764 7.15306H9.41169C9.12934 7.05894 8.94111 6.8707 8.94111 6.58835V2.82364C8.94111 2.44717 8.75287 2.0707 8.56464 1.78835C8.3764 1.60011 8.09405 1.506 7.8117 1.41188L6.11758 6.77658C6.02346 6.96482 5.74111 7.15306 5.45875 7.05894C5.27052 6.96482 5.08228 6.68247 5.1764 6.40011L7.05875 0.753056C7.15287 0.564821 7.34111 0.470703 7.52934 0.470703C8.18817 0.470703 8.75287 0.753056 9.22346 1.12953C9.69405 1.506 9.88228 2.16482 9.88228 2.82364V6.11776H13.1764C13.5529 6.11776 13.8352 6.21188 14.2117 6.306C14.494 6.49423 14.7764 6.68247 15.0588 6.96482C15.247 7.24717 15.4352 7.52953 15.5293 7.906C15.6235 8.28247 15.6235 8.56482 15.5293 8.94129L14.494 13.6472C14.3999 14.2119 14.1176 14.6825 13.647 14.9648C13.1764 15.3413 12.7058 15.5295 12.1411 15.5295Z"/></svg>