<svg viewBox="0 0 16 16" xmlns="http://www.w3.org/2000/svg"><path d="M3.85355 9.14645C4.04882 9.34171 4.04882 9.65829 3.85355 9.85355L1.20711 12.5L3.85355 15.1464C4.04882 15.3417 4.04882 15.6583 3.85355 15.8536C3.65829 16.0488 3.34171 16.0488 3.14645 15.8536L0.146447 12.8536C-0.0488155 12.6583 -0.0488155 12.3417 0.146447 12.1464L3.14645 9.14645C3.34171 8.95118 3.65829 8.95118 3.85355 9.14645Z"/><path d="M15.5 8C15.7761 8 16 8.22386 16 8.5V12.5C16 12.7761 15.7761 13 15.5 13H0.5C0.223858 13 0 12.7761 0 12.5C0 12.2239 0.223858 12 0.5 12H15V8.5C15 8.22386 15.2239 8 15.5 8Z"/><path d="M12.1464 0.146447C12.3417 -0.0488155 12.6583 -0.0488155 12.8536 0.146447L15.8536 3.14645C16.0488 3.34171 16.0488 3.65829 15.8536 3.85355L12.8536 6.85355C12.6583 7.04882 12.3417 7.04882 12.1464 6.85355C11.9512 6.65829 11.9512 6.34171 12.1464 6.14645L14.7929 3.5L12.1464 0.853553C11.9512 0.658291 11.9512 0.341709 12.1464 0.146447Z"/><path d="M0 3.5C0 3.22386 0.223858 3 0.5 3H15.5C15.7761 3 16 3.22386 16 3.5C16 3.77614 15.7761 4 15.5 4H1V7.5C1 7.77614 0.776142 8 0.5 8C0.223858 8 0 7.77614 0 7.5V3.5Z"/></svg>