<svg viewBox="0 0 24 24" xmlns="http://www.w3.org/2000/svg"><g clip-path="url(#clip0)"><path d="M19.8001 7.8L16.2002 4.2L19.8001 0.6C19.0501 0.15 18.1502 0 17.2502 0C13.5002 0 10.5001 3 10.5001 6.75C10.5001 7.5 10.6501 8.1 10.8001 8.85L0.90015 16.2C-0.29985 17.1 -0.29985 18.75 0.60015 19.8L4.05015 23.4C5.10015 24.45 6.75015 24.3 7.65015 23.1L15.0002 13.2C15.7502 13.35 16.5002 13.5 17.2502 13.5C21.0002 13.5 24.0001 10.5 24.0001 6.75C24.0001 5.85 23.8501 4.95 23.5501 4.2L19.8001 7.8Z"/></g><defs><clipPath id="clip0"><path d="M0 0H24V24H0V0Z"/></clipPath></defs></svg>