<svg viewBox="0 0 16 16" xmlns="http://www.w3.org/2000/svg"><path d="M8.29107 1.04575C8.11367 1.12734 8 1.30474 8 1.50001V5.04149C6.19921 5.10334 4.2884 5.51598 2.77656 6.68324C1.0994 7.97813 0 10.133 0 13.5C0 13.7236 0.148389 13.9199 0.363438 13.981C0.578485 14.0421 0.807932 13.9529 0.925403 13.7627C2.66189 10.9512 5.27133 10.0969 8 10.008V13.5C8 13.6953 8.11367 13.8727 8.29107 13.9543C8.46847 14.0359 8.67714 14.0067 8.8254 13.8796L15.8254 7.87964C15.9362 7.78464 16 7.64597 16 7.50001C16 7.35404 15.9362 7.21537 15.8254 7.12038L8.8254 1.12038C8.67714 0.993302 8.46847 0.964158 8.29107 1.04575ZM14.7317 7.50001L9 12.4129V9.50001C9 9.22387 8.77614 9.00001 8.5 9.00001C5.87694 9.00001 3.14993 9.60728 1.1036 11.8621C1.39432 9.70411 2.27006 8.33767 3.38769 7.47477C4.78976 6.39227 6.66031 6.03301 8.5 6.03301C8.77614 6.03301 9 5.80915 9 5.53301V2.58712L14.7317 7.50001Z"/></svg>