<svg viewBox="0 0 16 16" xmlns="http://www.w3.org/2000/svg"><path d="M11.8213 2.871C10.9901 2.30329 10.0068 1.99972 9.00014 2C8.724 2.00008 8.50008 1.77628 8.5 1.50014C8.49992 1.224 8.72372 1.00008 8.99986 1C10.2078 0.999665 11.3878 1.36395 12.3853 2.04519C13.3828 2.72644 14.1515 3.69292 14.5908 4.81818C14.6912 5.07542 14.5641 5.36536 14.3068 5.46577C14.0496 5.56619 13.7596 5.43906 13.6592 5.18182C13.2932 4.2441 12.6526 3.4387 11.8213 2.871Z"/><path d="M1.93015 11.1942C2.17259 11.062 2.4763 11.1513 2.6085 11.3938C2.98576 12.0856 3.52279 12.6813 4.17847 13.129C4.7436 13.515 5.37899 13.7789 6.04422 13.9082C6.31529 13.9609 6.49232 14.2233 6.43963 14.4944C6.38694 14.7655 6.12448 14.9425 5.85341 14.8898C5.05515 14.7346 4.29268 14.418 3.6145 13.9548C2.82769 13.4175 2.18325 12.7027 1.73055 11.8725C1.59835 11.6301 1.68771 11.3264 1.93015 11.1942Z"/><path d="M12.7064 8.30005C12.0315 8.30005 11.5303 8.8125 11.5303 9.3895C11.5303 9.9665 12.0315 10.4789 12.7064 10.4789C13.3813 10.4789 13.8826 9.9665 13.8826 9.3895C13.8826 8.8125 13.3813 8.30005 12.7064 8.30005ZM10.5303 9.3895C10.5303 8.21084 11.5299 7.30005 12.7064 7.30005C13.8829 7.30005 14.8826 8.21084 14.8826 9.3895C14.8826 10.5682 13.8829 11.4789 12.7064 11.4789C11.5299 11.4789 10.5303 10.5682 10.5303 9.3895ZM12.8442 13.351C11.8942 13.351 11.1826 13.71 10.8147 13.987L10.8145 13.9871C10.6099 14.141 10.5 14.3737 10.5 14.6184V15H15V14.6184C15 14.3771 14.8888 14.1432 14.6815 13.9872L14.6813 13.9871C14.2852 13.6889 13.7679 13.351 12.8442 13.351ZM10.2133 13.188C10.7245 12.8032 11.6425 12.351 12.8442 12.351C14.0726 12.351 14.7998 12.8246 15.2827 13.1882C15.7437 13.5349 16 14.0661 16 14.6184V15.2351C16 15.6823 15.6257 16 15.2206 16H10.2741C9.85652 16 9.5 15.6702 9.5 15.2351V14.6184C9.5 14.0695 9.74964 13.5368 10.2133 13.188Z"/><path d="M3.20642 1C2.5315 1 2.03027 1.51245 2.03027 2.08945C2.03027 2.66645 2.5315 3.1789 3.20642 3.1789C3.88134 3.1789 4.38257 2.66645 4.38257 2.08945C4.38257 1.51245 3.88134 1 3.20642 1ZM1.03027 2.08945C1.03027 0.910789 2.02992 0 3.20642 0C4.38292 0 5.38257 0.910789 5.38257 2.08945C5.38257 3.26811 4.38292 4.1789 3.20642 4.1789C2.02992 4.1789 1.03027 3.26811 1.03027 2.08945ZM3.34424 6.05092C2.39423 6.05092 1.68262 6.41 1.31473 6.68693L1.31454 6.68708C1.1099 6.84097 1 7.0736 1 7.31839V7.7H5.5V7.31839C5.5 7.07705 5.38883 6.84311 5.18149 6.68719L5.18128 6.68703C4.78517 6.38882 4.26785 6.05092 3.34424 6.05092ZM0.713313 5.888C1.22454 5.50316 2.14246 5.05092 3.34424 5.05092C4.57264 5.05092 5.29977 5.52452 5.78274 5.88812C6.24369 6.23487 6.5 6.76603 6.5 7.31839V7.93509C6.5 8.38223 6.12572 8.7 5.72064 8.7H0.774143C0.356517 8.7 0 8.37017 0 7.93509V7.31839C0 6.76947 0.249645 6.23678 0.713313 5.888Z"/></svg>