<svg viewBox="0 0 24 24" xmlns="http://www.w3.org/2000/svg"><path d="M4.5 7.5C4.5 10.8 7.2 13.5 10.5 13.5C13.8 13.5 16.5 10.8 16.5 7.5V6C16.5 2.7 13.8 0 10.5 0C7.2 0 4.5 2.7 4.5 6V7.5ZM0 24C0 19.8 3.3 16.5 7.5 16.5H13.5V24H0ZM15 17.5C15 16.9477 15.4477 16.5 16 16.5C16 14.567 17.567 13 19.5 13C21.433 13 23 14.567 23 16.5C23.5523 16.5 24 16.9477 24 17.5V23C24 23.5523 23.5523 24 23 24H16C15.4477 24 15 23.5523 15 23V17.5ZM22 16.5C22 15.1193 20.8807 14 19.5 14C18.1193 14 17 15.1193 17 16.5H22Z"/></svg>