<svg viewBox="0 0 16 16" xmlns="http://www.w3.org/2000/svg"><path d="M5.1665 3.99984C5.1665 2.43503 6.43503 1.1665 7.99984 1.1665C9.56464 1.1665 10.8332 2.43503 10.8332 3.99984C10.8332 5.56464 9.56464 6.83317 7.99984 6.83317C6.43503 6.83317 5.1665 5.56464 5.1665 3.99984ZM7.99984 0.166504C5.88275 0.166504 4.1665 1.88275 4.1665 3.99984C4.1665 6.11693 5.88275 7.83317 7.99984 7.83317C10.1169 7.83317 11.8332 6.11693 11.8332 3.99984C11.8332 1.88275 10.1169 0.166504 7.99984 0.166504ZM8 9.5C5.86695 9.5 4.25281 10.1669 3.16372 11.0611C2.09348 11.9398 1.5 13.0695 1.5 14V15.3333C1.5 15.6095 1.72386 15.8333 2 15.8333H14C14.2761 15.8333 14.5 15.6095 14.5 15.3333V14C14.5 13.0726 13.9063 11.943 12.8365 11.0637C11.7476 10.1688 10.1334 9.5 8 9.5ZM2.5 14C2.5 13.4572 2.88119 12.5869 3.79828 11.8339C4.69652 11.0964 6.08239 10.5 8 10.5C9.91726 10.5 11.3031 11.0979 12.2015 11.8363C13.1191 12.5904 13.5 13.4607 13.5 14V14.8333H2.5V14Z"/></svg>