<svg viewBox="0 0 24 24" xmlns="http://www.w3.org/2000/svg"><path d="M1.84615 3.3H22.1538C22.4209 3.3 22.7 3.53274 22.7 3.9V19.1C22.7 19.4673 22.4209 19.7 22.1538 19.7H1.84615C1.5791 19.7 1.3 19.4673 1.3 19.1V3.9C1.3 3.53274 1.5791 3.3 1.84615 3.3ZM22.1538 2H1.84615C0.826154 2 0 2.85025 0 3.9V19.1C0 20.1498 0.826154 21 1.84615 21H22.1538C23.1738 21 24 20.1498 24 19.1V3.9C24 2.85025 23.1738 2 22.1538 2ZM10.5 8C10.5 7.17157 11.1716 6.5 12 6.5C12.8284 6.5 13.5 7.17157 13.5 8C13.5 8.82843 12.8284 9.5 12 9.5C11.1716 9.5 10.5 8.82843 10.5 8ZM12 5C10.3431 5 9 6.34315 9 8C9 9.65685 10.3431 11 12 11C13.6569 11 15 9.65685 15 8C15 6.34315 13.6569 5 12 5ZM11.25 14C10.2554 14 9.30161 14.3951 8.59835 15.0983C8.07456 15.6221 7.72173 16.2849 7.57575 17H16.4242C16.2783 16.2849 15.9254 15.6221 15.4017 15.0983C14.6984 14.3951 13.7446 14 12.75 14H11.25ZM7.53769 14.0377C8.52225 13.0531 9.85761 12.5 11.25 12.5H12.75C14.1424 12.5 15.4777 13.0531 16.4623 14.0377C17.4469 15.0223 18 16.3576 18 17.75C18 18.1642 17.6642 18.5 17.25 18.5H6.75C6.33579 18.5 6 18.1642 6 17.75C6 16.3576 6.55312 15.0223 7.53769 14.0377ZM6 23.25C6 22.8 6.3 22.5 6.75 22.5H17.25C17.7 22.5 18 22.8 18 23.25C18 23.7 17.7 24 17.25 24H6.75C6.3 24 6 23.7 6 23.25Z"/></svg>