<svg viewBox="0 0 16 16" xmlns="http://www.w3.org/2000/svg"><path d="M0.585786 1.58579C0.960859 1.21071 1.46957 1 2 1H14C14.5304 1 15.0391 1.21071 15.4142 1.58579C15.7893 1.96086 16 2.46957 16 3V11C16 11.5304 15.7893 12.0391 15.4142 12.4142C15.0391 12.7893 14.5304 13 14 13H10.7342L8.38411 15.8201C8.28911 15.9341 8.14839 16 8 16C7.85161 16 7.71089 15.9341 7.61589 15.8201L5.26581 13H2C1.46957 13 0.960859 12.7893 0.585786 12.4142C0.210714 12.0391 0 11.5304 0 11V3C0 2.46957 0.210714 1.96086 0.585786 1.58579ZM2 2C1.73478 2 1.48043 2.10536 1.29289 2.29289C1.10536 2.48043 1 2.73478 1 3V11C1 11.2652 1.10536 11.5196 1.29289 11.7071C1.48043 11.8946 1.73478 12 2 12H5.5C5.64839 12 5.78911 12.0659 5.88411 12.1799L8 14.719L10.1159 12.1799C10.2109 12.0659 10.3516 12 10.5 12H14C14.2652 12 14.5196 11.8946 14.7071 11.7071C14.8946 11.5196 15 11.2652 15 11V3C15 2.73478 14.8946 2.48043 14.7071 2.29289C14.5196 2.10536 14.2652 2 14 2H2ZM3.5 5C3.77614 5 4 5.22386 4 5.5V8.5C4 8.77614 3.77614 9 3.5 9C3.22386 9 3 8.77614 3 8.5V5.5C3 5.22386 3.22386 5 3.5 5ZM7 4.5C7 4.22386 6.77614 4 6.5 4C6.22386 4 6 4.22386 6 4.5V9.5C6 9.77614 6.22386 10 6.5 10C6.77614 10 7 9.77614 7 9.5V4.5ZM9.5 6C9.77614 6 10 6.22386 10 6.5V7.5C10 7.77614 9.77614 8 9.5 8C9.22386 8 9 7.77614 9 7.5V6.5C9 6.22386 9.22386 6 9.5 6ZM13 5.5C13 5.22386 12.7761 5 12.5 5C12.2239 5 12 5.22386 12 5.5V8.5C12 8.77614 12.2239 9 12.5 9C12.7761 9 13 8.77614 13 8.5V5.5Z"/></svg>