<svg viewBox="0 0 24 24" xmlns="http://www.w3.org/2000/svg"><path d="M18 2.25C18 1.9734 17.8478 1.71926 17.6039 1.58875C17.36 1.45823 17.0641 1.47254 16.834 1.62596L8.02292 7.5H0.75C0.335786 7.5 0 7.83579 0 8.25V17.25C0 17.6642 0.335786 18 0.75 18H8.02292L16.834 23.874C17.0641 24.0275 17.36 24.0418 17.6039 23.9113C17.8478 23.7807 18 23.5266 18 23.25V2.25ZM8.66603 8.87404L16.5 3.65139V21.8486L8.66603 16.626C8.54282 16.5438 8.39807 16.5 8.25 16.5H1.5V9H8.25C8.39807 9 8.54282 8.95617 8.66603 8.87404Z"/></svg>