<svg viewBox="0 0 24 24" xmlns="http://www.w3.org/2000/svg"><path d="M14.1 0.300286C15.15 -0.449714 16.5 0.300286 16.5 1.50029V22.5003C16.5 23.7003 15.15 24.3003 14.1 23.7003L5.55 18.0003H1.5C0.6 18.0003 0 17.4003 0 16.5003V7.50029C0 6.60029 0.6 6.00029 1.5 6.00029H5.55L14.1 0.300286ZM19.2 16.2006C18.6 16.8006 18.6 17.7006 19.2 18.3006C19.8 18.9006 20.85 18.9006 21.3 18.3006C24.75 14.7006 24.75 9.00059 21.3 5.55059C20.7 4.95059 19.8 4.95059 19.2 5.55059C18.6 6.15059 18.6 7.05059 19.2 7.65059C21.6 10.0506 21.6 13.8006 19.2 16.2006Z"/></svg>