<svg viewBox="0 0 16 16" xmlns="http://www.w3.org/2000/svg"><path d="M2.66669 0.833252C2.94283 0.833252 3.16669 1.05711 3.16669 1.33325V4.45413L4.90003 6.12557L4.91746 6.14649C5.18463 6.4671 5.27661 6.88395 5.17449 7.26324C5.06974 7.65231 4.7672 7.9725 4.32405 8.0843L3.16669 8.38622V9.65521L1.43421 10.4427C1.31845 10.5214 1.32207 10.6911 1.44507 10.764L3.16669 11.7031V12.6666C3.16669 13.6761 2.34283 14.4999 1.33335 14.4999H0.666687C0.390545 14.4999 0.166687 14.2761 0.166687 13.9999C0.166687 13.7238 0.390545 13.4999 0.666687 13.4999H1.33335C1.79054 13.4999 2.16669 13.1238 2.16669 12.6666V12.2967L0.951902 11.6341C0.149328 11.1755 0.149377 10.0244 0.951951 9.5658L0.972047 9.55431L2.16669 9.0113V7.61362L4.07875 7.11482C4.12923 7.1022 4.15699 7.08253 4.17268 7.06704C4.18915 7.05078 4.20173 7.02981 4.20888 7.00327C4.22241 6.95299 4.21642 6.87752 4.16224 6.80332L2.16669 4.87904V1.33325C2.16669 1.05711 2.39054 0.833252 2.66669 0.833252Z"/><path d="M8.66665 3.16675C8.20946 3.16675 7.83331 3.54289 7.83331 4.00008V8.16675L6.33331 10.1667H14C14.4572 10.1667 14.8333 9.79061 14.8333 9.33342V4.00008C14.8333 3.54289 14.4572 3.16675 14 3.16675H8.66665ZM6.83331 4.00008C6.83331 2.99061 7.65717 2.16675 8.66665 2.16675H14C15.0095 2.16675 15.8333 2.99061 15.8333 4.00008V9.33342C15.8333 10.3429 15.0095 11.1667 14 11.1667H4.33331L6.83331 7.83341V4.00008Z"/><path d="M9.5 4.83325H13.1667V5.83325H9.5V4.83325Z"/><path d="M9.5 7.5H11.8333V8.5H9.5V7.5Z"/></svg>