<svg xmlns="http://www.w3.org/2000/svg" xmlns:xlink="http://www.w3.org/1999/xlink" xmlns:lucid="lucid" width="1301" height="840"><g transform="translate(-20.000000000000014 20)" lucid:page-tab-id="0_0"><path d="M328 180c17.67 0 32 17.9 32 40s-14.33 40-32 40h-96c-17.67 0-32-17.9-32-40s14.33-40 32-40z" stroke="#5e5e5e" stroke-width="3" fill="#c7e8ac"/><use xlink:href="#a" transform="matrix(1,0,0,1,205,185) translate(21.358024691358025 39.65277777777778)"/><path d="M448 40c17.67 0 32 17.9 32 40s-14.33 40-32 40h-96c-17.67 0-32-17.9-32-40s14.33-40 32-40z" stroke="#5e5e5e" stroke-width="3" fill="#c7e8ac"/><use xlink:href="#b" transform="matrix(1,0,0,1,325,45) translate(24.475308641975303 39.65277777777778)"/><path d="M628 220c17.67 0 32 17.9 32 40s-14.33 40-32 40h-96c-17.67 0-32-17.9-32-40s14.33-40 32-40z" stroke="#5e5e5e" stroke-width="3" fill="#c7e8ac"/><use xlink:href="#c" transform="matrix(1,0,0,1,505,225) translate(22.654320987654316 39.65277777777778)"/><path d="M1108 60c17.67 0 32 17.9 32 40s-14.33 40-32 40h-96c-17.67 0-32-17.9-32-40s14.33-40 32-40z" stroke="#5e5e5e" stroke-width="3" fill="#c1e4f7"/><use xlink:href="#d" transform="matrix(1,0,0,1,985,65) translate(18.24074074074074 39.65277777777778)"/><path d="M46 400c-3.3 0-6-2.7-6-6V6c0-3.3 2.7-6 6-6h48c3.3 0 6 2.7 6 6v388c0 3.3-2.7 6-6 6z" stroke="#000" stroke-opacity="0" stroke-width="3" fill="#fff" fill-opacity="0"/><use xlink:href="#e" transform="matrix(6.123233995736766e-17,-1,1,6.123233995736766e-17,45.00000000000003,394.99999999999994) translate(85.55555555555556 30.708333333333332)"/><use xlink:href="#f" transform="matrix(6.123233995736766e-17,-1,1,6.123233995736766e-17,45.00000000000003,394.99999999999994) translate(224.51851851851853 30.708333333333332)"/><path d="M46 800c-3.3 0-6-2.7-6-6V406c0-3.3 2.7-6 6-6h48c3.3 0 6 2.7 6 6v388c0 3.3-2.7 6-6 6z" stroke="#000" stroke-opacity="0" stroke-width="3" fill="#fff" fill-opacity="0"/><use xlink:href="#g" transform="matrix(6.123233995736766e-17,-1,1,6.123233995736766e-17,45,795) translate(104.2962962962963 30.708333333333332)"/><use xlink:href="#h" transform="matrix(6.123233995736766e-17,-1,1,6.123233995736766e-17,45,795) translate(174.81481481481484 30.708333333333332)"/><path d="M48 400h1250" stroke="#de5f85" stroke-width="4" fill="none"/><path fill="#de5f85"/><path d="M1297.95 400h2.05" stroke="#de5f85" stroke-width="4" fill="none"/><path d="M300 506c0-3.3 2.7-6 6-6h788c3.3 0 6 2.7 6 6v48c0 3.3-2.7 6-6 6H306c-3.3 0-6-2.7-6-6z" stroke="#5e5e5e" stroke-width="3" fill="#fff"/><use xlink:href="#i" transform="matrix(1,0,0,1,312,512) translate(283.21604938271605 22.27777777777778)"/><use xlink:href="#j" transform="matrix(1,0,0,1,312,512) translate(374.45061728395063 22.27777777777778)"/><path d="M300 626c0-3.3 2.7-6 6-6h188c3.3 0 6 2.7 6 6v108c0 3.3-2.7 6-6 6H306c-3.3 0-6-2.7-6-6z" stroke="#5e5e5e" stroke-width="3" fill="#fff"/><use xlink:href="#k" transform="matrix(1,0,0,1,312,632) translate(27.59876543209876 53.77777777777778)"/><use xlink:href="#l" transform="matrix(1,0,0,1,312,632) translate(78.15432098765432 53.77777777777778)"/><path d="M600 626c0-3.3 2.7-6 6-6h188c3.3 0 6 2.7 6 6v108c0 3.3-2.7 6-6 6H606c-3.3 0-6-2.7-6-6z" stroke="#5e5e5e" stroke-width="3" fill="#fff"/><use xlink:href="#m" transform="matrix(1,0,0,1,612,632) translate(-1.4135802469135683 39.111111111111114)"/><use xlink:href="#l" transform="matrix(1,0,0,1,612,632) translate(52.87654320987654 65.77777777777777)"/><path d="M900 626c0-3.3 2.7-6 6-6h188c3.3 0 6 2.7 6 6v108c0 3.3-2.7 6-6 6H906c-3.3 0-6-2.7-6-6z" stroke="#5e5e5e" stroke-width="3" fill="#fff"/><use xlink:href="#n" transform="matrix(1,0,0,1,912,632) translate(78.74074074074073 53.77777777777778)"/><path d="M728 80c17.67 0 32 17.9 32 40s-14.33 40-32 40h-96c-17.67 0-32-17.9-32-40s14.33-40 32-40z" stroke="#5e5e5e" stroke-width="3" fill="#c7e8ac"/><use xlink:href="#n" transform="matrix(1,0,0,1,605,85) translate(65.74074074074073 39.65277777777778)"/><path d="M1188 200c17.67 0 32 17.9 32 40s-14.33 40-32 40h-96c-17.67 0-32-17.9-32-40s14.33-40 32-40z" stroke="#5e5e5e" stroke-width="3" fill="#c1e4f7"/><use xlink:href="#n" transform="matrix(1,0,0,1,1065,205) translate(65.74074074074073 39.65277777777778)"/><path d="M281.52 262.5l.02 1.1.13 2.03.2 2 .3 2 .38 1.97.46 1.96.56 1.96.64 1.96.73 1.98.84 2 .96 2.02 1.07 2.06 1.22 2.1 1.37 2.16 1.54 2.23 1.75 2.3 1.98 2.4 2.26 2.5 2.58 2.65 2.97 2.8 3.43 2.95 4 3.18 4.74 3.44 5.65 3.75 6.83 4.12 8.43 4.62 10.65 5.28 13.94 6.2 19.3 7.6 29.97 10.38 190.58 57.97 19.3 7.62 13.95 6.18 10.65 5.28 8.43 4.62 6.83 4.13 5.65 3.76 4.73 3.43 4 3.17 3.45 2.96 2.98 2.8 2.58 2.63 2.26 2.5 2 2.4 1.74 2.3 1.55 2.24 1.38 2.16 1.22 2.1 1.07 2.06.96 2.03.8 1.9" stroke="#5e5e5e" stroke-width="2" fill="none"/><path d="M282.52 262.5l-2 .05-.02-1.05h2z" fill="#5e5e5e"/><path d="M699.4 495.32l-7.26-13.13 9.1-1.76z" stroke="#5e5e5e" stroke-width="2" fill="#5e5e5e"/><path d="M400.02 122.5l.37 18.33 1 16.35 1.5 14.18 1.84 12.54 2.15 11.26 2.4 10.24 2.6 9.42 2.85 8.74 3.04 8.18 3.24 7.72 3.45 7.33 3.65 7 3.9 6.74 4.13 6.53 4.4 6.34 4.72 6.22 5.05 6.1 5.43 6.02 5.85 5.98 6.36 5.97 6.92 5.96 7.6 6.03 8.4 6.1 9.35 6.2 1.07.67 11.85 7.1 18.78 10.16 86.22 43.7 13.24 7.92 10 6.58 8.03 5.77 6.67 5.23 5.66 4.84 4.87 4.53 4.26 4.3 3.74 4.12 3.32 3.98 2.95 3.85 2.64 3.77 2.37 3.7 2.13 3.65 1.9 3.62 1.73 3.6 1.54 3.6 1.36 3.64 1.2 3.66 1.07 3.7.9 3.8.5 2.6" stroke="#5e5e5e" stroke-width="2" fill="none"/><path d="M401.02 122.5l-2 .05-.02-1.05h2z" fill="#5e5e5e"/><path d="M699.7 495.28l-5.92-13.78 9.23-.85z" stroke="#5e5e5e" stroke-width="2" fill="#5e5e5e"/><path d="M400.02 122.5l.37 18.33 1 16.35 1.5 14.18 1.84 12.54 2.15 11.26 2.4 10.24 2.6 9.42 2.85 8.74 3.04 8.18 3.24 7.72 3.45 7.33 3.65 7 3.9 6.74 4.13 6.53 4.4 6.34 4.72 6.22 5.05 6.1 5.43 6.02 5.85 5.98 6.36 5.97 6.92 5.96 7.6 6.03 8.4 6.1 9.35 6.2 1.07.67 11.85 7.1 18.78 10.16 86.22 43.7 13.24 7.92 10 6.58 8.03 5.77 6.67 5.23 5.66 4.84 4.87 4.53 4.26 4.3 3.74 4.12 3.32 3.98 2.95 3.85 2.64 3.77 2.37 3.7 2.13 3.65 1.9 3.62 1.73 3.6 1.54 3.6 1.36 3.64 1.2 3.66 1.07 3.7.9 3.8.5 2.6M400.02 122.53l-.02-1.03" stroke="#5e5e5e" stroke-width="2" fill="none"/><path d="M699.7 495.28l-5.92-13.78 9.23-.85z" stroke="#5e5e5e" stroke-width="2" fill="#5e5e5e"/><path d="M580.03 302.5l.13 4.84.44 5.24.66 4.76.87 4.4 1.04 4.1 1.22 3.86 1.4 3.7 1.58 3.57 1.8 3.5 2.03 3.5 2.34 3.5 2.7 3.63 3.2 3.84 3.95 4.2 5.2 4.97 8.2 7 25.87 20.23 8.67 7.45 7.1 6.72 6 6.23 5.2 5.9 4.5 5.64 3.95 5.46 3.5 5.33 3.08 5.23 2.74 5.16 2.42 5.14 2.13 5.14 1.87 5.15 1.6 5.2 1.38 5.28 1.13 5.38.7 4.3" stroke="#5e5e5e" stroke-width="2" fill="none"/><path d="M581.03 302.5l-2 .05-.03-1.05h2z" fill="#5e5e5e"/><path d="M699.76 495.27l-5.67-13.88 9.24-.7z" stroke="#5e5e5e" stroke-width="2" fill="#5e5e5e"/><path d="M680.02 162.5l1.26 66.2 2.87 46 14.57 156.6.93 48.7" stroke="#5e5e5e" stroke-width="2" fill="none"/><path d="M681.02 162.5l-2 .05-.02-1.05h2z" fill="#5e5e5e"/><path d="M699.94 495.26l-4.9-14.17 9.26-.2z" stroke="#5e5e5e" stroke-width="2" fill="#5e5e5e"/><path d="M1059.98 142.5l-.1 4.46-.32 5.25-.54 5.1-.73 4.95-.93 4.83-1.1 4.74-1.32 4.67-1.5 4.6-1.7 4.6-1.93 4.6-2.17 4.58-2.4 4.62-2.72 4.68-3.02 4.76-3.37 4.86-3.8 5-4.27 5.16-4.85 5.38-5.52 5.65-6.4 5.98-7.44 6.43-8.84 7-10.74 7.8-13.54 8.98-18.2 11-29.03 15.87-116 59.77-18.22 11-13.54 8.98-10.74 7.8-8.84 7-7.45 6.42-6.38 6-5.53 5.64-4.86 5.38-4.28 5.17-3.8 5-3.37 4.86-3.03 4.76-2.7 4.68-2.42 4.62-2.17 4.6-1.92 4.58-1.7 4.6-1.5 4.6-1.32 4.68-1.1 4.74-.93 4.83-.33 2.32" stroke="#5e5e5e" stroke-width="2" fill="none"/><path d="M1060.98 142.55l-2-.04.02-1h2z" fill="#5e5e5e"/><path d="M700.24 495.27l-3.57-14.57 9.25.7z" stroke="#5e5e5e" stroke-width="2" fill="#5e5e5e"/><path d="M1139.98 282.5v.67l-.12 1.64-.17 1.62-.24 1.6-.3 1.6-.38 1.58-.44 1.6-.52 1.6-.6 1.6-.7 1.63-.77 1.66-.9 1.7-1 1.72-1.13 1.8-1.28 1.83-1.45 1.92-1.67 2-1.88 2.1-2.16 2.2-2.5 2.32-2.88 2.48-3.37 2.67-3.98 2.88-4.74 3.15-5.74 3.47-7.05 3.87-8.85 4.38-11.4 5.07-15.33 6.04-21.93 7.6-36.15 10.84-196.94 52.15-21.93 7.6-15.32 6.03-11.4 5.07-8.85 4.38-7.04 3.87-5.73 3.47-4.74 3.15-3.98 2.88-3.37 2.67-2.88 2.5-2.5 2.32-2.15 2.2-1.88 2.1-1.66 2-1.44 1.9-1.28 1.85-1.14 1.78-1 1.73-.9 1.7-.77 1.67-.7 1.63-.6 1.6-.5 1.6-.45 1.6-.37 1.6-.3 1.58-.24 1.6-.16 1.6-.1 1.65-.02.67" stroke="#5e5e5e" stroke-width="2" fill="none"/><path d="M1140.98 282.55l-2-.04.02-1h2zM701 497.47v1.03h-2v-1.03z" fill="#5e5e5e"/><path d="M698.38 562.5v.02l-.06.18-.06.18-.06.18-.08.18-.1.2-.1.2-.12.2-.13.2-.16.24-.17.23-.2.26-.24.26-.28.28-.33.3-.4.33-.44.36-.53.38-.66.43-.8.5-1 .54-1.24.62-1.62.72-2.13.85-2.93 1-4.17 1.26-6.24 1.58-10.1 2.13-18.6 3.1-48.4 5.9-143.95 15.3-18.6 3.1-10.1 2.12-6.25 1.6-3.66 1.1" stroke="#5e5e5e" stroke-width="2" fill="none"/><path d="M699.48 562.55l-2-.04.02-1h2z" fill="#5e5e5e"/><path d="M402.66 616.66l9.1-11.92 5.28 7.63z" stroke="#5e5e5e" stroke-width="2" fill="#5e5e5e"/><path d="M700 562.5V600" stroke="#5e5e5e" stroke-width="2" fill="none"/><path d="M701 562.53h-2v-1.03h2z" fill="#5e5e5e"/><path d="M700 615.26L695.36 601h9.28z" stroke="#5e5e5e" stroke-width="2" fill="#5e5e5e"/><path d="M700.12 562.5v.02l.06.17.06.17.06.18.08.2.1.18.1.2.1.2.15.2.15.23.18.24.2.24.24.27.28.3.32.3.38.3.44.37.54.4.65.42.8.47 1 .54 1.24.63 1.62.72 2.13.84 2.9 1 4.17 1.25 6.22 1.6 10.07 2.1 18.52 3.1 47.87 5.82 146.34 15.5 18.53 3.07 10.08 2.12 6.23 1.6 3.58 1.06" stroke="#5e5e5e" stroke-width="2" fill="none"/><path d="M701.02 562.5l-2 .05-.02-1.05h2z" fill="#5e5e5e"/><path d="M997.33 616.66l-14.37-4.27 5.25-7.64z" stroke="#5e5e5e" stroke-width="2" fill="#5e5e5e"/><defs><path fill="#333" d="M108 0H70L1-190h34L89-25l56-165h34" id="o"/><path fill="#333" d="M206 0h-36l-40-164L89 0H53L-1-190h32L70-26l43-164h34l41 164 42-164h31" id="p"/><path fill="#333" d="M96-169c-40 0-48 33-48 73s9 75 48 75c24 0 41-14 43-38l32 2c-6 37-31 61-74 61-59 0-76-41-82-99-10-93 101-131 147-64 4 7 5 14 7 22l-32 3c-4-21-16-35-41-35" id="q"/><path fill="#333" d="M16-82v-28h88v28H16" id="r"/><path fill="#333" d="M115-194c53 0 69 39 70 98 0 66-23 100-70 100C84 3 66-7 56-30L54 0H23l1-261h32v101c10-23 28-34 59-34zm-8 174c40 0 45-34 45-75 0-40-5-75-45-74-42 0-51 32-51 76 0 43 10 73 51 73" id="s"/><path fill="#333" d="M84 4C-5 8 30-112 23-190h32v120c0 31 7 50 39 49 72-2 45-101 50-169h31l1 190h-30c-1-10 1-25-2-33-11 22-28 36-60 37" id="t"/><path fill="#333" d="M59-47c-2 24 18 29 38 22v24C64 9 27 4 27-40v-127H5v-23h24l9-43h21v43h35v23H59v120" id="u"/><path fill="#333" d="M100-194c62-1 85 37 85 99 1 63-27 99-86 99S16-35 15-95c0-66 28-99 85-99zM99-20c44 1 53-31 53-75 0-43-8-75-51-75s-53 32-53 75 10 74 51 75" id="v"/><path fill="#333" d="M117-194c89-4 53 116 60 194h-32v-121c0-31-8-49-39-48C34-167 62-67 57 0H25l-1-190h30c1 10-1 24 2 32 11-22 29-35 61-36" id="w"/><g id="a"><use transform="matrix(0.06172839506172839,0,0,0.06172839506172839,0,0)" xlink:href="#o"/><use transform="matrix(0.06172839506172839,0,0,0.06172839506172839,11.11111111111111,0)" xlink:href="#p"/><use transform="matrix(0.06172839506172839,0,0,0.06172839506172839,27.098765432098766,0)" xlink:href="#q"/><use transform="matrix(0.06172839506172839,0,0,0.06172839506172839,38.20987654320987,0)" xlink:href="#r"/><use transform="matrix(0.06172839506172839,0,0,0.06172839506172839,45.55555555555555,0)" xlink:href="#s"/><use transform="matrix(0.06172839506172839,0,0,0.06172839506172839,57.90123456790123,0)" xlink:href="#t"/><use transform="matrix(0.06172839506172839,0,0,0.06172839506172839,70.24691358024691,0)" xlink:href="#u"/><use transform="matrix(0.06172839506172839,0,0,0.06172839506172839,76.41975308641975,0)" xlink:href="#u"/><use transform="matrix(0.06172839506172839,0,0,0.06172839506172839,82.59259259259258,0)" xlink:href="#v"/><use transform="matrix(0.06172839506172839,0,0,0.06172839506172839,94.93827160493827,0)" xlink:href="#w"/></g><path fill="#333" d="M210-169c-67 3-38 105-44 169h-31v-121c0-29-5-50-35-48C34-165 62-65 56 0H25l-1-190h30c1 10-1 24 2 32 10-44 99-50 107 0 11-21 27-35 58-36 85-2 47 119 55 194h-31v-121c0-29-5-49-35-48" id="x"/><path fill="#333" d="M100-194c63 0 86 42 84 106H49c0 40 14 67 53 68 26 1 43-12 49-29l28 8c-11 28-37 45-77 45C44 4 14-33 15-96c1-61 26-98 85-98zm52 81c6-60-76-77-97-28-3 7-6 17-6 28h103" id="y"/><g id="b"><use transform="matrix(0.06172839506172839,0,0,0.06172839506172839,0,0)" xlink:href="#o"/><use transform="matrix(0.06172839506172839,0,0,0.06172839506172839,11.11111111111111,0)" xlink:href="#p"/><use transform="matrix(0.06172839506172839,0,0,0.06172839506172839,27.098765432098766,0)" xlink:href="#q"/><use transform="matrix(0.06172839506172839,0,0,0.06172839506172839,38.20987654320987,0)" xlink:href="#r"/><use transform="matrix(0.06172839506172839,0,0,0.06172839506172839,45.55555555555555,0)" xlink:href="#x"/><use transform="matrix(0.06172839506172839,0,0,0.06172839506172839,64.01234567901234,0)" xlink:href="#y"/><use transform="matrix(0.06172839506172839,0,0,0.06172839506172839,76.35802469135803,0)" xlink:href="#w"/><use transform="matrix(0.06172839506172839,0,0,0.06172839506172839,88.70370370370371,0)" xlink:href="#t"/></g><path fill="#333" d="M85-194c31 0 48 13 60 33l-1-100h32l1 261h-30c-2-10 0-23-3-31C134-8 116 4 85 4 32 4 16-35 15-94c0-66 23-100 70-100zm9 24c-40 0-46 34-46 75 0 40 6 74 45 74 42 0 51-32 51-76 0-42-9-74-50-73" id="z"/><path fill="#333" d="M24-231v-30h32v30H24zM24 0v-190h32V0H24" id="A"/><path fill="#333" d="M141-36C126-15 110 5 73 4 37 3 15-17 15-53c-1-64 63-63 125-63 3-35-9-54-41-54-24 1-41 7-42 31l-33-3c5-37 33-52 76-52 45 0 72 20 72 64v82c-1 20 7 32 28 27v20c-31 9-61-2-59-35zM48-53c0 20 12 33 32 33 41-3 63-29 60-74-43 2-92-5-92 41" id="B"/><path fill="#333" d="M24 0v-261h32V0H24" id="C"/><path fill="#333" d="M177-190C167-65 218 103 67 71c-23-6-38-20-44-43l32-5c15 47 100 32 89-28v-30C133-14 115 1 83 1 29 1 15-40 15-95c0-56 16-97 71-98 29-1 48 16 59 35 1-10 0-23 2-32h30zM94-22c36 0 50-32 50-73 0-42-14-75-50-75-39 0-46 34-46 75s6 73 46 73" id="D"/><g id="c"><use transform="matrix(0.06172839506172839,0,0,0.06172839506172839,0,0)" xlink:href="#o"/><use transform="matrix(0.06172839506172839,0,0,0.06172839506172839,11.11111111111111,0)" xlink:href="#p"/><use transform="matrix(0.06172839506172839,0,0,0.06172839506172839,27.098765432098766,0)" xlink:href="#q"/><use transform="matrix(0.06172839506172839,0,0,0.06172839506172839,38.20987654320987,0)" xlink:href="#r"/><use transform="matrix(0.06172839506172839,0,0,0.06172839506172839,45.55555555555555,0)" xlink:href="#z"/><use transform="matrix(0.06172839506172839,0,0,0.06172839506172839,57.90123456790123,0)" xlink:href="#A"/><use transform="matrix(0.06172839506172839,0,0,0.06172839506172839,62.77777777777777,0)" xlink:href="#B"/><use transform="matrix(0.06172839506172839,0,0,0.06172839506172839,75.12345679012346,0)" xlink:href="#C"/><use transform="matrix(0.06172839506172839,0,0,0.06172839506172839,80,0)" xlink:href="#v"/><use transform="matrix(0.06172839506172839,0,0,0.06172839506172839,92.34567901234568,0)" xlink:href="#D"/></g><path fill="#333" d="M141 0L90-78 38 0H4l68-98-65-92h35l48 74 47-74h35l-64 92 68 98h-35" id="E"/><g id="d"><use transform="matrix(0.06172839506172839,0,0,0.06172839506172839,0,0)" xlink:href="#o"/><use transform="matrix(0.06172839506172839,0,0,0.06172839506172839,11.11111111111111,0)" xlink:href="#o"/><use transform="matrix(0.06172839506172839,0,0,0.06172839506172839,22.22222222222222,0)" xlink:href="#z"/><use transform="matrix(0.06172839506172839,0,0,0.06172839506172839,34.5679012345679,0)" xlink:href="#r"/><use transform="matrix(0.06172839506172839,0,0,0.06172839506172839,41.913580246913575,0)" xlink:href="#q"/><use transform="matrix(0.06172839506172839,0,0,0.06172839506172839,53.02469135802468,0)" xlink:href="#v"/><use transform="matrix(0.06172839506172839,0,0,0.06172839506172839,65.37037037037037,0)" xlink:href="#w"/><use transform="matrix(0.06172839506172839,0,0,0.06172839506172839,77.71604938271605,0)" xlink:href="#u"/><use transform="matrix(0.06172839506172839,0,0,0.06172839506172839,83.88888888888889,0)" xlink:href="#y"/><use transform="matrix(0.06172839506172839,0,0,0.06172839506172839,96.23456790123457,0)" xlink:href="#E"/><use transform="matrix(0.06172839506172839,0,0,0.06172839506172839,107.34567901234568,0)" xlink:href="#u"/></g><path fill="#333" d="M67-125c0 53 21 87 73 88 37 1 54-22 65-47l45 17C233-25 199 4 140 4 58 4 20-42 15-125 8-235 124-281 211-232c18 10 29 29 36 50l-46 12c-8-25-30-41-62-41-52 0-71 34-72 86" id="F"/><path fill="#333" d="M110-194c64 0 96 36 96 99 0 64-35 99-97 99-61 0-95-36-95-99 0-62 34-99 96-99zm-1 164c35 0 45-28 45-65 0-40-10-65-43-65-34 0-45 26-45 65 0 36 10 65 43 65" id="G"/><path fill="#333" d="M135-194c87-1 58 113 63 194h-50c-7-57 23-157-34-157-59 0-34 97-39 157H25l-1-190h47c2 12-1 28 3 38 12-26 28-41 61-42" id="H"/><path fill="#333" d="M137-138c1-29-70-34-71-4 15 46 118 7 119 86 1 83-164 76-172 9l43-7c4 19 20 25 44 25 33 8 57-30 24-41C81-84 22-81 20-136c-2-80 154-74 161-7" id="I"/><path fill="#333" d="M85 4C-2 5 27-109 22-190h50c7 57-23 150 33 157 60-5 35-97 40-157h50l1 190h-47c-2-12 1-28-3-38-12 25-28 42-61 42" id="J"/><path fill="#333" d="M220-157c-53 9-28 100-34 157h-49v-107c1-27-5-49-29-50C55-147 81-57 75 0H25l-1-190h47c2 12-1 28 3 38 10-53 101-56 108 0 13-22 24-43 59-42 82 1 51 116 57 194h-49v-107c-1-25-5-48-29-50" id="K"/><path fill="#333" d="M185-48c-13 30-37 53-82 52C43 2 14-33 14-96s30-98 90-98c62 0 83 45 84 108H66c0 31 8 55 39 56 18 0 30-7 34-22zm-45-69c5-46-57-63-70-21-2 6-4 13-4 21h74" id="L"/><path fill="#333" d="M135-150c-39-12-60 13-60 57V0H25l-1-190h47c2 13-1 29 3 40 6-28 27-53 61-41v41" id="M"/><g id="e"><use transform="matrix(0.07407407407407407,0,0,0.07407407407407407,0,0)" xlink:href="#F"/><use transform="matrix(0.07407407407407407,0,0,0.07407407407407407,19.185185185185183,0)" xlink:href="#G"/><use transform="matrix(0.07407407407407407,0,0,0.07407407407407407,35.407407407407405,0)" xlink:href="#H"/><use transform="matrix(0.07407407407407407,0,0,0.07407407407407407,51.629629629629626,0)" xlink:href="#I"/><use transform="matrix(0.07407407407407407,0,0,0.07407407407407407,66.44444444444444,0)" xlink:href="#J"/><use transform="matrix(0.07407407407407407,0,0,0.07407407407407407,82.66666666666666,0)" xlink:href="#K"/><use transform="matrix(0.07407407407407407,0,0,0.07407407407407407,106.37037037037035,0)" xlink:href="#L"/><use transform="matrix(0.07407407407407407,0,0,0.07407407407407407,121.18518518518516,0)" xlink:href="#M"/></g><path fill="#333" d="M240-174c0 40-23 61-54 70L253 0h-59l-57-94H76V0H24v-248c93 4 217-23 216 74zM76-134c48-2 112 12 112-38 0-48-66-32-112-35v73" id="N"/><path fill="#333" d="M133-34C117-15 103 5 69 4 32 3 11-16 11-54c-1-60 55-63 116-61 1-26-3-47-28-47-18 1-26 9-28 27l-52-2c7-38 36-58 82-57s74 22 75 68l1 82c-1 14 12 18 25 15v27c-30 8-71 5-69-32zm-48 3c29 0 43-24 42-57-32 0-66-3-65 30 0 17 8 27 23 27" id="O"/><path fill="#333" d="M25 0v-261h50V0H25" id="P"/><g id="f"><use transform="matrix(0.07407407407407407,0,0,0.07407407407407407,0,0)" xlink:href="#N"/><use transform="matrix(0.07407407407407407,0,0,0.07407407407407407,19.185185185185183,0)" xlink:href="#L"/><use transform="matrix(0.07407407407407407,0,0,0.07407407407407407,34,0)" xlink:href="#O"/><use transform="matrix(0.07407407407407407,0,0,0.07407407407407407,48.81481481481481,0)" xlink:href="#P"/><use transform="matrix(0.07407407407407407,0,0,0.07407407407407407,56.22222222222221,0)" xlink:href="#K"/></g><path fill="#333" d="M147 0H94L2-248h55l64 206c17-72 42-137 63-206h54" id="Q"/><path fill="#333" d="M25-224v-37h50v37H25zM25 0v-190h50V0H25" id="R"/><path fill="#333" d="M128 0H69L1-190h53L99-40l48-150h52" id="S"/><path fill="#333" d="M88-194c31-1 46 15 58 34l-1-101h50l1 261h-48c-2-10 0-23-3-31C134-8 116 4 84 4 32 4 16-41 15-95c0-56 19-97 73-99zm17 164c33 0 40-30 41-66 1-37-9-64-41-64s-38 30-39 65c0 43 13 65 39 65" id="T"/><g id="g"><use transform="matrix(0.07407407407407407,0,0,0.07407407407407407,0,0)" xlink:href="#Q"/><use transform="matrix(0.07407407407407407,0,0,0.07407407407407407,17.25925925925926,0)" xlink:href="#R"/><use transform="matrix(0.07407407407407407,0,0,0.07407407407407407,24.666666666666664,0)" xlink:href="#S"/><use transform="matrix(0.07407407407407407,0,0,0.07407407407407407,39.48148148148148,0)" xlink:href="#R"/><use transform="matrix(0.07407407407407407,0,0,0.07407407407407407,46.888888888888886,0)" xlink:href="#T"/></g><path fill="#333" d="M115-3C79 11 28 4 28-45v-112H4v-33h27l15-45h31v45h36v33H77v99c-1 23 16 31 38 25v30" id="U"/><g id="h"><use transform="matrix(0.07407407407407407,0,0,0.07407407407407407,0,0)" xlink:href="#R"/><use transform="matrix(0.07407407407407407,0,0,0.07407407407407407,7.4074074074074066,0)" xlink:href="#H"/><use transform="matrix(0.07407407407407407,0,0,0.07407407407407407,23.629629629629623,0)" xlink:href="#U"/><use transform="matrix(0.07407407407407407,0,0,0.07407407407407407,32.44444444444444,0)" xlink:href="#L"/><use transform="matrix(0.07407407407407407,0,0,0.07407407407407407,47.259259259259245,0)" xlink:href="#M"/><use transform="matrix(0.07407407407407407,0,0,0.07407407407407407,57.62962962962962,0)" xlink:href="#H"/><use transform="matrix(0.07407407407407407,0,0,0.07407407407407407,73.85185185185185,0)" xlink:href="#O"/><use transform="matrix(0.07407407407407407,0,0,0.07407407407407407,88.66666666666666,0)" xlink:href="#P"/><use transform="matrix(0.07407407407407407,0,0,0.07407407407407407,96.07407407407406,0)" xlink:href="#I"/></g><path fill="#333" d="M114-163C36-179 61-72 57 0H25l-1-190h30c1 12-1 29 2 39 6-27 23-49 58-41v29" id="V"/><g id="i"><use transform="matrix(0.06172839506172839,0,0,0.06172839506172839,0,0)" xlink:href="#o"/><use transform="matrix(0.06172839506172839,0,0,0.06172839506172839,11.11111111111111,0)" xlink:href="#o"/><use transform="matrix(0.06172839506172839,0,0,0.06172839506172839,22.22222222222222,0)" xlink:href="#z"/><use transform="matrix(0.06172839506172839,0,0,0.06172839506172839,34.5679012345679,0)" xlink:href="#r"/><use transform="matrix(0.06172839506172839,0,0,0.06172839506172839,41.913580246913575,0)" xlink:href="#q"/><use transform="matrix(0.06172839506172839,0,0,0.06172839506172839,53.02469135802468,0)" xlink:href="#v"/><use transform="matrix(0.06172839506172839,0,0,0.06172839506172839,65.37037037037037,0)" xlink:href="#V"/><use transform="matrix(0.06172839506172839,0,0,0.06172839506172839,72.71604938271605,0)" xlink:href="#y"/></g><path fill="#333" d="M106-169C34-169 62-67 57 0H25v-261h32l-1 103c12-21 28-36 61-36 89 0 53 116 60 194h-32v-121c2-32-8-49-39-48" id="W"/><path fill="#333" d="M135-143c-3-34-86-38-87 0 15 53 115 12 119 90S17 21 10-45l28-5c4 36 97 45 98 0-10-56-113-15-118-90-4-57 82-63 122-42 12 7 21 19 24 35" id="X"/><g id="j"><use transform="matrix(0.06172839506172839,0,0,0.06172839506172839,0,0)" xlink:href="#v"/><use transform="matrix(0.06172839506172839,0,0,0.06172839506172839,12.345679012345679,0)" xlink:href="#V"/><use transform="matrix(0.06172839506172839,0,0,0.06172839506172839,19.691358024691358,0)" xlink:href="#q"/><use transform="matrix(0.06172839506172839,0,0,0.06172839506172839,30.80246913580247,0)" xlink:href="#W"/><use transform="matrix(0.06172839506172839,0,0,0.06172839506172839,43.148148148148145,0)" xlink:href="#y"/><use transform="matrix(0.06172839506172839,0,0,0.06172839506172839,55.49382716049382,0)" xlink:href="#X"/><use transform="matrix(0.06172839506172839,0,0,0.06172839506172839,66.60493827160494,0)" xlink:href="#u"/><use transform="matrix(0.06172839506172839,0,0,0.06172839506172839,72.77777777777777,0)" xlink:href="#V"/><use transform="matrix(0.06172839506172839,0,0,0.06172839506172839,80.12345679012346,0)" xlink:href="#B"/><use transform="matrix(0.06172839506172839,0,0,0.06172839506172839,92.46913580246914,0)" xlink:href="#u"/><use transform="matrix(0.06172839506172839,0,0,0.06172839506172839,98.64197530864197,0)" xlink:href="#v"/><use transform="matrix(0.06172839506172839,0,0,0.06172839506172839,110.98765432098766,0)" xlink:href="#V"/></g><path fill="#333" d="M63-220v92h138v28H63V0H30v-248h175v28H63" id="Y"/><g id="k"><use transform="matrix(0.06172839506172839,0,0,0.06172839506172839,0,0)" xlink:href="#Y"/><use transform="matrix(0.06172839506172839,0,0,0.06172839506172839,13.518518518518517,0)" xlink:href="#v"/><use transform="matrix(0.06172839506172839,0,0,0.06172839506172839,25.864197530864196,0)" xlink:href="#w"/><use transform="matrix(0.06172839506172839,0,0,0.06172839506172839,38.20987654320987,0)" xlink:href="#u"/></g><g id="l"><use transform="matrix(0.06172839506172839,0,0,0.06172839506172839,0,0)" xlink:href="#X"/><use transform="matrix(0.06172839506172839,0,0,0.06172839506172839,11.11111111111111,0)" xlink:href="#y"/><use transform="matrix(0.06172839506172839,0,0,0.06172839506172839,23.45679012345679,0)" xlink:href="#V"/><use transform="matrix(0.06172839506172839,0,0,0.06172839506172839,30.80246913580247,0)" xlink:href="#o"/><use transform="matrix(0.06172839506172839,0,0,0.06172839506172839,41.91358024691358,0)" xlink:href="#A"/><use transform="matrix(0.06172839506172839,0,0,0.06172839506172839,46.79012345679013,0)" xlink:href="#q"/><use transform="matrix(0.06172839506172839,0,0,0.06172839506172839,57.90123456790124,0)" xlink:href="#y"/></g><path fill="#333" d="M185-189c-5-48-123-54-124 2 14 75 158 14 163 119 3 78-121 87-175 55-17-10-28-26-33-46l33-7c5 56 141 63 141-1 0-78-155-14-162-118-5-82 145-84 179-34 5 7 8 16 11 25" id="Z"/><path fill="#333" d="M0 4l72-265h28L28 4H0" id="aa"/><path fill="#333" d="M127-220V0H93v-220H8v-28h204v28h-85" id="ab"/><g id="m"><use transform="matrix(0.06172839506172839,0,0,0.06172839506172839,0,0)" xlink:href="#Z"/><use transform="matrix(0.06172839506172839,0,0,0.06172839506172839,14.814814814814813,0)" xlink:href="#q"/><use transform="matrix(0.06172839506172839,0,0,0.06172839506172839,25.925925925925924,0)" xlink:href="#W"/><use transform="matrix(0.06172839506172839,0,0,0.06172839506172839,38.2716049382716,0)" xlink:href="#y"/><use transform="matrix(0.06172839506172839,0,0,0.06172839506172839,50.61728395061728,0)" xlink:href="#x"/><use transform="matrix(0.06172839506172839,0,0,0.06172839506172839,69.07407407407406,0)" xlink:href="#y"/><use transform="matrix(0.06172839506172839,0,0,0.06172839506172839,81.41975308641975,0)" xlink:href="#X"/><use transform="matrix(0.06172839506172839,0,0,0.06172839506172839,92.53086419753086,0)" xlink:href="#aa"/><use transform="matrix(0.06172839506172839,0,0,0.06172839506172839,98.7037037037037,0)" xlink:href="#ab"/><use transform="matrix(0.06172839506172839,0,0,0.06172839506172839,112.22222222222221,0)" xlink:href="#W"/><use transform="matrix(0.06172839506172839,0,0,0.06172839506172839,124.5679012345679,0)" xlink:href="#y"/><use transform="matrix(0.06172839506172839,0,0,0.06172839506172839,136.91358024691357,0)" xlink:href="#x"/><use transform="matrix(0.06172839506172839,0,0,0.06172839506172839,155.37037037037035,0)" xlink:href="#y"/><use transform="matrix(0.06172839506172839,0,0,0.06172839506172839,167.71604938271602,0)" xlink:href="#X"/></g><path fill="#333" d="M33 0v-38h34V0H33" id="ac"/><g id="n"><use transform="matrix(0.06172839506172839,0,0,0.06172839506172839,0,0)" xlink:href="#ac"/><use transform="matrix(0.06172839506172839,0,0,0.06172839506172839,6.172839506172839,0)" xlink:href="#ac"/><use transform="matrix(0.06172839506172839,0,0,0.06172839506172839,12.345679012345679,0)" xlink:href="#ac"/></g></defs></g></svg>